<?xml version="1.0" encoding="utf-8"?>
<svg xmlns="http://www.w3.org/2000/svg" xmlns:xlink="http://www.w3.org/1999/xlink" width="672" height="480" viewBox="0 0 2688 1920">
<defs>
  <clipPath id="clip690">
    <rect x="0" y="0" width="2688" height="1920"/>
  </clipPath>
</defs>
<path clip-path="url(#clip690)" d="M0 1920 L2688 1920 L2688 0 L0 0  Z" fill="#ffffff" fill-rule="evenodd" fill-opacity="1"/>
<defs>
  <clipPath id="clip691">
    <rect x="537" y="0" width="1883" height="1883"/>
  </clipPath>
</defs>
<path clip-path="url(#clip690)" d="M180.751 1800.78 L2640.76 1800.78 L2640.76 47.2441 L180.751 47.2441  Z" fill="#ffffff" fill-rule="evenodd" fill-opacity="1"/>
<defs>
  <clipPath id="clip692">
    <rect x="180" y="47" width="2461" height="1755"/>
  </clipPath>
</defs>
<polyline clip-path="url(#clip692)" style="stroke:#000000; stroke-linecap:round; stroke-linejoin:round; stroke-width:2; stroke-opacity:0.1; fill:none" points="670.782,1800.78 670.782,47.2441 "/>
<polyline clip-path="url(#clip692)" style="stroke:#000000; stroke-linecap:round; stroke-linejoin:round; stroke-width:2; stroke-opacity:0.1; fill:none" points="1163.28,1800.78 1163.28,47.2441 "/>
<polyline clip-path="url(#clip692)" style="stroke:#000000; stroke-linecap:round; stroke-linejoin:round; stroke-width:2; stroke-opacity:0.1; fill:none" points="1655.77,1800.78 1655.77,47.2441 "/>
<polyline clip-path="url(#clip692)" style="stroke:#000000; stroke-linecap:round; stroke-linejoin:round; stroke-width:2; stroke-opacity:0.1; fill:none" points="2148.26,1800.78 2148.26,47.2441 "/>
<polyline clip-path="url(#clip692)" style="stroke:#000000; stroke-linecap:round; stroke-linejoin:round; stroke-width:2; stroke-opacity:0.1; fill:none" points="2640.76,1800.78 2640.76,47.2441 "/>
<polyline clip-path="url(#clip692)" style="stroke:#000000; stroke-linecap:round; stroke-linejoin:round; stroke-width:2; stroke-opacity:0.1; fill:none" points="180.751,1796.17 2640.76,1796.17 "/>
<polyline clip-path="url(#clip692)" style="stroke:#000000; stroke-linecap:round; stroke-linejoin:round; stroke-width:2; stroke-opacity:0.1; fill:none" points="180.751,1402.92 2640.76,1402.92 "/>
<polyline clip-path="url(#clip692)" style="stroke:#000000; stroke-linecap:round; stroke-linejoin:round; stroke-width:2; stroke-opacity:0.1; fill:none" points="180.751,1009.67 2640.76,1009.67 "/>
<polyline clip-path="url(#clip692)" style="stroke:#000000; stroke-linecap:round; stroke-linejoin:round; stroke-width:2; stroke-opacity:0.1; fill:none" points="180.751,616.423 2640.76,616.423 "/>
<polyline clip-path="url(#clip692)" style="stroke:#000000; stroke-linecap:round; stroke-linejoin:round; stroke-width:2; stroke-opacity:0.1; fill:none" points="180.751,223.174 2640.76,223.174 "/>
<polyline clip-path="url(#clip690)" style="stroke:#000000; stroke-linecap:round; stroke-linejoin:round; stroke-width:4; stroke-opacity:1; fill:none" points="180.751,1800.78 2640.76,1800.78 "/>
<polyline clip-path="url(#clip690)" style="stroke:#000000; stroke-linecap:round; stroke-linejoin:round; stroke-width:4; stroke-opacity:1; fill:none" points="670.782,1800.78 670.782,1781.88 "/>
<polyline clip-path="url(#clip690)" style="stroke:#000000; stroke-linecap:round; stroke-linejoin:round; stroke-width:4; stroke-opacity:1; fill:none" points="1163.28,1800.78 1163.28,1781.88 "/>
<polyline clip-path="url(#clip690)" style="stroke:#000000; stroke-linecap:round; stroke-linejoin:round; stroke-width:4; stroke-opacity:1; fill:none" points="1655.77,1800.78 1655.77,1781.88 "/>
<polyline clip-path="url(#clip690)" style="stroke:#000000; stroke-linecap:round; stroke-linejoin:round; stroke-width:4; stroke-opacity:1; fill:none" points="2148.26,1800.78 2148.26,1781.88 "/>
<polyline clip-path="url(#clip690)" style="stroke:#000000; stroke-linecap:round; stroke-linejoin:round; stroke-width:4; stroke-opacity:1; fill:none" points="2640.76,1800.78 2640.76,1781.88 "/>
<path clip-path="url(#clip690)" d="M649.555 1861.55 L665.875 1861.55 L665.875 1865.48 L643.931 1865.48 L643.931 1861.55 Q646.593 1858.79 651.176 1854.16 Q655.782 1849.51 656.963 1848.17 Q659.208 1845.65 660.088 1843.91 Q660.991 1842.15 660.991 1840.46 Q660.991 1837.71 659.046 1835.97 Q657.125 1834.23 654.023 1834.23 Q651.824 1834.23 649.37 1835 Q646.94 1835.76 644.162 1837.31 L644.162 1832.59 Q646.986 1831.46 649.44 1830.88 Q651.893 1830.3 653.93 1830.3 Q659.301 1830.3 662.495 1832.98 Q665.69 1835.67 665.69 1840.16 Q665.69 1842.29 664.879 1844.21 Q664.092 1846.11 661.986 1848.7 Q661.407 1849.37 658.305 1852.59 Q655.204 1855.78 649.555 1861.55 Z" fill="#000000" fill-rule="nonzero" fill-opacity="1" /><path clip-path="url(#clip690)" d="M685.69 1834 Q682.078 1834 680.25 1837.57 Q678.444 1841.11 678.444 1848.24 Q678.444 1855.34 680.25 1858.91 Q682.078 1862.45 685.69 1862.45 Q689.324 1862.45 691.129 1858.91 Q692.958 1855.34 692.958 1848.24 Q692.958 1841.11 691.129 1837.57 Q689.324 1834 685.69 1834 M685.69 1830.3 Q691.5 1830.3 694.555 1834.9 Q697.634 1839.49 697.634 1848.24 Q697.634 1856.96 694.555 1861.57 Q691.5 1866.15 685.69 1866.15 Q679.879 1866.15 676.801 1861.57 Q673.745 1856.96 673.745 1848.24 Q673.745 1839.49 676.801 1834.9 Q679.879 1830.3 685.69 1830.3 Z" fill="#000000" fill-rule="nonzero" fill-opacity="1" /><path clip-path="url(#clip690)" d="M1151.45 1835 L1139.64 1853.45 L1151.45 1853.45 L1151.45 1835 M1150.22 1830.92 L1156.1 1830.92 L1156.1 1853.45 L1161.03 1853.45 L1161.03 1857.34 L1156.1 1857.34 L1156.1 1865.48 L1151.45 1865.48 L1151.45 1857.34 L1135.85 1857.34 L1135.85 1852.82 L1150.22 1830.92 Z" fill="#000000" fill-rule="nonzero" fill-opacity="1" /><path clip-path="url(#clip690)" d="M1178.76 1834 Q1175.15 1834 1173.32 1837.57 Q1171.52 1841.11 1171.52 1848.24 Q1171.52 1855.34 1173.32 1858.91 Q1175.15 1862.45 1178.76 1862.45 Q1182.4 1862.45 1184.2 1858.91 Q1186.03 1855.34 1186.03 1848.24 Q1186.03 1841.11 1184.2 1837.57 Q1182.4 1834 1178.76 1834 M1178.76 1830.3 Q1184.57 1830.3 1187.63 1834.9 Q1190.71 1839.49 1190.71 1848.24 Q1190.71 1856.96 1187.63 1861.57 Q1184.57 1866.15 1178.76 1866.15 Q1172.95 1866.15 1169.87 1861.57 Q1166.82 1856.96 1166.82 1848.24 Q1166.82 1839.49 1169.87 1834.9 Q1172.95 1830.3 1178.76 1830.3 Z" fill="#000000" fill-rule="nonzero" fill-opacity="1" /><path clip-path="url(#clip690)" d="M1641.17 1846.34 Q1638.03 1846.34 1636.17 1848.49 Q1634.35 1850.65 1634.35 1854.4 Q1634.35 1858.12 1636.17 1860.3 Q1638.03 1862.45 1641.17 1862.45 Q1644.32 1862.45 1646.15 1860.3 Q1648 1858.12 1648 1854.4 Q1648 1850.65 1646.15 1848.49 Q1644.32 1846.34 1641.17 1846.34 M1650.46 1831.69 L1650.46 1835.95 Q1648.7 1835.11 1646.89 1834.67 Q1645.11 1834.23 1643.35 1834.23 Q1638.72 1834.23 1636.27 1837.36 Q1633.84 1840.48 1633.49 1846.8 Q1634.85 1844.79 1636.91 1843.72 Q1638.98 1842.64 1641.45 1842.64 Q1646.66 1842.64 1649.67 1845.81 Q1652.7 1848.96 1652.7 1854.4 Q1652.7 1859.72 1649.55 1862.94 Q1646.41 1866.15 1641.17 1866.15 Q1635.18 1866.15 1632.01 1861.57 Q1628.84 1856.96 1628.84 1848.24 Q1628.84 1840.04 1632.73 1835.18 Q1636.61 1830.3 1643.16 1830.3 Q1644.92 1830.3 1646.71 1830.65 Q1648.51 1830.99 1650.46 1831.69 Z" fill="#000000" fill-rule="nonzero" fill-opacity="1" /><path clip-path="url(#clip690)" d="M1670.76 1834 Q1667.15 1834 1665.32 1837.57 Q1663.51 1841.11 1663.51 1848.24 Q1663.51 1855.34 1665.32 1858.91 Q1667.15 1862.45 1670.76 1862.45 Q1674.39 1862.45 1676.2 1858.91 Q1678.03 1855.34 1678.03 1848.24 Q1678.03 1841.11 1676.2 1837.57 Q1674.39 1834 1670.76 1834 M1670.76 1830.3 Q1676.57 1830.3 1679.62 1834.9 Q1682.7 1839.49 1682.7 1848.24 Q1682.7 1856.96 1679.62 1861.57 Q1676.57 1866.15 1670.76 1866.15 Q1664.95 1866.15 1661.87 1861.57 Q1658.81 1856.96 1658.81 1848.24 Q1658.81 1839.49 1661.87 1834.9 Q1664.95 1830.3 1670.76 1830.3 Z" fill="#000000" fill-rule="nonzero" fill-opacity="1" /><path clip-path="url(#clip690)" d="M2133.14 1849.07 Q2129.8 1849.07 2127.88 1850.85 Q2125.98 1852.64 2125.98 1855.76 Q2125.98 1858.89 2127.88 1860.67 Q2129.8 1862.45 2133.14 1862.45 Q2136.47 1862.45 2138.39 1860.67 Q2140.31 1858.86 2140.31 1855.76 Q2140.31 1852.64 2138.39 1850.85 Q2136.49 1849.07 2133.14 1849.07 M2128.46 1847.08 Q2125.45 1846.34 2123.76 1844.28 Q2122.09 1842.22 2122.09 1839.26 Q2122.09 1835.11 2125.03 1832.71 Q2128 1830.3 2133.14 1830.3 Q2138.3 1830.3 2141.24 1832.71 Q2144.18 1835.11 2144.18 1839.26 Q2144.18 1842.22 2142.49 1844.28 Q2140.82 1846.34 2137.83 1847.08 Q2141.21 1847.87 2143.09 1850.16 Q2144.99 1852.45 2144.99 1855.76 Q2144.99 1860.78 2141.91 1863.47 Q2138.85 1866.15 2133.14 1866.15 Q2127.42 1866.15 2124.34 1863.47 Q2121.28 1860.78 2121.28 1855.76 Q2121.28 1852.45 2123.18 1850.16 Q2125.08 1847.87 2128.46 1847.08 M2126.75 1839.7 Q2126.75 1842.38 2128.41 1843.89 Q2130.1 1845.39 2133.14 1845.39 Q2136.14 1845.39 2137.83 1843.89 Q2139.55 1842.38 2139.55 1839.7 Q2139.55 1837.01 2137.83 1835.51 Q2136.14 1834 2133.14 1834 Q2130.1 1834 2128.41 1835.51 Q2126.75 1837.01 2126.75 1839.7 Z" fill="#000000" fill-rule="nonzero" fill-opacity="1" /><path clip-path="url(#clip690)" d="M2163.3 1834 Q2159.69 1834 2157.86 1837.57 Q2156.05 1841.11 2156.05 1848.24 Q2156.05 1855.34 2157.86 1858.91 Q2159.69 1862.45 2163.3 1862.45 Q2166.93 1862.45 2168.74 1858.91 Q2170.57 1855.34 2170.57 1848.24 Q2170.57 1841.11 2168.74 1837.57 Q2166.93 1834 2163.3 1834 M2163.3 1830.3 Q2169.11 1830.3 2172.16 1834.9 Q2175.24 1839.49 2175.24 1848.24 Q2175.24 1856.96 2172.16 1861.57 Q2169.11 1866.15 2163.3 1866.15 Q2157.49 1866.15 2154.41 1861.57 Q2151.35 1856.96 2151.35 1848.24 Q2151.35 1839.49 2154.41 1834.9 Q2157.49 1830.3 2163.3 1830.3 Z" fill="#000000" fill-rule="nonzero" fill-opacity="1" /><path clip-path="url(#clip690)" d="M2600.36 1861.55 L2608 1861.55 L2608 1835.18 L2599.69 1836.85 L2599.69 1832.59 L2607.96 1830.92 L2612.63 1830.92 L2612.63 1861.55 L2620.27 1861.55 L2620.27 1865.48 L2600.36 1865.48 L2600.36 1861.55 Z" fill="#000000" fill-rule="nonzero" fill-opacity="1" /><path clip-path="url(#clip690)" d="M2639.71 1834 Q2636.1 1834 2634.27 1837.57 Q2632.47 1841.11 2632.47 1848.24 Q2632.47 1855.34 2634.27 1858.91 Q2636.1 1862.45 2639.71 1862.45 Q2643.35 1862.45 2645.15 1858.91 Q2646.98 1855.34 2646.98 1848.24 Q2646.98 1841.11 2645.15 1837.57 Q2643.35 1834 2639.71 1834 M2639.71 1830.3 Q2645.52 1830.3 2648.58 1834.9 Q2651.66 1839.49 2651.66 1848.24 Q2651.66 1856.96 2648.58 1861.57 Q2645.52 1866.15 2639.71 1866.15 Q2633.9 1866.15 2630.83 1861.57 Q2627.77 1856.96 2627.77 1848.24 Q2627.77 1839.49 2630.83 1834.9 Q2633.9 1830.3 2639.71 1830.3 Z" fill="#000000" fill-rule="nonzero" fill-opacity="1" /><path clip-path="url(#clip690)" d="M2669.88 1834 Q2666.27 1834 2664.44 1837.57 Q2662.63 1841.11 2662.63 1848.24 Q2662.63 1855.34 2664.44 1858.91 Q2666.27 1862.45 2669.88 1862.45 Q2673.51 1862.45 2675.32 1858.91 Q2677.14 1855.34 2677.14 1848.24 Q2677.14 1841.11 2675.32 1837.57 Q2673.51 1834 2669.88 1834 M2669.88 1830.3 Q2675.69 1830.3 2678.74 1834.9 Q2681.82 1839.49 2681.82 1848.24 Q2681.82 1856.96 2678.74 1861.57 Q2675.69 1866.15 2669.88 1866.15 Q2664.07 1866.15 2660.99 1861.57 Q2657.93 1856.96 2657.93 1848.24 Q2657.93 1839.49 2660.99 1834.9 Q2664.07 1830.3 2669.88 1830.3 Z" fill="#000000" fill-rule="nonzero" fill-opacity="1" /><polyline clip-path="url(#clip690)" style="stroke:#000000; stroke-linecap:round; stroke-linejoin:round; stroke-width:4; stroke-opacity:1; fill:none" points="180.751,1800.78 180.751,47.2441 "/>
<polyline clip-path="url(#clip690)" style="stroke:#000000; stroke-linecap:round; stroke-linejoin:round; stroke-width:4; stroke-opacity:1; fill:none" points="180.751,1796.17 199.649,1796.17 "/>
<polyline clip-path="url(#clip690)" style="stroke:#000000; stroke-linecap:round; stroke-linejoin:round; stroke-width:4; stroke-opacity:1; fill:none" points="180.751,1402.92 199.649,1402.92 "/>
<polyline clip-path="url(#clip690)" style="stroke:#000000; stroke-linecap:round; stroke-linejoin:round; stroke-width:4; stroke-opacity:1; fill:none" points="180.751,1009.67 199.649,1009.67 "/>
<polyline clip-path="url(#clip690)" style="stroke:#000000; stroke-linecap:round; stroke-linejoin:round; stroke-width:4; stroke-opacity:1; fill:none" points="180.751,616.423 199.649,616.423 "/>
<polyline clip-path="url(#clip690)" style="stroke:#000000; stroke-linecap:round; stroke-linejoin:round; stroke-width:4; stroke-opacity:1; fill:none" points="180.751,223.174 199.649,223.174 "/>
<path clip-path="url(#clip690)" d="M49.5521 1796.62 L79.2279 1796.62 L79.2279 1800.56 L49.5521 1800.56 L49.5521 1796.62 Z" fill="#000000" fill-rule="nonzero" fill-opacity="1" /><path clip-path="url(#clip690)" d="M93.3482 1809.51 L109.668 1809.51 L109.668 1813.45 L87.7232 1813.45 L87.7232 1809.51 Q90.3852 1806.76 94.9685 1802.13 Q99.575 1797.48 100.756 1796.13 Q103.001 1793.61 103.881 1791.88 Q104.783 1790.12 104.783 1788.43 Q104.783 1785.67 102.839 1783.94 Q100.918 1782.2 97.8158 1782.2 Q95.6167 1782.2 93.163 1782.96 Q90.7325 1783.73 87.9547 1785.28 L87.9547 1780.56 Q90.7788 1779.42 93.2324 1778.84 Q95.6861 1778.26 97.7232 1778.26 Q103.094 1778.26 106.288 1780.95 Q109.482 1783.63 109.482 1788.13 Q109.482 1790.26 108.672 1792.18 Q107.885 1794.07 105.779 1796.67 Q105.2 1797.34 102.098 1800.56 Q98.9963 1803.75 93.3482 1809.51 Z" fill="#000000" fill-rule="nonzero" fill-opacity="1" /><path clip-path="url(#clip690)" d="M119.529 1778.89 L137.885 1778.89 L137.885 1782.82 L123.811 1782.82 L123.811 1791.3 Q124.83 1790.95 125.848 1790.79 Q126.867 1790.6 127.885 1790.6 Q133.672 1790.6 137.052 1793.77 Q140.431 1796.94 140.431 1802.36 Q140.431 1807.94 136.959 1811.04 Q133.487 1814.12 127.167 1814.12 Q124.992 1814.12 122.723 1813.75 Q120.478 1813.38 118.07 1812.64 L118.07 1807.94 Q120.154 1809.07 122.376 1809.63 Q124.598 1810.19 127.075 1810.19 Q131.079 1810.19 133.417 1808.08 Q135.755 1805.97 135.755 1802.36 Q135.755 1798.75 133.417 1796.64 Q131.079 1794.54 127.075 1794.54 Q125.2 1794.54 123.325 1794.95 Q121.473 1795.37 119.529 1796.25 L119.529 1778.89 Z" fill="#000000" fill-rule="nonzero" fill-opacity="1" /><path clip-path="url(#clip690)" d="M128.487 1388.72 Q124.876 1388.72 123.047 1392.28 Q121.242 1395.83 121.242 1402.96 Q121.242 1410.06 123.047 1413.63 Q124.876 1417.17 128.487 1417.17 Q132.121 1417.17 133.927 1413.63 Q135.755 1410.06 135.755 1402.96 Q135.755 1395.83 133.927 1392.28 Q132.121 1388.72 128.487 1388.72 M128.487 1385.02 Q134.297 1385.02 137.353 1389.62 Q140.431 1394.21 140.431 1402.96 Q140.431 1411.68 137.353 1416.29 Q134.297 1420.87 128.487 1420.87 Q122.677 1420.87 119.598 1416.29 Q116.543 1411.68 116.543 1402.96 Q116.543 1394.21 119.598 1389.62 Q122.677 1385.02 128.487 1385.02 Z" fill="#000000" fill-rule="nonzero" fill-opacity="1" /><path clip-path="url(#clip690)" d="M93.3482 1023.02 L109.668 1023.02 L109.668 1026.95 L87.7232 1026.95 L87.7232 1023.02 Q90.3852 1020.26 94.9685 1015.63 Q99.575 1010.98 100.756 1009.64 Q103.001 1007.11 103.881 1005.38 Q104.783 1003.62 104.783 1001.93 Q104.783 999.174 102.839 997.438 Q100.918 995.702 97.8158 995.702 Q95.6167 995.702 93.163 996.466 Q90.7325 997.23 87.9547 998.781 L87.9547 994.058 Q90.7788 992.924 93.2324 992.345 Q95.6861 991.767 97.7232 991.767 Q103.094 991.767 106.288 994.452 Q109.482 997.137 109.482 1001.63 Q109.482 1003.76 108.672 1005.68 Q107.885 1007.58 105.779 1010.17 Q105.2 1010.84 102.098 1014.06 Q98.9963 1017.25 93.3482 1023.02 Z" fill="#000000" fill-rule="nonzero" fill-opacity="1" /><path clip-path="url(#clip690)" d="M119.529 992.392 L137.885 992.392 L137.885 996.327 L123.811 996.327 L123.811 1004.8 Q124.83 1004.45 125.848 1004.29 Q126.867 1004.1 127.885 1004.1 Q133.672 1004.1 137.052 1007.28 Q140.431 1010.45 140.431 1015.86 Q140.431 1021.44 136.959 1024.54 Q133.487 1027.62 127.167 1027.62 Q124.992 1027.62 122.723 1027.25 Q120.478 1026.88 118.07 1026.14 L118.07 1021.44 Q120.154 1022.58 122.376 1023.13 Q124.598 1023.69 127.075 1023.69 Q131.079 1023.69 133.417 1021.58 Q135.755 1019.47 135.755 1015.86 Q135.755 1012.25 133.417 1010.15 Q131.079 1008.04 127.075 1008.04 Q125.2 1008.04 123.325 1008.46 Q121.473 1008.87 119.529 1009.75 L119.529 992.392 Z" fill="#000000" fill-rule="nonzero" fill-opacity="1" /><path clip-path="url(#clip690)" d="M88.3714 599.143 L106.728 599.143 L106.728 603.078 L92.6537 603.078 L92.6537 611.55 Q93.6723 611.203 94.6908 611.041 Q95.7093 610.856 96.7278 610.856 Q102.515 610.856 105.894 614.027 Q109.274 617.198 109.274 622.615 Q109.274 628.194 105.802 631.295 Q102.33 634.374 96.0102 634.374 Q93.8343 634.374 91.5658 634.004 Q89.3204 633.633 86.913 632.893 L86.913 628.194 Q88.9964 629.328 91.2186 629.883 Q93.4408 630.439 95.9176 630.439 Q99.9222 630.439 102.26 628.333 Q104.598 626.226 104.598 622.615 Q104.598 619.004 102.26 616.897 Q99.9222 614.791 95.9176 614.791 Q94.0426 614.791 92.1676 615.208 Q90.3158 615.624 88.3714 616.504 L88.3714 599.143 Z" fill="#000000" fill-rule="nonzero" fill-opacity="1" /><path clip-path="url(#clip690)" d="M128.487 602.222 Q124.876 602.222 123.047 605.786 Q121.242 609.328 121.242 616.458 Q121.242 623.564 123.047 627.129 Q124.876 630.67 128.487 630.67 Q132.121 630.67 133.927 627.129 Q135.755 623.564 135.755 616.458 Q135.755 609.328 133.927 605.786 Q132.121 602.222 128.487 602.222 M128.487 598.518 Q134.297 598.518 137.353 603.124 Q140.431 607.708 140.431 616.458 Q140.431 625.184 137.353 629.791 Q134.297 634.374 128.487 634.374 Q122.677 634.374 119.598 629.791 Q116.543 625.184 116.543 616.458 Q116.543 607.708 119.598 603.124 Q122.677 598.518 128.487 598.518 Z" fill="#000000" fill-rule="nonzero" fill-opacity="1" /><path clip-path="url(#clip690)" d="M88.1399 205.894 L110.362 205.894 L110.362 207.885 L97.8158 240.454 L92.9315 240.454 L104.737 209.829 L88.1399 209.829 L88.1399 205.894 Z" fill="#000000" fill-rule="nonzero" fill-opacity="1" /><path clip-path="url(#clip690)" d="M119.529 205.894 L137.885 205.894 L137.885 209.829 L123.811 209.829 L123.811 218.301 Q124.83 217.954 125.848 217.792 Q126.867 217.607 127.885 217.607 Q133.672 217.607 137.052 220.778 Q140.431 223.95 140.431 229.366 Q140.431 234.945 136.959 238.047 Q133.487 241.125 127.167 241.125 Q124.992 241.125 122.723 240.755 Q120.478 240.385 118.07 239.644 L118.07 234.945 Q120.154 236.079 122.376 236.635 Q124.598 237.19 127.075 237.19 Q131.079 237.19 133.417 235.084 Q135.755 232.977 135.755 229.366 Q135.755 225.755 133.417 223.649 Q131.079 221.542 127.075 221.542 Q125.2 221.542 123.325 221.959 Q121.473 222.375 119.529 223.255 L119.529 205.894 Z" fill="#000000" fill-rule="nonzero" fill-opacity="1" /><polyline clip-path="url(#clip692)" style="stroke:#009af9; stroke-linecap:round; stroke-linejoin:round; stroke-width:4; stroke-opacity:1; fill:none" points="180.751,96.8724 180.95,180.241 181.148,252.202 181.346,314.974 181.545,370.234 181.743,419.276 181.942,463.109 182.14,502.538 182.339,538.209 182.537,570.647 182.735,600.282 182.934,627.474 183.132,652.52 183.331,675.674 183.529,697.15 183.727,717.129 183.926,735.769 184.323,769.558 184.719,799.405 185.116,825.991 185.513,849.85 185.91,871.401 186.307,890.985 186.704,908.876 187.1,925.299 187.894,954.456 188.688,979.618 189.481,1001.62 190.275,1021.06 191.069,1038.42 191.862,1054.04 192.656,1068.21 193.449,1081.13 195.037,1103.95 196.624,1123.54 198.211,1140.64 199.799,1155.77 201.386,1169.3 202.973,1181.51 204.56,1192.63 206.148,1202.82 210.796,1228.48 215.444,1249.56 220.092,1267.38 224.741,1282.81 229.389,1296.4 234.037,1308.52 238.685,1319.47 243.334,1329.44 252.63,1347.06 261.927,1362.27 271.223,1375.64 280.52,1387.58 299.113,1408.17 317.706,1425.52 336.299,1440.51 354.892,1453.71 372.191,1464.71 389.49,1474.72 406.789,1483.89 424.088,1492.36 470.462,1512.29 516.836,1529.16 555.155,1541.39 593.474,1552.39 629.107,1561.72 664.741,1570.32 754.204,1589.35 834.454,1604 926.31,1618.69 994.972,1628.51 1082.79,1639.92 1162.95,1649.39 1254.17,1659.26 1326.49,1666.51 1416.33,1674.89 1485.14,1680.9 1582.15,1688.86 1654.64,1694.45 1737.08,1700.48 1818.72,1706.15 1908.54,1712.06 1977.15,1716.37 2063.73,1721.58 2143.8,1726.19 2226.39,1730.75 2310.1,1735.19 2397.5,1739.64 2466.36,1743.02 2623.16,1750.36 2640.76,1751.15 "/>
<polyline clip-path="url(#clip692)" style="stroke:#e26f46; stroke-linecap:round; stroke-linejoin:round; stroke-width:4; stroke-opacity:1; fill:none" points="202.913,3554.31 202.913,-1706.29 "/>
<polyline clip-path="url(#clip692)" style="stroke:#e26f46; stroke-linecap:round; stroke-linejoin:round; stroke-width:4; stroke-opacity:1; fill:none" points="218.494,3554.31 218.494,-1706.29 "/>
<polyline clip-path="url(#clip692)" style="stroke:#e26f46; stroke-linecap:round; stroke-linejoin:round; stroke-width:4; stroke-opacity:1; fill:none" points="229.424,3554.31 229.424,-1706.29 "/>
<polyline clip-path="url(#clip692)" style="stroke:#e26f46; stroke-linecap:round; stroke-linejoin:round; stroke-width:4; stroke-opacity:1; fill:none" points="237.928,3554.31 237.928,-1706.29 "/>
<polyline clip-path="url(#clip692)" style="stroke:#e26f46; stroke-linecap:round; stroke-linejoin:round; stroke-width:4; stroke-opacity:1; fill:none" points="244.852,3554.31 244.852,-1706.29 "/>
<polyline clip-path="url(#clip692)" style="stroke:#e26f46; stroke-linecap:round; stroke-linejoin:round; stroke-width:4; stroke-opacity:1; fill:none" points="250.636,3554.31 250.636,-1706.29 "/>
<polyline clip-path="url(#clip692)" style="stroke:#e26f46; stroke-linecap:round; stroke-linejoin:round; stroke-width:4; stroke-opacity:1; fill:none" points="255.552,3554.31 255.552,-1706.29 "/>
<polyline clip-path="url(#clip692)" style="stroke:#e26f46; stroke-linecap:round; stroke-linejoin:round; stroke-width:4; stroke-opacity:1; fill:none" points="259.785,3554.31 259.785,-1706.29 "/>
<polyline clip-path="url(#clip692)" style="stroke:#e26f46; stroke-linecap:round; stroke-linejoin:round; stroke-width:4; stroke-opacity:1; fill:none" points="263.458,3554.31 263.458,-1706.29 "/>
<polyline clip-path="url(#clip692)" style="stroke:#e26f46; stroke-linecap:round; stroke-linejoin:round; stroke-width:4; stroke-opacity:1; fill:none" points="266.672,3554.31 266.672,-1706.29 "/>
<polyline clip-path="url(#clip692)" style="stroke:#000000; stroke-linecap:round; stroke-linejoin:round; stroke-width:4; stroke-opacity:1; fill:none" points="-2279.25,1402.92 5100.76,1402.92 "/>
<path clip-path="url(#clip690)" d="M1592.11 261.215 L2558.76 261.215 L2558.76 105.695 L1592.11 105.695  Z" fill="#ffffff" fill-rule="evenodd" fill-opacity="1"/>
<polyline clip-path="url(#clip690)" style="stroke:#000000; stroke-linecap:round; stroke-linejoin:round; stroke-width:4; stroke-opacity:1; fill:none" points="1592.11,261.215 2558.76,261.215 2558.76,105.695 1592.11,105.695 1592.11,261.215 "/>
<polyline clip-path="url(#clip690)" style="stroke:#009af9; stroke-linecap:round; stroke-linejoin:round; stroke-width:4; stroke-opacity:1; fill:none" points="1619.44,157.535 1783.44,157.535 "/>
<path clip-path="url(#clip690)" d="M1810.78 140.255 L1815.48 140.255 L1815.48 161.251 Q1815.48 166.806 1817.49 169.26 Q1819.5 171.69 1824.02 171.69 Q1828.51 171.69 1830.52 169.26 Q1832.54 166.806 1832.54 161.251 L1832.54 140.255 L1837.24 140.255 L1837.24 161.829 Q1837.24 168.588 1833.88 172.038 Q1830.55 175.487 1824.02 175.487 Q1817.47 175.487 1814.11 172.038 Q1810.78 168.588 1810.78 161.829 L1810.78 140.255 Z" fill="#000000" fill-rule="nonzero" fill-opacity="1" /><polyline clip-path="url(#clip690)" style="stroke:#e26f46; stroke-linecap:round; stroke-linejoin:round; stroke-width:4; stroke-opacity:1; fill:none" points="1619.44,209.375 1783.44,209.375 "/>
<path clip-path="url(#clip690)" d="M1821.4 190.683 Q1818.3 196.007 1816.8 201.216 Q1815.29 206.424 1815.29 211.771 Q1815.29 217.118 1816.8 222.373 Q1818.32 227.604 1821.4 232.905 L1817.7 232.905 Q1814.23 227.465 1812.49 222.211 Q1810.78 216.956 1810.78 211.771 Q1810.78 206.609 1812.49 201.378 Q1814.2 196.146 1817.7 190.683 L1821.4 190.683 Z" fill="#000000" fill-rule="nonzero" fill-opacity="1" /><path clip-path="url(#clip690)" d="M1841.4 196.702 L1835.06 213.901 L1847.77 213.901 L1841.4 196.702 M1838.76 192.095 L1844.06 192.095 L1857.24 226.655 L1852.38 226.655 L1849.23 217.79 L1833.65 217.79 L1830.5 226.655 L1825.57 226.655 L1838.76 192.095 Z" fill="#000000" fill-rule="nonzero" fill-opacity="1" /><path clip-path="url(#clip690)" d="M1862.1 190.637 L1866.36 190.637 L1866.36 226.655 L1862.1 226.655 L1862.1 190.637 Z" fill="#000000" fill-rule="nonzero" fill-opacity="1" /><path clip-path="url(#clip690)" d="M1892.33 213.391 Q1892.33 208.762 1890.41 206.216 Q1888.51 203.669 1885.06 203.669 Q1881.63 203.669 1879.71 206.216 Q1877.81 208.762 1877.81 213.391 Q1877.81 217.998 1879.71 220.544 Q1881.63 223.09 1885.06 223.09 Q1888.51 223.09 1890.41 220.544 Q1892.33 217.998 1892.33 213.391 M1896.59 223.438 Q1896.59 230.058 1893.65 233.276 Q1890.71 236.516 1884.64 236.516 Q1882.4 236.516 1880.41 236.169 Q1878.42 235.845 1876.54 235.151 L1876.54 231.007 Q1878.42 232.026 1880.25 232.512 Q1882.07 232.998 1883.97 232.998 Q1888.16 232.998 1890.25 230.799 Q1892.33 228.623 1892.33 224.202 L1892.33 222.095 Q1891.01 224.387 1888.95 225.521 Q1886.89 226.655 1884.02 226.655 Q1879.25 226.655 1876.33 223.021 Q1873.42 219.387 1873.42 213.391 Q1873.42 207.373 1876.33 203.739 Q1879.25 200.104 1884.02 200.104 Q1886.89 200.104 1888.95 201.239 Q1891.01 202.373 1892.33 204.665 L1892.33 200.729 L1896.59 200.729 L1896.59 223.438 Z" fill="#000000" fill-rule="nonzero" fill-opacity="1" /><path clip-path="url(#clip690)" d="M1904.92 216.424 L1904.92 200.729 L1909.18 200.729 L1909.18 216.262 Q1909.18 219.942 1910.62 221.794 Q1912.05 223.623 1914.92 223.623 Q1918.37 223.623 1920.36 221.424 Q1922.37 219.225 1922.37 215.428 L1922.37 200.729 L1926.63 200.729 L1926.63 226.655 L1922.37 226.655 L1922.37 222.674 Q1920.82 225.035 1918.76 226.192 Q1916.73 227.327 1914.02 227.327 Q1909.55 227.327 1907.24 224.549 Q1904.92 221.771 1904.92 216.424 M1915.64 200.104 L1915.64 200.104 Z" fill="#000000" fill-rule="nonzero" fill-opacity="1" /><path clip-path="url(#clip690)" d="M1956.96 211.007 L1956.96 226.655 L1952.7 226.655 L1952.7 211.146 Q1952.7 207.466 1951.26 205.637 Q1949.83 203.808 1946.96 203.808 Q1943.51 203.808 1941.52 206.007 Q1939.53 208.206 1939.53 212.003 L1939.53 226.655 L1935.25 226.655 L1935.25 200.729 L1939.53 200.729 L1939.53 204.757 Q1941.06 202.419 1943.12 201.262 Q1945.2 200.104 1947.91 200.104 Q1952.37 200.104 1954.67 202.882 Q1956.96 205.637 1956.96 211.007 Z" fill="#000000" fill-rule="nonzero" fill-opacity="1" /><path clip-path="url(#clip690)" d="M1981.98 201.493 L1981.98 205.521 Q1980.18 204.595 1978.23 204.132 Q1976.29 203.669 1974.2 203.669 Q1971.03 203.669 1969.43 204.641 Q1967.86 205.614 1967.86 207.558 Q1967.86 209.04 1968.99 209.896 Q1970.13 210.729 1973.55 211.493 L1975.01 211.817 Q1979.55 212.79 1981.45 214.572 Q1983.37 216.331 1983.37 219.503 Q1983.37 223.114 1980.5 225.22 Q1977.65 227.327 1972.65 227.327 Q1970.57 227.327 1968.3 226.91 Q1966.06 226.516 1963.56 225.706 L1963.56 221.308 Q1965.92 222.535 1968.21 223.16 Q1970.5 223.762 1972.74 223.762 Q1975.75 223.762 1977.37 222.743 Q1978.99 221.702 1978.99 219.827 Q1978.99 218.09 1977.81 217.165 Q1976.66 216.239 1972.7 215.382 L1971.22 215.035 Q1967.26 214.202 1965.5 212.489 Q1963.74 210.753 1963.74 207.743 Q1963.74 204.086 1966.33 202.095 Q1968.93 200.104 1973.69 200.104 Q1976.05 200.104 1978.14 200.452 Q1980.22 200.799 1981.98 201.493 Z" fill="#000000" fill-rule="nonzero" fill-opacity="1" /><path clip-path="url(#clip690)" d="M2022.28 204.665 L2022.28 190.637 L2026.54 190.637 L2026.54 226.655 L2022.28 226.655 L2022.28 222.766 Q2020.94 225.081 2018.88 226.215 Q2016.84 227.327 2013.97 227.327 Q2009.27 227.327 2006.31 223.577 Q2003.37 219.827 2003.37 213.716 Q2003.37 207.604 2006.31 203.854 Q2009.27 200.104 2013.97 200.104 Q2016.84 200.104 2018.88 201.239 Q2020.94 202.35 2022.28 204.665 M2007.77 213.716 Q2007.77 218.415 2009.69 221.1 Q2011.63 223.762 2015.01 223.762 Q2018.39 223.762 2020.34 221.1 Q2022.28 218.415 2022.28 213.716 Q2022.28 209.016 2020.34 206.354 Q2018.39 203.669 2015.01 203.669 Q2011.63 203.669 2009.69 206.354 Q2007.77 209.016 2007.77 213.716 Z" fill="#000000" fill-rule="nonzero" fill-opacity="1" /><path clip-path="url(#clip690)" d="M2045.36 203.716 Q2041.93 203.716 2039.94 206.401 Q2037.95 209.063 2037.95 213.716 Q2037.95 218.368 2039.92 221.053 Q2041.91 223.715 2045.36 223.715 Q2048.76 223.715 2050.75 221.03 Q2052.74 218.345 2052.74 213.716 Q2052.74 209.109 2050.75 206.424 Q2048.76 203.716 2045.36 203.716 M2045.36 200.104 Q2050.92 200.104 2054.09 203.716 Q2057.26 207.327 2057.26 213.716 Q2057.26 220.081 2054.09 223.715 Q2050.92 227.327 2045.36 227.327 Q2039.78 227.327 2036.61 223.715 Q2033.46 220.081 2033.46 213.716 Q2033.46 207.327 2036.61 203.716 Q2039.78 200.104 2045.36 200.104 Z" fill="#000000" fill-rule="nonzero" fill-opacity="1" /><path clip-path="url(#clip690)" d="M2080.85 201.493 L2080.85 205.521 Q2079.04 204.595 2077.1 204.132 Q2075.15 203.669 2073.07 203.669 Q2069.9 203.669 2068.3 204.641 Q2066.73 205.614 2066.73 207.558 Q2066.73 209.04 2067.86 209.896 Q2068.99 210.729 2072.42 211.493 L2073.88 211.817 Q2078.42 212.79 2080.31 214.572 Q2082.23 216.331 2082.23 219.503 Q2082.23 223.114 2079.36 225.22 Q2076.52 227.327 2071.52 227.327 Q2069.43 227.327 2067.17 226.91 Q2064.92 226.516 2062.42 225.706 L2062.42 221.308 Q2064.78 222.535 2067.07 223.16 Q2069.36 223.762 2071.61 223.762 Q2074.62 223.762 2076.24 222.743 Q2077.86 221.702 2077.86 219.827 Q2077.86 218.09 2076.68 217.165 Q2075.52 216.239 2071.56 215.382 L2070.08 215.035 Q2066.12 214.202 2064.36 212.489 Q2062.61 210.753 2062.61 207.743 Q2062.61 204.086 2065.2 202.095 Q2067.79 200.104 2072.56 200.104 Q2074.92 200.104 2077 200.452 Q2079.09 200.799 2080.85 201.493 Z" fill="#000000" fill-rule="nonzero" fill-opacity="1" /><path clip-path="url(#clip690)" d="M2088.35 190.683 L2092.05 190.683 Q2095.52 196.146 2097.23 201.378 Q2098.97 206.609 2098.97 211.771 Q2098.97 216.956 2097.23 222.211 Q2095.52 227.465 2092.05 232.905 L2088.35 232.905 Q2091.42 227.604 2092.93 222.373 Q2094.46 217.118 2094.46 211.771 Q2094.46 206.424 2092.93 201.216 Q2091.42 196.007 2088.35 190.683 Z" fill="#000000" fill-rule="nonzero" fill-opacity="1" /><path clip-path="url(#clip690)" d="M2126.79 193.368 L2126.79 200.729 L2135.57 200.729 L2135.57 204.04 L2126.79 204.04 L2126.79 218.114 Q2126.79 221.285 2127.65 222.188 Q2128.53 223.09 2131.19 223.09 L2135.57 223.09 L2135.57 226.655 L2131.19 226.655 Q2126.26 226.655 2124.39 224.827 Q2122.51 222.975 2122.51 218.114 L2122.51 204.04 L2119.39 204.04 L2119.39 200.729 L2122.51 200.729 L2122.51 193.368 L2126.79 193.368 Z" fill="#000000" fill-rule="nonzero" fill-opacity="1" /><path clip-path="url(#clip690)" d="M2162.72 211.007 L2162.72 226.655 L2158.46 226.655 L2158.46 211.146 Q2158.46 207.466 2157.03 205.637 Q2155.59 203.808 2152.72 203.808 Q2149.27 203.808 2147.28 206.007 Q2145.29 208.206 2145.29 212.003 L2145.29 226.655 L2141.01 226.655 L2141.01 190.637 L2145.29 190.637 L2145.29 204.757 Q2146.82 202.419 2148.88 201.262 Q2150.96 200.104 2153.67 200.104 Q2158.14 200.104 2160.43 202.882 Q2162.72 205.637 2162.72 211.007 Z" fill="#000000" fill-rule="nonzero" fill-opacity="1" /><path clip-path="url(#clip690)" d="M2193.39 212.628 L2193.39 214.711 L2173.81 214.711 Q2174.09 219.109 2176.45 221.424 Q2178.83 223.715 2183.07 223.715 Q2185.52 223.715 2187.81 223.114 Q2190.13 222.512 2192.4 221.308 L2192.4 225.336 Q2190.1 226.308 2187.7 226.817 Q2185.29 227.327 2182.81 227.327 Q2176.61 227.327 2172.98 223.715 Q2169.36 220.104 2169.36 213.947 Q2169.36 207.581 2172.79 203.854 Q2176.24 200.104 2182.07 200.104 Q2187.3 200.104 2190.34 203.484 Q2193.39 206.841 2193.39 212.628 M2189.13 211.378 Q2189.09 207.882 2187.16 205.799 Q2185.27 203.716 2182.12 203.716 Q2178.55 203.716 2176.4 205.729 Q2174.27 207.743 2173.95 211.401 L2189.13 211.378 Z" fill="#000000" fill-rule="nonzero" fill-opacity="1" /><path clip-path="url(#clip690)" d="M2204.6 193.368 L2204.6 200.729 L2213.37 200.729 L2213.37 204.04 L2204.6 204.04 L2204.6 218.114 Q2204.6 221.285 2205.45 222.188 Q2206.33 223.09 2208.99 223.09 L2213.37 223.09 L2213.37 226.655 L2208.99 226.655 Q2204.06 226.655 2202.19 224.827 Q2200.31 222.975 2200.31 218.114 L2200.31 204.04 L2197.19 204.04 L2197.19 200.729 L2200.31 200.729 L2200.31 193.368 L2204.6 193.368 Z" fill="#000000" fill-rule="nonzero" fill-opacity="1" /><path clip-path="url(#clip690)" d="M2230.75 213.623 Q2225.59 213.623 2223.6 214.803 Q2221.61 215.984 2221.61 218.831 Q2221.61 221.1 2223.09 222.442 Q2224.6 223.762 2227.16 223.762 Q2230.71 223.762 2232.84 221.262 Q2234.99 218.739 2234.99 214.572 L2234.99 213.623 L2230.75 213.623 M2239.25 211.864 L2239.25 226.655 L2234.99 226.655 L2234.99 222.72 Q2233.53 225.081 2231.35 226.215 Q2229.18 227.327 2226.03 227.327 Q2222.05 227.327 2219.69 225.104 Q2217.35 222.859 2217.35 219.109 Q2217.35 214.734 2220.27 212.512 Q2223.21 210.29 2229.02 210.29 L2234.99 210.29 L2234.99 209.873 Q2234.99 206.933 2233.04 205.336 Q2231.12 203.716 2227.63 203.716 Q2225.41 203.716 2223.3 204.248 Q2221.19 204.78 2219.25 205.845 L2219.25 201.91 Q2221.59 201.007 2223.79 200.567 Q2225.98 200.104 2228.07 200.104 Q2233.69 200.104 2236.47 203.021 Q2239.25 205.938 2239.25 211.864 Z" fill="#000000" fill-rule="nonzero" fill-opacity="1" /><path clip-path="url(#clip690)" d="M2264.55 201.493 L2264.55 205.521 Q2262.74 204.595 2260.8 204.132 Q2258.85 203.669 2256.77 203.669 Q2253.6 203.669 2252 204.641 Q2250.43 205.614 2250.43 207.558 Q2250.43 209.04 2251.56 209.896 Q2252.7 210.729 2256.12 211.493 L2257.58 211.817 Q2262.12 212.79 2264.02 214.572 Q2265.94 216.331 2265.94 219.503 Q2265.94 223.114 2263.07 225.22 Q2260.22 227.327 2255.22 227.327 Q2253.14 227.327 2250.87 226.91 Q2248.62 226.516 2246.12 225.706 L2246.12 221.308 Q2248.48 222.535 2250.78 223.16 Q2253.07 223.762 2255.31 223.762 Q2258.32 223.762 2259.94 222.743 Q2261.56 221.702 2261.56 219.827 Q2261.56 218.09 2260.38 217.165 Q2259.22 216.239 2255.27 215.382 L2253.78 215.035 Q2249.83 214.202 2248.07 212.489 Q2246.31 210.753 2246.31 207.743 Q2246.31 204.086 2248.9 202.095 Q2251.49 200.104 2256.26 200.104 Q2258.62 200.104 2260.71 200.452 Q2262.79 200.799 2264.55 201.493 Z" fill="#000000" fill-rule="nonzero" fill-opacity="1" /><path clip-path="url(#clip690)" d="M2306.45 201.725 L2306.45 205.706 Q2304.64 204.711 2302.81 204.225 Q2301.01 203.716 2299.16 203.716 Q2295.01 203.716 2292.72 206.354 Q2290.43 208.97 2290.43 213.716 Q2290.43 218.461 2292.72 221.1 Q2295.01 223.715 2299.16 223.715 Q2301.01 223.715 2302.81 223.229 Q2304.64 222.72 2306.45 221.725 L2306.45 225.66 Q2304.66 226.493 2302.74 226.91 Q2300.84 227.327 2298.69 227.327 Q2292.84 227.327 2289.39 223.646 Q2285.94 219.965 2285.94 213.716 Q2285.94 207.373 2289.41 203.739 Q2292.91 200.104 2298.97 200.104 Q2300.94 200.104 2302.81 200.521 Q2304.69 200.915 2306.45 201.725 Z" fill="#000000" fill-rule="nonzero" fill-opacity="1" /><path clip-path="url(#clip690)" d="M2325.64 213.623 Q2320.47 213.623 2318.48 214.803 Q2316.49 215.984 2316.49 218.831 Q2316.49 221.1 2317.97 222.442 Q2319.48 223.762 2322.05 223.762 Q2325.59 223.762 2327.72 221.262 Q2329.87 218.739 2329.87 214.572 L2329.87 213.623 L2325.64 213.623 M2334.13 211.864 L2334.13 226.655 L2329.87 226.655 L2329.87 222.72 Q2328.41 225.081 2326.24 226.215 Q2324.06 227.327 2320.91 227.327 Q2316.93 227.327 2314.57 225.104 Q2312.23 222.859 2312.23 219.109 Q2312.23 214.734 2315.15 212.512 Q2318.09 210.29 2323.9 210.29 L2329.87 210.29 L2329.87 209.873 Q2329.87 206.933 2327.93 205.336 Q2326.01 203.716 2322.51 203.716 Q2320.29 203.716 2318.18 204.248 Q2316.08 204.78 2314.13 205.845 L2314.13 201.91 Q2316.47 201.007 2318.67 200.567 Q2320.87 200.104 2322.95 200.104 Q2328.58 200.104 2331.35 203.021 Q2334.13 205.938 2334.13 211.864 Z" fill="#000000" fill-rule="nonzero" fill-opacity="1" /><path clip-path="url(#clip690)" d="M2342.9 190.637 L2347.16 190.637 L2347.16 226.655 L2342.9 226.655 L2342.9 190.637 Z" fill="#000000" fill-rule="nonzero" fill-opacity="1" /><path clip-path="url(#clip690)" d="M2374.73 201.725 L2374.73 205.706 Q2372.93 204.711 2371.1 204.225 Q2369.29 203.716 2367.44 203.716 Q2363.3 203.716 2361.01 206.354 Q2358.71 208.97 2358.71 213.716 Q2358.71 218.461 2361.01 221.1 Q2363.3 223.715 2367.44 223.715 Q2369.29 223.715 2371.1 223.229 Q2372.93 222.72 2374.73 221.725 L2374.73 225.66 Q2372.95 226.493 2371.03 226.91 Q2369.13 227.327 2366.98 227.327 Q2361.12 227.327 2357.67 223.646 Q2354.22 219.965 2354.22 213.716 Q2354.22 207.373 2357.7 203.739 Q2361.19 200.104 2367.26 200.104 Q2369.22 200.104 2371.1 200.521 Q2372.97 200.915 2374.73 201.725 Z" fill="#000000" fill-rule="nonzero" fill-opacity="1" /><path clip-path="url(#clip690)" d="M2381.7 216.424 L2381.7 200.729 L2385.96 200.729 L2385.96 216.262 Q2385.96 219.942 2387.4 221.794 Q2388.83 223.623 2391.7 223.623 Q2395.15 223.623 2397.14 221.424 Q2399.15 219.225 2399.15 215.428 L2399.15 200.729 L2403.41 200.729 L2403.41 226.655 L2399.15 226.655 L2399.15 222.674 Q2397.6 225.035 2395.54 226.192 Q2393.51 227.327 2390.8 227.327 Q2386.33 227.327 2384.02 224.549 Q2381.7 221.771 2381.7 216.424 M2392.42 200.104 L2392.42 200.104 Z" fill="#000000" fill-rule="nonzero" fill-opacity="1" /><path clip-path="url(#clip690)" d="M2412.19 190.637 L2416.45 190.637 L2416.45 226.655 L2412.19 226.655 L2412.19 190.637 Z" fill="#000000" fill-rule="nonzero" fill-opacity="1" /><path clip-path="url(#clip690)" d="M2437.14 213.623 Q2431.98 213.623 2429.99 214.803 Q2428 215.984 2428 218.831 Q2428 221.1 2429.48 222.442 Q2430.98 223.762 2433.55 223.762 Q2437.09 223.762 2439.22 221.262 Q2441.38 218.739 2441.38 214.572 L2441.38 213.623 L2437.14 213.623 M2445.64 211.864 L2445.64 226.655 L2441.38 226.655 L2441.38 222.72 Q2439.92 225.081 2437.74 226.215 Q2435.57 227.327 2432.42 227.327 Q2428.44 227.327 2426.08 225.104 Q2423.74 222.859 2423.74 219.109 Q2423.74 214.734 2426.65 212.512 Q2429.59 210.29 2435.4 210.29 L2441.38 210.29 L2441.38 209.873 Q2441.38 206.933 2439.43 205.336 Q2437.51 203.716 2434.02 203.716 Q2431.79 203.716 2429.69 204.248 Q2427.58 204.78 2425.64 205.845 L2425.64 201.91 Q2427.97 201.007 2430.17 200.567 Q2432.37 200.104 2434.46 200.104 Q2440.08 200.104 2442.86 203.021 Q2445.64 205.938 2445.64 211.864 Z" fill="#000000" fill-rule="nonzero" fill-opacity="1" /><path clip-path="url(#clip690)" d="M2471.47 204.665 L2471.47 190.637 L2475.73 190.637 L2475.73 226.655 L2471.47 226.655 L2471.47 222.766 Q2470.13 225.081 2468.07 226.215 Q2466.03 227.327 2463.16 227.327 Q2458.46 227.327 2455.5 223.577 Q2452.56 219.827 2452.56 213.716 Q2452.56 207.604 2455.5 203.854 Q2458.46 200.104 2463.16 200.104 Q2466.03 200.104 2468.07 201.239 Q2470.13 202.35 2471.47 204.665 M2456.96 213.716 Q2456.96 218.415 2458.88 221.1 Q2460.82 223.762 2464.2 223.762 Q2467.58 223.762 2469.52 221.1 Q2471.47 218.415 2471.47 213.716 Q2471.47 209.016 2469.52 206.354 Q2467.58 203.669 2464.2 203.669 Q2460.82 203.669 2458.88 206.354 Q2456.96 209.016 2456.96 213.716 Z" fill="#000000" fill-rule="nonzero" fill-opacity="1" /><path clip-path="url(#clip690)" d="M2494.55 203.716 Q2491.12 203.716 2489.13 206.401 Q2487.14 209.063 2487.14 213.716 Q2487.14 218.368 2489.11 221.053 Q2491.1 223.715 2494.55 223.715 Q2497.95 223.715 2499.94 221.03 Q2501.93 218.345 2501.93 213.716 Q2501.93 209.109 2499.94 206.424 Q2497.95 203.716 2494.55 203.716 M2494.55 200.104 Q2500.1 200.104 2503.27 203.716 Q2506.45 207.327 2506.45 213.716 Q2506.45 220.081 2503.27 223.715 Q2500.1 227.327 2494.55 227.327 Q2488.97 227.327 2485.8 223.715 Q2482.65 220.081 2482.65 213.716 Q2482.65 207.327 2485.8 203.716 Q2488.97 200.104 2494.55 200.104 Z" fill="#000000" fill-rule="nonzero" fill-opacity="1" /><path clip-path="url(#clip690)" d="M2530.03 201.493 L2530.03 205.521 Q2528.23 204.595 2526.28 204.132 Q2524.34 203.669 2522.26 203.669 Q2519.08 203.669 2517.49 204.641 Q2515.91 205.614 2515.91 207.558 Q2515.91 209.04 2517.05 209.896 Q2518.18 210.729 2521.61 211.493 L2523.07 211.817 Q2527.6 212.79 2529.5 214.572 Q2531.42 216.331 2531.42 219.503 Q2531.42 223.114 2528.55 225.22 Q2525.7 227.327 2520.7 227.327 Q2518.62 227.327 2516.35 226.91 Q2514.11 226.516 2511.61 225.706 L2511.61 221.308 Q2513.97 222.535 2516.26 223.16 Q2518.55 223.762 2520.8 223.762 Q2523.81 223.762 2525.43 222.743 Q2527.05 221.702 2527.05 219.827 Q2527.05 218.09 2525.87 217.165 Q2524.71 216.239 2520.75 215.382 L2519.27 215.035 Q2515.31 214.202 2513.55 212.489 Q2511.79 210.753 2511.79 207.743 Q2511.79 204.086 2514.39 202.095 Q2516.98 200.104 2521.75 200.104 Q2524.11 200.104 2526.19 200.452 Q2528.27 200.799 2530.03 201.493 Z" fill="#000000" fill-rule="nonzero" fill-opacity="1" /></svg>
