<?xml version="1.0" encoding="utf-8"?>
<svg xmlns="http://www.w3.org/2000/svg" xmlns:xlink="http://www.w3.org/1999/xlink" width="672" height="480" viewBox="0 0 2688 1920">
<defs>
  <clipPath id="clip610">
    <rect x="0" y="0" width="2688" height="1920"/>
  </clipPath>
</defs>
<path clip-path="url(#clip610)" d="M0 1920 L2688 1920 L2688 0 L0 0  Z" fill="#ffffff" fill-rule="evenodd" fill-opacity="1"/>
<defs>
  <clipPath id="clip611">
    <rect x="537" y="0" width="1883" height="1883"/>
  </clipPath>
</defs>
<path clip-path="url(#clip610)" d="M226.141 1734.12 L2640.76 1734.12 L2640.76 127.792 L226.141 127.792  Z" fill="#ffffff" fill-rule="evenodd" fill-opacity="1"/>
<defs>
  <clipPath id="clip612">
    <rect x="226" y="127" width="2416" height="1607"/>
  </clipPath>
</defs>
<polyline clip-path="url(#clip612)" style="stroke:#000000; stroke-linecap:round; stroke-linejoin:round; stroke-width:2; stroke-opacity:0.1; fill:none" points="358.949,1734.12 358.949,127.792 "/>
<polyline clip-path="url(#clip612)" style="stroke:#000000; stroke-linecap:round; stroke-linejoin:round; stroke-width:2; stroke-opacity:0.1; fill:none" points="1030.51,1734.12 1030.51,127.792 "/>
<polyline clip-path="url(#clip612)" style="stroke:#000000; stroke-linecap:round; stroke-linejoin:round; stroke-width:2; stroke-opacity:0.1; fill:none" points="1702.07,1734.12 1702.07,127.792 "/>
<polyline clip-path="url(#clip612)" style="stroke:#000000; stroke-linecap:round; stroke-linejoin:round; stroke-width:2; stroke-opacity:0.1; fill:none" points="2373.64,1734.12 2373.64,127.792 "/>
<polyline clip-path="url(#clip612)" style="stroke:#000000; stroke-linecap:round; stroke-linejoin:round; stroke-width:2; stroke-opacity:0.1; fill:none" points="226.141,1734.12 2640.76,1734.12 "/>
<polyline clip-path="url(#clip612)" style="stroke:#000000; stroke-linecap:round; stroke-linejoin:round; stroke-width:2; stroke-opacity:0.1; fill:none" points="226.141,1412.85 2640.76,1412.85 "/>
<polyline clip-path="url(#clip612)" style="stroke:#000000; stroke-linecap:round; stroke-linejoin:round; stroke-width:2; stroke-opacity:0.1; fill:none" points="226.141,1091.59 2640.76,1091.59 "/>
<polyline clip-path="url(#clip612)" style="stroke:#000000; stroke-linecap:round; stroke-linejoin:round; stroke-width:2; stroke-opacity:0.1; fill:none" points="226.141,770.322 2640.76,770.322 "/>
<polyline clip-path="url(#clip612)" style="stroke:#000000; stroke-linecap:round; stroke-linejoin:round; stroke-width:2; stroke-opacity:0.1; fill:none" points="226.141,449.057 2640.76,449.057 "/>
<polyline clip-path="url(#clip612)" style="stroke:#000000; stroke-linecap:round; stroke-linejoin:round; stroke-width:2; stroke-opacity:0.1; fill:none" points="226.141,127.792 2640.76,127.792 "/>
<polyline clip-path="url(#clip610)" style="stroke:#000000; stroke-linecap:round; stroke-linejoin:round; stroke-width:4; stroke-opacity:1; fill:none" points="226.141,1734.12 2640.76,1734.12 "/>
<polyline clip-path="url(#clip610)" style="stroke:#000000; stroke-linecap:round; stroke-linejoin:round; stroke-width:4; stroke-opacity:1; fill:none" points="358.949,1734.12 358.949,1715.22 "/>
<polyline clip-path="url(#clip610)" style="stroke:#000000; stroke-linecap:round; stroke-linejoin:round; stroke-width:4; stroke-opacity:1; fill:none" points="1030.51,1734.12 1030.51,1715.22 "/>
<polyline clip-path="url(#clip610)" style="stroke:#000000; stroke-linecap:round; stroke-linejoin:round; stroke-width:4; stroke-opacity:1; fill:none" points="1702.07,1734.12 1702.07,1715.22 "/>
<polyline clip-path="url(#clip610)" style="stroke:#000000; stroke-linecap:round; stroke-linejoin:round; stroke-width:4; stroke-opacity:1; fill:none" points="2373.64,1734.12 2373.64,1715.22 "/>
<path clip-path="url(#clip610)" d="M358.949 1767.34 Q355.338 1767.34 353.509 1770.9 Q351.703 1774.45 351.703 1781.58 Q351.703 1788.68 353.509 1792.25 Q355.338 1795.79 358.949 1795.79 Q362.583 1795.79 364.388 1792.25 Q366.217 1788.68 366.217 1781.58 Q366.217 1774.45 364.388 1770.9 Q362.583 1767.34 358.949 1767.34 M358.949 1763.64 Q364.759 1763.64 367.814 1768.24 Q370.893 1772.83 370.893 1781.58 Q370.893 1790.3 367.814 1794.91 Q364.759 1799.49 358.949 1799.49 Q353.139 1799.49 350.06 1794.91 Q347.004 1790.3 347.004 1781.58 Q347.004 1772.83 350.06 1768.24 Q353.139 1763.64 358.949 1763.64 Z" fill="#000000" fill-rule="nonzero" fill-opacity="1" /><path clip-path="url(#clip610)" d="M1020.79 1764.26 L1039.15 1764.26 L1039.15 1768.2 L1025.07 1768.2 L1025.07 1776.67 Q1026.09 1776.32 1027.11 1776.16 Q1028.13 1775.97 1029.15 1775.97 Q1034.93 1775.97 1038.31 1779.15 Q1041.69 1782.32 1041.69 1787.73 Q1041.69 1793.31 1038.22 1796.41 Q1034.75 1799.49 1028.43 1799.49 Q1026.25 1799.49 1023.98 1799.12 Q1021.74 1798.75 1019.33 1798.01 L1019.33 1793.31 Q1021.41 1794.45 1023.64 1795 Q1025.86 1795.56 1028.33 1795.56 Q1032.34 1795.56 1034.68 1793.45 Q1037.02 1791.34 1037.02 1787.73 Q1037.02 1784.12 1034.68 1782.02 Q1032.34 1779.91 1028.33 1779.91 Q1026.46 1779.91 1024.59 1780.33 Q1022.73 1780.74 1020.79 1781.62 L1020.79 1764.26 Z" fill="#000000" fill-rule="nonzero" fill-opacity="1" /><path clip-path="url(#clip610)" d="M1676.76 1794.89 L1684.4 1794.89 L1684.4 1768.52 L1676.09 1770.19 L1676.09 1765.93 L1684.35 1764.26 L1689.03 1764.26 L1689.03 1794.89 L1696.67 1794.89 L1696.67 1798.82 L1676.76 1798.82 L1676.76 1794.89 Z" fill="#000000" fill-rule="nonzero" fill-opacity="1" /><path clip-path="url(#clip610)" d="M1716.11 1767.34 Q1712.5 1767.34 1710.67 1770.9 Q1708.87 1774.45 1708.87 1781.58 Q1708.87 1788.68 1710.67 1792.25 Q1712.5 1795.79 1716.11 1795.79 Q1719.75 1795.79 1721.55 1792.25 Q1723.38 1788.68 1723.38 1781.58 Q1723.38 1774.45 1721.55 1770.9 Q1719.75 1767.34 1716.11 1767.34 M1716.11 1763.64 Q1721.92 1763.64 1724.98 1768.24 Q1728.06 1772.83 1728.06 1781.58 Q1728.06 1790.3 1724.98 1794.91 Q1721.92 1799.49 1716.11 1799.49 Q1710.3 1799.49 1707.22 1794.91 Q1704.17 1790.3 1704.17 1781.58 Q1704.17 1772.83 1707.22 1768.24 Q1710.3 1763.64 1716.11 1763.64 Z" fill="#000000" fill-rule="nonzero" fill-opacity="1" /><path clip-path="url(#clip610)" d="M2348.82 1794.89 L2356.46 1794.89 L2356.46 1768.52 L2348.15 1770.19 L2348.15 1765.93 L2356.41 1764.26 L2361.09 1764.26 L2361.09 1794.89 L2368.73 1794.89 L2368.73 1798.82 L2348.82 1798.82 L2348.82 1794.89 Z" fill="#000000" fill-rule="nonzero" fill-opacity="1" /><path clip-path="url(#clip610)" d="M2378.22 1764.26 L2396.58 1764.26 L2396.58 1768.2 L2382.5 1768.2 L2382.5 1776.67 Q2383.52 1776.32 2384.54 1776.16 Q2385.56 1775.97 2386.58 1775.97 Q2392.36 1775.97 2395.74 1779.15 Q2399.12 1782.32 2399.12 1787.73 Q2399.12 1793.31 2395.65 1796.41 Q2392.18 1799.49 2385.86 1799.49 Q2383.68 1799.49 2381.41 1799.12 Q2379.17 1798.75 2376.76 1798.01 L2376.76 1793.31 Q2378.84 1794.45 2381.07 1795 Q2383.29 1795.56 2385.76 1795.56 Q2389.77 1795.56 2392.11 1793.45 Q2394.45 1791.34 2394.45 1787.73 Q2394.45 1784.12 2392.11 1782.02 Q2389.77 1779.91 2385.76 1779.91 Q2383.89 1779.91 2382.01 1780.33 Q2380.16 1780.74 2378.22 1781.62 L2378.22 1764.26 Z" fill="#000000" fill-rule="nonzero" fill-opacity="1" /><path clip-path="url(#clip610)" d="M1368.49 1835.78 L1408.69 1835.78 L1408.69 1841.19 L1391.82 1841.19 L1391.82 1883.3 L1385.36 1883.3 L1385.36 1841.19 L1368.49 1841.19 L1368.49 1835.78 Z" fill="#000000" fill-rule="nonzero" fill-opacity="1" /><path clip-path="url(#clip610)" d="M1428.71 1833.84 Q1424.44 1841.16 1422.37 1848.32 Q1420.3 1855.48 1420.3 1862.84 Q1420.3 1870.19 1422.37 1877.41 Q1424.47 1884.61 1428.71 1891.89 L1423.61 1891.89 Q1418.84 1884.41 1416.45 1877.19 Q1414.1 1869.96 1414.1 1862.84 Q1414.1 1855.74 1416.45 1848.54 Q1418.81 1841.35 1423.61 1833.84 L1428.71 1833.84 Z" fill="#000000" fill-rule="nonzero" fill-opacity="1" /><path clip-path="url(#clip610)" d="M1438.03 1835.78 L1444.94 1835.78 L1456.75 1853.45 L1468.62 1835.78 L1475.53 1835.78 L1460.25 1858.6 L1476.54 1883.3 L1469.64 1883.3 L1456.27 1863.09 L1442.81 1883.3 L1435.87 1883.3 L1452.83 1857.93 L1438.03 1835.78 Z" fill="#000000" fill-rule="nonzero" fill-opacity="1" /><path clip-path="url(#clip610)" d="M1483.8 1833.84 L1488.89 1833.84 Q1493.67 1841.35 1496.02 1848.54 Q1498.41 1855.74 1498.41 1862.84 Q1498.41 1869.96 1496.02 1877.19 Q1493.67 1884.41 1488.89 1891.89 L1483.8 1891.89 Q1488.03 1884.61 1490.1 1877.41 Q1492.2 1870.19 1492.2 1862.84 Q1492.2 1855.48 1490.1 1848.32 Q1488.03 1841.16 1483.8 1833.84 Z" fill="#000000" fill-rule="nonzero" fill-opacity="1" /><polyline clip-path="url(#clip610)" style="stroke:#000000; stroke-linecap:round; stroke-linejoin:round; stroke-width:4; stroke-opacity:1; fill:none" points="226.141,1734.12 226.141,127.792 "/>
<polyline clip-path="url(#clip610)" style="stroke:#000000; stroke-linecap:round; stroke-linejoin:round; stroke-width:4; stroke-opacity:1; fill:none" points="226.141,1734.12 245.038,1734.12 "/>
<polyline clip-path="url(#clip610)" style="stroke:#000000; stroke-linecap:round; stroke-linejoin:round; stroke-width:4; stroke-opacity:1; fill:none" points="226.141,1412.85 245.038,1412.85 "/>
<polyline clip-path="url(#clip610)" style="stroke:#000000; stroke-linecap:round; stroke-linejoin:round; stroke-width:4; stroke-opacity:1; fill:none" points="226.141,1091.59 245.038,1091.59 "/>
<polyline clip-path="url(#clip610)" style="stroke:#000000; stroke-linecap:round; stroke-linejoin:round; stroke-width:4; stroke-opacity:1; fill:none" points="226.141,770.322 245.038,770.322 "/>
<polyline clip-path="url(#clip610)" style="stroke:#000000; stroke-linecap:round; stroke-linejoin:round; stroke-width:4; stroke-opacity:1; fill:none" points="226.141,449.057 245.038,449.057 "/>
<polyline clip-path="url(#clip610)" style="stroke:#000000; stroke-linecap:round; stroke-linejoin:round; stroke-width:4; stroke-opacity:1; fill:none" points="226.141,127.792 245.038,127.792 "/>
<path clip-path="url(#clip610)" d="M128.645 1719.92 Q125.034 1719.92 123.205 1723.48 Q121.4 1727.02 121.4 1734.15 Q121.4 1741.26 123.205 1744.82 Q125.034 1748.36 128.645 1748.36 Q132.279 1748.36 134.085 1744.82 Q135.913 1741.26 135.913 1734.15 Q135.913 1727.02 134.085 1723.48 Q132.279 1719.92 128.645 1719.92 M128.645 1716.21 Q134.455 1716.21 137.511 1720.82 Q140.589 1725.4 140.589 1734.15 Q140.589 1742.88 137.511 1747.48 Q134.455 1752.07 128.645 1752.07 Q122.835 1752.07 119.756 1747.48 Q116.701 1742.88 116.701 1734.15 Q116.701 1725.4 119.756 1720.82 Q122.835 1716.21 128.645 1716.21 Z" fill="#000000" fill-rule="nonzero" fill-opacity="1" /><path clip-path="url(#clip610)" d="M148.807 1745.52 L153.691 1745.52 L153.691 1751.4 L148.807 1751.4 L148.807 1745.52 Z" fill="#000000" fill-rule="nonzero" fill-opacity="1" /><path clip-path="url(#clip610)" d="M173.876 1719.92 Q170.265 1719.92 168.436 1723.48 Q166.631 1727.02 166.631 1734.15 Q166.631 1741.26 168.436 1744.82 Q170.265 1748.36 173.876 1748.36 Q177.51 1748.36 179.316 1744.82 Q181.145 1741.26 181.145 1734.15 Q181.145 1727.02 179.316 1723.48 Q177.51 1719.92 173.876 1719.92 M173.876 1716.21 Q179.686 1716.21 182.742 1720.82 Q185.821 1725.4 185.821 1734.15 Q185.821 1742.88 182.742 1747.48 Q179.686 1752.07 173.876 1752.07 Q168.066 1752.07 164.987 1747.48 Q161.932 1742.88 161.932 1734.15 Q161.932 1725.4 164.987 1720.82 Q168.066 1716.21 173.876 1716.21 Z" fill="#000000" fill-rule="nonzero" fill-opacity="1" /><path clip-path="url(#clip610)" d="M130.242 1398.65 Q126.631 1398.65 124.802 1402.22 Q122.997 1405.76 122.997 1412.89 Q122.997 1419.99 124.802 1423.56 Q126.631 1427.1 130.242 1427.1 Q133.876 1427.1 135.682 1423.56 Q137.511 1419.99 137.511 1412.89 Q137.511 1405.76 135.682 1402.22 Q133.876 1398.65 130.242 1398.65 M130.242 1394.95 Q136.052 1394.95 139.108 1399.55 Q142.187 1404.14 142.187 1412.89 Q142.187 1421.61 139.108 1426.22 Q136.052 1430.8 130.242 1430.8 Q124.432 1430.8 121.353 1426.22 Q118.298 1421.61 118.298 1412.89 Q118.298 1404.14 121.353 1399.55 Q124.432 1394.95 130.242 1394.95 Z" fill="#000000" fill-rule="nonzero" fill-opacity="1" /><path clip-path="url(#clip610)" d="M150.404 1424.25 L155.288 1424.25 L155.288 1430.13 L150.404 1430.13 L150.404 1424.25 Z" fill="#000000" fill-rule="nonzero" fill-opacity="1" /><path clip-path="url(#clip610)" d="M169.501 1426.2 L185.821 1426.2 L185.821 1430.13 L163.876 1430.13 L163.876 1426.2 Q166.538 1423.44 171.122 1418.81 Q175.728 1414.16 176.909 1412.82 Q179.154 1410.29 180.034 1408.56 Q180.936 1406.8 180.936 1405.11 Q180.936 1402.35 178.992 1400.62 Q177.071 1398.88 173.969 1398.88 Q171.77 1398.88 169.316 1399.65 Q166.885 1400.41 164.108 1401.96 L164.108 1397.24 Q166.932 1396.1 169.385 1395.53 Q171.839 1394.95 173.876 1394.95 Q179.247 1394.95 182.441 1397.63 Q185.635 1400.32 185.635 1404.81 Q185.635 1406.94 184.825 1408.86 Q184.038 1410.76 181.932 1413.35 Q181.353 1414.02 178.251 1417.24 Q175.149 1420.43 169.501 1426.2 Z" fill="#000000" fill-rule="nonzero" fill-opacity="1" /><path clip-path="url(#clip610)" d="M128.159 1077.39 Q124.548 1077.39 122.719 1080.95 Q120.913 1084.49 120.913 1091.62 Q120.913 1098.73 122.719 1102.29 Q124.548 1105.83 128.159 1105.83 Q131.793 1105.83 133.599 1102.29 Q135.427 1098.73 135.427 1091.62 Q135.427 1084.49 133.599 1080.95 Q131.793 1077.39 128.159 1077.39 M128.159 1073.68 Q133.969 1073.68 137.025 1078.29 Q140.103 1082.87 140.103 1091.62 Q140.103 1100.35 137.025 1104.96 Q133.969 1109.54 128.159 1109.54 Q122.349 1109.54 119.27 1104.96 Q116.214 1100.35 116.214 1091.62 Q116.214 1082.87 119.27 1078.29 Q122.349 1073.68 128.159 1073.68 Z" fill="#000000" fill-rule="nonzero" fill-opacity="1" /><path clip-path="url(#clip610)" d="M148.321 1102.99 L153.205 1102.99 L153.205 1108.87 L148.321 1108.87 L148.321 1102.99 Z" fill="#000000" fill-rule="nonzero" fill-opacity="1" /><path clip-path="url(#clip610)" d="M176.237 1078.38 L164.432 1096.83 L176.237 1096.83 L176.237 1078.38 M175.01 1074.31 L180.89 1074.31 L180.89 1096.83 L185.821 1096.83 L185.821 1100.72 L180.89 1100.72 L180.89 1108.87 L176.237 1108.87 L176.237 1100.72 L160.636 1100.72 L160.636 1096.21 L175.01 1074.31 Z" fill="#000000" fill-rule="nonzero" fill-opacity="1" /><path clip-path="url(#clip610)" d="M128.483 756.121 Q124.872 756.121 123.043 759.686 Q121.238 763.227 121.238 770.357 Q121.238 777.463 123.043 781.028 Q124.872 784.57 128.483 784.57 Q132.117 784.57 133.923 781.028 Q135.751 777.463 135.751 770.357 Q135.751 763.227 133.923 759.686 Q132.117 756.121 128.483 756.121 M128.483 752.417 Q134.293 752.417 137.349 757.024 Q140.427 761.607 140.427 770.357 Q140.427 779.084 137.349 783.69 Q134.293 788.273 128.483 788.273 Q122.673 788.273 119.594 783.69 Q116.539 779.084 116.539 770.357 Q116.539 761.607 119.594 757.024 Q122.673 752.417 128.483 752.417 Z" fill="#000000" fill-rule="nonzero" fill-opacity="1" /><path clip-path="url(#clip610)" d="M148.645 781.722 L153.529 781.722 L153.529 787.602 L148.645 787.602 L148.645 781.722 Z" fill="#000000" fill-rule="nonzero" fill-opacity="1" /><path clip-path="url(#clip610)" d="M174.293 768.459 Q171.145 768.459 169.293 770.611 Q167.464 772.764 167.464 776.514 Q167.464 780.241 169.293 782.417 Q171.145 784.57 174.293 784.57 Q177.441 784.57 179.27 782.417 Q181.122 780.241 181.122 776.514 Q181.122 772.764 179.27 770.611 Q177.441 768.459 174.293 768.459 M183.575 753.806 L183.575 758.065 Q181.816 757.232 180.01 756.792 Q178.228 756.352 176.469 756.352 Q171.839 756.352 169.385 759.477 Q166.955 762.602 166.608 768.922 Q167.973 766.908 170.034 765.843 Q172.094 764.755 174.571 764.755 Q179.779 764.755 182.788 767.926 Q185.821 771.074 185.821 776.514 Q185.821 781.838 182.672 785.056 Q179.524 788.273 174.293 788.273 Q168.297 788.273 165.126 783.69 Q161.955 779.084 161.955 770.357 Q161.955 762.162 165.844 757.301 Q169.733 752.417 176.284 752.417 Q178.043 752.417 179.825 752.764 Q181.631 753.112 183.575 753.806 Z" fill="#000000" fill-rule="nonzero" fill-opacity="1" /><path clip-path="url(#clip610)" d="M128.738 434.856 Q125.126 434.856 123.298 438.421 Q121.492 441.962 121.492 449.092 Q121.492 456.198 123.298 459.763 Q125.126 463.305 128.738 463.305 Q132.372 463.305 134.177 459.763 Q136.006 456.198 136.006 449.092 Q136.006 441.962 134.177 438.421 Q132.372 434.856 128.738 434.856 M128.738 431.152 Q134.548 431.152 137.603 435.759 Q140.682 440.342 140.682 449.092 Q140.682 457.819 137.603 462.425 Q134.548 467.008 128.738 467.008 Q122.927 467.008 119.849 462.425 Q116.793 457.819 116.793 449.092 Q116.793 440.342 119.849 435.759 Q122.927 431.152 128.738 431.152 Z" fill="#000000" fill-rule="nonzero" fill-opacity="1" /><path clip-path="url(#clip610)" d="M148.899 460.457 L153.784 460.457 L153.784 466.337 L148.899 466.337 L148.899 460.457 Z" fill="#000000" fill-rule="nonzero" fill-opacity="1" /><path clip-path="url(#clip610)" d="M173.969 449.925 Q170.635 449.925 168.714 451.708 Q166.816 453.49 166.816 456.615 Q166.816 459.74 168.714 461.522 Q170.635 463.305 173.969 463.305 Q177.302 463.305 179.223 461.522 Q181.145 459.717 181.145 456.615 Q181.145 453.49 179.223 451.708 Q177.325 449.925 173.969 449.925 M169.293 447.934 Q166.284 447.194 164.594 445.134 Q162.927 443.073 162.927 440.11 Q162.927 435.967 165.867 433.559 Q168.83 431.152 173.969 431.152 Q179.131 431.152 182.071 433.559 Q185.01 435.967 185.01 440.11 Q185.01 443.073 183.321 445.134 Q181.654 447.194 178.668 447.934 Q182.047 448.721 183.922 451.013 Q185.821 453.305 185.821 456.615 Q185.821 461.638 182.742 464.323 Q179.686 467.008 173.969 467.008 Q168.251 467.008 165.173 464.323 Q162.117 461.638 162.117 456.615 Q162.117 453.305 164.015 451.013 Q165.913 448.721 169.293 447.934 M167.58 440.55 Q167.58 443.235 169.247 444.74 Q170.936 446.245 173.969 446.245 Q176.978 446.245 178.668 444.74 Q180.381 443.235 180.381 440.55 Q180.381 437.865 178.668 436.36 Q176.978 434.856 173.969 434.856 Q170.936 434.856 169.247 436.36 Q167.58 437.865 167.58 440.55 Z" fill="#000000" fill-rule="nonzero" fill-opacity="1" /><path clip-path="url(#clip610)" d="M119.455 141.137 L127.094 141.137 L127.094 114.771 L118.784 116.438 L118.784 112.179 L127.048 110.512 L131.724 110.512 L131.724 141.137 L139.362 141.137 L139.362 145.072 L119.455 145.072 L119.455 141.137 Z" fill="#000000" fill-rule="nonzero" fill-opacity="1" /><path clip-path="url(#clip610)" d="M148.807 139.193 L153.691 139.193 L153.691 145.072 L148.807 145.072 L148.807 139.193 Z" fill="#000000" fill-rule="nonzero" fill-opacity="1" /><path clip-path="url(#clip610)" d="M173.876 113.591 Q170.265 113.591 168.436 117.156 Q166.631 120.697 166.631 127.827 Q166.631 134.933 168.436 138.498 Q170.265 142.04 173.876 142.04 Q177.51 142.04 179.316 138.498 Q181.145 134.933 181.145 127.827 Q181.145 120.697 179.316 117.156 Q177.51 113.591 173.876 113.591 M173.876 109.887 Q179.686 109.887 182.742 114.494 Q185.821 119.077 185.821 127.827 Q185.821 136.554 182.742 141.16 Q179.686 145.743 173.876 145.743 Q168.066 145.743 164.987 141.16 Q161.932 136.554 161.932 127.827 Q161.932 119.077 164.987 114.494 Q168.066 109.887 173.876 109.887 Z" fill="#000000" fill-rule="nonzero" fill-opacity="1" /><path clip-path="url(#clip610)" d="M19.402 1092.83 L56.3549 1092.83 L56.3549 1085.07 Q56.3549 1075.23 51.8989 1070.68 Q47.4429 1066.1 37.8307 1066.1 Q28.2821 1066.1 23.858 1070.68 Q19.402 1075.23 19.402 1085.07 L19.402 1092.83 M14.1184 1099.26 L14.1184 1086.05 Q14.1184 1072.24 19.8794 1065.78 Q25.6085 1059.32 37.8307 1059.32 Q50.1165 1059.32 55.8775 1065.81 Q61.6384 1072.31 61.6384 1086.05 L61.6384 1099.26 L14.1184 1099.26 Z" fill="#000000" fill-rule="nonzero" fill-opacity="1" /><path clip-path="url(#clip610)" d="M42.3504 1018.83 L45.2149 1018.83 L45.2149 1045.76 Q51.2623 1045.38 54.4452 1042.13 Q57.5962 1038.85 57.5962 1033.03 Q57.5962 1029.65 56.7687 1026.5 Q55.9411 1023.32 54.2861 1020.2 L59.8242 1020.2 Q61.161 1023.35 61.8612 1026.66 Q62.5615 1029.97 62.5615 1033.38 Q62.5615 1041.91 57.5962 1046.91 Q52.631 1051.87 44.1646 1051.87 Q35.4117 1051.87 30.2873 1047.16 Q25.1311 1042.42 25.1311 1034.4 Q25.1311 1027.2 29.7781 1023.03 Q34.3932 1018.83 42.3504 1018.83 M40.6316 1024.69 Q35.8255 1024.75 32.9609 1027.4 Q30.0964 1030 30.0964 1034.33 Q30.0964 1039.24 32.8654 1042.2 Q35.6345 1045.12 40.6634 1045.57 L40.6316 1024.69 Z" fill="#000000" fill-rule="nonzero" fill-opacity="1" /><path clip-path="url(#clip610)" d="M40.1224 979.589 L61.6384 979.589 L61.6384 985.445 L40.3133 985.445 Q35.2526 985.445 32.7381 987.418 Q30.2237 989.392 30.2237 993.338 Q30.2237 998.081 33.2474 1000.82 Q36.2711 1003.56 41.491 1003.56 L61.6384 1003.56 L61.6384 1009.44 L25.9905 1009.44 L25.9905 1003.56 L31.5287 1003.56 Q28.314 1001.45 26.7225 998.622 Q25.1311 995.757 25.1311 992.034 Q25.1311 985.891 28.9505 982.74 Q32.7381 979.589 40.1224 979.589 Z" fill="#000000" fill-rule="nonzero" fill-opacity="1" /><path clip-path="url(#clip610)" d="M27.0408 945.182 L32.579 945.182 Q31.3059 947.665 30.6693 950.338 Q30.0327 953.012 30.0327 955.876 Q30.0327 960.237 31.3695 962.433 Q32.7063 964.597 35.3799 964.597 Q37.4169 964.597 38.5946 963.038 Q39.7404 961.478 40.7908 956.767 L41.2364 954.762 Q42.5732 948.524 45.0239 945.914 Q47.4429 943.272 51.8034 943.272 Q56.7687 943.272 59.6651 947.219 Q62.5615 951.134 62.5615 958.009 Q62.5615 960.873 61.9886 963.993 Q61.4475 967.08 60.3335 970.517 L54.2861 970.517 Q55.973 967.271 56.8323 964.12 Q57.6599 960.969 57.6599 957.881 Q57.6599 953.744 56.2594 951.516 Q54.8271 949.288 52.249 949.288 Q49.8619 949.288 48.5887 950.911 Q47.3156 952.502 46.1379 957.945 L45.6605 959.982 Q44.5147 965.425 42.1594 967.844 Q39.7722 970.263 35.6345 970.263 Q30.6056 970.263 27.8684 966.698 Q25.1311 963.133 25.1311 956.577 Q25.1311 953.33 25.6085 950.465 Q26.086 947.601 27.0408 945.182 Z" fill="#000000" fill-rule="nonzero" fill-opacity="1" /><path clip-path="url(#clip610)" d="M25.9905 933.946 L25.9905 928.09 L61.6384 928.09 L61.6384 933.946 L25.9905 933.946 M12.1132 933.946 L12.1132 928.09 L19.5293 928.09 L19.5293 933.946 L12.1132 933.946 Z" fill="#000000" fill-rule="nonzero" fill-opacity="1" /><path clip-path="url(#clip610)" d="M31.4013 892.378 L12.1132 892.378 L12.1132 886.522 L61.6384 886.522 L61.6384 892.378 L56.2912 892.378 Q59.4741 894.224 61.0337 897.057 Q62.5615 899.858 62.5615 903.805 Q62.5615 910.266 57.4052 914.34 Q52.249 918.382 43.8463 918.382 Q35.4436 918.382 30.2873 914.34 Q25.1311 910.266 25.1311 903.805 Q25.1311 899.858 26.6907 897.057 Q28.2185 894.224 31.4013 892.378 M43.8463 912.335 Q50.3075 912.335 53.9996 909.693 Q57.6599 907.019 57.6599 902.373 Q57.6599 897.726 53.9996 895.052 Q50.3075 892.378 43.8463 892.378 Q37.3851 892.378 33.7248 895.052 Q30.0327 897.726 30.0327 902.373 Q30.0327 907.019 33.7248 909.693 Q37.3851 912.335 43.8463 912.335 Z" fill="#000000" fill-rule="nonzero" fill-opacity="1" /><path clip-path="url(#clip610)" d="M43.719 858.258 Q43.719 865.356 45.3422 868.093 Q46.9655 870.83 50.8804 870.83 Q53.9996 870.83 55.8457 868.793 Q57.6599 866.725 57.6599 863.192 Q57.6599 858.322 54.2224 855.394 Q50.7531 852.434 45.0239 852.434 L43.719 852.434 L43.719 858.258 M41.3 846.577 L61.6384 846.577 L61.6384 852.434 L56.2276 852.434 Q59.4741 854.439 61.0337 857.431 Q62.5615 860.423 62.5615 864.751 Q62.5615 870.226 59.5059 873.472 Q56.4186 876.687 51.2623 876.687 Q45.2467 876.687 42.1912 872.677 Q39.1357 868.634 39.1357 860.645 L39.1357 852.434 L38.5628 852.434 Q34.5205 852.434 32.3244 855.107 Q30.0964 857.749 30.0964 862.555 Q30.0964 865.611 30.8284 868.507 Q31.5605 871.403 33.0246 874.077 L27.6137 874.077 Q26.3724 870.862 25.7677 867.839 Q25.1311 864.815 25.1311 861.95 Q25.1311 854.216 29.1415 850.397 Q33.1519 846.577 41.3 846.577 Z" fill="#000000" fill-rule="nonzero" fill-opacity="1" /><path clip-path="url(#clip610)" d="M31.4013 811.056 L12.1132 811.056 L12.1132 805.2 L61.6384 805.2 L61.6384 811.056 L56.2912 811.056 Q59.4741 812.903 61.0337 815.735 Q62.5615 818.536 62.5615 822.483 Q62.5615 828.944 57.4052 833.018 Q52.249 837.06 43.8463 837.06 Q35.4436 837.06 30.2873 833.018 Q25.1311 828.944 25.1311 822.483 Q25.1311 818.536 26.6907 815.735 Q28.2185 812.903 31.4013 811.056 M43.8463 831.013 Q50.3075 831.013 53.9996 828.371 Q57.6599 825.698 57.6599 821.051 Q57.6599 816.404 53.9996 813.73 Q50.3075 811.056 43.8463 811.056 Q37.3851 811.056 33.7248 813.73 Q30.0327 816.404 30.0327 821.051 Q30.0327 825.698 33.7248 828.371 Q37.3851 831.013 43.8463 831.013 Z" fill="#000000" fill-rule="nonzero" fill-opacity="1" /><path clip-path="url(#clip610)" d="M42.3504 762.645 L45.2149 762.645 L45.2149 789.572 Q51.2623 789.19 54.4452 785.944 Q57.5962 782.665 57.5962 776.841 Q57.5962 773.467 56.7687 770.316 Q55.9411 767.133 54.2861 764.014 L59.8242 764.014 Q61.161 767.165 61.8612 770.475 Q62.5615 773.785 62.5615 777.191 Q62.5615 785.721 57.5962 790.718 Q52.631 795.683 44.1646 795.683 Q35.4117 795.683 30.2873 790.973 Q25.1311 786.23 25.1311 778.209 Q25.1311 771.016 29.7781 766.847 Q34.3932 762.645 42.3504 762.645 M40.6316 768.502 Q35.8255 768.565 32.9609 771.207 Q30.0964 773.817 30.0964 778.146 Q30.0964 783.047 32.8654 786.007 Q35.6345 788.936 40.6634 789.381 L40.6316 768.502 Z" fill="#000000" fill-rule="nonzero" fill-opacity="1" /><path clip-path="url(#clip610)" d="M1036.14 12.096 L1044.32 12.096 L1044.32 36.8875 L1074.05 36.8875 L1074.05 12.096 L1082.23 12.096 L1082.23 72.576 L1074.05 72.576 L1074.05 43.7741 L1044.32 43.7741 L1044.32 72.576 L1036.14 72.576 L1036.14 12.096 Z" fill="#000000" fill-rule="nonzero" fill-opacity="1" /><path clip-path="url(#clip610)" d="M1098.2 27.2059 L1105.65 27.2059 L1105.65 72.576 L1098.2 72.576 L1098.2 27.2059 M1098.2 9.54393 L1105.65 9.54393 L1105.65 18.9825 L1098.2 18.9825 L1098.2 9.54393 Z" fill="#000000" fill-rule="nonzero" fill-opacity="1" /><path clip-path="url(#clip610)" d="M1150.17 28.5427 L1150.17 35.5912 Q1147.01 33.9709 1143.61 33.1607 Q1140.2 32.3505 1136.56 32.3505 Q1131.01 32.3505 1128.21 34.0519 Q1125.46 35.7533 1125.46 39.156 Q1125.46 41.7486 1127.44 43.2475 Q1129.43 44.7058 1135.42 46.0426 L1137.98 46.6097 Q1145.92 48.3111 1149.24 51.4303 Q1152.6 54.509 1152.6 60.0587 Q1152.6 66.3781 1147.58 70.0644 Q1142.59 73.7508 1133.84 73.7508 Q1130.2 73.7508 1126.23 73.0216 Q1122.3 72.3329 1117.92 70.9151 L1117.92 63.2184 Q1122.06 65.3654 1126.07 66.4591 Q1130.08 67.5124 1134.01 67.5124 Q1139.27 67.5124 1142.11 65.73 Q1144.94 63.9071 1144.94 60.6258 Q1144.94 57.5877 1142.88 55.9673 Q1140.85 54.3469 1133.92 52.8481 L1131.33 52.2405 Q1124.4 50.7821 1121.33 47.7845 Q1118.25 44.7463 1118.25 39.4801 Q1118.25 33.0797 1122.78 29.5959 Q1127.32 26.1121 1135.67 26.1121 Q1139.8 26.1121 1143.44 26.7198 Q1147.09 27.3274 1150.17 28.5427 Z" fill="#000000" fill-rule="nonzero" fill-opacity="1" /><path clip-path="url(#clip610)" d="M1171.84 14.324 L1171.84 27.2059 L1187.19 27.2059 L1187.19 32.9987 L1171.84 32.9987 L1171.84 57.6282 Q1171.84 63.1779 1173.34 64.7578 Q1174.88 66.3376 1179.54 66.3376 L1187.19 66.3376 L1187.19 72.576 L1179.54 72.576 Q1170.91 72.576 1167.63 69.3758 Q1164.35 66.1351 1164.35 57.6282 L1164.35 32.9987 L1158.88 32.9987 L1158.88 27.2059 L1164.35 27.2059 L1164.35 14.324 L1171.84 14.324 Z" fill="#000000" fill-rule="nonzero" fill-opacity="1" /><path clip-path="url(#clip610)" d="M1214.58 32.4315 Q1208.58 32.4315 1205.1 37.1306 Q1201.61 41.7891 1201.61 49.9314 Q1201.61 58.0738 1205.06 62.7728 Q1208.54 67.4314 1214.58 67.4314 Q1220.53 67.4314 1224.02 62.7323 Q1227.5 58.0333 1227.5 49.9314 Q1227.5 41.8701 1224.02 37.1711 Q1220.53 32.4315 1214.58 32.4315 M1214.58 26.1121 Q1224.3 26.1121 1229.85 32.4315 Q1235.4 38.7509 1235.4 49.9314 Q1235.4 61.0714 1229.85 67.4314 Q1224.3 73.7508 1214.58 73.7508 Q1204.82 73.7508 1199.27 67.4314 Q1193.76 61.0714 1193.76 49.9314 Q1193.76 38.7509 1199.27 32.4315 Q1204.82 26.1121 1214.58 26.1121 Z" fill="#000000" fill-rule="nonzero" fill-opacity="1" /><path clip-path="url(#clip610)" d="M1277.61 49.3643 Q1277.61 41.2625 1274.25 36.8065 Q1270.93 32.3505 1264.89 32.3505 Q1258.89 32.3505 1255.53 36.8065 Q1252.21 41.2625 1252.21 49.3643 Q1252.21 57.4256 1255.53 61.8816 Q1258.89 66.3376 1264.89 66.3376 Q1270.93 66.3376 1274.25 61.8816 Q1277.61 57.4256 1277.61 49.3643 M1285.06 66.9452 Q1285.06 78.5308 1279.92 84.1616 Q1274.77 89.8329 1264.16 89.8329 Q1260.23 89.8329 1256.75 89.2252 Q1253.26 88.6581 1249.98 87.4428 L1249.98 80.1917 Q1253.26 81.9741 1256.46 82.8248 Q1259.66 83.6755 1262.99 83.6755 Q1270.32 83.6755 1273.96 79.8271 Q1277.61 76.0193 1277.61 68.282 L1277.61 64.5957 Q1275.3 68.6061 1271.7 70.5911 Q1268.09 72.576 1263.07 72.576 Q1254.72 72.576 1249.62 66.2161 Q1244.51 59.8562 1244.51 49.3643 Q1244.51 38.832 1249.62 32.472 Q1254.72 26.1121 1263.07 26.1121 Q1268.09 26.1121 1271.7 28.0971 Q1275.3 30.082 1277.61 34.0924 L1277.61 27.2059 L1285.06 27.2059 L1285.06 66.9452 Z" fill="#000000" fill-rule="nonzero" fill-opacity="1" /><path clip-path="url(#clip610)" d="M1326.71 34.1734 Q1325.45 33.4443 1323.95 33.1202 Q1322.49 32.7556 1320.71 32.7556 Q1314.39 32.7556 1310.99 36.8875 Q1307.63 40.9789 1307.63 48.6757 L1307.63 72.576 L1300.13 72.576 L1300.13 27.2059 L1307.63 27.2059 L1307.63 34.2544 Q1309.98 30.1225 1313.74 28.1376 Q1317.51 26.1121 1322.9 26.1121 Q1323.67 26.1121 1324.6 26.2337 Q1325.53 26.3147 1326.67 26.5172 L1326.71 34.1734 Z" fill="#000000" fill-rule="nonzero" fill-opacity="1" /><path clip-path="url(#clip610)" d="M1355.14 49.7694 Q1346.11 49.7694 1342.63 51.8354 Q1339.14 53.9013 1339.14 58.8839 Q1339.14 62.8538 1341.74 65.2034 Q1344.37 67.5124 1348.87 67.5124 Q1355.06 67.5124 1358.79 63.1374 Q1362.56 58.7219 1362.56 51.4303 L1362.56 49.7694 L1355.14 49.7694 M1370.01 46.6907 L1370.01 72.576 L1362.56 72.576 L1362.56 65.6895 Q1360.01 69.8214 1356.2 71.8063 Q1352.39 73.7508 1346.88 73.7508 Q1339.91 73.7508 1335.78 69.8619 Q1331.69 65.9325 1331.69 59.3701 Q1331.69 51.7138 1336.79 47.825 Q1341.94 43.9361 1352.11 43.9361 L1362.56 43.9361 L1362.56 43.2069 Q1362.56 38.0623 1359.15 35.2672 Q1355.79 32.4315 1349.68 32.4315 Q1345.79 32.4315 1342.1 33.3632 Q1338.41 34.295 1335.01 36.1584 L1335.01 29.2718 Q1339.1 27.692 1342.95 26.9223 Q1346.8 26.1121 1350.45 26.1121 Q1360.29 26.1121 1365.15 31.2163 Q1370.01 36.3204 1370.01 46.6907 Z" fill="#000000" fill-rule="nonzero" fill-opacity="1" /><path clip-path="url(#clip610)" d="M1420.69 35.9153 Q1423.48 30.8922 1427.37 28.5022 Q1431.26 26.1121 1436.53 26.1121 Q1443.62 26.1121 1447.46 31.0947 Q1451.31 36.0368 1451.31 45.1919 L1451.31 72.576 L1443.82 72.576 L1443.82 45.4349 Q1443.82 38.913 1441.51 35.7533 Q1439.2 32.5936 1434.46 32.5936 Q1428.67 32.5936 1425.31 36.4419 Q1421.94 40.2903 1421.94 46.9338 L1421.94 72.576 L1414.45 72.576 L1414.45 45.4349 Q1414.45 38.8725 1412.14 35.7533 Q1409.83 32.5936 1405.01 32.5936 Q1399.3 32.5936 1395.94 36.4824 Q1392.57 40.3308 1392.57 46.9338 L1392.57 72.576 L1385.08 72.576 L1385.08 27.2059 L1392.57 27.2059 L1392.57 34.2544 Q1395.13 30.082 1398.69 28.0971 Q1402.26 26.1121 1407.16 26.1121 Q1412.1 26.1121 1415.54 28.6237 Q1419.03 31.1352 1420.69 35.9153 Z" fill="#000000" fill-rule="nonzero" fill-opacity="1" /><path clip-path="url(#clip610)" d="M1486.8 49.7694 Q1477.77 49.7694 1474.28 51.8354 Q1470.8 53.9013 1470.8 58.8839 Q1470.8 62.8538 1473.39 65.2034 Q1476.02 67.5124 1480.52 67.5124 Q1486.72 67.5124 1490.44 63.1374 Q1494.21 58.7219 1494.21 51.4303 L1494.21 49.7694 L1486.8 49.7694 M1501.67 46.6907 L1501.67 72.576 L1494.21 72.576 L1494.21 65.6895 Q1491.66 69.8214 1487.85 71.8063 Q1484.04 73.7508 1478.53 73.7508 Q1471.57 73.7508 1467.44 69.8619 Q1463.34 65.9325 1463.34 59.3701 Q1463.34 51.7138 1468.45 47.825 Q1473.59 43.9361 1483.76 43.9361 L1494.21 43.9361 L1494.21 43.2069 Q1494.21 38.0623 1490.81 35.2672 Q1487.45 32.4315 1481.33 32.4315 Q1477.44 32.4315 1473.75 33.3632 Q1470.07 34.295 1466.67 36.1584 L1466.67 29.2718 Q1470.76 27.692 1474.61 26.9223 Q1478.45 26.1121 1482.1 26.1121 Q1491.94 26.1121 1496.8 31.2163 Q1501.67 36.3204 1501.67 46.6907 Z" fill="#000000" fill-rule="nonzero" fill-opacity="1" /><path clip-path="url(#clip610)" d="M1573.24 34.0924 L1573.24 9.54393 L1580.7 9.54393 L1580.7 72.576 L1573.24 72.576 L1573.24 65.7705 Q1570.9 69.8214 1567.29 71.8063 Q1563.73 73.7508 1558.7 73.7508 Q1550.48 73.7508 1545.29 67.1883 Q1540.15 60.6258 1540.15 49.9314 Q1540.15 39.2371 1545.29 32.6746 Q1550.48 26.1121 1558.7 26.1121 Q1563.73 26.1121 1567.29 28.0971 Q1570.9 30.0415 1573.24 34.0924 M1547.85 49.9314 Q1547.85 58.1548 1551.21 62.8538 Q1554.61 67.5124 1560.53 67.5124 Q1566.44 67.5124 1569.84 62.8538 Q1573.24 58.1548 1573.24 49.9314 Q1573.24 41.7081 1569.84 37.0496 Q1566.44 32.3505 1560.53 32.3505 Q1554.61 32.3505 1551.21 37.0496 Q1547.85 41.7081 1547.85 49.9314 Z" fill="#000000" fill-rule="nonzero" fill-opacity="1" /><path clip-path="url(#clip610)" d="M1634.86 48.0275 L1634.86 51.6733 L1600.59 51.6733 Q1601.07 59.3701 1605.21 63.421 Q1609.38 67.4314 1616.79 67.4314 Q1621.09 67.4314 1625.1 66.3781 Q1629.15 65.3249 1633.12 63.2184 L1633.12 70.267 Q1629.11 71.9684 1624.89 72.8596 Q1620.68 73.7508 1616.35 73.7508 Q1605.49 73.7508 1599.13 67.4314 Q1592.81 61.1119 1592.81 50.3365 Q1592.81 39.1965 1598.81 32.6746 Q1604.84 26.1121 1615.05 26.1121 Q1624.21 26.1121 1629.51 32.0264 Q1634.86 37.9003 1634.86 48.0275 M1627.41 45.84 Q1627.32 39.7232 1623.96 36.0774 Q1620.64 32.4315 1615.13 32.4315 Q1608.89 32.4315 1605.13 35.9558 Q1601.4 39.4801 1600.83 45.8805 L1627.41 45.84 Z" fill="#000000" fill-rule="nonzero" fill-opacity="1" /><path clip-path="url(#clip610)" d="M1665.4 12.096 L1716.57 12.096 L1716.57 18.9825 L1695.1 18.9825 L1695.1 72.576 L1686.87 72.576 L1686.87 18.9825 L1665.4 18.9825 L1665.4 12.096 Z" fill="#000000" fill-rule="nonzero" fill-opacity="1" /><path clip-path="url(#clip610)" d="M1742.05 9.62495 Q1736.62 18.942 1733.98 28.0566 Q1731.35 37.1711 1731.35 46.5287 Q1731.35 55.8863 1733.98 65.0818 Q1736.66 74.2369 1742.05 83.5134 L1735.56 83.5134 Q1729.49 73.9938 1726.45 64.7983 Q1723.45 55.6027 1723.45 46.5287 Q1723.45 37.4952 1726.45 28.3401 Q1729.45 19.1851 1735.56 9.62495 L1742.05 9.62495 Z" fill="#000000" fill-rule="nonzero" fill-opacity="1" /><path clip-path="url(#clip610)" d="M1753.92 12.096 L1762.71 12.096 L1777.73 34.5785 L1792.84 12.096 L1801.63 12.096 L1782.19 41.141 L1802.93 72.576 L1794.14 72.576 L1777.13 46.8528 L1759.99 72.576 L1751.16 72.576 L1772.75 40.2903 L1753.92 12.096 Z" fill="#000000" fill-rule="nonzero" fill-opacity="1" /><path clip-path="url(#clip610)" d="M1812.17 9.62495 L1818.65 9.62495 Q1824.73 19.1851 1827.72 28.3401 Q1830.76 37.4952 1830.76 46.5287 Q1830.76 55.6027 1827.72 64.7983 Q1824.73 73.9938 1818.65 83.5134 L1812.17 83.5134 Q1817.55 74.2369 1820.19 65.0818 Q1822.86 55.8863 1822.86 46.5287 Q1822.86 37.1711 1820.19 28.0566 Q1817.55 18.942 1812.17 9.62495 Z" fill="#000000" fill-rule="nonzero" fill-opacity="1" /><path clip-path="url(#clip612)" d="M358.949 622.861 L358.949 1734.12 L493.261 1734.12 L493.261 622.861 L358.949 622.861 L358.949 622.861  Z" fill="#009af9" fill-rule="evenodd" fill-opacity="1"/>
<polyline clip-path="url(#clip612)" style="stroke:#000000; stroke-linecap:round; stroke-linejoin:round; stroke-width:4; stroke-opacity:1; fill:none" points="358.949,622.861 358.949,1734.12 493.261,1734.12 493.261,622.861 358.949,622.861 "/>
<path clip-path="url(#clip612)" d="M493.261 1483.85 L493.261 1734.12 L627.574 1734.12 L627.574 1483.85 L493.261 1483.85 L493.261 1483.85  Z" fill="#009af9" fill-rule="evenodd" fill-opacity="1"/>
<polyline clip-path="url(#clip612)" style="stroke:#000000; stroke-linecap:round; stroke-linejoin:round; stroke-width:4; stroke-opacity:1; fill:none" points="493.261,1483.85 493.261,1734.12 627.574,1734.12 627.574,1483.85 493.261,1483.85 "/>
<path clip-path="url(#clip612)" d="M627.574 1619.1 L627.574 1734.12 L761.886 1734.12 L761.886 1619.1 L627.574 1619.1 L627.574 1619.1  Z" fill="#009af9" fill-rule="evenodd" fill-opacity="1"/>
<polyline clip-path="url(#clip612)" style="stroke:#000000; stroke-linecap:round; stroke-linejoin:round; stroke-width:4; stroke-opacity:1; fill:none" points="627.574,1619.1 627.574,1734.12 761.886,1734.12 761.886,1619.1 627.574,1619.1 "/>
<path clip-path="url(#clip612)" d="M761.886 1676.61 L761.886 1734.12 L896.198 1734.12 L896.198 1676.61 L761.886 1676.61 L761.886 1676.61  Z" fill="#009af9" fill-rule="evenodd" fill-opacity="1"/>
<polyline clip-path="url(#clip612)" style="stroke:#000000; stroke-linecap:round; stroke-linejoin:round; stroke-width:4; stroke-opacity:1; fill:none" points="761.886,1676.61 761.886,1734.12 896.198,1734.12 896.198,1676.61 761.886,1676.61 "/>
<path clip-path="url(#clip612)" d="M896.198 1701.67 L896.198 1734.12 L1030.51 1734.12 L1030.51 1701.67 L896.198 1701.67 L896.198 1701.67  Z" fill="#009af9" fill-rule="evenodd" fill-opacity="1"/>
<polyline clip-path="url(#clip612)" style="stroke:#000000; stroke-linecap:round; stroke-linejoin:round; stroke-width:4; stroke-opacity:1; fill:none" points="896.198,1701.67 896.198,1734.12 1030.51,1734.12 1030.51,1701.67 896.198,1701.67 "/>
<path clip-path="url(#clip612)" d="M1030.51 1713.23 L1030.51 1734.12 L1164.82 1734.12 L1164.82 1713.23 L1030.51 1713.23 L1030.51 1713.23  Z" fill="#009af9" fill-rule="evenodd" fill-opacity="1"/>
<polyline clip-path="url(#clip612)" style="stroke:#000000; stroke-linecap:round; stroke-linejoin:round; stroke-width:4; stroke-opacity:1; fill:none" points="1030.51,1713.23 1030.51,1734.12 1164.82,1734.12 1164.82,1713.23 1030.51,1713.23 "/>
<path clip-path="url(#clip612)" d="M1164.82 1728.49 L1164.82 1734.12 L1299.14 1734.12 L1299.14 1728.49 L1164.82 1728.49 L1164.82 1728.49  Z" fill="#009af9" fill-rule="evenodd" fill-opacity="1"/>
<polyline clip-path="url(#clip612)" style="stroke:#000000; stroke-linecap:round; stroke-linejoin:round; stroke-width:4; stroke-opacity:1; fill:none" points="1164.82,1728.49 1164.82,1734.12 1299.14,1734.12 1299.14,1728.49 1164.82,1728.49 "/>
<path clip-path="url(#clip612)" d="M1299.14 1727.53 L1299.14 1734.12 L1433.45 1734.12 L1433.45 1727.53 L1299.14 1727.53 L1299.14 1727.53  Z" fill="#009af9" fill-rule="evenodd" fill-opacity="1"/>
<polyline clip-path="url(#clip612)" style="stroke:#000000; stroke-linecap:round; stroke-linejoin:round; stroke-width:4; stroke-opacity:1; fill:none" points="1299.14,1727.53 1299.14,1734.12 1433.45,1734.12 1433.45,1727.53 1299.14,1727.53 "/>
<path clip-path="url(#clip612)" d="M1433.45 1730.74 L1433.45 1734.12 L1567.76 1734.12 L1567.76 1730.74 L1433.45 1730.74 L1433.45 1730.74  Z" fill="#009af9" fill-rule="evenodd" fill-opacity="1"/>
<polyline clip-path="url(#clip612)" style="stroke:#000000; stroke-linecap:round; stroke-linejoin:round; stroke-width:4; stroke-opacity:1; fill:none" points="1433.45,1730.74 1433.45,1734.12 1567.76,1734.12 1567.76,1730.74 1433.45,1730.74 "/>
<path clip-path="url(#clip612)" d="M1567.76 1732.35 L1567.76 1734.12 L1702.07 1734.12 L1702.07 1732.35 L1567.76 1732.35 L1567.76 1732.35  Z" fill="#009af9" fill-rule="evenodd" fill-opacity="1"/>
<polyline clip-path="url(#clip612)" style="stroke:#000000; stroke-linecap:round; stroke-linejoin:round; stroke-width:4; stroke-opacity:1; fill:none" points="1567.76,1732.35 1567.76,1734.12 1702.07,1734.12 1702.07,1732.35 1567.76,1732.35 "/>
<path clip-path="url(#clip612)" d="M1702.07 1733.8 L1702.07 1734.12 L1836.39 1734.12 L1836.39 1733.8 L1702.07 1733.8 L1702.07 1733.8  Z" fill="#009af9" fill-rule="evenodd" fill-opacity="1"/>
<polyline clip-path="url(#clip612)" style="stroke:#000000; stroke-linecap:round; stroke-linejoin:round; stroke-width:4; stroke-opacity:1; fill:none" points="1702.07,1733.8 1702.07,1734.12 1836.39,1734.12 1836.39,1733.8 1702.07,1733.8 "/>
<path clip-path="url(#clip612)" d="M1836.39 1733.31 L1836.39 1734.12 L1970.7 1734.12 L1970.7 1733.31 L1836.39 1733.31 L1836.39 1733.31  Z" fill="#009af9" fill-rule="evenodd" fill-opacity="1"/>
<polyline clip-path="url(#clip612)" style="stroke:#000000; stroke-linecap:round; stroke-linejoin:round; stroke-width:4; stroke-opacity:1; fill:none" points="1836.39,1733.31 1836.39,1734.12 1970.7,1734.12 1970.7,1733.31 1836.39,1733.31 "/>
<path clip-path="url(#clip612)" d="M1970.7 1734.12 L1970.7 1734.12 L2105.01 1734.12 L2105.01 1734.12 L1970.7 1734.12 L1970.7 1734.12  Z" fill="#009af9" fill-rule="evenodd" fill-opacity="1"/>
<polyline clip-path="url(#clip612)" style="stroke:#000000; stroke-linecap:round; stroke-linejoin:round; stroke-width:4; stroke-opacity:1; fill:none" points="1970.7,1734.12 1970.7,1734.12 2105.01,1734.12 1970.7,1734.12 "/>
<path clip-path="url(#clip612)" d="M2105.01 1733.96 L2105.01 1734.12 L2239.32 1734.12 L2239.32 1733.96 L2105.01 1733.96 L2105.01 1733.96  Z" fill="#009af9" fill-rule="evenodd" fill-opacity="1"/>
<polyline clip-path="url(#clip612)" style="stroke:#000000; stroke-linecap:round; stroke-linejoin:round; stroke-width:4; stroke-opacity:1; fill:none" points="2105.01,1733.96 2105.01,1734.12 2239.32,1734.12 2239.32,1733.96 2105.01,1733.96 "/>
<path clip-path="url(#clip612)" d="M2239.32 1733.96 L2239.32 1734.12 L2373.64 1734.12 L2373.64 1733.96 L2239.32 1733.96 L2239.32 1733.96  Z" fill="#009af9" fill-rule="evenodd" fill-opacity="1"/>
<polyline clip-path="url(#clip612)" style="stroke:#000000; stroke-linecap:round; stroke-linejoin:round; stroke-width:4; stroke-opacity:1; fill:none" points="2239.32,1733.96 2239.32,1734.12 2373.64,1734.12 2373.64,1733.96 2239.32,1733.96 "/>
<path clip-path="url(#clip612)" d="M2373.64 1733.96 L2373.64 1734.12 L2507.95 1734.12 L2507.95 1733.96 L2373.64 1733.96 L2373.64 1733.96  Z" fill="#009af9" fill-rule="evenodd" fill-opacity="1"/>
<polyline clip-path="url(#clip612)" style="stroke:#000000; stroke-linecap:round; stroke-linejoin:round; stroke-width:4; stroke-opacity:1; fill:none" points="2373.64,1733.96 2373.64,1734.12 2507.95,1734.12 2507.95,1733.96 2373.64,1733.96 "/>
<circle clip-path="url(#clip612)" style="fill:#009af9; stroke:none; fill-opacity:0" cx="426.105" cy="622.861" r="2"/>
<circle clip-path="url(#clip612)" style="fill:#009af9; stroke:none; fill-opacity:0" cx="560.417" cy="1483.85" r="2"/>
<circle clip-path="url(#clip612)" style="fill:#009af9; stroke:none; fill-opacity:0" cx="694.73" cy="1619.1" r="2"/>
<circle clip-path="url(#clip612)" style="fill:#009af9; stroke:none; fill-opacity:0" cx="829.042" cy="1676.61" r="2"/>
<circle clip-path="url(#clip612)" style="fill:#009af9; stroke:none; fill-opacity:0" cx="963.355" cy="1701.67" r="2"/>
<circle clip-path="url(#clip612)" style="fill:#009af9; stroke:none; fill-opacity:0" cx="1097.67" cy="1713.23" r="2"/>
<circle clip-path="url(#clip612)" style="fill:#009af9; stroke:none; fill-opacity:0" cx="1231.98" cy="1728.49" r="2"/>
<circle clip-path="url(#clip612)" style="fill:#009af9; stroke:none; fill-opacity:0" cx="1366.29" cy="1727.53" r="2"/>
<circle clip-path="url(#clip612)" style="fill:#009af9; stroke:none; fill-opacity:0" cx="1500.6" cy="1730.74" r="2"/>
<circle clip-path="url(#clip612)" style="fill:#009af9; stroke:none; fill-opacity:0" cx="1634.92" cy="1732.35" r="2"/>
<circle clip-path="url(#clip612)" style="fill:#009af9; stroke:none; fill-opacity:0" cx="1769.23" cy="1733.8" r="2"/>
<circle clip-path="url(#clip612)" style="fill:#009af9; stroke:none; fill-opacity:0" cx="1903.54" cy="1733.31" r="2"/>
<circle clip-path="url(#clip612)" style="fill:#009af9; stroke:none; fill-opacity:0" cx="2037.85" cy="1734.12" r="2"/>
<circle clip-path="url(#clip612)" style="fill:#009af9; stroke:none; fill-opacity:0" cx="2172.17" cy="1733.96" r="2"/>
<circle clip-path="url(#clip612)" style="fill:#009af9; stroke:none; fill-opacity:0" cx="2306.48" cy="1733.96" r="2"/>
<circle clip-path="url(#clip612)" style="fill:#009af9; stroke:none; fill-opacity:0" cx="2440.79" cy="1733.96" r="2"/>
<polyline clip-path="url(#clip612)" style="stroke:#ff6347; stroke-linecap:round; stroke-linejoin:round; stroke-width:4; stroke-opacity:1; fill:none" points="359.113,-16595.3 359.277,-11218.9 359.441,-8835.49 359.605,-7413.85 359.769,-6443.08 359.933,-5726.05 360.097,-5168.44 360.26,-4718.7 360.424,-4345.94 360.588,-4030.41 360.752,-3758.79 360.916,-3521.73 361.08,-3312.46 361.244,-3125.92 361.408,-2958.26 361.572,-2806.48 361.736,-2668.22 361.9,-2541.58 362.064,-2425 362.228,-2317.22 362.556,-2123.96 362.884,-1955.21 363.212,-1806.15 363.54,-1673.2 363.868,-1553.65 364.196,-1445.37 364.524,-1346.67 364.852,-1256.22 365.18,-1172.91 365.508,-1095.85 366.164,-957.567 366.819,-836.69 367.475,-729.811 368.131,-634.393 368.787,-548.501 369.443,-470.629 370.099,-399.584 370.755,-334.411 371.411,-274.33 372.067,-218.701 373.378,-118.752 374.69,-31.2281 376.002,46.2907 377.314,115.61 377.97,147.638 378.625,178.108 379.281,207.143 379.937,234.857 383.779,375.276 387.62,487.534 391.462,580.113 395.303,658.281 399.145,725.507 402.986,784.185 406.828,836.025 410.669,882.291 418.352,961.694 426.035,1027.76 433.718,1083.9 441.401,1132.4 449.084,1174.84 456.767,1212.39 464.45,1245.91 472.133,1276.06 487.5,1328.2 502.866,1371.81 517.162,1406.48 531.459,1436.61 545.755,1463.04 560.052,1486.4 579.214,1513.71 598.377,1537.27 617.54,1557.75 636.703,1575.66 668.371,1600.68 700.04,1621.16 729.488,1636.99 758.937,1650.34 795.905,1664.27 832.874,1675.67 866.034,1684.18 899.195,1691.35 975.109,1703.93 1031.85,1710.73 1104.43,1717.16 1170.68,1721.42 1246.07,1724.94 1305.83,1727.01 1380.08,1728.92 1436.95,1730.03 1517.12,1731.19 1577.03,1731.83 1645.16,1732.39 1712.63,1732.81 1786.86,1733.15 1843.57,1733.35 1915.12,1733.54 1981.29,1733.68 2049.55,1733.78 2118.73,1733.86 2190.96,1733.93 2247.87,1733.97 2377.46,1734.03 2392,1734.03 "/>
<path clip-path="url(#clip610)" d="M2263.41 300.416 L2560.27 300.416 L2560.27 181.336 L2263.41 181.336  Z" fill="#ffffff" fill-rule="evenodd" fill-opacity="1"/>
<polyline clip-path="url(#clip610)" style="stroke:#000000; stroke-linecap:round; stroke-linejoin:round; stroke-width:4; stroke-opacity:1; fill:none" points="2263.41,300.416 2560.27,300.416 2560.27,181.336 2263.41,181.336 2263.41,300.416 "/>
<polyline clip-path="url(#clip610)" style="stroke:#ff6347; stroke-linecap:round; stroke-linejoin:round; stroke-width:4; stroke-opacity:1; fill:none" points="2290.24,240.876 2451.21,240.876 "/>
<path clip-path="url(#clip610)" d="M2504.91 227.115 Q2505.07 227.279 2505.07 227.513 Q2505.07 227.748 2504.53 228.286 L2493.13 241.075 Q2497.48 256.393 2499.87 256.393 Q2500.6 256.393 2501.35 255.831 Q2502.12 255.292 2502.43 254.473 Q2502.54 254.074 2502.66 253.934 Q2502.78 253.793 2503.11 253.793 Q2503.67 253.793 2503.67 254.332 Q2503.67 254.613 2503.41 255.082 Q2503.15 255.573 2502.68 256.112 Q2502.22 256.674 2501.4 257.049 Q2500.58 257.447 2499.59 257.447 Q2498.37 257.447 2497.39 257.166 Q2496.41 256.885 2495.84 256.534 Q2495.28 256.182 2494.77 255.55 Q2494.27 254.941 2494.09 254.566 Q2493.92 254.215 2493.64 253.606 Q2493.08 252.294 2492.57 250.842 Q2492.05 249.39 2491.72 248.336 Q2491.39 247.282 2490.39 244.05 L2479.4 256.393 Q2478.89 256.909 2478.63 256.909 Q2478.42 256.909 2478.23 256.721 Q2478.04 256.557 2478.04 256.346 Q2478.04 256.112 2478.58 255.573 L2489.61 243.253 Q2489.78 243.089 2489.87 242.949 Q2489.97 242.808 2489.97 242.761 L2489.99 242.715 Q2489.99 242.597 2489.57 241.098 Q2489.15 239.599 2488.37 237.281 Q2487.62 234.938 2486.92 233.228 Q2486.48 232.081 2486.17 231.378 Q2485.87 230.675 2485.33 229.621 Q2484.81 228.567 2484.27 228.029 Q2483.73 227.467 2483.24 227.467 Q2483.08 227.467 2482.82 227.537 Q2482.56 227.607 2482.14 227.794 Q2481.74 227.958 2481.35 228.427 Q2480.95 228.872 2480.69 229.528 Q2480.48 230.043 2480.08 230.043 Q2479.82 230.043 2479.66 229.926 Q2479.52 229.809 2479.52 229.692 L2479.5 229.575 Q2479.5 229.153 2479.89 228.45 Q2480.29 227.748 2481.28 227.092 Q2482.26 226.413 2483.52 226.413 Q2484.72 226.413 2485.7 226.694 Q2486.69 226.975 2487.22 227.303 Q2487.79 227.63 2488.28 228.239 Q2488.77 228.825 2488.91 229.106 Q2489.08 229.364 2489.33 229.902 Q2490.13 231.729 2490.64 233.299 Q2491.18 234.845 2492.73 239.74 L2503.71 227.513 Q2504.21 226.928 2504.49 226.928 Q2504.74 226.928 2504.91 227.115 Z" fill="#000000" fill-rule="nonzero" fill-opacity="1" /><path clip-path="url(#clip610)" d="M2509.92 233.254 Q2509.92 232.648 2509.97 232.467 Q2510.04 232.287 2510.3 232.008 L2516.74 224.827 Q2520.27 220.859 2520.27 217.4 Q2520.27 215.153 2519.09 213.547 Q2517.92 211.94 2515.77 211.94 Q2514.3 211.94 2513.05 212.842 Q2511.81 213.743 2511.23 215.35 Q2511.33 215.317 2511.68 215.317 Q2512.51 215.317 2512.97 215.842 Q2513.45 216.367 2513.45 217.072 Q2513.45 217.973 2512.86 218.416 Q2512.28 218.842 2511.71 218.842 Q2511.48 218.842 2511.17 218.793 Q2510.87 218.744 2510.4 218.285 Q2509.92 217.809 2509.92 216.973 Q2509.92 214.629 2511.69 212.76 Q2513.48 210.89 2516.2 210.89 Q2519.28 210.89 2521.3 212.727 Q2523.33 214.547 2523.33 217.4 Q2523.33 218.4 2523.02 219.318 Q2522.73 220.22 2522.32 220.925 Q2521.92 221.63 2520.84 222.761 Q2519.76 223.892 2518.89 224.696 Q2518.02 225.499 2516.07 227.204 L2512.51 230.664 L2518.56 230.664 Q2521.51 230.664 2521.74 230.401 Q2522.07 229.926 2522.48 227.417 L2523.33 227.417 L2522.38 233.254 L2509.92 233.254 Z" fill="#000000" fill-rule="nonzero" fill-opacity="1" /><path clip-path="url(#clip610)" d="M2509.92 251.48 L2509.92 250.43 Q2513.95 250.43 2516.04 248.282 Q2516.61 248.282 2516.71 248.414 Q2516.81 248.545 2516.81 249.151 L2516.81 267.99 Q2516.81 268.99 2517.3 269.302 Q2517.79 269.613 2519.94 269.613 L2521 269.613 L2521 270.646 Q2519.82 270.548 2515.56 270.548 Q2511.3 270.548 2510.13 270.646 L2510.13 269.613 L2511.2 269.613 Q2513.31 269.613 2513.82 269.318 Q2514.33 269.007 2514.33 267.99 L2514.33 250.594 Q2512.58 251.48 2509.92 251.48 Z" fill="#000000" fill-rule="nonzero" fill-opacity="1" /></svg>
