<?xml version="1.0" encoding="utf-8"?>
<svg xmlns="http://www.w3.org/2000/svg" xmlns:xlink="http://www.w3.org/1999/xlink" width="672" height="480" viewBox="0 0 2688 1920">
<defs>
  <clipPath id="clip300">
    <rect x="0" y="0" width="2688" height="1920"/>
  </clipPath>
</defs>
<path clip-path="url(#clip300)" d="M0 1920 L2688 1920 L2688 0 L0 0  Z" fill="#ffffff" fill-rule="evenodd" fill-opacity="1"/>
<defs>
  <clipPath id="clip301">
    <rect x="537" y="0" width="1883" height="1883"/>
  </clipPath>
</defs>
<path clip-path="url(#clip300)" d="M89.8721 1837.81 L2640.76 1837.81 L2640.76 47.2441 L89.8721 47.2441  Z" fill="#ffffff" fill-rule="evenodd" fill-opacity="1"/>
<defs>
  <clipPath id="clip302">
    <rect x="89" y="47" width="2552" height="1792"/>
  </clipPath>
</defs>
<polyline clip-path="url(#clip302)" style="stroke:#000000; stroke-linecap:round; stroke-linejoin:round; stroke-width:2; stroke-opacity:0.1; fill:none" points="598.006,1837.81 598.006,47.2441 "/>
<polyline clip-path="url(#clip302)" style="stroke:#000000; stroke-linecap:round; stroke-linejoin:round; stroke-width:2; stroke-opacity:0.1; fill:none" points="1108.69,1837.81 1108.69,47.2441 "/>
<polyline clip-path="url(#clip302)" style="stroke:#000000; stroke-linecap:round; stroke-linejoin:round; stroke-width:2; stroke-opacity:0.1; fill:none" points="1619.38,1837.81 1619.38,47.2441 "/>
<polyline clip-path="url(#clip302)" style="stroke:#000000; stroke-linecap:round; stroke-linejoin:round; stroke-width:2; stroke-opacity:0.1; fill:none" points="2130.07,1837.81 2130.07,47.2441 "/>
<polyline clip-path="url(#clip302)" style="stroke:#000000; stroke-linecap:round; stroke-linejoin:round; stroke-width:2; stroke-opacity:0.1; fill:none" points="2640.76,1837.81 2640.76,47.2441 "/>
<polyline clip-path="url(#clip302)" style="stroke:#000000; stroke-linecap:round; stroke-linejoin:round; stroke-width:2; stroke-opacity:0.1; fill:none" points="89.8721,1833.1 2640.76,1833.1 "/>
<polyline clip-path="url(#clip302)" style="stroke:#000000; stroke-linecap:round; stroke-linejoin:round; stroke-width:2; stroke-opacity:0.1; fill:none" points="89.8721,1431.55 2640.76,1431.55 "/>
<polyline clip-path="url(#clip302)" style="stroke:#000000; stroke-linecap:round; stroke-linejoin:round; stroke-width:2; stroke-opacity:0.1; fill:none" points="89.8721,1029.99 2640.76,1029.99 "/>
<polyline clip-path="url(#clip302)" style="stroke:#000000; stroke-linecap:round; stroke-linejoin:round; stroke-width:2; stroke-opacity:0.1; fill:none" points="89.8721,628.442 2640.76,628.442 "/>
<polyline clip-path="url(#clip302)" style="stroke:#000000; stroke-linecap:round; stroke-linejoin:round; stroke-width:2; stroke-opacity:0.1; fill:none" points="89.8721,226.889 2640.76,226.889 "/>
<polyline clip-path="url(#clip300)" style="stroke:#000000; stroke-linecap:round; stroke-linejoin:round; stroke-width:4; stroke-opacity:1; fill:none" points="89.8721,1837.81 2640.76,1837.81 "/>
<polyline clip-path="url(#clip300)" style="stroke:#000000; stroke-linecap:round; stroke-linejoin:round; stroke-width:4; stroke-opacity:1; fill:none" points="598.006,1837.81 598.006,1818.91 "/>
<polyline clip-path="url(#clip300)" style="stroke:#000000; stroke-linecap:round; stroke-linejoin:round; stroke-width:4; stroke-opacity:1; fill:none" points="1108.69,1837.81 1108.69,1818.91 "/>
<polyline clip-path="url(#clip300)" style="stroke:#000000; stroke-linecap:round; stroke-linejoin:round; stroke-width:4; stroke-opacity:1; fill:none" points="1619.38,1837.81 1619.38,1818.91 "/>
<polyline clip-path="url(#clip300)" style="stroke:#000000; stroke-linecap:round; stroke-linejoin:round; stroke-width:4; stroke-opacity:1; fill:none" points="2130.07,1837.81 2130.07,1818.91 "/>
<polyline clip-path="url(#clip300)" style="stroke:#000000; stroke-linecap:round; stroke-linejoin:round; stroke-width:4; stroke-opacity:1; fill:none" points="2640.76,1837.81 2640.76,1818.91 "/>
<path clip-path="url(#clip300)" d="M576.779 1898.58 L593.099 1898.58 L593.099 1902.51 L571.154 1902.51 L571.154 1898.58 Q573.816 1895.82 578.4 1891.19 Q583.006 1886.54 584.187 1885.2 Q586.432 1882.67 587.312 1880.94 Q588.215 1879.18 588.215 1877.49 Q588.215 1874.73 586.27 1873 Q584.349 1871.26 581.247 1871.26 Q579.048 1871.26 576.594 1872.03 Q574.164 1872.79 571.386 1874.34 L571.386 1869.62 Q574.21 1868.48 576.664 1867.91 Q579.117 1867.33 581.154 1867.33 Q586.525 1867.33 589.719 1870.01 Q592.914 1872.7 592.914 1877.19 Q592.914 1879.32 592.103 1881.24 Q591.316 1883.14 589.21 1885.73 Q588.631 1886.4 585.529 1889.62 Q582.428 1892.81 576.779 1898.58 Z" fill="#000000" fill-rule="nonzero" fill-opacity="1" /><path clip-path="url(#clip300)" d="M612.913 1871.03 Q609.302 1871.03 607.474 1874.6 Q605.668 1878.14 605.668 1885.27 Q605.668 1892.37 607.474 1895.94 Q609.302 1899.48 612.913 1899.48 Q616.548 1899.48 618.353 1895.94 Q620.182 1892.37 620.182 1885.27 Q620.182 1878.14 618.353 1874.6 Q616.548 1871.03 612.913 1871.03 M612.913 1867.33 Q618.724 1867.33 621.779 1871.93 Q624.858 1876.52 624.858 1885.27 Q624.858 1893.99 621.779 1898.6 Q618.724 1903.18 612.913 1903.18 Q607.103 1903.18 604.025 1898.6 Q600.969 1893.99 600.969 1885.27 Q600.969 1876.52 604.025 1871.93 Q607.103 1867.33 612.913 1867.33 Z" fill="#000000" fill-rule="nonzero" fill-opacity="1" /><path clip-path="url(#clip300)" d="M1096.86 1872.03 L1085.06 1890.47 L1096.86 1890.47 L1096.86 1872.03 M1095.64 1867.95 L1101.52 1867.95 L1101.52 1890.47 L1106.45 1890.47 L1106.45 1894.36 L1101.52 1894.36 L1101.52 1902.51 L1096.86 1902.51 L1096.86 1894.36 L1081.26 1894.36 L1081.26 1889.85 L1095.64 1867.95 Z" fill="#000000" fill-rule="nonzero" fill-opacity="1" /><path clip-path="url(#clip300)" d="M1124.18 1871.03 Q1120.57 1871.03 1118.74 1874.6 Q1116.93 1878.14 1116.93 1885.27 Q1116.93 1892.37 1118.74 1895.94 Q1120.57 1899.48 1124.18 1899.48 Q1127.81 1899.48 1129.62 1895.94 Q1131.45 1892.37 1131.45 1885.27 Q1131.45 1878.14 1129.62 1874.6 Q1127.81 1871.03 1124.18 1871.03 M1124.18 1867.33 Q1129.99 1867.33 1133.05 1871.93 Q1136.12 1876.52 1136.12 1885.27 Q1136.12 1893.99 1133.05 1898.6 Q1129.99 1903.18 1124.18 1903.18 Q1118.37 1903.18 1115.29 1898.6 Q1112.24 1893.99 1112.24 1885.27 Q1112.24 1876.52 1115.29 1871.93 Q1118.37 1867.33 1124.18 1867.33 Z" fill="#000000" fill-rule="nonzero" fill-opacity="1" /><path clip-path="url(#clip300)" d="M1604.79 1883.37 Q1601.64 1883.37 1599.79 1885.52 Q1597.96 1887.67 1597.96 1891.42 Q1597.96 1895.15 1599.79 1897.33 Q1601.64 1899.48 1604.79 1899.48 Q1607.93 1899.48 1609.76 1897.33 Q1611.61 1895.15 1611.61 1891.42 Q1611.61 1887.67 1609.76 1885.52 Q1607.93 1883.37 1604.79 1883.37 M1614.07 1868.72 L1614.07 1872.97 Q1612.31 1872.14 1610.5 1871.7 Q1608.72 1871.26 1606.96 1871.26 Q1602.33 1871.26 1599.88 1874.39 Q1597.45 1877.51 1597.1 1883.83 Q1598.47 1881.82 1600.53 1880.75 Q1602.59 1879.66 1605.06 1879.66 Q1610.27 1879.66 1613.28 1882.84 Q1616.31 1885.98 1616.31 1891.42 Q1616.31 1896.75 1613.17 1899.97 Q1610.02 1903.18 1604.79 1903.18 Q1598.79 1903.18 1595.62 1898.6 Q1592.45 1893.99 1592.45 1885.27 Q1592.45 1877.07 1596.34 1872.21 Q1600.23 1867.33 1606.78 1867.33 Q1608.54 1867.33 1610.32 1867.67 Q1612.12 1868.02 1614.07 1868.72 Z" fill="#000000" fill-rule="nonzero" fill-opacity="1" /><path clip-path="url(#clip300)" d="M1634.37 1871.03 Q1630.76 1871.03 1628.93 1874.6 Q1627.12 1878.14 1627.12 1885.27 Q1627.12 1892.37 1628.93 1895.94 Q1630.76 1899.48 1634.37 1899.48 Q1638 1899.48 1639.81 1895.94 Q1641.64 1892.37 1641.64 1885.27 Q1641.64 1878.14 1639.81 1874.6 Q1638 1871.03 1634.37 1871.03 M1634.37 1867.33 Q1640.18 1867.33 1643.24 1871.93 Q1646.31 1876.52 1646.31 1885.27 Q1646.31 1893.99 1643.24 1898.6 Q1640.18 1903.18 1634.37 1903.18 Q1628.56 1903.18 1625.48 1898.6 Q1622.42 1893.99 1622.42 1885.27 Q1622.42 1876.52 1625.48 1871.93 Q1628.56 1867.33 1634.37 1867.33 Z" fill="#000000" fill-rule="nonzero" fill-opacity="1" /><path clip-path="url(#clip300)" d="M2114.94 1886.1 Q2111.61 1886.1 2109.69 1887.88 Q2107.79 1889.66 2107.79 1892.79 Q2107.79 1895.91 2109.69 1897.7 Q2111.61 1899.48 2114.94 1899.48 Q2118.27 1899.48 2120.2 1897.7 Q2122.12 1895.89 2122.12 1892.79 Q2122.12 1889.66 2120.2 1887.88 Q2118.3 1886.1 2114.94 1886.1 M2110.27 1884.11 Q2107.26 1883.37 2105.57 1881.31 Q2103.9 1879.25 2103.9 1876.29 Q2103.9 1872.14 2106.84 1869.73 Q2109.8 1867.33 2114.94 1867.33 Q2120.1 1867.33 2123.04 1869.73 Q2125.98 1872.14 2125.98 1876.29 Q2125.98 1879.25 2124.29 1881.31 Q2122.63 1883.37 2119.64 1884.11 Q2123.02 1884.9 2124.89 1887.19 Q2126.79 1889.48 2126.79 1892.79 Q2126.79 1897.81 2123.71 1900.5 Q2120.66 1903.18 2114.94 1903.18 Q2109.22 1903.18 2106.14 1900.5 Q2103.09 1897.81 2103.09 1892.79 Q2103.09 1889.48 2104.99 1887.19 Q2106.89 1884.9 2110.27 1884.11 M2108.55 1876.72 Q2108.55 1879.41 2110.22 1880.91 Q2111.91 1882.42 2114.94 1882.42 Q2117.95 1882.42 2119.64 1880.91 Q2121.35 1879.41 2121.35 1876.72 Q2121.35 1874.04 2119.64 1872.54 Q2117.95 1871.03 2114.94 1871.03 Q2111.91 1871.03 2110.22 1872.54 Q2108.55 1874.04 2108.55 1876.72 Z" fill="#000000" fill-rule="nonzero" fill-opacity="1" /><path clip-path="url(#clip300)" d="M2145.1 1871.03 Q2141.49 1871.03 2139.66 1874.6 Q2137.86 1878.14 2137.86 1885.27 Q2137.86 1892.37 2139.66 1895.94 Q2141.49 1899.48 2145.1 1899.48 Q2148.74 1899.48 2150.54 1895.94 Q2152.37 1892.37 2152.37 1885.27 Q2152.37 1878.14 2150.54 1874.6 Q2148.74 1871.03 2145.1 1871.03 M2145.1 1867.33 Q2150.91 1867.33 2153.97 1871.93 Q2157.05 1876.52 2157.05 1885.27 Q2157.05 1893.99 2153.97 1898.6 Q2150.91 1903.18 2145.1 1903.18 Q2139.29 1903.18 2136.21 1898.6 Q2133.16 1893.99 2133.16 1885.27 Q2133.16 1876.52 2136.21 1871.93 Q2139.29 1867.33 2145.1 1867.33 Z" fill="#000000" fill-rule="nonzero" fill-opacity="1" /><path clip-path="url(#clip300)" d="M2600.36 1898.58 L2608 1898.58 L2608 1872.21 L2599.69 1873.88 L2599.69 1869.62 L2607.96 1867.95 L2612.63 1867.95 L2612.63 1898.58 L2620.27 1898.58 L2620.27 1902.51 L2600.36 1902.51 L2600.36 1898.58 Z" fill="#000000" fill-rule="nonzero" fill-opacity="1" /><path clip-path="url(#clip300)" d="M2639.71 1871.03 Q2636.1 1871.03 2634.27 1874.6 Q2632.47 1878.14 2632.47 1885.27 Q2632.47 1892.37 2634.27 1895.94 Q2636.1 1899.48 2639.71 1899.48 Q2643.35 1899.48 2645.15 1895.94 Q2646.98 1892.37 2646.98 1885.27 Q2646.98 1878.14 2645.15 1874.6 Q2643.35 1871.03 2639.71 1871.03 M2639.71 1867.33 Q2645.52 1867.33 2648.58 1871.93 Q2651.66 1876.52 2651.66 1885.27 Q2651.66 1893.99 2648.58 1898.6 Q2645.52 1903.18 2639.71 1903.18 Q2633.9 1903.18 2630.83 1898.6 Q2627.77 1893.99 2627.77 1885.27 Q2627.77 1876.52 2630.83 1871.93 Q2633.9 1867.33 2639.71 1867.33 Z" fill="#000000" fill-rule="nonzero" fill-opacity="1" /><path clip-path="url(#clip300)" d="M2669.88 1871.03 Q2666.27 1871.03 2664.44 1874.6 Q2662.63 1878.14 2662.63 1885.27 Q2662.63 1892.37 2664.44 1895.94 Q2666.27 1899.48 2669.88 1899.48 Q2673.51 1899.48 2675.32 1895.94 Q2677.14 1892.37 2677.14 1885.27 Q2677.14 1878.14 2675.32 1874.6 Q2673.51 1871.03 2669.88 1871.03 M2669.88 1867.33 Q2675.69 1867.33 2678.74 1871.93 Q2681.82 1876.52 2681.82 1885.27 Q2681.82 1893.99 2678.74 1898.6 Q2675.69 1903.18 2669.88 1903.18 Q2664.07 1903.18 2660.99 1898.6 Q2657.93 1893.99 2657.93 1885.27 Q2657.93 1876.52 2660.99 1871.93 Q2664.07 1867.33 2669.88 1867.33 Z" fill="#000000" fill-rule="nonzero" fill-opacity="1" /><polyline clip-path="url(#clip300)" style="stroke:#000000; stroke-linecap:round; stroke-linejoin:round; stroke-width:4; stroke-opacity:1; fill:none" points="89.8721,1837.81 89.8721,47.2441 "/>
<polyline clip-path="url(#clip300)" style="stroke:#000000; stroke-linecap:round; stroke-linejoin:round; stroke-width:4; stroke-opacity:1; fill:none" points="89.8721,1833.1 108.77,1833.1 "/>
<polyline clip-path="url(#clip300)" style="stroke:#000000; stroke-linecap:round; stroke-linejoin:round; stroke-width:4; stroke-opacity:1; fill:none" points="89.8721,1431.55 108.77,1431.55 "/>
<polyline clip-path="url(#clip300)" style="stroke:#000000; stroke-linecap:round; stroke-linejoin:round; stroke-width:4; stroke-opacity:1; fill:none" points="89.8721,1029.99 108.77,1029.99 "/>
<polyline clip-path="url(#clip300)" style="stroke:#000000; stroke-linecap:round; stroke-linejoin:round; stroke-width:4; stroke-opacity:1; fill:none" points="89.8721,628.442 108.77,628.442 "/>
<polyline clip-path="url(#clip300)" style="stroke:#000000; stroke-linecap:round; stroke-linejoin:round; stroke-width:4; stroke-opacity:1; fill:none" points="89.8721,226.889 108.77,226.889 "/>
<path clip-path="url(#clip300)" d="M-41.327 1833.55 L-11.6512 1833.55 L-11.6512 1837.49 L-41.327 1837.49 L-41.327 1833.55 Z" fill="#000000" fill-rule="nonzero" fill-opacity="1" /><path clip-path="url(#clip300)" d="M2.46904 1846.45 L18.7884 1846.45 L18.7884 1850.38 L-3.15592 1850.38 L-3.15592 1846.45 Q-0.493902 1843.69 4.08941 1839.06 Q8.69586 1834.41 9.87641 1833.07 Q12.1218 1830.54 13.0014 1828.81 Q13.9042 1827.05 13.9042 1825.36 Q13.9042 1822.6 11.9597 1820.87 Q10.0384 1819.13 6.93661 1819.13 Q4.73755 1819.13 2.28386 1819.89 Q-0.146682 1820.66 -2.92444 1822.21 L-2.92444 1817.49 Q-0.100386 1816.35 2.3533 1815.77 Q4.807 1815.2 6.84402 1815.2 Q12.2144 1815.2 15.4088 1817.88 Q18.6032 1820.57 18.6032 1825.06 Q18.6032 1827.19 17.793 1829.11 Q17.006 1831.01 14.8995 1833.6 Q14.3208 1834.27 11.219 1837.49 Q8.11716 1840.68 2.46904 1846.45 Z" fill="#000000" fill-rule="nonzero" fill-opacity="1" /><path clip-path="url(#clip300)" d="M28.6495 1815.82 L47.0058 1815.82 L47.0058 1819.76 L32.9318 1819.76 L32.9318 1828.23 Q33.9504 1827.88 34.9689 1827.72 Q35.9874 1827.53 37.0059 1827.53 Q42.7929 1827.53 46.1725 1830.7 Q49.5521 1833.88 49.5521 1839.29 Q49.5521 1844.87 46.0799 1847.97 Q42.6077 1851.05 36.2883 1851.05 Q34.1124 1851.05 31.8439 1850.68 Q29.5985 1850.31 27.1911 1849.57 L27.1911 1844.87 Q29.2745 1846.01 31.4967 1846.56 Q33.7189 1847.12 36.1957 1847.12 Q40.2003 1847.12 42.5383 1845.01 Q44.8762 1842.9 44.8762 1839.29 Q44.8762 1835.68 42.5383 1833.58 Q40.2003 1831.47 36.1957 1831.47 Q34.3207 1831.47 32.4457 1831.89 Q30.5939 1832.3 28.6495 1833.18 L28.6495 1815.82 Z" fill="#000000" fill-rule="nonzero" fill-opacity="1" /><path clip-path="url(#clip300)" d="M37.6077 1417.35 Q33.9967 1417.35 32.168 1420.91 Q30.3624 1424.45 30.3624 1431.58 Q30.3624 1438.69 32.168 1442.25 Q33.9967 1445.8 37.6077 1445.8 Q41.242 1445.8 43.0475 1442.25 Q44.8762 1438.69 44.8762 1431.58 Q44.8762 1424.45 43.0475 1420.91 Q41.242 1417.35 37.6077 1417.35 M37.6077 1413.64 Q43.4179 1413.64 46.4734 1418.25 Q49.5521 1422.83 49.5521 1431.58 Q49.5521 1440.31 46.4734 1444.92 Q43.4179 1449.5 37.6077 1449.5 Q31.7976 1449.5 28.7189 1444.92 Q25.6634 1440.31 25.6634 1431.58 Q25.6634 1422.83 28.7189 1418.25 Q31.7976 1413.64 37.6077 1413.64 Z" fill="#000000" fill-rule="nonzero" fill-opacity="1" /><path clip-path="url(#clip300)" d="M2.46904 1043.34 L18.7884 1043.34 L18.7884 1047.27 L-3.15592 1047.27 L-3.15592 1043.34 Q-0.493902 1040.59 4.08941 1035.96 Q8.69586 1031.3 9.87641 1029.96 Q12.1218 1027.44 13.0014 1025.7 Q13.9042 1023.94 13.9042 1022.25 Q13.9042 1019.5 11.9597 1017.76 Q10.0384 1016.02 6.93661 1016.02 Q4.73755 1016.02 2.28386 1016.79 Q-0.146682 1017.55 -2.92444 1019.1 L-2.92444 1014.38 Q-0.100386 1013.25 2.3533 1012.67 Q4.807 1012.09 6.84402 1012.09 Q12.2144 1012.09 15.4088 1014.77 Q18.6032 1017.46 18.6032 1021.95 Q18.6032 1024.08 17.793 1026 Q17.006 1027.9 14.8995 1030.49 Q14.3208 1031.16 11.219 1034.38 Q8.11716 1037.58 2.46904 1043.34 Z" fill="#000000" fill-rule="nonzero" fill-opacity="1" /><path clip-path="url(#clip300)" d="M28.6495 1012.71 L47.0058 1012.71 L47.0058 1016.65 L32.9318 1016.65 L32.9318 1025.12 Q33.9504 1024.77 34.9689 1024.61 Q35.9874 1024.43 37.0059 1024.43 Q42.7929 1024.43 46.1725 1027.6 Q49.5521 1030.77 49.5521 1036.19 Q49.5521 1041.77 46.0799 1044.87 Q42.6077 1047.95 36.2883 1047.95 Q34.1124 1047.95 31.8439 1047.58 Q29.5985 1047.21 27.1911 1046.46 L27.1911 1041.77 Q29.2745 1042.9 31.4967 1043.46 Q33.7189 1044.01 36.1957 1044.01 Q40.2003 1044.01 42.5383 1041.9 Q44.8762 1039.8 44.8762 1036.19 Q44.8762 1032.58 42.5383 1030.47 Q40.2003 1028.36 36.1957 1028.36 Q34.3207 1028.36 32.4457 1028.78 Q30.5939 1029.2 28.6495 1030.08 L28.6495 1012.71 Z" fill="#000000" fill-rule="nonzero" fill-opacity="1" /><path clip-path="url(#clip300)" d="M-2.50778 611.162 L15.8486 611.162 L15.8486 615.097 L1.7746 615.097 L1.7746 623.569 Q2.79312 623.222 3.81163 623.06 Q4.83014 622.875 5.84866 622.875 Q11.6357 622.875 15.0153 626.046 Q18.3949 629.217 18.3949 634.634 Q18.3949 640.213 14.9227 643.315 Q11.4505 646.393 5.13107 646.393 Q2.95515 646.393 0.686647 646.023 Q-1.55871 645.653 -3.96611 644.912 L-3.96611 640.213 Q-1.88278 641.347 0.339427 641.903 Q2.56164 642.458 5.03848 642.458 Q9.04308 642.458 11.381 640.352 Q13.719 638.245 13.719 634.634 Q13.719 631.023 11.381 628.916 Q9.04308 626.81 5.03848 626.81 Q3.16349 626.81 1.2885 627.227 Q-0.563346 627.643 -2.50778 628.523 L-2.50778 611.162 Z" fill="#000000" fill-rule="nonzero" fill-opacity="1" /><path clip-path="url(#clip300)" d="M37.6077 614.241 Q33.9967 614.241 32.168 617.805 Q30.3624 621.347 30.3624 628.477 Q30.3624 635.583 32.168 639.148 Q33.9967 642.69 37.6077 642.69 Q41.242 642.69 43.0475 639.148 Q44.8762 635.583 44.8762 628.477 Q44.8762 621.347 43.0475 617.805 Q41.242 614.241 37.6077 614.241 M37.6077 610.537 Q43.4179 610.537 46.4734 615.143 Q49.5521 619.727 49.5521 628.477 Q49.5521 637.203 46.4734 641.81 Q43.4179 646.393 37.6077 646.393 Q31.7976 646.393 28.7189 641.81 Q25.6634 637.203 25.6634 628.477 Q25.6634 619.727 28.7189 615.143 Q31.7976 610.537 37.6077 610.537 Z" fill="#000000" fill-rule="nonzero" fill-opacity="1" /><path clip-path="url(#clip300)" d="M-2.73926 209.609 L19.4828 209.609 L19.4828 211.6 L6.93661 244.169 L2.05238 244.169 L13.8579 213.544 L-2.73926 213.544 L-2.73926 209.609 Z" fill="#000000" fill-rule="nonzero" fill-opacity="1" /><path clip-path="url(#clip300)" d="M28.6495 209.609 L47.0058 209.609 L47.0058 213.544 L32.9318 213.544 L32.9318 222.016 Q33.9504 221.669 34.9689 221.507 Q35.9874 221.322 37.0059 221.322 Q42.7929 221.322 46.1725 224.493 Q49.5521 227.665 49.5521 233.081 Q49.5521 238.66 46.0799 241.762 Q42.6077 244.84 36.2883 244.84 Q34.1124 244.84 31.8439 244.47 Q29.5985 244.1 27.1911 243.359 L27.1911 238.66 Q29.2745 239.794 31.4967 240.35 Q33.7189 240.905 36.1957 240.905 Q40.2003 240.905 42.5383 238.799 Q44.8762 236.692 44.8762 233.081 Q44.8762 229.47 42.5383 227.364 Q40.2003 225.257 36.1957 225.257 Q34.3207 225.257 32.4457 225.674 Q30.5939 226.09 28.6495 226.97 L28.6495 209.609 Z" fill="#000000" fill-rule="nonzero" fill-opacity="1" /><polyline clip-path="url(#clip302)" style="stroke:#009af9; stroke-linecap:round; stroke-linejoin:round; stroke-width:4; stroke-opacity:1; fill:none" points="89.8721,97.9204 90.0779,183.05 90.2836,256.53 90.4893,320.627 90.6951,377.055 90.9008,427.132 91.1066,471.891 91.3123,512.153 91.518,548.577 91.7238,581.699 91.9295,611.96 92.1353,639.726 92.341,665.302 92.5467,688.945 92.7525,710.873 92.9582,731.275 93.1639,750.309 93.5754,784.811 93.9869,815.288 94.3984,842.436 94.8099,866.798 95.2213,888.805 95.6328,908.802 96.0443,927.071 96.4558,943.84 97.2787,973.613 98.1017,999.306 98.9246,1021.77 99.7476,1041.63 100.571,1059.35 101.394,1075.3 102.216,1089.77 103.039,1102.97 104.685,1126.26 106.331,1146.27 107.977,1163.73 109.623,1179.18 111.269,1192.99 112.915,1205.46 114.561,1216.81 116.207,1227.22 121.027,1253.43 125.847,1274.94 130.667,1293.15 135.487,1308.9 140.307,1322.77 145.127,1335.16 149.947,1346.33 154.767,1356.52 164.406,1374.51 174.046,1390.04 183.686,1403.69 193.326,1415.88 212.606,1436.91 231.886,1454.62 251.166,1469.93 270.446,1483.41 288.384,1494.64 306.322,1504.86 324.26,1514.23 342.198,1522.87 390.285,1543.23 438.372,1560.46 478.107,1572.94 517.842,1584.17 554.792,1593.7 591.741,1602.48 684.51,1621.91 767.724,1636.88 862.974,1651.87 934.173,1661.9 1025.24,1673.55 1108.35,1683.22 1202.95,1693.3 1277.94,1700.7 1371.1,1709.26 1442.45,1715.4 1543.04,1723.52 1618.21,1729.23 1703.69,1735.39 1788.35,1741.18 1881.49,1747.21 1952.63,1751.62 2042.41,1756.94 2125.44,1761.64 2211.08,1766.3 2297.88,1770.83 2388.52,1775.38 2459.92,1778.83 2622.51,1786.32 2640.76,1787.13 "/>
<polyline clip-path="url(#clip302)" style="stroke:#e26f46; stroke-linecap:round; stroke-linejoin:round; stroke-width:4; stroke-opacity:1; fill:none" points="112.853,3628.37 112.853,-1743.32 "/>
<polyline clip-path="url(#clip302)" style="stroke:#e26f46; stroke-linecap:round; stroke-linejoin:round; stroke-width:4; stroke-opacity:1; fill:none" points="129.009,3628.37 129.009,-1743.32 "/>
<polyline clip-path="url(#clip302)" style="stroke:#e26f46; stroke-linecap:round; stroke-linejoin:round; stroke-width:4; stroke-opacity:1; fill:none" points="140.343,3628.37 140.343,-1743.32 "/>
<polyline clip-path="url(#clip302)" style="stroke:#e26f46; stroke-linecap:round; stroke-linejoin:round; stroke-width:4; stroke-opacity:1; fill:none" points="149.161,3628.37 149.161,-1743.32 "/>
<polyline clip-path="url(#clip302)" style="stroke:#e26f46; stroke-linecap:round; stroke-linejoin:round; stroke-width:4; stroke-opacity:1; fill:none" points="156.34,3628.37 156.34,-1743.32 "/>
<polyline clip-path="url(#clip302)" style="stroke:#e26f46; stroke-linecap:round; stroke-linejoin:round; stroke-width:4; stroke-opacity:1; fill:none" points="162.338,3628.37 162.338,-1743.32 "/>
<polyline clip-path="url(#clip302)" style="stroke:#e26f46; stroke-linecap:round; stroke-linejoin:round; stroke-width:4; stroke-opacity:1; fill:none" points="167.436,3628.37 167.436,-1743.32 "/>
<polyline clip-path="url(#clip302)" style="stroke:#e26f46; stroke-linecap:round; stroke-linejoin:round; stroke-width:4; stroke-opacity:1; fill:none" points="171.825,3628.37 171.825,-1743.32 "/>
<polyline clip-path="url(#clip302)" style="stroke:#e26f46; stroke-linecap:round; stroke-linejoin:round; stroke-width:4; stroke-opacity:1; fill:none" points="175.635,3628.37 175.635,-1743.32 "/>
<polyline clip-path="url(#clip302)" style="stroke:#e26f46; stroke-linecap:round; stroke-linejoin:round; stroke-width:4; stroke-opacity:1; fill:none" points="178.967,3628.37 178.967,-1743.32 "/>
<polyline clip-path="url(#clip302)" style="stroke:#000000; stroke-linecap:round; stroke-linejoin:round; stroke-width:4; stroke-opacity:1; fill:none" points="-2461.01,1431.55 5191.64,1431.55 "/>
<path clip-path="url(#clip300)" d="M1579.99 262.45 L2555.73 262.45 L2555.73 106.93 L1579.99 106.93  Z" fill="#ffffff" fill-rule="evenodd" fill-opacity="1"/>
<polyline clip-path="url(#clip300)" style="stroke:#000000; stroke-linecap:round; stroke-linejoin:round; stroke-width:4; stroke-opacity:1; fill:none" points="1579.99,262.45 2555.73,262.45 2555.73,106.93 1579.99,106.93 1579.99,262.45 "/>
<polyline clip-path="url(#clip300)" style="stroke:#009af9; stroke-linecap:round; stroke-linejoin:round; stroke-width:4; stroke-opacity:1; fill:none" points="1608.34,158.77 1778.4,158.77 "/>
<path clip-path="url(#clip300)" d="M1806.74 141.49 L1811.44 141.49 L1811.44 162.485 Q1811.44 168.04 1813.45 170.494 Q1815.47 172.925 1819.98 172.925 Q1824.47 172.925 1826.48 170.494 Q1828.5 168.04 1828.5 162.485 L1828.5 141.49 L1833.2 141.49 L1833.2 163.064 Q1833.2 169.823 1829.84 173.272 Q1826.51 176.721 1819.98 176.721 Q1813.43 176.721 1810.07 173.272 Q1806.74 169.823 1806.74 163.064 L1806.74 141.49 Z" fill="#000000" fill-rule="nonzero" fill-opacity="1" /><polyline clip-path="url(#clip300)" style="stroke:#e26f46; stroke-linecap:round; stroke-linejoin:round; stroke-width:4; stroke-opacity:1; fill:none" points="1608.34,210.61 1778.4,210.61 "/>
<path clip-path="url(#clip300)" d="M1817.36 191.918 Q1814.26 197.242 1812.76 202.45 Q1811.25 207.658 1811.25 213.005 Q1811.25 218.353 1812.76 223.607 Q1814.29 228.839 1817.36 234.14 L1813.66 234.14 Q1810.19 228.7 1808.45 223.445 Q1806.74 218.191 1806.74 213.005 Q1806.74 207.843 1808.45 202.612 Q1810.16 197.38 1813.66 191.918 L1817.36 191.918 Z" fill="#000000" fill-rule="nonzero" fill-opacity="1" /><path clip-path="url(#clip300)" d="M1837.36 197.936 L1831.02 215.135 L1843.73 215.135 L1837.36 197.936 M1834.72 193.33 L1840.03 193.33 L1853.2 227.89 L1848.34 227.89 L1845.19 219.024 L1829.61 219.024 L1826.46 227.89 L1821.53 227.89 L1834.72 193.33 Z" fill="#000000" fill-rule="nonzero" fill-opacity="1" /><path clip-path="url(#clip300)" d="M1858.06 191.871 L1862.32 191.871 L1862.32 227.89 L1858.06 227.89 L1858.06 191.871 Z" fill="#000000" fill-rule="nonzero" fill-opacity="1" /><path clip-path="url(#clip300)" d="M1888.29 214.626 Q1888.29 209.996 1886.37 207.45 Q1884.47 204.904 1881.02 204.904 Q1877.6 204.904 1875.67 207.45 Q1873.78 209.996 1873.78 214.626 Q1873.78 219.232 1875.67 221.778 Q1877.6 224.325 1881.02 224.325 Q1884.47 224.325 1886.37 221.778 Q1888.29 219.232 1888.29 214.626 M1892.55 224.672 Q1892.55 231.292 1889.61 234.51 Q1886.67 237.751 1880.6 237.751 Q1878.36 237.751 1876.37 237.403 Q1874.38 237.079 1872.5 236.385 L1872.5 232.241 Q1874.38 233.26 1876.21 233.746 Q1878.03 234.232 1879.93 234.232 Q1884.12 234.232 1886.21 232.033 Q1888.29 229.857 1888.29 225.436 L1888.29 223.329 Q1886.97 225.621 1884.91 226.755 Q1882.85 227.89 1879.98 227.89 Q1875.21 227.89 1872.29 224.255 Q1869.38 220.621 1869.38 214.626 Q1869.38 208.607 1872.29 204.973 Q1875.21 201.339 1879.98 201.339 Q1882.85 201.339 1884.91 202.473 Q1886.97 203.607 1888.29 205.899 L1888.29 201.964 L1892.55 201.964 L1892.55 224.672 Z" fill="#000000" fill-rule="nonzero" fill-opacity="1" /><path clip-path="url(#clip300)" d="M1900.88 217.658 L1900.88 201.964 L1905.14 201.964 L1905.14 217.496 Q1905.14 221.177 1906.58 223.028 Q1908.01 224.857 1910.88 224.857 Q1914.33 224.857 1916.32 222.658 Q1918.34 220.459 1918.34 216.663 L1918.34 201.964 L1922.59 201.964 L1922.59 227.89 L1918.34 227.89 L1918.34 223.908 Q1916.78 226.269 1914.72 227.427 Q1912.69 228.561 1909.98 228.561 Q1905.51 228.561 1903.2 225.783 Q1900.88 223.005 1900.88 217.658 M1911.6 201.339 L1911.6 201.339 Z" fill="#000000" fill-rule="nonzero" fill-opacity="1" /><path clip-path="url(#clip300)" d="M1952.92 212.241 L1952.92 227.89 L1948.66 227.89 L1948.66 212.38 Q1948.66 208.7 1947.22 206.871 Q1945.79 205.042 1942.92 205.042 Q1939.47 205.042 1937.48 207.242 Q1935.49 209.441 1935.49 213.237 L1935.49 227.89 L1931.21 227.89 L1931.21 201.964 L1935.49 201.964 L1935.49 205.992 Q1937.02 203.654 1939.08 202.496 Q1941.16 201.339 1943.87 201.339 Q1948.34 201.339 1950.63 204.117 Q1952.92 206.871 1952.92 212.241 Z" fill="#000000" fill-rule="nonzero" fill-opacity="1" /><path clip-path="url(#clip300)" d="M1977.94 202.728 L1977.94 206.755 Q1976.14 205.829 1974.19 205.367 Q1972.25 204.904 1970.16 204.904 Q1966.99 204.904 1965.4 205.876 Q1963.82 206.848 1963.82 208.792 Q1963.82 210.274 1964.96 211.13 Q1966.09 211.964 1969.52 212.728 L1970.97 213.052 Q1975.51 214.024 1977.41 215.806 Q1979.33 217.566 1979.33 220.737 Q1979.33 224.348 1976.46 226.454 Q1973.61 228.561 1968.61 228.561 Q1966.53 228.561 1964.26 228.144 Q1962.02 227.751 1959.52 226.94 L1959.52 222.542 Q1961.88 223.769 1964.17 224.394 Q1966.46 224.996 1968.71 224.996 Q1971.71 224.996 1973.34 223.978 Q1974.96 222.936 1974.96 221.061 Q1974.96 219.325 1973.78 218.399 Q1972.62 217.473 1968.66 216.616 L1967.18 216.269 Q1963.22 215.436 1961.46 213.723 Q1959.7 211.987 1959.7 208.978 Q1959.7 205.32 1962.29 203.33 Q1964.89 201.339 1969.65 201.339 Q1972.02 201.339 1974.1 201.686 Q1976.18 202.033 1977.94 202.728 Z" fill="#000000" fill-rule="nonzero" fill-opacity="1" /><path clip-path="url(#clip300)" d="M2018.24 205.899 L2018.24 191.871 L2022.5 191.871 L2022.5 227.89 L2018.24 227.89 L2018.24 224.001 Q2016.9 226.315 2014.84 227.45 Q2012.8 228.561 2009.93 228.561 Q2005.23 228.561 2002.27 224.811 Q1999.33 221.061 1999.33 214.95 Q1999.33 208.839 2002.27 205.089 Q2005.23 201.339 2009.93 201.339 Q2012.8 201.339 2014.84 202.473 Q2016.9 203.584 2018.24 205.899 M2003.73 214.95 Q2003.73 219.649 2005.65 222.334 Q2007.59 224.996 2010.97 224.996 Q2014.35 224.996 2016.3 222.334 Q2018.24 219.649 2018.24 214.95 Q2018.24 210.251 2016.3 207.589 Q2014.35 204.904 2010.97 204.904 Q2007.59 204.904 2005.65 207.589 Q2003.73 210.251 2003.73 214.95 Z" fill="#000000" fill-rule="nonzero" fill-opacity="1" /><path clip-path="url(#clip300)" d="M2041.32 204.95 Q2037.9 204.95 2035.9 207.635 Q2033.91 210.297 2033.91 214.95 Q2033.91 219.603 2035.88 222.288 Q2037.87 224.95 2041.32 224.95 Q2044.72 224.95 2046.71 222.265 Q2048.71 219.579 2048.71 214.95 Q2048.71 210.343 2046.71 207.658 Q2044.72 204.95 2041.32 204.95 M2041.32 201.339 Q2046.88 201.339 2050.05 204.95 Q2053.22 208.561 2053.22 214.95 Q2053.22 221.316 2050.05 224.95 Q2046.88 228.561 2041.32 228.561 Q2035.74 228.561 2032.57 224.95 Q2029.42 221.316 2029.42 214.95 Q2029.42 208.561 2032.57 204.95 Q2035.74 201.339 2041.32 201.339 Z" fill="#000000" fill-rule="nonzero" fill-opacity="1" /><path clip-path="url(#clip300)" d="M2076.81 202.728 L2076.81 206.755 Q2075 205.829 2073.06 205.367 Q2071.11 204.904 2069.03 204.904 Q2065.86 204.904 2064.26 205.876 Q2062.69 206.848 2062.69 208.792 Q2062.69 210.274 2063.82 211.13 Q2064.96 211.964 2068.38 212.728 L2069.84 213.052 Q2074.38 214.024 2076.27 215.806 Q2078.2 217.566 2078.2 220.737 Q2078.2 224.348 2075.33 226.454 Q2072.48 228.561 2067.48 228.561 Q2065.4 228.561 2063.13 228.144 Q2060.88 227.751 2058.38 226.94 L2058.38 222.542 Q2060.74 223.769 2063.03 224.394 Q2065.33 224.996 2067.57 224.996 Q2070.58 224.996 2072.2 223.978 Q2073.82 222.936 2073.82 221.061 Q2073.82 219.325 2072.64 218.399 Q2071.48 217.473 2067.52 216.616 L2066.04 216.269 Q2062.08 215.436 2060.33 213.723 Q2058.57 211.987 2058.57 208.978 Q2058.57 205.32 2061.16 203.33 Q2063.75 201.339 2068.52 201.339 Q2070.88 201.339 2072.96 201.686 Q2075.05 202.033 2076.81 202.728 Z" fill="#000000" fill-rule="nonzero" fill-opacity="1" /><path clip-path="url(#clip300)" d="M2084.31 191.918 L2088.01 191.918 Q2091.48 197.38 2093.2 202.612 Q2094.93 207.843 2094.93 213.005 Q2094.93 218.191 2093.2 223.445 Q2091.48 228.7 2088.01 234.14 L2084.31 234.14 Q2087.39 228.839 2088.89 223.607 Q2090.42 218.353 2090.42 213.005 Q2090.42 207.658 2088.89 202.45 Q2087.39 197.242 2084.31 191.918 Z" fill="#000000" fill-rule="nonzero" fill-opacity="1" /><path clip-path="url(#clip300)" d="M2122.76 194.603 L2122.76 201.964 L2131.53 201.964 L2131.53 205.274 L2122.76 205.274 L2122.76 219.348 Q2122.76 222.519 2123.61 223.422 Q2124.49 224.325 2127.15 224.325 L2131.53 224.325 L2131.53 227.89 L2127.15 227.89 Q2122.22 227.89 2120.35 226.061 Q2118.47 224.209 2118.47 219.348 L2118.47 205.274 L2115.35 205.274 L2115.35 201.964 L2118.47 201.964 L2118.47 194.603 L2122.76 194.603 Z" fill="#000000" fill-rule="nonzero" fill-opacity="1" /><path clip-path="url(#clip300)" d="M2158.68 212.241 L2158.68 227.89 L2154.42 227.89 L2154.42 212.38 Q2154.42 208.7 2152.99 206.871 Q2151.55 205.042 2148.68 205.042 Q2145.23 205.042 2143.24 207.242 Q2141.25 209.441 2141.25 213.237 L2141.25 227.89 L2136.97 227.89 L2136.97 191.871 L2141.25 191.871 L2141.25 205.992 Q2142.78 203.654 2144.84 202.496 Q2146.92 201.339 2149.63 201.339 Q2154.1 201.339 2156.39 204.117 Q2158.68 206.871 2158.68 212.241 Z" fill="#000000" fill-rule="nonzero" fill-opacity="1" /><path clip-path="url(#clip300)" d="M2189.35 213.862 L2189.35 215.945 L2169.77 215.945 Q2170.05 220.343 2172.41 222.658 Q2174.79 224.95 2179.03 224.95 Q2181.48 224.95 2183.77 224.348 Q2186.09 223.746 2188.36 222.542 L2188.36 226.57 Q2186.07 227.542 2183.66 228.052 Q2181.25 228.561 2178.77 228.561 Q2172.57 228.561 2168.94 224.95 Q2165.33 221.339 2165.33 215.181 Q2165.33 208.816 2168.75 205.089 Q2172.2 201.339 2178.03 201.339 Q2183.26 201.339 2186.3 204.718 Q2189.35 208.075 2189.35 213.862 M2185.09 212.612 Q2185.05 209.117 2183.13 207.033 Q2181.23 204.95 2178.08 204.95 Q2174.51 204.95 2172.36 206.964 Q2170.23 208.978 2169.91 212.635 L2185.09 212.612 Z" fill="#000000" fill-rule="nonzero" fill-opacity="1" /><path clip-path="url(#clip300)" d="M2200.56 194.603 L2200.56 201.964 L2209.33 201.964 L2209.33 205.274 L2200.56 205.274 L2200.56 219.348 Q2200.56 222.519 2201.41 223.422 Q2202.29 224.325 2204.95 224.325 L2209.33 224.325 L2209.33 227.89 L2204.95 227.89 Q2200.02 227.89 2198.15 226.061 Q2196.27 224.209 2196.27 219.348 L2196.27 205.274 L2193.15 205.274 L2193.15 201.964 L2196.27 201.964 L2196.27 194.603 L2200.56 194.603 Z" fill="#000000" fill-rule="nonzero" fill-opacity="1" /><path clip-path="url(#clip300)" d="M2226.71 214.857 Q2221.55 214.857 2219.56 216.038 Q2217.57 217.218 2217.57 220.066 Q2217.57 222.334 2219.05 223.677 Q2220.56 224.996 2223.13 224.996 Q2226.67 224.996 2228.8 222.496 Q2230.95 219.973 2230.95 215.806 L2230.95 214.857 L2226.71 214.857 M2235.21 213.098 L2235.21 227.89 L2230.95 227.89 L2230.95 223.954 Q2229.49 226.315 2227.32 227.45 Q2225.14 228.561 2221.99 228.561 Q2218.01 228.561 2215.65 226.339 Q2213.31 224.093 2213.31 220.343 Q2213.31 215.968 2216.23 213.746 Q2219.17 211.524 2224.98 211.524 L2230.95 211.524 L2230.95 211.107 Q2230.95 208.167 2229.01 206.57 Q2227.08 204.95 2223.59 204.95 Q2221.37 204.95 2219.26 205.482 Q2217.15 206.015 2215.21 207.079 L2215.21 203.144 Q2217.55 202.242 2219.75 201.802 Q2221.95 201.339 2224.03 201.339 Q2229.65 201.339 2232.43 204.255 Q2235.21 207.172 2235.21 213.098 Z" fill="#000000" fill-rule="nonzero" fill-opacity="1" /><path clip-path="url(#clip300)" d="M2260.51 202.728 L2260.51 206.755 Q2258.7 205.829 2256.76 205.367 Q2254.82 204.904 2252.73 204.904 Q2249.56 204.904 2247.96 205.876 Q2246.39 206.848 2246.39 208.792 Q2246.39 210.274 2247.52 211.13 Q2248.66 211.964 2252.08 212.728 L2253.54 213.052 Q2258.08 214.024 2259.98 215.806 Q2261.9 217.566 2261.9 220.737 Q2261.9 224.348 2259.03 226.454 Q2256.18 228.561 2251.18 228.561 Q2249.1 228.561 2246.83 228.144 Q2244.58 227.751 2242.08 226.94 L2242.08 222.542 Q2244.44 223.769 2246.74 224.394 Q2249.03 224.996 2251.27 224.996 Q2254.28 224.996 2255.9 223.978 Q2257.52 222.936 2257.52 221.061 Q2257.52 219.325 2256.34 218.399 Q2255.19 217.473 2251.23 216.616 L2249.75 216.269 Q2245.79 215.436 2244.03 213.723 Q2242.27 211.987 2242.27 208.978 Q2242.27 205.32 2244.86 203.33 Q2247.45 201.339 2252.22 201.339 Q2254.58 201.339 2256.67 201.686 Q2258.75 202.033 2260.51 202.728 Z" fill="#000000" fill-rule="nonzero" fill-opacity="1" /><path clip-path="url(#clip300)" d="M2302.41 202.959 L2302.41 206.941 Q2300.6 205.945 2298.77 205.459 Q2296.97 204.95 2295.12 204.95 Q2290.97 204.95 2288.68 207.589 Q2286.39 210.204 2286.39 214.95 Q2286.39 219.695 2288.68 222.334 Q2290.97 224.95 2295.12 224.95 Q2296.97 224.95 2298.77 224.464 Q2300.6 223.954 2302.41 222.959 L2302.41 226.894 Q2300.63 227.728 2298.7 228.144 Q2296.81 228.561 2294.65 228.561 Q2288.8 228.561 2285.35 224.88 Q2281.9 221.2 2281.9 214.95 Q2281.9 208.607 2285.37 204.973 Q2288.87 201.339 2294.93 201.339 Q2296.9 201.339 2298.77 201.755 Q2300.65 202.149 2302.41 202.959 Z" fill="#000000" fill-rule="nonzero" fill-opacity="1" /><path clip-path="url(#clip300)" d="M2321.6 214.857 Q2316.44 214.857 2314.44 216.038 Q2312.45 217.218 2312.45 220.066 Q2312.45 222.334 2313.94 223.677 Q2315.44 224.996 2318.01 224.996 Q2321.55 224.996 2323.68 222.496 Q2325.83 219.973 2325.83 215.806 L2325.83 214.857 L2321.6 214.857 M2330.09 213.098 L2330.09 227.89 L2325.83 227.89 L2325.83 223.954 Q2324.38 226.315 2322.2 227.45 Q2320.02 228.561 2316.88 228.561 Q2312.89 228.561 2310.53 226.339 Q2308.19 224.093 2308.19 220.343 Q2308.19 215.968 2311.11 213.746 Q2314.05 211.524 2319.86 211.524 L2325.83 211.524 L2325.83 211.107 Q2325.83 208.167 2323.89 206.57 Q2321.97 204.95 2318.47 204.95 Q2316.25 204.95 2314.14 205.482 Q2312.04 206.015 2310.09 207.079 L2310.09 203.144 Q2312.43 202.242 2314.63 201.802 Q2316.83 201.339 2318.91 201.339 Q2324.54 201.339 2327.31 204.255 Q2330.09 207.172 2330.09 213.098 Z" fill="#000000" fill-rule="nonzero" fill-opacity="1" /><path clip-path="url(#clip300)" d="M2338.87 191.871 L2343.13 191.871 L2343.13 227.89 L2338.87 227.89 L2338.87 191.871 Z" fill="#000000" fill-rule="nonzero" fill-opacity="1" /><path clip-path="url(#clip300)" d="M2370.69 202.959 L2370.69 206.941 Q2368.89 205.945 2367.06 205.459 Q2365.25 204.95 2363.4 204.95 Q2359.26 204.95 2356.97 207.589 Q2354.68 210.204 2354.68 214.95 Q2354.68 219.695 2356.97 222.334 Q2359.26 224.95 2363.4 224.95 Q2365.25 224.95 2367.06 224.464 Q2368.89 223.954 2370.69 222.959 L2370.69 226.894 Q2368.91 227.728 2366.99 228.144 Q2365.09 228.561 2362.94 228.561 Q2357.08 228.561 2353.63 224.88 Q2350.19 221.2 2350.19 214.95 Q2350.19 208.607 2353.66 204.973 Q2357.15 201.339 2363.22 201.339 Q2365.19 201.339 2367.06 201.755 Q2368.94 202.149 2370.69 202.959 Z" fill="#000000" fill-rule="nonzero" fill-opacity="1" /><path clip-path="url(#clip300)" d="M2377.66 217.658 L2377.66 201.964 L2381.92 201.964 L2381.92 217.496 Q2381.92 221.177 2383.36 223.028 Q2384.79 224.857 2387.66 224.857 Q2391.11 224.857 2393.1 222.658 Q2395.12 220.459 2395.12 216.663 L2395.12 201.964 L2399.37 201.964 L2399.37 227.89 L2395.12 227.89 L2395.12 223.908 Q2393.56 226.269 2391.5 227.427 Q2389.47 228.561 2386.76 228.561 Q2382.29 228.561 2379.98 225.783 Q2377.66 223.005 2377.66 217.658 M2388.38 201.339 L2388.38 201.339 Z" fill="#000000" fill-rule="nonzero" fill-opacity="1" /><path clip-path="url(#clip300)" d="M2408.15 191.871 L2412.41 191.871 L2412.41 227.89 L2408.15 227.89 L2408.15 191.871 Z" fill="#000000" fill-rule="nonzero" fill-opacity="1" /><path clip-path="url(#clip300)" d="M2433.1 214.857 Q2427.94 214.857 2425.95 216.038 Q2423.96 217.218 2423.96 220.066 Q2423.96 222.334 2425.44 223.677 Q2426.94 224.996 2429.51 224.996 Q2433.06 224.996 2435.18 222.496 Q2437.34 219.973 2437.34 215.806 L2437.34 214.857 L2433.1 214.857 M2441.6 213.098 L2441.6 227.89 L2437.34 227.89 L2437.34 223.954 Q2435.88 226.315 2433.7 227.45 Q2431.53 228.561 2428.38 228.561 Q2424.4 228.561 2422.04 226.339 Q2419.7 224.093 2419.7 220.343 Q2419.7 215.968 2422.62 213.746 Q2425.56 211.524 2431.37 211.524 L2437.34 211.524 L2437.34 211.107 Q2437.34 208.167 2435.39 206.57 Q2433.47 204.95 2429.98 204.95 Q2427.75 204.95 2425.65 205.482 Q2423.54 206.015 2421.6 207.079 L2421.6 203.144 Q2423.93 202.242 2426.13 201.802 Q2428.33 201.339 2430.42 201.339 Q2436.04 201.339 2438.82 204.255 Q2441.6 207.172 2441.6 213.098 Z" fill="#000000" fill-rule="nonzero" fill-opacity="1" /><path clip-path="url(#clip300)" d="M2467.43 205.899 L2467.43 191.871 L2471.69 191.871 L2471.69 227.89 L2467.43 227.89 L2467.43 224.001 Q2466.09 226.315 2464.03 227.45 Q2461.99 228.561 2459.12 228.561 Q2454.42 228.561 2451.46 224.811 Q2448.52 221.061 2448.52 214.95 Q2448.52 208.839 2451.46 205.089 Q2454.42 201.339 2459.12 201.339 Q2461.99 201.339 2464.03 202.473 Q2466.09 203.584 2467.43 205.899 M2452.92 214.95 Q2452.92 219.649 2454.84 222.334 Q2456.78 224.996 2460.16 224.996 Q2463.54 224.996 2465.49 222.334 Q2467.43 219.649 2467.43 214.95 Q2467.43 210.251 2465.49 207.589 Q2463.54 204.904 2460.16 204.904 Q2456.78 204.904 2454.84 207.589 Q2452.92 210.251 2452.92 214.95 Z" fill="#000000" fill-rule="nonzero" fill-opacity="1" /><path clip-path="url(#clip300)" d="M2490.51 204.95 Q2487.08 204.95 2485.09 207.635 Q2483.1 210.297 2483.1 214.95 Q2483.1 219.603 2485.07 222.288 Q2487.06 224.95 2490.51 224.95 Q2493.91 224.95 2495.9 222.265 Q2497.89 219.579 2497.89 214.95 Q2497.89 210.343 2495.9 207.658 Q2493.91 204.95 2490.51 204.95 M2490.51 201.339 Q2496.06 201.339 2499.24 204.95 Q2502.41 208.561 2502.41 214.95 Q2502.41 221.316 2499.24 224.95 Q2496.06 228.561 2490.51 228.561 Q2484.93 228.561 2481.76 224.95 Q2478.61 221.316 2478.61 214.95 Q2478.61 208.561 2481.76 204.95 Q2484.93 201.339 2490.51 201.339 Z" fill="#000000" fill-rule="nonzero" fill-opacity="1" /><path clip-path="url(#clip300)" d="M2525.99 202.728 L2525.99 206.755 Q2524.19 205.829 2522.24 205.367 Q2520.3 204.904 2518.22 204.904 Q2515.05 204.904 2513.45 205.876 Q2511.87 206.848 2511.87 208.792 Q2511.87 210.274 2513.01 211.13 Q2514.14 211.964 2517.57 212.728 L2519.03 213.052 Q2523.56 214.024 2525.46 215.806 Q2527.38 217.566 2527.38 220.737 Q2527.38 224.348 2524.51 226.454 Q2521.67 228.561 2516.67 228.561 Q2514.58 228.561 2512.31 228.144 Q2510.07 227.751 2507.57 226.94 L2507.57 222.542 Q2509.93 223.769 2512.22 224.394 Q2514.51 224.996 2516.76 224.996 Q2519.77 224.996 2521.39 223.978 Q2523.01 222.936 2523.01 221.061 Q2523.01 219.325 2521.83 218.399 Q2520.67 217.473 2516.71 216.616 L2515.23 216.269 Q2511.27 215.436 2509.51 213.723 Q2507.75 211.987 2507.75 208.978 Q2507.75 205.32 2510.35 203.33 Q2512.94 201.339 2517.71 201.339 Q2520.07 201.339 2522.15 201.686 Q2524.24 202.033 2525.99 202.728 Z" fill="#000000" fill-rule="nonzero" fill-opacity="1" /></svg>
