<?xml version="1.0" encoding="utf-8"?>
<svg xmlns="http://www.w3.org/2000/svg" xmlns:xlink="http://www.w3.org/1999/xlink" width="672" height="480" viewBox="0 0 2688 1920">
<defs>
  <clipPath id="clip630">
    <rect x="0" y="0" width="2688" height="1920"/>
  </clipPath>
</defs>
<path clip-path="url(#clip630)" d="M0 1920 L2688 1920 L2688 0 L0 0  Z" fill="#ffffff" fill-rule="evenodd" fill-opacity="1"/>
<defs>
  <clipPath id="clip631">
    <rect x="537" y="0" width="1883" height="1883"/>
  </clipPath>
</defs>
<path clip-path="url(#clip630)" d="M181.719 1734.12 L2640.76 1734.12 L2640.76 127.792 L181.719 127.792  Z" fill="#ffffff" fill-rule="evenodd" fill-opacity="1"/>
<defs>
  <clipPath id="clip632">
    <rect x="181" y="127" width="2460" height="1607"/>
  </clipPath>
</defs>
<polyline clip-path="url(#clip632)" style="stroke:#000000; stroke-linecap:round; stroke-linejoin:round; stroke-width:2; stroke-opacity:0.1; fill:none" points="316.971,1734.12 316.971,127.792 "/>
<polyline clip-path="url(#clip632)" style="stroke:#000000; stroke-linecap:round; stroke-linejoin:round; stroke-width:2; stroke-opacity:0.1; fill:none" points="814.365,1734.12 814.365,127.792 "/>
<polyline clip-path="url(#clip632)" style="stroke:#000000; stroke-linecap:round; stroke-linejoin:round; stroke-width:2; stroke-opacity:0.1; fill:none" points="1311.76,1734.12 1311.76,127.792 "/>
<polyline clip-path="url(#clip632)" style="stroke:#000000; stroke-linecap:round; stroke-linejoin:round; stroke-width:2; stroke-opacity:0.1; fill:none" points="1809.15,1734.12 1809.15,127.792 "/>
<polyline clip-path="url(#clip632)" style="stroke:#000000; stroke-linecap:round; stroke-linejoin:round; stroke-width:2; stroke-opacity:0.1; fill:none" points="2306.55,1734.12 2306.55,127.792 "/>
<polyline clip-path="url(#clip632)" style="stroke:#000000; stroke-linecap:round; stroke-linejoin:round; stroke-width:2; stroke-opacity:0.1; fill:none" points="181.719,1734.12 2640.76,1734.12 "/>
<polyline clip-path="url(#clip632)" style="stroke:#000000; stroke-linecap:round; stroke-linejoin:round; stroke-width:2; stroke-opacity:0.1; fill:none" points="181.719,1341.71 2640.76,1341.71 "/>
<polyline clip-path="url(#clip632)" style="stroke:#000000; stroke-linecap:round; stroke-linejoin:round; stroke-width:2; stroke-opacity:0.1; fill:none" points="181.719,949.3 2640.76,949.3 "/>
<polyline clip-path="url(#clip632)" style="stroke:#000000; stroke-linecap:round; stroke-linejoin:round; stroke-width:2; stroke-opacity:0.1; fill:none" points="181.719,556.891 2640.76,556.891 "/>
<polyline clip-path="url(#clip632)" style="stroke:#000000; stroke-linecap:round; stroke-linejoin:round; stroke-width:2; stroke-opacity:0.1; fill:none" points="181.719,164.482 2640.76,164.482 "/>
<polyline clip-path="url(#clip630)" style="stroke:#000000; stroke-linecap:round; stroke-linejoin:round; stroke-width:4; stroke-opacity:1; fill:none" points="181.719,1734.12 2640.76,1734.12 "/>
<polyline clip-path="url(#clip630)" style="stroke:#000000; stroke-linecap:round; stroke-linejoin:round; stroke-width:4; stroke-opacity:1; fill:none" points="316.971,1734.12 316.971,1715.22 "/>
<polyline clip-path="url(#clip630)" style="stroke:#000000; stroke-linecap:round; stroke-linejoin:round; stroke-width:4; stroke-opacity:1; fill:none" points="814.365,1734.12 814.365,1715.22 "/>
<polyline clip-path="url(#clip630)" style="stroke:#000000; stroke-linecap:round; stroke-linejoin:round; stroke-width:4; stroke-opacity:1; fill:none" points="1311.76,1734.12 1311.76,1715.22 "/>
<polyline clip-path="url(#clip630)" style="stroke:#000000; stroke-linecap:round; stroke-linejoin:round; stroke-width:4; stroke-opacity:1; fill:none" points="1809.15,1734.12 1809.15,1715.22 "/>
<polyline clip-path="url(#clip630)" style="stroke:#000000; stroke-linecap:round; stroke-linejoin:round; stroke-width:4; stroke-opacity:1; fill:none" points="2306.55,1734.12 2306.55,1715.22 "/>
<path clip-path="url(#clip630)" d="M279.274 1767.34 Q275.663 1767.34 273.835 1770.9 Q272.029 1774.45 272.029 1781.58 Q272.029 1788.68 273.835 1792.25 Q275.663 1795.79 279.274 1795.79 Q282.909 1795.79 284.714 1792.25 Q286.543 1788.68 286.543 1781.58 Q286.543 1774.45 284.714 1770.9 Q282.909 1767.34 279.274 1767.34 M279.274 1763.64 Q285.084 1763.64 288.14 1768.24 Q291.219 1772.83 291.219 1781.58 Q291.219 1790.3 288.14 1794.91 Q285.084 1799.49 279.274 1799.49 Q273.464 1799.49 270.385 1794.91 Q267.33 1790.3 267.33 1781.58 Q267.33 1772.83 270.385 1768.24 Q273.464 1763.64 279.274 1763.64 Z" fill="#000000" fill-rule="nonzero" fill-opacity="1" /><path clip-path="url(#clip630)" d="M299.436 1792.94 L304.32 1792.94 L304.32 1798.82 L299.436 1798.82 L299.436 1792.94 Z" fill="#000000" fill-rule="nonzero" fill-opacity="1" /><path clip-path="url(#clip630)" d="M324.506 1767.34 Q320.894 1767.34 319.066 1770.9 Q317.26 1774.45 317.26 1781.58 Q317.26 1788.68 319.066 1792.25 Q320.894 1795.79 324.506 1795.79 Q328.14 1795.79 329.945 1792.25 Q331.774 1788.68 331.774 1781.58 Q331.774 1774.45 329.945 1770.9 Q328.14 1767.34 324.506 1767.34 M324.506 1763.64 Q330.316 1763.64 333.371 1768.24 Q336.45 1772.83 336.45 1781.58 Q336.45 1790.3 333.371 1794.91 Q330.316 1799.49 324.506 1799.49 Q318.695 1799.49 315.617 1794.91 Q312.561 1790.3 312.561 1781.58 Q312.561 1772.83 315.617 1768.24 Q318.695 1763.64 324.506 1763.64 Z" fill="#000000" fill-rule="nonzero" fill-opacity="1" /><path clip-path="url(#clip630)" d="M354.667 1767.34 Q351.056 1767.34 349.228 1770.9 Q347.422 1774.45 347.422 1781.58 Q347.422 1788.68 349.228 1792.25 Q351.056 1795.79 354.667 1795.79 Q358.302 1795.79 360.107 1792.25 Q361.936 1788.68 361.936 1781.58 Q361.936 1774.45 360.107 1770.9 Q358.302 1767.34 354.667 1767.34 M354.667 1763.64 Q360.478 1763.64 363.533 1768.24 Q366.612 1772.83 366.612 1781.58 Q366.612 1790.3 363.533 1794.91 Q360.478 1799.49 354.667 1799.49 Q348.857 1799.49 345.779 1794.91 Q342.723 1790.3 342.723 1781.58 Q342.723 1772.83 345.779 1768.24 Q348.857 1763.64 354.667 1763.64 Z" fill="#000000" fill-rule="nonzero" fill-opacity="1" /><path clip-path="url(#clip630)" d="M777.166 1767.34 Q773.555 1767.34 771.726 1770.9 Q769.921 1774.45 769.921 1781.58 Q769.921 1788.68 771.726 1792.25 Q773.555 1795.79 777.166 1795.79 Q780.8 1795.79 782.606 1792.25 Q784.434 1788.68 784.434 1781.58 Q784.434 1774.45 782.606 1770.9 Q780.8 1767.34 777.166 1767.34 M777.166 1763.64 Q782.976 1763.64 786.032 1768.24 Q789.11 1772.83 789.11 1781.58 Q789.11 1790.3 786.032 1794.91 Q782.976 1799.49 777.166 1799.49 Q771.356 1799.49 768.277 1794.91 Q765.222 1790.3 765.222 1781.58 Q765.222 1772.83 768.277 1768.24 Q771.356 1763.64 777.166 1763.64 Z" fill="#000000" fill-rule="nonzero" fill-opacity="1" /><path clip-path="url(#clip630)" d="M797.328 1792.94 L802.212 1792.94 L802.212 1798.82 L797.328 1798.82 L797.328 1792.94 Z" fill="#000000" fill-rule="nonzero" fill-opacity="1" /><path clip-path="url(#clip630)" d="M816.425 1794.89 L832.744 1794.89 L832.744 1798.82 L810.8 1798.82 L810.8 1794.89 Q813.462 1792.13 818.045 1787.5 Q822.652 1782.85 823.832 1781.51 Q826.078 1778.98 826.957 1777.25 Q827.86 1775.49 827.86 1773.8 Q827.86 1771.04 825.916 1769.31 Q823.994 1767.57 820.893 1767.57 Q818.694 1767.57 816.24 1768.34 Q813.809 1769.1 811.032 1770.65 L811.032 1765.93 Q813.856 1764.79 816.309 1764.21 Q818.763 1763.64 820.8 1763.64 Q826.17 1763.64 829.365 1766.32 Q832.559 1769.01 832.559 1773.5 Q832.559 1775.63 831.749 1777.55 Q830.962 1779.45 828.856 1782.04 Q828.277 1782.71 825.175 1785.93 Q822.073 1789.12 816.425 1794.89 Z" fill="#000000" fill-rule="nonzero" fill-opacity="1" /><path clip-path="url(#clip630)" d="M842.605 1764.26 L860.962 1764.26 L860.962 1768.2 L846.888 1768.2 L846.888 1776.67 Q847.906 1776.32 848.925 1776.16 Q849.943 1775.97 850.962 1775.97 Q856.749 1775.97 860.129 1779.15 Q863.508 1782.32 863.508 1787.73 Q863.508 1793.31 860.036 1796.41 Q856.564 1799.49 850.244 1799.49 Q848.068 1799.49 845.8 1799.12 Q843.555 1798.75 841.147 1798.01 L841.147 1793.31 Q843.23 1794.45 845.453 1795 Q847.675 1795.56 850.152 1795.56 Q854.156 1795.56 856.494 1793.45 Q858.832 1791.34 858.832 1787.73 Q858.832 1784.12 856.494 1782.02 Q854.156 1779.91 850.152 1779.91 Q848.277 1779.91 846.402 1780.33 Q844.55 1780.74 842.605 1781.62 L842.605 1764.26 Z" fill="#000000" fill-rule="nonzero" fill-opacity="1" /><path clip-path="url(#clip630)" d="M1274.06 1767.34 Q1270.45 1767.34 1268.62 1770.9 Q1266.82 1774.45 1266.82 1781.58 Q1266.82 1788.68 1268.62 1792.25 Q1270.45 1795.79 1274.06 1795.79 Q1277.7 1795.79 1279.5 1792.25 Q1281.33 1788.68 1281.33 1781.58 Q1281.33 1774.45 1279.5 1770.9 Q1277.7 1767.34 1274.06 1767.34 M1274.06 1763.64 Q1279.87 1763.64 1282.93 1768.24 Q1286.01 1772.83 1286.01 1781.58 Q1286.01 1790.3 1282.93 1794.91 Q1279.87 1799.49 1274.06 1799.49 Q1268.25 1799.49 1265.17 1794.91 Q1262.12 1790.3 1262.12 1781.58 Q1262.12 1772.83 1265.17 1768.24 Q1268.25 1763.64 1274.06 1763.64 Z" fill="#000000" fill-rule="nonzero" fill-opacity="1" /><path clip-path="url(#clip630)" d="M1294.22 1792.94 L1299.11 1792.94 L1299.11 1798.82 L1294.22 1798.82 L1294.22 1792.94 Z" fill="#000000" fill-rule="nonzero" fill-opacity="1" /><path clip-path="url(#clip630)" d="M1309.34 1764.26 L1327.7 1764.26 L1327.7 1768.2 L1313.62 1768.2 L1313.62 1776.67 Q1314.64 1776.32 1315.66 1776.16 Q1316.68 1775.97 1317.7 1775.97 Q1323.48 1775.97 1326.86 1779.15 Q1330.24 1782.32 1330.24 1787.73 Q1330.24 1793.31 1326.77 1796.41 Q1323.3 1799.49 1316.98 1799.49 Q1314.8 1799.49 1312.53 1799.12 Q1310.29 1798.75 1307.88 1798.01 L1307.88 1793.31 Q1309.96 1794.45 1312.19 1795 Q1314.41 1795.56 1316.89 1795.56 Q1320.89 1795.56 1323.23 1793.45 Q1325.57 1791.34 1325.57 1787.73 Q1325.57 1784.12 1323.23 1782.02 Q1320.89 1779.91 1316.89 1779.91 Q1315.01 1779.91 1313.14 1780.33 Q1311.28 1780.74 1309.34 1781.62 L1309.34 1764.26 Z" fill="#000000" fill-rule="nonzero" fill-opacity="1" /><path clip-path="url(#clip630)" d="M1349.46 1767.34 Q1345.84 1767.34 1344.02 1770.9 Q1342.21 1774.45 1342.21 1781.58 Q1342.21 1788.68 1344.02 1792.25 Q1345.84 1795.79 1349.46 1795.79 Q1353.09 1795.79 1354.9 1792.25 Q1356.72 1788.68 1356.72 1781.58 Q1356.72 1774.45 1354.9 1770.9 Q1353.09 1767.34 1349.46 1767.34 M1349.46 1763.64 Q1355.27 1763.64 1358.32 1768.24 Q1361.4 1772.83 1361.4 1781.58 Q1361.4 1790.3 1358.32 1794.91 Q1355.27 1799.49 1349.46 1799.49 Q1343.65 1799.49 1340.57 1794.91 Q1337.51 1790.3 1337.51 1781.58 Q1337.51 1772.83 1340.57 1768.24 Q1343.65 1763.64 1349.46 1763.64 Z" fill="#000000" fill-rule="nonzero" fill-opacity="1" /><path clip-path="url(#clip630)" d="M1771.95 1767.34 Q1768.34 1767.34 1766.51 1770.9 Q1764.71 1774.45 1764.71 1781.58 Q1764.71 1788.68 1766.51 1792.25 Q1768.34 1795.79 1771.95 1795.79 Q1775.59 1795.79 1777.39 1792.25 Q1779.22 1788.68 1779.22 1781.58 Q1779.22 1774.45 1777.39 1770.9 Q1775.59 1767.34 1771.95 1767.34 M1771.95 1763.64 Q1777.76 1763.64 1780.82 1768.24 Q1783.9 1772.83 1783.9 1781.58 Q1783.9 1790.3 1780.82 1794.91 Q1777.76 1799.49 1771.95 1799.49 Q1766.14 1799.49 1763.07 1794.91 Q1760.01 1790.3 1760.01 1781.58 Q1760.01 1772.83 1763.07 1768.24 Q1766.14 1763.64 1771.95 1763.64 Z" fill="#000000" fill-rule="nonzero" fill-opacity="1" /><path clip-path="url(#clip630)" d="M1792.12 1792.94 L1797 1792.94 L1797 1798.82 L1792.12 1798.82 L1792.12 1792.94 Z" fill="#000000" fill-rule="nonzero" fill-opacity="1" /><path clip-path="url(#clip630)" d="M1806 1764.26 L1828.23 1764.26 L1828.23 1766.25 L1815.68 1798.82 L1810.8 1798.82 L1822.6 1768.2 L1806 1768.2 L1806 1764.26 Z" fill="#000000" fill-rule="nonzero" fill-opacity="1" /><path clip-path="url(#clip630)" d="M1837.39 1764.26 L1855.75 1764.26 L1855.75 1768.2 L1841.68 1768.2 L1841.68 1776.67 Q1842.69 1776.32 1843.71 1776.16 Q1844.73 1775.97 1845.75 1775.97 Q1851.54 1775.97 1854.92 1779.15 Q1858.3 1782.32 1858.3 1787.73 Q1858.3 1793.31 1854.82 1796.41 Q1851.35 1799.49 1845.03 1799.49 Q1842.86 1799.49 1840.59 1799.12 Q1838.34 1798.75 1835.94 1798.01 L1835.94 1793.31 Q1838.02 1794.45 1840.24 1795 Q1842.46 1795.56 1844.94 1795.56 Q1848.94 1795.56 1851.28 1793.45 Q1853.62 1791.34 1853.62 1787.73 Q1853.62 1784.12 1851.28 1782.02 Q1848.94 1779.91 1844.94 1779.91 Q1843.06 1779.91 1841.19 1780.33 Q1839.34 1780.74 1837.39 1781.62 L1837.39 1764.26 Z" fill="#000000" fill-rule="nonzero" fill-opacity="1" /><path clip-path="url(#clip630)" d="M2258.62 1794.89 L2266.26 1794.89 L2266.26 1768.52 L2257.95 1770.19 L2257.95 1765.93 L2266.21 1764.26 L2270.89 1764.26 L2270.89 1794.89 L2278.53 1794.89 L2278.53 1798.82 L2258.62 1798.82 L2258.62 1794.89 Z" fill="#000000" fill-rule="nonzero" fill-opacity="1" /><path clip-path="url(#clip630)" d="M2287.97 1792.94 L2292.85 1792.94 L2292.85 1798.82 L2287.97 1798.82 L2287.97 1792.94 Z" fill="#000000" fill-rule="nonzero" fill-opacity="1" /><path clip-path="url(#clip630)" d="M2313.04 1767.34 Q2309.43 1767.34 2307.6 1770.9 Q2305.79 1774.45 2305.79 1781.58 Q2305.79 1788.68 2307.6 1792.25 Q2309.43 1795.79 2313.04 1795.79 Q2316.67 1795.79 2318.48 1792.25 Q2320.31 1788.68 2320.31 1781.58 Q2320.31 1774.45 2318.48 1770.9 Q2316.67 1767.34 2313.04 1767.34 M2313.04 1763.64 Q2318.85 1763.64 2321.91 1768.24 Q2324.98 1772.83 2324.98 1781.58 Q2324.98 1790.3 2321.91 1794.91 Q2318.85 1799.49 2313.04 1799.49 Q2307.23 1799.49 2304.15 1794.91 Q2301.1 1790.3 2301.1 1781.58 Q2301.1 1772.83 2304.15 1768.24 Q2307.23 1763.64 2313.04 1763.64 Z" fill="#000000" fill-rule="nonzero" fill-opacity="1" /><path clip-path="url(#clip630)" d="M2343.2 1767.34 Q2339.59 1767.34 2337.76 1770.9 Q2335.96 1774.45 2335.96 1781.58 Q2335.96 1788.68 2337.76 1792.25 Q2339.59 1795.79 2343.2 1795.79 Q2346.84 1795.79 2348.64 1792.25 Q2350.47 1788.68 2350.47 1781.58 Q2350.47 1774.45 2348.64 1770.9 Q2346.84 1767.34 2343.2 1767.34 M2343.2 1763.64 Q2349.01 1763.64 2352.07 1768.24 Q2355.15 1772.83 2355.15 1781.58 Q2355.15 1790.3 2352.07 1794.91 Q2349.01 1799.49 2343.2 1799.49 Q2337.39 1799.49 2334.31 1794.91 Q2331.26 1790.3 2331.26 1781.58 Q2331.26 1772.83 2334.31 1768.24 Q2337.39 1763.64 2343.2 1763.64 Z" fill="#000000" fill-rule="nonzero" fill-opacity="1" /><path clip-path="url(#clip630)" d="M1359.45 1826.22 Q1359.45 1826.84 1359.32 1827.35 L1357.51 1838.82 Q1357.42 1839.69 1357.22 1840.01 Q1357.06 1840.33 1356.55 1840.33 Q1355.74 1840.33 1355.74 1839.49 Q1355.74 1839.01 1355.94 1838.24 Q1356.48 1834.6 1356.48 1832.96 Q1356.48 1831.86 1356.26 1831.06 Q1356.07 1830.22 1355.74 1829.64 Q1355.45 1829.06 1354.78 1828.67 Q1354.1 1828.29 1353.46 1828.06 Q1352.81 1827.83 1351.65 1827.74 Q1350.49 1827.61 1349.5 1827.58 Q1348.5 1827.54 1346.85 1827.54 Q1343.28 1827.54 1342.7 1827.67 Q1342.09 1827.83 1341.77 1828.32 Q1341.48 1828.77 1341.15 1830.12 L1332.39 1865.13 L1332.14 1866.51 Q1332.14 1867.29 1332.62 1867.54 Q1333.1 1867.8 1334.58 1867.96 Q1336.71 1868.12 1338.8 1868.12 Q1338.87 1868.12 1339 1868.12 Q1339.7 1868.12 1339.99 1868.16 Q1340.28 1868.16 1340.57 1868.22 Q1340.86 1868.28 1340.93 1868.45 Q1341.03 1868.57 1341.03 1868.83 Q1341.03 1869.44 1340.77 1869.77 Q1340.51 1870.06 1340.25 1870.12 Q1340.03 1870.15 1339.58 1870.15 Q1338.67 1870.15 1336.74 1870.09 Q1334.81 1870.02 1333.84 1870.02 L1328.37 1869.96 L1322.76 1870.02 Q1321.89 1870.02 1320.06 1870.09 Q1318.22 1870.15 1317.35 1870.15 Q1316.23 1870.15 1316.23 1869.35 Q1316.23 1868.45 1316.65 1868.28 Q1317.1 1868.12 1319 1868.12 Q1321.67 1868.12 1323.12 1868 Q1324.57 1867.87 1325.34 1867.42 Q1326.15 1866.96 1326.37 1866.51 Q1326.6 1866.03 1326.85 1864.94 L1335.71 1829.73 Q1335.97 1828.96 1335.97 1828.35 Q1335.97 1828.03 1335.87 1827.9 Q1335.81 1827.77 1335.39 1827.67 Q1334.97 1827.54 1334.1 1827.54 L1331.52 1827.54 Q1328.88 1827.54 1327.24 1827.67 Q1325.63 1827.77 1324.08 1828.25 Q1322.57 1828.74 1321.67 1829.41 Q1320.8 1830.09 1319.83 1831.47 Q1318.87 1832.86 1318.16 1834.53 Q1317.48 1836.21 1316.52 1838.95 Q1316.19 1839.85 1316 1840.1 Q1315.84 1840.33 1315.39 1840.33 Q1315.07 1840.33 1314.81 1840.14 Q1314.58 1839.91 1314.58 1839.62 Q1314.91 1838.56 1314.97 1838.43 L1318.93 1826.8 Q1319.25 1825.87 1319.54 1825.71 Q1319.87 1825.52 1321.06 1825.52 L1357.64 1825.52 Q1358.22 1825.52 1358.42 1825.52 Q1358.61 1825.52 1358.93 1825.58 Q1359.25 1825.64 1359.35 1825.81 Q1359.45 1825.97 1359.45 1826.22 Z" fill="#000000" fill-rule="nonzero" fill-opacity="1" /><path clip-path="url(#clip630)" d="M1366.46 1853.66 Q1366.46 1842.52 1370.62 1833.53 Q1372.39 1829.77 1374.87 1826.61 Q1377.35 1823.45 1378.99 1822.07 Q1380.63 1820.68 1381.08 1820.68 Q1381.73 1820.68 1381.76 1821.33 Q1381.76 1821.65 1380.89 1822.46 Q1370.26 1833.28 1370.29 1853.66 Q1370.29 1874.11 1380.63 1884.52 Q1381.76 1885.64 1381.76 1886 Q1381.76 1886.64 1381.08 1886.64 Q1380.63 1886.64 1379.05 1885.32 Q1377.48 1884 1375.03 1880.97 Q1372.58 1877.95 1370.81 1874.24 Q1366.46 1865.26 1366.46 1853.66 Z" fill="#000000" fill-rule="nonzero" fill-opacity="1" /><path clip-path="url(#clip630)" d="M1446.15 1825.84 Q1446.15 1826.42 1445.93 1826.74 Q1445.73 1827.03 1445.51 1827.09 Q1445.28 1827.13 1444.7 1827.16 Q1440.1 1827.38 1436.33 1830.51 Q1435.4 1831.31 1433.05 1833.82 Q1430.73 1836.34 1427.63 1839.69 Q1424.58 1843.04 1422.8 1844.84 L1431.31 1865.19 Q1431.66 1866 1431.79 1866.35 Q1431.95 1866.67 1432.27 1867.09 Q1432.63 1867.51 1432.88 1867.64 Q1433.17 1867.77 1433.79 1867.93 Q1434.43 1868.06 1435.07 1868.09 Q1435.75 1868.09 1436.97 1868.12 Q1437.36 1868.12 1437.52 1868.16 Q1437.72 1868.16 1437.94 1868.35 Q1438.17 1868.51 1438.17 1868.9 Q1438.17 1869.48 1437.91 1869.8 Q1437.68 1870.09 1437.46 1870.12 Q1437.26 1870.15 1436.91 1870.15 Q1436.07 1870.15 1433.24 1870.06 Q1430.4 1869.96 1429.6 1869.96 L1421.29 1870.15 Q1420.29 1870.15 1420.29 1869.35 Q1420.29 1868.93 1420.36 1868.7 Q1420.45 1868.45 1420.68 1868.35 Q1420.9 1868.22 1421.06 1868.19 Q1421.23 1868.16 1421.61 1868.12 Q1422.8 1868 1423.71 1867.64 Q1424.64 1867.25 1425.03 1866.87 Q1425.44 1866.48 1425.44 1866.19 L1425.12 1865.26 L1418.46 1849.51 L1412.5 1855.98 L1405.77 1863.1 Q1404 1865 1404 1866.06 Q1404 1867.83 1406.64 1868.12 Q1407.44 1868.19 1407.44 1868.83 Q1407.44 1869.44 1407.18 1869.77 Q1406.96 1870.06 1406.73 1870.12 Q1406.54 1870.15 1406.25 1870.15 Q1405.06 1870.15 1402.55 1870.06 Q1400.07 1869.96 1398.84 1869.96 Q1397.81 1869.96 1395.72 1870.06 Q1393.63 1870.15 1392.66 1870.15 Q1392.27 1870.15 1392.05 1869.96 Q1391.82 1869.77 1391.82 1869.57 L1391.79 1869.41 Q1391.79 1868.96 1391.85 1868.7 Q1391.95 1868.45 1392.21 1868.32 Q1392.5 1868.19 1392.63 1868.19 Q1392.76 1868.16 1393.24 1868.12 Q1395.98 1867.96 1398.3 1866.9 Q1400.65 1865.84 1402.93 1863.36 Q1403.13 1863.2 1403.35 1863 Q1403.61 1862.81 1403.8 1862.65 L1417.72 1847.67 L1409.92 1829.25 Q1409.57 1828.41 1409.25 1828.06 Q1408.92 1827.67 1407.92 1827.42 Q1406.93 1827.16 1404.99 1827.16 Q1404.45 1827.16 1404.19 1827.13 Q1403.93 1827.09 1403.71 1826.93 Q1403.48 1826.77 1403.48 1826.42 Q1403.48 1825.81 1403.71 1825.52 Q1403.96 1825.19 1404.16 1825.16 Q1404.38 1825.1 1404.67 1825.1 Q1405.48 1825.1 1408.34 1825.19 Q1411.21 1825.29 1412.05 1825.29 Q1413.43 1825.29 1416.2 1825.19 Q1419 1825.1 1420.36 1825.1 Q1421.35 1825.1 1421.35 1825.9 Q1421.35 1826.42 1421.13 1826.71 Q1420.9 1827 1420.68 1827.06 Q1420.45 1827.13 1420.03 1827.16 Q1418.78 1827.29 1417.81 1827.71 Q1416.88 1828.09 1416.49 1828.48 Q1416.14 1828.83 1416.14 1829.06 L1416.46 1829.93 L1422 1843.04 L1432.69 1831.57 Q1433.95 1830.15 1433.95 1829.19 Q1433.95 1827.45 1431.31 1827.16 Q1430.5 1827.03 1430.5 1826.42 Q1430.5 1825.81 1430.76 1825.52 Q1431.02 1825.19 1431.21 1825.16 Q1431.43 1825.1 1431.76 1825.1 Q1432.95 1825.1 1435.4 1825.19 Q1437.88 1825.29 1439.1 1825.29 Q1440.13 1825.29 1442.22 1825.19 Q1444.32 1825.1 1445.28 1825.1 Q1445.67 1825.1 1445.9 1825.29 Q1446.12 1825.45 1446.12 1825.64 L1446.15 1825.84 Z" fill="#000000" fill-rule="nonzero" fill-opacity="1" /><path clip-path="url(#clip630)" d="M1452.66 1888.43 Q1452.66 1887.59 1452.73 1887.34 Q1452.82 1887.09 1453.18 1886.71 L1462.04 1876.84 Q1466.88 1871.38 1466.88 1866.62 Q1466.88 1863.54 1465.26 1861.33 Q1463.66 1859.12 1460.71 1859.12 Q1458.68 1859.12 1456.97 1860.36 Q1455.25 1861.6 1454.46 1863.81 Q1454.6 1863.76 1455.07 1863.76 Q1456.22 1863.76 1456.85 1864.48 Q1457.51 1865.2 1457.51 1866.17 Q1457.51 1867.41 1456.69 1868.02 Q1455.91 1868.61 1455.12 1868.61 Q1454.8 1868.61 1454.37 1868.54 Q1453.97 1868.47 1453.31 1867.84 Q1452.66 1867.19 1452.66 1866.04 Q1452.66 1862.81 1455.09 1860.24 Q1457.55 1857.67 1461.29 1857.67 Q1465.53 1857.67 1468.31 1860.2 Q1471.1 1862.7 1471.1 1866.62 Q1471.1 1868 1470.67 1869.26 Q1470.27 1870.5 1469.7 1871.47 Q1469.16 1872.44 1467.67 1874 Q1466.19 1875.55 1464.99 1876.66 Q1463.8 1877.76 1461.11 1880.11 L1456.22 1884.86 L1464.54 1884.86 Q1468.6 1884.86 1468.91 1884.5 Q1469.36 1883.85 1469.93 1880.4 L1471.1 1880.4 L1469.79 1888.43 L1452.66 1888.43 Z" fill="#000000" fill-rule="nonzero" fill-opacity="1" /><path clip-path="url(#clip630)" d="M1482.56 1886 Q1482.56 1885.68 1483.4 1884.87 Q1494.03 1874.05 1494.03 1853.66 Q1494.03 1833.21 1483.82 1822.87 Q1482.56 1821.68 1482.56 1821.33 Q1482.56 1820.68 1483.21 1820.68 Q1483.66 1820.68 1485.24 1822.01 Q1486.85 1823.33 1489.26 1826.35 Q1491.71 1829.38 1493.51 1833.08 Q1497.86 1842.07 1497.86 1853.66 Q1497.86 1864.81 1493.71 1873.79 Q1491.94 1877.56 1489.46 1880.72 Q1486.98 1883.87 1485.33 1885.26 Q1483.69 1886.64 1483.21 1886.64 Q1482.56 1886.64 1482.56 1886 Z" fill="#000000" fill-rule="nonzero" fill-opacity="1" /><polyline clip-path="url(#clip630)" style="stroke:#000000; stroke-linecap:round; stroke-linejoin:round; stroke-width:4; stroke-opacity:1; fill:none" points="181.719,1734.12 181.719,127.792 "/>
<polyline clip-path="url(#clip630)" style="stroke:#000000; stroke-linecap:round; stroke-linejoin:round; stroke-width:4; stroke-opacity:1; fill:none" points="181.719,1734.12 200.617,1734.12 "/>
<polyline clip-path="url(#clip630)" style="stroke:#000000; stroke-linecap:round; stroke-linejoin:round; stroke-width:4; stroke-opacity:1; fill:none" points="181.719,1341.71 200.617,1341.71 "/>
<polyline clip-path="url(#clip630)" style="stroke:#000000; stroke-linecap:round; stroke-linejoin:round; stroke-width:4; stroke-opacity:1; fill:none" points="181.719,949.3 200.617,949.3 "/>
<polyline clip-path="url(#clip630)" style="stroke:#000000; stroke-linecap:round; stroke-linejoin:round; stroke-width:4; stroke-opacity:1; fill:none" points="181.719,556.891 200.617,556.891 "/>
<polyline clip-path="url(#clip630)" style="stroke:#000000; stroke-linecap:round; stroke-linejoin:round; stroke-width:4; stroke-opacity:1; fill:none" points="181.719,164.482 200.617,164.482 "/>
<path clip-path="url(#clip630)" d="M129.455 1719.92 Q125.844 1719.92 124.015 1723.48 Q122.21 1727.02 122.21 1734.15 Q122.21 1741.26 124.015 1744.82 Q125.844 1748.36 129.455 1748.36 Q133.089 1748.36 134.895 1744.82 Q136.724 1741.26 136.724 1734.15 Q136.724 1727.02 134.895 1723.48 Q133.089 1719.92 129.455 1719.92 M129.455 1716.21 Q135.265 1716.21 138.321 1720.82 Q141.399 1725.4 141.399 1734.15 Q141.399 1742.88 138.321 1747.48 Q135.265 1752.07 129.455 1752.07 Q123.645 1752.07 120.566 1747.48 Q117.511 1742.88 117.511 1734.15 Q117.511 1725.4 120.566 1720.82 Q123.645 1716.21 129.455 1716.21 Z" fill="#000000" fill-rule="nonzero" fill-opacity="1" /><path clip-path="url(#clip630)" d="M125.08 1355.05 L141.399 1355.05 L141.399 1358.99 L119.455 1358.99 L119.455 1355.05 Q122.117 1352.3 126.7 1347.67 Q131.307 1343.02 132.488 1341.67 Q134.733 1339.15 135.612 1337.41 Q136.515 1335.66 136.515 1333.97 Q136.515 1331.21 134.571 1329.47 Q132.65 1327.74 129.548 1327.74 Q127.349 1327.74 124.895 1328.5 Q122.464 1329.27 119.687 1330.82 L119.687 1326.09 Q122.511 1324.96 124.964 1324.38 Q127.418 1323.8 129.455 1323.8 Q134.825 1323.8 138.02 1326.49 Q141.214 1329.17 141.214 1333.66 Q141.214 1335.79 140.404 1337.72 Q139.617 1339.61 137.511 1342.21 Q136.932 1342.88 133.83 1346.09 Q130.728 1349.29 125.08 1355.05 Z" fill="#000000" fill-rule="nonzero" fill-opacity="1" /><path clip-path="url(#clip630)" d="M131.816 936.094 L120.011 954.543 L131.816 954.543 L131.816 936.094 M130.589 932.02 L136.469 932.02 L136.469 954.543 L141.399 954.543 L141.399 958.432 L136.469 958.432 L136.469 966.58 L131.816 966.58 L131.816 958.432 L116.214 958.432 L116.214 953.918 L130.589 932.02 Z" fill="#000000" fill-rule="nonzero" fill-opacity="1" /><path clip-path="url(#clip630)" d="M129.872 555.028 Q126.724 555.028 124.872 557.18 Q123.043 559.333 123.043 563.083 Q123.043 566.81 124.872 568.986 Q126.724 571.139 129.872 571.139 Q133.02 571.139 134.849 568.986 Q136.7 566.81 136.7 563.083 Q136.7 559.333 134.849 557.18 Q133.02 555.028 129.872 555.028 M139.154 540.375 L139.154 544.634 Q137.395 543.801 135.589 543.361 Q133.807 542.921 132.048 542.921 Q127.418 542.921 124.964 546.046 Q122.534 549.171 122.187 555.491 Q123.552 553.477 125.613 552.412 Q127.673 551.324 130.15 551.324 Q135.358 551.324 138.367 554.495 Q141.399 557.643 141.399 563.083 Q141.399 568.407 138.251 571.625 Q135.103 574.842 129.872 574.842 Q123.876 574.842 120.705 570.259 Q117.534 565.653 117.534 556.926 Q117.534 548.731 121.423 543.87 Q125.312 538.986 131.863 538.986 Q133.622 538.986 135.404 539.333 Q137.21 539.68 139.154 540.375 Z" fill="#000000" fill-rule="nonzero" fill-opacity="1" /><path clip-path="url(#clip630)" d="M129.548 165.35 Q126.214 165.35 124.293 167.133 Q122.395 168.915 122.395 172.04 Q122.395 175.165 124.293 176.948 Q126.214 178.73 129.548 178.73 Q132.881 178.73 134.802 176.948 Q136.724 175.142 136.724 172.04 Q136.724 168.915 134.802 167.133 Q132.904 165.35 129.548 165.35 M124.872 163.36 Q121.863 162.619 120.173 160.559 Q118.506 158.499 118.506 155.536 Q118.506 151.392 121.446 148.985 Q124.409 146.577 129.548 146.577 Q134.71 146.577 137.65 148.985 Q140.589 151.392 140.589 155.536 Q140.589 158.499 138.9 160.559 Q137.233 162.619 134.247 163.36 Q137.626 164.147 139.501 166.438 Q141.399 168.73 141.399 172.04 Q141.399 177.063 138.321 179.748 Q135.265 182.434 129.548 182.434 Q123.83 182.434 120.751 179.748 Q117.696 177.063 117.696 172.04 Q117.696 168.73 119.594 166.438 Q121.492 164.147 124.872 163.36 M123.159 155.975 Q123.159 158.661 124.826 160.165 Q126.515 161.67 129.548 161.67 Q132.557 161.67 134.247 160.165 Q135.96 158.661 135.96 155.975 Q135.96 153.29 134.247 151.786 Q132.557 150.281 129.548 150.281 Q126.515 150.281 124.826 151.786 Q123.159 153.29 123.159 155.975 Z" fill="#000000" fill-rule="nonzero" fill-opacity="1" /><path clip-path="url(#clip630)" d="M14.1184 1102.91 L14.1184 1075.6 L19.5293 1075.6 L19.5293 1096.48 L33.5338 1096.48 L33.5338 1077.64 L38.9447 1077.64 L38.9447 1096.48 L61.6384 1096.48 L61.6384 1102.91 L14.1184 1102.91 Z" fill="#000000" fill-rule="nonzero" fill-opacity="1" /><path clip-path="url(#clip630)" d="M31.465 1049.75 Q30.8921 1050.74 30.6375 1051.92 Q30.351 1053.06 30.351 1054.47 Q30.351 1059.43 33.5975 1062.1 Q36.8122 1064.75 42.8596 1064.75 L61.6384 1064.75 L61.6384 1070.63 L25.9905 1070.63 L25.9905 1064.75 L31.5287 1064.75 Q28.2821 1062.9 26.7225 1059.94 Q25.1311 1056.98 25.1311 1052.75 Q25.1311 1052.14 25.2266 1051.41 Q25.2903 1050.68 25.4494 1049.79 L31.465 1049.75 Z" fill="#000000" fill-rule="nonzero" fill-opacity="1" /><path clip-path="url(#clip630)" d="M42.3504 1014.55 L45.2149 1014.55 L45.2149 1041.48 Q51.2623 1041.1 54.4452 1037.85 Q57.5962 1034.57 57.5962 1028.75 Q57.5962 1025.37 56.7687 1022.22 Q55.9411 1019.04 54.2861 1015.92 L59.8242 1015.92 Q61.161 1019.07 61.8612 1022.38 Q62.5615 1025.69 62.5615 1029.1 Q62.5615 1037.63 57.5962 1042.62 Q52.631 1047.59 44.1646 1047.59 Q35.4117 1047.59 30.2873 1042.88 Q25.1311 1038.14 25.1311 1030.12 Q25.1311 1022.92 29.7781 1018.75 Q34.3932 1014.55 42.3504 1014.55 M40.6316 1020.41 Q35.8255 1020.47 32.9609 1023.11 Q30.0964 1025.72 30.0964 1030.05 Q30.0964 1034.95 32.8654 1037.91 Q35.6345 1040.84 40.6634 1041.29 L40.6316 1020.41 Z" fill="#000000" fill-rule="nonzero" fill-opacity="1" /><path clip-path="url(#clip630)" d="M43.8463 1001.44 Q50.3075 1001.44 53.9996 998.797 Q57.6599 996.123 57.6599 991.477 Q57.6599 986.83 53.9996 984.156 Q50.3075 981.482 43.8463 981.482 Q37.3851 981.482 33.7248 984.156 Q30.0327 986.83 30.0327 991.477 Q30.0327 996.123 33.7248 998.797 Q37.3851 1001.44 43.8463 1001.44 M56.2912 981.482 Q59.4741 983.328 61.0337 986.161 Q62.5615 988.962 62.5615 992.909 Q62.5615 999.37 57.4052 1003.44 Q52.249 1007.49 43.8463 1007.49 Q35.4436 1007.49 30.2873 1003.44 Q25.1311 999.37 25.1311 992.909 Q25.1311 988.962 26.6907 986.161 Q28.2185 983.328 31.4013 981.482 L25.9905 981.482 L25.9905 975.626 L75.1974 975.626 L75.1974 981.482 L56.2912 981.482 Z" fill="#000000" fill-rule="nonzero" fill-opacity="1" /><path clip-path="url(#clip630)" d="M47.5702 964.168 L25.9905 964.168 L25.9905 958.311 L47.3474 958.311 Q52.4082 958.311 54.9545 956.338 Q57.4689 954.364 57.4689 950.418 Q57.4689 945.675 54.4452 942.938 Q51.4215 940.169 46.2016 940.169 L25.9905 940.169 L25.9905 934.312 L61.6384 934.312 L61.6384 940.169 L56.1639 940.169 Q59.4104 942.301 61.0019 945.134 Q62.5615 947.935 62.5615 951.659 Q62.5615 957.802 58.742 960.985 Q54.9226 964.168 47.5702 964.168 M25.1311 949.431 L25.1311 949.431 Z" fill="#000000" fill-rule="nonzero" fill-opacity="1" /><path clip-path="url(#clip630)" d="M42.3504 891.758 L45.2149 891.758 L45.2149 918.685 Q51.2623 918.303 54.4452 915.056 Q57.5962 911.778 57.5962 905.953 Q57.5962 902.579 56.7687 899.428 Q55.9411 896.246 54.2861 893.126 L59.8242 893.126 Q61.161 896.277 61.8612 899.588 Q62.5615 902.898 62.5615 906.303 Q62.5615 914.833 57.5962 919.83 Q52.631 924.796 44.1646 924.796 Q35.4117 924.796 30.2873 920.085 Q25.1311 915.343 25.1311 907.322 Q25.1311 900.129 29.7781 895.959 Q34.3932 891.758 42.3504 891.758 M40.6316 897.614 Q35.8255 897.678 32.9609 900.32 Q30.0964 902.93 30.0964 907.258 Q30.0964 912.16 32.8654 915.12 Q35.6345 918.048 40.6634 918.494 L40.6316 897.614 M9.50331 910.027 L9.50331 905.317 L21.4708 897.519 L21.4708 901.943 L13.6728 907.672 L21.4708 913.401 L21.4708 917.825 L9.50331 910.027 Z" fill="#000000" fill-rule="nonzero" fill-opacity="1" /><path clip-path="url(#clip630)" d="M40.1224 852.513 L61.6384 852.513 L61.6384 858.37 L40.3133 858.37 Q35.2526 858.37 32.7381 860.343 Q30.2237 862.316 30.2237 866.263 Q30.2237 871.006 33.2474 873.743 Q36.2711 876.48 41.491 876.48 L61.6384 876.48 L61.6384 882.368 L25.9905 882.368 L25.9905 876.48 L31.5287 876.48 Q28.314 874.379 26.7225 871.547 Q25.1311 868.682 25.1311 864.958 Q25.1311 858.815 28.9505 855.664 Q32.7381 852.513 40.1224 852.513 Z" fill="#000000" fill-rule="nonzero" fill-opacity="1" /><path clip-path="url(#clip630)" d="M27.3591 815.178 L32.8336 815.178 Q31.465 817.661 30.7966 820.175 Q30.0964 822.658 30.0964 825.204 Q30.0964 830.902 33.7248 834.053 Q37.3214 837.204 43.8463 837.204 Q50.3711 837.204 53.9996 834.053 Q57.5962 830.902 57.5962 825.204 Q57.5962 822.658 56.9278 820.175 Q56.2276 817.661 54.859 815.178 L60.2698 815.178 Q61.4156 817.629 61.9886 820.271 Q62.5615 822.881 62.5615 825.841 Q62.5615 833.893 57.5007 838.636 Q52.44 843.378 43.8463 843.378 Q35.1253 843.378 30.1282 838.604 Q25.1311 833.798 25.1311 825.459 Q25.1311 822.753 25.704 820.175 Q26.2451 817.597 27.3591 815.178 Z" fill="#000000" fill-rule="nonzero" fill-opacity="1" /><path clip-path="url(#clip630)" d="M25.9905 804.993 L25.9905 799.137 L61.6384 799.137 L61.6384 804.993 L25.9905 804.993 M12.1132 804.993 L12.1132 799.137 L19.5293 799.137 L19.5293 804.993 L12.1132 804.993 Z" fill="#000000" fill-rule="nonzero" fill-opacity="1" /><path clip-path="url(#clip630)" d="M43.719 770.682 Q43.719 777.78 45.3422 780.517 Q46.9655 783.254 50.8804 783.254 Q53.9996 783.254 55.8457 781.217 Q57.6599 779.148 57.6599 775.615 Q57.6599 770.746 54.2224 767.817 Q50.7531 764.857 45.0239 764.857 L43.719 764.857 L43.719 770.682 M41.3 759.001 L61.6384 759.001 L61.6384 764.857 L56.2276 764.857 Q59.4741 766.863 61.0337 769.854 Q62.5615 772.846 62.5615 777.175 Q62.5615 782.65 59.5059 785.896 Q56.4186 789.111 51.2623 789.111 Q45.2467 789.111 42.1912 785.1 Q39.1357 781.058 39.1357 773.069 L39.1357 764.857 L38.5628 764.857 Q34.5205 764.857 32.3244 767.531 Q30.0964 770.173 30.0964 774.979 Q30.0964 778.034 30.8284 780.931 Q31.5605 783.827 33.0246 786.501 L27.6137 786.501 Q26.3724 783.286 25.7677 780.262 Q25.1311 777.239 25.1311 774.374 Q25.1311 766.64 29.1415 762.82 Q33.1519 759.001 41.3 759.001 Z" fill="#000000" fill-rule="nonzero" fill-opacity="1" /><path clip-path="url(#clip630)" d="M973.469 13.5005 L981.652 13.5005 L981.652 38.2921 L1011.39 38.2921 L1011.39 13.5005 L1019.57 13.5005 L1019.57 73.9805 L1011.39 73.9805 L1011.39 45.1786 L981.652 45.1786 L981.652 73.9805 L973.469 73.9805 L973.469 13.5005 Z" fill="#000000" fill-rule="nonzero" fill-opacity="1" /><path clip-path="url(#clip630)" d="M1035.53 28.6104 L1042.98 28.6104 L1042.98 73.9805 L1035.53 73.9805 L1035.53 28.6104 M1035.53 10.9485 L1042.98 10.9485 L1042.98 20.3871 L1035.53 20.3871 L1035.53 10.9485 Z" fill="#000000" fill-rule="nonzero" fill-opacity="1" /><path clip-path="url(#clip630)" d="M1087.5 29.9472 L1087.5 36.9958 Q1084.34 35.3754 1080.94 34.5653 Q1077.54 33.7551 1073.89 33.7551 Q1068.34 33.7551 1065.55 35.4565 Q1062.79 37.1578 1062.79 40.5606 Q1062.79 43.1532 1064.78 44.652 Q1066.76 46.1103 1072.76 47.4471 L1075.31 48.0143 Q1083.25 49.7156 1086.57 52.8348 Q1089.93 55.9135 1089.93 61.4633 Q1089.93 67.7827 1084.91 71.469 Q1079.93 75.1553 1071.18 75.1553 Q1067.53 75.1553 1063.56 74.4261 Q1059.63 73.7375 1055.26 72.3197 L1055.26 64.623 Q1059.39 66.7699 1063.4 67.8637 Q1067.41 68.9169 1071.34 68.9169 Q1076.61 68.9169 1079.44 67.1345 Q1082.28 65.3116 1082.28 62.0304 Q1082.28 58.9922 1080.21 57.3718 Q1078.19 55.7515 1071.26 54.2526 L1068.67 53.645 Q1061.74 52.1867 1058.66 49.189 Q1055.58 46.1508 1055.58 40.8847 Q1055.58 34.4842 1060.12 31.0005 Q1064.66 27.5167 1073 27.5167 Q1077.13 27.5167 1080.78 28.1243 Q1084.42 28.7319 1087.5 29.9472 Z" fill="#000000" fill-rule="nonzero" fill-opacity="1" /><path clip-path="url(#clip630)" d="M1109.17 15.7285 L1109.17 28.6104 L1124.53 28.6104 L1124.53 34.4032 L1109.17 34.4032 L1109.17 59.0327 Q1109.17 64.5825 1110.67 66.1623 Q1112.21 67.7422 1116.87 67.7422 L1124.53 67.7422 L1124.53 73.9805 L1116.87 73.9805 Q1108.24 73.9805 1104.96 70.7803 Q1101.68 67.5396 1101.68 59.0327 L1101.68 34.4032 L1096.21 34.4032 L1096.21 28.6104 L1101.68 28.6104 L1101.68 15.7285 L1109.17 15.7285 Z" fill="#000000" fill-rule="nonzero" fill-opacity="1" /><path clip-path="url(#clip630)" d="M1151.91 33.8361 Q1145.92 33.8361 1142.43 38.5351 Q1138.95 43.1937 1138.95 51.336 Q1138.95 59.4783 1142.39 64.1774 Q1145.88 68.8359 1151.91 68.8359 Q1157.87 68.8359 1161.35 64.1369 Q1164.83 59.4378 1164.83 51.336 Q1164.83 43.2747 1161.35 38.5756 Q1157.87 33.8361 1151.91 33.8361 M1151.91 27.5167 Q1161.63 27.5167 1167.18 33.8361 Q1172.73 40.1555 1172.73 51.336 Q1172.73 62.476 1167.18 68.8359 Q1161.63 75.1553 1151.91 75.1553 Q1142.15 75.1553 1136.6 68.8359 Q1131.09 62.476 1131.09 51.336 Q1131.09 40.1555 1136.6 33.8361 Q1142.15 27.5167 1151.91 27.5167 Z" fill="#000000" fill-rule="nonzero" fill-opacity="1" /><path clip-path="url(#clip630)" d="M1214.94 50.7689 Q1214.94 42.6671 1211.58 38.2111 Q1208.26 33.7551 1202.22 33.7551 Q1196.23 33.7551 1192.87 38.2111 Q1189.54 42.6671 1189.54 50.7689 Q1189.54 58.8302 1192.87 63.2862 Q1196.23 67.7422 1202.22 67.7422 Q1208.26 67.7422 1211.58 63.2862 Q1214.94 58.8302 1214.94 50.7689 M1222.4 68.3498 Q1222.4 79.9354 1217.25 85.5661 Q1212.11 91.2374 1201.49 91.2374 Q1197.57 91.2374 1194.08 90.6298 Q1190.6 90.0626 1187.32 88.8474 L1187.32 81.5962 Q1190.6 83.3786 1193.8 84.2293 Q1197 85.08 1200.32 85.08 Q1207.65 85.08 1211.3 81.2317 Q1214.94 77.4238 1214.94 69.6866 L1214.94 66.0003 Q1212.63 70.0107 1209.03 71.9956 Q1205.42 73.9805 1200.4 73.9805 Q1192.06 73.9805 1186.95 67.6206 Q1181.85 61.2607 1181.85 50.7689 Q1181.85 40.2365 1186.95 33.8766 Q1192.06 27.5167 1200.4 27.5167 Q1205.42 27.5167 1209.03 29.5016 Q1212.63 31.4866 1214.94 35.497 L1214.94 28.6104 L1222.4 28.6104 L1222.4 68.3498 Z" fill="#000000" fill-rule="nonzero" fill-opacity="1" /><path clip-path="url(#clip630)" d="M1264.04 35.578 Q1262.78 34.8488 1261.29 34.5247 Q1259.83 34.1602 1258.05 34.1602 Q1251.73 34.1602 1248.32 38.2921 Q1244.96 42.3835 1244.96 50.0802 L1244.96 73.9805 L1237.47 73.9805 L1237.47 28.6104 L1244.96 28.6104 L1244.96 35.659 Q1247.31 31.5271 1251.08 29.5421 Q1254.85 27.5167 1260.23 27.5167 Q1261 27.5167 1261.93 27.6382 Q1262.87 27.7192 1264 27.9218 L1264.04 35.578 Z" fill="#000000" fill-rule="nonzero" fill-opacity="1" /><path clip-path="url(#clip630)" d="M1292.48 51.174 Q1283.44 51.174 1279.96 53.2399 Q1276.48 55.3059 1276.48 60.2885 Q1276.48 64.2584 1279.07 66.6079 Q1281.7 68.9169 1286.2 68.9169 Q1292.4 68.9169 1296.12 64.5419 Q1299.89 60.1265 1299.89 52.8348 L1299.89 51.174 L1292.48 51.174 M1307.34 48.0953 L1307.34 73.9805 L1299.89 73.9805 L1299.89 67.094 Q1297.34 71.2259 1293.53 73.2109 Q1289.72 75.1553 1284.21 75.1553 Q1277.25 75.1553 1273.11 71.2664 Q1269.02 67.3371 1269.02 60.7746 Q1269.02 53.1184 1274.13 49.2295 Q1279.27 45.3407 1289.44 45.3407 L1299.89 45.3407 L1299.89 44.6115 Q1299.89 39.4668 1296.49 36.6717 Q1293.13 33.8361 1287.01 33.8361 Q1283.12 33.8361 1279.43 34.7678 Q1275.75 35.6995 1272.35 37.5629 L1272.35 30.6764 Q1276.44 29.0965 1280.28 28.3269 Q1284.13 27.5167 1287.78 27.5167 Q1297.62 27.5167 1302.48 32.6208 Q1307.34 37.725 1307.34 48.0953 Z" fill="#000000" fill-rule="nonzero" fill-opacity="1" /><path clip-path="url(#clip630)" d="M1358.02 37.3199 Q1360.82 32.2967 1364.71 29.9067 Q1368.59 27.5167 1373.86 27.5167 Q1380.95 27.5167 1384.8 32.4993 Q1388.65 37.4414 1388.65 46.5964 L1388.65 73.9805 L1381.15 73.9805 L1381.15 46.8395 Q1381.15 40.3175 1378.84 37.1578 Q1376.53 33.9981 1371.79 33.9981 Q1366 33.9981 1362.64 37.8465 Q1359.28 41.6948 1359.28 48.3383 L1359.28 73.9805 L1351.78 73.9805 L1351.78 46.8395 Q1351.78 40.277 1349.47 37.1578 Q1347.17 33.9981 1342.34 33.9981 Q1336.63 33.9981 1333.27 37.887 Q1329.91 41.7354 1329.91 48.3383 L1329.91 73.9805 L1322.41 73.9805 L1322.41 28.6104 L1329.91 28.6104 L1329.91 35.659 Q1332.46 31.4866 1336.03 29.5016 Q1339.59 27.5167 1344.49 27.5167 Q1349.43 27.5167 1352.88 30.0282 Q1356.36 32.5398 1358.02 37.3199 Z" fill="#000000" fill-rule="nonzero" fill-opacity="1" /><path clip-path="url(#clip630)" d="M1424.13 51.174 Q1415.1 51.174 1411.62 53.2399 Q1408.13 55.3059 1408.13 60.2885 Q1408.13 64.2584 1410.72 66.6079 Q1413.36 68.9169 1417.85 68.9169 Q1424.05 68.9169 1427.78 64.5419 Q1431.55 60.1265 1431.55 52.8348 L1431.55 51.174 L1424.13 51.174 M1439 48.0953 L1439 73.9805 L1431.55 73.9805 L1431.55 67.094 Q1428.99 71.2259 1425.19 73.2109 Q1421.38 75.1553 1415.87 75.1553 Q1408.9 75.1553 1404.77 71.2664 Q1400.68 67.3371 1400.68 60.7746 Q1400.68 53.1184 1405.78 49.2295 Q1410.93 45.3407 1421.09 45.3407 L1431.55 45.3407 L1431.55 44.6115 Q1431.55 39.4668 1428.14 36.6717 Q1424.78 33.8361 1418.66 33.8361 Q1414.77 33.8361 1411.09 34.7678 Q1407.4 35.6995 1404 37.5629 L1404 30.6764 Q1408.09 29.0965 1411.94 28.3269 Q1415.79 27.5167 1419.43 27.5167 Q1429.28 27.5167 1434.14 32.6208 Q1439 37.725 1439 48.0953 Z" fill="#000000" fill-rule="nonzero" fill-opacity="1" /><path clip-path="url(#clip630)" d="M1510.58 35.497 L1510.58 10.9485 L1518.03 10.9485 L1518.03 73.9805 L1510.58 73.9805 L1510.58 67.175 Q1508.23 71.2259 1504.62 73.2109 Q1501.06 75.1553 1496.04 75.1553 Q1487.81 75.1553 1482.63 68.5928 Q1477.48 62.0304 1477.48 51.336 Q1477.48 40.6416 1482.63 34.0791 Q1487.81 27.5167 1496.04 27.5167 Q1501.06 27.5167 1504.62 29.5016 Q1508.23 31.4461 1510.58 35.497 M1485.18 51.336 Q1485.18 59.5593 1488.54 64.2584 Q1491.94 68.9169 1497.86 68.9169 Q1503.77 68.9169 1507.18 64.2584 Q1510.58 59.5593 1510.58 51.336 Q1510.58 43.1127 1507.18 38.4541 Q1503.77 33.7551 1497.86 33.7551 Q1491.94 33.7551 1488.54 38.4541 Q1485.18 43.1127 1485.18 51.336 Z" fill="#000000" fill-rule="nonzero" fill-opacity="1" /><path clip-path="url(#clip630)" d="M1572.19 49.4321 L1572.19 53.0779 L1537.92 53.0779 Q1538.41 60.7746 1542.54 64.8255 Q1546.71 68.8359 1554.13 68.8359 Q1558.42 68.8359 1562.43 67.7827 Q1566.48 66.7294 1570.45 64.623 L1570.45 71.6715 Q1566.44 73.3729 1562.23 74.2641 Q1558.01 75.1553 1553.68 75.1553 Q1542.82 75.1553 1536.46 68.8359 Q1530.14 62.5165 1530.14 51.7411 Q1530.14 40.6011 1536.14 34.0791 Q1542.18 27.5167 1552.38 27.5167 Q1561.54 27.5167 1566.85 33.431 Q1572.19 39.3048 1572.19 49.4321 M1564.74 47.2446 Q1564.66 41.1277 1561.3 37.4819 Q1557.97 33.8361 1552.47 33.8361 Q1546.23 33.8361 1542.46 37.3604 Q1538.73 40.8847 1538.17 47.2851 L1564.74 47.2446 Z" fill="#000000" fill-rule="nonzero" fill-opacity="1" /><path clip-path="url(#clip630)" d="M1660.08 18.0712 Q1660.08 18.85 1659.91 19.5058 L1657.62 34.098 Q1657.5 35.2047 1657.25 35.6146 Q1657.04 36.0245 1656.39 36.0245 Q1655.36 36.0245 1655.36 34.9588 Q1655.36 34.3439 1655.61 33.3602 Q1656.31 28.7284 1656.31 26.6379 Q1656.31 25.2443 1656.02 24.2196 Q1655.77 23.1538 1655.36 22.416 Q1655 21.6782 1654.13 21.1864 Q1653.27 20.6945 1652.45 20.4076 Q1651.63 20.1206 1650.16 19.9977 Q1648.68 19.8337 1647.41 19.7927 Q1646.14 19.7517 1644.05 19.7517 Q1639.5 19.7517 1638.76 19.9157 Q1637.98 20.1206 1637.57 20.7355 Q1637.21 21.3093 1636.8 23.0309 L1625.65 67.5862 L1625.32 69.3488 Q1625.32 70.3325 1625.93 70.6604 Q1626.55 70.9883 1628.43 71.1933 Q1631.14 71.3982 1633.8 71.3982 Q1633.89 71.3982 1634.05 71.3982 Q1634.95 71.3982 1635.32 71.4392 Q1635.69 71.4392 1636.06 71.5212 Q1636.43 71.6032 1636.51 71.8081 Q1636.63 71.9721 1636.63 72.3 Q1636.63 73.0788 1636.3 73.4887 Q1635.98 73.8576 1635.65 73.9396 Q1635.36 73.9805 1634.79 73.9805 Q1633.64 73.9805 1631.18 73.8986 Q1628.72 73.8166 1627.49 73.8166 L1620.52 73.7346 L1613.39 73.8166 Q1612.28 73.8166 1609.95 73.8986 Q1607.61 73.9805 1606.5 73.9805 Q1605.07 73.9805 1605.07 72.9558 Q1605.07 71.8081 1605.6 71.6032 Q1606.18 71.3982 1608.6 71.3982 Q1612 71.3982 1613.84 71.2343 Q1615.69 71.0703 1616.67 70.4965 Q1617.7 69.9226 1617.98 69.3488 Q1618.27 68.7339 1618.6 67.3403 L1629.87 22.539 Q1630.2 21.5553 1630.2 20.7765 Q1630.2 20.3666 1630.07 20.2026 Q1629.99 20.0387 1629.46 19.9157 Q1628.93 19.7517 1627.82 19.7517 L1624.54 19.7517 Q1621.18 19.7517 1619.09 19.9157 Q1617.04 20.0387 1615.07 20.6535 Q1613.15 21.2683 1612 22.1291 Q1610.89 22.9899 1609.66 24.7524 Q1608.43 26.515 1607.53 28.6464 Q1606.67 30.7779 1605.44 34.2619 Q1605.03 35.4096 1604.78 35.7376 Q1604.58 36.0245 1604 36.0245 Q1603.59 36.0245 1603.27 35.7785 Q1602.98 35.4916 1602.98 35.1227 Q1603.39 33.7701 1603.47 33.6061 L1608.51 18.809 Q1608.92 17.6203 1609.29 17.4153 Q1609.7 17.1694 1611.22 17.1694 L1657.78 17.1694 Q1658.52 17.1694 1658.77 17.1694 Q1659.01 17.1694 1659.42 17.2514 Q1659.83 17.3334 1659.95 17.5383 Q1660.08 17.7433 1660.08 18.0712 Z" fill="#000000" fill-rule="nonzero" fill-opacity="1" /><path clip-path="url(#clip630)" d="M1669.01 52.994 Q1669.01 38.8117 1674.29 27.3757 Q1676.55 22.58 1679.7 18.563 Q1682.86 14.5461 1684.95 12.7836 Q1687.04 11.021 1687.61 11.021 Q1688.43 11.021 1688.48 11.8408 Q1688.48 12.2507 1687.37 13.2754 Q1673.84 27.0478 1673.88 52.994 Q1673.88 79.0222 1687.04 92.2618 Q1688.48 93.6964 1688.48 94.1473 Q1688.48 94.9671 1687.61 94.9671 Q1687.04 94.9671 1685.03 93.2865 Q1683.02 91.6059 1679.91 87.7529 Q1676.79 83.9 1674.54 79.1862 Q1669.01 67.7502 1669.01 52.994 Z" fill="#000000" fill-rule="nonzero" fill-opacity="1" /><path clip-path="url(#clip630)" d="M1770.43 17.5793 Q1770.43 18.3171 1770.14 18.727 Q1769.9 19.0959 1769.61 19.1779 Q1769.32 19.2189 1768.59 19.2599 Q1762.72 19.5468 1757.93 23.5227 Q1756.74 24.5475 1753.75 27.7446 Q1750.8 30.9418 1746.86 35.2047 Q1742.97 39.4676 1740.71 41.763 L1751.53 67.6682 Q1751.98 68.6929 1752.15 69.1438 Q1752.35 69.5537 1752.76 70.0866 Q1753.21 70.6194 1753.54 70.7834 Q1753.91 70.9473 1754.69 71.1523 Q1755.51 71.3162 1756.33 71.3572 Q1757.19 71.3572 1758.75 71.3982 Q1759.24 71.3982 1759.44 71.4392 Q1759.69 71.4392 1759.98 71.6852 Q1760.26 71.8901 1760.26 72.382 Q1760.26 73.1198 1759.94 73.5297 Q1759.65 73.8986 1759.36 73.9396 Q1759.12 73.9805 1758.67 73.9805 Q1757.6 73.9805 1753.99 73.8576 Q1750.39 73.7346 1749.36 73.7346 L1738.79 73.9805 Q1737.52 73.9805 1737.52 72.9558 Q1737.52 72.423 1737.6 72.136 Q1737.72 71.8081 1738.01 71.6852 Q1738.29 71.5212 1738.5 71.4802 Q1738.7 71.4392 1739.2 71.3982 Q1740.71 71.2343 1741.86 70.7834 Q1743.05 70.2915 1743.54 69.7996 Q1744.07 69.3078 1744.07 68.9389 L1743.66 67.7502 L1735.18 47.7064 L1727.6 55.9453 L1719.03 65.0039 Q1716.77 67.4223 1716.77 68.7749 Q1716.77 71.0293 1720.14 71.3982 Q1721.16 71.4802 1721.16 72.3 Q1721.16 73.0788 1720.83 73.4887 Q1720.55 73.8576 1720.26 73.9396 Q1720.01 73.9805 1719.64 73.9805 Q1718.13 73.9805 1714.93 73.8576 Q1711.77 73.7346 1710.22 73.7346 Q1708.9 73.7346 1706.24 73.8576 Q1703.58 73.9805 1702.35 73.9805 Q1701.85 73.9805 1701.57 73.7346 Q1701.28 73.4887 1701.28 73.2427 L1701.24 73.0378 Q1701.24 72.4639 1701.32 72.136 Q1701.44 71.8081 1701.77 71.6442 Q1702.14 71.4802 1702.31 71.4802 Q1702.47 71.4392 1703.08 71.3982 Q1706.57 71.1933 1709.52 69.8406 Q1712.51 68.488 1715.42 65.3318 Q1715.67 65.1269 1715.95 64.8809 Q1716.28 64.635 1716.53 64.43 L1734.24 45.37 L1724.32 21.9242 Q1723.87 20.8584 1723.46 20.4076 Q1723.05 19.9157 1721.78 19.5878 Q1720.5 19.2599 1718.05 19.2599 Q1717.35 19.2599 1717.02 19.2189 Q1716.69 19.1779 1716.41 18.9729 Q1716.12 18.768 1716.12 18.3171 Q1716.12 17.5383 1716.41 17.1694 Q1716.73 16.7595 1716.98 16.7185 Q1717.27 16.6365 1717.64 16.6365 Q1718.66 16.6365 1722.31 16.7595 Q1725.96 16.8825 1727.02 16.8825 Q1728.78 16.8825 1732.31 16.7595 Q1735.88 16.6365 1737.6 16.6365 Q1738.87 16.6365 1738.87 17.6613 Q1738.87 18.3171 1738.58 18.686 Q1738.29 19.0549 1738.01 19.1369 Q1737.72 19.2189 1737.19 19.2599 Q1735.59 19.4238 1734.36 19.9567 Q1733.17 20.4486 1732.68 20.9404 Q1732.23 21.3913 1732.23 21.6782 L1732.64 22.7849 L1739.69 39.4676 L1753.3 24.8754 Q1754.89 23.0719 1754.89 21.8422 Q1754.89 19.6288 1751.53 19.2599 Q1750.51 19.0959 1750.51 18.3171 Q1750.51 17.5383 1750.84 17.1694 Q1751.16 16.7595 1751.41 16.7185 Q1751.7 16.6365 1752.11 16.6365 Q1753.62 16.6365 1756.74 16.7595 Q1759.9 16.8825 1761.45 16.8825 Q1762.76 16.8825 1765.43 16.7595 Q1768.09 16.6365 1769.32 16.6365 Q1769.81 16.6365 1770.1 16.8825 Q1770.39 17.0874 1770.39 17.3334 L1770.43 17.5793 Z" fill="#000000" fill-rule="nonzero" fill-opacity="1" /><path clip-path="url(#clip630)" d="M1778.71 97.236 Q1778.71 96.1743 1778.8 95.8587 Q1778.91 95.5431 1779.37 95.0553 L1790.65 82.488 Q1796.82 75.5444 1796.82 69.4903 Q1796.82 65.5594 1794.75 62.7476 Q1792.71 59.9357 1788.96 59.9357 Q1786.37 59.9357 1784.19 61.5138 Q1782.01 63.0919 1781.01 65.9037 Q1781.18 65.8464 1781.78 65.8464 Q1783.25 65.8464 1784.05 66.7645 Q1784.88 67.6827 1784.88 68.9165 Q1784.88 70.4945 1783.85 71.2692 Q1782.84 72.0152 1781.84 72.0152 Q1781.44 72.0152 1780.89 71.9292 Q1780.38 71.8431 1779.54 71.0397 Q1778.71 70.2076 1778.71 68.7443 Q1778.71 64.6413 1781.81 61.3703 Q1784.94 58.0994 1789.7 58.0994 Q1795.1 58.0994 1798.62 61.3129 Q1802.18 64.4978 1802.18 69.4903 Q1802.18 71.2405 1801.64 72.8473 Q1801.12 74.4254 1800.4 75.6592 Q1799.72 76.893 1797.82 78.8728 Q1795.93 80.8525 1794.41 82.2585 Q1792.89 83.6644 1789.47 86.6484 L1783.25 92.7025 L1793.83 92.7025 Q1799 92.7025 1799.4 92.2435 Q1799.97 91.4114 1800.69 87.0214 L1802.18 87.0214 L1800.52 97.236 L1778.71 97.236 Z" fill="#000000" fill-rule="nonzero" fill-opacity="1" /><path clip-path="url(#clip630)" d="M1816.77 94.1473 Q1816.77 93.7374 1817.84 92.7127 Q1831.36 78.9403 1831.36 52.994 Q1831.36 26.9658 1818.37 13.8083 Q1816.77 12.2917 1816.77 11.8408 Q1816.77 11.021 1817.59 11.021 Q1818.17 11.021 1820.17 12.7016 Q1822.22 14.3821 1825.3 18.2351 Q1828.41 22.0881 1830.71 26.8019 Q1836.24 38.2379 1836.24 52.994 Q1836.24 67.1763 1830.95 78.6123 Q1828.7 83.4081 1825.54 87.425 Q1822.39 91.442 1820.3 93.2045 Q1818.21 94.9671 1817.59 94.9671 Q1816.77 94.9671 1816.77 94.1473 Z" fill="#000000" fill-rule="nonzero" fill-opacity="1" /><path clip-path="url(#clip632)" d="M316.971 1378.4 L316.971 1734.12 L515.928 1734.12 L515.928 1378.4 L316.971 1378.4 L316.971 1378.4  Z" fill="#009af9" fill-rule="evenodd" fill-opacity="1"/>
<polyline clip-path="url(#clip632)" style="stroke:#000000; stroke-linecap:round; stroke-linejoin:round; stroke-width:4; stroke-opacity:1; fill:none" points="316.971,1378.4 316.971,1734.12 515.928,1734.12 515.928,1378.4 316.971,1378.4 "/>
<path clip-path="url(#clip632)" d="M515.928 1734.12 L515.928 1734.12 L714.886 1734.12 L714.886 1734.12 L515.928 1734.12 L515.928 1734.12  Z" fill="#009af9" fill-rule="evenodd" fill-opacity="1"/>
<polyline clip-path="url(#clip632)" style="stroke:#000000; stroke-linecap:round; stroke-linejoin:round; stroke-width:4; stroke-opacity:1; fill:none" points="515.928,1734.12 515.928,1734.12 714.886,1734.12 515.928,1734.12 "/>
<path clip-path="url(#clip632)" d="M714.886 1734.12 L714.886 1734.12 L913.844 1734.12 L913.844 1734.12 L714.886 1734.12 L714.886 1734.12  Z" fill="#009af9" fill-rule="evenodd" fill-opacity="1"/>
<polyline clip-path="url(#clip632)" style="stroke:#000000; stroke-linecap:round; stroke-linejoin:round; stroke-width:4; stroke-opacity:1; fill:none" points="714.886,1734.12 714.886,1734.12 913.844,1734.12 714.886,1734.12 "/>
<path clip-path="url(#clip632)" d="M913.844 1734.12 L913.844 1734.12 L1112.8 1734.12 L1112.8 1734.12 L913.844 1734.12 L913.844 1734.12  Z" fill="#009af9" fill-rule="evenodd" fill-opacity="1"/>
<polyline clip-path="url(#clip632)" style="stroke:#000000; stroke-linecap:round; stroke-linejoin:round; stroke-width:4; stroke-opacity:1; fill:none" points="913.844,1734.12 913.844,1734.12 1112.8,1734.12 913.844,1734.12 "/>
<path clip-path="url(#clip632)" d="M1112.8 1734.12 L1112.8 1734.12 L1311.76 1734.12 L1311.76 1734.12 L1112.8 1734.12 L1112.8 1734.12  Z" fill="#009af9" fill-rule="evenodd" fill-opacity="1"/>
<polyline clip-path="url(#clip632)" style="stroke:#000000; stroke-linecap:round; stroke-linejoin:round; stroke-width:4; stroke-opacity:1; fill:none" points="1112.8,1734.12 1112.8,1734.12 1311.76,1734.12 1112.8,1734.12 "/>
<path clip-path="url(#clip632)" d="M1311.76 1734.12 L1311.76 1734.12 L1510.72 1734.12 L1510.72 1734.12 L1311.76 1734.12 L1311.76 1734.12  Z" fill="#009af9" fill-rule="evenodd" fill-opacity="1"/>
<polyline clip-path="url(#clip632)" style="stroke:#000000; stroke-linecap:round; stroke-linejoin:round; stroke-width:4; stroke-opacity:1; fill:none" points="1311.76,1734.12 1311.76,1734.12 1510.72,1734.12 1311.76,1734.12 "/>
<path clip-path="url(#clip632)" d="M1510.72 1734.12 L1510.72 1734.12 L1709.67 1734.12 L1709.67 1734.12 L1510.72 1734.12 L1510.72 1734.12  Z" fill="#009af9" fill-rule="evenodd" fill-opacity="1"/>
<polyline clip-path="url(#clip632)" style="stroke:#000000; stroke-linecap:round; stroke-linejoin:round; stroke-width:4; stroke-opacity:1; fill:none" points="1510.72,1734.12 1510.72,1734.12 1709.67,1734.12 1510.72,1734.12 "/>
<path clip-path="url(#clip632)" d="M1709.67 1734.12 L1709.67 1734.12 L1908.63 1734.12 L1908.63 1734.12 L1709.67 1734.12 L1709.67 1734.12  Z" fill="#009af9" fill-rule="evenodd" fill-opacity="1"/>
<polyline clip-path="url(#clip632)" style="stroke:#000000; stroke-linecap:round; stroke-linejoin:round; stroke-width:4; stroke-opacity:1; fill:none" points="1709.67,1734.12 1709.67,1734.12 1908.63,1734.12 1709.67,1734.12 "/>
<path clip-path="url(#clip632)" d="M1908.63 1734.12 L1908.63 1734.12 L2107.59 1734.12 L2107.59 1734.12 L1908.63 1734.12 L1908.63 1734.12  Z" fill="#009af9" fill-rule="evenodd" fill-opacity="1"/>
<polyline clip-path="url(#clip632)" style="stroke:#000000; stroke-linecap:round; stroke-linejoin:round; stroke-width:4; stroke-opacity:1; fill:none" points="1908.63,1734.12 1908.63,1734.12 2107.59,1734.12 1908.63,1734.12 "/>
<path clip-path="url(#clip632)" d="M2107.59 1734.12 L2107.59 1734.12 L2306.55 1734.12 L2306.55 1734.12 L2107.59 1734.12 L2107.59 1734.12  Z" fill="#009af9" fill-rule="evenodd" fill-opacity="1"/>
<polyline clip-path="url(#clip632)" style="stroke:#000000; stroke-linecap:round; stroke-linejoin:round; stroke-width:4; stroke-opacity:1; fill:none" points="2107.59,1734.12 2107.59,1734.12 2306.55,1734.12 2107.59,1734.12 "/>
<path clip-path="url(#clip632)" d="M2306.55 127.792 L2306.55 1734.12 L2505.5 1734.12 L2505.5 127.792 L2306.55 127.792 L2306.55 127.792  Z" fill="#009af9" fill-rule="evenodd" fill-opacity="1"/>
<polyline clip-path="url(#clip632)" style="stroke:#000000; stroke-linecap:round; stroke-linejoin:round; stroke-width:4; stroke-opacity:1; fill:none" points="2306.55,127.792 2306.55,1734.12 2505.5,1734.12 2505.5,127.792 2306.55,127.792 "/>
<circle clip-path="url(#clip632)" style="fill:#009af9; stroke:none; fill-opacity:0" cx="416.45" cy="1378.4" r="2"/>
<circle clip-path="url(#clip632)" style="fill:#009af9; stroke:none; fill-opacity:0" cx="615.407" cy="1734.12" r="2"/>
<circle clip-path="url(#clip632)" style="fill:#009af9; stroke:none; fill-opacity:0" cx="814.365" cy="1734.12" r="2"/>
<circle clip-path="url(#clip632)" style="fill:#009af9; stroke:none; fill-opacity:0" cx="1013.32" cy="1734.12" r="2"/>
<circle clip-path="url(#clip632)" style="fill:#009af9; stroke:none; fill-opacity:0" cx="1212.28" cy="1734.12" r="2"/>
<circle clip-path="url(#clip632)" style="fill:#009af9; stroke:none; fill-opacity:0" cx="1411.24" cy="1734.12" r="2"/>
<circle clip-path="url(#clip632)" style="fill:#009af9; stroke:none; fill-opacity:0" cx="1610.2" cy="1734.12" r="2"/>
<circle clip-path="url(#clip632)" style="fill:#009af9; stroke:none; fill-opacity:0" cx="1809.15" cy="1734.12" r="2"/>
<circle clip-path="url(#clip632)" style="fill:#009af9; stroke:none; fill-opacity:0" cx="2008.11" cy="1734.12" r="2"/>
<circle clip-path="url(#clip632)" style="fill:#009af9; stroke:none; fill-opacity:0" cx="2207.07" cy="1734.12" r="2"/>
<polyline clip-path="url(#clip632)" style="stroke:#e26f46; stroke-linecap:round; stroke-linejoin:round; stroke-width:4; stroke-opacity:1; fill:none" points="1947.9,3340.44 1947.9,-1478.53 "/>
<polyline clip-path="url(#clip632)" style="stroke:#3da44d; stroke-linecap:round; stroke-linejoin:round; stroke-width:4; stroke-opacity:1; fill:none" points="1945.84,3340.44 1945.84,-1478.53 "/>
<path clip-path="url(#clip630)" d="M263.687 336.856 L643.016 336.856 L643.016 181.336 L263.687 181.336  Z" fill="#ffffff" fill-rule="evenodd" fill-opacity="1"/>
<polyline clip-path="url(#clip630)" style="stroke:#000000; stroke-linecap:round; stroke-linejoin:round; stroke-width:4; stroke-opacity:1; fill:none" points="263.687,336.856 643.016,336.856 643.016,181.336 263.687,181.336 263.687,336.856 "/>
<polyline clip-path="url(#clip630)" style="stroke:#e26f46; stroke-linecap:round; stroke-linejoin:round; stroke-width:4; stroke-opacity:1; fill:none" points="291.01,233.176 454.946,233.176 "/>
<path clip-path="url(#clip630)" d="M500.514 246.253 Q500.702 246.463 500.702 246.674 Q500.702 246.885 500.233 247.494 Q499.788 248.103 498.828 248.923 Q497.868 249.743 496.626 250.516 Q495.385 251.289 493.558 251.804 Q491.731 252.343 489.81 252.343 Q486.367 252.343 484.306 249.883 Q482.268 247.424 482.268 243.653 Q482.268 241.24 483.065 239.109 Q483.861 236.954 485.149 235.432 Q486.461 233.909 488.101 232.808 Q489.764 231.684 491.497 231.145 Q493.23 230.607 494.846 230.607 Q497.212 230.607 498.594 231.801 Q499.976 232.996 499.976 234.682 Q499.976 235.08 499.859 235.572 Q499.765 236.064 499.437 236.837 Q499.133 237.61 498.336 238.383 Q497.54 239.132 496.369 239.624 Q493.769 240.725 489.037 240.725 L486.484 240.725 Q485.735 243.746 485.735 245.714 Q485.735 246.487 485.875 247.283 Q486.016 248.056 486.391 249.04 Q486.789 250.024 487.679 250.656 Q488.592 251.265 489.904 251.265 Q490.326 251.265 490.771 251.242 Q491.239 251.218 492.41 250.961 Q493.605 250.703 494.659 250.258 Q495.713 249.813 497.048 248.853 Q498.406 247.869 499.484 246.534 Q499.859 246.042 500.116 246.042 Q500.327 246.042 500.514 246.253 M498.383 234.682 Q498.383 233.394 497.423 232.527 Q496.486 231.661 494.846 231.661 Q494.331 231.661 493.699 231.778 Q493.066 231.895 492.012 232.387 Q490.982 232.878 490.068 233.698 Q489.155 234.495 488.241 236.064 Q487.328 237.61 486.789 239.671 L488.756 239.671 Q489.436 239.671 489.928 239.671 Q490.419 239.648 491.497 239.554 Q492.598 239.46 493.394 239.296 Q494.19 239.109 495.198 238.734 Q496.205 238.359 496.837 237.867 Q497.493 237.352 497.938 236.532 Q498.383 235.713 498.383 234.682 Z" fill="#000000" fill-rule="nonzero" fill-opacity="1" /><path clip-path="url(#clip630)" d="M527.808 228.6 Q528.005 228.797 528.005 229.076 Q528.005 229.354 527.808 229.551 Q527.611 229.748 527.332 229.748 L506.313 229.748 Q506.034 229.748 505.838 229.551 Q505.641 229.354 505.641 229.076 Q505.641 228.797 505.838 228.6 Q506.034 228.403 506.313 228.403 L527.332 228.403 Q527.611 228.403 527.808 228.6 Z" fill="#000000" fill-rule="nonzero" fill-opacity="1" /><path clip-path="url(#clip630)" d="M531.511 237.47 Q531.511 236.864 531.56 236.683 Q531.625 236.503 531.888 236.224 L538.331 229.043 Q541.856 225.075 541.856 221.616 Q541.856 219.369 540.676 217.763 Q539.512 216.156 537.364 216.156 Q535.888 216.156 534.642 217.058 Q533.396 217.959 532.822 219.566 Q532.921 219.533 533.265 219.533 Q534.101 219.533 534.56 220.058 Q535.036 220.583 535.036 221.288 Q535.036 222.189 534.445 222.632 Q533.872 223.058 533.298 223.058 Q533.068 223.058 532.757 223.009 Q532.462 222.96 531.986 222.501 Q531.511 222.026 531.511 221.189 Q531.511 218.845 533.281 216.976 Q535.068 215.107 537.79 215.107 Q540.873 215.107 542.889 216.943 Q544.922 218.763 544.922 221.616 Q544.922 222.616 544.611 223.534 Q544.316 224.436 543.906 225.141 Q543.512 225.846 542.43 226.977 Q541.348 228.108 540.479 228.912 Q539.61 229.715 537.659 231.42 L534.101 234.88 L540.151 234.88 Q543.102 234.88 543.332 234.617 Q543.66 234.142 544.07 231.633 L544.922 231.633 L543.971 237.47 L531.511 237.47 Z" fill="#000000" fill-rule="nonzero" fill-opacity="1" /><path clip-path="url(#clip630)" d="M562.145 220.681 Q562.145 223.436 561.26 226.534 Q560.391 229.617 559.014 232.109 Q557.636 234.585 555.833 236.224 Q554.029 237.847 552.308 237.847 Q551.209 237.847 550.389 237.241 Q549.586 236.618 549.143 235.585 Q548.701 234.535 548.488 233.388 Q548.274 232.224 548.274 230.961 Q548.274 229.076 548.684 227.026 Q549.094 224.96 549.783 223.091 Q550.471 221.206 551.439 219.501 Q552.406 217.779 553.472 216.533 Q554.554 215.27 555.767 214.533 Q556.981 213.795 558.112 213.795 Q558.932 213.795 559.587 214.156 Q560.26 214.5 560.686 215.107 Q561.112 215.697 561.407 216.402 Q561.719 217.107 561.866 217.927 Q562.014 218.73 562.08 219.402 Q562.145 220.058 562.145 220.681 M559.932 218.599 Q559.932 217.763 559.866 217.14 Q559.801 216.5 559.62 215.861 Q559.44 215.221 559.046 214.877 Q558.669 214.533 558.079 214.533 Q556.357 214.533 554.423 218.058 Q553.8 219.156 553.242 220.648 Q552.685 222.14 552.488 222.845 Q552.291 223.55 551.832 225.288 L558.85 225.288 Q559.932 220.812 559.932 218.599 M558.554 226.354 L551.57 226.354 Q550.488 230.453 550.488 233.011 Q550.488 235.24 550.947 236.175 Q551.422 237.093 552.308 237.093 Q553.324 237.093 554.275 236.077 Q555.226 235.044 556.194 233.175 Q557.472 230.748 558.554 226.354 Z" fill="#000000" fill-rule="nonzero" fill-opacity="1" /><polyline clip-path="url(#clip630)" style="stroke:#3da44d; stroke-linecap:round; stroke-linejoin:round; stroke-width:4; stroke-opacity:1; fill:none" points="291.01,285.016 454.946,285.016 "/>
<path clip-path="url(#clip630)" d="M482.268 267.736 L489.236 267.736 L498.055 291.255 L506.921 267.736 L513.889 267.736 L513.889 302.296 L509.328 302.296 L509.328 271.949 L500.416 295.653 L495.717 295.653 L486.805 271.949 L486.805 302.296 L482.268 302.296 L482.268 267.736 Z" fill="#000000" fill-rule="nonzero" fill-opacity="1" /><path clip-path="url(#clip630)" d="M545.162 288.269 L545.162 290.352 L525.578 290.352 Q525.856 294.75 528.217 297.065 Q530.601 299.356 534.838 299.356 Q537.291 299.356 539.583 298.755 Q541.898 298.153 544.166 296.949 L544.166 300.977 Q541.875 301.949 539.467 302.458 Q537.06 302.968 534.583 302.968 Q528.379 302.968 524.745 299.356 Q521.134 295.745 521.134 289.588 Q521.134 283.222 524.56 279.495 Q528.009 275.746 533.842 275.746 Q539.074 275.746 542.106 279.125 Q545.162 282.482 545.162 288.269 M540.902 287.019 Q540.856 283.523 538.935 281.44 Q537.037 279.357 533.888 279.357 Q530.324 279.357 528.171 281.37 Q526.041 283.384 525.717 287.042 L540.902 287.019 M536.805 264.38 L541.412 264.38 L533.865 273.083 L530.324 273.083 L536.805 264.38 Z" fill="#000000" fill-rule="nonzero" fill-opacity="1" /><path clip-path="url(#clip630)" d="M569.212 280.306 L569.212 266.278 L573.472 266.278 L573.472 302.296 L569.212 302.296 L569.212 298.407 Q567.87 300.722 565.81 301.856 Q563.773 302.968 560.902 302.968 Q556.203 302.968 553.24 299.218 Q550.3 295.468 550.3 289.357 Q550.3 283.245 553.24 279.495 Q556.203 275.746 560.902 275.746 Q563.773 275.746 565.81 276.88 Q567.87 277.991 569.212 280.306 M554.699 289.357 Q554.699 294.056 556.62 296.741 Q558.564 299.403 561.944 299.403 Q565.323 299.403 567.268 296.741 Q569.212 294.056 569.212 289.357 Q569.212 284.657 567.268 281.995 Q565.323 279.31 561.944 279.31 Q558.564 279.31 556.62 281.995 Q554.699 284.657 554.699 289.357 Z" fill="#000000" fill-rule="nonzero" fill-opacity="1" /><path clip-path="url(#clip630)" d="M582.245 276.371 L586.504 276.371 L586.504 302.296 L582.245 302.296 L582.245 276.371 M582.245 266.278 L586.504 266.278 L586.504 271.671 L582.245 271.671 L582.245 266.278 Z" fill="#000000" fill-rule="nonzero" fill-opacity="1" /><path clip-path="url(#clip630)" d="M607.198 289.264 Q602.036 289.264 600.046 290.444 Q598.055 291.625 598.055 294.472 Q598.055 296.741 599.536 298.083 Q601.041 299.403 603.61 299.403 Q607.152 299.403 609.282 296.903 Q611.434 294.38 611.434 290.213 L611.434 289.264 L607.198 289.264 M615.694 287.505 L615.694 302.296 L611.434 302.296 L611.434 298.361 Q609.976 300.722 607.8 301.856 Q605.624 302.968 602.476 302.968 Q598.495 302.968 596.134 300.745 Q593.796 298.5 593.796 294.75 Q593.796 290.375 596.712 288.153 Q599.652 285.931 605.462 285.931 L611.434 285.931 L611.434 285.514 Q611.434 282.574 609.49 280.977 Q607.569 279.357 604.073 279.357 Q601.851 279.357 599.745 279.889 Q597.638 280.421 595.694 281.486 L595.694 277.551 Q598.032 276.648 600.231 276.208 Q602.43 275.746 604.513 275.746 Q610.138 275.746 612.916 278.662 Q615.694 281.579 615.694 287.505 Z" fill="#000000" fill-rule="nonzero" fill-opacity="1" /></svg>
