<?xml version="1.0" encoding="utf-8"?>
<svg xmlns="http://www.w3.org/2000/svg" xmlns:xlink="http://www.w3.org/1999/xlink" width="672" height="480" viewBox="0 0 2688 1920">
<defs>
  <clipPath id="clip190">
    <rect x="0" y="0" width="2688" height="1920"/>
  </clipPath>
</defs>
<path clip-path="url(#clip190)" d="M0 1920 L2688 1920 L2688 0 L0 0  Z" fill="#ffffff" fill-rule="evenodd" fill-opacity="1"/>
<defs>
  <clipPath id="clip191">
    <rect x="537" y="0" width="1883" height="1883"/>
  </clipPath>
</defs>
<path clip-path="url(#clip190)" d="M89.8721 1837.81 L2640.76 1837.81 L2640.76 138.305 L89.8721 138.305  Z" fill="#ffffff" fill-rule="evenodd" fill-opacity="1"/>
<defs>
  <clipPath id="clip192">
    <rect x="89" y="138" width="2552" height="1701"/>
  </clipPath>
</defs>
<polyline clip-path="url(#clip192)" style="stroke:#000000; stroke-linecap:round; stroke-linejoin:round; stroke-width:2; stroke-opacity:0.1; fill:none" points="89.8721,1837.81 89.8721,138.305 "/>
<polyline clip-path="url(#clip192)" style="stroke:#000000; stroke-linecap:round; stroke-linejoin:round; stroke-width:2; stroke-opacity:0.1; fill:none" points="515.019,1837.81 515.019,138.305 "/>
<polyline clip-path="url(#clip192)" style="stroke:#000000; stroke-linecap:round; stroke-linejoin:round; stroke-width:2; stroke-opacity:0.1; fill:none" points="940.167,1837.81 940.167,138.305 "/>
<polyline clip-path="url(#clip192)" style="stroke:#000000; stroke-linecap:round; stroke-linejoin:round; stroke-width:2; stroke-opacity:0.1; fill:none" points="1365.31,1837.81 1365.31,138.305 "/>
<polyline clip-path="url(#clip192)" style="stroke:#000000; stroke-linecap:round; stroke-linejoin:round; stroke-width:2; stroke-opacity:0.1; fill:none" points="1790.46,1837.81 1790.46,138.305 "/>
<polyline clip-path="url(#clip192)" style="stroke:#000000; stroke-linecap:round; stroke-linejoin:round; stroke-width:2; stroke-opacity:0.1; fill:none" points="2215.61,1837.81 2215.61,138.305 "/>
<polyline clip-path="url(#clip192)" style="stroke:#000000; stroke-linecap:round; stroke-linejoin:round; stroke-width:2; stroke-opacity:0.1; fill:none" points="2640.76,1837.81 2640.76,138.305 "/>
<polyline clip-path="url(#clip192)" style="stroke:#000000; stroke-linecap:round; stroke-linejoin:round; stroke-width:2; stroke-opacity:0.1; fill:none" points="89.8721,1789.71 2640.76,1789.71 "/>
<polyline clip-path="url(#clip192)" style="stroke:#000000; stroke-linecap:round; stroke-linejoin:round; stroke-width:2; stroke-opacity:0.1; fill:none" points="89.8721,1359.35 2640.76,1359.35 "/>
<polyline clip-path="url(#clip192)" style="stroke:#000000; stroke-linecap:round; stroke-linejoin:round; stroke-width:2; stroke-opacity:0.1; fill:none" points="89.8721,928.995 2640.76,928.995 "/>
<polyline clip-path="url(#clip192)" style="stroke:#000000; stroke-linecap:round; stroke-linejoin:round; stroke-width:2; stroke-opacity:0.1; fill:none" points="89.8721,498.639 2640.76,498.639 "/>
<polyline clip-path="url(#clip190)" style="stroke:#000000; stroke-linecap:round; stroke-linejoin:round; stroke-width:4; stroke-opacity:1; fill:none" points="89.8721,1837.81 2640.76,1837.81 "/>
<polyline clip-path="url(#clip190)" style="stroke:#000000; stroke-linecap:round; stroke-linejoin:round; stroke-width:4; stroke-opacity:1; fill:none" points="89.8721,1837.81 89.8721,1818.91 "/>
<polyline clip-path="url(#clip190)" style="stroke:#000000; stroke-linecap:round; stroke-linejoin:round; stroke-width:4; stroke-opacity:1; fill:none" points="515.019,1837.81 515.019,1818.91 "/>
<polyline clip-path="url(#clip190)" style="stroke:#000000; stroke-linecap:round; stroke-linejoin:round; stroke-width:4; stroke-opacity:1; fill:none" points="940.167,1837.81 940.167,1818.91 "/>
<polyline clip-path="url(#clip190)" style="stroke:#000000; stroke-linecap:round; stroke-linejoin:round; stroke-width:4; stroke-opacity:1; fill:none" points="1365.31,1837.81 1365.31,1818.91 "/>
<polyline clip-path="url(#clip190)" style="stroke:#000000; stroke-linecap:round; stroke-linejoin:round; stroke-width:4; stroke-opacity:1; fill:none" points="1790.46,1837.81 1790.46,1818.91 "/>
<polyline clip-path="url(#clip190)" style="stroke:#000000; stroke-linecap:round; stroke-linejoin:round; stroke-width:4; stroke-opacity:1; fill:none" points="2215.61,1837.81 2215.61,1818.91 "/>
<polyline clip-path="url(#clip190)" style="stroke:#000000; stroke-linecap:round; stroke-linejoin:round; stroke-width:4; stroke-opacity:1; fill:none" points="2640.76,1837.81 2640.76,1818.91 "/>
<path clip-path="url(#clip190)" d="M89.8721 1871.03 Q86.261 1871.03 84.4323 1874.6 Q82.6268 1878.14 82.6268 1885.27 Q82.6268 1892.37 84.4323 1895.94 Q86.261 1899.48 89.8721 1899.48 Q93.5064 1899.48 95.3119 1895.94 Q97.1406 1892.37 97.1406 1885.27 Q97.1406 1878.14 95.3119 1874.6 Q93.5064 1871.03 89.8721 1871.03 M89.8721 1867.33 Q95.6823 1867.33 98.7378 1871.93 Q101.817 1876.52 101.817 1885.27 Q101.817 1893.99 98.7378 1898.6 Q95.6823 1903.18 89.8721 1903.18 Q84.062 1903.18 80.9833 1898.6 Q77.9277 1893.99 77.9277 1885.27 Q77.9277 1876.52 80.9833 1871.93 Q84.062 1867.33 89.8721 1867.33 Z" fill="#000000" fill-rule="nonzero" fill-opacity="1" /><path clip-path="url(#clip190)" d="M493.793 1898.58 L510.112 1898.58 L510.112 1902.51 L488.168 1902.51 L488.168 1898.58 Q490.83 1895.82 495.413 1891.19 Q500.02 1886.54 501.2 1885.2 Q503.445 1882.67 504.325 1880.94 Q505.228 1879.18 505.228 1877.49 Q505.228 1874.73 503.283 1873 Q501.362 1871.26 498.26 1871.26 Q496.061 1871.26 493.608 1872.03 Q491.177 1872.79 488.399 1874.34 L488.399 1869.62 Q491.223 1868.48 493.677 1867.91 Q496.131 1867.33 498.168 1867.33 Q503.538 1867.33 506.732 1870.01 Q509.927 1872.7 509.927 1877.19 Q509.927 1879.32 509.117 1881.24 Q508.33 1883.14 506.223 1885.73 Q505.644 1886.4 502.543 1889.62 Q499.441 1892.81 493.793 1898.58 Z" fill="#000000" fill-rule="nonzero" fill-opacity="1" /><path clip-path="url(#clip190)" d="M529.927 1871.03 Q526.316 1871.03 524.487 1874.6 Q522.681 1878.14 522.681 1885.27 Q522.681 1892.37 524.487 1895.94 Q526.316 1899.48 529.927 1899.48 Q533.561 1899.48 535.367 1895.94 Q537.195 1892.37 537.195 1885.27 Q537.195 1878.14 535.367 1874.6 Q533.561 1871.03 529.927 1871.03 M529.927 1867.33 Q535.737 1867.33 538.792 1871.93 Q541.871 1876.52 541.871 1885.27 Q541.871 1893.99 538.792 1898.6 Q535.737 1903.18 529.927 1903.18 Q524.117 1903.18 521.038 1898.6 Q517.982 1893.99 517.982 1885.27 Q517.982 1876.52 521.038 1871.93 Q524.117 1867.33 529.927 1867.33 Z" fill="#000000" fill-rule="nonzero" fill-opacity="1" /><path clip-path="url(#clip190)" d="M928.338 1872.03 L916.533 1890.47 L928.338 1890.47 L928.338 1872.03 M927.111 1867.95 L932.991 1867.95 L932.991 1890.47 L937.921 1890.47 L937.921 1894.36 L932.991 1894.36 L932.991 1902.51 L928.338 1902.51 L928.338 1894.36 L912.736 1894.36 L912.736 1889.85 L927.111 1867.95 Z" fill="#000000" fill-rule="nonzero" fill-opacity="1" /><path clip-path="url(#clip190)" d="M955.653 1871.03 Q952.042 1871.03 950.213 1874.6 Q948.407 1878.14 948.407 1885.27 Q948.407 1892.37 950.213 1895.94 Q952.042 1899.48 955.653 1899.48 Q959.287 1899.48 961.093 1895.94 Q962.921 1892.37 962.921 1885.27 Q962.921 1878.14 961.093 1874.6 Q959.287 1871.03 955.653 1871.03 M955.653 1867.33 Q961.463 1867.33 964.518 1871.93 Q967.597 1876.52 967.597 1885.27 Q967.597 1893.99 964.518 1898.6 Q961.463 1903.18 955.653 1903.18 Q949.843 1903.18 946.764 1898.6 Q943.708 1893.99 943.708 1885.27 Q943.708 1876.52 946.764 1871.93 Q949.843 1867.33 955.653 1867.33 Z" fill="#000000" fill-rule="nonzero" fill-opacity="1" /><path clip-path="url(#clip190)" d="M1350.72 1883.37 Q1347.57 1883.37 1345.72 1885.52 Q1343.89 1887.67 1343.89 1891.42 Q1343.89 1895.15 1345.72 1897.33 Q1347.57 1899.48 1350.72 1899.48 Q1353.87 1899.48 1355.7 1897.33 Q1357.55 1895.15 1357.55 1891.42 Q1357.55 1887.67 1355.7 1885.52 Q1353.87 1883.37 1350.72 1883.37 M1360 1868.72 L1360 1872.97 Q1358.24 1872.14 1356.44 1871.7 Q1354.65 1871.26 1352.9 1871.26 Q1348.27 1871.26 1345.81 1874.39 Q1343.38 1877.51 1343.03 1883.83 Q1344.4 1881.82 1346.46 1880.75 Q1348.52 1879.66 1351 1879.66 Q1356.21 1879.66 1359.21 1882.84 Q1362.25 1885.98 1362.25 1891.42 Q1362.25 1896.75 1359.1 1899.97 Q1355.95 1903.18 1350.72 1903.18 Q1344.72 1903.18 1341.55 1898.6 Q1338.38 1893.99 1338.38 1885.27 Q1338.38 1877.07 1342.27 1872.21 Q1346.16 1867.33 1352.71 1867.33 Q1354.47 1867.33 1356.25 1867.67 Q1358.06 1868.02 1360 1868.72 Z" fill="#000000" fill-rule="nonzero" fill-opacity="1" /><path clip-path="url(#clip190)" d="M1380.3 1871.03 Q1376.69 1871.03 1374.86 1874.6 Q1373.06 1878.14 1373.06 1885.27 Q1373.06 1892.37 1374.86 1895.94 Q1376.69 1899.48 1380.3 1899.48 Q1383.94 1899.48 1385.74 1895.94 Q1387.57 1892.37 1387.57 1885.27 Q1387.57 1878.14 1385.74 1874.6 Q1383.94 1871.03 1380.3 1871.03 M1380.3 1867.33 Q1386.11 1867.33 1389.17 1871.93 Q1392.25 1876.52 1392.25 1885.27 Q1392.25 1893.99 1389.17 1898.6 Q1386.11 1903.18 1380.3 1903.18 Q1374.49 1903.18 1371.41 1898.6 Q1368.36 1893.99 1368.36 1885.27 Q1368.36 1876.52 1371.41 1871.93 Q1374.49 1867.33 1380.3 1867.33 Z" fill="#000000" fill-rule="nonzero" fill-opacity="1" /><path clip-path="url(#clip190)" d="M1775.33 1886.1 Q1772 1886.1 1770.08 1887.88 Q1768.18 1889.66 1768.18 1892.79 Q1768.18 1895.91 1770.08 1897.7 Q1772 1899.48 1775.33 1899.48 Q1778.67 1899.48 1780.59 1897.7 Q1782.51 1895.89 1782.51 1892.79 Q1782.51 1889.66 1780.59 1887.88 Q1778.69 1886.1 1775.33 1886.1 M1770.66 1884.11 Q1767.65 1883.37 1765.96 1881.31 Q1764.29 1879.25 1764.29 1876.29 Q1764.29 1872.14 1767.23 1869.73 Q1770.2 1867.33 1775.33 1867.33 Q1780.5 1867.33 1783.44 1869.73 Q1786.38 1872.14 1786.38 1876.29 Q1786.38 1879.25 1784.69 1881.31 Q1783.02 1883.37 1780.03 1884.11 Q1783.41 1884.9 1785.29 1887.19 Q1787.19 1889.48 1787.19 1892.79 Q1787.19 1897.81 1784.11 1900.5 Q1781.05 1903.18 1775.33 1903.18 Q1769.62 1903.18 1766.54 1900.5 Q1763.48 1897.81 1763.48 1892.79 Q1763.48 1889.48 1765.38 1887.19 Q1767.28 1884.9 1770.66 1884.11 M1768.95 1876.72 Q1768.95 1879.41 1770.61 1880.91 Q1772.3 1882.42 1775.33 1882.42 Q1778.34 1882.42 1780.03 1880.91 Q1781.75 1879.41 1781.75 1876.72 Q1781.75 1874.04 1780.03 1872.54 Q1778.34 1871.03 1775.33 1871.03 Q1772.3 1871.03 1770.61 1872.54 Q1768.95 1874.04 1768.95 1876.72 Z" fill="#000000" fill-rule="nonzero" fill-opacity="1" /><path clip-path="url(#clip190)" d="M1805.5 1871.03 Q1801.88 1871.03 1800.06 1874.6 Q1798.25 1878.14 1798.25 1885.27 Q1798.25 1892.37 1800.06 1895.94 Q1801.88 1899.48 1805.5 1899.48 Q1809.13 1899.48 1810.94 1895.94 Q1812.76 1892.37 1812.76 1885.27 Q1812.76 1878.14 1810.94 1874.6 Q1809.13 1871.03 1805.5 1871.03 M1805.5 1867.33 Q1811.31 1867.33 1814.36 1871.93 Q1817.44 1876.52 1817.44 1885.27 Q1817.44 1893.99 1814.36 1898.6 Q1811.31 1903.18 1805.5 1903.18 Q1799.69 1903.18 1796.61 1898.6 Q1793.55 1893.99 1793.55 1885.27 Q1793.55 1876.52 1796.61 1871.93 Q1799.69 1867.33 1805.5 1867.33 Z" fill="#000000" fill-rule="nonzero" fill-opacity="1" /><path clip-path="url(#clip190)" d="M2175.22 1898.58 L2182.85 1898.58 L2182.85 1872.21 L2174.54 1873.88 L2174.54 1869.62 L2182.81 1867.95 L2187.48 1867.95 L2187.48 1898.58 L2195.12 1898.58 L2195.12 1902.51 L2175.22 1902.51 L2175.22 1898.58 Z" fill="#000000" fill-rule="nonzero" fill-opacity="1" /><path clip-path="url(#clip190)" d="M2214.57 1871.03 Q2210.96 1871.03 2209.13 1874.6 Q2207.32 1878.14 2207.32 1885.27 Q2207.32 1892.37 2209.13 1895.94 Q2210.96 1899.48 2214.57 1899.48 Q2218.2 1899.48 2220.01 1895.94 Q2221.84 1892.37 2221.84 1885.27 Q2221.84 1878.14 2220.01 1874.6 Q2218.2 1871.03 2214.57 1871.03 M2214.57 1867.33 Q2220.38 1867.33 2223.43 1871.93 Q2226.51 1876.52 2226.51 1885.27 Q2226.51 1893.99 2223.43 1898.6 Q2220.38 1903.18 2214.57 1903.18 Q2208.76 1903.18 2205.68 1898.6 Q2202.62 1893.99 2202.62 1885.27 Q2202.62 1876.52 2205.68 1871.93 Q2208.76 1867.33 2214.57 1867.33 Z" fill="#000000" fill-rule="nonzero" fill-opacity="1" /><path clip-path="url(#clip190)" d="M2244.73 1871.03 Q2241.12 1871.03 2239.29 1874.6 Q2237.48 1878.14 2237.48 1885.27 Q2237.48 1892.37 2239.29 1895.94 Q2241.12 1899.48 2244.73 1899.48 Q2248.36 1899.48 2250.17 1895.94 Q2252 1892.37 2252 1885.27 Q2252 1878.14 2250.17 1874.6 Q2248.36 1871.03 2244.73 1871.03 M2244.73 1867.33 Q2250.54 1867.33 2253.59 1871.93 Q2256.67 1876.52 2256.67 1885.27 Q2256.67 1893.99 2253.59 1898.6 Q2250.54 1903.18 2244.73 1903.18 Q2238.92 1903.18 2235.84 1898.6 Q2232.78 1893.99 2232.78 1885.27 Q2232.78 1876.52 2235.84 1871.93 Q2238.92 1867.33 2244.73 1867.33 Z" fill="#000000" fill-rule="nonzero" fill-opacity="1" /><path clip-path="url(#clip190)" d="M2600.36 1898.58 L2608 1898.58 L2608 1872.21 L2599.69 1873.88 L2599.69 1869.62 L2607.96 1867.95 L2612.63 1867.95 L2612.63 1898.58 L2620.27 1898.58 L2620.27 1902.51 L2600.36 1902.51 L2600.36 1898.58 Z" fill="#000000" fill-rule="nonzero" fill-opacity="1" /><path clip-path="url(#clip190)" d="M2633.74 1898.58 L2650.06 1898.58 L2650.06 1902.51 L2628.12 1902.51 L2628.12 1898.58 Q2630.78 1895.82 2635.36 1891.19 Q2639.97 1886.54 2641.15 1885.2 Q2643.39 1882.67 2644.27 1880.94 Q2645.18 1879.18 2645.18 1877.49 Q2645.18 1874.73 2643.23 1873 Q2641.31 1871.26 2638.21 1871.26 Q2636.01 1871.26 2633.56 1872.03 Q2631.13 1872.79 2628.35 1874.34 L2628.35 1869.62 Q2631.17 1868.48 2633.63 1867.91 Q2636.08 1867.33 2638.12 1867.33 Q2643.49 1867.33 2646.68 1870.01 Q2649.88 1872.7 2649.88 1877.19 Q2649.88 1879.32 2649.07 1881.24 Q2648.28 1883.14 2646.17 1885.73 Q2645.59 1886.4 2642.49 1889.62 Q2639.39 1892.81 2633.74 1898.58 Z" fill="#000000" fill-rule="nonzero" fill-opacity="1" /><path clip-path="url(#clip190)" d="M2669.88 1871.03 Q2666.27 1871.03 2664.44 1874.6 Q2662.63 1878.14 2662.63 1885.27 Q2662.63 1892.37 2664.44 1895.94 Q2666.27 1899.48 2669.88 1899.48 Q2673.51 1899.48 2675.32 1895.94 Q2677.14 1892.37 2677.14 1885.27 Q2677.14 1878.14 2675.32 1874.6 Q2673.51 1871.03 2669.88 1871.03 M2669.88 1867.33 Q2675.69 1867.33 2678.74 1871.93 Q2681.82 1876.52 2681.82 1885.27 Q2681.82 1893.99 2678.74 1898.6 Q2675.69 1903.18 2669.88 1903.18 Q2664.07 1903.18 2660.99 1898.6 Q2657.93 1893.99 2657.93 1885.27 Q2657.93 1876.52 2660.99 1871.93 Q2664.07 1867.33 2669.88 1867.33 Z" fill="#000000" fill-rule="nonzero" fill-opacity="1" /><polyline clip-path="url(#clip190)" style="stroke:#000000; stroke-linecap:round; stroke-linejoin:round; stroke-width:4; stroke-opacity:1; fill:none" points="89.8721,1837.81 89.8721,138.305 "/>
<polyline clip-path="url(#clip190)" style="stroke:#000000; stroke-linecap:round; stroke-linejoin:round; stroke-width:4; stroke-opacity:1; fill:none" points="89.8721,1789.71 108.77,1789.71 "/>
<polyline clip-path="url(#clip190)" style="stroke:#000000; stroke-linecap:round; stroke-linejoin:round; stroke-width:4; stroke-opacity:1; fill:none" points="89.8721,1359.35 108.77,1359.35 "/>
<polyline clip-path="url(#clip190)" style="stroke:#000000; stroke-linecap:round; stroke-linejoin:round; stroke-width:4; stroke-opacity:1; fill:none" points="89.8721,928.995 108.77,928.995 "/>
<polyline clip-path="url(#clip190)" style="stroke:#000000; stroke-linecap:round; stroke-linejoin:round; stroke-width:4; stroke-opacity:1; fill:none" points="89.8721,498.639 108.77,498.639 "/>
<path clip-path="url(#clip190)" d="M-37.7854 1775.51 Q-41.3965 1775.51 -43.2252 1779.07 Q-45.0307 1782.61 -45.0307 1789.74 Q-45.0307 1796.85 -43.2252 1800.41 Q-41.3965 1803.96 -37.7854 1803.96 Q-34.1511 1803.96 -32.3456 1800.41 Q-30.5169 1796.85 -30.5169 1789.74 Q-30.5169 1782.61 -32.3456 1779.07 Q-34.1511 1775.51 -37.7854 1775.51 M-37.7854 1771.8 Q-31.9752 1771.8 -28.9197 1776.41 Q-25.841 1780.99 -25.841 1789.74 Q-25.841 1798.47 -28.9197 1803.08 Q-31.9752 1807.66 -37.7854 1807.66 Q-43.5955 1807.66 -46.6742 1803.08 Q-49.7297 1798.47 -49.7297 1789.74 Q-49.7297 1780.99 -46.6742 1776.41 Q-43.5955 1771.8 -37.7854 1771.8 Z" fill="#000000" fill-rule="nonzero" fill-opacity="1" /><path clip-path="url(#clip190)" d="M-17.6234 1801.11 L-12.7392 1801.11 L-12.7392 1806.99 L-17.6234 1806.99 L-17.6234 1801.11 Z" fill="#000000" fill-rule="nonzero" fill-opacity="1" /><path clip-path="url(#clip190)" d="M7.44587 1775.51 Q3.83478 1775.51 2.00608 1779.07 Q0.200539 1782.61 0.200539 1789.74 Q0.200539 1796.85 2.00608 1800.41 Q3.83478 1803.96 7.44587 1803.96 Q11.0801 1803.96 12.8857 1800.41 Q14.7143 1796.85 14.7143 1789.74 Q14.7143 1782.61 12.8857 1779.07 Q11.0801 1775.51 7.44587 1775.51 M7.44587 1771.8 Q13.256 1771.8 16.3116 1776.41 Q19.3903 1780.99 19.3903 1789.74 Q19.3903 1798.47 16.3116 1803.08 Q13.256 1807.66 7.44587 1807.66 Q1.63572 1807.66 -1.44297 1803.08 Q-4.49851 1798.47 -4.49851 1789.74 Q-4.49851 1780.99 -1.44297 1776.41 Q1.63572 1771.8 7.44587 1771.8 Z" fill="#000000" fill-rule="nonzero" fill-opacity="1" /><path clip-path="url(#clip190)" d="M37.6077 1775.51 Q33.9967 1775.51 32.168 1779.07 Q30.3624 1782.61 30.3624 1789.74 Q30.3624 1796.85 32.168 1800.41 Q33.9967 1803.96 37.6077 1803.96 Q41.242 1803.96 43.0475 1800.41 Q44.8762 1796.85 44.8762 1789.74 Q44.8762 1782.61 43.0475 1779.07 Q41.242 1775.51 37.6077 1775.51 M37.6077 1771.8 Q43.4179 1771.8 46.4734 1776.41 Q49.5521 1780.99 49.5521 1789.74 Q49.5521 1798.47 46.4734 1803.08 Q43.4179 1807.66 37.6077 1807.66 Q31.7976 1807.66 28.7189 1803.08 Q25.6634 1798.47 25.6634 1789.74 Q25.6634 1780.99 28.7189 1776.41 Q31.7976 1771.8 37.6077 1771.8 Z" fill="#000000" fill-rule="nonzero" fill-opacity="1" /><path clip-path="url(#clip190)" d="M-36.5585 1345.15 Q-40.1696 1345.15 -41.9983 1348.72 Q-43.8039 1352.26 -43.8039 1359.39 Q-43.8039 1366.49 -41.9983 1370.06 Q-40.1696 1373.6 -36.5585 1373.6 Q-32.9243 1373.6 -31.1187 1370.06 Q-29.29 1366.49 -29.29 1359.39 Q-29.29 1352.26 -31.1187 1348.72 Q-32.9243 1345.15 -36.5585 1345.15 M-36.5585 1341.45 Q-30.7484 1341.45 -27.6928 1346.05 Q-24.6141 1350.64 -24.6141 1359.39 Q-24.6141 1368.11 -27.6928 1372.72 Q-30.7484 1377.3 -36.5585 1377.3 Q-42.3687 1377.3 -45.4474 1372.72 Q-48.5029 1368.11 -48.5029 1359.39 Q-48.5029 1350.64 -45.4474 1346.05 Q-42.3687 1341.45 -36.5585 1341.45 Z" fill="#000000" fill-rule="nonzero" fill-opacity="1" /><path clip-path="url(#clip190)" d="M-16.3966 1370.75 L-11.5124 1370.75 L-11.5124 1376.63 L-16.3966 1376.63 L-16.3966 1370.75 Z" fill="#000000" fill-rule="nonzero" fill-opacity="1" /><path clip-path="url(#clip190)" d="M8.67272 1345.15 Q5.06162 1345.15 3.23293 1348.72 Q1.42738 1352.26 1.42738 1359.39 Q1.42738 1366.49 3.23293 1370.06 Q5.06162 1373.6 8.67272 1373.6 Q12.307 1373.6 14.1125 1370.06 Q15.9412 1366.49 15.9412 1359.39 Q15.9412 1352.26 14.1125 1348.72 Q12.307 1345.15 8.67272 1345.15 M8.67272 1341.45 Q14.4829 1341.45 17.5384 1346.05 Q20.6171 1350.64 20.6171 1359.39 Q20.6171 1368.11 17.5384 1372.72 Q14.4829 1377.3 8.67272 1377.3 Q2.86256 1377.3 -0.216126 1372.72 Q-3.27167 1368.11 -3.27167 1359.39 Q-3.27167 1350.64 -0.216126 1346.05 Q2.86256 1341.45 8.67272 1341.45 Z" fill="#000000" fill-rule="nonzero" fill-opacity="1" /><path clip-path="url(#clip190)" d="M29.6448 1372.7 L37.2837 1372.7 L37.2837 1346.33 L28.9735 1348 L28.9735 1343.74 L37.2374 1342.07 L41.9133 1342.07 L41.9133 1372.7 L49.5521 1372.7 L49.5521 1376.63 L29.6448 1376.63 L29.6448 1372.7 Z" fill="#000000" fill-rule="nonzero" fill-opacity="1" /><path clip-path="url(#clip190)" d="M-36.1882 914.794 Q-39.7992 914.794 -41.6279 918.359 Q-43.4335 921.9 -43.4335 929.03 Q-43.4335 936.136 -41.6279 939.701 Q-39.7992 943.243 -36.1882 943.243 Q-32.5539 943.243 -30.7484 939.701 Q-28.9197 936.136 -28.9197 929.03 Q-28.9197 921.9 -30.7484 918.359 Q-32.5539 914.794 -36.1882 914.794 M-36.1882 911.09 Q-30.378 911.09 -27.3225 915.697 Q-24.2438 920.28 -24.2438 929.03 Q-24.2438 937.757 -27.3225 942.363 Q-30.378 946.947 -36.1882 946.947 Q-41.9983 946.947 -45.077 942.363 Q-48.1325 937.757 -48.1325 929.03 Q-48.1325 920.28 -45.077 915.697 Q-41.9983 911.09 -36.1882 911.09 Z" fill="#000000" fill-rule="nonzero" fill-opacity="1" /><path clip-path="url(#clip190)" d="M-16.0262 940.396 L-11.142 940.396 L-11.142 946.275 L-16.0262 946.275 L-16.0262 940.396 Z" fill="#000000" fill-rule="nonzero" fill-opacity="1" /><path clip-path="url(#clip190)" d="M9.04308 914.794 Q5.43199 914.794 3.6033 918.359 Q1.79775 921.9 1.79775 929.03 Q1.79775 936.136 3.6033 939.701 Q5.43199 943.243 9.04308 943.243 Q12.6773 943.243 14.4829 939.701 Q16.3116 936.136 16.3116 929.03 Q16.3116 921.9 14.4829 918.359 Q12.6773 914.794 9.04308 914.794 M9.04308 911.09 Q14.8532 911.09 17.9088 915.697 Q20.9875 920.28 20.9875 929.03 Q20.9875 937.757 17.9088 942.363 Q14.8532 946.947 9.04308 946.947 Q3.23293 946.947 0.154243 942.363 Q-2.9013 937.757 -2.9013 929.03 Q-2.9013 920.28 0.154243 915.697 Q3.23293 911.09 9.04308 911.09 Z" fill="#000000" fill-rule="nonzero" fill-opacity="1" /><path clip-path="url(#clip190)" d="M33.2328 942.34 L49.5521 942.34 L49.5521 946.275 L27.6078 946.275 L27.6078 942.34 Q30.2698 939.586 34.8531 934.956 Q39.4596 930.303 40.6401 928.961 Q42.8855 926.437 43.7651 924.701 Q44.6679 922.942 44.6679 921.252 Q44.6679 918.498 42.7235 916.762 Q40.8022 915.025 37.7003 915.025 Q35.5013 915.025 33.0476 915.789 Q30.617 916.553 27.8393 918.104 L27.8393 913.382 Q30.6633 912.248 33.117 911.669 Q35.5707 911.09 37.6077 911.09 Q42.9781 911.09 46.1725 913.775 Q49.3669 916.461 49.3669 920.951 Q49.3669 923.081 48.5568 925.002 Q47.7697 926.9 45.6633 929.493 Q45.0846 930.164 41.9827 933.382 Q38.8809 936.576 33.2328 942.34 Z" fill="#000000" fill-rule="nonzero" fill-opacity="1" /><path clip-path="url(#clip190)" d="M-37.1372 484.437 Q-40.7483 484.437 -42.577 488.002 Q-44.3826 491.544 -44.3826 498.673 Q-44.3826 505.78 -42.577 509.345 Q-40.7483 512.886 -37.1372 512.886 Q-33.503 512.886 -31.6974 509.345 Q-29.8687 505.78 -29.8687 498.673 Q-29.8687 491.544 -31.6974 488.002 Q-33.503 484.437 -37.1372 484.437 M-37.1372 480.734 Q-31.3271 480.734 -28.2715 485.34 Q-25.1928 489.923 -25.1928 498.673 Q-25.1928 507.4 -28.2715 512.007 Q-31.3271 516.59 -37.1372 516.59 Q-42.9474 516.59 -46.0261 512.007 Q-49.0816 507.4 -49.0816 498.673 Q-49.0816 489.923 -46.0261 485.34 Q-42.9474 480.734 -37.1372 480.734 Z" fill="#000000" fill-rule="nonzero" fill-opacity="1" /><path clip-path="url(#clip190)" d="M-16.9753 510.039 L-12.0911 510.039 L-12.0911 515.919 L-16.9753 515.919 L-16.9753 510.039 Z" fill="#000000" fill-rule="nonzero" fill-opacity="1" /><path clip-path="url(#clip190)" d="M8.09401 484.437 Q4.48292 484.437 2.65423 488.002 Q0.848683 491.544 0.848683 498.673 Q0.848683 505.78 2.65423 509.345 Q4.48292 512.886 8.09401 512.886 Q11.7283 512.886 13.5338 509.345 Q15.3625 505.78 15.3625 498.673 Q15.3625 491.544 13.5338 488.002 Q11.7283 484.437 8.09401 484.437 M8.09401 480.734 Q13.9042 480.734 16.9597 485.34 Q20.0384 489.923 20.0384 498.673 Q20.0384 507.4 16.9597 512.007 Q13.9042 516.59 8.09401 516.59 Q2.28386 516.59 -0.794826 512.007 Q-3.85037 507.4 -3.85037 498.673 Q-3.85037 489.923 -0.794826 485.34 Q2.28386 480.734 8.09401 480.734 Z" fill="#000000" fill-rule="nonzero" fill-opacity="1" /><path clip-path="url(#clip190)" d="M42.4225 497.284 Q45.779 498.002 47.654 500.27 Q49.5521 502.539 49.5521 505.872 Q49.5521 510.988 46.0336 513.789 Q42.5151 516.59 36.0337 516.59 Q33.8578 516.59 31.543 516.15 Q29.2513 515.733 26.7976 514.877 L26.7976 510.363 Q28.7421 511.497 31.0569 512.076 Q33.3717 512.655 35.8948 512.655 Q40.2929 512.655 42.5846 510.919 Q44.8994 509.182 44.8994 505.872 Q44.8994 502.817 42.7466 501.104 Q40.617 499.368 36.7976 499.368 L32.7698 499.368 L32.7698 495.525 L36.9827 495.525 Q40.4318 495.525 42.2605 494.159 Q44.0892 492.771 44.0892 490.178 Q44.0892 487.516 42.1911 486.104 Q40.3161 484.669 36.7976 484.669 Q34.8763 484.669 32.6772 485.085 Q30.4782 485.502 27.8393 486.382 L27.8393 482.215 Q30.5013 481.474 32.8161 481.104 Q35.1541 480.734 37.2142 480.734 Q42.5383 480.734 45.6401 483.164 Q48.7419 485.571 48.7419 489.692 Q48.7419 492.562 47.0984 494.553 Q45.4549 496.521 42.4225 497.284 Z" fill="#000000" fill-rule="nonzero" fill-opacity="1" /><path clip-path="url(#clip190)" d="M1350.73 38.542 Q1351.01 38.8289 1351.01 39.2388 Q1351.01 39.6487 1350.07 40.5915 L1330.11 62.9716 Q1337.73 89.7786 1341.91 89.7786 Q1343.19 89.7786 1344.5 88.7949 Q1345.85 87.8521 1346.38 86.4175 Q1346.59 85.7207 1346.79 85.4747 Q1347 85.2288 1347.57 85.2288 Q1348.56 85.2288 1348.56 86.1715 Q1348.56 86.6634 1348.1 87.4832 Q1347.65 88.344 1346.83 89.2867 Q1346.01 90.2705 1344.58 90.9263 Q1343.14 91.6231 1341.42 91.6231 Q1339.29 91.6231 1337.57 91.1312 Q1335.85 90.6394 1334.86 90.0245 Q1333.88 89.4097 1332.98 88.303 Q1332.12 87.2373 1331.79 86.5814 Q1331.5 85.9666 1331.01 84.9009 Q1330.03 82.6055 1329.13 80.0641 Q1328.22 77.5228 1327.65 75.6783 Q1327.08 73.8338 1325.31 68.1772 L1306.09 89.7786 Q1305.19 90.6804 1304.74 90.6804 Q1304.37 90.6804 1304.04 90.3524 Q1303.71 90.0655 1303.71 89.6966 Q1303.71 89.2867 1304.66 88.344 L1323.96 66.7836 Q1324.25 66.4967 1324.41 66.2508 Q1324.58 66.0048 1324.58 65.9228 L1324.62 65.8409 Q1324.62 65.6359 1323.88 63.0126 Q1323.14 60.3893 1321.79 56.3313 Q1320.48 52.2324 1319.25 49.2402 Q1318.47 47.2317 1317.94 46.0021 Q1317.4 44.7724 1316.46 42.9279 Q1315.56 41.0833 1314.62 40.1406 Q1313.67 39.1568 1312.81 39.1568 Q1312.53 39.1568 1312.07 39.2798 Q1311.62 39.4028 1310.89 39.7307 Q1310.19 40.0176 1309.49 40.8374 Q1308.8 41.6162 1308.34 42.7639 Q1307.98 43.6657 1307.28 43.6657 Q1306.83 43.6657 1306.54 43.4607 Q1306.3 43.2558 1306.3 43.0508 L1306.25 42.8459 Q1306.25 42.1081 1306.95 40.8784 Q1307.65 39.6487 1309.37 38.501 Q1311.09 37.3123 1313.3 37.3123 Q1315.39 37.3123 1317.12 37.8042 Q1318.84 38.2961 1319.78 38.8699 Q1320.76 39.4438 1321.63 40.5095 Q1322.49 41.5342 1322.73 42.0261 Q1323.02 42.477 1323.47 43.4197 Q1324.86 46.6169 1325.77 49.3632 Q1326.71 52.0685 1329.41 60.6352 L1348.64 39.2388 Q1349.5 38.2141 1349.99 38.2141 Q1350.44 38.2141 1350.73 38.542 Z" fill="#000000" fill-rule="nonzero" fill-opacity="1" /><path clip-path="url(#clip190)" d="M1359.52 49.3028 Q1359.52 48.2412 1359.61 47.9256 Q1359.72 47.61 1360.18 47.1222 L1371.46 34.5549 Q1377.63 27.6113 1377.63 21.5572 Q1377.63 17.6263 1375.56 14.8144 Q1373.52 12.0026 1369.76 12.0026 Q1367.18 12.0026 1365 13.5807 Q1362.82 15.1588 1361.82 17.9706 Q1361.99 17.9132 1362.59 17.9132 Q1364.05 17.9132 1364.86 18.8314 Q1365.69 19.7496 1365.69 20.9833 Q1365.69 22.5614 1364.66 23.3361 Q1363.65 24.0821 1362.65 24.0821 Q1362.25 24.0821 1361.7 23.996 Q1361.18 23.91 1360.35 23.1066 Q1359.52 22.2745 1359.52 20.8112 Q1359.52 16.7081 1362.62 13.4372 Q1365.75 10.1663 1370.51 10.1663 Q1375.9 10.1663 1379.43 13.3798 Q1382.99 16.5647 1382.99 21.5572 Q1382.99 23.3074 1382.45 24.9142 Q1381.93 26.4923 1381.21 27.7261 Q1380.52 28.9598 1378.63 30.9396 Q1376.74 32.9194 1375.22 34.3253 Q1373.69 35.7313 1370.28 38.7153 L1364.05 44.7694 L1374.64 44.7694 Q1379.81 44.7694 1380.21 44.3103 Q1380.78 43.4782 1381.5 39.0883 L1382.99 39.0883 L1381.33 49.3028 L1359.52 49.3028 Z" fill="#000000" fill-rule="nonzero" fill-opacity="1" /><path clip-path="url(#clip190)" d="M1359.52 105.239 Q1359.52 103.489 1360.47 102.829 Q1361.41 102.141 1362.42 102.141 Q1363.77 102.141 1364.54 103.001 Q1365.34 103.834 1365.34 105.01 Q1365.34 106.186 1364.54 107.047 Q1363.77 107.879 1362.42 107.879 Q1361.76 107.879 1361.41 107.764 Q1362.19 110.462 1364.54 112.413 Q1366.92 114.364 1370.05 114.364 Q1373.98 114.364 1376.33 110.548 Q1377.74 108.08 1377.74 102.485 Q1377.74 97.5499 1376.68 95.0824 Q1375.04 91.3236 1371.69 91.3236 Q1366.92 91.3236 1364.11 95.4267 Q1363.77 95.9431 1363.37 95.9718 Q1362.79 95.9718 1362.65 95.6562 Q1362.53 95.3119 1362.53 94.4224 L1362.53 77.0348 Q1362.53 75.6288 1363.11 75.6288 Q1363.34 75.6288 1363.82 75.801 Q1367.53 77.4365 1371.63 77.4652 Q1375.85 77.4652 1379.63 75.7436 Q1379.92 75.5715 1380.09 75.5715 Q1380.67 75.5715 1380.7 76.2314 Q1380.7 76.4609 1380.21 77.1495 Q1379.75 77.8095 1378.74 78.6989 Q1377.74 79.5597 1376.45 80.3918 Q1375.16 81.2239 1373.26 81.7977 Q1371.4 82.3429 1369.33 82.3429 Q1366.87 82.3429 1364.34 81.5682 L1364.34 93.0165 Q1367.38 90.0325 1371.8 90.0325 Q1376.51 90.0325 1379.75 93.8199 Q1382.99 97.6073 1382.99 102.887 Q1382.99 108.424 1379.15 112.212 Q1375.33 115.999 1370.17 115.999 Q1365.46 115.999 1362.48 112.642 Q1359.52 109.285 1359.52 105.239 Z" fill="#000000" fill-rule="nonzero" fill-opacity="1" /><path clip-path="url(#clip190)" d="M1388.86 88.7987 Q1388.86 85.6712 1389.77 83.548 Q1390.69 81.396 1392.61 79.2728 Q1396.14 75.5715 1401.25 75.5715 Q1403.43 75.5715 1405.35 76.4896 Q1407.3 77.4078 1409.14 79.5023 Q1411.01 81.5682 1412.12 85.6712 Q1413.24 89.7455 1413.24 95.3693 Q1413.24 104.465 1408.83 110.232 Q1404.44 115.999 1398.5 115.999 Q1394.74 115.999 1392.53 114.306 Q1390.32 112.585 1390.32 109.658 Q1390.32 108.137 1391.18 107.506 Q1392.04 106.846 1393.02 106.846 Q1394.08 106.846 1394.91 107.564 Q1395.74 108.252 1395.74 109.543 Q1395.74 110.605 1395.05 111.437 Q1394.39 112.24 1392.67 112.24 Q1394.36 114.364 1398.44 114.364 Q1399.9 114.364 1401.37 113.704 Q1402.83 113.015 1404.41 111.38 Q1406.01 109.716 1406.99 106.244 Q1407.96 102.772 1407.96 97.8942 L1407.96 96.0292 Q1405.61 101.911 1400.62 101.911 Q1395.68 101.911 1392.27 98.1238 Q1388.86 94.3363 1388.86 88.7987 M1394.13 88.8561 Q1394.13 94.6807 1395.2 96.8326 Q1397 100.534 1400.68 100.534 Q1404.26 100.534 1406.04 97.3491 Q1407.85 94.1355 1407.85 89.9751 Q1407.85 84.2079 1406.9 81.683 Q1405.15 77.0348 1401.25 77.0348 Q1397.38 77.0348 1395.37 80.7361 Q1394.13 82.9167 1394.13 88.8561 Z" fill="#000000" fill-rule="nonzero" fill-opacity="1" /><polyline clip-path="url(#clip192)" style="stroke:#009af9; stroke-linecap:round; stroke-linejoin:round; stroke-width:4; stroke-opacity:1; fill:none" points="89.8721,1789.71 116.207,1789.71 270.446,1789.71 342.198,1789.71 438.372,1789.71 517.842,1789.69 591.741,1789.36 638.126,1788.24 684.51,1784.72 705.314,1781.56 726.117,1776.83 746.921,1769.96 767.724,1760.27 779.63,1753.16 791.536,1744.73 803.443,1734.8 815.349,1723.2 827.255,1709.77 839.161,1694.35 851.067,1676.76 862.974,1656.86 871.874,1640.39 880.773,1622.5 889.673,1603.13 898.573,1582.26 907.473,1559.85 916.373,1535.87 925.273,1510.32 934.173,1483.18 945.556,1446.19 956.939,1406.68 968.322,1364.71 979.705,1320.39 991.088,1273.86 1002.47,1225.29 1013.85,1174.88 1025.24,1122.86 1066.8,923.626 1108.35,721.45 1120.18,665.725 1132,611.524 1143.83,559.232 1155.65,509.222 1167.48,461.846 1179.3,417.434 1191.12,376.291 1202.95,338.69 1212.32,311.56 1221.7,286.913 1231.07,264.839 1240.44,245.413 1249.82,228.695 1259.19,214.731 1268.56,203.549 1277.94,195.164 1283.76,191.365 1289.58,188.642 1295.41,186.991 1301.23,186.404 1307.05,186.873 1312.87,188.387 1318.7,190.933 1324.52,194.495 1336.16,204.604 1347.81,218.564 1359.45,236.2 1371.1,257.317 1380.02,275.711 1388.94,295.92 1397.86,317.837 1406.77,341.354 1415.69,366.356 1424.61,392.73 1433.53,420.359 1442.45,449.125 1455.02,491.389 1467.6,535.357 1480.17,580.709 1492.74,627.135 1517.89,722.023 1543.04,817.795 1561.83,888.762 1580.62,958.417 1599.42,1026.15 1618.21,1091.46 1628.89,1127.35 1639.58,1162.26 1650.26,1196.13 1660.95,1228.93 1671.64,1260.61 1682.32,1291.15 1693.01,1320.53 1703.69,1348.74 1714.27,1375.51 1724.86,1401.13 1735.44,1425.6 1746.02,1448.93 1756.6,1471.13 1767.19,1492.24 1777.77,1512.25 1788.35,1531.21 1799.99,1550.89 1811.64,1569.35 1823.28,1586.66 1834.92,1602.84 1858.21,1632.04 1881.49,1657.34 1899.28,1674.26 1917.06,1689.3 1934.85,1702.62 1952.63,1714.37 1975.08,1727.19 1997.52,1738.04 2019.97,1747.17 2042.41,1754.83 2063.17,1760.77 2083.93,1765.78 2104.69,1769.98 2125.44,1773.5 2168.26,1778.99 2211.08,1782.71 2254.48,1785.22 2297.88,1786.86 2388.52,1788.64 2459.92,1789.23 2622.51,1789.64 2640.76,1789.65 "/>
<polyline clip-path="url(#clip192)" style="stroke:#e26f46; stroke-linecap:round; stroke-linejoin:round; stroke-width:4; stroke-opacity:1; fill:none" points="1746.47,3537.31 1746.47,-1561.2 "/>
<path clip-path="url(#clip190)" d="M2117.13 298.635 L2555.73 298.635 L2555.73 194.955 L2117.13 194.955  Z" fill="#ffffff" fill-rule="evenodd" fill-opacity="1"/>
<polyline clip-path="url(#clip190)" style="stroke:#000000; stroke-linecap:round; stroke-linejoin:round; stroke-width:4; stroke-opacity:1; fill:none" points="2117.13,298.635 2555.73,298.635 2555.73,194.955 2117.13,194.955 2117.13,298.635 "/>
<polyline clip-path="url(#clip190)" style="stroke:#e26f46; stroke-linecap:round; stroke-linejoin:round; stroke-width:4; stroke-opacity:1; fill:none" points="2145.48,246.795 2315.54,246.795 "/>
<path clip-path="url(#clip190)" d="M2362.36 256.775 Q2362.55 256.986 2362.55 257.197 Q2362.55 257.408 2362.08 258.017 Q2361.63 258.626 2360.67 259.446 Q2359.71 260.265 2358.47 261.038 Q2357.23 261.811 2355.4 262.326 Q2353.58 262.865 2351.66 262.865 Q2348.07 262.865 2345.96 260.5 Q2343.88 258.134 2343.88 254.738 Q2343.88 251.435 2345.73 248.273 Q2347.58 245.088 2350.58 243.12 Q2353.58 241.129 2356.74 241.129 Q2359.24 241.129 2360.81 242.3 Q2362.38 243.471 2362.38 245.252 Q2362.38 246.633 2361.59 247.477 Q2360.79 248.32 2359.71 248.32 Q2358.96 248.32 2358.45 247.898 Q2357.93 247.453 2357.93 246.633 Q2357.93 245.579 2358.8 244.76 Q2359.13 244.432 2359.5 244.291 Q2359.9 244.127 2360.13 244.127 Q2360.37 244.104 2360.91 244.104 Q2360.42 243.19 2359.24 242.698 Q2358.1 242.183 2356.79 242.183 Q2354.84 242.183 2352.99 243.542 Q2351.14 244.877 2350.02 246.985 Q2348.89 249.046 2348.17 251.974 Q2347.44 254.878 2347.44 256.565 Q2347.44 258.883 2348.52 260.336 Q2349.59 261.788 2351.75 261.788 Q2352.17 261.788 2352.62 261.764 Q2353.08 261.741 2354.26 261.483 Q2355.45 261.226 2356.5 260.781 Q2357.56 260.336 2358.89 259.375 Q2360.25 258.391 2361.33 257.056 Q2361.7 256.565 2361.96 256.565 Q2362.17 256.565 2362.36 256.775 Z" fill="#000000" fill-rule="nonzero" fill-opacity="1" /><path clip-path="url(#clip190)" d="M2377.75 255.042 Q2377.79 254.457 2378.71 254.457 L2408.1 254.457 Q2409.48 254.457 2409.51 254.995 Q2409.51 255.581 2408.19 255.557 L2379.03 255.557 Q2377.75 255.581 2377.75 255.042 M2377.75 245.673 Q2377.75 245.088 2378.75 245.111 L2408.05 245.111 Q2409.48 245.111 2409.51 245.673 Q2409.51 246.212 2408.29 246.212 L2378.71 246.212 Q2377.75 246.212 2377.75 245.673 Z" fill="#000000" fill-rule="nonzero" fill-opacity="1" /><path clip-path="url(#clip190)" d="M2428.01 239.771 L2429.58 229.91 L2430.78 229.91 Q2430.92 230.495 2431.15 230.753 Q2431.41 231.011 2432.77 231.221 Q2434.15 231.432 2436.94 231.432 L2448.58 231.432 Q2448.58 232.533 2448.16 233.119 L2441.67 242.23 Q2439.61 245.111 2438.69 250.428 Q2438.16 253.988 2438.18 258.298 L2438.18 260.734 Q2438.18 263.38 2435.95 263.38 Q2433.75 263.38 2433.75 260.734 Q2433.75 251.576 2439.65 242.698 Q2440.29 241.785 2442.61 238.529 Q2444.95 235.274 2445.04 235.133 L2435.11 235.133 Q2430.75 235.133 2430.4 235.414 Q2429.93 235.836 2429.21 239.771 L2428.01 239.771 Z" fill="#000000" fill-rule="nonzero" fill-opacity="1" /><path clip-path="url(#clip190)" d="M2449.44 239.771 L2451.01 229.91 L2452.21 229.91 Q2452.35 230.495 2452.58 230.753 Q2452.84 231.011 2454.2 231.221 Q2455.58 231.432 2458.37 231.432 L2470.01 231.432 Q2470.01 232.533 2469.59 233.119 L2463.1 242.23 Q2461.04 245.111 2460.12 250.428 Q2459.58 253.988 2459.61 258.298 L2459.61 260.734 Q2459.61 263.38 2457.38 263.38 Q2455.18 263.38 2455.18 260.734 Q2455.18 251.576 2461.08 242.698 Q2461.72 241.785 2464.03 238.529 Q2466.38 235.274 2466.47 235.133 L2456.54 235.133 Q2452.18 235.133 2451.83 235.414 Q2451.36 235.836 2450.64 239.771 L2449.44 239.771 Z" fill="#000000" fill-rule="nonzero" fill-opacity="1" /><path clip-path="url(#clip190)" d="M2467.2 261.554 Q2466.48 260.781 2466.48 259.773 Q2466.48 258.766 2467.2 258.04 Q2467.93 257.291 2469.03 257.291 Q2470.09 257.291 2470.79 257.993 Q2471.51 258.673 2471.51 259.797 Q2471.51 260.898 2470.74 261.624 Q2469.99 262.326 2469.03 262.326 Q2467.93 262.326 2467.2 261.554 Z" fill="#000000" fill-rule="nonzero" fill-opacity="1" /><path clip-path="url(#clip190)" d="M2479.68 241.176 Q2479.68 238.623 2480.43 236.89 Q2481.18 235.133 2482.75 233.4 Q2485.63 230.378 2489.8 230.378 Q2491.58 230.378 2493.15 231.128 Q2494.74 231.877 2496.24 233.587 Q2497.76 235.274 2498.67 238.623 Q2499.59 241.949 2499.59 246.54 Q2499.59 253.965 2495.98 258.673 Q2492.4 263.38 2487.55 263.38 Q2484.48 263.38 2482.68 261.999 Q2480.87 260.593 2480.87 258.204 Q2480.87 256.963 2481.58 256.447 Q2482.28 255.909 2483.08 255.909 Q2483.94 255.909 2484.62 256.494 Q2485.3 257.056 2485.3 258.11 Q2485.3 258.977 2484.74 259.656 Q2484.2 260.312 2482.79 260.312 Q2484.18 262.045 2487.5 262.045 Q2488.7 262.045 2489.89 261.507 Q2491.09 260.945 2492.37 259.609 Q2493.69 258.251 2494.48 255.417 Q2495.28 252.583 2495.28 248.601 L2495.28 247.078 Q2493.36 251.88 2489.28 251.88 Q2485.25 251.88 2482.47 248.788 Q2479.68 245.697 2479.68 241.176 M2483.99 241.223 Q2483.99 245.978 2484.86 247.734 Q2486.33 250.756 2489.33 250.756 Q2492.26 250.756 2493.71 248.156 Q2495.18 245.533 2495.18 242.136 Q2495.18 237.428 2494.41 235.367 Q2492.98 231.573 2489.8 231.573 Q2486.64 231.573 2485 234.594 Q2483.99 236.374 2483.99 241.223 Z" fill="#000000" fill-rule="nonzero" fill-opacity="1" /><path clip-path="url(#clip190)" d="M2503.63 255.862 Q2503.63 254.433 2504.45 253.754 Q2505.27 253.075 2506.32 253.075 Q2507.42 253.075 2508.19 253.801 Q2508.99 254.503 2508.99 255.745 Q2508.99 257.08 2508.05 257.829 Q2507.14 258.579 2505.83 258.391 Q2506.98 260.312 2509.08 261.179 Q2511.22 262.045 2513.18 262.045 Q2515.24 262.045 2516.91 260.265 Q2518.59 258.485 2518.59 254.129 Q2518.59 250.428 2517.14 248.296 Q2515.71 246.165 2512.88 246.165 L2510.77 246.165 Q2510.04 246.165 2509.83 246.095 Q2509.62 246.024 2509.62 245.626 Q2509.62 245.158 2510.35 245.064 Q2511.08 245.064 2512.22 244.924 Q2515.01 244.83 2516.49 242.417 Q2517.82 240.169 2517.82 236.96 Q2517.82 234.032 2516.42 232.814 Q2515.03 231.573 2513.23 231.573 Q2511.54 231.573 2509.69 232.275 Q2507.84 232.978 2506.84 234.547 Q2509.81 234.547 2509.81 236.96 Q2509.81 238.014 2509.13 238.717 Q2508.48 239.396 2507.37 239.396 Q2506.32 239.396 2505.62 238.74 Q2504.92 238.061 2504.92 236.913 Q2504.92 234.173 2507.35 232.275 Q2509.81 230.378 2513.42 230.378 Q2516.98 230.378 2519.6 232.252 Q2522.25 234.126 2522.25 237.007 Q2522.25 239.841 2520.37 242.16 Q2518.5 244.479 2515.53 245.439 Q2519.18 246.165 2521.36 248.648 Q2523.54 251.107 2523.54 254.129 Q2523.54 257.876 2520.58 260.64 Q2517.63 263.38 2513.32 263.38 Q2509.34 263.38 2506.48 261.226 Q2503.63 259.071 2503.63 255.862 Z" fill="#000000" fill-rule="nonzero" fill-opacity="1" /></svg>
