<?xml version="1.0" encoding="utf-8"?>
<svg xmlns="http://www.w3.org/2000/svg" xmlns:xlink="http://www.w3.org/1999/xlink" width="672" height="480" viewBox="0 0 2688 1920">
<defs>
  <clipPath id="clip430">
    <rect x="0" y="0" width="2688" height="1920"/>
  </clipPath>
</defs>
<path clip-path="url(#clip430)" d="M0 1920 L2688 1920 L2688 0 L0 0  Z" fill="#ffffff" fill-rule="evenodd" fill-opacity="1"/>
<defs>
  <clipPath id="clip431">
    <rect x="537" y="0" width="1883" height="1883"/>
  </clipPath>
</defs>
<path clip-path="url(#clip430)" d="M189.154 1734.12 L1311.59 1734.12 L1311.59 127.792 L189.154 127.792  Z" fill="#ffffff" fill-rule="evenodd" fill-opacity="1"/>
<defs>
  <clipPath id="clip432">
    <rect x="189" y="127" width="1123" height="1607"/>
  </clipPath>
</defs>
<polyline clip-path="url(#clip432)" style="stroke:#000000; stroke-linecap:round; stroke-linejoin:round; stroke-width:2; stroke-opacity:0.1; fill:none" points="209.156,1734.12 209.156,127.792 "/>
<polyline clip-path="url(#clip432)" style="stroke:#000000; stroke-linecap:round; stroke-linejoin:round; stroke-width:2; stroke-opacity:0.1; fill:none" points="444.468,1734.12 444.468,127.792 "/>
<polyline clip-path="url(#clip432)" style="stroke:#000000; stroke-linecap:round; stroke-linejoin:round; stroke-width:2; stroke-opacity:0.1; fill:none" points="679.78,1734.12 679.78,127.792 "/>
<polyline clip-path="url(#clip432)" style="stroke:#000000; stroke-linecap:round; stroke-linejoin:round; stroke-width:2; stroke-opacity:0.1; fill:none" points="915.093,1734.12 915.093,127.792 "/>
<polyline clip-path="url(#clip432)" style="stroke:#000000; stroke-linecap:round; stroke-linejoin:round; stroke-width:2; stroke-opacity:0.1; fill:none" points="1150.4,1734.12 1150.4,127.792 "/>
<polyline clip-path="url(#clip432)" style="stroke:#000000; stroke-linecap:round; stroke-linejoin:round; stroke-width:2; stroke-opacity:0.1; fill:none" points="189.154,1688.65 1311.59,1688.65 "/>
<polyline clip-path="url(#clip432)" style="stroke:#000000; stroke-linecap:round; stroke-linejoin:round; stroke-width:2; stroke-opacity:0.1; fill:none" points="189.154,1306.13 1311.59,1306.13 "/>
<polyline clip-path="url(#clip432)" style="stroke:#000000; stroke-linecap:round; stroke-linejoin:round; stroke-width:2; stroke-opacity:0.1; fill:none" points="189.154,923.61 1311.59,923.61 "/>
<polyline clip-path="url(#clip432)" style="stroke:#000000; stroke-linecap:round; stroke-linejoin:round; stroke-width:2; stroke-opacity:0.1; fill:none" points="189.154,541.088 1311.59,541.088 "/>
<polyline clip-path="url(#clip432)" style="stroke:#000000; stroke-linecap:round; stroke-linejoin:round; stroke-width:2; stroke-opacity:0.1; fill:none" points="189.154,158.565 1311.59,158.565 "/>
<polyline clip-path="url(#clip430)" style="stroke:#000000; stroke-linecap:round; stroke-linejoin:round; stroke-width:4; stroke-opacity:1; fill:none" points="189.154,1734.12 1311.59,1734.12 "/>
<polyline clip-path="url(#clip430)" style="stroke:#000000; stroke-linecap:round; stroke-linejoin:round; stroke-width:4; stroke-opacity:1; fill:none" points="209.156,1734.12 209.156,1715.22 "/>
<polyline clip-path="url(#clip430)" style="stroke:#000000; stroke-linecap:round; stroke-linejoin:round; stroke-width:4; stroke-opacity:1; fill:none" points="444.468,1734.12 444.468,1715.22 "/>
<polyline clip-path="url(#clip430)" style="stroke:#000000; stroke-linecap:round; stroke-linejoin:round; stroke-width:4; stroke-opacity:1; fill:none" points="679.78,1734.12 679.78,1715.22 "/>
<polyline clip-path="url(#clip430)" style="stroke:#000000; stroke-linecap:round; stroke-linejoin:round; stroke-width:4; stroke-opacity:1; fill:none" points="915.093,1734.12 915.093,1715.22 "/>
<polyline clip-path="url(#clip430)" style="stroke:#000000; stroke-linecap:round; stroke-linejoin:round; stroke-width:4; stroke-opacity:1; fill:none" points="1150.4,1734.12 1150.4,1715.22 "/>
<path clip-path="url(#clip430)" d="M209.156 1767.34 Q205.544 1767.34 203.716 1770.9 Q201.91 1774.45 201.91 1781.58 Q201.91 1788.68 203.716 1792.25 Q205.544 1795.79 209.156 1795.79 Q212.79 1795.79 214.595 1792.25 Q216.424 1788.68 216.424 1781.58 Q216.424 1774.45 214.595 1770.9 Q212.79 1767.34 209.156 1767.34 M209.156 1763.64 Q214.966 1763.64 218.021 1768.24 Q221.1 1772.83 221.1 1781.58 Q221.1 1790.3 218.021 1794.91 Q214.966 1799.49 209.156 1799.49 Q203.345 1799.49 200.267 1794.91 Q197.211 1790.3 197.211 1781.58 Q197.211 1772.83 200.267 1768.24 Q203.345 1763.64 209.156 1763.64 Z" fill="#000000" fill-rule="nonzero" fill-opacity="1" /><path clip-path="url(#clip430)" d="M408.16 1794.89 L424.48 1794.89 L424.48 1798.82 L402.535 1798.82 L402.535 1794.89 Q405.197 1792.13 409.781 1787.5 Q414.387 1782.85 415.568 1781.51 Q417.813 1778.98 418.693 1777.25 Q419.595 1775.49 419.595 1773.8 Q419.595 1771.04 417.651 1769.31 Q415.73 1767.57 412.628 1767.57 Q410.429 1767.57 407.975 1768.34 Q405.544 1769.1 402.767 1770.65 L402.767 1765.93 Q405.591 1764.79 408.044 1764.21 Q410.498 1763.64 412.535 1763.64 Q417.906 1763.64 421.1 1766.32 Q424.294 1769.01 424.294 1773.5 Q424.294 1775.63 423.484 1777.55 Q422.697 1779.45 420.591 1782.04 Q420.012 1782.71 416.91 1785.93 Q413.808 1789.12 408.16 1794.89 Z" fill="#000000" fill-rule="nonzero" fill-opacity="1" /><path clip-path="url(#clip430)" d="M444.294 1767.34 Q440.683 1767.34 438.854 1770.9 Q437.049 1774.45 437.049 1781.58 Q437.049 1788.68 438.854 1792.25 Q440.683 1795.79 444.294 1795.79 Q447.929 1795.79 449.734 1792.25 Q451.563 1788.68 451.563 1781.58 Q451.563 1774.45 449.734 1770.9 Q447.929 1767.34 444.294 1767.34 M444.294 1763.64 Q450.104 1763.64 453.16 1768.24 Q456.239 1772.83 456.239 1781.58 Q456.239 1790.3 453.16 1794.91 Q450.104 1799.49 444.294 1799.49 Q438.484 1799.49 435.405 1794.91 Q432.35 1790.3 432.35 1781.58 Q432.35 1772.83 435.405 1768.24 Q438.484 1763.64 444.294 1763.64 Z" fill="#000000" fill-rule="nonzero" fill-opacity="1" /><path clip-path="url(#clip430)" d="M474.456 1767.34 Q470.845 1767.34 469.016 1770.9 Q467.211 1774.45 467.211 1781.58 Q467.211 1788.68 469.016 1792.25 Q470.845 1795.79 474.456 1795.79 Q478.09 1795.79 479.896 1792.25 Q481.725 1788.68 481.725 1781.58 Q481.725 1774.45 479.896 1770.9 Q478.09 1767.34 474.456 1767.34 M474.456 1763.64 Q480.266 1763.64 483.322 1768.24 Q486.401 1772.83 486.401 1781.58 Q486.401 1790.3 483.322 1794.91 Q480.266 1799.49 474.456 1799.49 Q468.646 1799.49 465.567 1794.91 Q462.512 1790.3 462.512 1781.58 Q462.512 1772.83 465.567 1768.24 Q468.646 1763.64 474.456 1763.64 Z" fill="#000000" fill-rule="nonzero" fill-opacity="1" /><path clip-path="url(#clip430)" d="M652.871 1768.34 L641.065 1786.78 L652.871 1786.78 L652.871 1768.34 M651.644 1764.26 L657.523 1764.26 L657.523 1786.78 L662.454 1786.78 L662.454 1790.67 L657.523 1790.67 L657.523 1798.82 L652.871 1798.82 L652.871 1790.67 L637.269 1790.67 L637.269 1786.16 L651.644 1764.26 Z" fill="#000000" fill-rule="nonzero" fill-opacity="1" /><path clip-path="url(#clip430)" d="M680.185 1767.34 Q676.574 1767.34 674.746 1770.9 Q672.94 1774.45 672.94 1781.58 Q672.94 1788.68 674.746 1792.25 Q676.574 1795.79 680.185 1795.79 Q683.82 1795.79 685.625 1792.25 Q687.454 1788.68 687.454 1781.58 Q687.454 1774.45 685.625 1770.9 Q683.82 1767.34 680.185 1767.34 M680.185 1763.64 Q685.995 1763.64 689.051 1768.24 Q692.13 1772.83 692.13 1781.58 Q692.13 1790.3 689.051 1794.91 Q685.995 1799.49 680.185 1799.49 Q674.375 1799.49 671.296 1794.91 Q668.241 1790.3 668.241 1781.58 Q668.241 1772.83 671.296 1768.24 Q674.375 1763.64 680.185 1763.64 Z" fill="#000000" fill-rule="nonzero" fill-opacity="1" /><path clip-path="url(#clip430)" d="M710.347 1767.34 Q706.736 1767.34 704.907 1770.9 Q703.102 1774.45 703.102 1781.58 Q703.102 1788.68 704.907 1792.25 Q706.736 1795.79 710.347 1795.79 Q713.981 1795.79 715.787 1792.25 Q717.616 1788.68 717.616 1781.58 Q717.616 1774.45 715.787 1770.9 Q713.981 1767.34 710.347 1767.34 M710.347 1763.64 Q716.157 1763.64 719.213 1768.24 Q722.292 1772.83 722.292 1781.58 Q722.292 1790.3 719.213 1794.91 Q716.157 1799.49 710.347 1799.49 Q704.537 1799.49 701.458 1794.91 Q698.403 1790.3 698.403 1781.58 Q698.403 1772.83 701.458 1768.24 Q704.537 1763.64 710.347 1763.64 Z" fill="#000000" fill-rule="nonzero" fill-opacity="1" /><path clip-path="url(#clip430)" d="M885.417 1779.68 Q882.269 1779.68 880.417 1781.83 Q878.588 1783.98 878.588 1787.73 Q878.588 1791.46 880.417 1793.64 Q882.269 1795.79 885.417 1795.79 Q888.565 1795.79 890.394 1793.64 Q892.245 1791.46 892.245 1787.73 Q892.245 1783.98 890.394 1781.83 Q888.565 1779.68 885.417 1779.68 M894.699 1765.02 L894.699 1769.28 Q892.94 1768.45 891.134 1768.01 Q889.352 1767.57 887.593 1767.57 Q882.963 1767.57 880.509 1770.7 Q878.079 1773.82 877.732 1780.14 Q879.097 1778.13 881.158 1777.06 Q883.218 1775.97 885.695 1775.97 Q890.903 1775.97 893.912 1779.15 Q896.944 1782.29 896.944 1787.73 Q896.944 1793.06 893.796 1796.27 Q890.648 1799.49 885.417 1799.49 Q879.421 1799.49 876.25 1794.91 Q873.079 1790.3 873.079 1781.58 Q873.079 1773.38 876.968 1768.52 Q880.857 1763.64 887.407 1763.64 Q889.167 1763.64 890.949 1763.98 Q892.755 1764.33 894.699 1765.02 Z" fill="#000000" fill-rule="nonzero" fill-opacity="1" /><path clip-path="url(#clip430)" d="M915 1767.34 Q911.389 1767.34 909.56 1770.9 Q907.755 1774.45 907.755 1781.58 Q907.755 1788.68 909.56 1792.25 Q911.389 1795.79 915 1795.79 Q918.634 1795.79 920.44 1792.25 Q922.268 1788.68 922.268 1781.58 Q922.268 1774.45 920.44 1770.9 Q918.634 1767.34 915 1767.34 M915 1763.64 Q920.81 1763.64 923.866 1768.24 Q926.944 1772.83 926.944 1781.58 Q926.944 1790.3 923.866 1794.91 Q920.81 1799.49 915 1799.49 Q909.19 1799.49 906.111 1794.91 Q903.056 1790.3 903.056 1781.58 Q903.056 1772.83 906.111 1768.24 Q909.19 1763.64 915 1763.64 Z" fill="#000000" fill-rule="nonzero" fill-opacity="1" /><path clip-path="url(#clip430)" d="M945.162 1767.34 Q941.551 1767.34 939.722 1770.9 Q937.916 1774.45 937.916 1781.58 Q937.916 1788.68 939.722 1792.25 Q941.551 1795.79 945.162 1795.79 Q948.796 1795.79 950.602 1792.25 Q952.43 1788.68 952.43 1781.58 Q952.43 1774.45 950.602 1770.9 Q948.796 1767.34 945.162 1767.34 M945.162 1763.64 Q950.972 1763.64 954.027 1768.24 Q957.106 1772.83 957.106 1781.58 Q957.106 1790.3 954.027 1794.91 Q950.972 1799.49 945.162 1799.49 Q939.352 1799.49 936.273 1794.91 Q933.217 1790.3 933.217 1781.58 Q933.217 1772.83 936.273 1768.24 Q939.352 1763.64 945.162 1763.64 Z" fill="#000000" fill-rule="nonzero" fill-opacity="1" /><path clip-path="url(#clip430)" d="M1120.2 1782.41 Q1116.86 1782.41 1114.94 1784.19 Q1113.04 1785.97 1113.04 1789.1 Q1113.04 1792.22 1114.94 1794.01 Q1116.86 1795.79 1120.2 1795.79 Q1123.53 1795.79 1125.45 1794.01 Q1127.37 1792.2 1127.37 1789.1 Q1127.37 1785.97 1125.45 1784.19 Q1123.55 1782.41 1120.2 1782.41 M1115.52 1780.42 Q1112.51 1779.68 1110.82 1777.62 Q1109.16 1775.56 1109.16 1772.59 Q1109.16 1768.45 1112.09 1766.04 Q1115.06 1763.64 1120.2 1763.64 Q1125.36 1763.64 1128.3 1766.04 Q1131.24 1768.45 1131.24 1772.59 Q1131.24 1775.56 1129.55 1777.62 Q1127.88 1779.68 1124.9 1780.42 Q1128.28 1781.21 1130.15 1783.5 Q1132.05 1785.79 1132.05 1789.1 Q1132.05 1794.12 1128.97 1796.81 Q1125.91 1799.49 1120.2 1799.49 Q1114.48 1799.49 1111.4 1796.81 Q1108.34 1794.12 1108.34 1789.1 Q1108.34 1785.79 1110.24 1783.5 Q1112.14 1781.21 1115.52 1780.42 M1113.81 1773.03 Q1113.81 1775.72 1115.47 1777.22 Q1117.16 1778.73 1120.2 1778.73 Q1123.21 1778.73 1124.9 1777.22 Q1126.61 1775.72 1126.61 1773.03 Q1126.61 1770.35 1124.9 1768.84 Q1123.21 1767.34 1120.2 1767.34 Q1117.16 1767.34 1115.47 1768.84 Q1113.81 1770.35 1113.81 1773.03 Z" fill="#000000" fill-rule="nonzero" fill-opacity="1" /><path clip-path="url(#clip430)" d="M1150.36 1767.34 Q1146.75 1767.34 1144.92 1770.9 Q1143.11 1774.45 1143.11 1781.58 Q1143.11 1788.68 1144.92 1792.25 Q1146.75 1795.79 1150.36 1795.79 Q1153.99 1795.79 1155.8 1792.25 Q1157.63 1788.68 1157.63 1781.58 Q1157.63 1774.45 1155.8 1770.9 Q1153.99 1767.34 1150.36 1767.34 M1150.36 1763.64 Q1156.17 1763.64 1159.22 1768.24 Q1162.3 1772.83 1162.3 1781.58 Q1162.3 1790.3 1159.22 1794.91 Q1156.17 1799.49 1150.36 1799.49 Q1144.55 1799.49 1141.47 1794.91 Q1138.41 1790.3 1138.41 1781.58 Q1138.41 1772.83 1141.47 1768.24 Q1144.55 1763.64 1150.36 1763.64 Z" fill="#000000" fill-rule="nonzero" fill-opacity="1" /><path clip-path="url(#clip430)" d="M1180.52 1767.34 Q1176.91 1767.34 1175.08 1770.9 Q1173.28 1774.45 1173.28 1781.58 Q1173.28 1788.68 1175.08 1792.25 Q1176.91 1795.79 1180.52 1795.79 Q1184.15 1795.79 1185.96 1792.25 Q1187.79 1788.68 1187.79 1781.58 Q1187.79 1774.45 1185.96 1770.9 Q1184.15 1767.34 1180.52 1767.34 M1180.52 1763.64 Q1186.33 1763.64 1189.39 1768.24 Q1192.46 1772.83 1192.46 1781.58 Q1192.46 1790.3 1189.39 1794.91 Q1186.33 1799.49 1180.52 1799.49 Q1174.71 1799.49 1171.63 1794.91 Q1168.58 1790.3 1168.58 1781.58 Q1168.58 1772.83 1171.63 1768.24 Q1174.71 1763.64 1180.52 1763.64 Z" fill="#000000" fill-rule="nonzero" fill-opacity="1" /><path clip-path="url(#clip430)" d="M765.301 1861.78 L765.301 1883.3 L759.445 1883.3 L759.445 1861.98 Q759.445 1856.92 757.472 1854.4 Q755.498 1851.89 751.552 1851.89 Q746.809 1851.89 744.072 1854.91 Q741.335 1857.93 741.335 1863.15 L741.335 1883.3 L735.446 1883.3 L735.446 1847.65 L741.335 1847.65 L741.335 1853.19 Q743.435 1849.98 746.268 1848.39 Q749.133 1846.79 752.857 1846.79 Q758.999 1846.79 762.15 1850.61 Q765.301 1854.4 765.301 1861.78 Z" fill="#000000" fill-rule="nonzero" fill-opacity="1" /><polyline clip-path="url(#clip430)" style="stroke:#000000; stroke-linecap:round; stroke-linejoin:round; stroke-width:4; stroke-opacity:1; fill:none" points="189.154,1734.12 189.154,127.792 "/>
<polyline clip-path="url(#clip430)" style="stroke:#000000; stroke-linecap:round; stroke-linejoin:round; stroke-width:4; stroke-opacity:1; fill:none" points="189.154,1688.65 208.052,1688.65 "/>
<polyline clip-path="url(#clip430)" style="stroke:#000000; stroke-linecap:round; stroke-linejoin:round; stroke-width:4; stroke-opacity:1; fill:none" points="189.154,1306.13 208.052,1306.13 "/>
<polyline clip-path="url(#clip430)" style="stroke:#000000; stroke-linecap:round; stroke-linejoin:round; stroke-width:4; stroke-opacity:1; fill:none" points="189.154,923.61 208.052,923.61 "/>
<polyline clip-path="url(#clip430)" style="stroke:#000000; stroke-linecap:round; stroke-linejoin:round; stroke-width:4; stroke-opacity:1; fill:none" points="189.154,541.088 208.052,541.088 "/>
<polyline clip-path="url(#clip430)" style="stroke:#000000; stroke-linecap:round; stroke-linejoin:round; stroke-width:4; stroke-opacity:1; fill:none" points="189.154,158.565 208.052,158.565 "/>
<path clip-path="url(#clip430)" d="M61.4965 1674.45 Q57.8854 1674.45 56.0567 1678.02 Q54.2512 1681.56 54.2512 1688.69 Q54.2512 1695.8 56.0567 1699.36 Q57.8854 1702.9 61.4965 1702.9 Q65.1307 1702.9 66.9363 1699.36 Q68.765 1695.8 68.765 1688.69 Q68.765 1681.56 66.9363 1678.02 Q65.1307 1674.45 61.4965 1674.45 M61.4965 1670.75 Q67.3067 1670.75 70.3622 1675.36 Q73.4409 1679.94 73.4409 1688.69 Q73.4409 1697.42 70.3622 1702.02 Q67.3067 1706.61 61.4965 1706.61 Q55.6864 1706.61 52.6077 1702.02 Q49.5521 1697.42 49.5521 1688.69 Q49.5521 1679.94 52.6077 1675.36 Q55.6864 1670.75 61.4965 1670.75 Z" fill="#000000" fill-rule="nonzero" fill-opacity="1" /><path clip-path="url(#clip430)" d="M81.6584 1700.06 L86.5427 1700.06 L86.5427 1705.93 L81.6584 1705.93 L81.6584 1700.06 Z" fill="#000000" fill-rule="nonzero" fill-opacity="1" /><path clip-path="url(#clip430)" d="M106.728 1674.45 Q103.117 1674.45 101.288 1678.02 Q99.4824 1681.56 99.4824 1688.69 Q99.4824 1695.8 101.288 1699.36 Q103.117 1702.9 106.728 1702.9 Q110.362 1702.9 112.168 1699.36 Q113.996 1695.8 113.996 1688.69 Q113.996 1681.56 112.168 1678.02 Q110.362 1674.45 106.728 1674.45 M106.728 1670.75 Q112.538 1670.75 115.593 1675.36 Q118.672 1679.94 118.672 1688.69 Q118.672 1697.42 115.593 1702.02 Q112.538 1706.61 106.728 1706.61 Q100.918 1706.61 97.8389 1702.02 Q94.7834 1697.42 94.7834 1688.69 Q94.7834 1679.94 97.8389 1675.36 Q100.918 1670.75 106.728 1670.75 Z" fill="#000000" fill-rule="nonzero" fill-opacity="1" /><path clip-path="url(#clip430)" d="M136.89 1674.45 Q133.279 1674.45 131.45 1678.02 Q129.644 1681.56 129.644 1688.69 Q129.644 1695.8 131.45 1699.36 Q133.279 1702.9 136.89 1702.9 Q140.524 1702.9 142.329 1699.36 Q144.158 1695.8 144.158 1688.69 Q144.158 1681.56 142.329 1678.02 Q140.524 1674.45 136.89 1674.45 M136.89 1670.75 Q142.7 1670.75 145.755 1675.36 Q148.834 1679.94 148.834 1688.69 Q148.834 1697.42 145.755 1702.02 Q142.7 1706.61 136.89 1706.61 Q131.079 1706.61 128.001 1702.02 Q124.945 1697.42 124.945 1688.69 Q124.945 1679.94 128.001 1675.36 Q131.079 1670.75 136.89 1670.75 Z" fill="#000000" fill-rule="nonzero" fill-opacity="1" /><path clip-path="url(#clip430)" d="M62.4919 1291.93 Q58.8808 1291.93 57.0521 1295.5 Q55.2465 1299.04 55.2465 1306.17 Q55.2465 1313.27 57.0521 1316.84 Q58.8808 1320.38 62.4919 1320.38 Q66.1261 1320.38 67.9317 1316.84 Q69.7604 1313.27 69.7604 1306.17 Q69.7604 1299.04 67.9317 1295.5 Q66.1261 1291.93 62.4919 1291.93 M62.4919 1288.23 Q68.302 1288.23 71.3576 1292.83 Q74.4363 1297.42 74.4363 1306.17 Q74.4363 1314.89 71.3576 1319.5 Q68.302 1324.08 62.4919 1324.08 Q56.6817 1324.08 53.603 1319.5 Q50.5475 1314.89 50.5475 1306.17 Q50.5475 1297.42 53.603 1292.83 Q56.6817 1288.23 62.4919 1288.23 Z" fill="#000000" fill-rule="nonzero" fill-opacity="1" /><path clip-path="url(#clip430)" d="M82.6538 1317.53 L87.538 1317.53 L87.538 1323.41 L82.6538 1323.41 L82.6538 1317.53 Z" fill="#000000" fill-rule="nonzero" fill-opacity="1" /><path clip-path="url(#clip430)" d="M101.751 1319.48 L118.07 1319.48 L118.07 1323.41 L96.126 1323.41 L96.126 1319.48 Q98.788 1316.72 103.371 1312.09 Q107.978 1307.44 109.158 1306.1 Q111.404 1303.57 112.283 1301.84 Q113.186 1300.08 113.186 1298.39 Q113.186 1295.63 111.242 1293.9 Q109.32 1292.16 106.218 1292.16 Q104.019 1292.16 101.566 1292.93 Q99.1352 1293.69 96.3574 1295.24 L96.3574 1290.52 Q99.1815 1289.38 101.635 1288.81 Q104.089 1288.23 106.126 1288.23 Q111.496 1288.23 114.691 1290.91 Q117.885 1293.6 117.885 1298.09 Q117.885 1300.22 117.075 1302.14 Q116.288 1304.04 114.181 1306.63 Q113.603 1307.3 110.501 1310.52 Q107.399 1313.71 101.751 1319.48 Z" fill="#000000" fill-rule="nonzero" fill-opacity="1" /><path clip-path="url(#clip430)" d="M127.931 1288.85 L146.288 1288.85 L146.288 1292.79 L132.214 1292.79 L132.214 1301.26 Q133.232 1300.91 134.251 1300.75 Q135.269 1300.57 136.288 1300.57 Q142.075 1300.57 145.454 1303.74 Q148.834 1306.91 148.834 1312.32 Q148.834 1317.9 145.362 1321.01 Q141.89 1324.08 135.57 1324.08 Q133.394 1324.08 131.126 1323.71 Q128.88 1323.34 126.473 1322.6 L126.473 1317.9 Q128.556 1319.04 130.779 1319.59 Q133.001 1320.15 135.478 1320.15 Q139.482 1320.15 141.82 1318.04 Q144.158 1315.94 144.158 1312.32 Q144.158 1308.71 141.82 1306.61 Q139.482 1304.5 135.478 1304.5 Q133.603 1304.5 131.728 1304.92 Q129.876 1305.33 127.931 1306.21 L127.931 1288.85 Z" fill="#000000" fill-rule="nonzero" fill-opacity="1" /><path clip-path="url(#clip430)" d="M61.4965 909.409 Q57.8854 909.409 56.0567 912.974 Q54.2512 916.515 54.2512 923.645 Q54.2512 930.751 56.0567 934.316 Q57.8854 937.858 61.4965 937.858 Q65.1307 937.858 66.9363 934.316 Q68.765 930.751 68.765 923.645 Q68.765 916.515 66.9363 912.974 Q65.1307 909.409 61.4965 909.409 M61.4965 905.705 Q67.3067 905.705 70.3622 910.312 Q73.4409 914.895 73.4409 923.645 Q73.4409 932.372 70.3622 936.978 Q67.3067 941.561 61.4965 941.561 Q55.6864 941.561 52.6077 936.978 Q49.5521 932.372 49.5521 923.645 Q49.5521 914.895 52.6077 910.312 Q55.6864 905.705 61.4965 905.705 Z" fill="#000000" fill-rule="nonzero" fill-opacity="1" /><path clip-path="url(#clip430)" d="M81.6584 935.011 L86.5427 935.011 L86.5427 940.89 L81.6584 940.89 L81.6584 935.011 Z" fill="#000000" fill-rule="nonzero" fill-opacity="1" /><path clip-path="url(#clip430)" d="M96.7741 906.33 L115.13 906.33 L115.13 910.265 L101.056 910.265 L101.056 918.737 Q102.075 918.39 103.094 918.228 Q104.112 918.043 105.131 918.043 Q110.918 918.043 114.297 921.214 Q117.677 924.386 117.677 929.802 Q117.677 935.381 114.205 938.483 Q110.732 941.561 104.413 941.561 Q102.237 941.561 99.9685 941.191 Q97.7232 940.821 95.3158 940.08 L95.3158 935.381 Q97.3991 936.515 99.6213 937.071 Q101.844 937.626 104.32 937.626 Q108.325 937.626 110.663 935.52 Q113.001 933.413 113.001 929.802 Q113.001 926.191 110.663 924.085 Q108.325 921.978 104.32 921.978 Q102.445 921.978 100.57 922.395 Q98.7185 922.812 96.7741 923.691 L96.7741 906.33 Z" fill="#000000" fill-rule="nonzero" fill-opacity="1" /><path clip-path="url(#clip430)" d="M136.89 909.409 Q133.279 909.409 131.45 912.974 Q129.644 916.515 129.644 923.645 Q129.644 930.751 131.45 934.316 Q133.279 937.858 136.89 937.858 Q140.524 937.858 142.329 934.316 Q144.158 930.751 144.158 923.645 Q144.158 916.515 142.329 912.974 Q140.524 909.409 136.89 909.409 M136.89 905.705 Q142.7 905.705 145.755 910.312 Q148.834 914.895 148.834 923.645 Q148.834 932.372 145.755 936.978 Q142.7 941.561 136.89 941.561 Q131.079 941.561 128.001 936.978 Q124.945 932.372 124.945 923.645 Q124.945 914.895 128.001 910.312 Q131.079 905.705 136.89 905.705 Z" fill="#000000" fill-rule="nonzero" fill-opacity="1" /><path clip-path="url(#clip430)" d="M62.4919 526.886 Q58.8808 526.886 57.0521 530.451 Q55.2465 533.993 55.2465 541.122 Q55.2465 548.229 57.0521 551.794 Q58.8808 555.335 62.4919 555.335 Q66.1261 555.335 67.9317 551.794 Q69.7604 548.229 69.7604 541.122 Q69.7604 533.993 67.9317 530.451 Q66.1261 526.886 62.4919 526.886 M62.4919 523.183 Q68.302 523.183 71.3576 527.789 Q74.4363 532.372 74.4363 541.122 Q74.4363 549.849 71.3576 554.456 Q68.302 559.039 62.4919 559.039 Q56.6817 559.039 53.603 554.456 Q50.5475 549.849 50.5475 541.122 Q50.5475 532.372 53.603 527.789 Q56.6817 523.183 62.4919 523.183 Z" fill="#000000" fill-rule="nonzero" fill-opacity="1" /><path clip-path="url(#clip430)" d="M82.6538 552.488 L87.538 552.488 L87.538 558.368 L82.6538 558.368 L82.6538 552.488 Z" fill="#000000" fill-rule="nonzero" fill-opacity="1" /><path clip-path="url(#clip430)" d="M96.5426 523.808 L118.765 523.808 L118.765 525.798 L106.218 558.368 L101.334 558.368 L113.14 527.743 L96.5426 527.743 L96.5426 523.808 Z" fill="#000000" fill-rule="nonzero" fill-opacity="1" /><path clip-path="url(#clip430)" d="M127.931 523.808 L146.288 523.808 L146.288 527.743 L132.214 527.743 L132.214 536.215 Q133.232 535.868 134.251 535.706 Q135.269 535.521 136.288 535.521 Q142.075 535.521 145.454 538.692 Q148.834 541.863 148.834 547.28 Q148.834 552.858 145.362 555.96 Q141.89 559.039 135.57 559.039 Q133.394 559.039 131.126 558.669 Q128.88 558.298 126.473 557.558 L126.473 552.858 Q128.556 553.993 130.779 554.548 Q133.001 555.104 135.478 555.104 Q139.482 555.104 141.82 552.997 Q144.158 550.891 144.158 547.28 Q144.158 543.669 141.82 541.562 Q139.482 539.456 135.478 539.456 Q133.603 539.456 131.728 539.872 Q129.876 540.289 127.931 541.169 L127.931 523.808 Z" fill="#000000" fill-rule="nonzero" fill-opacity="1" /><path clip-path="url(#clip430)" d="M52.3067 171.91 L59.9456 171.91 L59.9456 145.545 L51.6354 147.211 L51.6354 142.952 L59.8993 141.285 L64.5752 141.285 L64.5752 171.91 L72.214 171.91 L72.214 175.845 L52.3067 175.845 L52.3067 171.91 Z" fill="#000000" fill-rule="nonzero" fill-opacity="1" /><path clip-path="url(#clip430)" d="M81.6584 169.966 L86.5427 169.966 L86.5427 175.845 L81.6584 175.845 L81.6584 169.966 Z" fill="#000000" fill-rule="nonzero" fill-opacity="1" /><path clip-path="url(#clip430)" d="M106.728 144.364 Q103.117 144.364 101.288 147.929 Q99.4824 151.47 99.4824 158.6 Q99.4824 165.706 101.288 169.271 Q103.117 172.813 106.728 172.813 Q110.362 172.813 112.168 169.271 Q113.996 165.706 113.996 158.6 Q113.996 151.47 112.168 147.929 Q110.362 144.364 106.728 144.364 M106.728 140.66 Q112.538 140.66 115.593 145.267 Q118.672 149.85 118.672 158.6 Q118.672 167.327 115.593 171.933 Q112.538 176.517 106.728 176.517 Q100.918 176.517 97.8389 171.933 Q94.7834 167.327 94.7834 158.6 Q94.7834 149.85 97.8389 145.267 Q100.918 140.66 106.728 140.66 Z" fill="#000000" fill-rule="nonzero" fill-opacity="1" /><path clip-path="url(#clip430)" d="M136.89 144.364 Q133.279 144.364 131.45 147.929 Q129.644 151.47 129.644 158.6 Q129.644 165.706 131.45 169.271 Q133.279 172.813 136.89 172.813 Q140.524 172.813 142.329 169.271 Q144.158 165.706 144.158 158.6 Q144.158 151.47 142.329 147.929 Q140.524 144.364 136.89 144.364 M136.89 140.66 Q142.7 140.66 145.755 145.267 Q148.834 149.85 148.834 158.6 Q148.834 167.327 145.755 171.933 Q142.7 176.517 136.89 176.517 Q131.079 176.517 128.001 171.933 Q124.945 167.327 124.945 158.6 Q124.945 149.85 128.001 145.267 Q131.079 140.66 136.89 140.66 Z" fill="#000000" fill-rule="nonzero" fill-opacity="1" /><path clip-path="url(#clip430)" d="M432.722 16.7545 L432.722 25.383 Q428.59 21.5346 423.891 19.6307 Q419.233 17.7268 413.967 17.7268 Q403.596 17.7268 398.087 24.0867 Q392.578 30.4061 392.578 42.3968 Q392.578 54.3469 398.087 60.7069 Q403.596 67.0263 413.967 67.0263 Q419.233 67.0263 423.891 65.1223 Q428.59 63.2184 432.722 59.3701 L432.722 67.9175 Q428.428 70.8341 423.608 72.2924 Q418.828 73.7508 413.48 73.7508 Q399.748 73.7508 391.849 65.3654 Q383.949 56.9395 383.949 42.3968 Q383.949 27.8135 391.849 19.4281 Q399.748 11.0023 413.48 11.0023 Q418.909 11.0023 423.689 12.4606 Q428.509 13.8784 432.722 16.7545 Z" fill="#000000" fill-rule="nonzero" fill-opacity="1" /><path clip-path="url(#clip430)" d="M462.618 32.4315 Q456.623 32.4315 453.139 37.1306 Q449.655 41.7891 449.655 49.9314 Q449.655 58.0738 453.098 62.7728 Q456.582 67.4314 462.618 67.4314 Q468.573 67.4314 472.057 62.7323 Q475.54 58.0333 475.54 49.9314 Q475.54 41.8701 472.057 37.1711 Q468.573 32.4315 462.618 32.4315 M462.618 26.1121 Q472.34 26.1121 477.89 32.4315 Q483.44 38.7509 483.44 49.9314 Q483.44 61.0714 477.89 67.4314 Q472.34 73.7508 462.618 73.7508 Q452.855 73.7508 447.305 67.4314 Q441.796 61.0714 441.796 49.9314 Q441.796 38.7509 447.305 32.4315 Q452.855 26.1121 462.618 26.1121 Z" fill="#000000" fill-rule="nonzero" fill-opacity="1" /><path clip-path="url(#clip430)" d="M528.364 49.9314 Q528.364 41.7081 524.961 37.0496 Q521.599 32.3505 515.685 32.3505 Q509.77 32.3505 506.368 37.0496 Q503.005 41.7081 503.005 49.9314 Q503.005 58.1548 506.368 62.8538 Q509.77 67.5124 515.685 67.5124 Q521.599 67.5124 524.961 62.8538 Q528.364 58.1548 528.364 49.9314 M503.005 34.0924 Q505.355 30.0415 508.92 28.0971 Q512.525 26.1121 517.508 26.1121 Q525.772 26.1121 530.916 32.6746 Q536.101 39.2371 536.101 49.9314 Q536.101 60.6258 530.916 67.1883 Q525.772 73.7508 517.508 73.7508 Q512.525 73.7508 508.92 71.8063 Q505.355 69.8214 503.005 65.7705 L503.005 72.576 L495.511 72.576 L495.511 9.54393 L503.005 9.54393 L503.005 34.0924 Z" fill="#000000" fill-rule="nonzero" fill-opacity="1" /><path clip-path="url(#clip430)" d="M587.264 48.0275 L587.264 51.6733 L552.994 51.6733 Q553.48 59.3701 557.612 63.421 Q561.784 67.4314 569.197 67.4314 Q573.491 67.4314 577.502 66.3781 Q581.552 65.3249 585.522 63.2184 L585.522 70.267 Q581.512 71.9684 577.299 72.8596 Q573.086 73.7508 568.752 73.7508 Q557.895 73.7508 551.535 67.4314 Q545.216 61.1119 545.216 50.3365 Q545.216 39.1965 551.211 32.6746 Q557.247 26.1121 567.455 26.1121 Q576.61 26.1121 581.917 32.0264 Q587.264 37.9003 587.264 48.0275 M579.811 45.84 Q579.73 39.7232 576.367 36.0774 Q573.046 32.4315 567.536 32.4315 Q561.298 32.4315 557.531 35.9558 Q553.804 39.4801 553.237 45.8805 L579.811 45.84 Z" fill="#000000" fill-rule="nonzero" fill-opacity="1" /><path clip-path="url(#clip430)" d="M625.788 34.1734 Q624.533 33.4443 623.034 33.1202 Q621.575 32.7556 619.793 32.7556 Q613.474 32.7556 610.071 36.8875 Q606.709 40.9789 606.709 48.6757 L606.709 72.576 L599.214 72.576 L599.214 27.2059 L606.709 27.2059 L606.709 34.2544 Q609.058 30.1225 612.825 28.1376 Q616.593 26.1121 621.98 26.1121 Q622.75 26.1121 623.682 26.2337 Q624.614 26.3147 625.748 26.5172 L625.788 34.1734 Z" fill="#000000" fill-rule="nonzero" fill-opacity="1" /><path clip-path="url(#clip430)" d="M640.979 14.324 L640.979 27.2059 L656.332 27.2059 L656.332 32.9987 L640.979 32.9987 L640.979 57.6282 Q640.979 63.1779 642.478 64.7578 Q644.017 66.3376 648.676 66.3376 L656.332 66.3376 L656.332 72.576 L648.676 72.576 Q640.048 72.576 636.766 69.3758 Q633.485 66.1351 633.485 57.6282 L633.485 32.9987 L628.016 32.9987 L628.016 27.2059 L633.485 27.2059 L633.485 14.324 L640.979 14.324 Z" fill="#000000" fill-rule="nonzero" fill-opacity="1" /><path clip-path="url(#clip430)" d="M665.366 54.671 L665.366 27.2059 L672.819 27.2059 L672.819 54.3874 Q672.819 60.8284 675.331 64.0691 Q677.842 67.2693 682.866 67.2693 Q688.901 67.2693 692.385 63.421 Q695.909 59.5726 695.909 52.9291 L695.909 27.2059 L703.363 27.2059 L703.363 72.576 L695.909 72.576 L695.909 65.6084 Q693.195 69.7404 689.59 71.7658 Q686.025 73.7508 681.286 73.7508 Q673.467 73.7508 669.417 68.8897 Q665.366 64.0286 665.366 54.671 M684.121 26.1121 L684.121 26.1121 Z" fill="#000000" fill-rule="nonzero" fill-opacity="1" /><path clip-path="url(#clip430)" d="M745.006 34.1734 Q743.751 33.4443 742.252 33.1202 Q740.794 32.7556 739.011 32.7556 Q732.692 32.7556 729.289 36.8875 Q725.927 40.9789 725.927 48.6757 L725.927 72.576 L718.433 72.576 L718.433 27.2059 L725.927 27.2059 L725.927 34.2544 Q728.276 30.1225 732.044 28.1376 Q735.811 26.1121 741.199 26.1121 Q741.968 26.1121 742.9 26.2337 Q743.832 26.3147 744.966 26.5172 L745.006 34.1734 Z" fill="#000000" fill-rule="nonzero" fill-opacity="1" /><path clip-path="url(#clip430)" d="M773.444 49.7694 Q764.41 49.7694 760.927 51.8354 Q757.443 53.9013 757.443 58.8839 Q757.443 62.8538 760.035 65.2034 Q762.668 67.5124 767.165 67.5124 Q773.363 67.5124 777.09 63.1374 Q780.857 58.7219 780.857 51.4303 L780.857 49.7694 L773.444 49.7694 M788.311 46.6907 L788.311 72.576 L780.857 72.576 L780.857 65.6895 Q778.305 69.8214 774.497 71.8063 Q770.689 73.7508 765.18 73.7508 Q758.212 73.7508 754.08 69.8619 Q749.989 65.9325 749.989 59.3701 Q749.989 51.7138 755.093 47.825 Q760.238 43.9361 770.406 43.9361 L780.857 43.9361 L780.857 43.2069 Q780.857 38.0623 777.454 35.2672 Q774.092 32.4315 767.975 32.4315 Q764.086 32.4315 760.4 33.3632 Q756.714 34.295 753.311 36.1584 L753.311 29.2718 Q757.402 27.692 761.251 26.9223 Q765.099 26.1121 768.745 26.1121 Q778.588 26.1121 783.45 31.2163 Q788.311 36.3204 788.311 46.6907 Z" fill="#000000" fill-rule="nonzero" fill-opacity="1" /><path clip-path="url(#clip430)" d="M859.89 34.0924 L859.89 9.54393 L867.344 9.54393 L867.344 72.576 L859.89 72.576 L859.89 65.7705 Q857.541 69.8214 853.935 71.8063 Q850.37 73.7508 845.347 73.7508 Q837.124 73.7508 831.939 67.1883 Q826.794 60.6258 826.794 49.9314 Q826.794 39.2371 831.939 32.6746 Q837.124 26.1121 845.347 26.1121 Q850.37 26.1121 853.935 28.0971 Q857.541 30.0415 859.89 34.0924 M834.491 49.9314 Q834.491 58.1548 837.853 62.8538 Q841.256 67.5124 847.17 67.5124 Q853.085 67.5124 856.487 62.8538 Q859.89 58.1548 859.89 49.9314 Q859.89 41.7081 856.487 37.0496 Q853.085 32.3505 847.17 32.3505 Q841.256 32.3505 837.853 37.0496 Q834.491 41.7081 834.491 49.9314 Z" fill="#000000" fill-rule="nonzero" fill-opacity="1" /><path clip-path="url(#clip430)" d="M900.278 32.4315 Q894.282 32.4315 890.798 37.1306 Q887.315 41.7891 887.315 49.9314 Q887.315 58.0738 890.758 62.7728 Q894.242 67.4314 900.278 67.4314 Q906.232 67.4314 909.716 62.7323 Q913.2 58.0333 913.2 49.9314 Q913.2 41.8701 909.716 37.1711 Q906.232 32.4315 900.278 32.4315 M900.278 26.1121 Q910 26.1121 915.55 32.4315 Q921.099 38.7509 921.099 49.9314 Q921.099 61.0714 915.55 67.4314 Q910 73.7508 900.278 73.7508 Q890.515 73.7508 884.965 67.4314 Q879.456 61.0714 879.456 49.9314 Q879.456 38.7509 884.965 32.4315 Q890.515 26.1121 900.278 26.1121 Z" fill="#000000" fill-rule="nonzero" fill-opacity="1" /><path clip-path="url(#clip430)" d="M962.378 28.5427 L962.378 35.5912 Q959.218 33.9709 955.816 33.1607 Q952.413 32.3505 948.767 32.3505 Q943.217 32.3505 940.422 34.0519 Q937.667 35.7533 937.667 39.156 Q937.667 41.7486 939.652 43.2475 Q941.637 44.7058 947.633 46.0426 L950.185 46.6097 Q958.125 48.3111 961.446 51.4303 Q964.809 54.509 964.809 60.0587 Q964.809 66.3781 959.785 70.0644 Q954.803 73.7508 946.053 73.7508 Q942.407 73.7508 938.437 73.0216 Q934.508 72.3329 930.133 70.9151 L930.133 63.2184 Q934.265 65.3654 938.275 66.4591 Q942.285 67.5124 946.215 67.5124 Q951.481 67.5124 954.317 65.73 Q957.152 63.9071 957.152 60.6258 Q957.152 57.5877 955.086 55.9673 Q953.061 54.3469 946.134 52.8481 L943.541 52.2405 Q936.614 50.7821 933.536 47.7845 Q930.457 44.7463 930.457 39.4801 Q930.457 33.0797 934.994 29.5959 Q939.531 26.1121 947.876 26.1121 Q952.008 26.1121 955.653 26.7198 Q959.299 27.3274 962.378 28.5427 Z" fill="#000000" fill-rule="nonzero" fill-opacity="1" /><path clip-path="url(#clip430)" d="M1003.37 12.096 L1011.56 12.096 L1011.56 72.576 L1003.37 72.576 L1003.37 12.096 Z" fill="#000000" fill-rule="nonzero" fill-opacity="1" /><path clip-path="url(#clip430)" d="M1073.13 16.7545 L1073.13 25.383 Q1069 21.5346 1064.3 19.6307 Q1059.64 17.7268 1054.37 17.7268 Q1044 17.7268 1038.49 24.0867 Q1032.99 30.4061 1032.99 42.3968 Q1032.99 54.3469 1038.49 60.7069 Q1044 67.0263 1054.37 67.0263 Q1059.64 67.0263 1064.3 65.1223 Q1069 63.2184 1073.13 59.3701 L1073.13 67.9175 Q1068.84 70.8341 1064.02 72.2924 Q1059.24 73.7508 1053.89 73.7508 Q1040.16 73.7508 1032.26 65.3654 Q1024.36 56.9395 1024.36 42.3968 Q1024.36 27.8135 1032.26 19.4281 Q1040.16 11.0023 1053.89 11.0023 Q1059.32 11.0023 1064.1 12.4606 Q1068.92 13.8784 1073.13 16.7545 Z" fill="#000000" fill-rule="nonzero" fill-opacity="1" /><path clip-path="url(#clip430)" d="M1114.37 28.5427 L1114.37 35.5912 Q1111.21 33.9709 1107.81 33.1607 Q1104.4 32.3505 1100.76 32.3505 Q1095.21 32.3505 1092.41 34.0519 Q1089.66 35.7533 1089.66 39.156 Q1089.66 41.7486 1091.64 43.2475 Q1093.63 44.7058 1099.62 46.0426 L1102.17 46.6097 Q1110.11 48.3111 1113.44 51.4303 Q1116.8 54.509 1116.8 60.0587 Q1116.8 66.3781 1111.78 70.0644 Q1106.79 73.7508 1098.04 73.7508 Q1094.4 73.7508 1090.43 73.0216 Q1086.5 72.3329 1082.12 70.9151 L1082.12 63.2184 Q1086.25 65.3654 1090.27 66.4591 Q1094.28 67.5124 1098.2 67.5124 Q1103.47 67.5124 1106.31 65.73 Q1109.14 63.9071 1109.14 60.6258 Q1109.14 57.5877 1107.08 55.9673 Q1105.05 54.3469 1098.12 52.8481 L1095.53 52.2405 Q1088.6 50.7821 1085.53 47.7845 Q1082.45 44.7463 1082.45 39.4801 Q1082.45 33.0797 1086.98 29.5959 Q1091.52 26.1121 1099.87 26.1121 Q1104 26.1121 1107.64 26.7198 Q1111.29 27.3274 1114.37 28.5427 Z" fill="#000000" fill-rule="nonzero" fill-opacity="1" /><circle clip-path="url(#clip432)" cx="220.921" cy="1688.65" r="14.4" fill="#ff0000" fill-rule="evenodd" fill-opacity="1" stroke="#000000" stroke-opacity="1" stroke-width="3.84"/>
<circle clip-path="url(#clip432)" cx="338.577" cy="1688.65" r="14.4" fill="#ff0000" fill-rule="evenodd" fill-opacity="1" stroke="#000000" stroke-opacity="1" stroke-width="3.84"/>
<circle clip-path="url(#clip432)" cx="456.233" cy="1688.65" r="14.4" fill="#ff0000" fill-rule="evenodd" fill-opacity="1" stroke="#000000" stroke-opacity="1" stroke-width="3.84"/>
<circle clip-path="url(#clip432)" cx="573.89" cy="1688.65" r="14.4" fill="#ff0000" fill-rule="evenodd" fill-opacity="1" stroke="#000000" stroke-opacity="1" stroke-width="3.84"/>
<circle clip-path="url(#clip432)" cx="691.546" cy="1688.65" r="14.4" fill="#ff0000" fill-rule="evenodd" fill-opacity="1" stroke="#000000" stroke-opacity="1" stroke-width="3.84"/>
<circle clip-path="url(#clip432)" cx="809.202" cy="1688.65" r="14.4" fill="#ff0000" fill-rule="evenodd" fill-opacity="1" stroke="#000000" stroke-opacity="1" stroke-width="3.84"/>
<circle clip-path="url(#clip432)" cx="926.858" cy="1688.65" r="14.4" fill="#ff0000" fill-rule="evenodd" fill-opacity="1" stroke="#000000" stroke-opacity="1" stroke-width="3.84"/>
<circle clip-path="url(#clip432)" cx="1044.51" cy="1688.65" r="14.4" fill="#ff0000" fill-rule="evenodd" fill-opacity="1" stroke="#000000" stroke-opacity="1" stroke-width="3.84"/>
<circle clip-path="url(#clip432)" cx="1162.17" cy="1688.65" r="14.4" fill="#ff0000" fill-rule="evenodd" fill-opacity="1" stroke="#000000" stroke-opacity="1" stroke-width="3.84"/>
<circle clip-path="url(#clip432)" cx="1279.83" cy="1688.65" r="14.4" fill="#ff0000" fill-rule="evenodd" fill-opacity="1" stroke="#000000" stroke-opacity="1" stroke-width="3.84"/>
<path clip-path="url(#clip430)" d="M1518.32 1734.12 L2640.76 1734.12 L2640.76 127.792 L1518.32 127.792  Z" fill="#ffffff" fill-rule="evenodd" fill-opacity="1"/>
<defs>
  <clipPath id="clip433">
    <rect x="1518" y="127" width="1123" height="1607"/>
  </clipPath>
</defs>
<polyline clip-path="url(#clip433)" style="stroke:#000000; stroke-linecap:round; stroke-linejoin:round; stroke-width:2; stroke-opacity:0.1; fill:none" points="1538.32,1734.12 1538.32,127.792 "/>
<polyline clip-path="url(#clip433)" style="stroke:#000000; stroke-linecap:round; stroke-linejoin:round; stroke-width:2; stroke-opacity:0.1; fill:none" points="1773.63,1734.12 1773.63,127.792 "/>
<polyline clip-path="url(#clip433)" style="stroke:#000000; stroke-linecap:round; stroke-linejoin:round; stroke-width:2; stroke-opacity:0.1; fill:none" points="2008.94,1734.12 2008.94,127.792 "/>
<polyline clip-path="url(#clip433)" style="stroke:#000000; stroke-linecap:round; stroke-linejoin:round; stroke-width:2; stroke-opacity:0.1; fill:none" points="2244.25,1734.12 2244.25,127.792 "/>
<polyline clip-path="url(#clip433)" style="stroke:#000000; stroke-linecap:round; stroke-linejoin:round; stroke-width:2; stroke-opacity:0.1; fill:none" points="2479.57,1734.12 2479.57,127.792 "/>
<polyline clip-path="url(#clip433)" style="stroke:#000000; stroke-linecap:round; stroke-linejoin:round; stroke-width:2; stroke-opacity:0.1; fill:none" points="1518.32,1688.65 2640.76,1688.65 "/>
<polyline clip-path="url(#clip433)" style="stroke:#000000; stroke-linecap:round; stroke-linejoin:round; stroke-width:2; stroke-opacity:0.1; fill:none" points="1518.32,1394.49 2640.76,1394.49 "/>
<polyline clip-path="url(#clip433)" style="stroke:#000000; stroke-linecap:round; stroke-linejoin:round; stroke-width:2; stroke-opacity:0.1; fill:none" points="1518.32,1100.32 2640.76,1100.32 "/>
<polyline clip-path="url(#clip433)" style="stroke:#000000; stroke-linecap:round; stroke-linejoin:round; stroke-width:2; stroke-opacity:0.1; fill:none" points="1518.32,806.154 2640.76,806.154 "/>
<polyline clip-path="url(#clip433)" style="stroke:#000000; stroke-linecap:round; stroke-linejoin:round; stroke-width:2; stroke-opacity:0.1; fill:none" points="1518.32,511.987 2640.76,511.987 "/>
<polyline clip-path="url(#clip433)" style="stroke:#000000; stroke-linecap:round; stroke-linejoin:round; stroke-width:2; stroke-opacity:0.1; fill:none" points="1518.32,217.82 2640.76,217.82 "/>
<polyline clip-path="url(#clip430)" style="stroke:#000000; stroke-linecap:round; stroke-linejoin:round; stroke-width:4; stroke-opacity:1; fill:none" points="1518.32,1734.12 2640.76,1734.12 "/>
<polyline clip-path="url(#clip430)" style="stroke:#000000; stroke-linecap:round; stroke-linejoin:round; stroke-width:4; stroke-opacity:1; fill:none" points="1538.32,1734.12 1538.32,1715.22 "/>
<polyline clip-path="url(#clip430)" style="stroke:#000000; stroke-linecap:round; stroke-linejoin:round; stroke-width:4; stroke-opacity:1; fill:none" points="1773.63,1734.12 1773.63,1715.22 "/>
<polyline clip-path="url(#clip430)" style="stroke:#000000; stroke-linecap:round; stroke-linejoin:round; stroke-width:4; stroke-opacity:1; fill:none" points="2008.94,1734.12 2008.94,1715.22 "/>
<polyline clip-path="url(#clip430)" style="stroke:#000000; stroke-linecap:round; stroke-linejoin:round; stroke-width:4; stroke-opacity:1; fill:none" points="2244.25,1734.12 2244.25,1715.22 "/>
<polyline clip-path="url(#clip430)" style="stroke:#000000; stroke-linecap:round; stroke-linejoin:round; stroke-width:4; stroke-opacity:1; fill:none" points="2479.57,1734.12 2479.57,1715.22 "/>
<path clip-path="url(#clip430)" d="M1538.32 1767.34 Q1534.71 1767.34 1532.88 1770.9 Q1531.07 1774.45 1531.07 1781.58 Q1531.07 1788.68 1532.88 1792.25 Q1534.71 1795.79 1538.32 1795.79 Q1541.95 1795.79 1543.76 1792.25 Q1545.59 1788.68 1545.59 1781.58 Q1545.59 1774.45 1543.76 1770.9 Q1541.95 1767.34 1538.32 1767.34 M1538.32 1763.64 Q1544.13 1763.64 1547.18 1768.24 Q1550.26 1772.83 1550.26 1781.58 Q1550.26 1790.3 1547.18 1794.91 Q1544.13 1799.49 1538.32 1799.49 Q1532.51 1799.49 1529.43 1794.91 Q1526.37 1790.3 1526.37 1781.58 Q1526.37 1772.83 1529.43 1768.24 Q1532.51 1763.64 1538.32 1763.64 Z" fill="#000000" fill-rule="nonzero" fill-opacity="1" /><path clip-path="url(#clip430)" d="M1737.32 1794.89 L1753.64 1794.89 L1753.64 1798.82 L1731.7 1798.82 L1731.7 1794.89 Q1734.36 1792.13 1738.94 1787.5 Q1743.55 1782.85 1744.73 1781.51 Q1746.98 1778.98 1747.85 1777.25 Q1748.76 1775.49 1748.76 1773.8 Q1748.76 1771.04 1746.81 1769.31 Q1744.89 1767.57 1741.79 1767.57 Q1739.59 1767.57 1737.14 1768.34 Q1734.71 1769.1 1731.93 1770.65 L1731.93 1765.93 Q1734.75 1764.79 1737.21 1764.21 Q1739.66 1763.64 1741.7 1763.64 Q1747.07 1763.64 1750.26 1766.32 Q1753.46 1769.01 1753.46 1773.5 Q1753.46 1775.63 1752.65 1777.55 Q1751.86 1779.45 1749.75 1782.04 Q1749.17 1782.71 1746.07 1785.93 Q1742.97 1789.12 1737.32 1794.89 Z" fill="#000000" fill-rule="nonzero" fill-opacity="1" /><path clip-path="url(#clip430)" d="M1773.46 1767.34 Q1769.85 1767.34 1768.02 1770.9 Q1766.21 1774.45 1766.21 1781.58 Q1766.21 1788.68 1768.02 1792.25 Q1769.85 1795.79 1773.46 1795.79 Q1777.09 1795.79 1778.9 1792.25 Q1780.72 1788.68 1780.72 1781.58 Q1780.72 1774.45 1778.9 1770.9 Q1777.09 1767.34 1773.46 1767.34 M1773.46 1763.64 Q1779.27 1763.64 1782.32 1768.24 Q1785.4 1772.83 1785.4 1781.58 Q1785.4 1790.3 1782.32 1794.91 Q1779.27 1799.49 1773.46 1799.49 Q1767.65 1799.49 1764.57 1794.91 Q1761.51 1790.3 1761.51 1781.58 Q1761.51 1772.83 1764.57 1768.24 Q1767.65 1763.64 1773.46 1763.64 Z" fill="#000000" fill-rule="nonzero" fill-opacity="1" /><path clip-path="url(#clip430)" d="M1803.62 1767.34 Q1800.01 1767.34 1798.18 1770.9 Q1796.37 1774.45 1796.37 1781.58 Q1796.37 1788.68 1798.18 1792.25 Q1800.01 1795.79 1803.62 1795.79 Q1807.25 1795.79 1809.06 1792.25 Q1810.89 1788.68 1810.89 1781.58 Q1810.89 1774.45 1809.06 1770.9 Q1807.25 1767.34 1803.62 1767.34 M1803.62 1763.64 Q1809.43 1763.64 1812.48 1768.24 Q1815.56 1772.83 1815.56 1781.58 Q1815.56 1790.3 1812.48 1794.91 Q1809.43 1799.49 1803.62 1799.49 Q1797.81 1799.49 1794.73 1794.91 Q1791.67 1790.3 1791.67 1781.58 Q1791.67 1772.83 1794.73 1768.24 Q1797.81 1763.64 1803.62 1763.64 Z" fill="#000000" fill-rule="nonzero" fill-opacity="1" /><path clip-path="url(#clip430)" d="M1982.03 1768.34 L1970.23 1786.78 L1982.03 1786.78 L1982.03 1768.34 M1980.81 1764.26 L1986.69 1764.26 L1986.69 1786.78 L1991.62 1786.78 L1991.62 1790.67 L1986.69 1790.67 L1986.69 1798.82 L1982.03 1798.82 L1982.03 1790.67 L1966.43 1790.67 L1966.43 1786.16 L1980.81 1764.26 Z" fill="#000000" fill-rule="nonzero" fill-opacity="1" /><path clip-path="url(#clip430)" d="M2009.35 1767.34 Q2005.74 1767.34 2003.91 1770.9 Q2002.1 1774.45 2002.1 1781.58 Q2002.1 1788.68 2003.91 1792.25 Q2005.74 1795.79 2009.35 1795.79 Q2012.98 1795.79 2014.79 1792.25 Q2016.62 1788.68 2016.62 1781.58 Q2016.62 1774.45 2014.79 1770.9 Q2012.98 1767.34 2009.35 1767.34 M2009.35 1763.64 Q2015.16 1763.64 2018.21 1768.24 Q2021.29 1772.83 2021.29 1781.58 Q2021.29 1790.3 2018.21 1794.91 Q2015.16 1799.49 2009.35 1799.49 Q2003.54 1799.49 2000.46 1794.91 Q1997.4 1790.3 1997.4 1781.58 Q1997.4 1772.83 2000.46 1768.24 Q2003.54 1763.64 2009.35 1763.64 Z" fill="#000000" fill-rule="nonzero" fill-opacity="1" /><path clip-path="url(#clip430)" d="M2039.51 1767.34 Q2035.9 1767.34 2034.07 1770.9 Q2032.26 1774.45 2032.26 1781.58 Q2032.26 1788.68 2034.07 1792.25 Q2035.9 1795.79 2039.51 1795.79 Q2043.14 1795.79 2044.95 1792.25 Q2046.78 1788.68 2046.78 1781.58 Q2046.78 1774.45 2044.95 1770.9 Q2043.14 1767.34 2039.51 1767.34 M2039.51 1763.64 Q2045.32 1763.64 2048.37 1768.24 Q2051.45 1772.83 2051.45 1781.58 Q2051.45 1790.3 2048.37 1794.91 Q2045.32 1799.49 2039.51 1799.49 Q2033.7 1799.49 2030.62 1794.91 Q2027.56 1790.3 2027.56 1781.58 Q2027.56 1772.83 2030.62 1768.24 Q2033.7 1763.64 2039.51 1763.64 Z" fill="#000000" fill-rule="nonzero" fill-opacity="1" /><path clip-path="url(#clip430)" d="M2214.58 1779.68 Q2211.43 1779.68 2209.58 1781.83 Q2207.75 1783.98 2207.75 1787.73 Q2207.75 1791.46 2209.58 1793.64 Q2211.43 1795.79 2214.58 1795.79 Q2217.73 1795.79 2219.56 1793.64 Q2221.41 1791.46 2221.41 1787.73 Q2221.41 1783.98 2219.56 1781.83 Q2217.73 1779.68 2214.58 1779.68 M2223.86 1765.02 L2223.86 1769.28 Q2222.1 1768.45 2220.3 1768.01 Q2218.51 1767.57 2216.75 1767.57 Q2212.13 1767.57 2209.67 1770.7 Q2207.24 1773.82 2206.89 1780.14 Q2208.26 1778.13 2210.32 1777.06 Q2212.38 1775.97 2214.86 1775.97 Q2220.06 1775.97 2223.07 1779.15 Q2226.11 1782.29 2226.11 1787.73 Q2226.11 1793.06 2222.96 1796.27 Q2219.81 1799.49 2214.58 1799.49 Q2208.58 1799.49 2205.41 1794.91 Q2202.24 1790.3 2202.24 1781.58 Q2202.24 1773.38 2206.13 1768.52 Q2210.02 1763.64 2216.57 1763.64 Q2218.33 1763.64 2220.11 1763.98 Q2221.92 1764.33 2223.86 1765.02 Z" fill="#000000" fill-rule="nonzero" fill-opacity="1" /><path clip-path="url(#clip430)" d="M2244.16 1767.34 Q2240.55 1767.34 2238.72 1770.9 Q2236.92 1774.45 2236.92 1781.58 Q2236.92 1788.68 2238.72 1792.25 Q2240.55 1795.79 2244.16 1795.79 Q2247.8 1795.79 2249.6 1792.25 Q2251.43 1788.68 2251.43 1781.58 Q2251.43 1774.45 2249.6 1770.9 Q2247.8 1767.34 2244.16 1767.34 M2244.16 1763.64 Q2249.97 1763.64 2253.03 1768.24 Q2256.11 1772.83 2256.11 1781.58 Q2256.11 1790.3 2253.03 1794.91 Q2249.97 1799.49 2244.16 1799.49 Q2238.35 1799.49 2235.27 1794.91 Q2232.22 1790.3 2232.22 1781.58 Q2232.22 1772.83 2235.27 1768.24 Q2238.35 1763.64 2244.16 1763.64 Z" fill="#000000" fill-rule="nonzero" fill-opacity="1" /><path clip-path="url(#clip430)" d="M2274.32 1767.34 Q2270.71 1767.34 2268.88 1770.9 Q2267.08 1774.45 2267.08 1781.58 Q2267.08 1788.68 2268.88 1792.25 Q2270.71 1795.79 2274.32 1795.79 Q2277.96 1795.79 2279.76 1792.25 Q2281.59 1788.68 2281.59 1781.58 Q2281.59 1774.45 2279.76 1770.9 Q2277.96 1767.34 2274.32 1767.34 M2274.32 1763.64 Q2280.13 1763.64 2283.19 1768.24 Q2286.27 1772.83 2286.27 1781.58 Q2286.27 1790.3 2283.19 1794.91 Q2280.13 1799.49 2274.32 1799.49 Q2268.51 1799.49 2265.44 1794.91 Q2262.38 1790.3 2262.38 1781.58 Q2262.38 1772.83 2265.44 1768.24 Q2268.51 1763.64 2274.32 1763.64 Z" fill="#000000" fill-rule="nonzero" fill-opacity="1" /><path clip-path="url(#clip430)" d="M2449.36 1782.41 Q2446.03 1782.41 2444.1 1784.19 Q2442.21 1785.97 2442.21 1789.1 Q2442.21 1792.22 2444.1 1794.01 Q2446.03 1795.79 2449.36 1795.79 Q2452.69 1795.79 2454.61 1794.01 Q2456.53 1792.2 2456.53 1789.1 Q2456.53 1785.97 2454.61 1784.19 Q2452.72 1782.41 2449.36 1782.41 M2444.68 1780.42 Q2441.67 1779.68 2439.98 1777.62 Q2438.32 1775.56 2438.32 1772.59 Q2438.32 1768.45 2441.26 1766.04 Q2444.22 1763.64 2449.36 1763.64 Q2454.52 1763.64 2457.46 1766.04 Q2460.4 1768.45 2460.4 1772.59 Q2460.4 1775.56 2458.71 1777.62 Q2457.04 1779.68 2454.06 1780.42 Q2457.44 1781.21 2459.31 1783.5 Q2461.21 1785.79 2461.21 1789.1 Q2461.21 1794.12 2458.13 1796.81 Q2455.08 1799.49 2449.36 1799.49 Q2443.64 1799.49 2440.56 1796.81 Q2437.51 1794.12 2437.51 1789.1 Q2437.51 1785.79 2439.41 1783.5 Q2441.3 1781.21 2444.68 1780.42 M2442.97 1773.03 Q2442.97 1775.72 2444.64 1777.22 Q2446.33 1778.73 2449.36 1778.73 Q2452.37 1778.73 2454.06 1777.22 Q2455.77 1775.72 2455.77 1773.03 Q2455.77 1770.35 2454.06 1768.84 Q2452.37 1767.34 2449.36 1767.34 Q2446.33 1767.34 2444.64 1768.84 Q2442.97 1770.35 2442.97 1773.03 Z" fill="#000000" fill-rule="nonzero" fill-opacity="1" /><path clip-path="url(#clip430)" d="M2479.52 1767.34 Q2475.91 1767.34 2474.08 1770.9 Q2472.28 1774.45 2472.28 1781.58 Q2472.28 1788.68 2474.08 1792.25 Q2475.91 1795.79 2479.52 1795.79 Q2483.15 1795.79 2484.96 1792.25 Q2486.79 1788.68 2486.79 1781.58 Q2486.79 1774.45 2484.96 1770.9 Q2483.15 1767.34 2479.52 1767.34 M2479.52 1763.64 Q2485.33 1763.64 2488.39 1768.24 Q2491.47 1772.83 2491.47 1781.58 Q2491.47 1790.3 2488.39 1794.91 Q2485.33 1799.49 2479.52 1799.49 Q2473.71 1799.49 2470.63 1794.91 Q2467.58 1790.3 2467.58 1781.58 Q2467.58 1772.83 2470.63 1768.24 Q2473.71 1763.64 2479.52 1763.64 Z" fill="#000000" fill-rule="nonzero" fill-opacity="1" /><path clip-path="url(#clip430)" d="M2509.68 1767.34 Q2506.07 1767.34 2504.24 1770.9 Q2502.44 1774.45 2502.44 1781.58 Q2502.44 1788.68 2504.24 1792.25 Q2506.07 1795.79 2509.68 1795.79 Q2513.32 1795.79 2515.12 1792.25 Q2516.95 1788.68 2516.95 1781.58 Q2516.95 1774.45 2515.12 1770.9 Q2513.32 1767.34 2509.68 1767.34 M2509.68 1763.64 Q2515.49 1763.64 2518.55 1768.24 Q2521.63 1772.83 2521.63 1781.58 Q2521.63 1790.3 2518.55 1794.91 Q2515.49 1799.49 2509.68 1799.49 Q2503.87 1799.49 2500.79 1794.91 Q2497.74 1790.3 2497.74 1781.58 Q2497.74 1772.83 2500.79 1768.24 Q2503.87 1763.64 2509.68 1763.64 Z" fill="#000000" fill-rule="nonzero" fill-opacity="1" /><path clip-path="url(#clip430)" d="M2094.46 1861.78 L2094.46 1883.3 L2088.61 1883.3 L2088.61 1861.98 Q2088.61 1856.92 2086.63 1854.4 Q2084.66 1851.89 2080.71 1851.89 Q2075.97 1851.89 2073.23 1854.91 Q2070.5 1857.93 2070.5 1863.15 L2070.5 1883.3 L2064.61 1883.3 L2064.61 1847.65 L2070.5 1847.65 L2070.5 1853.19 Q2072.6 1849.98 2075.43 1848.39 Q2078.29 1846.79 2082.02 1846.79 Q2088.16 1846.79 2091.31 1850.61 Q2094.46 1854.4 2094.46 1861.78 Z" fill="#000000" fill-rule="nonzero" fill-opacity="1" /><polyline clip-path="url(#clip430)" style="stroke:#000000; stroke-linecap:round; stroke-linejoin:round; stroke-width:4; stroke-opacity:1; fill:none" points="1518.32,1734.12 1518.32,127.792 "/>
<polyline clip-path="url(#clip430)" style="stroke:#000000; stroke-linecap:round; stroke-linejoin:round; stroke-width:4; stroke-opacity:1; fill:none" points="1518.32,1688.65 1537.21,1688.65 "/>
<polyline clip-path="url(#clip430)" style="stroke:#000000; stroke-linecap:round; stroke-linejoin:round; stroke-width:4; stroke-opacity:1; fill:none" points="1518.32,1394.49 1537.21,1394.49 "/>
<polyline clip-path="url(#clip430)" style="stroke:#000000; stroke-linecap:round; stroke-linejoin:round; stroke-width:4; stroke-opacity:1; fill:none" points="1518.32,1100.32 1537.21,1100.32 "/>
<polyline clip-path="url(#clip430)" style="stroke:#000000; stroke-linecap:round; stroke-linejoin:round; stroke-width:4; stroke-opacity:1; fill:none" points="1518.32,806.154 1537.21,806.154 "/>
<polyline clip-path="url(#clip430)" style="stroke:#000000; stroke-linecap:round; stroke-linejoin:round; stroke-width:4; stroke-opacity:1; fill:none" points="1518.32,511.987 1537.21,511.987 "/>
<polyline clip-path="url(#clip430)" style="stroke:#000000; stroke-linecap:round; stroke-linejoin:round; stroke-width:4; stroke-opacity:1; fill:none" points="1518.32,217.82 1537.21,217.82 "/>
<path clip-path="url(#clip430)" d="M1420.82 1674.45 Q1417.21 1674.45 1415.38 1678.02 Q1413.58 1681.56 1413.58 1688.69 Q1413.58 1695.8 1415.38 1699.36 Q1417.21 1702.9 1420.82 1702.9 Q1424.45 1702.9 1426.26 1699.36 Q1428.09 1695.8 1428.09 1688.69 Q1428.09 1681.56 1426.26 1678.02 Q1424.45 1674.45 1420.82 1674.45 M1420.82 1670.75 Q1426.63 1670.75 1429.69 1675.36 Q1432.76 1679.94 1432.76 1688.69 Q1432.76 1697.42 1429.69 1702.02 Q1426.63 1706.61 1420.82 1706.61 Q1415.01 1706.61 1411.93 1702.02 Q1408.88 1697.42 1408.88 1688.69 Q1408.88 1679.94 1411.93 1675.36 Q1415.01 1670.75 1420.82 1670.75 Z" fill="#000000" fill-rule="nonzero" fill-opacity="1" /><path clip-path="url(#clip430)" d="M1440.98 1700.06 L1445.87 1700.06 L1445.87 1705.93 L1440.98 1705.93 L1440.98 1700.06 Z" fill="#000000" fill-rule="nonzero" fill-opacity="1" /><path clip-path="url(#clip430)" d="M1466.05 1674.45 Q1462.44 1674.45 1460.61 1678.02 Q1458.81 1681.56 1458.81 1688.69 Q1458.81 1695.8 1460.61 1699.36 Q1462.44 1702.9 1466.05 1702.9 Q1469.69 1702.9 1471.49 1699.36 Q1473.32 1695.8 1473.32 1688.69 Q1473.32 1681.56 1471.49 1678.02 Q1469.69 1674.45 1466.05 1674.45 M1466.05 1670.75 Q1471.86 1670.75 1474.92 1675.36 Q1478 1679.94 1478 1688.69 Q1478 1697.42 1474.92 1702.02 Q1471.86 1706.61 1466.05 1706.61 Q1460.24 1706.61 1457.16 1702.02 Q1454.11 1697.42 1454.11 1688.69 Q1454.11 1679.94 1457.16 1675.36 Q1460.24 1670.75 1466.05 1670.75 Z" fill="#000000" fill-rule="nonzero" fill-opacity="1" /><path clip-path="url(#clip430)" d="M1422.05 1380.29 Q1418.44 1380.29 1416.61 1383.85 Q1414.8 1387.39 1414.8 1394.52 Q1414.8 1401.63 1416.61 1405.19 Q1418.44 1408.74 1422.05 1408.74 Q1425.68 1408.74 1427.49 1405.19 Q1429.32 1401.63 1429.32 1394.52 Q1429.32 1387.39 1427.49 1383.85 Q1425.68 1380.29 1422.05 1380.29 M1422.05 1376.58 Q1427.86 1376.58 1430.91 1381.19 Q1433.99 1385.77 1433.99 1394.52 Q1433.99 1403.25 1430.91 1407.86 Q1427.86 1412.44 1422.05 1412.44 Q1416.24 1412.44 1413.16 1407.86 Q1410.1 1403.25 1410.1 1394.52 Q1410.1 1385.77 1413.16 1381.19 Q1416.24 1376.58 1422.05 1376.58 Z" fill="#000000" fill-rule="nonzero" fill-opacity="1" /><path clip-path="url(#clip430)" d="M1442.21 1405.89 L1447.09 1405.89 L1447.09 1411.77 L1442.21 1411.77 L1442.21 1405.89 Z" fill="#000000" fill-rule="nonzero" fill-opacity="1" /><path clip-path="url(#clip430)" d="M1458.09 1407.83 L1465.73 1407.83 L1465.73 1381.47 L1457.42 1383.13 L1457.42 1378.87 L1465.68 1377.21 L1470.36 1377.21 L1470.36 1407.83 L1478 1407.83 L1478 1411.77 L1458.09 1411.77 L1458.09 1407.83 Z" fill="#000000" fill-rule="nonzero" fill-opacity="1" /><path clip-path="url(#clip430)" d="M1422.42 1086.12 Q1418.81 1086.12 1416.98 1089.68 Q1415.17 1093.23 1415.17 1100.36 Q1415.17 1107.46 1416.98 1111.03 Q1418.81 1114.57 1422.42 1114.57 Q1426.05 1114.57 1427.86 1111.03 Q1429.69 1107.46 1429.69 1100.36 Q1429.69 1093.23 1427.86 1089.68 Q1426.05 1086.12 1422.42 1086.12 M1422.42 1082.42 Q1428.23 1082.42 1431.28 1087.02 Q1434.36 1091.61 1434.36 1100.36 Q1434.36 1109.08 1431.28 1113.69 Q1428.23 1118.27 1422.42 1118.27 Q1416.61 1118.27 1413.53 1113.69 Q1410.47 1109.08 1410.47 1100.36 Q1410.47 1091.61 1413.53 1087.02 Q1416.61 1082.42 1422.42 1082.42 Z" fill="#000000" fill-rule="nonzero" fill-opacity="1" /><path clip-path="url(#clip430)" d="M1442.58 1111.72 L1447.46 1111.72 L1447.46 1117.6 L1442.58 1117.6 L1442.58 1111.72 Z" fill="#000000" fill-rule="nonzero" fill-opacity="1" /><path clip-path="url(#clip430)" d="M1461.68 1113.67 L1478 1113.67 L1478 1117.6 L1456.05 1117.6 L1456.05 1113.67 Q1458.71 1110.91 1463.3 1106.28 Q1467.9 1101.63 1469.08 1100.29 Q1471.33 1097.76 1472.21 1096.03 Q1473.11 1094.27 1473.11 1092.58 Q1473.11 1089.82 1471.17 1088.09 Q1469.25 1086.35 1466.14 1086.35 Q1463.95 1086.35 1461.49 1087.12 Q1459.06 1087.88 1456.28 1089.43 L1456.28 1084.71 Q1459.11 1083.57 1461.56 1082.99 Q1464.01 1082.42 1466.05 1082.42 Q1471.42 1082.42 1474.62 1085.1 Q1477.81 1087.79 1477.81 1092.28 Q1477.81 1094.41 1477 1096.33 Q1476.21 1098.23 1474.11 1100.82 Q1473.53 1101.49 1470.43 1104.71 Q1467.32 1107.9 1461.68 1113.67 Z" fill="#000000" fill-rule="nonzero" fill-opacity="1" /><path clip-path="url(#clip430)" d="M1421.47 791.953 Q1417.86 791.953 1416.03 795.517 Q1414.22 799.059 1414.22 806.189 Q1414.22 813.295 1416.03 816.86 Q1417.86 820.402 1421.47 820.402 Q1425.1 820.402 1426.91 816.86 Q1428.74 813.295 1428.74 806.189 Q1428.74 799.059 1426.91 795.517 Q1425.1 791.953 1421.47 791.953 M1421.47 788.249 Q1427.28 788.249 1430.33 792.855 Q1433.41 797.439 1433.41 806.189 Q1433.41 814.916 1430.33 819.522 Q1427.28 824.105 1421.47 824.105 Q1415.66 824.105 1412.58 819.522 Q1409.52 814.916 1409.52 806.189 Q1409.52 797.439 1412.58 792.855 Q1415.66 788.249 1421.47 788.249 Z" fill="#000000" fill-rule="nonzero" fill-opacity="1" /><path clip-path="url(#clip430)" d="M1441.63 817.554 L1446.51 817.554 L1446.51 823.434 L1441.63 823.434 L1441.63 817.554 Z" fill="#000000" fill-rule="nonzero" fill-opacity="1" /><path clip-path="url(#clip430)" d="M1470.87 804.8 Q1474.22 805.517 1476.1 807.786 Q1478 810.054 1478 813.388 Q1478 818.503 1474.48 821.304 Q1470.96 824.105 1464.48 824.105 Q1462.3 824.105 1459.99 823.665 Q1457.7 823.249 1455.24 822.392 L1455.24 817.878 Q1457.19 819.013 1459.5 819.591 Q1461.82 820.17 1464.34 820.17 Q1468.74 820.17 1471.03 818.434 Q1473.34 816.698 1473.34 813.388 Q1473.34 810.332 1471.19 808.619 Q1469.06 806.883 1465.24 806.883 L1461.21 806.883 L1461.21 803.041 L1465.43 803.041 Q1468.88 803.041 1470.7 801.675 Q1472.53 800.286 1472.53 797.693 Q1472.53 795.031 1470.64 793.619 Q1468.76 792.184 1465.24 792.184 Q1463.32 792.184 1461.12 792.601 Q1458.92 793.018 1456.28 793.897 L1456.28 789.73 Q1458.95 788.99 1461.26 788.619 Q1463.6 788.249 1465.66 788.249 Q1470.98 788.249 1474.08 790.68 Q1477.19 793.087 1477.19 797.207 Q1477.19 800.078 1475.54 802.068 Q1473.9 804.036 1470.87 804.8 Z" fill="#000000" fill-rule="nonzero" fill-opacity="1" /><path clip-path="url(#clip430)" d="M1420.33 497.786 Q1416.72 497.786 1414.89 501.351 Q1413.09 504.892 1413.09 512.022 Q1413.09 519.128 1414.89 522.693 Q1416.72 526.235 1420.33 526.235 Q1423.97 526.235 1425.77 522.693 Q1427.6 519.128 1427.6 512.022 Q1427.6 504.892 1425.77 501.351 Q1423.97 497.786 1420.33 497.786 M1420.33 494.082 Q1426.14 494.082 1429.2 498.688 Q1432.28 503.272 1432.28 512.022 Q1432.28 520.749 1429.2 525.355 Q1426.14 529.938 1420.33 529.938 Q1414.52 529.938 1411.45 525.355 Q1408.39 520.749 1408.39 512.022 Q1408.39 503.272 1411.45 498.688 Q1414.52 494.082 1420.33 494.082 Z" fill="#000000" fill-rule="nonzero" fill-opacity="1" /><path clip-path="url(#clip430)" d="M1440.5 523.387 L1445.38 523.387 L1445.38 529.267 L1440.5 529.267 L1440.5 523.387 Z" fill="#000000" fill-rule="nonzero" fill-opacity="1" /><path clip-path="url(#clip430)" d="M1468.41 498.781 L1456.61 517.23 L1468.41 517.23 L1468.41 498.781 M1467.19 494.707 L1473.07 494.707 L1473.07 517.23 L1478 517.23 L1478 521.119 L1473.07 521.119 L1473.07 529.267 L1468.41 529.267 L1468.41 521.119 L1452.81 521.119 L1452.81 516.605 L1467.19 494.707 Z" fill="#000000" fill-rule="nonzero" fill-opacity="1" /><path clip-path="url(#clip430)" d="M1421.82 203.619 Q1418.2 203.619 1416.38 207.184 Q1414.57 210.725 1414.57 217.855 Q1414.57 224.961 1416.38 228.526 Q1418.2 232.068 1421.82 232.068 Q1425.45 232.068 1427.26 228.526 Q1429.08 224.961 1429.08 217.855 Q1429.08 210.725 1427.26 207.184 Q1425.45 203.619 1421.82 203.619 M1421.82 199.915 Q1427.63 199.915 1430.68 204.522 Q1433.76 209.105 1433.76 217.855 Q1433.76 226.582 1430.68 231.188 Q1427.63 235.771 1421.82 235.771 Q1416.01 235.771 1412.93 231.188 Q1409.87 226.582 1409.87 217.855 Q1409.87 209.105 1412.93 204.522 Q1416.01 199.915 1421.82 199.915 Z" fill="#000000" fill-rule="nonzero" fill-opacity="1" /><path clip-path="url(#clip430)" d="M1441.98 229.22 L1446.86 229.22 L1446.86 235.1 L1441.98 235.1 L1441.98 229.22 Z" fill="#000000" fill-rule="nonzero" fill-opacity="1" /><path clip-path="url(#clip430)" d="M1457.09 200.54 L1475.45 200.54 L1475.45 204.475 L1461.38 204.475 L1461.38 212.947 Q1462.39 212.6 1463.41 212.438 Q1464.43 212.253 1465.45 212.253 Q1471.24 212.253 1474.62 215.424 Q1478 218.596 1478 224.012 Q1478 229.591 1474.52 232.693 Q1471.05 235.771 1464.73 235.771 Q1462.56 235.771 1460.29 235.401 Q1458.04 235.031 1455.64 234.29 L1455.64 229.591 Q1457.72 230.725 1459.94 231.281 Q1462.16 231.836 1464.64 231.836 Q1468.64 231.836 1470.98 229.73 Q1473.32 227.623 1473.32 224.012 Q1473.32 220.401 1470.98 218.295 Q1468.64 216.188 1464.64 216.188 Q1462.76 216.188 1460.89 216.605 Q1459.04 217.021 1457.09 217.901 L1457.09 200.54 Z" fill="#000000" fill-rule="nonzero" fill-opacity="1" /><path clip-path="url(#clip430)" d="M1734.52 20.1573 L1723.42 50.2555 L1745.66 50.2555 L1734.52 20.1573 M1729.9 12.096 L1739.18 12.096 L1762.23 72.576 L1753.72 72.576 L1748.21 57.061 L1720.95 57.061 L1715.44 72.576 L1706.81 72.576 L1729.9 12.096 Z" fill="#000000" fill-rule="nonzero" fill-opacity="1" /><path clip-path="url(#clip430)" d="M1806.06 35.9153 Q1808.85 30.8922 1812.74 28.5022 Q1816.63 26.1121 1821.9 26.1121 Q1828.99 26.1121 1832.84 31.0947 Q1836.68 36.0368 1836.68 45.1919 L1836.68 72.576 L1829.19 72.576 L1829.19 45.4349 Q1829.19 38.913 1826.88 35.7533 Q1824.57 32.5936 1819.83 32.5936 Q1814.04 32.5936 1810.68 36.4419 Q1807.32 40.2903 1807.32 46.9338 L1807.32 72.576 L1799.82 72.576 L1799.82 45.4349 Q1799.82 38.8725 1797.51 35.7533 Q1795.2 32.5936 1790.38 32.5936 Q1784.67 32.5936 1781.31 36.4824 Q1777.95 40.3308 1777.95 46.9338 L1777.95 72.576 L1770.45 72.576 L1770.45 27.2059 L1777.95 27.2059 L1777.95 34.2544 Q1780.5 30.082 1784.06 28.0971 Q1787.63 26.1121 1792.53 26.1121 Q1797.47 26.1121 1800.91 28.6237 Q1804.4 31.1352 1806.06 35.9153 Z" fill="#000000" fill-rule="nonzero" fill-opacity="1" /><path clip-path="url(#clip430)" d="M1858.76 65.7705 L1858.76 89.8329 L1851.27 89.8329 L1851.27 27.2059 L1858.76 27.2059 L1858.76 34.0924 Q1861.11 30.0415 1864.68 28.0971 Q1868.28 26.1121 1873.26 26.1121 Q1881.53 26.1121 1886.67 32.6746 Q1891.86 39.2371 1891.86 49.9314 Q1891.86 60.6258 1886.67 67.1883 Q1881.53 73.7508 1873.26 73.7508 Q1868.28 73.7508 1864.68 71.8063 Q1861.11 69.8214 1858.76 65.7705 M1884.12 49.9314 Q1884.12 41.7081 1880.72 37.0496 Q1877.36 32.3505 1871.44 32.3505 Q1865.53 32.3505 1862.12 37.0496 Q1858.76 41.7081 1858.76 49.9314 Q1858.76 58.1548 1862.12 62.8538 Q1865.53 67.5124 1871.44 67.5124 Q1877.36 67.5124 1880.72 62.8538 Q1884.12 58.1548 1884.12 49.9314 Z" fill="#000000" fill-rule="nonzero" fill-opacity="1" /><path clip-path="url(#clip430)" d="M1904.21 9.54393 L1911.67 9.54393 L1911.67 72.576 L1904.21 72.576 L1904.21 9.54393 Z" fill="#000000" fill-rule="nonzero" fill-opacity="1" /><path clip-path="url(#clip430)" d="M1927.26 27.2059 L1934.72 27.2059 L1934.72 72.576 L1927.26 72.576 L1927.26 27.2059 M1927.26 9.54393 L1934.72 9.54393 L1934.72 18.9825 L1927.26 18.9825 L1927.26 9.54393 Z" fill="#000000" fill-rule="nonzero" fill-opacity="1" /><path clip-path="url(#clip430)" d="M1957.68 14.324 L1957.68 27.2059 L1973.04 27.2059 L1973.04 32.9987 L1957.68 32.9987 L1957.68 57.6282 Q1957.68 63.1779 1959.18 64.7578 Q1960.72 66.3376 1965.38 66.3376 L1973.04 66.3376 L1973.04 72.576 L1965.38 72.576 Q1956.75 72.576 1953.47 69.3758 Q1950.19 66.1351 1950.19 57.6282 L1950.19 32.9987 L1944.72 32.9987 L1944.72 27.2059 L1950.19 27.2059 L1950.19 14.324 L1957.68 14.324 Z" fill="#000000" fill-rule="nonzero" fill-opacity="1" /><path clip-path="url(#clip430)" d="M1982.07 54.671 L1982.07 27.2059 L1989.52 27.2059 L1989.52 54.3874 Q1989.52 60.8284 1992.04 64.0691 Q1994.55 67.2693 1999.57 67.2693 Q2005.61 67.2693 2009.09 63.421 Q2012.62 59.5726 2012.62 52.9291 L2012.62 27.2059 L2020.07 27.2059 L2020.07 72.576 L2012.62 72.576 L2012.62 65.6084 Q2009.9 69.7404 2006.3 71.7658 Q2002.73 73.7508 1997.99 73.7508 Q1990.17 73.7508 1986.12 68.8897 Q1982.07 64.0286 1982.07 54.671 M2000.83 26.1121 L2000.83 26.1121 Z" fill="#000000" fill-rule="nonzero" fill-opacity="1" /><path clip-path="url(#clip430)" d="M2065.28 34.0924 L2065.28 9.54393 L2072.73 9.54393 L2072.73 72.576 L2065.28 72.576 L2065.28 65.7705 Q2062.93 69.8214 2059.32 71.8063 Q2055.76 73.7508 2050.73 73.7508 Q2042.51 73.7508 2037.33 67.1883 Q2032.18 60.6258 2032.18 49.9314 Q2032.18 39.2371 2037.33 32.6746 Q2042.51 26.1121 2050.73 26.1121 Q2055.76 26.1121 2059.32 28.0971 Q2062.93 30.0415 2065.28 34.0924 M2039.88 49.9314 Q2039.88 58.1548 2043.24 62.8538 Q2046.64 67.5124 2052.56 67.5124 Q2058.47 67.5124 2061.87 62.8538 Q2065.28 58.1548 2065.28 49.9314 Q2065.28 41.7081 2061.87 37.0496 Q2058.47 32.3505 2052.56 32.3505 Q2046.64 32.3505 2043.24 37.0496 Q2039.88 41.7081 2039.88 49.9314 Z" fill="#000000" fill-rule="nonzero" fill-opacity="1" /><path clip-path="url(#clip430)" d="M2126.89 48.0275 L2126.89 51.6733 L2092.62 51.6733 Q2093.11 59.3701 2097.24 63.421 Q2101.41 67.4314 2108.82 67.4314 Q2113.12 67.4314 2117.13 66.3781 Q2121.18 65.3249 2125.15 63.2184 L2125.15 70.267 Q2121.14 71.9684 2116.93 72.8596 Q2112.71 73.7508 2108.38 73.7508 Q2097.52 73.7508 2091.16 67.4314 Q2084.84 61.1119 2084.84 50.3365 Q2084.84 39.1965 2090.84 32.6746 Q2096.87 26.1121 2107.08 26.1121 Q2116.24 26.1121 2121.54 32.0264 Q2126.89 37.9003 2126.89 48.0275 M2119.44 45.84 Q2119.36 39.7232 2115.99 36.0774 Q2112.67 32.4315 2107.16 32.4315 Q2100.92 32.4315 2097.16 35.9558 Q2093.43 39.4801 2092.86 45.8805 L2119.44 45.84 Z" fill="#000000" fill-rule="nonzero" fill-opacity="1" /><path clip-path="url(#clip430)" d="M2195.35 34.0924 L2195.35 9.54393 L2202.81 9.54393 L2202.81 72.576 L2195.35 72.576 L2195.35 65.7705 Q2193 69.8214 2189.4 71.8063 Q2185.83 73.7508 2180.81 73.7508 Q2172.59 73.7508 2167.4 67.1883 Q2162.26 60.6258 2162.26 49.9314 Q2162.26 39.2371 2167.4 32.6746 Q2172.59 26.1121 2180.81 26.1121 Q2185.83 26.1121 2189.4 28.0971 Q2193 30.0415 2195.35 34.0924 M2169.95 49.9314 Q2169.95 58.1548 2173.31 62.8538 Q2176.72 67.5124 2182.63 67.5124 Q2188.55 67.5124 2191.95 62.8538 Q2195.35 58.1548 2195.35 49.9314 Q2195.35 41.7081 2191.95 37.0496 Q2188.55 32.3505 2182.63 32.3505 Q2176.72 32.3505 2173.31 37.0496 Q2169.95 41.7081 2169.95 49.9314 Z" fill="#000000" fill-rule="nonzero" fill-opacity="1" /><path clip-path="url(#clip430)" d="M2235.74 32.4315 Q2229.74 32.4315 2226.26 37.1306 Q2222.78 41.7891 2222.78 49.9314 Q2222.78 58.0738 2226.22 62.7728 Q2229.7 67.4314 2235.74 67.4314 Q2241.69 67.4314 2245.18 62.7323 Q2248.66 58.0333 2248.66 49.9314 Q2248.66 41.8701 2245.18 37.1711 Q2241.69 32.4315 2235.74 32.4315 M2235.74 26.1121 Q2245.46 26.1121 2251.01 32.4315 Q2256.56 38.7509 2256.56 49.9314 Q2256.56 61.0714 2251.01 67.4314 Q2245.46 73.7508 2235.74 73.7508 Q2225.98 73.7508 2220.43 67.4314 Q2214.92 61.0714 2214.92 49.9314 Q2214.92 38.7509 2220.43 32.4315 Q2225.98 26.1121 2235.74 26.1121 Z" fill="#000000" fill-rule="nonzero" fill-opacity="1" /><path clip-path="url(#clip430)" d="M2297.84 28.5427 L2297.84 35.5912 Q2294.68 33.9709 2291.28 33.1607 Q2287.87 32.3505 2284.23 32.3505 Q2278.68 32.3505 2275.88 34.0519 Q2273.13 35.7533 2273.13 39.156 Q2273.13 41.7486 2275.11 43.2475 Q2277.1 44.7058 2283.09 46.0426 L2285.65 46.6097 Q2293.59 48.3111 2296.91 51.4303 Q2300.27 54.509 2300.27 60.0587 Q2300.27 66.3781 2295.25 70.0644 Q2290.26 73.7508 2281.51 73.7508 Q2277.87 73.7508 2273.9 73.0216 Q2269.97 72.3329 2265.59 70.9151 L2265.59 63.2184 Q2269.73 65.3654 2273.74 66.4591 Q2277.75 67.5124 2281.68 67.5124 Q2286.94 67.5124 2289.78 65.73 Q2292.61 63.9071 2292.61 60.6258 Q2292.61 57.5877 2290.55 55.9673 Q2288.52 54.3469 2281.6 52.8481 L2279 52.2405 Q2272.08 50.7821 2269 47.7845 Q2265.92 44.7463 2265.92 39.4801 Q2265.92 33.0797 2270.46 29.5959 Q2274.99 26.1121 2283.34 26.1121 Q2287.47 26.1121 2291.11 26.7198 Q2294.76 27.3274 2297.84 28.5427 Z" fill="#000000" fill-rule="nonzero" fill-opacity="1" /><path clip-path="url(#clip430)" d="M2338.83 12.096 L2347.02 12.096 L2347.02 72.576 L2338.83 72.576 L2338.83 12.096 Z" fill="#000000" fill-rule="nonzero" fill-opacity="1" /><path clip-path="url(#clip430)" d="M2408.59 16.7545 L2408.59 25.383 Q2404.46 21.5346 2399.76 19.6307 Q2395.1 17.7268 2389.84 17.7268 Q2379.46 17.7268 2373.96 24.0867 Q2368.45 30.4061 2368.45 42.3968 Q2368.45 54.3469 2373.96 60.7069 Q2379.46 67.0263 2389.84 67.0263 Q2395.1 67.0263 2399.76 65.1223 Q2404.46 63.2184 2408.59 59.3701 L2408.59 67.9175 Q2404.3 70.8341 2399.48 72.2924 Q2394.7 73.7508 2389.35 73.7508 Q2375.62 73.7508 2367.72 65.3654 Q2359.82 56.9395 2359.82 42.3968 Q2359.82 27.8135 2367.72 19.4281 Q2375.62 11.0023 2389.35 11.0023 Q2394.78 11.0023 2399.56 12.4606 Q2404.38 13.8784 2408.59 16.7545 Z" fill="#000000" fill-rule="nonzero" fill-opacity="1" /><path clip-path="url(#clip430)" d="M2449.83 28.5427 L2449.83 35.5912 Q2446.67 33.9709 2443.27 33.1607 Q2439.86 32.3505 2436.22 32.3505 Q2430.67 32.3505 2427.87 34.0519 Q2425.12 35.7533 2425.12 39.156 Q2425.12 41.7486 2427.1 43.2475 Q2429.09 44.7058 2435.08 46.0426 L2437.64 46.6097 Q2445.58 48.3111 2448.9 51.4303 Q2452.26 54.509 2452.26 60.0587 Q2452.26 66.3781 2447.24 70.0644 Q2442.25 73.7508 2433.5 73.7508 Q2429.86 73.7508 2425.89 73.0216 Q2421.96 72.3329 2417.58 70.9151 L2417.58 63.2184 Q2421.72 65.3654 2425.73 66.4591 Q2429.74 67.5124 2433.67 67.5124 Q2438.93 67.5124 2441.77 65.73 Q2444.6 63.9071 2444.6 60.6258 Q2444.6 57.5877 2442.54 55.9673 Q2440.51 54.3469 2433.59 52.8481 L2430.99 52.2405 Q2424.07 50.7821 2420.99 47.7845 Q2417.91 44.7463 2417.91 39.4801 Q2417.91 33.0797 2422.45 29.5959 Q2426.98 26.1121 2435.33 26.1121 Q2439.46 26.1121 2443.1 26.7198 Q2446.75 27.3274 2449.83 28.5427 Z" fill="#000000" fill-rule="nonzero" fill-opacity="1" /><circle clip-path="url(#clip433)" cx="1550.08" cy="1688.65" r="14.4" fill="#0000ff" fill-rule="evenodd" fill-opacity="1" stroke="#000000" stroke-opacity="1" stroke-width="3.84"/>
<circle clip-path="url(#clip433)" cx="1667.74" cy="1688.65" r="14.4" fill="#0000ff" fill-rule="evenodd" fill-opacity="1" stroke="#000000" stroke-opacity="1" stroke-width="3.84"/>
<circle clip-path="url(#clip433)" cx="1785.4" cy="1688.65" r="14.4" fill="#0000ff" fill-rule="evenodd" fill-opacity="1" stroke="#000000" stroke-opacity="1" stroke-width="3.84"/>
<circle clip-path="url(#clip433)" cx="1903.05" cy="1688.65" r="14.4" fill="#0000ff" fill-rule="evenodd" fill-opacity="1" stroke="#000000" stroke-opacity="1" stroke-width="3.84"/>
<circle clip-path="url(#clip433)" cx="2020.71" cy="1688.65" r="14.4" fill="#0000ff" fill-rule="evenodd" fill-opacity="1" stroke="#000000" stroke-opacity="1" stroke-width="3.84"/>
<circle clip-path="url(#clip433)" cx="2138.36" cy="1688.65" r="14.4" fill="#0000ff" fill-rule="evenodd" fill-opacity="1" stroke="#000000" stroke-opacity="1" stroke-width="3.84"/>
<circle clip-path="url(#clip433)" cx="2256.02" cy="1688.65" r="14.4" fill="#0000ff" fill-rule="evenodd" fill-opacity="1" stroke="#000000" stroke-opacity="1" stroke-width="3.84"/>
<circle clip-path="url(#clip433)" cx="2373.68" cy="1688.65" r="14.4" fill="#0000ff" fill-rule="evenodd" fill-opacity="1" stroke="#000000" stroke-opacity="1" stroke-width="3.84"/>
<circle clip-path="url(#clip433)" cx="2491.33" cy="1688.65" r="14.4" fill="#0000ff" fill-rule="evenodd" fill-opacity="1" stroke="#000000" stroke-opacity="1" stroke-width="3.84"/>
<circle clip-path="url(#clip433)" cx="2608.99" cy="1688.65" r="14.4" fill="#0000ff" fill-rule="evenodd" fill-opacity="1" stroke="#000000" stroke-opacity="1" stroke-width="3.84"/>
</svg>
