<?xml version="1.0" encoding="utf-8"?>
<svg xmlns="http://www.w3.org/2000/svg" xmlns:xlink="http://www.w3.org/1999/xlink" width="672" height="480" viewBox="0 0 2688 1920">
<defs>
  <clipPath id="clip890">
    <rect x="0" y="0" width="2688" height="1920"/>
  </clipPath>
</defs>
<path clip-path="url(#clip890)" d="M0 1920 L2688 1920 L2688 0 L0 0  Z" fill="#ffffff" fill-rule="evenodd" fill-opacity="1"/>
<defs>
  <clipPath id="clip891">
    <rect x="537" y="0" width="1883" height="1883"/>
  </clipPath>
</defs>
<path clip-path="url(#clip890)" d="M226.141 1734.12 L2640.76 1734.12 L2640.76 141.759 L226.141 141.759  Z" fill="#ffffff" fill-rule="evenodd" fill-opacity="1"/>
<defs>
  <clipPath id="clip892">
    <rect x="226" y="141" width="2416" height="1593"/>
  </clipPath>
</defs>
<polyline clip-path="url(#clip892)" style="stroke:#000000; stroke-linecap:round; stroke-linejoin:round; stroke-width:2; stroke-opacity:0.1; fill:none" points="226.141,1734.12 226.141,141.759 "/>
<polyline clip-path="url(#clip892)" style="stroke:#000000; stroke-linecap:round; stroke-linejoin:round; stroke-width:2; stroke-opacity:0.1; fill:none" points="627.907,1734.12 627.907,141.759 "/>
<polyline clip-path="url(#clip892)" style="stroke:#000000; stroke-linecap:round; stroke-linejoin:round; stroke-width:2; stroke-opacity:0.1; fill:none" points="1029.67,1734.12 1029.67,141.759 "/>
<polyline clip-path="url(#clip892)" style="stroke:#000000; stroke-linecap:round; stroke-linejoin:round; stroke-width:2; stroke-opacity:0.1; fill:none" points="1431.44,1734.12 1431.44,141.759 "/>
<polyline clip-path="url(#clip892)" style="stroke:#000000; stroke-linecap:round; stroke-linejoin:round; stroke-width:2; stroke-opacity:0.1; fill:none" points="1833.21,1734.12 1833.21,141.759 "/>
<polyline clip-path="url(#clip892)" style="stroke:#000000; stroke-linecap:round; stroke-linejoin:round; stroke-width:2; stroke-opacity:0.1; fill:none" points="2234.97,1734.12 2234.97,141.759 "/>
<polyline clip-path="url(#clip892)" style="stroke:#000000; stroke-linecap:round; stroke-linejoin:round; stroke-width:2; stroke-opacity:0.1; fill:none" points="2636.74,1734.12 2636.74,141.759 "/>
<polyline clip-path="url(#clip892)" style="stroke:#000000; stroke-linecap:round; stroke-linejoin:round; stroke-width:2; stroke-opacity:0.1; fill:none" points="226.141,1689.05 2640.76,1689.05 "/>
<polyline clip-path="url(#clip892)" style="stroke:#000000; stroke-linecap:round; stroke-linejoin:round; stroke-width:2; stroke-opacity:0.1; fill:none" points="226.141,1331.72 2640.76,1331.72 "/>
<polyline clip-path="url(#clip892)" style="stroke:#000000; stroke-linecap:round; stroke-linejoin:round; stroke-width:2; stroke-opacity:0.1; fill:none" points="226.141,974.385 2640.76,974.385 "/>
<polyline clip-path="url(#clip892)" style="stroke:#000000; stroke-linecap:round; stroke-linejoin:round; stroke-width:2; stroke-opacity:0.1; fill:none" points="226.141,617.053 2640.76,617.053 "/>
<polyline clip-path="url(#clip892)" style="stroke:#000000; stroke-linecap:round; stroke-linejoin:round; stroke-width:2; stroke-opacity:0.1; fill:none" points="226.141,259.72 2640.76,259.72 "/>
<polyline clip-path="url(#clip890)" style="stroke:#000000; stroke-linecap:round; stroke-linejoin:round; stroke-width:4; stroke-opacity:1; fill:none" points="226.141,1734.12 2640.76,1734.12 "/>
<polyline clip-path="url(#clip890)" style="stroke:#000000; stroke-linecap:round; stroke-linejoin:round; stroke-width:4; stroke-opacity:1; fill:none" points="226.141,1734.12 226.141,1715.22 "/>
<polyline clip-path="url(#clip890)" style="stroke:#000000; stroke-linecap:round; stroke-linejoin:round; stroke-width:4; stroke-opacity:1; fill:none" points="627.907,1734.12 627.907,1715.22 "/>
<polyline clip-path="url(#clip890)" style="stroke:#000000; stroke-linecap:round; stroke-linejoin:round; stroke-width:4; stroke-opacity:1; fill:none" points="1029.67,1734.12 1029.67,1715.22 "/>
<polyline clip-path="url(#clip890)" style="stroke:#000000; stroke-linecap:round; stroke-linejoin:round; stroke-width:4; stroke-opacity:1; fill:none" points="1431.44,1734.12 1431.44,1715.22 "/>
<polyline clip-path="url(#clip890)" style="stroke:#000000; stroke-linecap:round; stroke-linejoin:round; stroke-width:4; stroke-opacity:1; fill:none" points="1833.21,1734.12 1833.21,1715.22 "/>
<polyline clip-path="url(#clip890)" style="stroke:#000000; stroke-linecap:round; stroke-linejoin:round; stroke-width:4; stroke-opacity:1; fill:none" points="2234.97,1734.12 2234.97,1715.22 "/>
<polyline clip-path="url(#clip890)" style="stroke:#000000; stroke-linecap:round; stroke-linejoin:round; stroke-width:4; stroke-opacity:1; fill:none" points="2636.74,1734.12 2636.74,1715.22 "/>
<path clip-path="url(#clip890)" d="M203.525 1767.34 Q199.914 1767.34 198.085 1770.9 Q196.28 1774.45 196.28 1781.58 Q196.28 1788.68 198.085 1792.25 Q199.914 1795.79 203.525 1795.79 Q207.159 1795.79 208.965 1792.25 Q210.793 1788.68 210.793 1781.58 Q210.793 1774.45 208.965 1770.9 Q207.159 1767.34 203.525 1767.34 M203.525 1763.64 Q209.335 1763.64 212.391 1768.24 Q215.469 1772.83 215.469 1781.58 Q215.469 1790.3 212.391 1794.91 Q209.335 1799.49 203.525 1799.49 Q197.715 1799.49 194.636 1794.91 Q191.581 1790.3 191.581 1781.58 Q191.581 1772.83 194.636 1768.24 Q197.715 1763.64 203.525 1763.64 Z" fill="#000000" fill-rule="nonzero" fill-opacity="1" /><path clip-path="url(#clip890)" d="M223.687 1792.94 L228.571 1792.94 L228.571 1798.82 L223.687 1798.82 L223.687 1792.94 Z" fill="#000000" fill-rule="nonzero" fill-opacity="1" /><path clip-path="url(#clip890)" d="M248.756 1767.34 Q245.145 1767.34 243.316 1770.9 Q241.511 1774.45 241.511 1781.58 Q241.511 1788.68 243.316 1792.25 Q245.145 1795.79 248.756 1795.79 Q252.39 1795.79 254.196 1792.25 Q256.025 1788.68 256.025 1781.58 Q256.025 1774.45 254.196 1770.9 Q252.39 1767.34 248.756 1767.34 M248.756 1763.64 Q254.566 1763.64 257.622 1768.24 Q260.701 1772.83 260.701 1781.58 Q260.701 1790.3 257.622 1794.91 Q254.566 1799.49 248.756 1799.49 Q242.946 1799.49 239.867 1794.91 Q236.812 1790.3 236.812 1781.58 Q236.812 1772.83 239.867 1768.24 Q242.946 1763.64 248.756 1763.64 Z" fill="#000000" fill-rule="nonzero" fill-opacity="1" /><path clip-path="url(#clip890)" d="M605.905 1767.34 Q602.294 1767.34 600.465 1770.9 Q598.659 1774.45 598.659 1781.58 Q598.659 1788.68 600.465 1792.25 Q602.294 1795.79 605.905 1795.79 Q609.539 1795.79 611.344 1792.25 Q613.173 1788.68 613.173 1781.58 Q613.173 1774.45 611.344 1770.9 Q609.539 1767.34 605.905 1767.34 M605.905 1763.64 Q611.715 1763.64 614.77 1768.24 Q617.849 1772.83 617.849 1781.58 Q617.849 1790.3 614.77 1794.91 Q611.715 1799.49 605.905 1799.49 Q600.094 1799.49 597.016 1794.91 Q593.96 1790.3 593.96 1781.58 Q593.96 1772.83 597.016 1768.24 Q600.094 1763.64 605.905 1763.64 Z" fill="#000000" fill-rule="nonzero" fill-opacity="1" /><path clip-path="url(#clip890)" d="M626.067 1792.94 L630.951 1792.94 L630.951 1798.82 L626.067 1798.82 L626.067 1792.94 Z" fill="#000000" fill-rule="nonzero" fill-opacity="1" /><path clip-path="url(#clip890)" d="M641.946 1794.89 L649.585 1794.89 L649.585 1768.52 L641.275 1770.19 L641.275 1765.93 L649.539 1764.26 L654.215 1764.26 L654.215 1794.89 L661.853 1794.89 L661.853 1798.82 L641.946 1798.82 L641.946 1794.89 Z" fill="#000000" fill-rule="nonzero" fill-opacity="1" /><path clip-path="url(#clip890)" d="M1007.86 1767.34 Q1004.25 1767.34 1002.42 1770.9 Q1000.61 1774.45 1000.61 1781.58 Q1000.61 1788.68 1002.42 1792.25 Q1004.25 1795.79 1007.86 1795.79 Q1011.49 1795.79 1013.3 1792.25 Q1015.12 1788.68 1015.12 1781.58 Q1015.12 1774.45 1013.3 1770.9 Q1011.49 1767.34 1007.86 1767.34 M1007.86 1763.64 Q1013.67 1763.64 1016.72 1768.24 Q1019.8 1772.83 1019.8 1781.58 Q1019.8 1790.3 1016.72 1794.91 Q1013.67 1799.49 1007.86 1799.49 Q1002.05 1799.49 998.967 1794.91 Q995.912 1790.3 995.912 1781.58 Q995.912 1772.83 998.967 1768.24 Q1002.05 1763.64 1007.86 1763.64 Z" fill="#000000" fill-rule="nonzero" fill-opacity="1" /><path clip-path="url(#clip890)" d="M1028.02 1792.94 L1032.9 1792.94 L1032.9 1798.82 L1028.02 1798.82 L1028.02 1792.94 Z" fill="#000000" fill-rule="nonzero" fill-opacity="1" /><path clip-path="url(#clip890)" d="M1047.12 1794.89 L1063.43 1794.89 L1063.43 1798.82 L1041.49 1798.82 L1041.49 1794.89 Q1044.15 1792.13 1048.74 1787.5 Q1053.34 1782.85 1054.52 1781.51 Q1056.77 1778.98 1057.65 1777.25 Q1058.55 1775.49 1058.55 1773.8 Q1058.55 1771.04 1056.61 1769.31 Q1054.68 1767.57 1051.58 1767.57 Q1049.38 1767.57 1046.93 1768.34 Q1044.5 1769.1 1041.72 1770.65 L1041.72 1765.93 Q1044.55 1764.79 1047 1764.21 Q1049.45 1763.64 1051.49 1763.64 Q1056.86 1763.64 1060.05 1766.32 Q1063.25 1769.01 1063.25 1773.5 Q1063.25 1775.63 1062.44 1777.55 Q1061.65 1779.45 1059.55 1782.04 Q1058.97 1782.71 1055.87 1785.93 Q1052.76 1789.12 1047.12 1794.89 Z" fill="#000000" fill-rule="nonzero" fill-opacity="1" /><path clip-path="url(#clip890)" d="M1409.15 1767.34 Q1405.54 1767.34 1403.71 1770.9 Q1401.9 1774.45 1401.9 1781.58 Q1401.9 1788.68 1403.71 1792.25 Q1405.54 1795.79 1409.15 1795.79 Q1412.78 1795.79 1414.59 1792.25 Q1416.42 1788.68 1416.42 1781.58 Q1416.42 1774.45 1414.59 1770.9 Q1412.78 1767.34 1409.15 1767.34 M1409.15 1763.64 Q1414.96 1763.64 1418.01 1768.24 Q1421.09 1772.83 1421.09 1781.58 Q1421.09 1790.3 1418.01 1794.91 Q1414.96 1799.49 1409.15 1799.49 Q1403.34 1799.49 1400.26 1794.91 Q1397.2 1790.3 1397.2 1781.58 Q1397.2 1772.83 1400.26 1768.24 Q1403.34 1763.64 1409.15 1763.64 Z" fill="#000000" fill-rule="nonzero" fill-opacity="1" /><path clip-path="url(#clip890)" d="M1429.31 1792.94 L1434.19 1792.94 L1434.19 1798.82 L1429.31 1798.82 L1429.31 1792.94 Z" fill="#000000" fill-rule="nonzero" fill-opacity="1" /><path clip-path="url(#clip890)" d="M1458.55 1780.19 Q1461.9 1780.9 1463.78 1783.17 Q1465.68 1785.44 1465.68 1788.77 Q1465.68 1793.89 1462.16 1796.69 Q1458.64 1799.49 1452.16 1799.49 Q1449.98 1799.49 1447.67 1799.05 Q1445.37 1798.64 1442.92 1797.78 L1442.92 1793.27 Q1444.87 1794.4 1447.18 1794.98 Q1449.49 1795.56 1452.02 1795.56 Q1456.42 1795.56 1458.71 1793.82 Q1461.02 1792.08 1461.02 1788.77 Q1461.02 1785.72 1458.87 1784.01 Q1456.74 1782.27 1452.92 1782.27 L1448.89 1782.27 L1448.89 1778.43 L1453.11 1778.43 Q1456.56 1778.43 1458.38 1777.06 Q1460.21 1775.67 1460.21 1773.08 Q1460.21 1770.42 1458.31 1769.01 Q1456.44 1767.57 1452.92 1767.57 Q1451 1767.57 1448.8 1767.99 Q1446.6 1768.4 1443.96 1769.28 L1443.96 1765.12 Q1446.62 1764.38 1448.94 1764.01 Q1451.28 1763.64 1453.34 1763.64 Q1458.66 1763.64 1461.76 1766.07 Q1464.87 1768.47 1464.87 1772.59 Q1464.87 1775.46 1463.22 1777.46 Q1461.58 1779.42 1458.55 1780.19 Z" fill="#000000" fill-rule="nonzero" fill-opacity="1" /><path clip-path="url(#clip890)" d="M1810.35 1767.34 Q1806.74 1767.34 1804.91 1770.9 Q1803.1 1774.45 1803.1 1781.58 Q1803.1 1788.68 1804.91 1792.25 Q1806.74 1795.79 1810.35 1795.79 Q1813.98 1795.79 1815.79 1792.25 Q1817.62 1788.68 1817.62 1781.58 Q1817.62 1774.45 1815.79 1770.9 Q1813.98 1767.34 1810.35 1767.34 M1810.35 1763.64 Q1816.16 1763.64 1819.21 1768.24 Q1822.29 1772.83 1822.29 1781.58 Q1822.29 1790.3 1819.21 1794.91 Q1816.16 1799.49 1810.35 1799.49 Q1804.54 1799.49 1801.46 1794.91 Q1798.4 1790.3 1798.4 1781.58 Q1798.4 1772.83 1801.46 1768.24 Q1804.54 1763.64 1810.35 1763.64 Z" fill="#000000" fill-rule="nonzero" fill-opacity="1" /><path clip-path="url(#clip890)" d="M1830.51 1792.94 L1835.39 1792.94 L1835.39 1798.82 L1830.51 1798.82 L1830.51 1792.94 Z" fill="#000000" fill-rule="nonzero" fill-opacity="1" /><path clip-path="url(#clip890)" d="M1858.43 1768.34 L1846.62 1786.78 L1858.43 1786.78 L1858.43 1768.34 M1857.2 1764.26 L1863.08 1764.26 L1863.08 1786.78 L1868.01 1786.78 L1868.01 1790.67 L1863.08 1790.67 L1863.08 1798.82 L1858.43 1798.82 L1858.43 1790.67 L1842.82 1790.67 L1842.82 1786.16 L1857.2 1764.26 Z" fill="#000000" fill-rule="nonzero" fill-opacity="1" /><path clip-path="url(#clip890)" d="M2212.85 1767.34 Q2209.24 1767.34 2207.41 1770.9 Q2205.61 1774.45 2205.61 1781.58 Q2205.61 1788.68 2207.41 1792.25 Q2209.24 1795.79 2212.85 1795.79 Q2216.49 1795.79 2218.29 1792.25 Q2220.12 1788.68 2220.12 1781.58 Q2220.12 1774.45 2218.29 1770.9 Q2216.49 1767.34 2212.85 1767.34 M2212.85 1763.64 Q2218.66 1763.64 2221.72 1768.24 Q2224.8 1772.83 2224.8 1781.58 Q2224.8 1790.3 2221.72 1794.91 Q2218.66 1799.49 2212.85 1799.49 Q2207.04 1799.49 2203.97 1794.91 Q2200.91 1790.3 2200.91 1781.58 Q2200.91 1772.83 2203.97 1768.24 Q2207.04 1763.64 2212.85 1763.64 Z" fill="#000000" fill-rule="nonzero" fill-opacity="1" /><path clip-path="url(#clip890)" d="M2233.02 1792.94 L2237.9 1792.94 L2237.9 1798.82 L2233.02 1798.82 L2233.02 1792.94 Z" fill="#000000" fill-rule="nonzero" fill-opacity="1" /><path clip-path="url(#clip890)" d="M2248.13 1764.26 L2266.49 1764.26 L2266.49 1768.2 L2252.41 1768.2 L2252.41 1776.67 Q2253.43 1776.32 2254.45 1776.16 Q2255.47 1775.97 2256.49 1775.97 Q2262.28 1775.97 2265.65 1779.15 Q2269.03 1782.32 2269.03 1787.73 Q2269.03 1793.31 2265.56 1796.41 Q2262.09 1799.49 2255.77 1799.49 Q2253.59 1799.49 2251.33 1799.12 Q2249.08 1798.75 2246.67 1798.01 L2246.67 1793.31 Q2248.76 1794.45 2250.98 1795 Q2253.2 1795.56 2255.68 1795.56 Q2259.68 1795.56 2262.02 1793.45 Q2264.36 1791.34 2264.36 1787.73 Q2264.36 1784.12 2262.02 1782.02 Q2259.68 1779.91 2255.68 1779.91 Q2253.8 1779.91 2251.93 1780.33 Q2250.08 1780.74 2248.13 1781.62 L2248.13 1764.26 Z" fill="#000000" fill-rule="nonzero" fill-opacity="1" /><path clip-path="url(#clip890)" d="M2614.04 1767.34 Q2610.43 1767.34 2608.6 1770.9 Q2606.8 1774.45 2606.8 1781.58 Q2606.8 1788.68 2608.6 1792.25 Q2610.43 1795.79 2614.04 1795.79 Q2617.68 1795.79 2619.48 1792.25 Q2621.31 1788.68 2621.31 1781.58 Q2621.31 1774.45 2619.48 1770.9 Q2617.68 1767.34 2614.04 1767.34 M2614.04 1763.64 Q2619.85 1763.64 2622.91 1768.24 Q2625.99 1772.83 2625.99 1781.58 Q2625.99 1790.3 2622.91 1794.91 Q2619.85 1799.49 2614.04 1799.49 Q2608.23 1799.49 2605.15 1794.91 Q2602.1 1790.3 2602.1 1781.58 Q2602.1 1772.83 2605.15 1768.24 Q2608.23 1763.64 2614.04 1763.64 Z" fill="#000000" fill-rule="nonzero" fill-opacity="1" /><path clip-path="url(#clip890)" d="M2634.2 1792.94 L2639.09 1792.94 L2639.09 1798.82 L2634.2 1798.82 L2634.2 1792.94 Z" fill="#000000" fill-rule="nonzero" fill-opacity="1" /><path clip-path="url(#clip890)" d="M2659.85 1779.68 Q2656.7 1779.68 2654.85 1781.83 Q2653.02 1783.98 2653.02 1787.73 Q2653.02 1791.46 2654.85 1793.64 Q2656.7 1795.79 2659.85 1795.79 Q2663 1795.79 2664.83 1793.64 Q2666.68 1791.46 2666.68 1787.73 Q2666.68 1783.98 2664.83 1781.83 Q2663 1779.68 2659.85 1779.68 M2669.13 1765.02 L2669.13 1769.28 Q2667.37 1768.45 2665.57 1768.01 Q2663.79 1767.57 2662.03 1767.57 Q2657.4 1767.57 2654.94 1770.7 Q2652.51 1773.82 2652.17 1780.14 Q2653.53 1778.13 2655.59 1777.06 Q2657.65 1775.97 2660.13 1775.97 Q2665.34 1775.97 2668.35 1779.15 Q2671.38 1782.29 2671.38 1787.73 Q2671.38 1793.06 2668.23 1796.27 Q2665.08 1799.49 2659.85 1799.49 Q2653.86 1799.49 2650.68 1794.91 Q2647.51 1790.3 2647.51 1781.58 Q2647.51 1773.38 2651.4 1768.52 Q2655.29 1763.64 2661.84 1763.64 Q2663.6 1763.64 2665.38 1763.98 Q2667.19 1764.33 2669.13 1765.02 Z" fill="#000000" fill-rule="nonzero" fill-opacity="1" /><path clip-path="url(#clip890)" d="M1445.38 1844.47 Q1445.38 1849.88 1443.64 1855.97 Q1441.94 1862.02 1439.23 1866.92 Q1436.53 1871.78 1432.98 1875 Q1429.44 1878.19 1426.06 1878.19 Q1423.9 1878.19 1422.29 1877 Q1420.71 1875.78 1419.84 1873.75 Q1418.97 1871.69 1418.56 1869.43 Q1418.14 1867.15 1418.14 1864.67 Q1418.14 1860.96 1418.94 1856.94 Q1419.75 1852.88 1421.1 1849.21 Q1422.45 1845.5 1424.35 1842.15 Q1426.25 1838.77 1428.35 1836.32 Q1430.47 1833.84 1432.86 1832.4 Q1435.24 1830.95 1437.46 1830.95 Q1439.07 1830.95 1440.36 1831.65 Q1441.68 1832.33 1442.52 1833.52 Q1443.35 1834.68 1443.93 1836.07 Q1444.55 1837.45 1444.84 1839.06 Q1445.13 1840.64 1445.25 1841.96 Q1445.38 1843.25 1445.38 1844.47 M1441.04 1840.38 Q1441.04 1838.74 1440.91 1837.52 Q1440.78 1836.26 1440.42 1835 Q1440.07 1833.75 1439.3 1833.07 Q1438.56 1832.4 1437.4 1832.4 Q1434.01 1832.4 1430.21 1839.32 Q1428.99 1841.48 1427.9 1844.41 Q1426.8 1847.34 1426.41 1848.72 Q1426.03 1850.11 1425.13 1853.52 L1438.91 1853.52 Q1441.04 1844.73 1441.04 1840.38 M1438.33 1855.62 L1424.61 1855.62 Q1422.48 1863.67 1422.48 1868.69 Q1422.48 1873.07 1423.39 1874.91 Q1424.32 1876.71 1426.06 1876.71 Q1428.06 1876.71 1429.92 1874.71 Q1431.79 1872.69 1433.69 1869.01 Q1436.2 1864.25 1438.33 1855.62 Z" fill="#000000" fill-rule="nonzero" fill-opacity="1" /><polyline clip-path="url(#clip890)" style="stroke:#000000; stroke-linecap:round; stroke-linejoin:round; stroke-width:4; stroke-opacity:1; fill:none" points="226.141,1734.12 226.141,141.759 "/>
<polyline clip-path="url(#clip890)" style="stroke:#000000; stroke-linecap:round; stroke-linejoin:round; stroke-width:4; stroke-opacity:1; fill:none" points="226.141,1689.05 245.038,1689.05 "/>
<polyline clip-path="url(#clip890)" style="stroke:#000000; stroke-linecap:round; stroke-linejoin:round; stroke-width:4; stroke-opacity:1; fill:none" points="226.141,1331.72 245.038,1331.72 "/>
<polyline clip-path="url(#clip890)" style="stroke:#000000; stroke-linecap:round; stroke-linejoin:round; stroke-width:4; stroke-opacity:1; fill:none" points="226.141,974.385 245.038,974.385 "/>
<polyline clip-path="url(#clip890)" style="stroke:#000000; stroke-linecap:round; stroke-linejoin:round; stroke-width:4; stroke-opacity:1; fill:none" points="226.141,617.053 245.038,617.053 "/>
<polyline clip-path="url(#clip890)" style="stroke:#000000; stroke-linecap:round; stroke-linejoin:round; stroke-width:4; stroke-opacity:1; fill:none" points="226.141,259.72 245.038,259.72 "/>
<path clip-path="url(#clip890)" d="M128.645 1674.85 Q125.034 1674.85 123.205 1678.41 Q121.4 1681.96 121.4 1689.08 Q121.4 1696.19 123.205 1699.76 Q125.034 1703.3 128.645 1703.3 Q132.279 1703.3 134.085 1699.76 Q135.913 1696.19 135.913 1689.08 Q135.913 1681.96 134.085 1678.41 Q132.279 1674.85 128.645 1674.85 M128.645 1671.15 Q134.455 1671.15 137.511 1675.75 Q140.589 1680.34 140.589 1689.08 Q140.589 1697.81 137.511 1702.42 Q134.455 1707 128.645 1707 Q122.835 1707 119.756 1702.42 Q116.701 1697.81 116.701 1689.08 Q116.701 1680.34 119.756 1675.75 Q122.835 1671.15 128.645 1671.15 Z" fill="#000000" fill-rule="nonzero" fill-opacity="1" /><path clip-path="url(#clip890)" d="M148.807 1700.45 L153.691 1700.45 L153.691 1706.33 L148.807 1706.33 L148.807 1700.45 Z" fill="#000000" fill-rule="nonzero" fill-opacity="1" /><path clip-path="url(#clip890)" d="M173.876 1674.85 Q170.265 1674.85 168.436 1678.41 Q166.631 1681.96 166.631 1689.08 Q166.631 1696.19 168.436 1699.76 Q170.265 1703.3 173.876 1703.3 Q177.51 1703.3 179.316 1699.76 Q181.145 1696.19 181.145 1689.08 Q181.145 1681.96 179.316 1678.41 Q177.51 1674.85 173.876 1674.85 M173.876 1671.15 Q179.686 1671.15 182.742 1675.75 Q185.821 1680.34 185.821 1689.08 Q185.821 1697.81 182.742 1702.42 Q179.686 1707 173.876 1707 Q168.066 1707 164.987 1702.42 Q161.932 1697.81 161.932 1689.08 Q161.932 1680.34 164.987 1675.75 Q168.066 1671.15 173.876 1671.15 Z" fill="#000000" fill-rule="nonzero" fill-opacity="1" /><path clip-path="url(#clip890)" d="M130.242 1317.52 Q126.631 1317.52 124.802 1321.08 Q122.997 1324.62 122.997 1331.75 Q122.997 1338.86 124.802 1342.42 Q126.631 1345.97 130.242 1345.97 Q133.876 1345.97 135.682 1342.42 Q137.511 1338.86 137.511 1331.75 Q137.511 1324.62 135.682 1321.08 Q133.876 1317.52 130.242 1317.52 M130.242 1313.81 Q136.052 1313.81 139.108 1318.42 Q142.187 1323 142.187 1331.75 Q142.187 1340.48 139.108 1345.09 Q136.052 1349.67 130.242 1349.67 Q124.432 1349.67 121.353 1345.09 Q118.298 1340.48 118.298 1331.75 Q118.298 1323 121.353 1318.42 Q124.432 1313.81 130.242 1313.81 Z" fill="#000000" fill-rule="nonzero" fill-opacity="1" /><path clip-path="url(#clip890)" d="M150.404 1343.12 L155.288 1343.12 L155.288 1349 L150.404 1349 L150.404 1343.12 Z" fill="#000000" fill-rule="nonzero" fill-opacity="1" /><path clip-path="url(#clip890)" d="M169.501 1345.06 L185.821 1345.06 L185.821 1349 L163.876 1349 L163.876 1345.06 Q166.538 1342.31 171.122 1337.68 Q175.728 1333.03 176.909 1331.68 Q179.154 1329.16 180.034 1327.42 Q180.936 1325.66 180.936 1323.97 Q180.936 1321.22 178.992 1319.48 Q177.071 1317.75 173.969 1317.75 Q171.77 1317.75 169.316 1318.51 Q166.885 1319.28 164.108 1320.83 L164.108 1316.1 Q166.932 1314.97 169.385 1314.39 Q171.839 1313.81 173.876 1313.81 Q179.247 1313.81 182.441 1316.5 Q185.635 1319.18 185.635 1323.67 Q185.635 1325.8 184.825 1327.72 Q184.038 1329.62 181.932 1332.22 Q181.353 1332.89 178.251 1336.1 Q175.149 1339.3 169.501 1345.06 Z" fill="#000000" fill-rule="nonzero" fill-opacity="1" /><path clip-path="url(#clip890)" d="M128.159 960.184 Q124.548 960.184 122.719 963.749 Q120.913 967.29 120.913 974.42 Q120.913 981.526 122.719 985.091 Q124.548 988.633 128.159 988.633 Q131.793 988.633 133.599 985.091 Q135.427 981.526 135.427 974.42 Q135.427 967.29 133.599 963.749 Q131.793 960.184 128.159 960.184 M128.159 956.48 Q133.969 956.48 137.025 961.087 Q140.103 965.67 140.103 974.42 Q140.103 983.147 137.025 987.753 Q133.969 992.336 128.159 992.336 Q122.349 992.336 119.27 987.753 Q116.214 983.147 116.214 974.42 Q116.214 965.67 119.27 961.087 Q122.349 956.48 128.159 956.48 Z" fill="#000000" fill-rule="nonzero" fill-opacity="1" /><path clip-path="url(#clip890)" d="M148.321 985.785 L153.205 985.785 L153.205 991.665 L148.321 991.665 L148.321 985.785 Z" fill="#000000" fill-rule="nonzero" fill-opacity="1" /><path clip-path="url(#clip890)" d="M176.237 961.179 L164.432 979.628 L176.237 979.628 L176.237 961.179 M175.01 957.105 L180.89 957.105 L180.89 979.628 L185.821 979.628 L185.821 983.517 L180.89 983.517 L180.89 991.665 L176.237 991.665 L176.237 983.517 L160.636 983.517 L160.636 979.003 L175.01 957.105 Z" fill="#000000" fill-rule="nonzero" fill-opacity="1" /><path clip-path="url(#clip890)" d="M128.483 602.851 Q124.872 602.851 123.043 606.416 Q121.238 609.958 121.238 617.087 Q121.238 624.194 123.043 627.758 Q124.872 631.3 128.483 631.3 Q132.117 631.3 133.923 627.758 Q135.751 624.194 135.751 617.087 Q135.751 609.958 133.923 606.416 Q132.117 602.851 128.483 602.851 M128.483 599.148 Q134.293 599.148 137.349 603.754 Q140.427 608.337 140.427 617.087 Q140.427 625.814 137.349 630.42 Q134.293 635.004 128.483 635.004 Q122.673 635.004 119.594 630.42 Q116.539 625.814 116.539 617.087 Q116.539 608.337 119.594 603.754 Q122.673 599.148 128.483 599.148 Z" fill="#000000" fill-rule="nonzero" fill-opacity="1" /><path clip-path="url(#clip890)" d="M148.645 628.453 L153.529 628.453 L153.529 634.333 L148.645 634.333 L148.645 628.453 Z" fill="#000000" fill-rule="nonzero" fill-opacity="1" /><path clip-path="url(#clip890)" d="M174.293 615.189 Q171.145 615.189 169.293 617.342 Q167.464 619.495 167.464 623.245 Q167.464 626.971 169.293 629.147 Q171.145 631.3 174.293 631.3 Q177.441 631.3 179.27 629.147 Q181.122 626.971 181.122 623.245 Q181.122 619.495 179.27 617.342 Q177.441 615.189 174.293 615.189 M183.575 600.536 L183.575 604.796 Q181.816 603.962 180.01 603.522 Q178.228 603.083 176.469 603.083 Q171.839 603.083 169.385 606.208 Q166.955 609.333 166.608 615.652 Q167.973 613.638 170.034 612.573 Q172.094 611.485 174.571 611.485 Q179.779 611.485 182.788 614.657 Q185.821 617.805 185.821 623.245 Q185.821 628.569 182.672 631.786 Q179.524 635.004 174.293 635.004 Q168.297 635.004 165.126 630.42 Q161.955 625.814 161.955 617.087 Q161.955 608.893 165.844 604.032 Q169.733 599.148 176.284 599.148 Q178.043 599.148 179.825 599.495 Q181.631 599.842 183.575 600.536 Z" fill="#000000" fill-rule="nonzero" fill-opacity="1" /><path clip-path="url(#clip890)" d="M128.738 245.519 Q125.126 245.519 123.298 249.083 Q121.492 252.625 121.492 259.755 Q121.492 266.861 123.298 270.426 Q125.126 273.968 128.738 273.968 Q132.372 273.968 134.177 270.426 Q136.006 266.861 136.006 259.755 Q136.006 252.625 134.177 249.083 Q132.372 245.519 128.738 245.519 M128.738 241.815 Q134.548 241.815 137.603 246.421 Q140.682 251.005 140.682 259.755 Q140.682 268.481 137.603 273.088 Q134.548 277.671 128.738 277.671 Q122.927 277.671 119.849 273.088 Q116.793 268.481 116.793 259.755 Q116.793 251.005 119.849 246.421 Q122.927 241.815 128.738 241.815 Z" fill="#000000" fill-rule="nonzero" fill-opacity="1" /><path clip-path="url(#clip890)" d="M148.899 271.12 L153.784 271.12 L153.784 277 L148.899 277 L148.899 271.12 Z" fill="#000000" fill-rule="nonzero" fill-opacity="1" /><path clip-path="url(#clip890)" d="M173.969 260.588 Q170.635 260.588 168.714 262.37 Q166.816 264.153 166.816 267.278 Q166.816 270.403 168.714 272.185 Q170.635 273.968 173.969 273.968 Q177.302 273.968 179.223 272.185 Q181.145 270.38 181.145 267.278 Q181.145 264.153 179.223 262.37 Q177.325 260.588 173.969 260.588 M169.293 258.597 Q166.284 257.857 164.594 255.796 Q162.927 253.736 162.927 250.773 Q162.927 246.63 165.867 244.222 Q168.83 241.815 173.969 241.815 Q179.131 241.815 182.071 244.222 Q185.01 246.63 185.01 250.773 Q185.01 253.736 183.321 255.796 Q181.654 257.857 178.668 258.597 Q182.047 259.384 183.922 261.676 Q185.821 263.968 185.821 267.278 Q185.821 272.301 182.742 274.986 Q179.686 277.671 173.969 277.671 Q168.251 277.671 165.173 274.986 Q162.117 272.301 162.117 267.278 Q162.117 263.968 164.015 261.676 Q165.913 259.384 169.293 258.597 M167.58 251.213 Q167.58 253.898 169.247 255.403 Q170.936 256.907 173.969 256.907 Q176.978 256.907 178.668 255.403 Q180.381 253.898 180.381 251.213 Q180.381 248.528 178.668 247.023 Q176.978 245.519 173.969 245.519 Q170.936 245.519 169.247 247.023 Q167.58 248.528 167.58 251.213 Z" fill="#000000" fill-rule="nonzero" fill-opacity="1" /><path clip-path="url(#clip890)" d="M26.07 1060.66 L24.0089 1060.66 Q24.0089 1052.74 19.7899 1048.65 Q19.7899 1047.52 20.0475 1047.33 Q20.3052 1047.13 21.4968 1047.13 L58.5013 1047.13 Q60.4659 1047.13 61.0778 1046.17 Q61.6897 1045.2 61.6897 1040.98 L61.6897 1038.89 L63.7187 1038.89 Q63.5255 1041.21 63.5255 1049.58 Q63.5255 1057.95 63.7187 1060.24 L61.6897 1060.24 L61.6897 1058.15 Q61.6897 1053.99 61.11 1052.99 Q60.4981 1052 58.5013 1052 L24.3309 1052 Q26.07 1055.44 26.07 1060.66 Z" fill="#000000" fill-rule="nonzero" fill-opacity="1" /><path clip-path="url(#clip890)" d="M46.2953 966.154 Q46.6818 965.767 47.2293 965.767 Q47.7768 965.767 48.1633 966.154 Q48.5497 966.54 48.5497 967.088 L48.5497 1008.38 Q48.5497 1008.92 48.1633 1009.31 Q47.7768 1009.7 47.2293 1009.7 Q46.6818 1009.7 46.2953 1009.31 Q45.9089 1008.92 45.9089 1008.38 L45.9089 967.088 Q45.9089 966.54 46.2953 966.154 Z" fill="#000000" fill-rule="nonzero" fill-opacity="1" /><path clip-path="url(#clip890)" d="M36.859 904.962 Q39.1134 904.962 39.1134 908.183 L39.1134 915.719 Q44.4596 916.878 49.6125 916.878 Q55.7638 916.878 60.4981 914.978 Q61.4321 914.592 61.9474 914.592 Q62.9135 914.592 63.6865 915.461 Q64.4594 916.299 64.4594 917.297 Q64.4594 918.134 63.8153 918.682 Q63.1712 919.197 61.1422 919.648 Q58.759 920.196 56.1181 920.196 Q52.9619 920.196 49.9346 919.68 Q46.875 919.165 39.1134 917.426 L39.1134 924.865 L53.7027 928.569 Q58.6302 929.89 60.1438 930.34 Q61.0456 930.63 61.3355 930.727 Q61.6253 930.824 62.3338 931.113 Q63.0102 931.371 63.2678 931.564 Q63.4933 931.758 63.8475 932.08 Q64.234 932.402 64.3306 932.788 Q64.4594 933.175 64.4594 933.658 Q64.4594 934.398 63.9763 934.978 Q63.5255 935.558 62.6559 935.558 Q62.0762 935.558 61.0778 935.043 Q47.8734 928.923 39.1134 926.605 L39.1134 930.34 Q39.1134 935.493 44.2019 938.714 Q44.8783 939.229 44.9427 939.519 Q44.9749 939.648 44.9749 939.777 Q44.9749 940.131 44.8139 940.356 Q44.6528 940.55 44.4918 940.55 L44.3308 940.582 Q44.1375 940.582 43.268 940.099 Q42.3662 939.584 40.9814 938.617 Q39.5965 937.619 38.4049 936.556 Q37.3099 935.526 36.6336 934.527 Q35.925 933.497 35.6674 932.53 Q35.4097 931.564 35.3453 931.017 Q35.2809 930.469 35.2809 929.696 L35.2809 907.603 Q35.2809 906.766 35.3453 906.315 Q35.3775 905.864 35.764 905.413 Q36.1183 904.962 36.859 904.962 Z" fill="#000000" fill-rule="nonzero" fill-opacity="1" /><path clip-path="url(#clip890)" d="M47.2293 896.229 Q36.0861 896.229 27.1006 892.074 Q23.3325 890.303 20.1764 887.823 Q17.0202 885.343 15.6353 883.701 Q14.2505 882.058 14.2505 881.607 Q14.2505 880.963 14.8946 880.931 Q15.2167 880.931 16.0218 881.801 Q26.843 892.428 47.2293 892.396 Q67.68 892.396 78.0825 882.058 Q79.2097 880.931 79.564 880.931 Q80.2081 880.931 80.2081 881.607 Q80.2081 882.058 78.8877 883.636 Q77.5672 885.214 74.5399 887.662 Q71.5125 890.11 67.8088 891.881 Q58.8234 896.229 47.2293 896.229 Z" fill="#000000" fill-rule="nonzero" fill-opacity="1" /><path clip-path="url(#clip890)" d="M30.7399 847.351 Q36.1505 847.351 42.2374 849.091 Q48.2921 850.797 53.1874 853.503 Q58.0505 856.208 61.271 859.751 Q64.4594 863.293 64.4594 866.675 Q64.4594 868.833 63.2678 870.443 Q62.044 872.021 60.015 872.891 Q57.9538 873.76 55.6994 874.179 Q53.4128 874.598 50.933 874.598 Q47.2293 874.598 43.2036 873.792 Q39.1456 872.987 35.4742 871.635 Q31.7705 870.282 28.4211 868.382 Q25.0395 866.482 22.5918 864.388 Q20.112 862.263 18.6627 859.879 Q17.2134 857.496 17.2134 855.274 Q17.2134 853.664 17.922 852.376 Q18.5983 851.055 19.7899 850.218 Q20.9493 849.38 22.3342 848.801 Q23.719 848.189 25.3293 847.899 Q26.9074 847.609 28.2278 847.48 Q29.5161 847.351 30.7399 847.351 M26.6497 851.699 Q25.0072 851.699 23.7834 851.828 Q22.5274 851.957 21.2714 852.311 Q20.0153 852.665 19.339 853.438 Q18.6627 854.179 18.6627 855.338 Q18.6627 858.72 25.587 862.52 Q27.7447 863.744 30.6755 864.839 Q33.6062 865.934 34.9911 866.321 Q36.3759 866.707 39.7897 867.609 L39.7897 853.825 Q30.9975 851.699 26.6497 851.699 M41.8831 854.404 L41.8831 868.124 Q49.9346 870.25 54.9587 870.25 Q59.3387 870.25 61.1744 869.348 Q62.978 868.414 62.978 866.675 Q62.978 864.678 60.9812 862.81 Q58.9522 860.942 55.2808 859.042 Q50.5143 856.53 41.8831 854.404 Z" fill="#000000" fill-rule="nonzero" fill-opacity="1" /><path clip-path="url(#clip890)" d="M79.564 840.543 Q79.2419 840.543 78.4368 839.706 Q67.6156 829.078 47.2293 829.078 Q26.7786 829.078 16.4405 839.287 Q15.2489 840.543 14.8946 840.543 Q14.2505 840.543 14.2505 839.899 Q14.2505 839.448 15.5709 837.87 Q16.8914 836.26 19.9187 833.844 Q22.9461 831.397 26.6497 829.593 Q35.6352 825.246 47.2293 825.246 Q58.3725 825.246 67.358 829.4 Q71.126 831.171 74.2822 833.651 Q77.4384 836.131 78.8232 837.774 Q80.2081 839.416 80.2081 839.899 Q80.2081 840.543 79.564 840.543 Z" fill="#000000" fill-rule="nonzero" fill-opacity="1" /><path clip-path="url(#clip890)" d="M1043.86 52.3078 Q1043.86 53.3735 1043.41 55.423 Q1041.98 61.2025 1036.61 65.1784 Q1035.71 65.9162 1034.11 66.859 Q1036.03 68.1297 1037.71 70.466 Q1040.22 74.319 1040.22 79.5247 Q1040.22 81.943 1039.56 84.8943 Q1037.71 91.7395 1031.24 96.6582 Q1024.72 101.454 1016.97 101.454 Q1012.79 101.454 1009.92 99.2405 Q1007.1 96.9861 1005.99 93.2151 L1000.29 116.21 Q1000.17 116.784 999.431 116.784 L999.021 116.784 Q998.16 116.784 998.16 115.8 L1011.11 64.1537 Q1011.97 60.6696 1013.37 57.3905 Q1014.76 54.1113 1016.69 51.1601 Q1018.65 48.2089 1020.91 46.0364 Q1023.16 43.823 1025.95 42.5523 Q1028.74 41.2407 1031.69 41.2407 Q1037.88 41.2407 1041.4 45.4626 Q1043.86 48.4548 1043.86 52.3078 M1039.15 50.8322 Q1039.15 48.2908 1038.12 46.5283 Q1036.03 43.1672 1031.61 43.1672 Q1028.94 43.1672 1026.4 44.3969 Q1023.9 45.5855 1021.89 47.635 Q1019.88 49.6845 1018.16 52.4717 Q1016.44 55.259 1015.17 58.2922 Q1013.94 61.2844 1013.12 64.5636 L1008.08 84.8943 Q1007.59 87.0667 1007.59 88.9932 Q1007.59 93.584 1010.13 96.5762 Q1012.67 99.5684 1017.06 99.5684 Q1022.88 99.5684 1027.88 95.2236 Q1032.22 91.3296 1034.03 84.4844 Q1035.05 80.1805 1035.05 77.1883 Q1035.05 73.9091 1033.86 71.3678 Q1033 69.3183 1031.32 68.0887 Q1028.21 69.1954 1025.05 69.1954 Q1023.53 69.1954 1022.71 69.1544 Q1021.93 69.1134 1020.79 68.9494 Q1019.68 68.7855 1019.15 68.3346 Q1018.65 67.8837 1018.65 67.1869 Q1018.65 66.777 1018.74 66.613 Q1018.9 65.9572 1019.43 65.5063 Q1019.97 65.0555 1020.58 64.8505 Q1021.2 64.6046 1022.22 64.4816 Q1023.29 64.3586 1023.98 64.3586 Q1024.68 64.3176 1025.87 64.3176 Q1028.66 64.3176 1031.48 65.4244 Q1032.55 64.8505 1033.7 63.8258 Q1037.35 60.4237 1038.58 55.0131 Q1039.15 53.0046 1039.15 50.8322 M1028.82 66.695 Q1027.1 66.2441 1025.79 66.2441 Q1020.99 66.2441 1020.75 67.0229 Q1020.75 67.1049 1020.91 67.1869 Q1021.07 67.2279 1021.44 67.2689 Q1021.85 67.2689 1022.18 67.3099 Q1022.55 67.3509 1023.16 67.3509 Q1023.78 67.3509 1024.11 67.3509 Q1024.48 67.3509 1025.13 67.3509 Q1026.77 67.3509 1028.82 66.695 Z" fill="#000000" fill-rule="nonzero" fill-opacity="1" /><path clip-path="url(#clip890)" d="M1068.5 87.7635 Q1068.58 86.7388 1070.18 86.7388 L1121.62 86.7388 Q1124.04 86.7388 1124.08 87.6815 Q1124.08 88.7063 1121.79 88.6653 L1070.76 88.6653 Q1068.5 88.7063 1068.5 87.7635 M1068.5 71.3678 Q1068.5 70.3431 1070.26 70.3841 L1121.54 70.3841 Q1124.04 70.3841 1124.08 71.3678 Q1124.08 72.3106 1121.95 72.3106 L1070.18 72.3106 Q1068.5 72.3106 1068.5 71.3678 Z" fill="#000000" fill-rule="nonzero" fill-opacity="1" /><path clip-path="url(#clip890)" d="M1156.46 52.5947 L1156.46 49.9714 Q1166.54 49.9714 1171.75 44.6018 Q1173.18 44.6018 1173.43 44.9297 Q1173.68 45.2576 1173.68 46.7742 L1173.68 93.8709 Q1173.68 96.3713 1174.91 97.1501 Q1176.14 97.9289 1181.51 97.9289 L1184.17 97.9289 L1184.17 100.511 Q1181.22 100.265 1170.56 100.265 Q1159.9 100.265 1156.99 100.511 L1156.99 97.9289 L1159.66 97.9289 Q1164.95 97.9289 1166.22 97.191 Q1167.49 96.4123 1167.49 93.8709 L1167.49 50.3813 Q1163.1 52.5947 1156.46 52.5947 Z" fill="#000000" fill-rule="nonzero" fill-opacity="1" /><path clip-path="url(#clip890)" d="M1276.74 78.336 Q1277.23 78.8279 1277.23 79.5247 Q1277.23 80.2215 1276.74 80.7134 Q1276.25 81.2052 1275.55 81.2052 L1223 81.2052 Q1222.31 81.2052 1221.81 80.7134 Q1221.32 80.2215 1221.32 79.5247 Q1221.32 78.8279 1221.81 78.336 Q1222.31 77.8441 1223 77.8441 L1275.55 77.8441 Q1276.25 77.8441 1276.74 78.336 Z" fill="#000000" fill-rule="nonzero" fill-opacity="1" /><path clip-path="url(#clip890)" d="M1354.62 66.3261 Q1354.62 69.1954 1350.52 69.1954 L1340.93 69.1954 Q1339.45 75.9996 1339.45 82.5579 Q1339.45 90.3868 1341.87 96.4123 Q1342.36 97.6009 1342.36 98.2568 Q1342.36 99.4864 1341.25 100.47 Q1340.19 101.454 1338.92 101.454 Q1337.85 101.454 1337.15 100.634 Q1336.5 99.8144 1335.92 97.232 Q1335.23 94.1988 1335.23 90.8377 Q1335.23 86.8208 1335.88 82.9678 Q1336.54 79.0738 1338.75 69.1954 L1329.28 69.1954 L1324.57 87.7635 Q1322.89 94.0349 1322.32 95.9614 Q1321.95 97.1091 1321.82 97.478 Q1321.7 97.8469 1321.33 98.7486 Q1321 99.6094 1320.76 99.9373 Q1320.51 100.224 1320.1 100.675 Q1319.69 101.167 1319.2 101.29 Q1318.71 101.454 1318.09 101.454 Q1317.15 101.454 1316.41 100.839 Q1315.68 100.265 1315.68 99.1585 Q1315.68 98.4207 1316.33 97.1501 Q1324.12 80.3445 1327.07 69.1954 L1322.32 69.1954 Q1315.76 69.1954 1311.66 75.6717 Q1311 76.5325 1310.63 76.6144 Q1310.47 76.6554 1310.31 76.6554 Q1309.86 76.6554 1309.57 76.4505 Q1309.32 76.2455 1309.32 76.0406 L1309.28 75.8356 Q1309.28 75.5897 1309.9 74.483 Q1310.55 73.3353 1311.78 71.5727 Q1313.05 69.8102 1314.41 68.2936 Q1315.72 66.9 1316.99 66.0392 Q1318.3 65.1374 1319.53 64.8095 Q1320.76 64.4816 1321.46 64.3996 Q1322.15 64.3176 1323.14 64.3176 L1351.25 64.3176 Q1352.32 64.3176 1352.89 64.3996 Q1353.47 64.4406 1354.04 64.9325 Q1354.62 65.3834 1354.62 66.3261 Z" fill="#000000" fill-rule="nonzero" fill-opacity="1" /><path clip-path="url(#clip890)" d="M1365.73 79.5247 Q1365.73 65.3424 1371.02 53.9064 Q1373.27 49.1106 1376.43 45.0937 Q1379.58 41.0767 1381.67 39.3142 Q1383.77 37.5516 1384.34 37.5516 Q1385.16 37.5516 1385.2 38.3714 Q1385.2 38.7813 1384.09 39.8061 Q1370.57 53.5785 1370.61 79.5247 Q1370.61 105.553 1383.77 118.792 Q1385.2 120.227 1385.2 120.678 Q1385.2 121.498 1384.34 121.498 Q1383.77 121.498 1381.76 119.817 Q1379.75 118.137 1376.63 114.284 Q1373.52 110.431 1371.26 105.717 Q1365.73 94.2808 1365.73 79.5247 Z" fill="#000000" fill-rule="nonzero" fill-opacity="1" /><path clip-path="url(#clip890)" d="M1427.94 58.5382 Q1427.94 65.4244 1425.72 73.1713 Q1423.55 80.8773 1420.11 87.1077 Q1416.66 93.2971 1412.16 97.396 Q1407.65 101.454 1403.34 101.454 Q1400.6 101.454 1398.55 99.9373 Q1396.54 98.3797 1395.43 95.7974 Q1394.33 93.1741 1393.79 90.3048 Q1393.26 87.3946 1393.26 84.2384 Q1393.26 79.5247 1394.28 74.401 Q1395.31 69.2364 1397.03 64.5636 Q1398.75 59.8498 1401.17 55.5869 Q1403.59 51.2831 1406.25 48.1679 Q1408.96 45.0117 1411.99 43.1672 Q1415.03 41.3227 1417.85 41.3227 Q1419.9 41.3227 1421.54 42.2244 Q1423.22 43.0852 1424.29 44.6018 Q1425.35 46.0774 1426.09 47.84 Q1426.87 49.6025 1427.24 51.652 Q1427.61 53.6604 1427.77 55.341 Q1427.94 56.9806 1427.94 58.5382 M1422.4 53.3325 Q1422.4 51.2421 1422.24 49.6845 Q1422.08 48.0859 1421.62 46.4873 Q1421.17 44.8887 1420.19 44.028 Q1419.25 43.1672 1417.77 43.1672 Q1413.47 43.1672 1408.63 51.9799 Q1407.07 54.7262 1405.68 58.4562 Q1404.29 62.1862 1403.79 63.9487 Q1403.3 65.7113 1402.15 70.0561 L1419.7 70.0561 Q1422.4 58.8661 1422.4 53.3325 M1418.96 72.7204 L1401.5 72.7204 Q1398.79 82.9678 1398.79 89.3621 Q1398.79 94.9366 1399.94 97.273 Q1401.13 99.5684 1403.34 99.5684 Q1405.88 99.5684 1408.26 97.0271 Q1410.64 94.4448 1413.06 89.772 Q1416.25 83.7056 1418.96 72.7204 Z" fill="#000000" fill-rule="nonzero" fill-opacity="1" /><path clip-path="url(#clip890)" d="M1436.6 120.678 Q1436.6 120.268 1437.67 119.243 Q1451.19 105.471 1451.19 79.5247 Q1451.19 53.4965 1438.2 40.3389 Q1436.6 38.8223 1436.6 38.3714 Q1436.6 37.5516 1437.42 37.5516 Q1437.99 37.5516 1440 39.2322 Q1442.05 40.9128 1445.13 44.7658 Q1448.24 48.6188 1450.54 53.3325 Q1456.07 64.7685 1456.07 79.5247 Q1456.07 93.707 1450.78 105.143 Q1448.53 109.939 1445.37 113.956 Q1442.22 117.973 1440.13 119.735 Q1438.04 121.498 1437.42 121.498 Q1436.6 121.498 1436.6 120.678 Z" fill="#000000" fill-rule="nonzero" fill-opacity="1" /><path clip-path="url(#clip890)" d="M1492.12 87.7635 Q1492.21 86.7388 1493.8 86.7388 L1545.25 86.7388 Q1547.66 86.7388 1547.71 87.6815 Q1547.71 88.7063 1545.41 88.6653 L1494.38 88.6653 Q1492.12 88.7063 1492.12 87.7635 M1492.12 71.3678 Q1492.12 70.3431 1493.89 70.3841 L1545.16 70.3841 Q1547.66 70.3841 1547.71 71.3678 Q1547.71 72.3106 1545.57 72.3106 L1493.8 72.3106 Q1492.12 72.3106 1492.12 71.3678 Z" fill="#000000" fill-rule="nonzero" fill-opacity="1" /><path clip-path="url(#clip890)" d="M1580.08 79.5247 Q1580.08 65.3424 1585.37 53.9064 Q1587.63 49.1106 1590.78 45.0937 Q1593.94 41.0767 1596.03 39.3142 Q1598.12 37.5516 1598.69 37.5516 Q1599.51 37.5516 1599.55 38.3714 Q1599.55 38.7813 1598.45 39.8061 Q1584.92 53.5785 1584.96 79.5247 Q1584.96 105.553 1598.12 118.792 Q1599.55 120.227 1599.55 120.678 Q1599.55 121.498 1598.69 121.498 Q1598.12 121.498 1596.11 119.817 Q1594.1 118.137 1590.99 114.284 Q1587.87 110.431 1585.62 105.717 Q1580.08 94.2808 1580.08 79.5247 Z" fill="#000000" fill-rule="nonzero" fill-opacity="1" /><path clip-path="url(#clip890)" d="M1610.64 52.5947 L1610.64 49.9714 Q1620.72 49.9714 1625.93 44.6018 Q1627.36 44.6018 1627.61 44.9297 Q1627.85 45.2576 1627.85 46.7742 L1627.85 93.8709 Q1627.85 96.3713 1629.08 97.1501 Q1630.31 97.9289 1635.68 97.9289 L1638.35 97.9289 L1638.35 100.511 Q1635.4 100.265 1624.74 100.265 Q1614.08 100.265 1611.17 100.511 L1611.17 97.9289 L1613.84 97.9289 Q1619.12 97.9289 1620.39 97.191 Q1621.66 96.4123 1621.66 93.8709 L1621.66 50.3813 Q1617.28 52.5947 1610.64 52.5947 Z" fill="#000000" fill-rule="nonzero" fill-opacity="1" /><path clip-path="url(#clip890)" d="M1730.92 78.336 Q1731.41 78.8279 1731.41 79.5247 Q1731.41 80.2215 1730.92 80.7134 Q1730.42 81.2052 1729.73 81.2052 L1677.18 81.2052 Q1676.48 81.2052 1675.99 80.7134 Q1675.5 80.2215 1675.5 79.5247 Q1675.5 78.8279 1675.99 78.336 Q1676.48 77.8441 1677.18 77.8441 L1729.73 77.8441 Q1730.42 77.8441 1730.92 78.336 Z" fill="#000000" fill-rule="nonzero" fill-opacity="1" /><path clip-path="url(#clip890)" d="M1798.14 58.5382 Q1798.14 65.4244 1795.92 73.1713 Q1793.75 80.8773 1790.31 87.1077 Q1786.86 93.2971 1782.35 97.396 Q1777.85 101.454 1773.54 101.454 Q1770.8 101.454 1768.75 99.9373 Q1766.74 98.3797 1765.63 95.7974 Q1764.52 93.1741 1763.99 90.3048 Q1763.46 87.3946 1763.46 84.2384 Q1763.46 79.5247 1764.48 74.401 Q1765.51 69.2364 1767.23 64.5636 Q1768.95 59.8498 1771.37 55.5869 Q1773.79 51.2831 1776.45 48.1679 Q1779.16 45.0117 1782.19 43.1672 Q1785.22 41.3227 1788.05 41.3227 Q1790.1 41.3227 1791.74 42.2244 Q1793.42 43.0852 1794.49 44.6018 Q1795.55 46.0774 1796.29 47.84 Q1797.07 49.6025 1797.44 51.652 Q1797.81 53.6604 1797.97 55.341 Q1798.14 56.9806 1798.14 58.5382 M1792.6 53.3325 Q1792.6 51.2421 1792.44 49.6845 Q1792.27 48.0859 1791.82 46.4873 Q1791.37 44.8887 1790.39 44.028 Q1789.45 43.1672 1787.97 43.1672 Q1783.67 43.1672 1778.83 51.9799 Q1777.27 54.7262 1775.88 58.4562 Q1774.48 62.1862 1773.99 63.9487 Q1773.5 65.7113 1772.35 70.0561 L1789.9 70.0561 Q1792.6 58.8661 1792.6 53.3325 M1789.16 72.7204 L1771.7 72.7204 Q1768.99 82.9678 1768.99 89.3621 Q1768.99 94.9366 1770.14 97.273 Q1771.33 99.5684 1773.54 99.5684 Q1776.08 99.5684 1778.46 97.0271 Q1780.84 94.4448 1783.26 89.772 Q1786.45 83.7056 1789.16 72.7204 Z" fill="#000000" fill-rule="nonzero" fill-opacity="1" /><path clip-path="url(#clip890)" d="M1802.43 120.678 Q1802.43 120.268 1803.5 119.243 Q1817.02 105.471 1817.02 79.5247 Q1817.02 53.4965 1804.03 40.3389 Q1802.43 38.8223 1802.43 38.3714 Q1802.43 37.5516 1803.25 37.5516 Q1803.83 37.5516 1805.83 39.2322 Q1807.88 40.9128 1810.96 44.7658 Q1814.07 48.6188 1816.37 53.3325 Q1821.9 64.7685 1821.9 79.5247 Q1821.9 93.707 1816.61 105.143 Q1814.36 109.939 1811.2 113.956 Q1808.05 117.973 1805.96 119.735 Q1803.87 121.498 1803.25 121.498 Q1802.43 121.498 1802.43 120.678 Z" fill="#000000" fill-rule="nonzero" fill-opacity="1" /><path clip-path="url(#clip890)" d="M1830.68 49.7864 Q1830.68 48.7248 1830.76 48.4091 Q1830.88 48.0935 1831.34 47.6058 L1842.61 35.0384 Q1848.78 28.0949 1848.78 22.0407 Q1848.78 18.1099 1846.72 15.298 Q1844.68 12.4861 1840.92 12.4861 Q1838.34 12.4861 1836.16 14.0642 Q1833.98 15.6423 1832.97 18.4542 Q1833.14 18.3968 1833.75 18.3968 Q1835.21 18.3968 1836.01 19.315 Q1836.85 20.2331 1836.85 21.4669 Q1836.85 23.045 1835.81 23.8197 Q1834.81 24.5657 1833.8 24.5657 Q1833.4 24.5657 1832.86 24.4796 Q1832.34 24.3935 1831.51 23.5901 Q1830.68 22.7581 1830.68 21.2947 Q1830.68 17.1917 1833.78 13.9208 Q1836.9 10.6498 1841.67 10.6498 Q1847.06 10.6498 1850.59 13.8634 Q1854.15 17.0482 1854.15 22.0407 Q1854.15 23.791 1853.6 25.3978 Q1853.09 26.9758 1852.37 28.2096 Q1851.68 29.4434 1849.79 31.4232 Q1847.89 33.403 1846.37 34.8089 Q1844.85 36.2148 1841.44 39.1988 L1835.21 45.253 L1845.8 45.253 Q1850.96 45.253 1851.36 44.7939 Q1851.94 43.9618 1852.65 39.5719 L1854.15 39.5719 L1852.48 49.7864 L1830.68 49.7864 Z" fill="#000000" fill-rule="nonzero" fill-opacity="1" /><polyline clip-path="url(#clip892)" style="stroke:#009af9; stroke-linecap:round; stroke-linejoin:round; stroke-width:4; stroke-opacity:1; fill:none" points="226.141,1689.05 251.068,1666.95 397.068,1540.26 464.987,1482.93 556.024,1407.7 631.248,1346.91 701.2,1291.51 789.013,1223.5 867.782,1163.94 957.943,1097.46 1025.34,1048.94 1111.54,988.344 1190.21,934.476 1279.76,874.834 1350.74,828.816 1438.93,773.198 1506.46,731.768 1601.68,675.072 1672.83,634.015 1753.75,588.686 1833.89,545.223 1922.05,499.048 1989.39,464.938 2074.37,423.326 2152.97,386.263 2234.03,349.471 2316.2,313.663 2401.99,277.867 2469.58,250.816 2623.49,192.987 2640.76,186.826 "/>
</svg>
