<?xml version="1.0" encoding="utf-8"?>
<svg xmlns="http://www.w3.org/2000/svg" xmlns:xlink="http://www.w3.org/1999/xlink" width="672" height="480" viewBox="0 0 2688 1920">
<defs>
  <clipPath id="clip070">
    <rect x="0" y="0" width="2688" height="1920"/>
  </clipPath>
</defs>
<path clip-path="url(#clip070)" d="M0 1920 L2688 1920 L2688 0 L0 0  Z" fill="#ffffff" fill-rule="evenodd" fill-opacity="1"/>
<defs>
  <clipPath id="clip071">
    <rect x="537" y="0" width="1883" height="1883"/>
  </clipPath>
</defs>
<path clip-path="url(#clip070)" d="M159.478 1721.28 L2640.76 1721.28 L2640.76 47.2441 L159.478 47.2441  Z" fill="#ffffff" fill-rule="evenodd" fill-opacity="1"/>
<defs>
  <clipPath id="clip072">
    <rect x="159" y="47" width="2482" height="1675"/>
  </clipPath>
</defs>
<polyline clip-path="url(#clip072)" style="stroke:#000000; stroke-linecap:round; stroke-linejoin:round; stroke-width:2; stroke-opacity:0.1; fill:none" points="783.284,1721.28 783.284,47.2441 "/>
<polyline clip-path="url(#clip072)" style="stroke:#000000; stroke-linecap:round; stroke-linejoin:round; stroke-width:2; stroke-opacity:0.1; fill:none" points="2016.95,1721.28 2016.95,47.2441 "/>
<polyline clip-path="url(#clip072)" style="stroke:#000000; stroke-linecap:round; stroke-linejoin:round; stroke-width:2; stroke-opacity:0.1; fill:none" points="159.478,1675.47 2640.76,1675.47 "/>
<polyline clip-path="url(#clip072)" style="stroke:#000000; stroke-linecap:round; stroke-linejoin:round; stroke-width:2; stroke-opacity:0.1; fill:none" points="159.478,1279.15 2640.76,1279.15 "/>
<polyline clip-path="url(#clip072)" style="stroke:#000000; stroke-linecap:round; stroke-linejoin:round; stroke-width:2; stroke-opacity:0.1; fill:none" points="159.478,882.836 2640.76,882.836 "/>
<polyline clip-path="url(#clip072)" style="stroke:#000000; stroke-linecap:round; stroke-linejoin:round; stroke-width:2; stroke-opacity:0.1; fill:none" points="159.478,486.521 2640.76,486.521 "/>
<polyline clip-path="url(#clip072)" style="stroke:#000000; stroke-linecap:round; stroke-linejoin:round; stroke-width:2; stroke-opacity:0.1; fill:none" points="159.478,90.2055 2640.76,90.2055 "/>
<polyline clip-path="url(#clip070)" style="stroke:#000000; stroke-linecap:round; stroke-linejoin:round; stroke-width:4; stroke-opacity:1; fill:none" points="159.478,1721.28 2640.76,1721.28 "/>
<polyline clip-path="url(#clip070)" style="stroke:#000000; stroke-linecap:round; stroke-linejoin:round; stroke-width:4; stroke-opacity:1; fill:none" points="783.284,1721.28 783.284,1702.38 "/>
<polyline clip-path="url(#clip070)" style="stroke:#000000; stroke-linecap:round; stroke-linejoin:round; stroke-width:4; stroke-opacity:1; fill:none" points="2016.95,1721.28 2016.95,1702.38 "/>
<path clip-path="url(#clip070)" d="M723.336 1745.75 Q723.336 1747.06 722.516 1747.81 Q721.696 1748.53 720.759 1748.53 Q719.869 1748.53 719.401 1748.02 Q718.932 1747.5 718.932 1746.85 Q718.932 1745.96 719.588 1745.18 Q720.244 1744.41 721.228 1744.25 Q720.267 1743.64 718.839 1743.64 Q717.902 1743.64 717.082 1744.13 Q716.286 1744.62 715.794 1745.25 Q715.325 1745.89 714.904 1746.8 Q714.505 1747.69 714.341 1748.23 Q714.201 1748.74 714.084 1749.31 L712.444 1755.86 Q711.648 1758.98 711.648 1760.08 Q711.648 1761.44 712.304 1762.35 Q712.96 1763.24 714.271 1763.24 Q714.786 1763.24 715.372 1763.1 Q715.958 1762.94 716.707 1762.52 Q717.48 1762.07 718.159 1761.41 Q718.862 1760.74 719.541 1759.59 Q720.22 1758.44 720.666 1756.96 Q720.806 1756.45 721.275 1756.45 Q721.86 1756.45 721.86 1756.92 Q721.86 1757.32 721.532 1758.16 Q721.228 1758.98 720.548 1760.06 Q719.893 1761.11 719.026 1762.07 Q718.159 1763.01 716.871 1763.66 Q715.583 1764.32 714.178 1764.32 Q712.163 1764.32 710.828 1763.24 Q709.493 1762.16 709.001 1760.67 Q708.884 1760.88 708.72 1761.16 Q708.556 1761.44 708.064 1762.07 Q707.596 1762.68 707.057 1763.15 Q706.518 1763.59 705.675 1763.94 Q704.855 1764.32 703.965 1764.32 Q702.841 1764.32 701.834 1763.99 Q700.85 1763.66 700.147 1762.91 Q699.445 1762.16 699.445 1761.13 Q699.445 1759.99 700.218 1759.19 Q701.014 1758.37 702.092 1758.37 Q702.771 1758.37 703.309 1758.77 Q703.872 1759.17 703.872 1760.03 Q703.872 1760.99 703.216 1761.72 Q702.56 1762.45 701.623 1762.63 Q702.583 1763.24 704.012 1763.24 Q705.558 1763.24 706.776 1761.88 Q707.994 1760.52 708.58 1758.25 Q710.032 1752.8 710.594 1750.36 Q711.156 1747.9 711.156 1746.85 Q711.156 1745.86 710.898 1745.18 Q710.641 1744.5 710.196 1744.2 Q709.774 1743.87 709.376 1743.75 Q709.001 1743.64 708.58 1743.64 Q707.877 1743.64 707.081 1743.92 Q706.308 1744.2 705.371 1744.86 Q704.457 1745.49 703.591 1746.8 Q702.724 1748.11 702.138 1749.91 Q702.021 1750.45 701.506 1750.45 Q700.944 1750.43 700.944 1749.96 Q700.944 1749.56 701.248 1748.74 Q701.576 1747.9 702.232 1746.85 Q702.911 1745.79 703.778 1744.86 Q704.668 1743.89 705.956 1743.24 Q707.268 1742.58 708.673 1742.58 Q709.306 1742.58 709.915 1742.72 Q710.547 1742.84 711.297 1743.19 Q712.069 1743.54 712.749 1744.32 Q713.428 1745.09 713.85 1746.21 Q714.131 1745.68 714.505 1745.16 Q714.904 1744.64 715.513 1744.01 Q716.145 1743.36 717.012 1742.98 Q717.902 1742.58 718.885 1742.58 Q719.846 1742.58 720.783 1742.84 Q721.72 1743.08 722.516 1743.85 Q723.336 1744.6 723.336 1745.75 Z" fill="#000000" fill-rule="nonzero" fill-opacity="1" /><path clip-path="url(#clip070)" d="M743.604 1768.32 Q743.161 1770.44 742.587 1771.65 Q741.669 1773.5 740.112 1773.5 Q738.931 1773.5 738.095 1772.78 Q737.259 1772.06 737.062 1770.98 Q734.914 1773.5 732.684 1773.5 Q730.717 1773.5 729.471 1772.01 Q728.225 1770.5 728.225 1768.12 Q728.225 1765.73 729.405 1763.44 Q730.602 1761.14 732.488 1759.71 Q734.373 1758.29 736.308 1758.29 Q738.357 1758.29 739.407 1760.44 Q739.489 1759.85 739.866 1759.4 Q740.243 1758.96 740.817 1758.96 Q741.259 1758.96 741.522 1759.21 Q741.784 1759.44 741.784 1759.86 Q741.784 1760.07 741.555 1761.01 L740.341 1765.7 L739.603 1768.73 Q739.325 1769.85 739.243 1770.26 Q739.177 1770.67 739.177 1771.21 Q739.177 1772.75 740.177 1772.75 Q740.669 1772.75 741.063 1772.44 Q741.456 1772.13 741.768 1771.47 Q742.079 1770.81 742.276 1770.21 Q742.473 1769.58 742.735 1768.6 Q742.817 1768.21 742.883 1768.11 Q742.965 1767.99 743.194 1767.99 Q743.604 1767.99 743.604 1768.32 M738.997 1761.98 Q738.997 1761.83 738.882 1761.42 Q738.767 1761.01 738.505 1760.44 Q738.243 1759.86 737.669 1759.45 Q737.111 1759.03 736.357 1759.03 Q735.341 1759.03 734.275 1759.89 Q733.225 1760.76 732.455 1762.24 Q731.865 1763.42 731.225 1765.9 Q730.602 1768.37 730.602 1769.6 Q730.602 1770.35 730.766 1771.03 Q730.946 1771.68 731.455 1772.22 Q731.963 1772.75 732.75 1772.75 Q734.668 1772.75 736.554 1770.37 Q736.915 1769.96 736.996 1769.8 Q737.095 1769.62 737.226 1769.13 L738.898 1762.55 Q738.997 1762.06 738.997 1761.98 Z" fill="#000000" fill-rule="nonzero" fill-opacity="1" /><path clip-path="url(#clip070)" d="M795.911 1751.11 Q796.192 1751.39 796.192 1751.79 Q796.192 1752.19 795.911 1752.47 Q795.63 1752.75 795.232 1752.75 L765.204 1752.75 Q764.806 1752.75 764.525 1752.47 Q764.244 1752.19 764.244 1751.79 Q764.244 1751.39 764.525 1751.11 Q764.806 1750.83 765.204 1750.83 L795.232 1750.83 Q795.63 1750.83 795.911 1751.11 Z" fill="#000000" fill-rule="nonzero" fill-opacity="1" /><path clip-path="url(#clip070)" d="M840.511 1756.92 Q839.902 1759.94 839.082 1761.67 Q837.77 1764.32 835.522 1764.32 Q833.929 1764.32 832.711 1763.36 Q831.517 1762.4 831.212 1760.81 Q830.603 1761.53 830.158 1761.95 Q829.736 1762.38 828.893 1763.03 Q828.073 1763.66 827.043 1763.99 Q826.012 1764.32 824.841 1764.32 Q821.984 1764.32 820.18 1762.82 Q817.744 1772.63 817.533 1773.13 Q816.854 1774.13 815.87 1774.13 Q815.261 1774.13 814.887 1773.76 Q814.512 1773.41 814.512 1772.85 Q814.535 1772.66 814.676 1772.07 L821.562 1744.32 Q821.749 1743.57 822.218 1743.15 Q822.71 1742.7 822.991 1742.65 Q823.272 1742.58 823.483 1742.58 Q824.115 1742.58 824.49 1742.93 Q824.888 1743.26 824.888 1743.87 Q824.888 1743.97 824.747 1744.5 Q824.63 1745.02 824.443 1745.82 Q824.256 1746.59 824.162 1746.94 L822.148 1755 Q821.468 1757.76 821.468 1759.07 Q821.468 1761.06 822.358 1762.16 Q823.272 1763.24 825.029 1763.24 Q826.129 1763.24 827.16 1762.8 Q828.191 1762.33 828.893 1761.7 Q829.596 1761.06 830.158 1760.38 Q830.72 1759.68 830.978 1759.24 Q831.235 1758.77 831.259 1758.65 L832.5 1753.76 L834.772 1744.79 Q834.913 1744.22 835.17 1743.85 Q835.451 1743.45 835.779 1743.31 Q836.107 1743.17 836.295 1743.15 Q836.482 1743.1 836.646 1743.1 Q837.232 1743.1 837.63 1743.45 Q838.028 1743.8 838.028 1744.41 Q838.028 1744.53 837.887 1745.09 Q837.77 1745.63 837.583 1746.42 Q837.396 1747.2 837.302 1747.62 Q836.552 1750.57 836.482 1750.87 L835.147 1756.05 Q835.077 1756.36 834.843 1757.34 Q834.632 1758.32 834.515 1758.84 Q834.397 1759.33 834.28 1760.01 Q834.187 1760.67 834.187 1761.04 Q834.187 1763.24 835.639 1763.24 Q836.201 1763.24 836.693 1762.91 Q837.185 1762.56 837.513 1762.07 Q837.864 1761.58 838.192 1760.74 Q838.543 1759.87 838.754 1759.17 Q838.965 1758.44 839.269 1757.32 Q839.386 1756.78 839.504 1756.61 Q839.621 1756.45 839.949 1756.45 Q840.511 1756.45 840.511 1756.92 Z" fill="#000000" fill-rule="nonzero" fill-opacity="1" /><path clip-path="url(#clip070)" d="M845.374 1776.59 Q845.374 1771.65 846.62 1768.96 Q848.358 1764.96 852.457 1764.96 Q853.326 1764.96 854.228 1765.21 Q855.146 1765.44 856.294 1766.34 Q857.458 1767.24 858.163 1768.72 Q859.507 1771.57 859.507 1776.59 Q859.507 1781.49 858.261 1784.16 Q856.441 1788.06 852.424 1788.06 Q850.916 1788.06 849.375 1787.29 Q847.85 1786.52 846.883 1784.67 Q845.374 1781.9 845.374 1776.59 M848.162 1776.18 Q848.162 1781.24 848.522 1783.26 Q848.932 1785.44 850.047 1786.39 Q851.178 1787.32 852.424 1787.32 Q853.769 1787.32 854.884 1786.32 Q856.015 1785.31 856.359 1783.13 Q856.737 1780.98 856.72 1776.18 Q856.72 1771.5 856.392 1769.63 Q855.95 1767.45 854.769 1766.58 Q853.605 1765.7 852.424 1765.7 Q851.982 1765.7 851.506 1765.83 Q851.047 1765.96 850.375 1766.34 Q849.703 1766.72 849.178 1767.65 Q848.67 1768.58 848.424 1769.99 Q848.162 1771.81 848.162 1776.18 Z" fill="#000000" fill-rule="nonzero" fill-opacity="1" /><path clip-path="url(#clip070)" d="M699.445 1800.86 L872.244 1800.86 L872.244 1798.3 L699.445 1798.3  Z" fill="#000000" fill-rule="evenodd" fill-opacity="1"/>
<path clip-path="url(#clip070)" d="M715.125 1878.79 L728.143 1858.71 L733.439 1885.36 L734.432 1890.21 Q734.652 1888.94 735.314 1886.79 Q736.031 1884.58 736.142 1884.03 L753.628 1816.9 Q753.738 1816.46 753.904 1815.74 Q754.124 1814.97 754.235 1814.69 Q754.345 1814.42 754.511 1813.87 Q754.676 1813.31 754.786 1813.15 Q754.897 1812.93 755.062 1812.54 Q755.228 1812.16 755.448 1812.05 Q755.669 1811.94 755.945 1811.71 Q756.221 1811.49 756.552 1811.44 Q756.938 1811.38 757.324 1811.33 Q757.71 1811.27 758.262 1811.27 L768.136 1811.27 Q771.611 1811.27 771.611 1813.53 Q771.611 1815.8 768.246 1815.8 L758.593 1815.8 L735.811 1902.9 Q735.48 1904.17 735.204 1904.66 Q734.983 1905.16 734.211 1905.6 Q733.439 1906.04 732.06 1906.04 L730.956 1906.04 L723.73 1870.13 L716.945 1880.61 L715.125 1878.79 Z" fill="#000000" fill-rule="nonzero" fill-opacity="1" /><path clip-path="url(#clip070)" d="M767.903 1815.79 L850.605 1815.79 L850.605 1811.1 L767.903 1811.1  Z" fill="#000000" fill-rule="evenodd" fill-opacity="1"/>
<path clip-path="url(#clip070)" d="M808.63 1841.22 Q808.63 1842.86 806.288 1842.86 L801.018 1842.86 Q802.493 1844.96 802.493 1848.08 Q802.493 1850.75 801.392 1853.25 Q800.315 1855.74 798.582 1857.47 Q796.872 1859.2 794.717 1860.26 Q792.562 1861.29 790.454 1861.29 Q787.245 1861.29 785.254 1859.11 Q783.263 1856.93 783.263 1853.7 Q783.263 1851.99 783.849 1850.09 Q784.458 1848.2 785.606 1846.44 Q786.753 1844.66 788.252 1843.23 Q789.775 1841.8 791.742 1840.93 Q793.733 1840.07 795.818 1840.07 L806.756 1840.07 Q807.342 1840.07 807.646 1840.11 Q807.974 1840.14 808.302 1840.42 Q808.63 1840.68 808.63 1841.22 M799.425 1847.52 Q799.425 1846.95 799.355 1846.46 Q799.284 1845.95 799.027 1845.27 Q798.769 1844.56 798.324 1844.07 Q797.879 1843.56 797.012 1843.21 Q796.169 1842.86 795.021 1842.86 Q793.405 1842.86 791.625 1843.75 Q789.845 1844.64 788.487 1846.84 Q787.362 1848.71 786.8 1851.15 Q786.238 1853.58 786.238 1855.03 Q786.238 1857.52 787.433 1858.88 Q788.651 1860.21 790.501 1860.21 Q792.023 1860.21 793.757 1859.18 Q795.49 1858.13 796.825 1856.14 Q797.996 1854.4 798.699 1851.87 Q799.425 1849.34 799.425 1847.52 Z" fill="#000000" fill-rule="nonzero" fill-opacity="1" /><path clip-path="url(#clip070)" d="M813.496 1846.9 Q813.496 1846.3 813.545 1846.11 Q813.611 1845.93 813.873 1845.66 L820.317 1838.47 Q823.842 1834.51 823.842 1831.05 Q823.842 1828.8 822.661 1827.19 Q821.497 1825.59 819.349 1825.59 Q817.874 1825.59 816.627 1826.49 Q815.381 1827.39 814.808 1829 Q814.906 1828.96 815.25 1828.96 Q816.086 1828.96 816.545 1829.49 Q817.021 1830.01 817.021 1830.72 Q817.021 1831.62 816.431 1832.06 Q815.857 1832.49 815.283 1832.49 Q815.053 1832.49 814.742 1832.44 Q814.447 1832.39 813.971 1831.93 Q813.496 1831.46 813.496 1830.62 Q813.496 1828.28 815.267 1826.41 Q817.054 1824.54 819.775 1824.54 Q822.858 1824.54 824.875 1826.37 Q826.908 1828.19 826.908 1831.05 Q826.908 1832.05 826.596 1832.97 Q826.301 1833.87 825.891 1834.57 Q825.498 1835.28 824.415 1836.41 Q823.333 1837.54 822.464 1838.34 Q821.595 1839.15 819.644 1840.85 L816.086 1844.31 L822.136 1844.31 Q825.088 1844.31 825.317 1844.05 Q825.645 1843.57 826.055 1841.06 L826.908 1841.06 L825.957 1846.9 L813.496 1846.9 Z" fill="#000000" fill-rule="nonzero" fill-opacity="1" /><path clip-path="url(#clip070)" d="M783.263 1874.07 L840.365 1874.07 L840.365 1871.51 L783.263 1871.51  Z" fill="#000000" fill-rule="evenodd" fill-opacity="1"/>
<path clip-path="url(#clip070)" d="M822.702 1898.45 Q822.702 1898.64 822.491 1899.37 Q822.281 1900.09 821.765 1901.22 Q821.274 1902.34 820.594 1903.37 Q819.915 1904.38 818.791 1905.13 Q817.69 1905.85 816.425 1905.85 Q814.739 1905.85 813.614 1904.73 Q812.49 1903.6 812.49 1901.92 Q812.49 1900.98 812.982 1899.69 Q816.097 1891.38 816.097 1888.52 Q816.097 1885.17 813.497 1885.17 Q812.209 1885.17 810.991 1885.66 Q809.797 1886.13 808.977 1886.79 Q808.157 1887.44 807.407 1888.36 Q806.681 1889.25 806.307 1889.86 Q805.955 1890.44 805.674 1891.03 L805.065 1893.42 Q804.925 1894.07 804.245 1896.63 L803.191 1900.96 Q802.442 1904.19 802.278 1904.5 Q802.044 1905.15 801.528 1905.5 Q801.013 1905.85 800.498 1905.85 Q799.912 1905.85 799.514 1905.5 Q799.116 1905.15 799.116 1904.54 Q799.116 1904.45 799.186 1904.1 Q799.256 1903.75 799.374 1903.25 Q799.491 1902.76 799.538 1902.48 L802.325 1891.4 Q802.84 1889.39 802.957 1888.76 Q803.098 1888.1 803.098 1887.37 Q803.098 1885.17 801.599 1885.17 Q800.381 1885.17 799.584 1886.62 Q798.788 1888.08 798.109 1890.89 Q797.898 1891.66 797.757 1891.82 Q797.64 1891.99 797.289 1891.99 Q796.703 1891.96 796.703 1891.5 Q796.703 1891.38 796.891 1890.61 Q797.078 1889.83 797.429 1888.73 Q797.804 1887.61 798.156 1886.86 Q798.46 1886.3 798.624 1886.04 Q798.811 1885.76 799.256 1885.22 Q799.725 1884.66 800.334 1884.4 Q800.966 1884.12 801.739 1884.12 Q803.472 1884.12 804.737 1885.24 Q806.002 1886.34 806.166 1888.29 Q809.281 1884.12 813.638 1884.12 Q816.214 1884.12 817.69 1885.48 Q819.166 1886.83 819.166 1889.25 Q819.166 1889.81 819.048 1890.54 Q818.955 1891.24 818.72 1892.13 Q818.51 1893.02 818.322 1893.7 Q818.135 1894.38 817.76 1895.48 Q817.385 1896.55 817.221 1897.02 Q817.057 1897.49 816.659 1898.59 Q816.285 1899.67 816.238 1899.79 Q815.371 1901.97 815.371 1903.21 Q815.371 1904.03 815.629 1904.4 Q815.91 1904.78 816.519 1904.78 Q818.158 1904.78 819.376 1903.16 Q820.618 1901.52 821.414 1898.85 Q821.601 1898.26 821.695 1898.12 Q821.812 1897.98 822.14 1897.98 Q822.702 1897.98 822.702 1898.45 Z" fill="#000000" fill-rule="nonzero" fill-opacity="1" /><path clip-path="url(#clip070)" d="M1958.67 1745.75 Q1958.67 1747.06 1957.85 1747.81 Q1957.03 1748.53 1956.09 1748.53 Q1955.2 1748.53 1954.73 1748.02 Q1954.26 1747.5 1954.26 1746.85 Q1954.26 1745.96 1954.92 1745.18 Q1955.57 1744.41 1956.56 1744.25 Q1955.6 1743.64 1954.17 1743.64 Q1953.23 1743.64 1952.41 1744.13 Q1951.62 1744.62 1951.12 1745.25 Q1950.66 1745.89 1950.23 1746.8 Q1949.84 1747.69 1949.67 1748.23 Q1949.53 1748.74 1949.41 1749.31 L1947.77 1755.86 Q1946.98 1758.98 1946.98 1760.08 Q1946.98 1761.44 1947.63 1762.35 Q1948.29 1763.24 1949.6 1763.24 Q1950.12 1763.24 1950.7 1763.1 Q1951.29 1762.94 1952.04 1762.52 Q1952.81 1762.07 1953.49 1761.41 Q1954.19 1760.74 1954.87 1759.59 Q1955.55 1758.44 1956 1756.96 Q1956.14 1756.45 1956.6 1756.45 Q1957.19 1756.45 1957.19 1756.92 Q1957.19 1757.32 1956.86 1758.16 Q1956.56 1758.98 1955.88 1760.06 Q1955.22 1761.11 1954.36 1762.07 Q1953.49 1763.01 1952.2 1763.66 Q1950.91 1764.32 1949.51 1764.32 Q1947.49 1764.32 1946.16 1763.24 Q1944.82 1762.16 1944.33 1760.67 Q1944.21 1760.88 1944.05 1761.16 Q1943.89 1761.44 1943.39 1762.07 Q1942.93 1762.68 1942.39 1763.15 Q1941.85 1763.59 1941.01 1763.94 Q1940.19 1764.32 1939.3 1764.32 Q1938.17 1764.32 1937.16 1763.99 Q1936.18 1763.66 1935.48 1762.91 Q1934.77 1762.16 1934.77 1761.13 Q1934.77 1759.99 1935.55 1759.19 Q1936.34 1758.37 1937.42 1758.37 Q1938.1 1758.37 1938.64 1758.77 Q1939.2 1759.17 1939.2 1760.03 Q1939.2 1760.99 1938.55 1761.72 Q1937.89 1762.45 1936.95 1762.63 Q1937.91 1763.24 1939.34 1763.24 Q1940.89 1763.24 1942.11 1761.88 Q1943.32 1760.52 1943.91 1758.25 Q1945.36 1752.8 1945.92 1750.36 Q1946.49 1747.9 1946.49 1746.85 Q1946.49 1745.86 1946.23 1745.18 Q1945.97 1744.5 1945.53 1744.2 Q1945.1 1743.87 1944.71 1743.75 Q1944.33 1743.64 1943.91 1743.64 Q1943.21 1743.64 1942.41 1743.92 Q1941.64 1744.2 1940.7 1744.86 Q1939.79 1745.49 1938.92 1746.8 Q1938.05 1748.11 1937.47 1749.91 Q1937.35 1750.45 1936.84 1750.45 Q1936.27 1750.43 1936.27 1749.96 Q1936.27 1749.56 1936.58 1748.74 Q1936.91 1747.9 1937.56 1746.85 Q1938.24 1745.79 1939.11 1744.86 Q1940 1743.89 1941.29 1743.24 Q1942.6 1742.58 1944 1742.58 Q1944.64 1742.58 1945.24 1742.72 Q1945.88 1742.84 1946.63 1743.19 Q1947.4 1743.54 1948.08 1744.32 Q1948.76 1745.09 1949.18 1746.21 Q1949.46 1745.68 1949.84 1745.16 Q1950.23 1744.64 1950.84 1744.01 Q1951.48 1743.36 1952.34 1742.98 Q1953.23 1742.58 1954.22 1742.58 Q1955.18 1742.58 1956.11 1742.84 Q1957.05 1743.08 1957.85 1743.85 Q1958.67 1744.6 1958.67 1745.75 Z" fill="#000000" fill-rule="nonzero" fill-opacity="1" /><path clip-path="url(#clip070)" d="M1975.92 1768.68 Q1975.92 1771.04 1974.72 1773.35 Q1973.54 1775.64 1971.64 1777.09 Q1969.75 1778.53 1967.82 1778.53 Q1965.93 1778.53 1964.74 1777.09 Q1963.55 1775.63 1963.55 1773.25 Q1963.55 1772.41 1963.65 1771.82 Q1963.75 1771.23 1964.1 1769.86 L1966.85 1758.9 Q1967.33 1756.85 1967.33 1756.84 Q1967.33 1756.64 1967.24 1756.54 Q1967.18 1756.43 1966.78 1756.35 Q1966.39 1756.26 1965.64 1756.26 Q1965.33 1756.26 1965.18 1756.25 Q1965.05 1756.23 1964.93 1756.15 Q1964.83 1756.05 1964.83 1755.85 Q1964.83 1755.58 1964.95 1755.43 Q1965.08 1755.26 1965.18 1755.23 Q1965.28 1755.2 1965.47 1755.18 Q1965.75 1755.17 1966.69 1755.08 Q1967.62 1754.99 1968.42 1754.92 Q1969.23 1754.85 1969.57 1754.85 Q1969.77 1754.85 1969.87 1754.95 Q1969.98 1755.04 1969.98 1755.13 L1970 1755.22 L1967.52 1765.33 Q1969.47 1763.31 1971.46 1763.31 Q1973.44 1763.31 1974.67 1764.84 Q1975.92 1766.36 1975.92 1768.68 M1973.49 1767.2 Q1973.49 1765.64 1972.9 1764.86 Q1972.33 1764.05 1971.38 1764.05 Q1970.57 1764.05 1969.52 1764.66 Q1968.47 1765.27 1967.36 1766.74 Q1967.15 1767.02 1967.06 1767.18 Q1967 1767.35 1966.85 1767.91 L1966.11 1771 Q1965.57 1773.12 1965.57 1774.4 Q1965.57 1776.14 1966.21 1776.96 Q1966.85 1777.78 1967.82 1777.78 Q1968.83 1777.78 1969.9 1776.87 Q1970.97 1775.97 1971.79 1774.33 Q1972.29 1773.25 1972.88 1770.92 Q1973.49 1768.58 1973.49 1767.2 Z" fill="#000000" fill-rule="nonzero" fill-opacity="1" /><path clip-path="url(#clip070)" d="M2027.91 1751.11 Q2028.19 1751.39 2028.19 1751.79 Q2028.19 1752.19 2027.91 1752.47 Q2027.63 1752.75 2027.23 1752.75 L1997.21 1752.75 Q1996.81 1752.75 1996.53 1752.47 Q1996.24 1752.19 1996.24 1751.79 Q1996.24 1751.39 1996.53 1751.11 Q1996.81 1750.83 1997.21 1750.83 L2027.23 1750.83 Q2027.63 1750.83 2027.91 1751.11 Z" fill="#000000" fill-rule="nonzero" fill-opacity="1" /><path clip-path="url(#clip070)" d="M2072.51 1756.92 Q2071.9 1759.94 2071.08 1761.67 Q2069.77 1764.32 2067.52 1764.32 Q2065.93 1764.32 2064.71 1763.36 Q2063.52 1762.4 2063.21 1760.81 Q2062.6 1761.53 2062.16 1761.95 Q2061.74 1762.38 2060.89 1763.03 Q2060.07 1763.66 2059.04 1763.99 Q2058.01 1764.32 2056.84 1764.32 Q2053.98 1764.32 2052.18 1762.82 Q2049.75 1772.63 2049.53 1773.13 Q2048.86 1774.13 2047.87 1774.13 Q2047.26 1774.13 2046.89 1773.76 Q2046.51 1773.41 2046.51 1772.85 Q2046.54 1772.66 2046.68 1772.07 L2053.56 1744.32 Q2053.75 1743.57 2054.22 1743.15 Q2054.71 1742.7 2054.99 1742.65 Q2055.27 1742.58 2055.48 1742.58 Q2056.12 1742.58 2056.49 1742.93 Q2056.89 1743.26 2056.89 1743.87 Q2056.89 1743.97 2056.75 1744.5 Q2056.63 1745.02 2056.44 1745.82 Q2056.26 1746.59 2056.16 1746.94 L2054.15 1755 Q2053.47 1757.76 2053.47 1759.07 Q2053.47 1761.06 2054.36 1762.16 Q2055.27 1763.24 2057.03 1763.24 Q2058.13 1763.24 2059.16 1762.8 Q2060.19 1762.33 2060.89 1761.7 Q2061.6 1761.06 2062.16 1760.38 Q2062.72 1759.68 2062.98 1759.24 Q2063.24 1758.77 2063.26 1758.65 L2064.5 1753.76 L2066.77 1744.79 Q2066.91 1744.22 2067.17 1743.85 Q2067.45 1743.45 2067.78 1743.31 Q2068.11 1743.17 2068.3 1743.15 Q2068.48 1743.1 2068.65 1743.1 Q2069.23 1743.1 2069.63 1743.45 Q2070.03 1743.8 2070.03 1744.41 Q2070.03 1744.53 2069.89 1745.09 Q2069.77 1745.63 2069.58 1746.42 Q2069.4 1747.2 2069.3 1747.62 Q2068.55 1750.57 2068.48 1750.87 L2067.15 1756.05 Q2067.08 1756.36 2066.84 1757.34 Q2066.63 1758.32 2066.52 1758.84 Q2066.4 1759.33 2066.28 1760.01 Q2066.19 1760.67 2066.19 1761.04 Q2066.19 1763.24 2067.64 1763.24 Q2068.2 1763.24 2068.69 1762.91 Q2069.19 1762.56 2069.51 1762.07 Q2069.87 1761.58 2070.19 1760.74 Q2070.54 1759.87 2070.76 1759.17 Q2070.97 1758.44 2071.27 1757.32 Q2071.39 1756.78 2071.5 1756.61 Q2071.62 1756.45 2071.95 1756.45 Q2072.51 1756.45 2072.51 1756.92 Z" fill="#000000" fill-rule="nonzero" fill-opacity="1" /><path clip-path="url(#clip070)" d="M2077.38 1776.59 Q2077.38 1771.65 2078.62 1768.96 Q2080.36 1764.96 2084.46 1764.96 Q2085.33 1764.96 2086.23 1765.21 Q2087.15 1765.44 2088.29 1766.34 Q2089.46 1767.24 2090.16 1768.72 Q2091.51 1771.57 2091.51 1776.59 Q2091.51 1781.49 2090.26 1784.16 Q2088.44 1788.06 2084.43 1788.06 Q2082.92 1788.06 2081.38 1787.29 Q2079.85 1786.52 2078.88 1784.67 Q2077.38 1781.9 2077.38 1776.59 M2080.16 1776.18 Q2080.16 1781.24 2080.52 1783.26 Q2080.93 1785.44 2082.05 1786.39 Q2083.18 1787.32 2084.43 1787.32 Q2085.77 1787.32 2086.88 1786.32 Q2088.02 1785.31 2088.36 1783.13 Q2088.74 1780.98 2088.72 1776.18 Q2088.72 1771.5 2088.39 1769.63 Q2087.95 1767.45 2086.77 1766.58 Q2085.61 1765.7 2084.43 1765.7 Q2083.98 1765.7 2083.51 1765.83 Q2083.05 1765.96 2082.38 1766.34 Q2081.7 1766.72 2081.18 1767.65 Q2080.67 1768.58 2080.43 1769.99 Q2080.16 1771.81 2080.16 1776.18 Z" fill="#000000" fill-rule="nonzero" fill-opacity="1" /><path clip-path="url(#clip070)" d="M1934.77 1800.86 L2104.24 1800.86 L2104.24 1798.3 L1934.77 1798.3  Z" fill="#000000" fill-rule="evenodd" fill-opacity="1"/>
<path clip-path="url(#clip070)" d="M1949.33 1878.79 L1962.35 1858.71 L1967.65 1885.36 L1968.64 1890.21 Q1968.86 1888.94 1969.52 1886.79 Q1970.24 1884.58 1970.35 1884.03 L1987.84 1816.9 Q1987.95 1816.46 1988.11 1815.74 Q1988.33 1814.97 1988.45 1814.69 Q1988.56 1814.42 1988.72 1813.87 Q1988.89 1813.31 1989 1813.15 Q1989.11 1812.93 1989.27 1812.54 Q1989.44 1812.16 1989.66 1812.05 Q1989.88 1811.94 1990.16 1811.71 Q1990.43 1811.49 1990.76 1811.44 Q1991.15 1811.38 1991.53 1811.33 Q1991.92 1811.27 1992.47 1811.27 L2002.35 1811.27 Q2005.82 1811.27 2005.82 1813.53 Q2005.82 1815.8 2002.46 1815.8 L1992.8 1815.8 L1970.02 1902.9 Q1969.69 1904.17 1969.41 1904.66 Q1969.19 1905.16 1968.42 1905.6 Q1967.65 1906.04 1966.27 1906.04 L1965.17 1906.04 L1957.94 1870.13 L1951.16 1880.61 L1949.33 1878.79 Z" fill="#000000" fill-rule="nonzero" fill-opacity="1" /><path clip-path="url(#clip070)" d="M2002.11 1815.79 L2084.82 1815.79 L2084.82 1811.1 L2002.11 1811.1  Z" fill="#000000" fill-rule="evenodd" fill-opacity="1"/>
<path clip-path="url(#clip070)" d="M2042.84 1841.22 Q2042.84 1842.86 2040.5 1842.86 L2035.23 1842.86 Q2036.7 1844.96 2036.7 1848.08 Q2036.7 1850.75 2035.6 1853.25 Q2034.53 1855.74 2032.79 1857.47 Q2031.08 1859.2 2028.93 1860.26 Q2026.77 1861.29 2024.66 1861.29 Q2021.46 1861.29 2019.46 1859.11 Q2017.47 1856.93 2017.47 1853.7 Q2017.47 1851.99 2018.06 1850.09 Q2018.67 1848.2 2019.82 1846.44 Q2020.96 1844.66 2022.46 1843.23 Q2023.99 1841.8 2025.95 1840.93 Q2027.94 1840.07 2030.03 1840.07 L2040.97 1840.07 Q2041.55 1840.07 2041.86 1840.11 Q2042.18 1840.14 2042.51 1840.42 Q2042.84 1840.68 2042.84 1841.22 M2033.64 1847.52 Q2033.64 1846.95 2033.56 1846.46 Q2033.49 1845.95 2033.24 1845.27 Q2032.98 1844.56 2032.53 1844.07 Q2032.09 1843.56 2031.22 1843.21 Q2030.38 1842.86 2029.23 1842.86 Q2027.62 1842.86 2025.84 1843.75 Q2024.06 1844.64 2022.7 1846.84 Q2021.57 1848.71 2021.01 1851.15 Q2020.45 1853.58 2020.45 1855.03 Q2020.45 1857.52 2021.64 1858.88 Q2022.86 1860.21 2024.71 1860.21 Q2026.23 1860.21 2027.97 1859.18 Q2029.7 1858.13 2031.04 1856.14 Q2032.21 1854.4 2032.91 1851.87 Q2033.64 1849.34 2033.64 1847.52 Z" fill="#000000" fill-rule="nonzero" fill-opacity="1" /><path clip-path="url(#clip070)" d="M2047.71 1846.9 Q2047.71 1846.3 2047.76 1846.11 Q2047.82 1845.93 2048.08 1845.66 L2054.53 1838.47 Q2058.05 1834.51 2058.05 1831.05 Q2058.05 1828.8 2056.87 1827.19 Q2055.71 1825.59 2053.56 1825.59 Q2052.08 1825.59 2050.84 1826.49 Q2049.59 1827.39 2049.02 1829 Q2049.12 1828.96 2049.46 1828.96 Q2050.3 1828.96 2050.76 1829.49 Q2051.23 1830.01 2051.23 1830.72 Q2051.23 1831.62 2050.64 1832.06 Q2050.07 1832.49 2049.49 1832.49 Q2049.26 1832.49 2048.95 1832.44 Q2048.66 1832.39 2048.18 1831.93 Q2047.71 1831.46 2047.71 1830.62 Q2047.71 1828.28 2049.48 1826.41 Q2051.26 1824.54 2053.99 1824.54 Q2057.07 1824.54 2059.08 1826.37 Q2061.12 1828.19 2061.12 1831.05 Q2061.12 1832.05 2060.81 1832.97 Q2060.51 1833.87 2060.1 1834.57 Q2059.71 1835.28 2058.63 1836.41 Q2057.54 1837.54 2056.67 1838.34 Q2055.81 1839.15 2053.85 1840.85 L2050.3 1844.31 L2056.35 1844.31 Q2059.3 1844.31 2059.53 1844.05 Q2059.86 1843.57 2060.27 1841.06 L2061.12 1841.06 L2060.17 1846.9 L2047.71 1846.9 Z" fill="#000000" fill-rule="nonzero" fill-opacity="1" /><path clip-path="url(#clip070)" d="M2017.47 1874.07 L2074.58 1874.07 L2074.58 1871.51 L2017.47 1871.51  Z" fill="#000000" fill-rule="evenodd" fill-opacity="1"/>
<path clip-path="url(#clip070)" d="M2056.91 1898.45 Q2056.91 1898.64 2056.7 1899.37 Q2056.49 1900.09 2055.98 1901.22 Q2055.48 1902.34 2054.8 1903.37 Q2054.13 1904.38 2053 1905.13 Q2051.9 1905.85 2050.64 1905.85 Q2048.95 1905.85 2047.82 1904.73 Q2046.7 1903.6 2046.7 1901.92 Q2046.7 1900.98 2047.19 1899.69 Q2050.31 1891.38 2050.31 1888.52 Q2050.31 1885.17 2047.71 1885.17 Q2046.42 1885.17 2045.2 1885.66 Q2044.01 1886.13 2043.19 1886.79 Q2042.37 1887.44 2041.62 1888.36 Q2040.89 1889.25 2040.52 1889.86 Q2040.17 1890.44 2039.88 1891.03 L2039.28 1893.42 Q2039.13 1894.07 2038.46 1896.63 L2037.4 1900.96 Q2036.65 1904.19 2036.49 1904.5 Q2036.25 1905.15 2035.74 1905.5 Q2035.22 1905.85 2034.71 1905.85 Q2034.12 1905.85 2033.72 1905.5 Q2033.33 1905.15 2033.33 1904.54 Q2033.33 1904.45 2033.4 1904.1 Q2033.47 1903.75 2033.58 1903.25 Q2033.7 1902.76 2033.75 1902.48 L2036.53 1891.4 Q2037.05 1889.39 2037.17 1888.76 Q2037.31 1888.1 2037.31 1887.37 Q2037.31 1885.17 2035.81 1885.17 Q2034.59 1885.17 2033.79 1886.62 Q2033 1888.08 2032.32 1890.89 Q2032.11 1891.66 2031.97 1891.82 Q2031.85 1891.99 2031.5 1891.99 Q2030.91 1891.96 2030.91 1891.5 Q2030.91 1891.38 2031.1 1890.61 Q2031.29 1889.83 2031.64 1888.73 Q2032.01 1887.61 2032.37 1886.86 Q2032.67 1886.3 2032.83 1886.04 Q2033.02 1885.76 2033.47 1885.22 Q2033.94 1884.66 2034.54 1884.4 Q2035.18 1884.12 2035.95 1884.12 Q2037.68 1884.12 2038.95 1885.24 Q2040.21 1886.34 2040.38 1888.29 Q2043.49 1884.12 2047.85 1884.12 Q2050.42 1884.12 2051.9 1885.48 Q2053.38 1886.83 2053.38 1889.25 Q2053.38 1889.81 2053.26 1890.54 Q2053.16 1891.24 2052.93 1892.13 Q2052.72 1893.02 2052.53 1893.7 Q2052.35 1894.38 2051.97 1895.48 Q2051.6 1896.55 2051.43 1897.02 Q2051.27 1897.49 2050.87 1898.59 Q2050.49 1899.67 2050.45 1899.79 Q2049.58 1901.97 2049.58 1903.21 Q2049.58 1904.03 2049.84 1904.4 Q2050.12 1904.78 2050.73 1904.78 Q2052.37 1904.78 2053.59 1903.16 Q2054.83 1901.52 2055.62 1898.85 Q2055.81 1898.26 2055.91 1898.12 Q2056.02 1897.98 2056.35 1897.98 Q2056.91 1897.98 2056.91 1898.45 Z" fill="#000000" fill-rule="nonzero" fill-opacity="1" /><polyline clip-path="url(#clip070)" style="stroke:#000000; stroke-linecap:round; stroke-linejoin:round; stroke-width:4; stroke-opacity:1; fill:none" points="159.478,1721.28 159.478,47.2441 "/>
<polyline clip-path="url(#clip070)" style="stroke:#000000; stroke-linecap:round; stroke-linejoin:round; stroke-width:4; stroke-opacity:1; fill:none" points="159.478,1675.47 178.376,1675.47 "/>
<polyline clip-path="url(#clip070)" style="stroke:#000000; stroke-linecap:round; stroke-linejoin:round; stroke-width:4; stroke-opacity:1; fill:none" points="159.478,1279.15 178.376,1279.15 "/>
<polyline clip-path="url(#clip070)" style="stroke:#000000; stroke-linecap:round; stroke-linejoin:round; stroke-width:4; stroke-opacity:1; fill:none" points="159.478,882.836 178.376,882.836 "/>
<polyline clip-path="url(#clip070)" style="stroke:#000000; stroke-linecap:round; stroke-linejoin:round; stroke-width:4; stroke-opacity:1; fill:none" points="159.478,486.521 178.376,486.521 "/>
<polyline clip-path="url(#clip070)" style="stroke:#000000; stroke-linecap:round; stroke-linejoin:round; stroke-width:4; stroke-opacity:1; fill:none" points="159.478,90.2055 178.376,90.2055 "/>
<path clip-path="url(#clip070)" d="M61.9826 1661.27 Q58.3715 1661.27 56.5428 1664.83 Q54.7373 1668.37 54.7373 1675.5 Q54.7373 1682.61 56.5428 1686.17 Q58.3715 1689.71 61.9826 1689.71 Q65.6169 1689.71 67.4224 1686.17 Q69.2511 1682.61 69.2511 1675.5 Q69.2511 1668.37 67.4224 1664.83 Q65.6169 1661.27 61.9826 1661.27 M61.9826 1657.56 Q67.7928 1657.56 70.8483 1662.17 Q73.927 1666.75 73.927 1675.5 Q73.927 1684.23 70.8483 1688.84 Q67.7928 1693.42 61.9826 1693.42 Q56.1725 1693.42 53.0938 1688.84 Q50.0382 1684.23 50.0382 1675.5 Q50.0382 1666.75 53.0938 1662.17 Q56.1725 1657.56 61.9826 1657.56 Z" fill="#000000" fill-rule="nonzero" fill-opacity="1" /><path clip-path="url(#clip070)" d="M82.1445 1686.87 L87.0288 1686.87 L87.0288 1692.75 L82.1445 1692.75 L82.1445 1686.87 Z" fill="#000000" fill-rule="nonzero" fill-opacity="1" /><path clip-path="url(#clip070)" d="M107.214 1661.27 Q103.603 1661.27 101.774 1664.83 Q99.9685 1668.37 99.9685 1675.5 Q99.9685 1682.61 101.774 1686.17 Q103.603 1689.71 107.214 1689.71 Q110.848 1689.71 112.654 1686.17 Q114.482 1682.61 114.482 1675.5 Q114.482 1668.37 112.654 1664.83 Q110.848 1661.27 107.214 1661.27 M107.214 1657.56 Q113.024 1657.56 116.08 1662.17 Q119.158 1666.75 119.158 1675.5 Q119.158 1684.23 116.08 1688.84 Q113.024 1693.42 107.214 1693.42 Q101.404 1693.42 98.325 1688.84 Q95.2695 1684.23 95.2695 1675.5 Q95.2695 1666.75 98.325 1662.17 Q101.404 1657.56 107.214 1657.56 Z" fill="#000000" fill-rule="nonzero" fill-opacity="1" /><path clip-path="url(#clip070)" d="M63.2095 1264.95 Q59.5984 1264.95 57.7697 1268.52 Q55.9641 1272.06 55.9641 1279.19 Q55.9641 1286.29 57.7697 1289.86 Q59.5984 1293.4 63.2095 1293.4 Q66.8437 1293.4 68.6492 1289.86 Q70.4779 1286.29 70.4779 1279.19 Q70.4779 1272.06 68.6492 1268.52 Q66.8437 1264.95 63.2095 1264.95 M63.2095 1261.25 Q69.0196 1261.25 72.0752 1265.85 Q75.1538 1270.44 75.1538 1279.19 Q75.1538 1287.91 72.0752 1292.52 Q69.0196 1297.1 63.2095 1297.1 Q57.3993 1297.1 54.3206 1292.52 Q51.2651 1287.91 51.2651 1279.19 Q51.2651 1270.44 54.3206 1265.85 Q57.3993 1261.25 63.2095 1261.25 Z" fill="#000000" fill-rule="nonzero" fill-opacity="1" /><path clip-path="url(#clip070)" d="M83.3714 1290.55 L88.2556 1290.55 L88.2556 1296.43 L83.3714 1296.43 L83.3714 1290.55 Z" fill="#000000" fill-rule="nonzero" fill-opacity="1" /><path clip-path="url(#clip070)" d="M99.2509 1292.5 L106.89 1292.5 L106.89 1266.13 L98.5796 1267.8 L98.5796 1263.54 L106.843 1261.87 L111.519 1261.87 L111.519 1292.5 L119.158 1292.5 L119.158 1296.43 L99.2509 1296.43 L99.2509 1292.5 Z" fill="#000000" fill-rule="nonzero" fill-opacity="1" /><path clip-path="url(#clip070)" d="M63.5798 868.635 Q59.9687 868.635 58.14 872.2 Q56.3345 875.741 56.3345 882.871 Q56.3345 889.977 58.14 893.542 Q59.9687 897.084 63.5798 897.084 Q67.2141 897.084 69.0196 893.542 Q70.8483 889.977 70.8483 882.871 Q70.8483 875.741 69.0196 872.2 Q67.2141 868.635 63.5798 868.635 M63.5798 864.931 Q69.39 864.931 72.4455 869.538 Q75.5242 874.121 75.5242 882.871 Q75.5242 891.598 72.4455 896.204 Q69.39 900.788 63.5798 900.788 Q57.7697 900.788 54.691 896.204 Q51.6354 891.598 51.6354 882.871 Q51.6354 874.121 54.691 869.538 Q57.7697 864.931 63.5798 864.931 Z" fill="#000000" fill-rule="nonzero" fill-opacity="1" /><path clip-path="url(#clip070)" d="M83.7418 894.237 L88.626 894.237 L88.626 900.116 L83.7418 900.116 L83.7418 894.237 Z" fill="#000000" fill-rule="nonzero" fill-opacity="1" /><path clip-path="url(#clip070)" d="M102.839 896.181 L119.158 896.181 L119.158 900.116 L97.2139 900.116 L97.2139 896.181 Q99.8759 893.427 104.459 888.797 Q109.066 884.144 110.246 882.802 Q112.492 880.278 113.371 878.542 Q114.274 876.783 114.274 875.093 Q114.274 872.339 112.33 870.603 Q110.408 868.866 107.306 868.866 Q105.107 868.866 102.654 869.63 Q100.223 870.394 97.4454 871.945 L97.4454 867.223 Q100.269 866.089 102.723 865.51 Q105.177 864.931 107.214 864.931 Q112.584 864.931 115.779 867.616 Q118.973 870.302 118.973 874.792 Q118.973 876.922 118.163 878.843 Q117.376 880.741 115.269 883.334 Q114.691 884.005 111.589 887.223 Q108.487 890.417 102.839 896.181 Z" fill="#000000" fill-rule="nonzero" fill-opacity="1" /><path clip-path="url(#clip070)" d="M62.6308 472.32 Q59.0197 472.32 57.191 475.884 Q55.3854 479.426 55.3854 486.556 Q55.3854 493.662 57.191 497.227 Q59.0197 500.768 62.6308 500.768 Q66.265 500.768 68.0705 497.227 Q69.8992 493.662 69.8992 486.556 Q69.8992 479.426 68.0705 475.884 Q66.265 472.32 62.6308 472.32 M62.6308 468.616 Q68.4409 468.616 71.4965 473.222 Q74.5751 477.806 74.5751 486.556 Q74.5751 495.282 71.4965 499.889 Q68.4409 504.472 62.6308 504.472 Q56.8206 504.472 53.7419 499.889 Q50.6864 495.282 50.6864 486.556 Q50.6864 477.806 53.7419 473.222 Q56.8206 468.616 62.6308 468.616 Z" fill="#000000" fill-rule="nonzero" fill-opacity="1" /><path clip-path="url(#clip070)" d="M82.7927 497.921 L87.6769 497.921 L87.6769 503.801 L82.7927 503.801 L82.7927 497.921 Z" fill="#000000" fill-rule="nonzero" fill-opacity="1" /><path clip-path="url(#clip070)" d="M112.029 485.167 Q115.385 485.884 117.26 488.153 Q119.158 490.421 119.158 493.755 Q119.158 498.87 115.64 501.671 Q112.121 504.472 105.64 504.472 Q103.464 504.472 101.149 504.032 Q98.8574 503.616 96.4037 502.759 L96.4037 498.245 Q98.3482 499.38 100.663 499.958 Q102.978 500.537 105.501 500.537 Q109.899 500.537 112.191 498.801 Q114.505 497.065 114.505 493.755 Q114.505 490.699 112.353 488.986 Q110.223 487.25 106.404 487.25 L102.376 487.25 L102.376 483.407 L106.589 483.407 Q110.038 483.407 111.867 482.042 Q113.695 480.653 113.695 478.06 Q113.695 475.398 111.797 473.986 Q109.922 472.551 106.404 472.551 Q104.482 472.551 102.283 472.968 Q100.084 473.384 97.4454 474.264 L97.4454 470.097 Q100.107 469.357 102.422 468.986 Q104.76 468.616 106.82 468.616 Q112.144 468.616 115.246 471.046 Q118.348 473.454 118.348 477.574 Q118.348 480.445 116.705 482.435 Q115.061 484.403 112.029 485.167 Z" fill="#000000" fill-rule="nonzero" fill-opacity="1" /><path clip-path="url(#clip070)" d="M61.4965 76.0042 Q57.8854 76.0042 56.0567 79.569 Q54.2512 83.1106 54.2512 90.2402 Q54.2512 97.3466 56.0567 100.911 Q57.8854 104.453 61.4965 104.453 Q65.1307 104.453 66.9363 100.911 Q68.765 97.3466 68.765 90.2402 Q68.765 83.1106 66.9363 79.569 Q65.1307 76.0042 61.4965 76.0042 M61.4965 72.3005 Q67.3067 72.3005 70.3622 76.9069 Q73.4409 81.4902 73.4409 90.2402 Q73.4409 98.967 70.3622 103.573 Q67.3067 108.157 61.4965 108.157 Q55.6864 108.157 52.6077 103.573 Q49.5521 98.967 49.5521 90.2402 Q49.5521 81.4902 52.6077 76.9069 Q55.6864 72.3005 61.4965 72.3005 Z" fill="#000000" fill-rule="nonzero" fill-opacity="1" /><path clip-path="url(#clip070)" d="M81.6584 101.606 L86.5427 101.606 L86.5427 107.485 L81.6584 107.485 L81.6584 101.606 Z" fill="#000000" fill-rule="nonzero" fill-opacity="1" /><path clip-path="url(#clip070)" d="M109.575 76.9995 L97.7695 95.4485 L109.575 95.4485 L109.575 76.9995 M108.348 72.9255 L114.228 72.9255 L114.228 95.4485 L119.158 95.4485 L119.158 99.3374 L114.228 99.3374 L114.228 107.485 L109.575 107.485 L109.575 99.3374 L93.9732 99.3374 L93.9732 94.8235 L108.348 72.9255 Z" fill="#000000" fill-rule="nonzero" fill-opacity="1" /><polyline clip-path="url(#clip072)" style="stroke:#009af9; stroke-linecap:round; stroke-linejoin:round; stroke-width:4; stroke-opacity:1; fill:none" points="229.703,1673.9 241.786,1673.66 253.869,1673.39 324.638,1670.86 395.407,1665.79 428.329,1662.03 461.251,1657 505.378,1647.69 549.506,1634.48 567.737,1627.62 585.969,1619.79 604.2,1610.89 622.431,1600.83 639.385,1590.32 656.338,1578.62 673.292,1565.63 690.245,1551.26 711.528,1531.13 732.81,1508.49 754.092,1483.19 775.375,1455.06 794.465,1427.31 813.556,1397.09 832.646,1364.35 851.736,1329.02 873.588,1285.41 895.439,1238.42 917.291,1188.12 939.143,1134.64 955.477,1092.71 971.811,1049.21 988.145,1004.28 1004.48,958.059 1046.26,835.184 1088.04,708.46 1126.18,592.972 1164.32,481.353 1175.17,450.832 1186.02,421.022 1196.87,392.013 1207.72,363.893 1218.57,336.75 1229.42,310.668 1240.27,285.731 1251.12,262.02 1268.33,227.129 1285.53,195.804 1302.73,168.312 1319.94,144.889 1330.62,132.48 1341.31,121.763 1351.99,112.774 1362.68,105.544 1373.37,100.098 1384.05,96.4556 1394.74,94.6281 1405.43,94.6224 1421.79,98.1437 1438.16,105.909 1454.53,117.855 1470.9,133.885 1482.44,147.572 1493.98,163.172 1505.51,180.623 1517.05,199.858 1528.59,220.801 1540.13,243.374 1551.67,267.491 1563.21,293.06 1580.45,333.779 1597.7,377.203 1614.94,422.987 1632.19,470.78 1671.41,585.06 1710.63,703.712 1749.47,821.659 1788.32,936.632 1809.69,997.555 1831.05,1056.31 1852.42,1112.58 1873.79,1166.09 1890.11,1204.97 1906.43,1242.05 1922.75,1277.28 1939.07,1310.63 1959.67,1350.01 1980.27,1386.38 2000.86,1419.78 2021.46,1450.29 2040.51,1476.02 2059.56,1499.46 2078.6,1520.71 2097.65,1539.89 2117.3,1557.64 2136.94,1573.46 2156.59,1587.5 2176.24,1599.91 2196.15,1610.95 2216.06,1620.6 2235.98,1629 2255.89,1636.26 2297.48,1648.34 2339.06,1657.02 2371.82,1662.01 2404.58,1665.76 2479.19,1671.04 2553.79,1673.56 2562.16,1673.74 2570.53,1673.9 "/>
<polyline clip-path="url(#clip072)" style="stroke:#e26f46; stroke-linecap:round; stroke-linejoin:round; stroke-width:4; stroke-opacity:1; fill:none" points="783.284,3395.31 783.284,-1626.79 "/>
<polyline clip-path="url(#clip072)" style="stroke:#e26f46; stroke-linecap:round; stroke-linejoin:round; stroke-width:4; stroke-opacity:1; fill:none" points="2016.95,3395.31 2016.95,-1626.79 "/>
</svg>
