<?xml version="1.0" encoding="utf-8"?>
<svg xmlns="http://www.w3.org/2000/svg" xmlns:xlink="http://www.w3.org/1999/xlink" width="672" height="480" viewBox="0 0 2688 1920">
<defs>
  <clipPath id="clip950">
    <rect x="0" y="0" width="2688" height="1920"/>
  </clipPath>
</defs>
<path clip-path="url(#clip950)" d="M0 1920 L2688 1920 L2688 0 L0 0  Z" fill="#ffffff" fill-rule="evenodd" fill-opacity="1"/>
<defs>
  <clipPath id="clip951">
    <rect x="537" y="0" width="1883" height="1883"/>
  </clipPath>
</defs>
<path clip-path="url(#clip950)" d="M255.816 1734.12 L2640.76 1734.12 L2640.76 127.792 L255.816 127.792  Z" fill="#ffffff" fill-rule="evenodd" fill-opacity="1"/>
<defs>
  <clipPath id="clip952">
    <rect x="255" y="127" width="2386" height="1607"/>
  </clipPath>
</defs>
<polyline clip-path="url(#clip952)" style="stroke:#000000; stroke-linecap:round; stroke-linejoin:round; stroke-width:2; stroke-opacity:0.1; fill:none" points="390.074,1734.12 390.074,127.792 "/>
<polyline clip-path="url(#clip952)" style="stroke:#000000; stroke-linecap:round; stroke-linejoin:round; stroke-width:2; stroke-opacity:0.1; fill:none" points="977.97,1734.12 977.97,127.792 "/>
<polyline clip-path="url(#clip952)" style="stroke:#000000; stroke-linecap:round; stroke-linejoin:round; stroke-width:2; stroke-opacity:0.1; fill:none" points="1565.87,1734.12 1565.87,127.792 "/>
<polyline clip-path="url(#clip952)" style="stroke:#000000; stroke-linecap:round; stroke-linejoin:round; stroke-width:2; stroke-opacity:0.1; fill:none" points="2153.76,1734.12 2153.76,127.792 "/>
<polyline clip-path="url(#clip952)" style="stroke:#000000; stroke-linecap:round; stroke-linejoin:round; stroke-width:2; stroke-opacity:0.1; fill:none" points="255.816,1734.12 2640.76,1734.12 "/>
<polyline clip-path="url(#clip952)" style="stroke:#000000; stroke-linecap:round; stroke-linejoin:round; stroke-width:2; stroke-opacity:0.1; fill:none" points="255.816,1332.94 2640.76,1332.94 "/>
<polyline clip-path="url(#clip952)" style="stroke:#000000; stroke-linecap:round; stroke-linejoin:round; stroke-width:2; stroke-opacity:0.1; fill:none" points="255.816,931.757 2640.76,931.757 "/>
<polyline clip-path="url(#clip952)" style="stroke:#000000; stroke-linecap:round; stroke-linejoin:round; stroke-width:2; stroke-opacity:0.1; fill:none" points="255.816,530.577 2640.76,530.577 "/>
<polyline clip-path="url(#clip952)" style="stroke:#000000; stroke-linecap:round; stroke-linejoin:round; stroke-width:2; stroke-opacity:0.1; fill:none" points="255.816,129.397 2640.76,129.397 "/>
<polyline clip-path="url(#clip950)" style="stroke:#000000; stroke-linecap:round; stroke-linejoin:round; stroke-width:4; stroke-opacity:1; fill:none" points="255.816,1734.12 2640.76,1734.12 "/>
<polyline clip-path="url(#clip950)" style="stroke:#000000; stroke-linecap:round; stroke-linejoin:round; stroke-width:4; stroke-opacity:1; fill:none" points="390.074,1734.12 390.074,1715.22 "/>
<polyline clip-path="url(#clip950)" style="stroke:#000000; stroke-linecap:round; stroke-linejoin:round; stroke-width:4; stroke-opacity:1; fill:none" points="977.97,1734.12 977.97,1715.22 "/>
<polyline clip-path="url(#clip950)" style="stroke:#000000; stroke-linecap:round; stroke-linejoin:round; stroke-width:4; stroke-opacity:1; fill:none" points="1565.87,1734.12 1565.87,1715.22 "/>
<polyline clip-path="url(#clip950)" style="stroke:#000000; stroke-linecap:round; stroke-linejoin:round; stroke-width:4; stroke-opacity:1; fill:none" points="2153.76,1734.12 2153.76,1715.22 "/>
<path clip-path="url(#clip950)" d="M361.81 1794.89 L378.13 1794.89 L378.13 1798.82 L356.185 1798.82 L356.185 1794.89 Q358.847 1792.13 363.431 1787.5 Q368.037 1782.85 369.218 1781.51 Q371.463 1778.98 372.343 1777.25 Q373.246 1775.49 373.246 1773.8 Q373.246 1771.04 371.301 1769.31 Q369.38 1767.57 366.278 1767.57 Q364.079 1767.57 361.625 1768.34 Q359.195 1769.1 356.417 1770.65 L356.417 1765.93 Q359.241 1764.79 361.695 1764.21 Q364.148 1763.64 366.185 1763.64 Q371.556 1763.64 374.75 1766.32 Q377.945 1769.01 377.945 1773.5 Q377.945 1775.63 377.134 1777.55 Q376.347 1779.45 374.241 1782.04 Q373.662 1782.71 370.56 1785.93 Q367.459 1789.12 361.81 1794.89 Z" fill="#000000" fill-rule="nonzero" fill-opacity="1" /><path clip-path="url(#clip950)" d="M387.945 1792.94 L392.829 1792.94 L392.829 1798.82 L387.945 1798.82 L387.945 1792.94 Z" fill="#000000" fill-rule="nonzero" fill-opacity="1" /><path clip-path="url(#clip950)" d="M403.06 1764.26 L421.417 1764.26 L421.417 1768.2 L407.343 1768.2 L407.343 1776.67 Q408.361 1776.32 409.38 1776.16 Q410.398 1775.97 411.417 1775.97 Q417.204 1775.97 420.583 1779.15 Q423.963 1782.32 423.963 1787.73 Q423.963 1793.31 420.491 1796.41 Q417.018 1799.49 410.699 1799.49 Q408.523 1799.49 406.255 1799.12 Q404.009 1798.75 401.602 1798.01 L401.602 1793.31 Q403.685 1794.45 405.907 1795 Q408.13 1795.56 410.606 1795.56 Q414.611 1795.56 416.949 1793.45 Q419.287 1791.34 419.287 1787.73 Q419.287 1784.12 416.949 1782.02 Q414.611 1779.91 410.606 1779.91 Q408.731 1779.91 406.856 1780.33 Q405.005 1780.74 403.06 1781.62 L403.06 1764.26 Z" fill="#000000" fill-rule="nonzero" fill-opacity="1" /><path clip-path="url(#clip950)" d="M945.134 1764.26 L963.491 1764.26 L963.491 1768.2 L949.417 1768.2 L949.417 1776.67 Q950.435 1776.32 951.454 1776.16 Q952.472 1775.97 953.491 1775.97 Q959.278 1775.97 962.657 1779.15 Q966.037 1782.32 966.037 1787.73 Q966.037 1793.31 962.565 1796.41 Q959.092 1799.49 952.773 1799.49 Q950.597 1799.49 948.329 1799.12 Q946.083 1798.75 943.676 1798.01 L943.676 1793.31 Q945.759 1794.45 947.981 1795 Q950.204 1795.56 952.68 1795.56 Q956.685 1795.56 959.023 1793.45 Q961.361 1791.34 961.361 1787.73 Q961.361 1784.12 959.023 1782.02 Q956.685 1779.91 952.68 1779.91 Q950.805 1779.91 948.93 1780.33 Q947.079 1780.74 945.134 1781.62 L945.134 1764.26 Z" fill="#000000" fill-rule="nonzero" fill-opacity="1" /><path clip-path="url(#clip950)" d="M975.25 1792.94 L980.134 1792.94 L980.134 1798.82 L975.25 1798.82 L975.25 1792.94 Z" fill="#000000" fill-rule="nonzero" fill-opacity="1" /><path clip-path="url(#clip950)" d="M1000.32 1767.34 Q996.708 1767.34 994.879 1770.9 Q993.074 1774.45 993.074 1781.58 Q993.074 1788.68 994.879 1792.25 Q996.708 1795.79 1000.32 1795.79 Q1003.95 1795.79 1005.76 1792.25 Q1007.59 1788.68 1007.59 1781.58 Q1007.59 1774.45 1005.76 1770.9 Q1003.95 1767.34 1000.32 1767.34 M1000.32 1763.64 Q1006.13 1763.64 1009.18 1768.24 Q1012.26 1772.83 1012.26 1781.58 Q1012.26 1790.3 1009.18 1794.91 Q1006.13 1799.49 1000.32 1799.49 Q994.509 1799.49 991.43 1794.91 Q988.375 1790.3 988.375 1781.58 Q988.375 1772.83 991.43 1768.24 Q994.509 1763.64 1000.32 1763.64 Z" fill="#000000" fill-rule="nonzero" fill-opacity="1" /><path clip-path="url(#clip950)" d="M1532.18 1764.26 L1554.41 1764.26 L1554.41 1766.25 L1541.86 1798.82 L1536.98 1798.82 L1548.78 1768.2 L1532.18 1768.2 L1532.18 1764.26 Z" fill="#000000" fill-rule="nonzero" fill-opacity="1" /><path clip-path="url(#clip950)" d="M1563.53 1792.94 L1568.41 1792.94 L1568.41 1798.82 L1563.53 1798.82 L1563.53 1792.94 Z" fill="#000000" fill-rule="nonzero" fill-opacity="1" /><path clip-path="url(#clip950)" d="M1578.64 1764.26 L1597 1764.26 L1597 1768.2 L1582.93 1768.2 L1582.93 1776.67 Q1583.94 1776.32 1584.96 1776.16 Q1585.98 1775.97 1587 1775.97 Q1592.79 1775.97 1596.17 1779.15 Q1599.55 1782.32 1599.55 1787.73 Q1599.55 1793.31 1596.07 1796.41 Q1592.6 1799.49 1586.28 1799.49 Q1584.11 1799.49 1581.84 1799.12 Q1579.59 1798.75 1577.18 1798.01 L1577.18 1793.31 Q1579.27 1794.45 1581.49 1795 Q1583.71 1795.56 1586.19 1795.56 Q1590.19 1795.56 1592.53 1793.45 Q1594.87 1791.34 1594.87 1787.73 Q1594.87 1784.12 1592.53 1782.02 Q1590.19 1779.91 1586.19 1779.91 Q1584.31 1779.91 1582.44 1780.33 Q1580.59 1780.74 1578.64 1781.62 L1578.64 1764.26 Z" fill="#000000" fill-rule="nonzero" fill-opacity="1" /><path clip-path="url(#clip950)" d="M2105.83 1794.89 L2113.47 1794.89 L2113.47 1768.52 L2105.16 1770.19 L2105.16 1765.93 L2113.43 1764.26 L2118.1 1764.26 L2118.1 1794.89 L2125.74 1794.89 L2125.74 1798.82 L2105.83 1798.82 L2105.83 1794.89 Z" fill="#000000" fill-rule="nonzero" fill-opacity="1" /><path clip-path="url(#clip950)" d="M2145.18 1767.34 Q2141.57 1767.34 2139.74 1770.9 Q2137.94 1774.45 2137.94 1781.58 Q2137.94 1788.68 2139.74 1792.25 Q2141.57 1795.79 2145.18 1795.79 Q2148.82 1795.79 2150.62 1792.25 Q2152.45 1788.68 2152.45 1781.58 Q2152.45 1774.45 2150.62 1770.9 Q2148.82 1767.34 2145.18 1767.34 M2145.18 1763.64 Q2150.99 1763.64 2154.05 1768.24 Q2157.13 1772.83 2157.13 1781.58 Q2157.13 1790.3 2154.05 1794.91 Q2150.99 1799.49 2145.18 1799.49 Q2139.37 1799.49 2136.3 1794.91 Q2133.24 1790.3 2133.24 1781.58 Q2133.24 1772.83 2136.3 1768.24 Q2139.37 1763.64 2145.18 1763.64 Z" fill="#000000" fill-rule="nonzero" fill-opacity="1" /><path clip-path="url(#clip950)" d="M2165.35 1792.94 L2170.23 1792.94 L2170.23 1798.82 L2165.35 1798.82 L2165.35 1792.94 Z" fill="#000000" fill-rule="nonzero" fill-opacity="1" /><path clip-path="url(#clip950)" d="M2190.42 1767.34 Q2186.8 1767.34 2184.98 1770.9 Q2183.17 1774.45 2183.17 1781.58 Q2183.17 1788.68 2184.98 1792.25 Q2186.8 1795.79 2190.42 1795.79 Q2194.05 1795.79 2195.86 1792.25 Q2197.68 1788.68 2197.68 1781.58 Q2197.68 1774.45 2195.86 1770.9 Q2194.05 1767.34 2190.42 1767.34 M2190.42 1763.64 Q2196.23 1763.64 2199.28 1768.24 Q2202.36 1772.83 2202.36 1781.58 Q2202.36 1790.3 2199.28 1794.91 Q2196.23 1799.49 2190.42 1799.49 Q2184.61 1799.49 2181.53 1794.91 Q2178.47 1790.3 2178.47 1781.58 Q2178.47 1772.83 2181.53 1768.24 Q2184.61 1763.64 2190.42 1763.64 Z" fill="#000000" fill-rule="nonzero" fill-opacity="1" /><path clip-path="url(#clip950)" d="M1464.35 1852.74 Q1463.52 1856.89 1462.39 1859.28 Q1460.59 1862.91 1457.49 1862.91 Q1455.3 1862.91 1453.63 1861.59 Q1451.99 1860.27 1451.57 1858.08 Q1450.73 1859.08 1450.12 1859.66 Q1449.54 1860.24 1448.38 1861.14 Q1447.25 1862.01 1445.84 1862.46 Q1444.42 1862.91 1442.81 1862.91 Q1438.88 1862.91 1436.4 1860.85 Q1433.05 1874.35 1432.76 1875.02 Q1431.83 1876.41 1430.47 1876.41 Q1429.64 1876.41 1429.12 1875.89 Q1428.6 1875.41 1428.6 1874.64 Q1428.64 1874.38 1428.83 1873.57 L1438.3 1835.41 Q1438.56 1834.38 1439.2 1833.8 Q1439.88 1833.19 1440.26 1833.12 Q1440.65 1833.03 1440.94 1833.03 Q1441.81 1833.03 1442.32 1833.51 Q1442.87 1833.96 1442.87 1834.8 Q1442.87 1834.93 1442.68 1835.67 Q1442.52 1836.38 1442.26 1837.47 Q1442 1838.53 1441.87 1839.02 L1439.1 1850.1 Q1438.17 1853.9 1438.17 1855.7 Q1438.17 1858.44 1439.39 1859.95 Q1440.65 1861.43 1443.07 1861.43 Q1444.58 1861.43 1446 1860.82 Q1447.41 1860.18 1448.38 1859.31 Q1449.35 1858.44 1450.12 1857.5 Q1450.89 1856.54 1451.25 1855.93 Q1451.6 1855.28 1451.63 1855.12 L1453.34 1848.39 L1456.46 1836.06 Q1456.66 1835.28 1457.01 1834.77 Q1457.4 1834.22 1457.85 1834.03 Q1458.3 1833.83 1458.56 1833.8 Q1458.81 1833.74 1459.04 1833.74 Q1459.84 1833.74 1460.39 1834.22 Q1460.94 1834.7 1460.94 1835.54 Q1460.94 1835.7 1460.75 1836.47 Q1460.59 1837.21 1460.33 1838.31 Q1460.07 1839.37 1459.94 1839.95 Q1458.91 1844.01 1458.81 1844.43 L1456.98 1851.55 Q1456.88 1851.96 1456.56 1853.32 Q1456.27 1854.67 1456.11 1855.38 Q1455.95 1856.05 1455.79 1856.99 Q1455.66 1857.89 1455.66 1858.41 Q1455.66 1861.43 1457.65 1861.43 Q1458.43 1861.43 1459.1 1860.98 Q1459.78 1860.5 1460.23 1859.82 Q1460.71 1859.15 1461.17 1857.99 Q1461.65 1856.8 1461.94 1855.83 Q1462.23 1854.83 1462.65 1853.29 Q1462.81 1852.54 1462.97 1852.32 Q1463.13 1852.09 1463.58 1852.09 Q1464.35 1852.09 1464.35 1852.74 Z" fill="#000000" fill-rule="nonzero" fill-opacity="1" /><polyline clip-path="url(#clip950)" style="stroke:#000000; stroke-linecap:round; stroke-linejoin:round; stroke-width:4; stroke-opacity:1; fill:none" points="255.816,1734.12 255.816,127.792 "/>
<polyline clip-path="url(#clip950)" style="stroke:#000000; stroke-linecap:round; stroke-linejoin:round; stroke-width:4; stroke-opacity:1; fill:none" points="255.816,1734.12 274.714,1734.12 "/>
<polyline clip-path="url(#clip950)" style="stroke:#000000; stroke-linecap:round; stroke-linejoin:round; stroke-width:4; stroke-opacity:1; fill:none" points="255.816,1332.94 274.714,1332.94 "/>
<polyline clip-path="url(#clip950)" style="stroke:#000000; stroke-linecap:round; stroke-linejoin:round; stroke-width:4; stroke-opacity:1; fill:none" points="255.816,931.757 274.714,931.757 "/>
<polyline clip-path="url(#clip950)" style="stroke:#000000; stroke-linecap:round; stroke-linejoin:round; stroke-width:4; stroke-opacity:1; fill:none" points="255.816,530.577 274.714,530.577 "/>
<polyline clip-path="url(#clip950)" style="stroke:#000000; stroke-linecap:round; stroke-linejoin:round; stroke-width:4; stroke-opacity:1; fill:none" points="255.816,129.397 274.714,129.397 "/>
<path clip-path="url(#clip950)" d="M128.159 1719.92 Q124.548 1719.92 122.719 1723.48 Q120.913 1727.02 120.913 1734.15 Q120.913 1741.26 122.719 1744.82 Q124.548 1748.36 128.159 1748.36 Q131.793 1748.36 133.599 1744.82 Q135.427 1741.26 135.427 1734.15 Q135.427 1727.02 133.599 1723.48 Q131.793 1719.92 128.159 1719.92 M128.159 1716.21 Q133.969 1716.21 137.025 1720.82 Q140.103 1725.4 140.103 1734.15 Q140.103 1742.88 137.025 1747.48 Q133.969 1752.07 128.159 1752.07 Q122.349 1752.07 119.27 1747.48 Q116.214 1742.88 116.214 1734.15 Q116.214 1725.4 119.27 1720.82 Q122.349 1716.21 128.159 1716.21 Z" fill="#000000" fill-rule="nonzero" fill-opacity="1" /><path clip-path="url(#clip950)" d="M148.321 1745.52 L153.205 1745.52 L153.205 1751.4 L148.321 1751.4 L148.321 1745.52 Z" fill="#000000" fill-rule="nonzero" fill-opacity="1" /><path clip-path="url(#clip950)" d="M173.39 1719.92 Q169.779 1719.92 167.95 1723.48 Q166.145 1727.02 166.145 1734.15 Q166.145 1741.26 167.95 1744.82 Q169.779 1748.36 173.39 1748.36 Q177.024 1748.36 178.83 1744.82 Q180.659 1741.26 180.659 1734.15 Q180.659 1727.02 178.83 1723.48 Q177.024 1719.92 173.39 1719.92 M173.39 1716.21 Q179.2 1716.21 182.256 1720.82 Q185.334 1725.4 185.334 1734.15 Q185.334 1742.88 182.256 1747.48 Q179.2 1752.07 173.39 1752.07 Q167.58 1752.07 164.501 1747.48 Q161.446 1742.88 161.446 1734.15 Q161.446 1725.4 164.501 1720.82 Q167.58 1716.21 173.39 1716.21 Z" fill="#000000" fill-rule="nonzero" fill-opacity="1" /><path clip-path="url(#clip950)" d="M203.552 1719.92 Q199.941 1719.92 198.112 1723.48 Q196.307 1727.02 196.307 1734.15 Q196.307 1741.26 198.112 1744.82 Q199.941 1748.36 203.552 1748.36 Q207.186 1748.36 208.992 1744.82 Q210.82 1741.26 210.82 1734.15 Q210.82 1727.02 208.992 1723.48 Q207.186 1719.92 203.552 1719.92 M203.552 1716.21 Q209.362 1716.21 212.418 1720.82 Q215.496 1725.4 215.496 1734.15 Q215.496 1742.88 212.418 1747.48 Q209.362 1752.07 203.552 1752.07 Q197.742 1752.07 194.663 1747.48 Q191.608 1742.88 191.608 1734.15 Q191.608 1725.4 194.663 1720.82 Q197.742 1716.21 203.552 1716.21 Z" fill="#000000" fill-rule="nonzero" fill-opacity="1" /><path clip-path="url(#clip950)" d="M129.154 1318.74 Q125.543 1318.74 123.714 1322.3 Q121.909 1325.84 121.909 1332.97 Q121.909 1340.08 123.714 1343.64 Q125.543 1347.18 129.154 1347.18 Q132.788 1347.18 134.594 1343.64 Q136.423 1340.08 136.423 1332.97 Q136.423 1325.84 134.594 1322.3 Q132.788 1318.74 129.154 1318.74 M129.154 1315.03 Q134.964 1315.03 138.02 1319.64 Q141.099 1324.22 141.099 1332.97 Q141.099 1341.7 138.02 1346.3 Q134.964 1350.89 129.154 1350.89 Q123.344 1350.89 120.265 1346.3 Q117.21 1341.7 117.21 1332.97 Q117.21 1324.22 120.265 1319.64 Q123.344 1315.03 129.154 1315.03 Z" fill="#000000" fill-rule="nonzero" fill-opacity="1" /><path clip-path="url(#clip950)" d="M149.316 1344.34 L154.2 1344.34 L154.2 1350.22 L149.316 1350.22 L149.316 1344.34 Z" fill="#000000" fill-rule="nonzero" fill-opacity="1" /><path clip-path="url(#clip950)" d="M168.413 1346.28 L184.733 1346.28 L184.733 1350.22 L162.788 1350.22 L162.788 1346.28 Q165.45 1343.53 170.034 1338.9 Q174.64 1334.24 175.821 1332.9 Q178.066 1330.38 178.946 1328.64 Q179.848 1326.88 179.848 1325.19 Q179.848 1322.44 177.904 1320.7 Q175.983 1318.97 172.881 1318.97 Q170.682 1318.97 168.228 1319.73 Q165.798 1320.49 163.02 1322.05 L163.02 1317.32 Q165.844 1316.19 168.297 1315.61 Q170.751 1315.03 172.788 1315.03 Q178.159 1315.03 181.353 1317.72 Q184.547 1320.4 184.547 1324.89 Q184.547 1327.02 183.737 1328.94 Q182.95 1330.84 180.844 1333.43 Q180.265 1334.11 177.163 1337.32 Q174.061 1340.52 168.413 1346.28 Z" fill="#000000" fill-rule="nonzero" fill-opacity="1" /><path clip-path="url(#clip950)" d="M194.594 1315.66 L212.95 1315.66 L212.95 1319.59 L198.876 1319.59 L198.876 1328.06 Q199.895 1327.72 200.913 1327.56 Q201.932 1327.37 202.95 1327.37 Q208.737 1327.37 212.117 1330.54 Q215.496 1333.71 215.496 1339.13 Q215.496 1344.71 212.024 1347.81 Q208.552 1350.89 202.233 1350.89 Q200.057 1350.89 197.788 1350.52 Q195.543 1350.15 193.135 1349.41 L193.135 1344.71 Q195.219 1345.84 197.441 1346.4 Q199.663 1346.95 202.14 1346.95 Q206.145 1346.95 208.482 1344.85 Q210.82 1342.74 210.82 1339.13 Q210.82 1335.52 208.482 1333.41 Q206.145 1331.31 202.14 1331.31 Q200.265 1331.31 198.39 1331.72 Q196.538 1332.14 194.594 1333.02 L194.594 1315.66 Z" fill="#000000" fill-rule="nonzero" fill-opacity="1" /><path clip-path="url(#clip950)" d="M128.159 917.556 Q124.548 917.556 122.719 921.12 Q120.913 924.662 120.913 931.792 Q120.913 938.898 122.719 942.463 Q124.548 946.005 128.159 946.005 Q131.793 946.005 133.599 942.463 Q135.427 938.898 135.427 931.792 Q135.427 924.662 133.599 921.12 Q131.793 917.556 128.159 917.556 M128.159 913.852 Q133.969 913.852 137.025 918.458 Q140.103 923.042 140.103 931.792 Q140.103 940.518 137.025 945.125 Q133.969 949.708 128.159 949.708 Q122.349 949.708 119.27 945.125 Q116.214 940.518 116.214 931.792 Q116.214 923.042 119.27 918.458 Q122.349 913.852 128.159 913.852 Z" fill="#000000" fill-rule="nonzero" fill-opacity="1" /><path clip-path="url(#clip950)" d="M148.321 943.157 L153.205 943.157 L153.205 949.037 L148.321 949.037 L148.321 943.157 Z" fill="#000000" fill-rule="nonzero" fill-opacity="1" /><path clip-path="url(#clip950)" d="M163.436 914.477 L181.793 914.477 L181.793 918.412 L167.719 918.412 L167.719 926.884 Q168.737 926.537 169.756 926.375 Q170.774 926.19 171.793 926.19 Q177.58 926.19 180.959 929.361 Q184.339 932.532 184.339 937.949 Q184.339 943.528 180.867 946.63 Q177.395 949.708 171.075 949.708 Q168.899 949.708 166.631 949.338 Q164.385 948.967 161.978 948.227 L161.978 943.528 Q164.061 944.662 166.284 945.217 Q168.506 945.773 170.983 945.773 Q174.987 945.773 177.325 943.667 Q179.663 941.56 179.663 937.949 Q179.663 934.338 177.325 932.231 Q174.987 930.125 170.983 930.125 Q169.108 930.125 167.233 930.542 Q165.381 930.958 163.436 931.838 L163.436 914.477 Z" fill="#000000" fill-rule="nonzero" fill-opacity="1" /><path clip-path="url(#clip950)" d="M203.552 917.556 Q199.941 917.556 198.112 921.12 Q196.307 924.662 196.307 931.792 Q196.307 938.898 198.112 942.463 Q199.941 946.005 203.552 946.005 Q207.186 946.005 208.992 942.463 Q210.82 938.898 210.82 931.792 Q210.82 924.662 208.992 921.12 Q207.186 917.556 203.552 917.556 M203.552 913.852 Q209.362 913.852 212.418 918.458 Q215.496 923.042 215.496 931.792 Q215.496 940.518 212.418 945.125 Q209.362 949.708 203.552 949.708 Q197.742 949.708 194.663 945.125 Q191.608 940.518 191.608 931.792 Q191.608 923.042 194.663 918.458 Q197.742 913.852 203.552 913.852 Z" fill="#000000" fill-rule="nonzero" fill-opacity="1" /><path clip-path="url(#clip950)" d="M129.154 516.376 Q125.543 516.376 123.714 519.94 Q121.909 523.482 121.909 530.612 Q121.909 537.718 123.714 541.283 Q125.543 544.824 129.154 544.824 Q132.788 544.824 134.594 541.283 Q136.423 537.718 136.423 530.612 Q136.423 523.482 134.594 519.94 Q132.788 516.376 129.154 516.376 M129.154 512.672 Q134.964 512.672 138.02 517.278 Q141.099 521.862 141.099 530.612 Q141.099 539.338 138.02 543.945 Q134.964 548.528 129.154 548.528 Q123.344 548.528 120.265 543.945 Q117.21 539.338 117.21 530.612 Q117.21 521.862 120.265 517.278 Q123.344 512.672 129.154 512.672 Z" fill="#000000" fill-rule="nonzero" fill-opacity="1" /><path clip-path="url(#clip950)" d="M149.316 541.977 L154.2 541.977 L154.2 547.857 L149.316 547.857 L149.316 541.977 Z" fill="#000000" fill-rule="nonzero" fill-opacity="1" /><path clip-path="url(#clip950)" d="M163.205 513.297 L185.427 513.297 L185.427 515.288 L172.881 547.857 L167.997 547.857 L179.802 517.232 L163.205 517.232 L163.205 513.297 Z" fill="#000000" fill-rule="nonzero" fill-opacity="1" /><path clip-path="url(#clip950)" d="M194.594 513.297 L212.95 513.297 L212.95 517.232 L198.876 517.232 L198.876 525.704 Q199.895 525.357 200.913 525.195 Q201.932 525.01 202.95 525.01 Q208.737 525.01 212.117 528.181 Q215.496 531.352 215.496 536.769 Q215.496 542.348 212.024 545.449 Q208.552 548.528 202.233 548.528 Q200.057 548.528 197.788 548.158 Q195.543 547.787 193.135 547.047 L193.135 542.348 Q195.219 543.482 197.441 544.037 Q199.663 544.593 202.14 544.593 Q206.145 544.593 208.482 542.487 Q210.82 540.38 210.82 536.769 Q210.82 533.158 208.482 531.051 Q206.145 528.945 202.14 528.945 Q200.265 528.945 198.39 529.362 Q196.538 529.778 194.594 530.658 L194.594 513.297 Z" fill="#000000" fill-rule="nonzero" fill-opacity="1" /><path clip-path="url(#clip950)" d="M118.969 142.742 L126.608 142.742 L126.608 116.376 L118.298 118.043 L118.298 113.784 L126.562 112.117 L131.238 112.117 L131.238 142.742 L138.876 142.742 L138.876 146.677 L118.969 146.677 L118.969 142.742 Z" fill="#000000" fill-rule="nonzero" fill-opacity="1" /><path clip-path="url(#clip950)" d="M148.321 140.797 L153.205 140.797 L153.205 146.677 L148.321 146.677 L148.321 140.797 Z" fill="#000000" fill-rule="nonzero" fill-opacity="1" /><path clip-path="url(#clip950)" d="M173.39 115.196 Q169.779 115.196 167.95 118.76 Q166.145 122.302 166.145 129.432 Q166.145 136.538 167.95 140.103 Q169.779 143.644 173.39 143.644 Q177.024 143.644 178.83 140.103 Q180.659 136.538 180.659 129.432 Q180.659 122.302 178.83 118.76 Q177.024 115.196 173.39 115.196 M173.39 111.492 Q179.2 111.492 182.256 116.098 Q185.334 120.682 185.334 129.432 Q185.334 138.158 182.256 142.765 Q179.2 147.348 173.39 147.348 Q167.58 147.348 164.501 142.765 Q161.446 138.158 161.446 129.432 Q161.446 120.682 164.501 116.098 Q167.58 111.492 173.39 111.492 Z" fill="#000000" fill-rule="nonzero" fill-opacity="1" /><path clip-path="url(#clip950)" d="M203.552 115.196 Q199.941 115.196 198.112 118.76 Q196.307 122.302 196.307 129.432 Q196.307 136.538 198.112 140.103 Q199.941 143.644 203.552 143.644 Q207.186 143.644 208.992 140.103 Q210.82 136.538 210.82 129.432 Q210.82 122.302 208.992 118.76 Q207.186 115.196 203.552 115.196 M203.552 111.492 Q209.362 111.492 212.418 116.098 Q215.496 120.682 215.496 129.432 Q215.496 138.158 212.418 142.765 Q209.362 147.348 203.552 147.348 Q197.742 147.348 194.663 142.765 Q191.608 138.158 191.608 129.432 Q191.608 120.682 194.663 116.098 Q197.742 111.492 203.552 111.492 Z" fill="#000000" fill-rule="nonzero" fill-opacity="1" /><path clip-path="url(#clip950)" d="M36.203 914.843 Q36.5251 914.908 37.1048 915.037 Q37.6523 915.165 39.3914 915.745 Q41.1305 916.325 42.9019 917.098 Q44.641 917.838 47.0886 919.288 Q49.5041 920.705 51.6941 922.444 Q52.2738 922.927 52.628 923.024 Q52.9501 923.088 54.0129 923.088 Q60.7117 923.088 60.7117 921.059 Q60.7117 920.962 60.7117 920.801 Q60.6795 920.608 60.5185 920.125 Q60.3252 919.61 60.0354 919.159 Q59.7133 918.708 59.0692 918.193 Q58.3929 917.677 57.4911 917.355 Q56.847 917.066 56.847 916.486 Q56.847 915.713 57.4911 915.713 Q58.6505 915.713 60.4219 917.323 Q62.1932 918.933 62.1932 921.252 Q62.1932 923.475 60.7439 925.053 Q59.2624 926.598 56.6216 927.243 Q62.1932 934.199 62.1932 941.156 Q62.1932 946.051 59.0048 948.949 Q55.7842 951.848 51.0177 951.848 Q46.4445 951.848 42.0967 949.336 Q37.7489 946.792 35.0436 942.669 Q32.3061 938.515 32.3061 934.102 Q32.3061 932.557 32.7248 931.075 Q33.1113 929.594 34.1097 928.112 Q35.108 926.631 36.6217 925.536 Q38.1354 924.441 40.5186 923.764 Q42.9019 923.088 45.897 923.088 L49.9872 923.088 Q44.6088 918.837 36.9116 916.615 Q35.7522 916.293 35.6233 916.099 Q35.5267 915.971 35.5267 915.648 Q35.5267 915.326 35.72 915.133 Q35.881 914.908 36.042 914.876 L36.203 914.843 M54.9147 927.5 Q53.7874 927.629 47.5395 927.629 Q46.3479 927.629 45.7038 927.629 Q45.0275 927.629 43.7392 927.693 Q42.451 927.758 41.6458 927.887 Q40.8407 927.983 39.6813 928.209 Q38.5219 928.434 37.7811 928.756 Q37.0404 929.078 36.203 929.594 Q35.3657 930.077 34.8826 930.721 Q34.3995 931.333 34.0775 932.235 Q33.7554 933.104 33.7554 934.167 Q33.7554 935.487 34.2385 936.872 Q34.6894 938.225 36.1386 939.964 Q37.5557 941.703 39.8101 943.152 Q42.1933 944.666 46.5733 945.825 Q50.9211 946.953 53.5298 946.953 Q56.8148 946.953 58.7794 945.439 Q60.7117 943.925 60.7117 941.027 Q60.7117 934.102 54.9147 927.5 Z" fill="#000000" fill-rule="nonzero" fill-opacity="1" /><path clip-path="url(#clip950)" d="M1333.39 43.0777 Q1333.31 43.4875 1333.14 44.2254 Q1332.98 44.9222 1332.24 47.1356 Q1331.5 49.349 1330.52 51.6034 Q1329.58 53.8168 1327.73 56.932 Q1325.93 60.0062 1323.72 62.7935 Q1323.1 63.5313 1322.98 63.9822 Q1322.9 64.3921 1322.9 65.7447 Q1322.9 74.2705 1325.48 74.2705 Q1325.6 74.2705 1325.81 74.2705 Q1326.05 74.2295 1326.67 74.0246 Q1327.32 73.7786 1327.9 73.4097 Q1328.47 72.9998 1329.13 72.18 Q1329.78 71.3193 1330.19 70.1716 Q1330.56 69.3518 1331.3 69.3518 Q1332.28 69.3518 1332.28 70.1716 Q1332.28 71.6472 1330.23 73.9016 Q1328.18 76.156 1325.23 76.156 Q1322.41 76.156 1320.4 74.3115 Q1318.43 72.426 1317.61 69.0649 Q1308.76 76.156 1299.9 76.156 Q1293.67 76.156 1289.98 72.0981 Q1286.29 67.9991 1286.29 61.9327 Q1286.29 56.1122 1289.49 50.5787 Q1292.73 45.0451 1297.98 41.602 Q1303.26 38.118 1308.88 38.118 Q1310.85 38.118 1312.73 38.6508 Q1314.62 39.1427 1316.5 40.4134 Q1318.39 41.684 1319.78 43.6105 Q1321.18 45.537 1322.04 48.5702 Q1322.9 51.6034 1322.9 55.4154 L1322.9 60.6211 Q1328.31 53.7759 1331.14 43.9794 Q1331.55 42.5038 1331.79 42.3398 Q1331.96 42.2169 1332.37 42.2169 Q1332.78 42.2169 1333.02 42.4628 Q1333.31 42.6678 1333.35 42.8727 L1333.39 43.0777 M1317.28 66.8924 Q1317.12 65.4578 1317.12 57.5059 Q1317.12 55.9893 1317.12 55.1695 Q1317.12 54.3087 1317.04 52.6691 Q1316.95 51.0296 1316.79 50.0048 Q1316.67 48.9801 1316.38 47.5045 Q1316.09 46.0289 1315.68 45.0861 Q1315.27 44.1434 1314.62 43.0777 Q1314 42.0119 1313.18 41.3971 Q1312.4 40.7823 1311.26 40.3724 Q1310.15 39.9625 1308.8 39.9625 Q1307.12 39.9625 1305.35 40.5773 Q1303.63 41.1512 1301.42 42.9957 Q1299.21 44.7992 1297.36 47.6685 Q1295.43 50.7017 1293.96 56.2762 Q1292.52 61.8098 1292.52 65.1299 Q1292.52 69.3108 1294.45 71.8111 Q1296.38 74.2705 1300.07 74.2705 Q1308.88 74.2705 1317.28 66.8924 Z" fill="#000000" fill-rule="nonzero" fill-opacity="1" /><path clip-path="url(#clip950)" d="M1362.76 62.4656 Q1362.85 61.4409 1364.45 61.4409 L1415.89 61.4409 Q1418.31 61.4409 1418.35 62.3836 Q1418.35 63.4083 1416.05 63.3673 L1365.02 63.3673 Q1362.76 63.4083 1362.76 62.4656 M1362.76 46.0699 Q1362.76 45.0451 1364.53 45.0861 L1415.8 45.0861 Q1418.31 45.0861 1418.35 46.0699 Q1418.35 47.0126 1416.21 47.0126 L1364.45 47.0126 Q1362.76 47.0126 1362.76 46.0699 Z" fill="#000000" fill-rule="nonzero" fill-opacity="1" /><path clip-path="url(#clip950)" d="M1496.06 41.0282 Q1496.06 43.8974 1491.96 43.8974 L1482.37 43.8974 Q1480.89 50.7017 1480.89 57.2599 Q1480.89 65.0889 1483.31 71.1143 Q1483.8 72.303 1483.8 72.9588 Q1483.8 74.1885 1482.7 75.1723 Q1481.63 76.156 1480.36 76.156 Q1479.29 76.156 1478.6 75.3362 Q1477.94 74.5164 1477.37 71.9341 Q1476.67 68.9009 1476.67 65.5398 Q1476.67 61.5228 1477.33 57.6698 Q1477.98 53.7759 1480.2 43.8974 L1470.73 43.8974 L1466.01 62.4656 Q1464.33 68.7369 1463.76 70.6634 Q1463.39 71.8111 1463.27 72.18 Q1463.14 72.5489 1462.78 73.4507 Q1462.45 74.3115 1462.2 74.6394 Q1461.96 74.9263 1461.55 75.3772 Q1461.14 75.8691 1460.64 75.992 Q1460.15 76.156 1459.54 76.156 Q1458.59 76.156 1457.86 75.5412 Q1457.12 74.9673 1457.12 73.8606 Q1457.12 73.1228 1457.78 71.8521 Q1465.56 55.0465 1468.51 43.8974 L1463.76 43.8974 Q1457.2 43.8974 1453.1 50.3737 Q1452.45 51.2345 1452.08 51.3165 Q1451.91 51.3575 1451.75 51.3575 Q1451.3 51.3575 1451.01 51.1525 Q1450.77 50.9476 1450.77 50.7427 L1450.72 50.5377 Q1450.72 50.2918 1451.34 49.1851 Q1452 48.0374 1453.23 46.2748 Q1454.5 44.5123 1455.85 42.9957 Q1457.16 41.602 1458.43 40.7413 Q1459.74 39.8395 1460.97 39.5116 Q1462.2 39.1837 1462.9 39.1017 Q1463.6 39.0197 1464.58 39.0197 L1492.7 39.0197 Q1493.76 39.0197 1494.34 39.1017 Q1494.91 39.1427 1495.49 39.6346 Q1496.06 40.0854 1496.06 41.0282 Z" fill="#000000" fill-rule="nonzero" fill-opacity="1" /><path clip-path="url(#clip950)" d="M1507.17 54.2267 Q1507.17 40.0444 1512.46 28.6084 Q1514.72 23.8127 1517.87 19.7957 Q1521.03 15.7788 1523.12 14.0163 Q1525.21 12.2537 1525.78 12.2537 Q1526.6 12.2537 1526.64 13.0735 Q1526.64 13.4834 1525.54 14.5081 Q1512.01 28.2805 1512.05 54.2267 Q1512.05 80.2549 1525.21 93.4945 Q1526.64 94.9291 1526.64 95.38 Q1526.64 96.1998 1525.78 96.1998 Q1525.21 96.1998 1523.2 94.5192 Q1521.19 92.8386 1518.08 88.9856 Q1514.96 85.1327 1512.71 80.4189 Q1507.17 68.9829 1507.17 54.2267 Z" fill="#000000" fill-rule="nonzero" fill-opacity="1" /><path clip-path="url(#clip950)" d="M1569.38 33.2402 Q1569.38 40.1264 1567.17 47.8734 Q1564.99 55.5794 1561.55 61.8098 Q1558.11 67.9991 1553.6 72.0981 Q1549.09 76.156 1544.79 76.156 Q1542.04 76.156 1539.99 74.6394 Q1537.98 73.0818 1536.88 70.4995 Q1535.77 67.8762 1535.24 65.0069 Q1534.7 62.0967 1534.7 58.9405 Q1534.7 54.2267 1535.73 49.1031 Q1536.75 43.9384 1538.47 39.2657 Q1540.2 34.5519 1542.61 30.289 Q1545.03 25.9851 1547.7 22.8699 Q1550.4 19.7138 1553.44 17.8692 Q1556.47 16.0247 1559.3 16.0247 Q1561.35 16.0247 1562.99 16.9265 Q1564.67 17.7873 1565.73 19.3039 Q1566.8 20.7795 1567.54 22.542 Q1568.31 24.3046 1568.68 26.354 Q1569.05 28.3625 1569.22 30.0431 Q1569.38 31.6826 1569.38 33.2402 M1563.85 28.0346 Q1563.85 25.9441 1563.68 24.3865 Q1563.52 22.788 1563.07 21.1894 Q1562.62 19.5908 1561.63 18.73 Q1560.69 17.8692 1559.21 17.8692 Q1554.91 17.8692 1550.07 26.6819 Q1548.52 29.4282 1547.12 33.1583 Q1545.73 36.8883 1545.24 38.6508 Q1544.75 40.4134 1543.6 44.7582 L1561.14 44.7582 Q1563.85 33.5681 1563.85 28.0346 M1560.4 47.4225 L1542.94 47.4225 Q1540.24 57.6698 1540.24 64.0642 Q1540.24 69.6387 1541.38 71.9751 Q1542.57 74.2705 1544.79 74.2705 Q1547.33 74.2705 1549.71 71.7292 Q1552.08 69.1468 1554.5 64.4741 Q1557.7 58.4076 1560.4 47.4225 Z" fill="#000000" fill-rule="nonzero" fill-opacity="1" /><path clip-path="url(#clip950)" d="M1578.04 95.38 Q1578.04 94.9701 1579.11 93.9454 Q1592.64 80.173 1592.64 54.2267 Q1592.64 28.1985 1579.64 15.041 Q1578.04 13.5244 1578.04 13.0735 Q1578.04 12.2537 1578.86 12.2537 Q1579.44 12.2537 1581.45 13.9343 Q1583.5 15.6148 1586.57 19.4678 Q1589.69 23.3208 1591.98 28.0346 Q1597.51 39.4706 1597.51 54.2267 Q1597.51 68.409 1592.23 79.845 Q1589.97 84.6408 1586.82 88.6577 Q1583.66 92.6747 1581.57 94.4372 Q1579.48 96.1998 1578.86 96.1998 Q1578.04 96.1998 1578.04 95.38 Z" fill="#000000" fill-rule="nonzero" fill-opacity="1" /><polyline clip-path="url(#clip952)" style="stroke:#009af9; stroke-linecap:round; stroke-linejoin:round; stroke-width:4; stroke-opacity:1; fill:none" points="255.816,129.397 280.438,129.397 424.643,129.419 491.727,129.516 581.645,130.317 618.795,131.369 655.945,133.434 690.491,136.936 725.037,142.932 746.721,148.553 768.404,156.097 790.087,166.049 811.771,178.96 831.221,193.548 850.671,211.448 870.121,233.112 889.571,258.978 900.703,275.827 911.835,294.248 922.966,314.298 934.098,336.023 945.23,359.458 956.361,384.624 967.493,411.53 978.625,440.166 995.267,486.145 1011.91,535.775 1028.55,588.814 1045.19,644.931 1066.48,720.524 1087.76,799.431 1109.05,880.457 1130.33,962.304 1149.76,1036.58 1169.19,1109.42 1188.61,1179.85 1208.04,1247.02 1219.1,1283.49 1230.15,1318.54 1241.21,1352.05 1252.26,1383.95 1263.32,1414.16 1274.37,1442.61 1285.43,1469.27 1296.48,1494.11 1305.25,1512.48 1314.01,1529.7 1322.77,1545.75 1331.54,1560.65 1340.3,1574.4 1349.07,1587 1357.83,1598.47 1366.59,1608.83 1377.48,1620.16 1388.37,1629.81 1399.26,1637.81 1410.14,1644.18 1421.03,1648.94 1431.92,1652.11 1442.81,1653.69 1453.7,1653.69 1462.03,1652.63 1470.37,1650.64 1478.71,1647.72 1487.05,1643.86 1503.73,1633.3 1520.4,1618.89 1532.16,1606.36 1543.91,1591.84 1555.67,1575.3 1567.43,1556.7 1579.18,1536.03 1590.94,1513.27 1602.69,1488.42 1614.45,1461.49 1623.23,1440.03 1632.02,1417.43 1640.8,1393.72 1649.59,1368.93 1658.37,1343.09 1667.16,1316.25 1675.94,1288.44 1684.73,1259.72 1704.71,1191.34 1724.69,1119.36 1744.67,1044.7 1764.65,968.406 1784.44,892.302 1804.23,816.74 1824.01,742.775 1843.8,671.393 1854.69,633.551 1865.57,596.888 1876.46,561.52 1887.34,527.547 1898.23,495.053 1909.11,464.106 1920,434.76 1930.88,407.05 1947.51,367.92 1964.14,332.661 1972.46,316.464 1980.77,301.204 1989.08,286.864 1997.4,273.42 2007.89,257.697 2018.38,243.308 2028.87,230.192 2039.37,218.284 2049.86,207.515 2060.35,197.816 2070.84,189.114 2081.33,181.338 2100.74,169.157 2120.15,159.468 2139.56,151.866 2158.97,145.982 2199,137.924 2239.03,133.555 2279.61,131.298 2320.19,130.219 2404.93,129.516 2471.68,129.419 2623.7,129.397 2640.76,129.397 "/>
<polyline clip-path="url(#clip952)" style="stroke:#e26f46; stroke-linecap:round; stroke-linejoin:round; stroke-width:4; stroke-opacity:1; fill:none" points="1448.29,3340.44 1448.29,-1478.53 "/>
<path clip-path="url(#clip950)" d="M2300.54 1680.57 L2561.26 1680.57 L2561.26 1576.89 L2300.54 1576.89  Z" fill="#ffffff" fill-rule="evenodd" fill-opacity="1"/>
<polyline clip-path="url(#clip950)" style="stroke:#000000; stroke-linecap:round; stroke-linejoin:round; stroke-width:4; stroke-opacity:1; fill:none" points="2300.54,1680.57 2561.26,1680.57 2561.26,1576.89 2300.54,1576.89 2300.54,1680.57 "/>
<polyline clip-path="url(#clip950)" style="stroke:#e26f46; stroke-linecap:round; stroke-linejoin:round; stroke-width:4; stroke-opacity:1; fill:none" points="2327.04,1628.73 2486.04,1628.73 "/>
<path clip-path="url(#clip950)" d="M2512.54 1611.45 L2534.76 1611.45 L2534.76 1613.44 L2522.21 1646.01 L2517.33 1646.01 L2529.13 1615.39 L2512.54 1615.39 L2512.54 1611.45 Z" fill="#000000" fill-rule="nonzero" fill-opacity="1" /></svg>
