<?xml version="1.0" encoding="utf-8"?>
<svg xmlns="http://www.w3.org/2000/svg" xmlns:xlink="http://www.w3.org/1999/xlink" width="672" height="480" viewBox="0 0 2688 1920">
<defs>
  <clipPath id="clip860">
    <rect x="0" y="0" width="2688" height="1920"/>
  </clipPath>
</defs>
<path clip-path="url(#clip860)" d="M0 1920 L2688 1920 L2688 0 L0 0  Z" fill="#ffffff" fill-rule="evenodd" fill-opacity="1"/>
<defs>
  <clipPath id="clip861">
    <rect x="537" y="0" width="1883" height="1883"/>
  </clipPath>
</defs>
<path clip-path="url(#clip860)" d="M255.816 1734.12 L2640.76 1734.12 L2640.76 127.792 L255.816 127.792  Z" fill="#ffffff" fill-rule="evenodd" fill-opacity="1"/>
<defs>
  <clipPath id="clip862">
    <rect x="255" y="127" width="2386" height="1607"/>
  </clipPath>
</defs>
<polyline clip-path="url(#clip862)" style="stroke:#000000; stroke-linecap:round; stroke-linejoin:round; stroke-width:2; stroke-opacity:0.1; fill:none" points="298.315,1734.12 298.315,127.792 "/>
<polyline clip-path="url(#clip862)" style="stroke:#000000; stroke-linecap:round; stroke-linejoin:round; stroke-width:2; stroke-opacity:0.1; fill:none" points="798.303,1734.12 798.303,127.792 "/>
<polyline clip-path="url(#clip862)" style="stroke:#000000; stroke-linecap:round; stroke-linejoin:round; stroke-width:2; stroke-opacity:0.1; fill:none" points="1298.29,1734.12 1298.29,127.792 "/>
<polyline clip-path="url(#clip862)" style="stroke:#000000; stroke-linecap:round; stroke-linejoin:round; stroke-width:2; stroke-opacity:0.1; fill:none" points="1798.28,1734.12 1798.28,127.792 "/>
<polyline clip-path="url(#clip862)" style="stroke:#000000; stroke-linecap:round; stroke-linejoin:round; stroke-width:2; stroke-opacity:0.1; fill:none" points="2298.26,1734.12 2298.26,127.792 "/>
<polyline clip-path="url(#clip862)" style="stroke:#000000; stroke-linecap:round; stroke-linejoin:round; stroke-width:2; stroke-opacity:0.1; fill:none" points="255.816,1734.12 2640.76,1734.12 "/>
<polyline clip-path="url(#clip862)" style="stroke:#000000; stroke-linecap:round; stroke-linejoin:round; stroke-width:2; stroke-opacity:0.1; fill:none" points="255.816,1332.54 2640.76,1332.54 "/>
<polyline clip-path="url(#clip862)" style="stroke:#000000; stroke-linecap:round; stroke-linejoin:round; stroke-width:2; stroke-opacity:0.1; fill:none" points="255.816,930.955 2640.76,930.955 "/>
<polyline clip-path="url(#clip862)" style="stroke:#000000; stroke-linecap:round; stroke-linejoin:round; stroke-width:2; stroke-opacity:0.1; fill:none" points="255.816,529.373 2640.76,529.373 "/>
<polyline clip-path="url(#clip860)" style="stroke:#000000; stroke-linecap:round; stroke-linejoin:round; stroke-width:4; stroke-opacity:1; fill:none" points="255.816,1734.12 2640.76,1734.12 "/>
<polyline clip-path="url(#clip860)" style="stroke:#000000; stroke-linecap:round; stroke-linejoin:round; stroke-width:4; stroke-opacity:1; fill:none" points="298.315,1734.12 298.315,1715.22 "/>
<polyline clip-path="url(#clip860)" style="stroke:#000000; stroke-linecap:round; stroke-linejoin:round; stroke-width:4; stroke-opacity:1; fill:none" points="798.303,1734.12 798.303,1715.22 "/>
<polyline clip-path="url(#clip860)" style="stroke:#000000; stroke-linecap:round; stroke-linejoin:round; stroke-width:4; stroke-opacity:1; fill:none" points="1298.29,1734.12 1298.29,1715.22 "/>
<polyline clip-path="url(#clip860)" style="stroke:#000000; stroke-linecap:round; stroke-linejoin:round; stroke-width:4; stroke-opacity:1; fill:none" points="1798.28,1734.12 1798.28,1715.22 "/>
<polyline clip-path="url(#clip860)" style="stroke:#000000; stroke-linecap:round; stroke-linejoin:round; stroke-width:4; stroke-opacity:1; fill:none" points="2298.26,1734.12 2298.26,1715.22 "/>
<path clip-path="url(#clip860)" d="M298.315 1767.34 Q294.704 1767.34 292.875 1770.9 Q291.07 1774.45 291.07 1781.58 Q291.07 1788.68 292.875 1792.25 Q294.704 1795.79 298.315 1795.79 Q301.949 1795.79 303.755 1792.25 Q305.584 1788.68 305.584 1781.58 Q305.584 1774.45 303.755 1770.9 Q301.949 1767.34 298.315 1767.34 M298.315 1763.64 Q304.125 1763.64 307.181 1768.24 Q310.26 1772.83 310.26 1781.58 Q310.26 1790.3 307.181 1794.91 Q304.125 1799.49 298.315 1799.49 Q292.505 1799.49 289.426 1794.91 Q286.371 1790.3 286.371 1781.58 Q286.371 1772.83 289.426 1768.24 Q292.505 1763.64 298.315 1763.64 Z" fill="#000000" fill-rule="nonzero" fill-opacity="1" /><path clip-path="url(#clip860)" d="M777.076 1794.89 L793.395 1794.89 L793.395 1798.82 L771.451 1798.82 L771.451 1794.89 Q774.113 1792.13 778.696 1787.5 Q783.303 1782.85 784.483 1781.51 Q786.729 1778.98 787.608 1777.25 Q788.511 1775.49 788.511 1773.8 Q788.511 1771.04 786.567 1769.31 Q784.645 1767.57 781.543 1767.57 Q779.344 1767.57 776.891 1768.34 Q774.46 1769.1 771.682 1770.65 L771.682 1765.93 Q774.506 1764.79 776.96 1764.21 Q779.414 1763.64 781.451 1763.64 Q786.821 1763.64 790.016 1766.32 Q793.21 1769.01 793.21 1773.5 Q793.21 1775.63 792.4 1777.55 Q791.613 1779.45 789.506 1782.04 Q788.928 1782.71 785.826 1785.93 Q782.724 1789.12 777.076 1794.89 Z" fill="#000000" fill-rule="nonzero" fill-opacity="1" /><path clip-path="url(#clip860)" d="M813.21 1767.34 Q809.599 1767.34 807.77 1770.9 Q805.965 1774.45 805.965 1781.58 Q805.965 1788.68 807.77 1792.25 Q809.599 1795.79 813.21 1795.79 Q816.844 1795.79 818.65 1792.25 Q820.478 1788.68 820.478 1781.58 Q820.478 1774.45 818.65 1770.9 Q816.844 1767.34 813.21 1767.34 M813.21 1763.64 Q819.02 1763.64 822.076 1768.24 Q825.154 1772.83 825.154 1781.58 Q825.154 1790.3 822.076 1794.91 Q819.02 1799.49 813.21 1799.49 Q807.4 1799.49 804.321 1794.91 Q801.266 1790.3 801.266 1781.58 Q801.266 1772.83 804.321 1768.24 Q807.4 1763.64 813.21 1763.64 Z" fill="#000000" fill-rule="nonzero" fill-opacity="1" /><path clip-path="url(#clip860)" d="M1286.46 1768.34 L1274.66 1786.78 L1286.46 1786.78 L1286.46 1768.34 M1285.23 1764.26 L1291.11 1764.26 L1291.11 1786.78 L1296.04 1786.78 L1296.04 1790.67 L1291.11 1790.67 L1291.11 1798.82 L1286.46 1798.82 L1286.46 1790.67 L1270.86 1790.67 L1270.86 1786.16 L1285.23 1764.26 Z" fill="#000000" fill-rule="nonzero" fill-opacity="1" /><path clip-path="url(#clip860)" d="M1313.78 1767.34 Q1310.16 1767.34 1308.34 1770.9 Q1306.53 1774.45 1306.53 1781.58 Q1306.53 1788.68 1308.34 1792.25 Q1310.16 1795.79 1313.78 1795.79 Q1317.41 1795.79 1319.22 1792.25 Q1321.04 1788.68 1321.04 1781.58 Q1321.04 1774.45 1319.22 1770.9 Q1317.41 1767.34 1313.78 1767.34 M1313.78 1763.64 Q1319.59 1763.64 1322.64 1768.24 Q1325.72 1772.83 1325.72 1781.58 Q1325.72 1790.3 1322.64 1794.91 Q1319.59 1799.49 1313.78 1799.49 Q1307.97 1799.49 1304.89 1794.91 Q1301.83 1790.3 1301.83 1781.58 Q1301.83 1772.83 1304.89 1768.24 Q1307.97 1763.64 1313.78 1763.64 Z" fill="#000000" fill-rule="nonzero" fill-opacity="1" /><path clip-path="url(#clip860)" d="M1783.68 1779.68 Q1780.53 1779.68 1778.68 1781.83 Q1776.85 1783.98 1776.85 1787.73 Q1776.85 1791.46 1778.68 1793.64 Q1780.53 1795.79 1783.68 1795.79 Q1786.83 1795.79 1788.66 1793.64 Q1790.51 1791.46 1790.51 1787.73 Q1790.51 1783.98 1788.66 1781.83 Q1786.83 1779.68 1783.68 1779.68 M1792.96 1765.02 L1792.96 1769.28 Q1791.21 1768.45 1789.4 1768.01 Q1787.62 1767.57 1785.86 1767.57 Q1781.23 1767.57 1778.78 1770.7 Q1776.34 1773.82 1776 1780.14 Q1777.36 1778.13 1779.42 1777.06 Q1781.48 1775.97 1783.96 1775.97 Q1789.17 1775.97 1792.18 1779.15 Q1795.21 1782.29 1795.21 1787.73 Q1795.21 1793.06 1792.06 1796.27 Q1788.91 1799.49 1783.68 1799.49 Q1777.69 1799.49 1774.52 1794.91 Q1771.34 1790.3 1771.34 1781.58 Q1771.34 1773.38 1775.23 1768.52 Q1779.12 1763.64 1785.67 1763.64 Q1787.43 1763.64 1789.21 1763.98 Q1791.02 1764.33 1792.96 1765.02 Z" fill="#000000" fill-rule="nonzero" fill-opacity="1" /><path clip-path="url(#clip860)" d="M1813.27 1767.34 Q1809.65 1767.34 1807.83 1770.9 Q1806.02 1774.45 1806.02 1781.58 Q1806.02 1788.68 1807.83 1792.25 Q1809.65 1795.79 1813.27 1795.79 Q1816.9 1795.79 1818.71 1792.25 Q1820.53 1788.68 1820.53 1781.58 Q1820.53 1774.45 1818.71 1770.9 Q1816.9 1767.34 1813.27 1767.34 M1813.27 1763.64 Q1819.08 1763.64 1822.13 1768.24 Q1825.21 1772.83 1825.21 1781.58 Q1825.21 1790.3 1822.13 1794.91 Q1819.08 1799.49 1813.27 1799.49 Q1807.46 1799.49 1804.38 1794.91 Q1801.32 1790.3 1801.32 1781.58 Q1801.32 1772.83 1804.38 1768.24 Q1807.46 1763.64 1813.27 1763.64 Z" fill="#000000" fill-rule="nonzero" fill-opacity="1" /><path clip-path="url(#clip860)" d="M2283.14 1782.41 Q2279.8 1782.41 2277.88 1784.19 Q2275.98 1785.97 2275.98 1789.1 Q2275.98 1792.22 2277.88 1794.01 Q2279.8 1795.79 2283.14 1795.79 Q2286.47 1795.79 2288.39 1794.01 Q2290.31 1792.2 2290.31 1789.1 Q2290.31 1785.97 2288.39 1784.19 Q2286.49 1782.41 2283.14 1782.41 M2278.46 1780.42 Q2275.45 1779.68 2273.76 1777.62 Q2272.1 1775.56 2272.1 1772.59 Q2272.1 1768.45 2275.04 1766.04 Q2278 1763.64 2283.14 1763.64 Q2288.3 1763.64 2291.24 1766.04 Q2294.18 1768.45 2294.18 1772.59 Q2294.18 1775.56 2292.49 1777.62 Q2290.82 1779.68 2287.84 1780.42 Q2291.22 1781.21 2293.09 1783.5 Q2294.99 1785.79 2294.99 1789.1 Q2294.99 1794.12 2291.91 1796.81 Q2288.85 1799.49 2283.14 1799.49 Q2277.42 1799.49 2274.34 1796.81 Q2271.29 1794.12 2271.29 1789.1 Q2271.29 1785.79 2273.18 1783.5 Q2275.08 1781.21 2278.46 1780.42 M2276.75 1773.03 Q2276.75 1775.72 2278.42 1777.22 Q2280.1 1778.73 2283.14 1778.73 Q2286.15 1778.73 2287.84 1777.22 Q2289.55 1775.72 2289.55 1773.03 Q2289.55 1770.35 2287.84 1768.84 Q2286.15 1767.34 2283.14 1767.34 Q2280.1 1767.34 2278.42 1768.84 Q2276.75 1770.35 2276.75 1773.03 Z" fill="#000000" fill-rule="nonzero" fill-opacity="1" /><path clip-path="url(#clip860)" d="M2313.3 1767.34 Q2309.69 1767.34 2307.86 1770.9 Q2306.05 1774.45 2306.05 1781.58 Q2306.05 1788.68 2307.86 1792.25 Q2309.69 1795.79 2313.3 1795.79 Q2316.93 1795.79 2318.74 1792.25 Q2320.57 1788.68 2320.57 1781.58 Q2320.57 1774.45 2318.74 1770.9 Q2316.93 1767.34 2313.3 1767.34 M2313.3 1763.64 Q2319.11 1763.64 2322.16 1768.24 Q2325.24 1772.83 2325.24 1781.58 Q2325.24 1790.3 2322.16 1794.91 Q2319.11 1799.49 2313.3 1799.49 Q2307.49 1799.49 2304.41 1794.91 Q2301.35 1790.3 2301.35 1781.58 Q2301.35 1772.83 2304.41 1768.24 Q2307.49 1763.64 2313.3 1763.64 Z" fill="#000000" fill-rule="nonzero" fill-opacity="1" /><path clip-path="url(#clip860)" d="M1327.75 1839.44 L1327.75 1846.22 Q1324.5 1843.2 1320.81 1841.7 Q1317.15 1840.21 1313.01 1840.21 Q1304.87 1840.21 1300.54 1845.2 Q1296.21 1850.17 1296.21 1859.59 Q1296.21 1868.98 1300.54 1873.98 Q1304.87 1878.94 1313.01 1878.94 Q1317.15 1878.94 1320.81 1877.44 Q1324.5 1875.95 1327.75 1872.92 L1327.75 1879.64 Q1324.38 1881.93 1320.59 1883.08 Q1316.83 1884.22 1312.63 1884.22 Q1301.84 1884.22 1295.64 1877.64 Q1289.43 1871.02 1289.43 1859.59 Q1289.43 1848.13 1295.64 1841.54 Q1301.84 1834.92 1312.63 1834.92 Q1316.9 1834.92 1320.65 1836.07 Q1324.44 1837.18 1327.75 1839.44 Z" fill="#000000" fill-rule="nonzero" fill-opacity="1" /><path clip-path="url(#clip860)" d="M1351.24 1851.76 Q1346.53 1851.76 1343.79 1855.45 Q1341.06 1859.11 1341.06 1865.51 Q1341.06 1871.91 1343.76 1875.6 Q1346.5 1879.26 1351.24 1879.26 Q1355.92 1879.26 1358.66 1875.57 Q1361.39 1871.87 1361.39 1865.51 Q1361.39 1859.17 1358.66 1855.48 Q1355.92 1851.76 1351.24 1851.76 M1351.24 1846.79 Q1358.88 1846.79 1363.24 1851.76 Q1367.6 1856.72 1367.6 1865.51 Q1367.6 1874.26 1363.24 1879.26 Q1358.88 1884.22 1351.24 1884.22 Q1343.57 1884.22 1339.21 1879.26 Q1334.88 1874.26 1334.88 1865.51 Q1334.88 1856.72 1339.21 1851.76 Q1343.57 1846.79 1351.24 1846.79 Z" fill="#000000" fill-rule="nonzero" fill-opacity="1" /><path clip-path="url(#clip860)" d="M1402.9 1865.51 Q1402.9 1859.05 1400.23 1855.39 Q1397.58 1851.7 1392.94 1851.7 Q1388.29 1851.7 1385.62 1855.39 Q1382.97 1859.05 1382.97 1865.51 Q1382.97 1871.97 1385.62 1875.66 Q1388.29 1879.32 1392.94 1879.32 Q1397.58 1879.32 1400.23 1875.66 Q1402.9 1871.97 1402.9 1865.51 M1382.97 1853.06 Q1384.82 1849.88 1387.62 1848.35 Q1390.45 1846.79 1394.37 1846.79 Q1400.86 1846.79 1404.9 1851.95 Q1408.98 1857.11 1408.98 1865.51 Q1408.98 1873.91 1404.9 1879.07 Q1400.86 1884.22 1394.37 1884.22 Q1390.45 1884.22 1387.62 1882.7 Q1384.82 1881.14 1382.97 1877.95 L1382.97 1883.3 L1377.09 1883.3 L1377.09 1833.78 L1382.97 1833.78 L1382.97 1853.06 Z" fill="#000000" fill-rule="nonzero" fill-opacity="1" /><path clip-path="url(#clip860)" d="M1449.18 1864.01 L1449.18 1866.88 L1422.25 1866.88 Q1422.63 1872.92 1425.88 1876.11 Q1429.16 1879.26 1434.98 1879.26 Q1438.36 1879.26 1441.51 1878.43 Q1444.69 1877.6 1447.81 1875.95 L1447.81 1881.49 Q1444.66 1882.82 1441.35 1883.52 Q1438.04 1884.22 1434.63 1884.22 Q1426.1 1884.22 1421.1 1879.26 Q1416.14 1874.29 1416.14 1865.83 Q1416.14 1857.07 1420.85 1851.95 Q1425.59 1846.79 1433.61 1846.79 Q1440.81 1846.79 1444.98 1851.44 Q1449.18 1856.06 1449.18 1864.01 M1443.32 1862.29 Q1443.26 1857.49 1440.62 1854.62 Q1438.01 1851.76 1433.68 1851.76 Q1428.78 1851.76 1425.82 1854.53 Q1422.89 1857.3 1422.44 1862.33 L1443.32 1862.29 Z" fill="#000000" fill-rule="nonzero" fill-opacity="1" /><path clip-path="url(#clip860)" d="M1479.45 1853.13 Q1478.46 1852.55 1477.28 1852.3 Q1476.14 1852.01 1474.74 1852.01 Q1469.77 1852.01 1467.1 1855.26 Q1464.46 1858.47 1464.46 1864.52 L1464.46 1883.3 L1458.57 1883.3 L1458.57 1847.65 L1464.46 1847.65 L1464.46 1853.19 Q1466.3 1849.94 1469.26 1848.39 Q1472.22 1846.79 1476.45 1846.79 Q1477.06 1846.79 1477.79 1846.89 Q1478.52 1846.95 1479.41 1847.11 L1479.45 1853.13 Z" fill="#000000" fill-rule="nonzero" fill-opacity="1" /><path clip-path="url(#clip860)" d="M1491.38 1837.53 L1491.38 1847.65 L1503.44 1847.65 L1503.44 1852.2 L1491.38 1852.2 L1491.38 1871.56 Q1491.38 1875.92 1492.56 1877.16 Q1493.77 1878.4 1497.43 1878.4 L1503.44 1878.4 L1503.44 1883.3 L1497.43 1883.3 Q1490.65 1883.3 1488.07 1880.79 Q1485.49 1878.24 1485.49 1871.56 L1485.49 1852.2 L1481.2 1852.2 L1481.2 1847.65 L1485.49 1847.65 L1485.49 1837.53 L1491.38 1837.53 Z" fill="#000000" fill-rule="nonzero" fill-opacity="1" /><path clip-path="url(#clip860)" d="M1510.54 1869.23 L1510.54 1847.65 L1516.4 1847.65 L1516.4 1869.01 Q1516.4 1874.07 1518.37 1876.62 Q1520.35 1879.13 1524.29 1879.13 Q1529.04 1879.13 1531.77 1876.11 Q1534.54 1873.08 1534.54 1867.86 L1534.54 1847.65 L1540.4 1847.65 L1540.4 1883.3 L1534.54 1883.3 L1534.54 1877.83 Q1532.41 1881.07 1529.58 1882.66 Q1526.78 1884.22 1523.05 1884.22 Q1516.91 1884.22 1513.73 1880.4 Q1510.54 1876.59 1510.54 1869.23 M1525.28 1846.79 L1525.28 1846.79 Z" fill="#000000" fill-rule="nonzero" fill-opacity="1" /><path clip-path="url(#clip860)" d="M1573.12 1853.13 Q1572.13 1852.55 1570.95 1852.3 Q1569.81 1852.01 1568.41 1852.01 Q1563.44 1852.01 1560.77 1855.26 Q1558.13 1858.47 1558.13 1864.52 L1558.13 1883.3 L1552.24 1883.3 L1552.24 1847.65 L1558.13 1847.65 L1558.13 1853.19 Q1559.97 1849.94 1562.93 1848.39 Q1565.89 1846.79 1570.13 1846.79 Q1570.73 1846.79 1571.46 1846.89 Q1572.19 1846.95 1573.09 1847.11 L1573.12 1853.13 Z" fill="#000000" fill-rule="nonzero" fill-opacity="1" /><path clip-path="url(#clip860)" d="M1595.46 1865.38 Q1588.36 1865.38 1585.63 1867 Q1582.89 1868.63 1582.89 1872.54 Q1582.89 1875.66 1584.93 1877.51 Q1586.99 1879.32 1590.53 1879.32 Q1595.4 1879.32 1598.33 1875.88 Q1601.29 1872.42 1601.29 1866.69 L1601.29 1865.38 L1595.46 1865.38 M1607.14 1862.96 L1607.14 1883.3 L1601.29 1883.3 L1601.29 1877.89 Q1599.28 1881.14 1596.29 1882.7 Q1593.3 1884.22 1588.97 1884.22 Q1583.49 1884.22 1580.25 1881.17 Q1577.03 1878.08 1577.03 1872.92 Q1577.03 1866.91 1581.04 1863.85 Q1585.09 1860.8 1593.07 1860.8 L1601.29 1860.8 L1601.29 1860.23 Q1601.29 1856.18 1598.61 1853.99 Q1595.97 1851.76 1591.16 1851.76 Q1588.11 1851.76 1585.21 1852.49 Q1582.32 1853.22 1579.64 1854.69 L1579.64 1849.28 Q1582.86 1848.03 1585.88 1847.43 Q1588.9 1846.79 1591.77 1846.79 Q1599.5 1846.79 1603.32 1850.8 Q1607.14 1854.81 1607.14 1862.96 Z" fill="#000000" fill-rule="nonzero" fill-opacity="1" /><polyline clip-path="url(#clip860)" style="stroke:#000000; stroke-linecap:round; stroke-linejoin:round; stroke-width:4; stroke-opacity:1; fill:none" points="255.816,1734.12 255.816,127.792 "/>
<polyline clip-path="url(#clip860)" style="stroke:#000000; stroke-linecap:round; stroke-linejoin:round; stroke-width:4; stroke-opacity:1; fill:none" points="255.816,1734.12 274.714,1734.12 "/>
<polyline clip-path="url(#clip860)" style="stroke:#000000; stroke-linecap:round; stroke-linejoin:round; stroke-width:4; stroke-opacity:1; fill:none" points="255.816,1332.54 274.714,1332.54 "/>
<polyline clip-path="url(#clip860)" style="stroke:#000000; stroke-linecap:round; stroke-linejoin:round; stroke-width:4; stroke-opacity:1; fill:none" points="255.816,930.955 274.714,930.955 "/>
<polyline clip-path="url(#clip860)" style="stroke:#000000; stroke-linecap:round; stroke-linejoin:round; stroke-width:4; stroke-opacity:1; fill:none" points="255.816,529.373 274.714,529.373 "/>
<path clip-path="url(#clip860)" d="M129.154 1719.92 Q125.543 1719.92 123.714 1723.48 Q121.909 1727.02 121.909 1734.15 Q121.909 1741.26 123.714 1744.82 Q125.543 1748.36 129.154 1748.36 Q132.788 1748.36 134.594 1744.82 Q136.423 1741.26 136.423 1734.15 Q136.423 1727.02 134.594 1723.48 Q132.788 1719.92 129.154 1719.92 M129.154 1716.21 Q134.964 1716.21 138.02 1720.82 Q141.099 1725.4 141.099 1734.15 Q141.099 1742.88 138.02 1747.48 Q134.964 1752.07 129.154 1752.07 Q123.344 1752.07 120.265 1747.48 Q117.21 1742.88 117.21 1734.15 Q117.21 1725.4 120.265 1720.82 Q123.344 1716.21 129.154 1716.21 Z" fill="#000000" fill-rule="nonzero" fill-opacity="1" /><path clip-path="url(#clip860)" d="M149.316 1745.52 L154.2 1745.52 L154.2 1751.4 L149.316 1751.4 L149.316 1745.52 Z" fill="#000000" fill-rule="nonzero" fill-opacity="1" /><path clip-path="url(#clip860)" d="M174.385 1734.99 Q171.052 1734.99 169.131 1736.77 Q167.233 1738.55 167.233 1741.67 Q167.233 1744.8 169.131 1746.58 Q171.052 1748.36 174.385 1748.36 Q177.719 1748.36 179.64 1746.58 Q181.561 1744.78 181.561 1741.67 Q181.561 1738.55 179.64 1736.77 Q177.742 1734.99 174.385 1734.99 M169.71 1732.99 Q166.7 1732.25 165.01 1730.19 Q163.344 1728.13 163.344 1725.17 Q163.344 1721.03 166.284 1718.62 Q169.247 1716.21 174.385 1716.21 Q179.547 1716.21 182.487 1718.62 Q185.427 1721.03 185.427 1725.17 Q185.427 1728.13 183.737 1730.19 Q182.071 1732.25 179.084 1732.99 Q182.464 1733.78 184.339 1736.07 Q186.237 1738.36 186.237 1741.67 Q186.237 1746.7 183.159 1749.38 Q180.103 1752.07 174.385 1752.07 Q168.668 1752.07 165.589 1749.38 Q162.534 1746.7 162.534 1741.67 Q162.534 1738.36 164.432 1736.07 Q166.33 1733.78 169.71 1732.99 M167.997 1725.61 Q167.997 1728.3 169.663 1729.8 Q171.353 1731.3 174.385 1731.3 Q177.395 1731.3 179.084 1729.8 Q180.797 1728.3 180.797 1725.61 Q180.797 1722.92 179.084 1721.42 Q177.395 1719.92 174.385 1719.92 Q171.353 1719.92 169.663 1721.42 Q167.997 1722.92 167.997 1725.61 Z" fill="#000000" fill-rule="nonzero" fill-opacity="1" /><path clip-path="url(#clip860)" d="M194.594 1716.84 L212.95 1716.84 L212.95 1720.77 L198.876 1720.77 L198.876 1729.24 Q199.895 1728.9 200.913 1728.74 Q201.932 1728.55 202.95 1728.55 Q208.737 1728.55 212.117 1731.72 Q215.496 1734.89 215.496 1740.31 Q215.496 1745.89 212.024 1748.99 Q208.552 1752.07 202.233 1752.07 Q200.057 1752.07 197.788 1751.7 Q195.543 1751.33 193.135 1750.59 L193.135 1745.89 Q195.219 1747.02 197.441 1747.58 Q199.663 1748.13 202.14 1748.13 Q206.145 1748.13 208.482 1746.03 Q210.82 1743.92 210.82 1740.31 Q210.82 1736.7 208.482 1734.59 Q206.145 1732.49 202.14 1732.49 Q200.265 1732.49 198.39 1732.9 Q196.538 1733.32 194.594 1734.2 L194.594 1716.84 Z" fill="#000000" fill-rule="nonzero" fill-opacity="1" /><path clip-path="url(#clip860)" d="M128.159 1318.33 Q124.548 1318.33 122.719 1321.9 Q120.913 1325.44 120.913 1332.57 Q120.913 1339.68 122.719 1343.24 Q124.548 1346.78 128.159 1346.78 Q131.793 1346.78 133.599 1343.24 Q135.427 1339.68 135.427 1332.57 Q135.427 1325.44 133.599 1321.9 Q131.793 1318.33 128.159 1318.33 M128.159 1314.63 Q133.969 1314.63 137.025 1319.24 Q140.103 1323.82 140.103 1332.57 Q140.103 1341.3 137.025 1345.9 Q133.969 1350.49 128.159 1350.49 Q122.349 1350.49 119.27 1345.9 Q116.214 1341.3 116.214 1332.57 Q116.214 1323.82 119.27 1319.24 Q122.349 1314.63 128.159 1314.63 Z" fill="#000000" fill-rule="nonzero" fill-opacity="1" /><path clip-path="url(#clip860)" d="M148.321 1343.94 L153.205 1343.94 L153.205 1349.82 L148.321 1349.82 L148.321 1343.94 Z" fill="#000000" fill-rule="nonzero" fill-opacity="1" /><path clip-path="url(#clip860)" d="M163.529 1349.1 L163.529 1344.84 Q165.288 1345.67 167.094 1346.11 Q168.899 1346.55 170.635 1346.55 Q175.265 1346.55 177.696 1343.45 Q180.149 1340.33 180.497 1333.98 Q179.154 1335.97 177.094 1337.04 Q175.034 1338.1 172.534 1338.1 Q167.348 1338.1 164.316 1334.98 Q161.307 1331.83 161.307 1326.39 Q161.307 1321.07 164.455 1317.85 Q167.603 1314.63 172.835 1314.63 Q178.83 1314.63 181.978 1319.24 Q185.149 1323.82 185.149 1332.57 Q185.149 1340.74 181.26 1345.63 Q177.395 1350.49 170.844 1350.49 Q169.085 1350.49 167.279 1350.14 Q165.473 1349.79 163.529 1349.1 M172.835 1334.45 Q175.983 1334.45 177.811 1332.29 Q179.663 1330.14 179.663 1326.39 Q179.663 1322.66 177.811 1320.51 Q175.983 1318.33 172.835 1318.33 Q169.686 1318.33 167.835 1320.51 Q166.006 1322.66 166.006 1326.39 Q166.006 1330.14 167.835 1332.29 Q169.686 1334.45 172.835 1334.45 Z" fill="#000000" fill-rule="nonzero" fill-opacity="1" /><path clip-path="url(#clip860)" d="M203.552 1318.33 Q199.941 1318.33 198.112 1321.9 Q196.307 1325.44 196.307 1332.57 Q196.307 1339.68 198.112 1343.24 Q199.941 1346.78 203.552 1346.78 Q207.186 1346.78 208.992 1343.24 Q210.82 1339.68 210.82 1332.57 Q210.82 1325.44 208.992 1321.9 Q207.186 1318.33 203.552 1318.33 M203.552 1314.63 Q209.362 1314.63 212.418 1319.24 Q215.496 1323.82 215.496 1332.57 Q215.496 1341.3 212.418 1345.9 Q209.362 1350.49 203.552 1350.49 Q197.742 1350.49 194.663 1345.9 Q191.608 1341.3 191.608 1332.57 Q191.608 1323.82 194.663 1319.24 Q197.742 1314.63 203.552 1314.63 Z" fill="#000000" fill-rule="nonzero" fill-opacity="1" /><path clip-path="url(#clip860)" d="M129.154 916.753 Q125.543 916.753 123.714 920.318 Q121.909 923.86 121.909 930.989 Q121.909 938.096 123.714 941.661 Q125.543 945.202 129.154 945.202 Q132.788 945.202 134.594 941.661 Q136.423 938.096 136.423 930.989 Q136.423 923.86 134.594 920.318 Q132.788 916.753 129.154 916.753 M129.154 913.05 Q134.964 913.05 138.02 917.656 Q141.099 922.239 141.099 930.989 Q141.099 939.716 138.02 944.323 Q134.964 948.906 129.154 948.906 Q123.344 948.906 120.265 944.323 Q117.21 939.716 117.21 930.989 Q117.21 922.239 120.265 917.656 Q123.344 913.05 129.154 913.05 Z" fill="#000000" fill-rule="nonzero" fill-opacity="1" /><path clip-path="url(#clip860)" d="M149.316 942.355 L154.2 942.355 L154.2 948.235 L149.316 948.235 L149.316 942.355 Z" fill="#000000" fill-rule="nonzero" fill-opacity="1" /><path clip-path="url(#clip860)" d="M164.524 947.517 L164.524 943.258 Q166.284 944.091 168.089 944.531 Q169.895 944.971 171.631 944.971 Q176.26 944.971 178.691 941.869 Q181.145 938.744 181.492 932.401 Q180.149 934.392 178.089 935.457 Q176.029 936.522 173.529 936.522 Q168.344 936.522 165.311 933.397 Q162.302 930.249 162.302 924.809 Q162.302 919.485 165.45 916.267 Q168.598 913.05 173.83 913.05 Q179.825 913.05 182.973 917.656 Q186.145 922.239 186.145 930.989 Q186.145 939.161 182.256 944.045 Q178.39 948.906 171.839 948.906 Q170.08 948.906 168.274 948.559 Q166.469 948.211 164.524 947.517 M173.83 932.864 Q176.978 932.864 178.807 930.712 Q180.659 928.559 180.659 924.809 Q180.659 921.082 178.807 918.929 Q176.978 916.753 173.83 916.753 Q170.682 916.753 168.83 918.929 Q167.001 921.082 167.001 924.809 Q167.001 928.559 168.83 930.712 Q170.682 932.864 173.83 932.864 Z" fill="#000000" fill-rule="nonzero" fill-opacity="1" /><path clip-path="url(#clip860)" d="M194.594 913.675 L212.95 913.675 L212.95 917.61 L198.876 917.61 L198.876 926.082 Q199.895 925.735 200.913 925.573 Q201.932 925.387 202.95 925.387 Q208.737 925.387 212.117 928.559 Q215.496 931.73 215.496 937.147 Q215.496 942.725 212.024 945.827 Q208.552 948.906 202.233 948.906 Q200.057 948.906 197.788 948.535 Q195.543 948.165 193.135 947.424 L193.135 942.725 Q195.219 943.86 197.441 944.415 Q199.663 944.971 202.14 944.971 Q206.145 944.971 208.482 942.864 Q210.82 940.758 210.82 937.147 Q210.82 933.536 208.482 931.429 Q206.145 929.323 202.14 929.323 Q200.265 929.323 198.39 929.739 Q196.538 930.156 194.594 931.036 L194.594 913.675 Z" fill="#000000" fill-rule="nonzero" fill-opacity="1" /><path clip-path="url(#clip860)" d="M118.969 542.718 L126.608 542.718 L126.608 516.353 L118.298 518.019 L118.298 513.76 L126.562 512.093 L131.238 512.093 L131.238 542.718 L138.876 542.718 L138.876 546.653 L118.969 546.653 L118.969 542.718 Z" fill="#000000" fill-rule="nonzero" fill-opacity="1" /><path clip-path="url(#clip860)" d="M148.321 540.774 L153.205 540.774 L153.205 546.653 L148.321 546.653 L148.321 540.774 Z" fill="#000000" fill-rule="nonzero" fill-opacity="1" /><path clip-path="url(#clip860)" d="M173.39 515.172 Q169.779 515.172 167.95 518.737 Q166.145 522.278 166.145 529.408 Q166.145 536.515 167.95 540.079 Q169.779 543.621 173.39 543.621 Q177.024 543.621 178.83 540.079 Q180.659 536.515 180.659 529.408 Q180.659 522.278 178.83 518.737 Q177.024 515.172 173.39 515.172 M173.39 511.468 Q179.2 511.468 182.256 516.075 Q185.334 520.658 185.334 529.408 Q185.334 538.135 182.256 542.741 Q179.2 547.325 173.39 547.325 Q167.58 547.325 164.501 542.741 Q161.446 538.135 161.446 529.408 Q161.446 520.658 164.501 516.075 Q167.58 511.468 173.39 511.468 Z" fill="#000000" fill-rule="nonzero" fill-opacity="1" /><path clip-path="url(#clip860)" d="M203.552 515.172 Q199.941 515.172 198.112 518.737 Q196.307 522.278 196.307 529.408 Q196.307 536.515 198.112 540.079 Q199.941 543.621 203.552 543.621 Q207.186 543.621 208.992 540.079 Q210.82 536.515 210.82 529.408 Q210.82 522.278 208.992 518.737 Q207.186 515.172 203.552 515.172 M203.552 511.468 Q209.362 511.468 212.418 516.075 Q215.496 520.658 215.496 529.408 Q215.496 538.135 212.418 542.741 Q209.362 547.325 203.552 547.325 Q197.742 547.325 194.663 542.741 Q191.608 538.135 191.608 529.408 Q191.608 520.658 194.663 516.075 Q197.742 511.468 203.552 511.468 Z" fill="#000000" fill-rule="nonzero" fill-opacity="1" /><path clip-path="url(#clip860)" d="M52.0161 914.792 Q52.2738 914.792 53.2722 915.081 Q54.2705 915.371 55.8164 916.08 Q57.3623 916.756 58.7794 917.69 Q60.1642 918.624 61.1948 920.17 Q62.1932 921.684 62.1932 923.423 Q62.1932 925.742 60.6473 927.287 Q59.1014 928.833 56.7826 928.833 Q55.4944 928.833 53.723 928.157 Q42.29 923.874 38.3608 923.874 Q33.7554 923.874 33.7554 927.448 Q33.7554 929.22 34.4317 930.894 Q35.0758 932.537 35.9776 933.664 Q36.8794 934.791 38.1354 935.822 Q39.3592 936.82 40.1966 937.336 Q41.0017 937.819 41.8069 938.205 L45.0919 939.043 Q45.9936 939.236 49.5041 940.17 L55.4622 941.619 Q59.9066 942.65 60.3252 942.875 Q61.227 943.197 61.7101 943.906 Q62.1932 944.614 62.1932 945.323 Q62.1932 946.128 61.7101 946.675 Q61.227 947.223 60.3896 947.223 Q60.2608 947.223 59.7777 947.126 Q59.2947 947.03 58.6183 946.869 Q57.942 946.708 57.5555 946.643 L42.3222 942.811 Q39.5525 942.102 38.6829 941.941 Q37.7811 941.748 36.7828 941.748 Q33.7554 941.748 33.7554 943.809 Q33.7554 945.484 35.7522 946.579 Q37.7489 947.674 41.6136 948.608 Q42.6764 948.898 42.9019 949.091 Q43.1273 949.252 43.1273 949.735 Q43.0951 950.54 42.451 950.54 Q42.29 950.54 41.2272 950.282 Q40.1644 950.025 38.6507 949.542 Q37.1048 949.026 36.0742 948.543 Q35.3013 948.125 34.947 947.899 Q34.5605 947.642 33.8198 947.03 Q33.0469 946.385 32.6926 945.548 Q32.3061 944.679 32.3061 943.616 Q32.3061 941.233 33.852 939.493 Q35.3657 937.754 38.0388 937.529 Q32.3061 933.245 32.3061 927.255 Q32.3061 923.713 34.1741 921.684 Q36.042 919.655 39.3592 919.655 Q40.1322 919.655 41.1305 919.816 Q42.0967 919.944 43.3205 920.267 Q44.5444 920.556 45.4783 920.814 Q46.4123 921.072 47.926 921.587 Q49.4075 922.102 50.0516 922.328 Q50.6957 922.553 52.2094 923.101 Q53.6908 923.616 53.8519 923.68 Q56.847 924.872 58.5539 924.872 Q59.6811 924.872 60.1964 924.518 Q60.7117 924.131 60.7117 923.294 Q60.7117 921.039 58.4895 919.365 Q56.2351 917.658 52.5636 916.563 Q51.7585 916.305 51.5652 916.176 Q51.372 916.015 51.372 915.564 Q51.372 914.792 52.0161 914.792 Z" fill="#000000" fill-rule="nonzero" fill-opacity="1" /><path clip-path="url(#clip860)" d="M806.218 16.7545 L806.218 25.383 Q802.086 21.5346 797.387 19.6307 Q792.728 17.7268 787.462 17.7268 Q777.092 17.7268 771.583 24.0867 Q766.073 30.4061 766.073 42.3968 Q766.073 54.3469 771.583 60.7069 Q777.092 67.0263 787.462 67.0263 Q792.728 67.0263 797.387 65.1223 Q802.086 63.2184 806.218 59.3701 L806.218 67.9175 Q801.924 70.8341 797.103 72.2924 Q792.323 73.7508 786.976 73.7508 Q773.243 73.7508 765.344 65.3654 Q757.445 56.9395 757.445 42.3968 Q757.445 27.8135 765.344 19.4281 Q773.243 11.0023 786.976 11.0023 Q792.404 11.0023 797.184 12.4606 Q802.005 13.8784 806.218 16.7545 Z" fill="#000000" fill-rule="nonzero" fill-opacity="1" /><path clip-path="url(#clip860)" d="M836.113 32.4315 Q830.118 32.4315 826.634 37.1306 Q823.151 41.7891 823.151 49.9314 Q823.151 58.0738 826.594 62.7728 Q830.078 67.4314 836.113 67.4314 Q842.068 67.4314 845.552 62.7323 Q849.036 58.0333 849.036 49.9314 Q849.036 41.8701 845.552 37.1711 Q842.068 32.4315 836.113 32.4315 M836.113 26.1121 Q845.836 26.1121 851.385 32.4315 Q856.935 38.7509 856.935 49.9314 Q856.935 61.0714 851.385 67.4314 Q845.836 73.7508 836.113 73.7508 Q826.351 73.7508 820.801 67.4314 Q815.292 61.0714 815.292 49.9314 Q815.292 38.7509 820.801 32.4315 Q826.351 26.1121 836.113 26.1121 Z" fill="#000000" fill-rule="nonzero" fill-opacity="1" /><path clip-path="url(#clip860)" d="M904.614 35.9153 Q907.409 30.8922 911.298 28.5022 Q915.187 26.1121 920.453 26.1121 Q927.542 26.1121 931.391 31.0947 Q935.239 36.0368 935.239 45.1919 L935.239 72.576 L927.745 72.576 L927.745 45.4349 Q927.745 38.913 925.436 35.7533 Q923.127 32.5936 918.387 32.5936 Q912.595 32.5936 909.232 36.4419 Q905.87 40.2903 905.87 46.9338 L905.87 72.576 L898.376 72.576 L898.376 45.4349 Q898.376 38.8725 896.067 35.7533 Q893.758 32.5936 888.937 32.5936 Q883.225 32.5936 879.863 36.4824 Q876.501 40.3308 876.501 46.9338 L876.501 72.576 L869.007 72.576 L869.007 27.2059 L876.501 27.2059 L876.501 34.2544 Q879.053 30.082 882.618 28.0971 Q886.183 26.1121 891.084 26.1121 Q896.026 26.1121 899.47 28.6237 Q902.953 31.1352 904.614 35.9153 Z" fill="#000000" fill-rule="nonzero" fill-opacity="1" /><path clip-path="url(#clip860)" d="M957.317 65.7705 L957.317 89.8329 L949.822 89.8329 L949.822 27.2059 L957.317 27.2059 L957.317 34.0924 Q959.666 30.0415 963.231 28.0971 Q966.836 26.1121 971.819 26.1121 Q980.083 26.1121 985.227 32.6746 Q990.412 39.2371 990.412 49.9314 Q990.412 60.6258 985.227 67.1883 Q980.083 73.7508 971.819 73.7508 Q966.836 73.7508 963.231 71.8063 Q959.666 69.8214 957.317 65.7705 M982.675 49.9314 Q982.675 41.7081 979.272 37.0496 Q975.91 32.3505 969.996 32.3505 Q964.082 32.3505 960.679 37.0496 Q957.317 41.7081 957.317 49.9314 Q957.317 58.1548 960.679 62.8538 Q964.082 67.5124 969.996 67.5124 Q975.91 67.5124 979.272 62.8538 Q982.675 58.1548 982.675 49.9314 Z" fill="#000000" fill-rule="nonzero" fill-opacity="1" /><path clip-path="url(#clip860)" d="M1023.39 49.7694 Q1014.35 49.7694 1010.87 51.8354 Q1007.39 53.9013 1007.39 58.8839 Q1007.39 62.8538 1009.98 65.2034 Q1012.61 67.5124 1017.11 67.5124 Q1023.31 67.5124 1027.03 63.1374 Q1030.8 58.7219 1030.8 51.4303 L1030.8 49.7694 L1023.39 49.7694 M1038.25 46.6907 L1038.25 72.576 L1030.8 72.576 L1030.8 65.6895 Q1028.25 69.8214 1024.44 71.8063 Q1020.63 73.7508 1015.12 73.7508 Q1008.16 73.7508 1004.02 69.8619 Q999.932 65.9325 999.932 59.3701 Q999.932 51.7138 1005.04 47.825 Q1010.18 43.9361 1020.35 43.9361 L1030.8 43.9361 L1030.8 43.2069 Q1030.8 38.0623 1027.4 35.2672 Q1024.03 32.4315 1017.92 32.4315 Q1014.03 32.4315 1010.34 33.3632 Q1006.66 34.295 1003.25 36.1584 L1003.25 29.2718 Q1007.35 27.692 1011.19 26.9223 Q1015.04 26.1121 1018.69 26.1121 Q1028.53 26.1121 1033.39 31.2163 Q1038.25 36.3204 1038.25 46.6907 Z" fill="#000000" fill-rule="nonzero" fill-opacity="1" /><path clip-path="url(#clip860)" d="M1079.9 34.1734 Q1078.64 33.4443 1077.14 33.1202 Q1075.68 32.7556 1073.9 32.7556 Q1067.58 32.7556 1064.18 36.8875 Q1060.82 40.9789 1060.82 48.6757 L1060.82 72.576 L1053.32 72.576 L1053.32 27.2059 L1060.82 27.2059 L1060.82 34.2544 Q1063.17 30.1225 1066.93 28.1376 Q1070.7 26.1121 1076.09 26.1121 Q1076.86 26.1121 1077.79 26.2337 Q1078.72 26.3147 1079.86 26.5172 L1079.9 34.1734 Z" fill="#000000" fill-rule="nonzero" fill-opacity="1" /><path clip-path="url(#clip860)" d="M1108.33 49.7694 Q1099.3 49.7694 1095.82 51.8354 Q1092.33 53.9013 1092.33 58.8839 Q1092.33 62.8538 1094.93 65.2034 Q1097.56 67.5124 1102.06 67.5124 Q1108.25 67.5124 1111.98 63.1374 Q1115.75 58.7219 1115.75 51.4303 L1115.75 49.7694 L1108.33 49.7694 M1123.2 46.6907 L1123.2 72.576 L1115.75 72.576 L1115.75 65.6895 Q1113.2 69.8214 1109.39 71.8063 Q1105.58 73.7508 1100.07 73.7508 Q1093.1 73.7508 1088.97 69.8619 Q1084.88 65.9325 1084.88 59.3701 Q1084.88 51.7138 1089.98 47.825 Q1095.13 43.9361 1105.3 43.9361 L1115.75 43.9361 L1115.75 43.2069 Q1115.75 38.0623 1112.34 35.2672 Q1108.98 32.4315 1102.87 32.4315 Q1098.98 32.4315 1095.29 33.3632 Q1091.6 34.295 1088.2 36.1584 L1088.2 29.2718 Q1092.29 27.692 1096.14 26.9223 Q1099.99 26.1121 1103.64 26.1121 Q1113.48 26.1121 1118.34 31.2163 Q1123.2 36.3204 1123.2 46.6907 Z" fill="#000000" fill-rule="nonzero" fill-opacity="1" /><path clip-path="url(#clip860)" d="M1171.2 28.9478 L1171.2 35.9153 Q1168.04 34.1734 1164.84 33.3227 Q1161.68 32.4315 1158.44 32.4315 Q1151.19 32.4315 1147.18 37.0496 Q1143.17 41.6271 1143.17 49.9314 Q1143.17 58.2358 1147.18 62.8538 Q1151.19 67.4314 1158.44 67.4314 Q1161.68 67.4314 1164.84 66.5807 Q1168.04 65.6895 1171.2 63.9476 L1171.2 70.8341 Q1168.09 72.2924 1164.72 73.0216 Q1161.4 73.7508 1157.63 73.7508 Q1147.38 73.7508 1141.35 67.3098 Q1135.31 60.8689 1135.31 49.9314 Q1135.31 38.832 1141.39 32.472 Q1147.51 26.1121 1158.12 26.1121 Q1161.56 26.1121 1164.84 26.8413 Q1168.13 27.5299 1171.2 28.9478 M1160.67 72.576 Q1162.9 75.0876 1163.99 77.194 Q1165.09 79.341 1165.09 81.2854 Q1165.09 84.8907 1162.66 86.7137 Q1160.23 88.5771 1155.45 88.5771 Q1153.58 88.5771 1151.8 88.334 Q1150.06 88.091 1148.32 87.6049 L1148.32 82.2982 Q1149.69 82.9868 1151.19 83.2704 Q1152.69 83.5945 1154.6 83.5945 Q1156.99 83.5945 1158.2 82.6222 Q1159.42 81.65 1159.42 79.7866 Q1159.42 78.5713 1158.52 76.7889 Q1157.67 75.0471 1155.85 72.576 L1160.67 72.576 Z" fill="#000000" fill-rule="nonzero" fill-opacity="1" /><path clip-path="url(#clip860)" d="M1204.79 49.7694 Q1195.75 49.7694 1192.27 51.8354 Q1188.79 53.9013 1188.79 58.8839 Q1188.79 62.8538 1191.38 65.2034 Q1194.01 67.5124 1198.51 67.5124 Q1204.71 67.5124 1208.43 63.1374 Q1212.2 58.7219 1212.2 51.4303 L1212.2 49.7694 L1204.79 49.7694 M1219.65 46.6907 L1219.65 72.576 L1212.2 72.576 L1212.2 65.6895 Q1209.65 69.8214 1205.84 71.8063 Q1202.03 73.7508 1196.52 73.7508 Q1189.55 73.7508 1185.42 69.8619 Q1181.33 65.9325 1181.33 59.3701 Q1181.33 51.7138 1186.44 47.825 Q1191.58 43.9361 1201.75 43.9361 L1212.2 43.9361 L1212.2 43.2069 Q1212.2 38.0623 1208.8 35.2672 Q1205.43 32.4315 1199.32 32.4315 Q1195.43 32.4315 1191.74 33.3632 Q1188.06 34.295 1184.65 36.1584 L1184.65 29.2718 Q1188.74 27.692 1192.59 26.9223 Q1196.44 26.1121 1200.09 26.1121 Q1209.93 26.1121 1214.79 31.2163 Q1219.65 36.3204 1219.65 46.6907 M1200.25 17.0786 L1197.94 14.8506 Q1197.05 14.0404 1196.36 13.6759 Q1195.71 13.2708 1195.19 13.2708 Q1193.65 13.2708 1192.92 14.7696 Q1192.19 16.2279 1192.11 19.5497 L1187.04 19.5497 Q1187.12 14.0809 1189.19 11.1238 Q1191.26 8.12611 1194.94 8.12611 Q1196.48 8.12611 1197.78 8.69324 Q1199.07 9.26037 1200.57 10.5972 L1202.88 12.8252 Q1203.77 13.6353 1204.42 14.0404 Q1205.11 14.405 1205.64 14.405 Q1207.18 14.405 1207.91 12.9467 Q1208.63 11.4479 1208.72 8.12611 L1213.78 8.12611 Q1213.7 13.5948 1211.63 16.5925 Q1209.57 19.5497 1205.88 19.5497 Q1204.34 19.5497 1203.04 18.9825 Q1201.75 18.4154 1200.25 17.0786 Z" fill="#000000" fill-rule="nonzero" fill-opacity="1" /><path clip-path="url(#clip860)" d="M1252.59 32.4315 Q1246.59 32.4315 1243.11 37.1306 Q1239.62 41.7891 1239.62 49.9314 Q1239.62 58.0738 1243.07 62.7728 Q1246.55 67.4314 1252.59 67.4314 Q1258.54 67.4314 1262.03 62.7323 Q1265.51 58.0333 1265.51 49.9314 Q1265.51 41.8701 1262.03 37.1711 Q1258.54 32.4315 1252.59 32.4315 M1252.59 26.1121 Q1262.31 26.1121 1267.86 32.4315 Q1273.41 38.7509 1273.41 49.9314 Q1273.41 61.0714 1267.86 67.4314 Q1262.31 73.7508 1252.59 73.7508 Q1242.82 73.7508 1237.27 67.4314 Q1231.77 61.0714 1231.77 49.9314 Q1231.77 38.7509 1237.27 32.4315 Q1242.82 26.1121 1252.59 26.1121 Z" fill="#000000" fill-rule="nonzero" fill-opacity="1" /><path clip-path="url(#clip860)" d="M1350.94 48.0275 L1350.94 51.6733 L1316.67 51.6733 Q1317.16 59.3701 1321.29 63.421 Q1325.46 67.4314 1332.88 67.4314 Q1337.17 67.4314 1341.18 66.3781 Q1345.23 65.3249 1349.2 63.2184 L1349.2 70.267 Q1345.19 71.9684 1340.98 72.8596 Q1336.76 73.7508 1332.43 73.7508 Q1321.57 73.7508 1315.21 67.4314 Q1308.89 61.1119 1308.89 50.3365 Q1308.89 39.1965 1314.89 32.6746 Q1320.93 26.1121 1331.13 26.1121 Q1340.29 26.1121 1345.6 32.0264 Q1350.94 37.9003 1350.94 48.0275 M1343.49 45.84 Q1343.41 39.7232 1340.05 36.0774 Q1336.72 32.4315 1331.21 32.4315 Q1324.98 32.4315 1321.21 35.9558 Q1317.48 39.4801 1316.92 45.8805 L1343.49 45.84 Z" fill="#000000" fill-rule="nonzero" fill-opacity="1" /><path clip-path="url(#clip860)" d="M1400.89 45.1919 L1400.89 72.576 L1393.44 72.576 L1393.44 45.4349 Q1393.44 38.994 1390.93 35.7938 Q1388.41 32.5936 1383.39 32.5936 Q1377.35 32.5936 1373.87 36.4419 Q1370.39 40.2903 1370.39 46.9338 L1370.39 72.576 L1362.89 72.576 L1362.89 27.2059 L1370.39 27.2059 L1370.39 34.2544 Q1373.06 30.163 1376.67 28.1376 Q1380.31 26.1121 1385.05 26.1121 Q1392.87 26.1121 1396.88 30.9732 Q1400.89 35.7938 1400.89 45.1919 Z" fill="#000000" fill-rule="nonzero" fill-opacity="1" /><path clip-path="url(#clip860)" d="M1423.13 14.324 L1423.13 27.2059 L1438.48 27.2059 L1438.48 32.9987 L1423.13 32.9987 L1423.13 57.6282 Q1423.13 63.1779 1424.63 64.7578 Q1426.17 66.3376 1430.83 66.3376 L1438.48 66.3376 L1438.48 72.576 L1430.83 72.576 Q1422.2 72.576 1418.92 69.3758 Q1415.64 66.1351 1415.64 57.6282 L1415.64 32.9987 L1410.17 32.9987 L1410.17 27.2059 L1415.64 27.2059 L1415.64 14.324 L1423.13 14.324 Z" fill="#000000" fill-rule="nonzero" fill-opacity="1" /><path clip-path="url(#clip860)" d="M1474.58 34.1734 Q1473.32 33.4443 1471.82 33.1202 Q1470.36 32.7556 1468.58 32.7556 Q1462.26 32.7556 1458.86 36.8875 Q1455.5 40.9789 1455.5 48.6757 L1455.5 72.576 L1448 72.576 L1448 27.2059 L1455.5 27.2059 L1455.5 34.2544 Q1457.85 30.1225 1461.61 28.1376 Q1465.38 26.1121 1470.77 26.1121 Q1471.54 26.1121 1472.47 26.2337 Q1473.4 26.3147 1474.54 26.5172 L1474.58 34.1734 Z" fill="#000000" fill-rule="nonzero" fill-opacity="1" /><path clip-path="url(#clip860)" d="M1519.38 48.0275 L1519.38 51.6733 L1485.11 51.6733 Q1485.59 59.3701 1489.73 63.421 Q1493.9 67.4314 1501.31 67.4314 Q1505.61 67.4314 1509.62 66.3781 Q1513.67 65.3249 1517.64 63.2184 L1517.64 70.267 Q1513.63 71.9684 1509.41 72.8596 Q1505.2 73.7508 1500.87 73.7508 Q1490.01 73.7508 1483.65 67.4314 Q1477.33 61.1119 1477.33 50.3365 Q1477.33 39.1965 1483.33 32.6746 Q1489.36 26.1121 1499.57 26.1121 Q1508.73 26.1121 1514.03 32.0264 Q1519.38 37.9003 1519.38 48.0275 M1511.93 45.84 Q1511.84 39.7232 1508.48 36.0774 Q1505.16 32.4315 1499.65 32.4315 Q1493.41 32.4315 1489.65 35.9558 Q1485.92 39.4801 1485.35 45.8805 L1511.93 45.84 Z" fill="#000000" fill-rule="nonzero" fill-opacity="1" /><path clip-path="url(#clip860)" d="M1558.31 12.096 L1566.49 12.096 L1566.49 72.576 L1558.31 72.576 L1558.31 12.096 Z" fill="#000000" fill-rule="nonzero" fill-opacity="1" /><path clip-path="url(#clip860)" d="M1628.07 16.7545 L1628.07 25.383 Q1623.93 21.5346 1619.23 19.6307 Q1614.58 17.7268 1609.31 17.7268 Q1598.94 17.7268 1593.43 24.0867 Q1587.92 30.4061 1587.92 42.3968 Q1587.92 54.3469 1593.43 60.7069 Q1598.94 67.0263 1609.31 67.0263 Q1614.58 67.0263 1619.23 65.1223 Q1623.93 63.2184 1628.07 59.3701 L1628.07 67.9175 Q1623.77 70.8341 1618.95 72.2924 Q1614.17 73.7508 1608.82 73.7508 Q1595.09 73.7508 1587.19 65.3654 Q1579.29 56.9395 1579.29 42.3968 Q1579.29 27.8135 1587.19 19.4281 Q1595.09 11.0023 1608.82 11.0023 Q1614.25 11.0023 1619.03 12.4606 Q1623.85 13.8784 1628.07 16.7545 Z" fill="#000000" fill-rule="nonzero" fill-opacity="1" /><path clip-path="url(#clip860)" d="M1669.3 28.5427 L1669.3 35.5912 Q1666.14 33.9709 1662.74 33.1607 Q1659.34 32.3505 1655.69 32.3505 Q1650.14 32.3505 1647.35 34.0519 Q1644.59 35.7533 1644.59 39.156 Q1644.59 41.7486 1646.58 43.2475 Q1648.56 44.7058 1654.56 46.0426 L1657.11 46.6097 Q1665.05 48.3111 1668.37 51.4303 Q1671.73 54.509 1671.73 60.0587 Q1671.73 66.3781 1666.71 70.0644 Q1661.73 73.7508 1652.98 73.7508 Q1649.33 73.7508 1645.36 73.0216 Q1641.43 72.3329 1637.06 70.9151 L1637.06 63.2184 Q1641.19 65.3654 1645.2 66.4591 Q1649.21 67.5124 1653.14 67.5124 Q1658.41 67.5124 1661.24 65.73 Q1664.08 63.9071 1664.08 60.6258 Q1664.08 57.5877 1662.01 55.9673 Q1659.99 54.3469 1653.06 52.8481 L1650.47 52.2405 Q1643.54 50.7821 1640.46 47.7845 Q1637.38 44.7463 1637.38 39.4801 Q1637.38 33.0797 1641.92 29.5959 Q1646.46 26.1121 1654.8 26.1121 Q1658.93 26.1121 1662.58 26.7198 Q1666.22 27.3274 1669.3 28.5427 Z" fill="#000000" fill-rule="nonzero" fill-opacity="1" /><path clip-path="url(#clip860)" d="M1685.51 62.2867 L1694.05 62.2867 L1694.05 72.576 L1685.51 72.576 L1685.51 62.2867 M1685.51 29.6769 L1694.05 29.6769 L1694.05 39.9662 L1685.51 39.9662 L1685.51 29.6769 Z" fill="#000000" fill-rule="nonzero" fill-opacity="1" /><path clip-path="url(#clip860)" d="M1783.54 16.7545 L1783.54 25.383 Q1779.41 21.5346 1774.71 19.6307 Q1770.05 17.7268 1764.78 17.7268 Q1754.41 17.7268 1748.9 24.0867 Q1743.39 30.4061 1743.39 42.3968 Q1743.39 54.3469 1748.9 60.7069 Q1754.41 67.0263 1764.78 67.0263 Q1770.05 67.0263 1774.71 65.1223 Q1779.41 63.2184 1783.54 59.3701 L1783.54 67.9175 Q1779.24 70.8341 1774.42 72.2924 Q1769.64 73.7508 1764.3 73.7508 Q1750.56 73.7508 1742.67 65.3654 Q1734.77 56.9395 1734.77 42.3968 Q1734.77 27.8135 1742.67 19.4281 Q1750.56 11.0023 1764.3 11.0023 Q1769.73 11.0023 1774.51 12.4606 Q1779.33 13.8784 1783.54 16.7545 Z" fill="#000000" fill-rule="nonzero" fill-opacity="1" /><path clip-path="url(#clip860)" d="M1813.43 32.4315 Q1807.44 32.4315 1803.96 37.1306 Q1800.47 41.7891 1800.47 49.9314 Q1800.47 58.0738 1803.91 62.7728 Q1807.4 67.4314 1813.43 67.4314 Q1819.39 67.4314 1822.87 62.7323 Q1826.36 58.0333 1826.36 49.9314 Q1826.36 41.8701 1822.87 37.1711 Q1819.39 32.4315 1813.43 32.4315 M1813.43 26.1121 Q1823.16 26.1121 1828.71 32.4315 Q1834.26 38.7509 1834.26 49.9314 Q1834.26 61.0714 1828.71 67.4314 Q1823.16 73.7508 1813.43 73.7508 Q1803.67 73.7508 1798.12 67.4314 Q1792.61 61.0714 1792.61 49.9314 Q1792.61 38.7509 1798.12 32.4315 Q1803.67 26.1121 1813.43 26.1121 Z" fill="#000000" fill-rule="nonzero" fill-opacity="1" /><path clip-path="url(#clip860)" d="M1879.18 49.9314 Q1879.18 41.7081 1875.78 37.0496 Q1872.42 32.3505 1866.5 32.3505 Q1860.59 32.3505 1857.18 37.0496 Q1853.82 41.7081 1853.82 49.9314 Q1853.82 58.1548 1857.18 62.8538 Q1860.59 67.5124 1866.5 67.5124 Q1872.42 67.5124 1875.78 62.8538 Q1879.18 58.1548 1879.18 49.9314 M1853.82 34.0924 Q1856.17 30.0415 1859.74 28.0971 Q1863.34 26.1121 1868.32 26.1121 Q1876.59 26.1121 1881.73 32.6746 Q1886.92 39.2371 1886.92 49.9314 Q1886.92 60.6258 1881.73 67.1883 Q1876.59 73.7508 1868.32 73.7508 Q1863.34 73.7508 1859.74 71.8063 Q1856.17 69.8214 1853.82 65.7705 L1853.82 72.576 L1846.33 72.576 L1846.33 9.54393 L1853.82 9.54393 L1853.82 34.0924 Z" fill="#000000" fill-rule="nonzero" fill-opacity="1" /><path clip-path="url(#clip860)" d="M1938.08 48.0275 L1938.08 51.6733 L1903.81 51.6733 Q1904.3 59.3701 1908.43 63.421 Q1912.6 67.4314 1920.01 67.4314 Q1924.31 67.4314 1928.32 66.3781 Q1932.37 65.3249 1936.34 63.2184 L1936.34 70.267 Q1932.33 71.9684 1928.12 72.8596 Q1923.9 73.7508 1919.57 73.7508 Q1908.71 73.7508 1902.35 67.4314 Q1896.03 61.1119 1896.03 50.3365 Q1896.03 39.1965 1902.03 32.6746 Q1908.06 26.1121 1918.27 26.1121 Q1927.43 26.1121 1932.73 32.0264 Q1938.08 37.9003 1938.08 48.0275 M1930.63 45.84 Q1930.55 39.7232 1927.18 36.0774 Q1923.86 32.4315 1918.35 32.4315 Q1912.11 32.4315 1908.35 35.9558 Q1904.62 39.4801 1904.05 45.8805 L1930.63 45.84 Z" fill="#000000" fill-rule="nonzero" fill-opacity="1" /><path clip-path="url(#clip860)" d="M1976.61 34.1734 Q1975.35 33.4443 1973.85 33.1202 Q1972.39 32.7556 1970.61 32.7556 Q1964.29 32.7556 1960.89 36.8875 Q1957.53 40.9789 1957.53 48.6757 L1957.53 72.576 L1950.03 72.576 L1950.03 27.2059 L1957.53 27.2059 L1957.53 34.2544 Q1959.87 30.1225 1963.64 28.1376 Q1967.41 26.1121 1972.8 26.1121 Q1973.57 26.1121 1974.5 26.2337 Q1975.43 26.3147 1976.56 26.5172 L1976.61 34.1734 Z" fill="#000000" fill-rule="nonzero" fill-opacity="1" /><path clip-path="url(#clip860)" d="M1991.8 14.324 L1991.8 27.2059 L2007.15 27.2059 L2007.15 32.9987 L1991.8 32.9987 L1991.8 57.6282 Q1991.8 63.1779 1993.29 64.7578 Q1994.83 66.3376 1999.49 66.3376 L2007.15 66.3376 L2007.15 72.576 L1999.49 72.576 Q1990.86 72.576 1987.58 69.3758 Q1984.3 66.1351 1984.3 57.6282 L1984.3 32.9987 L1978.83 32.9987 L1978.83 27.2059 L1984.3 27.2059 L1984.3 14.324 L1991.8 14.324 Z" fill="#000000" fill-rule="nonzero" fill-opacity="1" /><path clip-path="url(#clip860)" d="M2016.18 54.671 L2016.18 27.2059 L2023.64 27.2059 L2023.64 54.3874 Q2023.64 60.8284 2026.15 64.0691 Q2028.66 67.2693 2033.68 67.2693 Q2039.72 67.2693 2043.2 63.421 Q2046.73 59.5726 2046.73 52.9291 L2046.73 27.2059 L2054.18 27.2059 L2054.18 72.576 L2046.73 72.576 L2046.73 65.6084 Q2044.01 69.7404 2040.41 71.7658 Q2036.84 73.7508 2032.1 73.7508 Q2024.28 73.7508 2020.23 68.8897 Q2016.18 64.0286 2016.18 54.671 M2034.94 26.1121 L2034.94 26.1121 Z" fill="#000000" fill-rule="nonzero" fill-opacity="1" /><path clip-path="url(#clip860)" d="M2095.82 34.1734 Q2094.57 33.4443 2093.07 33.1202 Q2091.61 32.7556 2089.83 32.7556 Q2083.51 32.7556 2080.11 36.8875 Q2076.74 40.9789 2076.74 48.6757 L2076.74 72.576 L2069.25 72.576 L2069.25 27.2059 L2076.74 27.2059 L2076.74 34.2544 Q2079.09 30.1225 2082.86 28.1376 Q2086.63 26.1121 2092.02 26.1121 Q2092.78 26.1121 2093.72 26.2337 Q2094.65 26.3147 2095.78 26.5172 L2095.82 34.1734 Z" fill="#000000" fill-rule="nonzero" fill-opacity="1" /><path clip-path="url(#clip860)" d="M2124.26 49.7694 Q2115.23 49.7694 2111.74 51.8354 Q2108.26 53.9013 2108.26 58.8839 Q2108.26 62.8538 2110.85 65.2034 Q2113.49 67.5124 2117.98 67.5124 Q2124.18 67.5124 2127.91 63.1374 Q2131.67 58.7219 2131.67 51.4303 L2131.67 49.7694 L2124.26 49.7694 M2139.13 46.6907 L2139.13 72.576 L2131.67 72.576 L2131.67 65.6895 Q2129.12 69.8214 2125.31 71.8063 Q2121.51 73.7508 2116 73.7508 Q2109.03 73.7508 2104.9 69.8619 Q2100.81 65.9325 2100.81 59.3701 Q2100.81 51.7138 2105.91 47.825 Q2111.05 43.9361 2121.22 43.9361 L2131.67 43.9361 L2131.67 43.2069 Q2131.67 38.0623 2128.27 35.2672 Q2124.91 32.4315 2118.79 32.4315 Q2114.9 32.4315 2111.22 33.3632 Q2107.53 34.295 2104.13 36.1584 L2104.13 29.2718 Q2108.22 27.692 2112.07 26.9223 Q2115.92 26.1121 2119.56 26.1121 Q2129.41 26.1121 2134.27 31.2163 Q2139.13 36.3204 2139.13 46.6907 Z" fill="#000000" fill-rule="nonzero" fill-opacity="1" /><circle clip-path="url(#clip862)" cx="323.315" cy="935.051" r="14.4" fill="#0000ff" fill-rule="evenodd" fill-opacity="1" stroke="#000000" stroke-opacity="1" stroke-width="3.84"/>
<circle clip-path="url(#clip862)" cx="573.308" cy="934.81" r="14.4" fill="#0000ff" fill-rule="evenodd" fill-opacity="1" stroke="#000000" stroke-opacity="1" stroke-width="3.84"/>
<circle clip-path="url(#clip862)" cx="823.302" cy="935.693" r="14.4" fill="#0000ff" fill-rule="evenodd" fill-opacity="1" stroke="#000000" stroke-opacity="1" stroke-width="3.84"/>
<circle clip-path="url(#clip862)" cx="1073.3" cy="925.413" r="14.4" fill="#0000ff" fill-rule="evenodd" fill-opacity="1" stroke="#000000" stroke-opacity="1" stroke-width="3.84"/>
<circle clip-path="url(#clip862)" cx="1323.29" cy="935.051" r="14.4" fill="#0000ff" fill-rule="evenodd" fill-opacity="1" stroke="#000000" stroke-opacity="1" stroke-width="3.84"/>
<circle clip-path="url(#clip862)" cx="1573.28" cy="944.207" r="14.4" fill="#0000ff" fill-rule="evenodd" fill-opacity="1" stroke="#000000" stroke-opacity="1" stroke-width="3.84"/>
<circle clip-path="url(#clip862)" cx="1823.28" cy="928.304" r="14.4" fill="#0000ff" fill-rule="evenodd" fill-opacity="1" stroke="#000000" stroke-opacity="1" stroke-width="3.84"/>
<circle clip-path="url(#clip862)" cx="2073.27" cy="926.136" r="14.4" fill="#0000ff" fill-rule="evenodd" fill-opacity="1" stroke="#000000" stroke-opacity="1" stroke-width="3.84"/>
<circle clip-path="url(#clip862)" cx="2323.26" cy="921.076" r="14.4" fill="#0000ff" fill-rule="evenodd" fill-opacity="1" stroke="#000000" stroke-opacity="1" stroke-width="3.84"/>
<circle clip-path="url(#clip862)" cx="2573.26" cy="923.003" r="14.4" fill="#0000ff" fill-rule="evenodd" fill-opacity="1" stroke="#000000" stroke-opacity="1" stroke-width="3.84"/>
<circle clip-path="url(#clip862)" cx="323.315" cy="947.419" r="14.4" fill="#ff0000" fill-rule="evenodd" fill-opacity="1" stroke="#000000" stroke-opacity="1" stroke-width="3.84"/>
<circle clip-path="url(#clip862)" cx="573.308" cy="931.035" r="14.4" fill="#ff0000" fill-rule="evenodd" fill-opacity="1" stroke="#000000" stroke-opacity="1" stroke-width="3.84"/>
<circle clip-path="url(#clip862)" cx="823.302" cy="900.836" r="14.4" fill="#ff0000" fill-rule="evenodd" fill-opacity="1" stroke="#000000" stroke-opacity="1" stroke-width="3.84"/>
<circle clip-path="url(#clip862)" cx="1073.3" cy="879.472" r="14.4" fill="#ff0000" fill-rule="evenodd" fill-opacity="1" stroke="#000000" stroke-opacity="1" stroke-width="3.84"/>
<circle clip-path="url(#clip862)" cx="1323.29" cy="879.873" r="14.4" fill="#ff0000" fill-rule="evenodd" fill-opacity="1" stroke="#000000" stroke-opacity="1" stroke-width="3.84"/>
<circle clip-path="url(#clip862)" cx="1573.28" cy="886.7" r="14.4" fill="#ff0000" fill-rule="evenodd" fill-opacity="1" stroke="#000000" stroke-opacity="1" stroke-width="3.84"/>
<circle clip-path="url(#clip862)" cx="1823.28" cy="887.022" r="14.4" fill="#ff0000" fill-rule="evenodd" fill-opacity="1" stroke="#000000" stroke-opacity="1" stroke-width="3.84"/>
<circle clip-path="url(#clip862)" cx="2073.27" cy="880.677" r="14.4" fill="#ff0000" fill-rule="evenodd" fill-opacity="1" stroke="#000000" stroke-opacity="1" stroke-width="3.84"/>
<circle clip-path="url(#clip862)" cx="2323.26" cy="885.094" r="14.4" fill="#ff0000" fill-rule="evenodd" fill-opacity="1" stroke="#000000" stroke-opacity="1" stroke-width="3.84"/>
<circle clip-path="url(#clip862)" cx="2573.26" cy="890.234" r="14.4" fill="#ff0000" fill-rule="evenodd" fill-opacity="1" stroke="#000000" stroke-opacity="1" stroke-width="3.84"/>
<polyline clip-path="url(#clip862)" style="stroke:#3da44d; stroke-linecap:round; stroke-linejoin:round; stroke-width:4; stroke-opacity:1; fill:none" points="-2129.12,930.955 5025.7,930.955 "/>
<path clip-path="url(#clip860)" d="M1585.04 388.696 L2561.26 388.696 L2561.26 181.336 L1585.04 181.336  Z" fill="#ffffff" fill-rule="evenodd" fill-opacity="1"/>
<polyline clip-path="url(#clip860)" style="stroke:#000000; stroke-linecap:round; stroke-linejoin:round; stroke-width:4; stroke-opacity:1; fill:none" points="1585.04,388.696 2561.26,388.696 2561.26,181.336 1585.04,181.336 1585.04,388.696 "/>
<circle clip-path="url(#clip860)" cx="1691.03" cy="233.176" r="20.48" fill="#0000ff" fill-rule="evenodd" fill-opacity="1" stroke="#000000" stroke-opacity="1" stroke-width="5.46133"/>
<path clip-path="url(#clip860)" d="M1824.9 218.558 L1824.9 223.489 Q1822.54 221.29 1819.86 220.202 Q1817.19 219.114 1814.18 219.114 Q1808.26 219.114 1805.11 222.748 Q1801.96 226.359 1801.96 233.211 Q1801.96 240.04 1805.11 243.674 Q1808.26 247.285 1814.18 247.285 Q1817.19 247.285 1819.86 246.197 Q1822.54 245.109 1824.9 242.91 L1824.9 247.794 Q1822.45 249.461 1819.69 250.294 Q1816.96 251.128 1813.91 251.128 Q1806.06 251.128 1801.54 246.336 Q1797.03 241.521 1797.03 233.211 Q1797.03 224.878 1801.54 220.086 Q1806.06 215.271 1813.91 215.271 Q1817.01 215.271 1819.74 216.105 Q1822.49 216.915 1824.9 218.558 Z" fill="#000000" fill-rule="nonzero" fill-opacity="1" /><path clip-path="url(#clip860)" d="M1841.98 227.517 Q1838.56 227.517 1836.57 230.202 Q1834.58 232.864 1834.58 237.517 Q1834.58 242.169 1836.54 244.854 Q1838.54 247.516 1841.98 247.516 Q1845.39 247.516 1847.38 244.831 Q1849.37 242.146 1849.37 237.517 Q1849.37 232.91 1847.38 230.225 Q1845.39 227.517 1841.98 227.517 M1841.98 223.906 Q1847.54 223.906 1850.71 227.517 Q1853.88 231.128 1853.88 237.517 Q1853.88 243.882 1850.71 247.516 Q1847.54 251.128 1841.98 251.128 Q1836.41 251.128 1833.23 247.516 Q1830.09 243.882 1830.09 237.517 Q1830.09 231.128 1833.23 227.517 Q1836.41 223.906 1841.98 223.906 Z" fill="#000000" fill-rule="nonzero" fill-opacity="1" /><path clip-path="url(#clip860)" d="M1879.55 237.517 Q1879.55 232.817 1877.61 230.155 Q1875.69 227.47 1872.31 227.47 Q1868.93 227.47 1866.98 230.155 Q1865.06 232.817 1865.06 237.517 Q1865.06 242.216 1866.98 244.901 Q1868.93 247.563 1872.31 247.563 Q1875.69 247.563 1877.61 244.901 Q1879.55 242.216 1879.55 237.517 M1865.06 228.466 Q1866.41 226.151 1868.44 225.04 Q1870.5 223.906 1873.35 223.906 Q1878.07 223.906 1881.01 227.655 Q1883.98 231.405 1883.98 237.517 Q1883.98 243.628 1881.01 247.378 Q1878.07 251.128 1873.35 251.128 Q1870.5 251.128 1868.44 250.016 Q1866.41 248.882 1865.06 246.567 L1865.06 250.456 L1860.78 250.456 L1860.78 214.438 L1865.06 214.438 L1865.06 228.466 Z" fill="#000000" fill-rule="nonzero" fill-opacity="1" /><path clip-path="url(#clip860)" d="M1913.21 236.429 L1913.21 238.512 L1893.63 238.512 Q1893.91 242.91 1896.27 245.225 Q1898.65 247.516 1902.89 247.516 Q1905.34 247.516 1907.63 246.915 Q1909.95 246.313 1912.22 245.109 L1912.22 249.137 Q1909.92 250.109 1907.52 250.618 Q1905.11 251.128 1902.63 251.128 Q1896.43 251.128 1892.79 247.516 Q1889.18 243.905 1889.18 237.748 Q1889.18 231.382 1892.61 227.655 Q1896.06 223.906 1901.89 223.906 Q1907.12 223.906 1910.16 227.285 Q1913.21 230.642 1913.21 236.429 M1908.95 235.179 Q1908.91 231.683 1906.98 229.6 Q1905.09 227.517 1901.94 227.517 Q1898.37 227.517 1896.22 229.53 Q1894.09 231.544 1893.77 235.202 L1908.95 235.179 Z" fill="#000000" fill-rule="nonzero" fill-opacity="1" /><path clip-path="url(#clip860)" d="M1935.22 228.512 Q1934.51 228.095 1933.65 227.91 Q1932.82 227.702 1931.8 227.702 Q1928.19 227.702 1926.24 230.063 Q1924.32 232.401 1924.32 236.799 L1924.32 250.456 L1920.04 250.456 L1920.04 224.531 L1924.32 224.531 L1924.32 228.558 Q1925.66 226.197 1927.82 225.063 Q1929.97 223.906 1933.05 223.906 Q1933.49 223.906 1934.02 223.975 Q1934.55 224.021 1935.2 224.137 L1935.22 228.512 Z" fill="#000000" fill-rule="nonzero" fill-opacity="1" /><path clip-path="url(#clip860)" d="M1943.91 217.169 L1943.91 224.531 L1952.68 224.531 L1952.68 227.841 L1943.91 227.841 L1943.91 241.915 Q1943.91 245.086 1944.76 245.989 Q1945.64 246.891 1948.3 246.891 L1952.68 246.891 L1952.68 250.456 L1948.3 250.456 Q1943.37 250.456 1941.5 248.628 Q1939.62 246.776 1939.62 241.915 L1939.62 227.841 L1936.5 227.841 L1936.5 224.531 L1939.62 224.531 L1939.62 217.169 L1943.91 217.169 Z" fill="#000000" fill-rule="nonzero" fill-opacity="1" /><path clip-path="url(#clip860)" d="M1957.84 240.225 L1957.84 224.531 L1962.1 224.531 L1962.1 240.063 Q1962.1 243.743 1963.53 245.595 Q1964.97 247.424 1967.84 247.424 Q1971.29 247.424 1973.28 245.225 Q1975.29 243.026 1975.29 239.229 L1975.29 224.531 L1979.55 224.531 L1979.55 250.456 L1975.29 250.456 L1975.29 246.475 Q1973.74 248.836 1971.68 249.993 Q1969.65 251.128 1966.94 251.128 Q1962.47 251.128 1960.16 248.35 Q1957.84 245.572 1957.84 240.225 M1968.56 223.906 L1968.56 223.906 Z" fill="#000000" fill-rule="nonzero" fill-opacity="1" /><path clip-path="url(#clip860)" d="M2003.35 228.512 Q2002.63 228.095 2001.78 227.91 Q2000.94 227.702 1999.92 227.702 Q1996.31 227.702 1994.37 230.063 Q1992.45 232.401 1992.45 236.799 L1992.45 250.456 L1988.16 250.456 L1988.16 224.531 L1992.45 224.531 L1992.45 228.558 Q1993.79 226.197 1995.94 225.063 Q1998.09 223.906 2001.17 223.906 Q2001.61 223.906 2002.15 223.975 Q2002.68 224.021 2003.33 224.137 L2003.35 228.512 Z" fill="#000000" fill-rule="nonzero" fill-opacity="1" /><path clip-path="url(#clip860)" d="M2019.6 237.424 Q2014.44 237.424 2012.45 238.604 Q2010.46 239.785 2010.46 242.632 Q2010.46 244.901 2011.94 246.243 Q2013.44 247.563 2016.01 247.563 Q2019.55 247.563 2021.68 245.063 Q2023.84 242.54 2023.84 238.373 L2023.84 237.424 L2019.6 237.424 M2028.09 235.665 L2028.09 250.456 L2023.84 250.456 L2023.84 246.521 Q2022.38 248.882 2020.2 250.016 Q2018.03 251.128 2014.88 251.128 Q2010.9 251.128 2008.53 248.905 Q2006.2 246.66 2006.2 242.91 Q2006.2 238.535 2009.11 236.313 Q2012.05 234.091 2017.86 234.091 L2023.84 234.091 L2023.84 233.674 Q2023.84 230.734 2021.89 229.137 Q2019.97 227.517 2016.47 227.517 Q2014.25 227.517 2012.15 228.049 Q2010.04 228.581 2008.09 229.646 L2008.09 225.711 Q2010.43 224.808 2012.63 224.368 Q2014.83 223.906 2016.91 223.906 Q2022.54 223.906 2025.32 226.822 Q2028.09 229.739 2028.09 235.665 Z" fill="#000000" fill-rule="nonzero" fill-opacity="1" /><path clip-path="url(#clip860)" d="M2069 228.466 L2069 214.438 L2073.26 214.438 L2073.26 250.456 L2069 250.456 L2069 246.567 Q2067.65 248.882 2065.59 250.016 Q2063.56 251.128 2060.69 251.128 Q2055.99 251.128 2053.03 247.378 Q2050.09 243.628 2050.09 237.517 Q2050.09 231.405 2053.03 227.655 Q2055.99 223.906 2060.69 223.906 Q2063.56 223.906 2065.59 225.04 Q2067.65 226.151 2069 228.466 M2054.48 237.517 Q2054.48 242.216 2056.4 244.901 Q2058.35 247.563 2061.73 247.563 Q2065.11 247.563 2067.05 244.901 Q2069 242.216 2069 237.517 Q2069 232.817 2067.05 230.155 Q2065.11 227.47 2061.73 227.47 Q2058.35 227.47 2056.4 230.155 Q2054.48 232.817 2054.48 237.517 Z" fill="#000000" fill-rule="nonzero" fill-opacity="1" /><path clip-path="url(#clip860)" d="M2092.08 227.517 Q2088.65 227.517 2086.66 230.202 Q2084.67 232.864 2084.67 237.517 Q2084.67 242.169 2086.64 244.854 Q2088.63 247.516 2092.08 247.516 Q2095.48 247.516 2097.47 244.831 Q2099.46 242.146 2099.46 237.517 Q2099.46 232.91 2097.47 230.225 Q2095.48 227.517 2092.08 227.517 M2092.08 223.906 Q2097.63 223.906 2100.8 227.517 Q2103.97 231.128 2103.97 237.517 Q2103.97 243.882 2100.8 247.516 Q2097.63 251.128 2092.08 251.128 Q2086.5 251.128 2083.33 247.516 Q2080.18 243.882 2080.18 237.517 Q2080.18 231.128 2083.33 227.517 Q2086.5 223.906 2092.08 223.906 Z" fill="#000000" fill-rule="nonzero" fill-opacity="1" /><path clip-path="url(#clip860)" d="M2126.29 215.896 L2130.96 215.896 L2130.96 250.456 L2126.29 250.456 L2126.29 215.896 Z" fill="#000000" fill-rule="nonzero" fill-opacity="1" /><path clip-path="url(#clip860)" d="M2166.15 218.558 L2166.15 223.489 Q2163.79 221.29 2161.1 220.202 Q2158.44 219.114 2155.43 219.114 Q2149.51 219.114 2146.36 222.748 Q2143.21 226.359 2143.21 233.211 Q2143.21 240.04 2146.36 243.674 Q2149.51 247.285 2155.43 247.285 Q2158.44 247.285 2161.1 246.197 Q2163.79 245.109 2166.15 242.91 L2166.15 247.794 Q2163.7 249.461 2160.94 250.294 Q2158.21 251.128 2155.15 251.128 Q2147.31 251.128 2142.79 246.336 Q2138.28 241.521 2138.28 233.211 Q2138.28 224.878 2142.79 220.086 Q2147.31 215.271 2155.15 215.271 Q2158.26 215.271 2160.99 216.105 Q2163.74 216.915 2166.15 218.558 Z" fill="#000000" fill-rule="nonzero" fill-opacity="1" /><path clip-path="url(#clip860)" d="M2203.28 228.512 Q2202.56 228.095 2201.7 227.91 Q2200.87 227.702 2199.85 227.702 Q2196.24 227.702 2194.3 230.063 Q2192.38 232.401 2192.38 236.799 L2192.38 250.456 L2188.09 250.456 L2188.09 224.531 L2192.38 224.531 L2192.38 228.558 Q2193.72 226.197 2195.87 225.063 Q2198.02 223.906 2201.1 223.906 Q2201.54 223.906 2202.08 223.975 Q2202.61 224.021 2203.26 224.137 L2203.28 228.512 Z" fill="#000000" fill-rule="nonzero" fill-opacity="1" /><path clip-path="url(#clip860)" d="M2228.88 236.429 L2228.88 238.512 L2209.3 238.512 Q2209.58 242.91 2211.94 245.225 Q2214.32 247.516 2218.56 247.516 Q2221.01 247.516 2223.3 246.915 Q2225.62 246.313 2227.89 245.109 L2227.89 249.137 Q2225.59 250.109 2223.19 250.618 Q2220.78 251.128 2218.3 251.128 Q2212.1 251.128 2208.46 247.516 Q2204.85 243.905 2204.85 237.748 Q2204.85 231.382 2208.28 227.655 Q2211.73 223.906 2217.56 223.906 Q2222.79 223.906 2225.83 227.285 Q2228.88 230.642 2228.88 236.429 M2224.62 235.179 Q2224.58 231.683 2222.65 229.6 Q2220.76 227.517 2217.61 227.517 Q2214.04 227.517 2211.89 229.53 Q2209.76 231.544 2209.44 235.202 L2224.62 235.179 Z" fill="#000000" fill-rule="nonzero" fill-opacity="1" /><path clip-path="url(#clip860)" d="M2247.65 237.424 Q2242.49 237.424 2240.5 238.604 Q2238.51 239.785 2238.51 242.632 Q2238.51 244.901 2239.99 246.243 Q2241.5 247.563 2244.07 247.563 Q2247.61 247.563 2249.74 245.063 Q2251.89 242.54 2251.89 238.373 L2251.89 237.424 L2247.65 237.424 M2256.15 235.665 L2256.15 250.456 L2251.89 250.456 L2251.89 246.521 Q2250.43 248.882 2248.26 250.016 Q2246.08 251.128 2242.93 251.128 Q2238.95 251.128 2236.59 248.905 Q2234.25 246.66 2234.25 242.91 Q2234.25 238.535 2237.17 236.313 Q2240.11 234.091 2245.92 234.091 L2251.89 234.091 L2251.89 233.674 Q2251.89 230.734 2249.95 229.137 Q2248.02 227.517 2244.53 227.517 Q2242.31 227.517 2240.2 228.049 Q2238.09 228.581 2236.15 229.646 L2236.15 225.711 Q2238.49 224.808 2240.69 224.368 Q2242.89 223.906 2244.97 223.906 Q2250.59 223.906 2253.37 226.822 Q2256.15 229.739 2256.15 235.665 Z" fill="#000000" fill-rule="nonzero" fill-opacity="1" /><path clip-path="url(#clip860)" d="M2264.92 214.438 L2269.18 214.438 L2269.18 250.456 L2264.92 250.456 L2264.92 214.438 Z" fill="#000000" fill-rule="nonzero" fill-opacity="1" /><path clip-path="url(#clip860)" d="M2303.21 227.517 Q2299.78 227.517 2297.79 230.202 Q2295.8 232.864 2295.8 237.517 Q2295.8 242.169 2297.77 244.854 Q2299.76 247.516 2303.21 247.516 Q2306.61 247.516 2308.6 244.831 Q2310.59 242.146 2310.59 237.517 Q2310.59 232.91 2308.6 230.225 Q2306.61 227.517 2303.21 227.517 M2303.21 223.906 Q2308.76 223.906 2311.94 227.517 Q2315.11 231.128 2315.11 237.517 Q2315.11 243.882 2311.94 247.516 Q2308.76 251.128 2303.21 251.128 Q2297.63 251.128 2294.46 247.516 Q2291.31 243.882 2291.31 237.517 Q2291.31 231.128 2294.46 227.517 Q2297.63 223.906 2303.21 223.906 Z" fill="#000000" fill-rule="nonzero" fill-opacity="1" /><path clip-path="url(#clip860)" d="M2340.78 237.517 Q2340.78 232.817 2338.83 230.155 Q2336.91 227.47 2333.53 227.47 Q2330.15 227.47 2328.21 230.155 Q2326.29 232.817 2326.29 237.517 Q2326.29 242.216 2328.21 244.901 Q2330.15 247.563 2333.53 247.563 Q2336.91 247.563 2338.83 244.901 Q2340.78 242.216 2340.78 237.517 M2326.29 228.466 Q2327.63 226.151 2329.67 225.04 Q2331.73 223.906 2334.57 223.906 Q2339.3 223.906 2342.24 227.655 Q2345.2 231.405 2345.2 237.517 Q2345.2 243.628 2342.24 247.378 Q2339.3 251.128 2334.57 251.128 Q2331.73 251.128 2329.67 250.016 Q2327.63 248.882 2326.29 246.567 L2326.29 250.456 L2322.01 250.456 L2322.01 214.438 L2326.29 214.438 L2326.29 228.466 Z" fill="#000000" fill-rule="nonzero" fill-opacity="1" /><path clip-path="url(#clip860)" d="M2368.79 225.294 L2368.79 229.322 Q2366.98 228.396 2365.04 227.933 Q2363.09 227.47 2361.01 227.47 Q2357.84 227.47 2356.24 228.443 Q2354.67 229.415 2354.67 231.359 Q2354.67 232.841 2355.8 233.697 Q2356.94 234.53 2360.36 235.294 L2361.82 235.618 Q2366.36 236.591 2368.25 238.373 Q2370.18 240.132 2370.18 243.304 Q2370.18 246.915 2367.31 249.021 Q2364.46 251.128 2359.46 251.128 Q2357.38 251.128 2355.11 250.711 Q2352.86 250.317 2350.36 249.507 L2350.36 245.109 Q2352.72 246.336 2355.01 246.961 Q2357.31 247.563 2359.55 247.563 Q2362.56 247.563 2364.18 246.544 Q2365.8 245.503 2365.8 243.628 Q2365.8 241.892 2364.62 240.966 Q2363.46 240.04 2359.5 239.183 L2358.02 238.836 Q2354.07 238.003 2352.31 236.29 Q2350.55 234.554 2350.55 231.544 Q2350.55 227.887 2353.14 225.896 Q2355.73 223.906 2360.5 223.906 Q2362.86 223.906 2364.94 224.253 Q2367.03 224.6 2368.79 225.294 Z" fill="#000000" fill-rule="nonzero" fill-opacity="1" /><path clip-path="url(#clip860)" d="M2399.13 236.429 L2399.13 238.512 L2379.55 238.512 Q2379.83 242.91 2382.19 245.225 Q2384.57 247.516 2388.81 247.516 Q2391.26 247.516 2393.56 246.915 Q2395.87 246.313 2398.14 245.109 L2398.14 249.137 Q2395.85 250.109 2393.44 250.618 Q2391.03 251.128 2388.56 251.128 Q2382.35 251.128 2378.72 247.516 Q2375.11 243.905 2375.11 237.748 Q2375.11 231.382 2378.53 227.655 Q2381.98 223.906 2387.81 223.906 Q2393.05 223.906 2396.08 227.285 Q2399.13 230.642 2399.13 236.429 M2394.88 235.179 Q2394.83 231.683 2392.91 229.6 Q2391.01 227.517 2387.86 227.517 Q2384.3 227.517 2382.14 229.53 Q2380.01 231.544 2379.69 235.202 L2394.88 235.179 Z" fill="#000000" fill-rule="nonzero" fill-opacity="1" /><path clip-path="url(#clip860)" d="M2421.15 228.512 Q2420.43 228.095 2419.57 227.91 Q2418.74 227.702 2417.72 227.702 Q2414.11 227.702 2412.17 230.063 Q2410.25 232.401 2410.25 236.799 L2410.25 250.456 L2405.96 250.456 L2405.96 224.531 L2410.25 224.531 L2410.25 228.558 Q2411.59 226.197 2413.74 225.063 Q2415.89 223.906 2418.97 223.906 Q2419.41 223.906 2419.94 223.975 Q2420.48 224.021 2421.12 224.137 L2421.15 228.512 Z" fill="#000000" fill-rule="nonzero" fill-opacity="1" /><path clip-path="url(#clip860)" d="M2422.56 224.531 L2427.07 224.531 L2435.18 246.29 L2443.28 224.531 L2447.79 224.531 L2438.07 250.456 L2432.28 250.456 L2422.56 224.531 Z" fill="#000000" fill-rule="nonzero" fill-opacity="1" /><path clip-path="url(#clip860)" d="M2465.45 237.424 Q2460.29 237.424 2458.3 238.604 Q2456.31 239.785 2456.31 242.632 Q2456.31 244.901 2457.79 246.243 Q2459.3 247.563 2461.87 247.563 Q2465.41 247.563 2467.54 245.063 Q2469.69 242.54 2469.69 238.373 L2469.69 237.424 L2465.45 237.424 M2473.95 235.665 L2473.95 250.456 L2469.69 250.456 L2469.69 246.521 Q2468.23 248.882 2466.06 250.016 Q2463.88 251.128 2460.73 251.128 Q2456.75 251.128 2454.39 248.905 Q2452.05 246.66 2452.05 242.91 Q2452.05 238.535 2454.97 236.313 Q2457.91 234.091 2463.72 234.091 L2469.69 234.091 L2469.69 233.674 Q2469.69 230.734 2467.75 229.137 Q2465.82 227.517 2462.33 227.517 Q2460.11 227.517 2458 228.049 Q2455.89 228.581 2453.95 229.646 L2453.95 225.711 Q2456.29 224.808 2458.49 224.368 Q2460.68 223.906 2462.77 223.906 Q2468.39 223.906 2471.17 226.822 Q2473.95 229.739 2473.95 235.665 Z" fill="#000000" fill-rule="nonzero" fill-opacity="1" /><path clip-path="url(#clip860)" d="M2499.78 228.466 L2499.78 214.438 L2504.04 214.438 L2504.04 250.456 L2499.78 250.456 L2499.78 246.567 Q2498.44 248.882 2496.38 250.016 Q2494.34 251.128 2491.47 251.128 Q2486.77 251.128 2483.81 247.378 Q2480.87 243.628 2480.87 237.517 Q2480.87 231.405 2483.81 227.655 Q2486.77 223.906 2491.47 223.906 Q2494.34 223.906 2496.38 225.04 Q2498.44 226.151 2499.78 228.466 M2485.27 237.517 Q2485.27 242.216 2487.19 244.901 Q2489.13 247.563 2492.51 247.563 Q2495.89 247.563 2497.84 244.901 Q2499.78 242.216 2499.78 237.517 Q2499.78 232.817 2497.84 230.155 Q2495.89 227.47 2492.51 227.47 Q2489.13 227.47 2487.19 230.155 Q2485.27 232.817 2485.27 237.517 Z" fill="#000000" fill-rule="nonzero" fill-opacity="1" /><path clip-path="url(#clip860)" d="M2522.86 227.517 Q2519.43 227.517 2517.44 230.202 Q2515.45 232.864 2515.45 237.517 Q2515.45 242.169 2517.42 244.854 Q2519.41 247.516 2522.86 247.516 Q2526.26 247.516 2528.25 244.831 Q2530.24 242.146 2530.24 237.517 Q2530.24 232.91 2528.25 230.225 Q2526.26 227.517 2522.86 227.517 M2522.86 223.906 Q2528.42 223.906 2531.59 227.517 Q2534.76 231.128 2534.76 237.517 Q2534.76 243.882 2531.59 247.516 Q2528.42 251.128 2522.86 251.128 Q2517.28 251.128 2514.11 247.516 Q2510.96 243.882 2510.96 237.517 Q2510.96 231.128 2514.11 227.517 Q2517.28 223.906 2522.86 223.906 Z" fill="#000000" fill-rule="nonzero" fill-opacity="1" /><circle clip-path="url(#clip860)" cx="1691.03" cy="285.016" r="20.48" fill="#ff0000" fill-rule="evenodd" fill-opacity="1" stroke="#000000" stroke-opacity="1" stroke-width="5.46133"/>
<path clip-path="url(#clip860)" d="M1824.9 270.398 L1824.9 275.329 Q1822.54 273.13 1819.86 272.042 Q1817.19 270.954 1814.18 270.954 Q1808.26 270.954 1805.11 274.588 Q1801.96 278.199 1801.96 285.051 Q1801.96 291.88 1805.11 295.514 Q1808.26 299.125 1814.18 299.125 Q1817.19 299.125 1819.86 298.037 Q1822.54 296.949 1824.9 294.75 L1824.9 299.634 Q1822.45 301.301 1819.69 302.134 Q1816.96 302.968 1813.91 302.968 Q1806.06 302.968 1801.54 298.176 Q1797.03 293.361 1797.03 285.051 Q1797.03 276.718 1801.54 271.926 Q1806.06 267.111 1813.91 267.111 Q1817.01 267.111 1819.74 267.945 Q1822.49 268.755 1824.9 270.398 Z" fill="#000000" fill-rule="nonzero" fill-opacity="1" /><path clip-path="url(#clip860)" d="M1841.98 279.357 Q1838.56 279.357 1836.57 282.042 Q1834.58 284.704 1834.58 289.357 Q1834.58 294.009 1836.54 296.694 Q1838.54 299.356 1841.98 299.356 Q1845.39 299.356 1847.38 296.671 Q1849.37 293.986 1849.37 289.357 Q1849.37 284.75 1847.38 282.065 Q1845.39 279.357 1841.98 279.357 M1841.98 275.746 Q1847.54 275.746 1850.71 279.357 Q1853.88 282.968 1853.88 289.357 Q1853.88 295.722 1850.71 299.356 Q1847.54 302.968 1841.98 302.968 Q1836.41 302.968 1833.23 299.356 Q1830.09 295.722 1830.09 289.357 Q1830.09 282.968 1833.23 279.357 Q1836.41 275.746 1841.98 275.746 Z" fill="#000000" fill-rule="nonzero" fill-opacity="1" /><path clip-path="url(#clip860)" d="M1879.55 289.357 Q1879.55 284.657 1877.61 281.995 Q1875.69 279.31 1872.31 279.31 Q1868.93 279.31 1866.98 281.995 Q1865.06 284.657 1865.06 289.357 Q1865.06 294.056 1866.98 296.741 Q1868.93 299.403 1872.31 299.403 Q1875.69 299.403 1877.61 296.741 Q1879.55 294.056 1879.55 289.357 M1865.06 280.306 Q1866.41 277.991 1868.44 276.88 Q1870.5 275.746 1873.35 275.746 Q1878.07 275.746 1881.01 279.495 Q1883.98 283.245 1883.98 289.357 Q1883.98 295.468 1881.01 299.218 Q1878.07 302.968 1873.35 302.968 Q1870.5 302.968 1868.44 301.856 Q1866.41 300.722 1865.06 298.407 L1865.06 302.296 L1860.78 302.296 L1860.78 266.278 L1865.06 266.278 L1865.06 280.306 Z" fill="#000000" fill-rule="nonzero" fill-opacity="1" /><path clip-path="url(#clip860)" d="M1913.21 288.269 L1913.21 290.352 L1893.63 290.352 Q1893.91 294.75 1896.27 297.065 Q1898.65 299.356 1902.89 299.356 Q1905.34 299.356 1907.63 298.755 Q1909.95 298.153 1912.22 296.949 L1912.22 300.977 Q1909.92 301.949 1907.52 302.458 Q1905.11 302.968 1902.63 302.968 Q1896.43 302.968 1892.79 299.356 Q1889.18 295.745 1889.18 289.588 Q1889.18 283.222 1892.61 279.495 Q1896.06 275.746 1901.89 275.746 Q1907.12 275.746 1910.16 279.125 Q1913.21 282.482 1913.21 288.269 M1908.95 287.019 Q1908.91 283.523 1906.98 281.44 Q1905.09 279.357 1901.94 279.357 Q1898.37 279.357 1896.22 281.37 Q1894.09 283.384 1893.77 287.042 L1908.95 287.019 Z" fill="#000000" fill-rule="nonzero" fill-opacity="1" /><path clip-path="url(#clip860)" d="M1935.22 280.352 Q1934.51 279.935 1933.65 279.75 Q1932.82 279.542 1931.8 279.542 Q1928.19 279.542 1926.24 281.903 Q1924.32 284.241 1924.32 288.639 L1924.32 302.296 L1920.04 302.296 L1920.04 276.371 L1924.32 276.371 L1924.32 280.398 Q1925.66 278.037 1927.82 276.903 Q1929.97 275.746 1933.05 275.746 Q1933.49 275.746 1934.02 275.815 Q1934.55 275.861 1935.2 275.977 L1935.22 280.352 Z" fill="#000000" fill-rule="nonzero" fill-opacity="1" /><path clip-path="url(#clip860)" d="M1943.91 269.009 L1943.91 276.371 L1952.68 276.371 L1952.68 279.681 L1943.91 279.681 L1943.91 293.755 Q1943.91 296.926 1944.76 297.829 Q1945.64 298.731 1948.3 298.731 L1952.68 298.731 L1952.68 302.296 L1948.3 302.296 Q1943.37 302.296 1941.5 300.468 Q1939.62 298.616 1939.62 293.755 L1939.62 279.681 L1936.5 279.681 L1936.5 276.371 L1939.62 276.371 L1939.62 269.009 L1943.91 269.009 Z" fill="#000000" fill-rule="nonzero" fill-opacity="1" /><path clip-path="url(#clip860)" d="M1957.84 292.065 L1957.84 276.371 L1962.1 276.371 L1962.1 291.903 Q1962.1 295.583 1963.53 297.435 Q1964.97 299.264 1967.84 299.264 Q1971.29 299.264 1973.28 297.065 Q1975.29 294.866 1975.29 291.069 L1975.29 276.371 L1979.55 276.371 L1979.55 302.296 L1975.29 302.296 L1975.29 298.315 Q1973.74 300.676 1971.68 301.833 Q1969.65 302.968 1966.94 302.968 Q1962.47 302.968 1960.16 300.19 Q1957.84 297.412 1957.84 292.065 M1968.56 275.746 L1968.56 275.746 Z" fill="#000000" fill-rule="nonzero" fill-opacity="1" /><path clip-path="url(#clip860)" d="M2003.35 280.352 Q2002.63 279.935 2001.78 279.75 Q2000.94 279.542 1999.92 279.542 Q1996.31 279.542 1994.37 281.903 Q1992.45 284.241 1992.45 288.639 L1992.45 302.296 L1988.16 302.296 L1988.16 276.371 L1992.45 276.371 L1992.45 280.398 Q1993.79 278.037 1995.94 276.903 Q1998.09 275.746 2001.17 275.746 Q2001.61 275.746 2002.15 275.815 Q2002.68 275.861 2003.33 275.977 L2003.35 280.352 Z" fill="#000000" fill-rule="nonzero" fill-opacity="1" /><path clip-path="url(#clip860)" d="M2019.6 289.264 Q2014.44 289.264 2012.45 290.444 Q2010.46 291.625 2010.46 294.472 Q2010.46 296.741 2011.94 298.083 Q2013.44 299.403 2016.01 299.403 Q2019.55 299.403 2021.68 296.903 Q2023.84 294.38 2023.84 290.213 L2023.84 289.264 L2019.6 289.264 M2028.09 287.505 L2028.09 302.296 L2023.84 302.296 L2023.84 298.361 Q2022.38 300.722 2020.2 301.856 Q2018.03 302.968 2014.88 302.968 Q2010.9 302.968 2008.53 300.745 Q2006.2 298.5 2006.2 294.75 Q2006.2 290.375 2009.11 288.153 Q2012.05 285.931 2017.86 285.931 L2023.84 285.931 L2023.84 285.514 Q2023.84 282.574 2021.89 280.977 Q2019.97 279.357 2016.47 279.357 Q2014.25 279.357 2012.15 279.889 Q2010.04 280.421 2008.09 281.486 L2008.09 277.551 Q2010.43 276.648 2012.63 276.208 Q2014.83 275.746 2016.91 275.746 Q2022.54 275.746 2025.32 278.662 Q2028.09 281.579 2028.09 287.505 Z" fill="#000000" fill-rule="nonzero" fill-opacity="1" /><path clip-path="url(#clip860)" d="M2052.12 267.736 L2056.8 267.736 L2056.8 302.296 L2052.12 302.296 L2052.12 267.736 Z" fill="#000000" fill-rule="nonzero" fill-opacity="1" /><path clip-path="url(#clip860)" d="M2091.98 270.398 L2091.98 275.329 Q2089.62 273.13 2086.94 272.042 Q2084.27 270.954 2081.27 270.954 Q2075.34 270.954 2072.19 274.588 Q2069.04 278.199 2069.04 285.051 Q2069.04 291.88 2072.19 295.514 Q2075.34 299.125 2081.27 299.125 Q2084.27 299.125 2086.94 298.037 Q2089.62 296.949 2091.98 294.75 L2091.98 299.634 Q2089.53 301.301 2086.77 302.134 Q2084.04 302.968 2080.99 302.968 Q2073.14 302.968 2068.63 298.176 Q2064.11 293.361 2064.11 285.051 Q2064.11 276.718 2068.63 271.926 Q2073.14 267.111 2080.99 267.111 Q2084.09 267.111 2086.82 267.945 Q2089.58 268.755 2091.98 270.398 Z" fill="#000000" fill-rule="nonzero" fill-opacity="1" /><path clip-path="url(#clip860)" d="M2125.87 289.264 Q2120.71 289.264 2118.72 290.444 Q2116.73 291.625 2116.73 294.472 Q2116.73 296.741 2118.21 298.083 Q2119.71 299.403 2122.28 299.403 Q2125.83 299.403 2127.96 296.903 Q2130.11 294.38 2130.11 290.213 L2130.11 289.264 L2125.87 289.264 M2134.37 287.505 L2134.37 302.296 L2130.11 302.296 L2130.11 298.361 Q2128.65 300.722 2126.47 301.856 Q2124.3 302.968 2121.15 302.968 Q2117.17 302.968 2114.81 300.745 Q2112.47 298.5 2112.47 294.75 Q2112.47 290.375 2115.39 288.153 Q2118.33 285.931 2124.14 285.931 L2130.11 285.931 L2130.11 285.514 Q2130.11 282.574 2128.16 280.977 Q2126.24 279.357 2122.75 279.357 Q2120.52 279.357 2118.42 279.889 Q2116.31 280.421 2114.37 281.486 L2114.37 277.551 Q2116.71 276.648 2118.9 276.208 Q2121.1 275.746 2123.19 275.746 Q2128.81 275.746 2131.59 278.662 Q2134.37 281.579 2134.37 287.505 Z" fill="#000000" fill-rule="nonzero" fill-opacity="1" /><path clip-path="url(#clip860)" d="M2147.26 298.407 L2147.26 312.157 L2142.98 312.157 L2142.98 276.371 L2147.26 276.371 L2147.26 280.306 Q2148.6 277.991 2150.64 276.88 Q2152.7 275.746 2155.55 275.746 Q2160.27 275.746 2163.21 279.495 Q2166.17 283.245 2166.17 289.357 Q2166.17 295.468 2163.21 299.218 Q2160.27 302.968 2155.55 302.968 Q2152.7 302.968 2150.64 301.856 Q2148.6 300.722 2147.26 298.407 M2161.75 289.357 Q2161.75 284.657 2159.81 281.995 Q2157.89 279.31 2154.51 279.31 Q2151.13 279.31 2149.18 281.995 Q2147.26 284.657 2147.26 289.357 Q2147.26 294.056 2149.18 296.741 Q2151.13 299.403 2154.51 299.403 Q2157.89 299.403 2159.81 296.741 Q2161.75 294.056 2161.75 289.357 Z" fill="#000000" fill-rule="nonzero" fill-opacity="1" /><path clip-path="url(#clip860)" d="M2188.26 280.352 Q2187.54 279.935 2186.68 279.75 Q2185.85 279.542 2184.83 279.542 Q2181.22 279.542 2179.27 281.903 Q2177.35 284.241 2177.35 288.639 L2177.35 302.296 L2173.07 302.296 L2173.07 276.371 L2177.35 276.371 L2177.35 280.398 Q2178.7 278.037 2180.85 276.903 Q2183 275.746 2186.08 275.746 Q2186.52 275.746 2187.05 275.815 Q2187.58 275.861 2188.23 275.977 L2188.26 280.352 Z" fill="#000000" fill-rule="nonzero" fill-opacity="1" /><path clip-path="url(#clip860)" d="M2201.73 279.357 Q2198.3 279.357 2196.31 282.042 Q2194.32 284.704 2194.32 289.357 Q2194.32 294.009 2196.29 296.694 Q2198.28 299.356 2201.73 299.356 Q2205.13 299.356 2207.12 296.671 Q2209.11 293.986 2209.11 289.357 Q2209.11 284.75 2207.12 282.065 Q2205.13 279.357 2201.73 279.357 M2201.73 275.746 Q2207.28 275.746 2210.45 279.357 Q2213.63 282.968 2213.63 289.357 Q2213.63 295.722 2210.45 299.356 Q2207.28 302.968 2201.73 302.968 Q2196.15 302.968 2192.98 299.356 Q2189.83 295.722 2189.83 289.357 Q2189.83 282.968 2192.98 279.357 Q2196.15 275.746 2201.73 275.746 Z" fill="#000000" fill-rule="nonzero" fill-opacity="1" /><path clip-path="url(#clip860)" d="M2240.78 276.371 L2231.4 288.986 L2241.26 302.296 L2236.24 302.296 L2228.7 292.111 L2221.15 302.296 L2216.13 302.296 L2226.2 288.732 L2216.98 276.371 L2222.01 276.371 L2228.88 285.607 L2235.76 276.371 L2240.78 276.371 Z" fill="#000000" fill-rule="nonzero" fill-opacity="1" /><path clip-path="url(#clip860)" d="M2247.28 276.371 L2251.54 276.371 L2251.54 302.296 L2247.28 302.296 L2247.28 276.371 M2247.28 266.278 L2251.54 266.278 L2251.54 271.671 L2247.28 271.671 L2247.28 266.278 Z" fill="#000000" fill-rule="nonzero" fill-opacity="1" /><path clip-path="url(#clip860)" d="M2280.64 281.347 Q2282.24 278.477 2284.46 277.111 Q2286.68 275.746 2289.69 275.746 Q2293.74 275.746 2295.94 278.593 Q2298.14 281.417 2298.14 286.648 L2298.14 302.296 L2293.86 302.296 L2293.86 286.787 Q2293.86 283.06 2292.54 281.255 Q2291.22 279.449 2288.51 279.449 Q2285.2 279.449 2283.28 281.648 Q2281.36 283.847 2281.36 287.644 L2281.36 302.296 L2277.07 302.296 L2277.07 286.787 Q2277.07 283.037 2275.76 281.255 Q2274.44 279.449 2271.68 279.449 Q2268.42 279.449 2266.5 281.671 Q2264.57 283.87 2264.57 287.644 L2264.57 302.296 L2260.29 302.296 L2260.29 276.371 L2264.57 276.371 L2264.57 280.398 Q2266.03 278.014 2268.07 276.88 Q2270.11 275.746 2272.91 275.746 Q2275.73 275.746 2277.7 277.181 Q2279.69 278.616 2280.64 281.347 Z" fill="#000000" fill-rule="nonzero" fill-opacity="1" /><path clip-path="url(#clip860)" d="M2318.42 289.264 Q2313.26 289.264 2311.26 290.444 Q2309.27 291.625 2309.27 294.472 Q2309.27 296.741 2310.76 298.083 Q2312.26 299.403 2314.83 299.403 Q2318.37 299.403 2320.5 296.903 Q2322.65 294.38 2322.65 290.213 L2322.65 289.264 L2318.42 289.264 M2326.91 287.505 L2326.91 302.296 L2322.65 302.296 L2322.65 298.361 Q2321.19 300.722 2319.02 301.856 Q2316.84 302.968 2313.69 302.968 Q2309.71 302.968 2307.35 300.745 Q2305.01 298.5 2305.01 294.75 Q2305.01 290.375 2307.93 288.153 Q2310.87 285.931 2316.68 285.931 L2322.65 285.931 L2322.65 285.514 Q2322.65 282.574 2320.71 280.977 Q2318.79 279.357 2315.29 279.357 Q2313.07 279.357 2310.96 279.889 Q2308.86 280.421 2306.91 281.486 L2306.91 277.551 Q2309.25 276.648 2311.45 276.208 Q2313.65 275.746 2315.73 275.746 Q2321.36 275.746 2324.13 278.662 Q2326.91 281.579 2326.91 287.505 Z" fill="#000000" fill-rule="nonzero" fill-opacity="1" /><path clip-path="url(#clip860)" d="M2352.75 280.306 L2352.75 266.278 L2357 266.278 L2357 302.296 L2352.75 302.296 L2352.75 298.407 Q2351.4 300.722 2349.34 301.856 Q2347.31 302.968 2344.44 302.968 Q2339.74 302.968 2336.77 299.218 Q2333.83 295.468 2333.83 289.357 Q2333.83 283.245 2336.77 279.495 Q2339.74 275.746 2344.44 275.746 Q2347.31 275.746 2349.34 276.88 Q2351.4 277.991 2352.75 280.306 M2338.23 289.357 Q2338.23 294.056 2340.15 296.741 Q2342.1 299.403 2345.48 299.403 Q2348.86 299.403 2350.8 296.741 Q2352.75 294.056 2352.75 289.357 Q2352.75 284.657 2350.8 281.995 Q2348.86 279.31 2345.48 279.31 Q2342.1 279.31 2340.15 281.995 Q2338.23 284.657 2338.23 289.357 Z" fill="#000000" fill-rule="nonzero" fill-opacity="1" /><path clip-path="url(#clip860)" d="M2375.82 279.357 Q2372.4 279.357 2370.41 282.042 Q2368.42 284.704 2368.42 289.357 Q2368.42 294.009 2370.38 296.694 Q2372.38 299.356 2375.82 299.356 Q2379.23 299.356 2381.22 296.671 Q2383.21 293.986 2383.21 289.357 Q2383.21 284.75 2381.22 282.065 Q2379.23 279.357 2375.82 279.357 M2375.82 275.746 Q2381.38 275.746 2384.55 279.357 Q2387.72 282.968 2387.72 289.357 Q2387.72 295.722 2384.55 299.356 Q2381.38 302.968 2375.82 302.968 Q2370.25 302.968 2367.07 299.356 Q2363.93 295.722 2363.93 289.357 Q2363.93 282.968 2367.07 279.357 Q2370.25 275.746 2375.82 275.746 Z" fill="#000000" fill-rule="nonzero" fill-opacity="1" /><polyline clip-path="url(#clip860)" style="stroke:#3da44d; stroke-linecap:round; stroke-linejoin:round; stroke-width:4; stroke-opacity:1; fill:none" points="1611.54,336.856 1770.53,336.856 "/>
<path clip-path="url(#clip860)" d="M1822.21 322.065 Q1822.21 322.252 1821.3 323.892 Q1819.77 326.913 1817.83 331.528 Q1815.89 336.142 1814.79 339.561 Q1814.55 340.381 1814.39 341.435 Q1813.97 344.668 1812.61 349.68 Q1812.14 351.249 1811.83 351.905 Q1811.53 352.561 1811.08 352.561 Q1810.45 352.561 1810.45 351.694 Q1810.45 350.828 1811.25 347.595 Q1812.07 344.363 1812.96 341.388 Q1813.52 339.749 1813.52 336.68 Q1813.52 335.697 1813.47 334.807 Q1813.43 333.917 1813.24 332.628 Q1813.05 331.34 1812.75 330.286 Q1812.44 329.232 1811.86 328.131 Q1811.27 327.007 1810.48 326.258 Q1809.68 325.485 1808.46 324.993 Q1807.27 324.501 1805.77 324.501 Q1805.39 324.501 1804.92 324.548 Q1804.48 324.571 1803.4 324.876 Q1802.35 325.18 1801.46 325.719 Q1800.57 326.234 1799.61 327.382 Q1798.65 328.529 1798.13 330.075 L1797.94 330.31 Q1797.64 330.31 1797.48 330.31 Q1797.34 330.286 1797.17 330.169 Q1797.03 330.052 1797.03 329.841 Q1797.03 329.349 1797.41 328.366 Q1797.8 327.382 1798.6 326.117 Q1799.42 324.852 1800.47 323.728 Q1801.55 322.604 1803.12 321.831 Q1804.69 321.058 1806.38 321.058 Q1810.71 321.058 1812.77 326.328 Q1814.57 330.801 1814.74 336.118 Q1818.49 326.679 1821.06 321.924 Q1821.2 321.573 1821.62 321.573 Q1822.21 321.596 1822.21 322.065 Z" fill="#000000" fill-rule="nonzero" fill-opacity="1" /></svg>
