<?xml version="1.0" encoding="UTF-8" standalone="no"?>
<!-- Created with Inkscape (http://www.inkscape.org/) -->

<svg
   version="1.1"
   id="svg1"
   width="247.91867"
   height="77.716003"
   viewBox="0 0 247.91867 77.716003"
   xmlns="http://www.w3.org/2000/svg"
   xmlns:svg="http://www.w3.org/2000/svg">
  <defs
     id="defs1" />
  <g
     id="g1">
    <path
       id="path1"
       d="M -36.60406,-14.17339 H 36.60407 V 14.1734 h -73.20813 z"
       style="fill:none;stroke:#000000;stroke-width:0.79701;stroke-linecap:butt;stroke-linejoin:miter;stroke-miterlimit:10;stroke-dasharray:none;stroke-opacity:1"
       transform="matrix(1.3333333,0,0,-1.3333333,49.336,38.858667)" />
    <g
       id="g2"
       aria-label="Z&#10;1&#10;∼f&#10;θ&#10;,θ∈Θ"
       transform="matrix(1.3333333,0,0,1.3333333,4.9586667,42.178667)">
      <path
         id="path2"
         d="m 7.1706484,-6.5617344 c 0.011719,-0.046875 0.035156,-0.09375 0.035156,-0.1523437 0,-0.09375 -0.058594,-0.09375 -0.2578125,-0.09375 H 2.7526797 c -0.2460938,0 -0.2578125,0.011719 -0.3164063,0.1992187 l -0.5390625,1.7929688 c -0.023437,0.058594 -0.035156,0.1289062 -0.035156,0.140625 0,0.011719 0,0.1171875 0.1171875,0.1171875 0.09375,0 0.1171875,-0.070312 0.1289062,-0.1054688 0.3867188,-1.171875 0.9023438,-1.828125 2.4492188,-1.828125 h 1.6289062 l -5.56640621,6.22265627 c 0,0.0117188 -0.046875,0.15234375 -0.046875,0.17578125 0,0.093750005 0.0703125,0.093750005 0.2578125,0.093750005 H 5.1550234 c 0.2460938,0 0.2578125,-0.011718755 0.3164063,-0.199218755 l 0.703125,-2.20312497 c 0.011719,-0.035156 0.035156,-0.1054688 0.035156,-0.1523438 0,-0.046875 -0.035156,-0.1054687 -0.1289062,-0.1054687 -0.082031,0 -0.09375,0.035156 -0.1640625,0.2460937 -0.4335938,1.359375 -0.9140625,2.07421877 -2.6132813,2.07421877 H 1.6042422 Z m 0,0"
         style="fill:#000000;fill-opacity:1;fill-rule:nonzero;stroke:none" />
      <path
         id="path3"
         d="m 9.1335391,-2.9347813 c 0,-0.1875 -0.011719,-0.1992187 -0.2109375,-0.1992187 -0.4453125,0.4335937 -1.078125,0.4453125 -1.359375,0.4453125 v 0.2460937 c 0.1640625,0 0.6210937,0 1.0078125,-0.1875 v 3.5507813 c 0,0.234375 0,0.328125 -0.6914063,0.328125 H 7.6101016 v 0.2460937 c 0.1289062,-0.011719 0.984375,-0.023437 1.2421875,-0.023437 0.2109375,0 1.0898437,0.011719 1.2421879,0.023437 V 1.2488125 H 9.8366641 c -0.703125,0 -0.703125,-0.09375 -0.703125,-0.328125 z m 0,0"
         style="fill:#000000;fill-opacity:1;fill-rule:nonzero;stroke:none" />
      <path
         id="path4"
         d="m 21.233148,-3.3273594 c 0,-0.2226562 -0.05859,-0.3164062 -0.140625,-0.3164062 -0.04687,0 -0.128906,0.070312 -0.140625,0.2578125 -0.03516,0.9609375 -0.703125,1.5 -1.394531,1.5 -0.632812,0 -1.101562,-0.421875 -1.59375,-0.8554688 -0.503906,-0.4570312 -1.03125,-0.9140625 -1.699219,-0.9140625 -1.089843,0 -1.675781,1.1015625 -1.675781,2.0039063 0,0.3164062 0.128906,0.3164062 0.140625,0.3164062 0.105469,0 0.140625,-0.1992187 0.140625,-0.2226562 0.03516,-1.1015625 0.785156,-1.5351563 1.394531,-1.5351563 0.621094,0 1.101563,0.421875 1.59375,0.8554688 0.503907,0.4570312 1.019532,0.9140625 1.699219,0.9140625 1.089844,0 1.675781,-1.1015625 1.675781,-2.0039063 z m 0,0"
         style="fill:#000000;fill-opacity:1;fill-rule:nonzero;stroke:none" />
      <path
         id="path5"
         d="m 28.211664,-3.9836094 h 0.855469 c 0.199219,0 0.304687,0 0.304687,-0.1992187 0,-0.1054688 -0.105468,-0.1054688 -0.269531,-0.1054688 h -0.832031 l 0.210937,-1.1367187 c 0.03516,-0.2109375 0.175782,-0.9140625 0.234375,-1.0429688 0.09375,-0.1875 0.257813,-0.3398437 0.46875,-0.3398437 0.04687,0 0.304688,0 0.492188,0.1875 -0.433594,0.035156 -0.539063,0.3867187 -0.539063,0.5390625 0,0.2226562 0.175782,0.3398437 0.363282,0.3398437 0.269531,0 0.550781,-0.2109375 0.550781,-0.5976562 0,-0.4570313 -0.457031,-0.6796875 -0.867188,-0.6796875 -0.339843,0 -0.960937,0.1757812 -1.265625,1.1601562 -0.05859,0.2109375 -0.08203,0.3164063 -0.328125,1.5703125 h -0.679687 c -0.199219,0 -0.304688,0 -0.304688,0.1875 0,0.1171875 0.09375,0.1171875 0.28125,0.1171875 h 0.65625 l -0.75,3.93750002 c -0.175781,0.9609375 -0.339843,1.87499998 -0.867187,1.87499998 -0.03516,0 -0.28125,0 -0.46875,-0.1875 0.457031,-0.023437 0.539062,-0.3867187 0.539062,-0.5390625 0,-0.22265623 -0.175781,-0.33984373 -0.363281,-0.33984373 -0.257812,0 -0.550781,0.2109375 -0.550781,0.59765623 0,0.4453125 0.433594,0.6796875 0.84375,0.6796875 0.550781,0 0.949219,-0.5859375 1.125,-0.9609375 0.328125,-0.63281248 0.550781,-1.83984373 0.5625,-1.91015623 z m 0,0"
         style="fill:#000000;fill-opacity:1;fill-rule:nonzero;stroke:none" />
      <path
         id="path6"
         d="m 32.992914,-1.9035313 c 0,-0.7265625 -0.28125,-1.5117187 -0.960937,-1.5117187 -1.042969,0 -2.167969,1.875 -2.167969,3.46875 0,0.83203125 0.328125,1.5117187 0.972656,1.5117187 1.054688,0 2.15625,-1.89843745 2.15625,-3.46875 z m -2.332031,0.8554688 c 0.351562,-1.5117188 0.949219,-2.1679688 1.359375,-2.1679688 0.445312,0 0.445312,0.7734375 0.445312,0.9023438 0,0.2695312 -0.04687,0.6796875 -0.199218,1.265625 z m 1.546875,0.24609375 C 32.008539,-0.04025 31.844477,0.33475 31.645258,0.67459375 31.422602,1.037875 31.141352,1.366 30.836664,1.366 c -0.386719,0 -0.445312,-0.52734375 -0.445312,-0.90234375 0,-0.45703125 0.128906,-1.0078125 0.199218,-1.265625 z m 0,0"
         style="fill:#000000;fill-opacity:1;fill-rule:nonzero;stroke:none" />
      <path
         id="path7"
         d="m 35.966547,-0.01095313 c 0,-0.65625 -0.257813,-1.04296877 -0.644531,-1.04296877 -0.328125,0 -0.527344,0.24609377 -0.527344,0.52734377 0,0.26953125 0.199219,0.527343755 0.527344,0.527343755 0.117187,0 0.246093,-0.035156255 0.351562,-0.128906255 0.02344,-0.0234375 0.03516,-0.0351563 0.04687,-0.0351563 0.01172,0 0.02344,0.0117188 0.02344,0.15234375 0,0.73828125 -0.351563,1.33593748 -0.679688,1.66406248 -0.105469,0.1054687 -0.105469,0.1289062 -0.105469,0.1640625 0,0.070312 0.04687,0.1054687 0.09375,0.1054687 0.117188,0 0.914063,-0.7617187 0.914063,-1.93359368 z M 46.223383,-4.9797031 c 0,-0.65625 -0.1875,-2.0390625 -1.195313,-2.0390625 -1.382812,0 -2.917968,2.8007812 -2.917968,5.0859375 0,0.93749997 0.28125,2.03906247 1.195312,2.03906247 1.40625,0 2.917969,-2.85937497 2.917969,-5.08593747 z m -3.058594,1.359375 c 0.164063,-0.6328125 0.363281,-1.4296875 0.761719,-2.1328125 0.269531,-0.4921875 0.644531,-1.0546875 1.089844,-1.0546875 0.492187,0 0.550781,0.6445312 0.550781,1.2070312 0,0.4921875 -0.08203,0.9960938 -0.328125,1.9804688 z m 1.992188,0.328125 c -0.117188,0.4570312 -0.316407,1.3007812 -0.703125,2.015625 -0.339844,0.67968747 -0.726563,1.17187497 -1.148438,1.17187497 -0.328125,0 -0.539062,-0.29296875 -0.539062,-1.21874997 0,-0.421875 0.05859,-0.9960938 0.316406,-1.96875 z m 0,0"
         style="fill:#000000;fill-opacity:1;fill-rule:nonzero;stroke:none" />
      <path
         id="path8"
         d="m 54.868891,-2.2961094 c 0.164062,0 0.351562,0 0.351562,-0.1992187 0,-0.1992188 -0.1875,-0.1992188 -0.351562,-0.1992188 h -4.230469 c 0.128906,-1.3242187 1.265625,-2.2851562 2.671875,-2.2851562 h 1.558594 c 0.164062,0 0.351562,0 0.351562,-0.1992188 0,-0.1992187 -0.1875,-0.1992187 -0.351562,-0.1992187 h -1.570313 c -1.710937,0 -3.058594,1.2890625 -3.058594,2.8828125 0,1.59374997 1.347657,2.89453122 3.058594,2.89453122 h 1.570313 c 0.164062,0 0.351562,0 0.351562,-0.19921875 0,-0.199218745 -0.1875,-0.199218745 -0.351562,-0.199218745 h -1.558594 c -1.40625,0 -2.542969,-0.960937505 -2.671875,-2.296875025 z m 0,0"
         style="fill:#000000;fill-opacity:1;fill-rule:nonzero;stroke:none" />
      <path
         id="path9"
         d="m 66.001703,-3.3742344 c 0,-2.0390625 -1.5,-3.6445312 -3.316406,-3.6445312 -1.78125,0 -3.304688,1.59375 -3.304688,3.6445312 0,2.0390625 1.535157,3.59765627 3.304688,3.59765627 1.816406,0 3.316406,-1.58203127 3.316406,-3.59765627 z m -3.304687,3.36328127 c -0.984375,0 -2.355469,-0.85546875 -2.355469,-3.36328127 0,-2.5664062 1.382812,-3.4335937 2.34375,-3.4335937 1.007812,0 2.34375,0.9140625 2.34375,3.4335937 0,2.54296877 -1.394531,3.36328127 -2.332031,3.36328127 z m 1.769531,-4.11328127 h -0.246094 v 0.3398438 h -3.058594 v -0.3398438 h -0.246093 v 1.4296875 h 0.246093 v -0.328125 h 3.058594 v 0.328125 h 0.246094 z m 0,0"
         style="fill:#000000;fill-opacity:1;fill-rule:nonzero;stroke:none" />
    </g>
    <path
       id="path10"
       d="M 0.3985,-14.17339 H 73.60663 V 14.1734 H 0.3985 Z"
       style="fill:none;stroke:#000000;stroke-width:0.79701;stroke-linecap:butt;stroke-linejoin:miter;stroke-miterlimit:10;stroke-dasharray:none;stroke-opacity:1"
       transform="matrix(1.3333333,0,0,-1.3333333,49.336,38.858667)" />
    <g
       id="g10"
       aria-label="Z&#10;2&#10;∼f&#10;θ&#10;,θ∈Θ"
       transform="matrix(1.3333333,0,0,1.3333333,54.294667,42.178667)">
      <path
         id="path11"
         d="m 7.1706016,-6.5617344 c 0.011719,-0.046875 0.035156,-0.09375 0.035156,-0.1523437 0,-0.09375 -0.058594,-0.09375 -0.2578125,-0.09375 H 2.7526328 c -0.2460937,0 -0.2578125,0.011719 -0.3164062,0.1992187 l -0.5390625,1.7929688 c -0.023437,0.058594 -0.035156,0.1289062 -0.035156,0.140625 0,0.011719 0,0.1171875 0.1171875,0.1171875 0.09375,0 0.1171875,-0.070312 0.1289063,-0.1054688 0.3867187,-1.171875 0.9023437,-1.828125 2.4492187,-1.828125 h 1.6289063 l -5.56640629,6.22265627 c 0,0.0117188 -0.046875,0.15234375 -0.046875,0.17578125 0,0.093750005 0.0703125,0.093750005 0.2578125,0.093750005 H 5.1549766 c 0.2460937,0 0.2578125,-0.011718755 0.3164062,-0.199218755 l 0.703125,-2.20312497 c 0.011719,-0.035156 0.035156,-0.1054688 0.035156,-0.1523438 0,-0.046875 -0.035156,-0.1054687 -0.1289063,-0.1054687 -0.082031,0 -0.09375,0.035156 -0.1640625,0.2460937 -0.4335937,1.359375 -0.9140625,2.07421877 -2.6132812,2.07421877 H 1.6041953 Z m 0,0"
         style="fill:#000000;fill-opacity:1;fill-rule:nonzero;stroke:none" />
      <path
         id="path12"
         d="m 10.317086,0.22928125 h -0.234375 c -0.02344,0.15234375 -0.08203,0.5625 -0.1757813,0.6328125 C 9.8483359,0.89725 9.3092734,0.89725 9.2155234,0.89725 H 7.9264609 c 0.7382813,-0.64453125 0.984375,-0.84375 1.3945313,-1.171875 0.515625,-0.41015625 0.9960938,-0.84375 0.9960938,-1.5 0,-0.84375 -0.7382813,-1.359375 -1.6289063,-1.359375 -0.8671875,0 -1.453125,0.609375 -1.453125,1.2421875 0,0.3632812 0.3046875,0.3984375 0.375,0.3984375 0.1640625,0 0.375,-0.1171875 0.375,-0.375 0,-0.1289063 -0.058594,-0.3632813 -0.421875,-0.3632813 0.2226562,-0.5039062 0.6914062,-0.65625 1.0195312,-0.65625 0.703125,0 1.0664063,0.5507813 1.0664063,1.1132813 0,0.609375 -0.4335938,1.08984375 -0.65625,1.3359375 l -1.6875,1.6640625 c -0.070312,0.058594 -0.070312,0.070312 -0.070312,0.2695312 h 2.8828128 z m 0,0"
         style="fill:#000000;fill-opacity:1;fill-rule:nonzero;stroke:none" />
      <path
         id="path13"
         d="m 21.233102,-3.3273594 c 0,-0.2226562 -0.05859,-0.3164062 -0.140625,-0.3164062 -0.04687,0 -0.128907,0.070312 -0.140625,0.2578125 -0.03516,0.9609375 -0.703125,1.5 -1.394532,1.5 -0.632812,0 -1.101562,-0.421875 -1.59375,-0.8554688 -0.503906,-0.4570312 -1.03125,-0.9140625 -1.699218,-0.9140625 -1.089844,0 -1.675782,1.1015625 -1.675782,2.0039063 0,0.3164062 0.128907,0.3164062 0.140625,0.3164062 0.105469,0 0.140625,-0.1992187 0.140625,-0.2226562 0.03516,-1.1015625 0.785157,-1.5351563 1.394532,-1.5351563 0.621093,0 1.101562,0.421875 1.59375,0.8554688 0.503906,0.4570312 1.019531,0.9140625 1.699218,0.9140625 1.089844,0 1.675782,-1.1015625 1.675782,-2.0039063 z m 0,0"
         style="fill:#000000;fill-opacity:1;fill-rule:nonzero;stroke:none" />
      <path
         id="path14"
         d="m 28.211617,-3.9836094 h 0.855469 c 0.199219,0 0.304687,0 0.304687,-0.1992187 0,-0.1054688 -0.105468,-0.1054688 -0.269531,-0.1054688 h -0.832031 l 0.210937,-1.1367187 c 0.03516,-0.2109375 0.175782,-0.9140625 0.234375,-1.0429688 0.09375,-0.1875 0.257813,-0.3398437 0.46875,-0.3398437 0.04687,0 0.304688,0 0.492188,0.1875 -0.433594,0.035156 -0.539063,0.3867187 -0.539063,0.5390625 0,0.2226562 0.175782,0.3398437 0.363282,0.3398437 0.269531,0 0.550781,-0.2109375 0.550781,-0.5976562 0,-0.4570313 -0.457031,-0.6796875 -0.867188,-0.6796875 -0.339843,0 -0.960937,0.1757812 -1.265625,1.1601562 -0.05859,0.2109375 -0.08203,0.3164063 -0.328125,1.5703125 h -0.679687 c -0.199219,0 -0.304688,0 -0.304688,0.1875 0,0.1171875 0.09375,0.1171875 0.28125,0.1171875 h 0.65625 l -0.75,3.93750002 c -0.175781,0.9609375 -0.339843,1.87499998 -0.867187,1.87499998 -0.03516,0 -0.28125,0 -0.46875,-0.1875 0.457031,-0.023437 0.539062,-0.3867187 0.539062,-0.5390625 0,-0.22265623 -0.175781,-0.33984373 -0.363281,-0.33984373 -0.257812,0 -0.550781,0.2109375 -0.550781,0.59765623 0,0.4453125 0.433594,0.6796875 0.84375,0.6796875 0.550781,0 0.949219,-0.5859375 1.125,-0.9609375 0.328125,-0.63281248 0.550781,-1.83984373 0.5625,-1.91015623 z m 0,0"
         style="fill:#000000;fill-opacity:1;fill-rule:nonzero;stroke:none" />
      <path
         id="path15"
         d="m 32.992867,-1.9035313 c 0,-0.7265625 -0.28125,-1.5117187 -0.960937,-1.5117187 -1.042969,0 -2.167969,1.875 -2.167969,3.46875 0,0.83203125 0.328125,1.5117187 0.972656,1.5117187 1.054688,0 2.15625,-1.89843745 2.15625,-3.46875 z m -2.332031,0.8554688 c 0.351562,-1.5117188 0.949219,-2.1679688 1.359375,-2.1679688 0.445312,0 0.445312,0.7734375 0.445312,0.9023438 0,0.2695312 -0.04687,0.6796875 -0.199218,1.265625 z m 1.546875,0.24609375 C 32.008492,-0.04025 31.84443,0.33475 31.645211,0.67459375 31.422555,1.037875 31.141305,1.366 30.836617,1.366 c -0.386719,0 -0.445312,-0.52734375 -0.445312,-0.90234375 0,-0.45703125 0.128906,-1.0078125 0.199218,-1.265625 z m 0,0"
         style="fill:#000000;fill-opacity:1;fill-rule:nonzero;stroke:none" />
      <path
         id="path16"
         d="m 35.9665,-0.01095313 c 0,-0.65625 -0.257812,-1.04296877 -0.644531,-1.04296877 -0.328125,0 -0.527344,0.24609377 -0.527344,0.52734377 0,0.26953125 0.199219,0.527343755 0.527344,0.527343755 0.117187,0 0.246094,-0.035156255 0.351562,-0.128906255 0.02344,-0.0234375 0.03516,-0.0351563 0.04687,-0.0351563 0.01172,0 0.02344,0.0117188 0.02344,0.15234375 0,0.73828125 -0.351563,1.33593748 -0.679688,1.66406248 -0.105468,0.1054687 -0.105468,0.1289062 -0.105468,0.1640625 0,0.070312 0.04687,0.1054687 0.09375,0.1054687 0.117187,0 0.914062,-0.7617187 0.914062,-1.93359368 z M 46.223336,-4.9797031 c 0,-0.65625 -0.1875,-2.0390625 -1.195313,-2.0390625 -1.382812,0 -2.917968,2.8007812 -2.917968,5.0859375 0,0.93749997 0.28125,2.03906247 1.195312,2.03906247 1.40625,0 2.917969,-2.85937497 2.917969,-5.08593747 z m -3.058594,1.359375 c 0.164063,-0.6328125 0.363281,-1.4296875 0.761719,-2.1328125 0.269531,-0.4921875 0.644531,-1.0546875 1.089844,-1.0546875 0.492187,0 0.550781,0.6445312 0.550781,1.2070312 0,0.4921875 -0.08203,0.9960938 -0.328125,1.9804688 z m 1.992188,0.328125 c -0.117188,0.4570312 -0.316407,1.3007812 -0.703125,2.015625 -0.339844,0.67968747 -0.726563,1.17187497 -1.148438,1.17187497 -0.328125,0 -0.539062,-0.29296875 -0.539062,-1.21874997 0,-0.421875 0.05859,-0.9960938 0.316406,-1.96875 z m 0,0"
         style="fill:#000000;fill-opacity:1;fill-rule:nonzero;stroke:none" />
      <path
         id="path17"
         d="m 54.868844,-2.2961094 c 0.164062,0 0.351562,0 0.351562,-0.1992187 0,-0.1992188 -0.1875,-0.1992188 -0.351562,-0.1992188 H 50.638375 C 50.767281,-4.0187656 51.904,-4.9797031 53.31025,-4.9797031 h 1.558594 c 0.164062,0 0.351562,0 0.351562,-0.1992188 0,-0.1992187 -0.1875,-0.1992187 -0.351562,-0.1992187 h -1.570313 c -1.710937,0 -3.058593,1.2890625 -3.058593,2.8828125 0,1.59374997 1.347656,2.89453122 3.058593,2.89453122 h 1.570313 c 0.164062,0 0.351562,0 0.351562,-0.19921875 0,-0.199218745 -0.1875,-0.199218745 -0.351562,-0.199218745 H 53.31025 c -1.40625,0 -2.542969,-0.960937505 -2.671875,-2.296875025 z m 0,0"
         style="fill:#000000;fill-opacity:1;fill-rule:nonzero;stroke:none" />
      <path
         id="path18"
         d="m 66.001656,-3.3742344 c 0,-2.0390625 -1.5,-3.6445312 -3.316406,-3.6445312 -1.78125,0 -3.304687,1.59375 -3.304687,3.6445312 0,2.0390625 1.535156,3.59765627 3.304687,3.59765627 1.816406,0 3.316406,-1.58203127 3.316406,-3.59765627 z m -3.304687,3.36328127 c -0.984375,0 -2.355469,-0.85546875 -2.355469,-3.36328127 0,-2.5664062 1.382813,-3.4335937 2.34375,-3.4335937 1.007813,0 2.34375,0.9140625 2.34375,3.4335937 0,2.54296877 -1.394531,3.36328127 -2.332031,3.36328127 z M 64.4665,-4.1242344 h -0.246094 v 0.3398438 h -3.058593 v -0.3398438 h -0.246094 v 1.4296875 h 0.246094 v -0.328125 h 3.058593 v 0.328125 H 64.4665 Z m 0,0"
         style="fill:#000000;fill-opacity:1;fill-rule:nonzero;stroke:none" />
    </g>
    <path
       id="path19"
       d="m 1.9088828,-0.52739844 c 0,-0.29296875 -0.234375,-0.52734376 -0.5273437,-0.52734376 -0.28125,0 -0.52734379,0.23437501 -0.52734379,0.52734376 0,0.29296875 0.24609379,0.5273437525 0.52734379,0.5273437525 0.2929687,0 0.5273437,-0.2343750025 0.5273437,-0.5273437525 z m 2.7685547,0 c 0,-0.29296875 -0.234375,-0.52734376 -0.5273437,-0.52734376 -0.28125,0 -0.5273438,0.23437501 -0.5273438,0.52734376 0,0.29296875 0.2460938,0.5273437525 0.5273438,0.5273437525 0.2929687,0 0.5273437,-0.2343750025 0.5273437,-0.5273437525 z m 2.7685547,0 c 0,-0.29296875 -0.234375,-0.52734376 -0.5273438,-0.52734376 -0.28125,0 -0.5273437,0.23437501 -0.5273437,0.52734376 0,0.29296875 0.2460937,0.5273437525 0.5273437,0.5273437525 0.2929688,0 0.5273438,-0.2343750025 0.5273438,-0.5273437525 z m 0,0"
       style="fill:#000000;fill-opacity:1;fill-rule:nonzero;stroke:none"
       aria-label="..."
       transform="matrix(1.3333333,0,0,1.3333333,54.294667,39.558667)" />
    <path
       id="path20"
       d="M 0.3985,-14.17339 H 74.56024 V 14.1734 H 0.3985 Z"
       style="fill:none;stroke:#000000;stroke-width:0.79701;stroke-linecap:butt;stroke-linejoin:miter;stroke-miterlimit:10;stroke-dasharray:none;stroke-opacity:1"
       transform="matrix(1.3333333,0,0,-1.3333333,49.336,38.858667)" />
    <g
       id="g20"
       aria-label="Z&#10;n&#10;∼f&#10;θ&#10;,θ∈Θ"
       transform="matrix(1.3333333,0,0,1.3333333,54.294667,42.178667)">
      <path
         id="path21"
         d="m 7.1706016,-6.5617344 c 0.011719,-0.046875 0.035156,-0.09375 0.035156,-0.1523437 0,-0.09375 -0.058594,-0.09375 -0.2578125,-0.09375 H 2.7526328 c -0.2460937,0 -0.2578125,0.011719 -0.3164062,0.1992187 l -0.5390625,1.7929688 c -0.023437,0.058594 -0.035156,0.1289062 -0.035156,0.140625 0,0.011719 0,0.1171875 0.1171875,0.1171875 0.09375,0 0.1171875,-0.070312 0.1289063,-0.1054688 0.3867187,-1.171875 0.9023437,-1.828125 2.4492187,-1.828125 h 1.6289063 l -5.56640629,6.22265627 c 0,0.0117188 -0.046875,0.15234375 -0.046875,0.17578125 0,0.093750005 0.0703125,0.093750005 0.2578125,0.093750005 H 5.1549766 c 0.2460937,0 0.2578125,-0.011718755 0.3164062,-0.199218755 l 0.703125,-2.20312497 c 0.011719,-0.035156 0.035156,-0.1054688 0.035156,-0.1523438 0,-0.046875 -0.035156,-0.1054687 -0.1289063,-0.1054687 -0.082031,0 -0.09375,0.035156 -0.1640625,0.2460937 -0.4335937,1.359375 -0.9140625,2.07421877 -2.6132812,2.07421877 H 1.6041953 Z m 0,0"
         style="fill:#000000;fill-opacity:1;fill-rule:nonzero;stroke:none" />
      <path
         id="path22"
         d="m 7.6569297,1.0613125 c -0.035156,0.082031 -0.070312,0.2578125 -0.070312,0.28125 0,0.1523437 0.1171875,0.2226562 0.234375,0.2226562 0.1289062,0 0.234375,-0.09375 0.2695312,-0.1523437 C 8.1256799,1.354281 8.1842739,1.1199062 8.2194302,0.97928125 8.2545859,0.850375 8.3248984,0.52225 8.3717734,0.34646875 8.4069297,0.194125 8.4538047,0.04178125 8.4889609,-0.1105625 c 0.082031,-0.29296875 0.09375,-0.3515625 0.2929688,-0.6328125 0.1992187,-0.28125 0.5273437,-0.6445313 1.0429687,-0.6445313 0.4101566,0 0.4101566,0.3632813 0.4101566,0.49218755 0,0.421875 -0.2929691,1.1953125 -0.4101566,1.48828125 -0.070312,0.1875 -0.1054687,0.2578125 -0.1054687,0.375 0,0.3632812 0.3046873,0.5976562 0.6679683,0.5976562 0.691407,0 1.007813,-0.96093745 1.007813,-1.0664062 0,-0.09375 -0.09375,-0.09375 -0.117188,-0.09375 -0.09375,0 -0.105468,0.046875 -0.128906,0.1171875 -0.164062,0.5625 -0.46875,0.84375 -0.738281,0.84375 -0.152344,0 -0.175781,-0.09375 -0.175781,-0.2460938 0,-0.1523437 0.03516,-0.2460937 0.152343,-0.56249995 0.09375,-0.2109375 0.375,-0.94921875 0.375,-1.34765625 0,-0.6679688 -0.539062,-0.7851563 -0.9023433,-0.7851563 -0.5859375,0 -0.9726563,0.3515625 -1.1835938,0.63281255 -0.046875,-0.48046875 -0.4570312,-0.63281255 -0.75,-0.63281255 -0.2929687,0 -0.4570312,0.2109375 -0.5507812,0.375 -0.1523438,0.25781255 -0.2460938,0.65625005 -0.2460938,0.6914063 0,0.0820313 0.09375,0.0820313 0.1171875,0.0820313 0.09375,0 0.1054688,-0.0117188 0.1523438,-0.19921875 0.1054687,-0.42187495 0.234375,-0.76171875 0.515625,-0.76171875 0.1757812,0 0.2226562,0.1523438 0.2226562,0.3398438 0,0.14062495 -0.058594,0.39843745 -0.1054687,0.58593745 -0.046875,0.1875 -0.1171875,0.46875 -0.1523438,0.62109375 z m 0,0"
         style="fill:#000000;fill-opacity:1;fill-rule:nonzero;stroke:none" />
      <path
         id="path23"
         d="m 22.18525,-3.3273594 c 0,-0.2226562 -0.05859,-0.3164062 -0.140625,-0.3164062 -0.04687,0 -0.128906,0.070312 -0.140625,0.2578125 -0.03516,0.9609375 -0.703125,1.5 -1.394531,1.5 -0.632813,0 -1.101563,-0.421875 -1.59375,-0.8554688 -0.503906,-0.4570312 -1.03125,-0.9140625 -1.699219,-0.9140625 -1.089844,0 -1.675781,1.1015625 -1.675781,2.0039063 0,0.3164062 0.128906,0.3164062 0.140625,0.3164062 0.105469,0 0.140625,-0.1992187 0.140625,-0.2226562 0.03516,-1.1015625 0.785156,-1.5351563 1.394531,-1.5351563 0.621094,0 1.101563,0.421875 1.59375,0.8554688 0.503906,0.4570312 1.019531,0.9140625 1.699219,0.9140625 1.089844,0 1.675781,-1.1015625 1.675781,-2.0039063 z m 0,0"
         style="fill:#000000;fill-opacity:1;fill-rule:nonzero;stroke:none" />
      <path
         id="path24"
         d="m 29.163766,-3.9836094 h 0.855468 c 0.199219,0 0.304688,0 0.304688,-0.1992187 0,-0.1054688 -0.105469,-0.1054688 -0.269531,-0.1054688 h -0.832032 l 0.210938,-1.1367187 c 0.03516,-0.2109375 0.175781,-0.9140625 0.234375,-1.0429688 0.09375,-0.1875 0.257812,-0.3398437 0.46875,-0.3398437 0.04687,0 0.304687,0 0.492187,0.1875 -0.433593,0.035156 -0.539062,0.3867187 -0.539062,0.5390625 0,0.2226562 0.175781,0.3398437 0.363281,0.3398437 0.269531,0 0.550781,-0.2109375 0.550781,-0.5976562 0,-0.4570313 -0.457031,-0.6796875 -0.867187,-0.6796875 -0.339844,0 -0.960938,0.1757812 -1.265625,1.1601562 -0.05859,0.2109375 -0.08203,0.3164063 -0.328125,1.5703125 h -0.679688 c -0.199218,0 -0.304687,0 -0.304687,0.1875 0,0.1171875 0.09375,0.1171875 0.28125,0.1171875 h 0.65625 l -0.75,3.93750002 c -0.175781,0.9609375 -0.339844,1.87499998 -0.867188,1.87499998 -0.03516,0 -0.28125,0 -0.46875,-0.1875 0.457032,-0.023437 0.539063,-0.3867187 0.539063,-0.5390625 0,-0.22265623 -0.175781,-0.33984373 -0.363281,-0.33984373 -0.257813,0 -0.550782,0.2109375 -0.550782,0.59765623 0,0.4453125 0.433594,0.6796875 0.84375,0.6796875 0.550782,0 0.949219,-0.5859375 1.125,-0.9609375 0.328125,-0.63281248 0.550782,-1.83984373 0.5625,-1.91015623 z m 0,0"
         style="fill:#000000;fill-opacity:1;fill-rule:nonzero;stroke:none" />
      <path
         id="path25"
         d="m 33.947945,-1.9035313 c 0,-0.7265625 -0.28125,-1.5117187 -0.960937,-1.5117187 -1.042969,0 -2.167969,1.875 -2.167969,3.46875 0,0.83203125 0.328125,1.5117187 0.972656,1.5117187 1.054688,0 2.15625,-1.89843745 2.15625,-3.46875 z m -2.332031,0.8554688 c 0.351563,-1.5117188 0.949219,-2.1679688 1.359375,-2.1679688 0.445313,0 0.445313,0.7734375 0.445313,0.9023438 0,0.2695312 -0.04687,0.6796875 -0.199219,1.265625 z m 1.546875,0.24609375 C 32.96357,-0.04025 32.799508,0.33475 32.600289,0.67459375 32.377633,1.037875 32.096383,1.366 31.791695,1.366 c -0.386718,0 -0.445312,-0.52734375 -0.445312,-0.90234375 0,-0.45703125 0.128906,-1.0078125 0.199219,-1.265625 z m 0,0"
         style="fill:#000000;fill-opacity:1;fill-rule:nonzero;stroke:none" />
      <path
         id="path26"
         d="m 36.918648,-0.01095313 c 0,-0.65625 -0.257812,-1.04296877 -0.644531,-1.04296877 -0.328125,0 -0.527344,0.24609377 -0.527344,0.52734377 0,0.26953125 0.199219,0.527343755 0.527344,0.527343755 0.117188,0 0.246094,-0.035156255 0.351563,-0.128906255 0.02344,-0.0234375 0.03516,-0.0351563 0.04687,-0.0351563 0.01172,0 0.02344,0.0117188 0.02344,0.15234375 0,0.73828125 -0.351562,1.33593748 -0.679687,1.66406248 -0.105469,0.1054687 -0.105469,0.1289062 -0.105469,0.1640625 0,0.070312 0.04687,0.1054687 0.09375,0.1054687 0.117187,0 0.914062,-0.7617187 0.914062,-1.93359368 z M 47.175484,-4.9797031 c 0,-0.65625 -0.1875,-2.0390625 -1.195312,-2.0390625 -1.382813,0 -2.917969,2.8007812 -2.917969,5.0859375 0,0.93749997 0.28125,2.03906247 1.195313,2.03906247 1.40625,0 2.917968,-2.85937497 2.917968,-5.08593747 z m -3.058593,1.359375 c 0.164062,-0.6328125 0.363281,-1.4296875 0.761718,-2.1328125 0.269532,-0.4921875 0.644532,-1.0546875 1.089844,-1.0546875 0.492188,0 0.550781,0.6445312 0.550781,1.2070312 0,0.4921875 -0.08203,0.9960938 -0.328125,1.9804688 z m 1.992187,0.328125 c -0.117187,0.4570312 -0.316406,1.3007812 -0.703125,2.015625 -0.339844,0.67968747 -0.726562,1.17187497 -1.148437,1.17187497 -0.328125,0 -0.539063,-0.29296875 -0.539063,-1.21874997 0,-0.421875 0.05859,-0.9960938 0.316406,-1.96875 z m 0,0"
         style="fill:#000000;fill-opacity:1;fill-rule:nonzero;stroke:none" />
      <path
         id="path27"
         d="m 55.823922,-2.2961094 c 0.164062,0 0.351562,0 0.351562,-0.1992187 0,-0.1992188 -0.1875,-0.1992188 -0.351562,-0.1992188 h -4.230469 c 0.128906,-1.3242187 1.265625,-2.2851562 2.671875,-2.2851562 h 1.558594 c 0.164062,0 0.351562,0 0.351562,-0.1992188 0,-0.1992187 -0.1875,-0.1992187 -0.351562,-0.1992187 h -1.570313 c -1.710937,0 -3.058593,1.2890625 -3.058593,2.8828125 0,1.59374997 1.347656,2.89453122 3.058593,2.89453122 h 1.570313 c 0.164062,0 0.351562,0 0.351562,-0.19921875 0,-0.199218745 -0.1875,-0.199218745 -0.351562,-0.199218745 h -1.558594 c -1.40625,0 -2.542969,-0.960937505 -2.671875,-2.296875025 z m 0,0"
         style="fill:#000000;fill-opacity:1;fill-rule:nonzero;stroke:none" />
      <path
         id="path28"
         d="m 66.953805,-3.3742344 c 0,-2.0390625 -1.5,-3.6445312 -3.316407,-3.6445312 -1.78125,0 -3.304687,1.59375 -3.304687,3.6445312 0,2.0390625 1.535156,3.59765627 3.304687,3.59765627 1.816407,0 3.316407,-1.58203127 3.316407,-3.59765627 z m -3.304688,3.36328127 c -0.984375,0 -2.355469,-0.85546875 -2.355469,-3.36328127 0,-2.5664062 1.382813,-3.4335937 2.34375,-3.4335937 1.007813,0 2.34375,0.9140625 2.34375,3.4335937 0,2.54296877 -1.394531,3.36328127 -2.332031,3.36328127 z m 1.769531,-4.11328127 h -0.246093 v 0.3398438 h -3.058594 v -0.3398438 h -0.246094 v 1.4296875 h 0.246094 v -0.328125 h 3.058594 v 0.328125 h 0.246093 z m 0,0"
         style="fill:#000000;fill-opacity:1;fill-rule:nonzero;stroke:none" />
    </g>
    <path
       id="path29"
       d="M -32.5024,0.3985 H 60.84921 V 28.74529 H -32.5024 Z"
       style="fill:none;stroke:#000000;stroke-width:0.79701;stroke-linecap:butt;stroke-linejoin:miter;stroke-miterlimit:10;stroke-dasharray:none;stroke-opacity:1"
       transform="matrix(1.3333333,0,0,-1.3333333,49.336,38.858667)" />
    <g
       id="g29"
       aria-label="Z∼f&#10;θ&#10;,θ∈Θ,g(θ)"
       transform="matrix(1.3333333,0,0,1.3333333,10.428,22.750667)">
      <path
         id="path30"
         d="m 7.1731406,-6.563 c 0.011719,-0.046875 0.035156,-0.09375 0.035156,-0.1523438 0,-0.09375 -0.058594,-0.09375 -0.2578125,-0.09375 H 2.7551719 c -0.2460938,0 -0.2578125,0.011719 -0.3164063,0.1992188 l -0.5390625,1.7929687 c -0.023437,0.058594 -0.035156,0.1289063 -0.035156,0.140625 0,0.011719 0,0.1171875 0.1171875,0.1171875 0.09375,0 0.1171875,-0.070312 0.1289062,-0.1054687 0.3867188,-1.171875 0.9023438,-1.828125 2.4492188,-1.828125 h 1.6289062 l -5.56640622,6.22265625 c 0,0.0117188 -0.046875,0.15234375 -0.046875,0.17578125 0,0.09375 0.0703125,0.09375 0.2578125,0.09375 H 5.1575156 c 0.2460938,0 0.2578125,-0.01171875 0.3164063,-0.19921875 l 0.703125,-2.20312505 c 0.011719,-0.035156 0.035156,-0.1054687 0.035156,-0.1523437 0,-0.046875 -0.035156,-0.1054688 -0.1289062,-0.1054688 -0.082031,0 -0.09375,0.035156 -0.1640625,0.2460938 -0.4335938,1.359375 -0.9140625,2.07421875 -2.6132813,2.07421875 H 1.6067344 Z m 0,0"
         style="fill:#000000;fill-opacity:1;fill-rule:nonzero;stroke:none" />
      <path
         id="path31"
         d="m 17.473922,-3.328625 c 0,-0.2226563 -0.05859,-0.3164063 -0.140625,-0.3164063 -0.04687,0 -0.128906,0.070312 -0.140625,0.2578125 -0.03516,0.9609375 -0.703125,1.5 -1.394531,1.5 -0.632813,0 -1.101563,-0.421875 -1.59375,-0.8554687 -0.503907,-0.4570313 -1.03125,-0.9140625 -1.699219,-0.9140625 -1.089844,0 -1.675781,1.1015625 -1.675781,2.0039062 0,0.3164063 0.128906,0.3164063 0.140625,0.3164063 0.105468,0 0.140625,-0.1992188 0.140625,-0.2226563 0.03516,-1.1015625 0.785156,-1.5351562 1.394531,-1.5351562 0.621094,0 1.101562,0.421875 1.59375,0.8554687 0.503906,0.4570313 1.019531,0.9140625 1.699219,0.9140625 1.089843,0 1.675781,-1.1015625 1.675781,-2.0039062 z m 0,0"
         style="fill:#000000;fill-opacity:1;fill-rule:nonzero;stroke:none" />
      <path
         id="path32"
         d="m 24.452438,-3.984875 h 0.855468 c 0.199219,0 0.304688,0 0.304688,-0.1992188 0,-0.1054687 -0.105469,-0.1054687 -0.269531,-0.1054687 h -0.832032 l 0.210938,-1.1367188 c 0.03516,-0.2109375 0.175781,-0.9140625 0.234375,-1.0429687 0.09375,-0.1875 0.257812,-0.3398438 0.46875,-0.3398438 0.04687,0 0.304687,0 0.492187,0.1875 -0.433593,0.035156 -0.539062,0.3867188 -0.539062,0.5390625 0,0.2226563 0.175781,0.3398438 0.363281,0.3398438 0.269531,0 0.550781,-0.2109375 0.550781,-0.5976563 0,-0.4570312 -0.457031,-0.6796875 -0.867187,-0.6796875 -0.339844,0 -0.960938,0.1757813 -1.265625,1.1601563 -0.05859,0.2109375 -0.08203,0.3164062 -0.328125,1.5703125 h -0.679688 c -0.199218,0 -0.304687,0 -0.304687,0.1875 0,0.1171875 0.09375,0.1171875 0.28125,0.1171875 h 0.65625 l -0.75,3.9375 c -0.175781,0.9609375 -0.339844,1.875 -0.867188,1.875 -0.03516,0 -0.28125,0 -0.46875,-0.1875 0.457032,-0.023437 0.539063,-0.3867188 0.539063,-0.5390625 0,-0.22265625 -0.175781,-0.33984375 -0.363281,-0.33984375 -0.257813,0 -0.550782,0.2109375 -0.550782,0.59765625 0,0.4453125 0.433594,0.6796875 0.84375,0.6796875 0.550782,0 0.949219,-0.5859375 1.125,-0.9609375 0.328125,-0.6328125 0.550782,-1.83984375 0.5625,-1.91015625 z m 0,0"
         style="fill:#000000;fill-opacity:1;fill-rule:nonzero;stroke:none" />
      <path
         id="path33"
         d="m 29.236617,-1.9047969 c 0,-0.7265625 -0.28125,-1.5117187 -0.960937,-1.5117187 -1.042969,0 -2.167969,1.875 -2.167969,3.46874997 0,0.83203125 0.328125,1.51171873 0.972656,1.51171873 1.054688,0 2.15625,-1.89843748 2.15625,-3.46875 z m -2.332031,0.8554688 c 0.351562,-1.5117188 0.949219,-2.1679688 1.359375,-2.1679688 0.445312,0 0.445312,0.7734375 0.445312,0.9023438 0,0.2695312 -0.04687,0.6796875 -0.199218,1.265625 z m 1.546875,0.24609372 c -0.199219,0.76171875 -0.363281,1.13671875 -0.5625,1.4765625 -0.222656,0.36328128 -0.503906,0.69140628 -0.808594,0.69140628 -0.386719,0 -0.445312,-0.52734378 -0.445312,-0.90234378 0,-0.45703125 0.128906,-1.0078125 0.199218,-1.265625 z m 0,0"
         style="fill:#000000;fill-opacity:1;fill-rule:nonzero;stroke:none" />
      <path
         id="path34"
         d="m 32.20732,-0.01221875 c 0,-0.65625 -0.257812,-1.04296875 -0.644531,-1.04296875 -0.328125,0 -0.527344,0.24609375 -0.527344,0.52734375 0,0.26953125 0.199219,0.52734375 0.527344,0.52734375 0.117188,0 0.246094,-0.03515625 0.351563,-0.12890625 0.02344,-0.0234375 0.03516,-0.0351563 0.04687,-0.0351563 0.01172,0 0.02344,0.0117188 0.02344,0.15234375 0,0.73828125 -0.351562,1.3359375 -0.679687,1.6640625 -0.105469,0.1054688 -0.105469,0.1289063 -0.105469,0.1640625 0,0.070312 0.04687,0.1054688 0.09375,0.1054688 0.117187,0 0.914062,-0.7617189 0.914062,-1.9335938 z M 42.464156,-4.9809688 c 0,-0.65625 -0.1875,-2.0390625 -1.195312,-2.0390625 -1.382813,0 -2.917969,2.8007813 -2.917969,5.0859375 0,0.93750005 0.28125,2.03906255 1.195313,2.03906255 1.40625,0 2.917968,-2.85937505 2.917968,-5.08593755 z m -3.058593,1.359375 c 0.164062,-0.6328125 0.363281,-1.4296875 0.761718,-2.1328125 0.269532,-0.4921875 0.644532,-1.0546875 1.089844,-1.0546875 0.492188,0 0.550781,0.6445313 0.550781,1.2070313 0,0.4921875 -0.08203,0.9960937 -0.328125,1.9804687 z m 1.992187,0.328125 c -0.117187,0.4570313 -0.316406,1.3007813 -0.703125,2.015625 -0.339844,0.67968755 -0.726562,1.17187505 -1.148437,1.17187505 -0.328125,0 -0.539063,-0.29296875 -0.539063,-1.21875005 0,-0.421875 0.05859,-0.9960937 0.316406,-1.96875 z m 0,0"
         style="fill:#000000;fill-opacity:1;fill-rule:nonzero;stroke:none" />
      <path
         id="path35"
         d="m 51.112594,-2.297375 c 0.164062,0 0.351562,0 0.351562,-0.1992188 0,-0.1992187 -0.1875,-0.1992187 -0.351562,-0.1992187 H 46.882125 C 47.011031,-4.0200313 48.14775,-4.9809688 49.554,-4.9809688 h 1.558594 c 0.164062,0 0.351562,0 0.351562,-0.1992187 0,-0.1992188 -0.1875,-0.1992188 -0.351562,-0.1992188 h -1.570313 c -1.710937,0 -3.058593,1.2890625 -3.058593,2.8828125 0,1.59375005 1.347656,2.8945313 3.058593,2.8945313 h 1.570313 c 0.164062,0 0.351562,0 0.351562,-0.19921875 C 51.464156,-5e-4 51.276656,-5e-4 51.112594,-5e-4 H 49.554 c -1.40625,0 -2.542969,-0.9609375 -2.671875,-2.296875 z m 0,0"
         style="fill:#000000;fill-opacity:1;fill-rule:nonzero;stroke:none" />
      <path
         id="path36"
         d="m 62.242477,-3.3755 c 0,-2.0390625 -1.5,-3.6445313 -3.316407,-3.6445313 -1.78125,0 -3.304687,1.59375 -3.304687,3.6445313 0,2.0390625 1.535156,3.59765625 3.304687,3.59765625 1.816407,0 3.316407,-1.58203125 3.316407,-3.59765625 z m -3.304688,3.36328125 c -0.984375,0 -2.355469,-0.85546875 -2.355469,-3.36328125 0,-2.5664063 1.382813,-3.4335938 2.34375,-3.4335938 1.007813,0 2.34375,0.9140625 2.34375,3.4335938 0,2.54296875 -1.394531,3.36328125 -2.332031,3.36328125 z M 60.70732,-4.1255 h -0.246093 v 0.3398437 H 57.402633 V -4.1255 h -0.246094 v 1.4296875 h 0.246094 v -0.328125 h 3.058594 v 0.328125 h 0.246093 z m 4.12793,4.11328125 c 0,-0.6328125 -0.246094,-1.04296875 -0.644531,-1.04296875 -0.351563,0 -0.527344,0.26953125 -0.527344,0.52734375 0,0.2578125 0.175781,0.52734375 0.527344,0.52734375 0.164062,0 0.28125,-0.05859375 0.375,-0.140625 l 0.02344,-0.0234375 c 0.01172,0 0.02344,0.0117188 0.02344,0.15234375 0,0.64453125 -0.28125,1.24218745 -0.714844,1.71093745 -0.05859,0.058594 -0.07031,0.070312 -0.07031,0.1171875 0,0.070312 0.04687,0.1054688 0.09375,0.1054688 0.117187,0 0.914062,-0.7851563 0.914062,-1.93359375 z m 0,0"
         style="fill:#000000;fill-opacity:1;fill-rule:nonzero;stroke:none" />
      <path
         id="path37"
         d="m 73.583297,-3.7505 c 0.01172,-0.070312 0.03516,-0.1171875 0.03516,-0.1875 0,-0.1640625 -0.117187,-0.2695313 -0.292969,-0.2695313 -0.09375,0 -0.363281,0.070312 -0.410156,0.4335938 -0.175781,-0.375 -0.527344,-0.6328125 -0.925781,-0.6328125 -1.136719,0 -2.367188,1.3945312 -2.367188,2.8359375 0,0.984375 0.609375,1.5703125 1.324219,1.5703125 0.585938,0 1.054688,-0.46875 1.160156,-0.57421875 L 72.118453,-0.563 c -0.210937,0.87890625 -0.328125,1.2890625 -0.328125,1.3125 -0.04687,0.0820313 -0.386719,1.078125 -1.441406,1.078125 -0.1875,0 -0.515625,-0.011719 -0.796875,-0.1054688 0.304687,-0.09375 0.410156,-0.3515625 0.410156,-0.515625 0,-0.1640625 -0.105469,-0.35156245 -0.375,-0.35156245 -0.222656,0 -0.539062,0.17578125 -0.539062,0.57421875 0,0.4101562 0.363281,0.609375 1.324218,0.609375 1.242188,0 1.957032,-0.7734375 2.109375,-1.37109375 z m -1.289063,2.4726562 c -0.05859,0.2578125 -0.292968,0.51562505 -0.503906,0.70312505 -0.210937,0.17578125 -0.527344,0.3515625 -0.808594,0.3515625 -0.503906,0 -0.65625,-0.515625 -0.65625,-0.91406255 0,-0.4804687 0.292969,-1.6523437 0.5625,-2.15625 0.269532,-0.4921875 0.703125,-0.890625 1.113282,-0.890625 0.65625,0 0.796875,0.8085938 0.796875,0.8554688 0,0.046875 -0.01172,0.1054687 -0.02344,0.1523437 z m 0,0"
         style="fill:#000000;fill-opacity:1;fill-rule:nonzero;stroke:none" />
      <path
         id="path38"
         d="m 77.298141,2.390125 c 0,-0.035156 0,-0.046875 -0.164063,-0.2226563 -1.242187,-1.2539062 -1.570312,-3.1289062 -1.570312,-4.6640625 0,-1.7226562 0.386718,-3.4570312 1.605468,-4.7109375 0.128907,-0.1171875 0.128907,-0.1289062 0.128907,-0.1640625 0,-0.070312 -0.03516,-0.1054687 -0.09375,-0.1054687 -0.105469,0 -0.996094,0.6796875 -1.582032,1.9453125 -0.515625,1.1015625 -0.632812,2.203125 -0.632812,3.0351562 0,0.7851563 0.117187,1.99218755 0.65625,3.11718755 0.597656,1.21874995 1.453125,1.87499995 1.558594,1.87499995 0.05859,0 0.09375,-0.035156 0.09375,-0.1054687 z m 0,0"
         style="fill:#000000;fill-opacity:1;fill-rule:nonzero;stroke:none" />
      <path
         id="path39"
         d="m 82.416305,-4.9809688 c 0,-0.65625 -0.1875,-2.0390625 -1.195313,-2.0390625 -1.382812,0 -2.917969,2.8007813 -2.917969,5.0859375 0,0.93750005 0.28125,2.03906255 1.195313,2.03906255 1.40625,0 2.917969,-2.85937505 2.917969,-5.08593755 z m -3.058594,1.359375 c 0.164062,-0.6328125 0.363281,-1.4296875 0.761719,-2.1328125 0.269531,-0.4921875 0.644531,-1.0546875 1.089843,-1.0546875 0.492188,0 0.550782,0.6445313 0.550782,1.2070313 0,0.4921875 -0.08203,0.9960937 -0.328125,1.9804687 z m 1.992187,0.328125 c -0.117187,0.4570313 -0.316406,1.3007813 -0.703125,2.015625 -0.339843,0.67968755 -0.726562,1.17187505 -1.148437,1.17187505 -0.328125,0 -0.539063,-0.29296875 -0.539063,-1.21875005 0,-0.421875 0.05859,-0.9960937 0.316407,-1.96875 z m 0,0"
         style="fill:#000000;fill-opacity:1;fill-rule:nonzero;stroke:none" />
      <path
         id="path40"
         d="m 85.718063,-2.4965938 c 0,-0.7734375 -0.117188,-1.9804687 -0.65625,-3.1054687 -0.597657,-1.21875 -1.464844,-1.875 -1.558594,-1.875 -0.05859,0 -0.105469,0.046875 -0.105469,0.1054687 0,0.035156 0,0.046875 0.199219,0.234375 0.972656,0.984375 1.535156,2.5664063 1.535156,4.640625 0,1.71093755 -0.363281,3.4570313 -1.59375,4.7226563 C 83.39775,2.34325 83.39775,2.3549687 83.39775,2.390125 c 0,0.058594 0.04687,0.1054687 0.105469,0.1054687 0.09375,0 0.996094,-0.6796875 1.582031,-1.94531245 0.503906,-1.1015625 0.632813,-2.20312505 0.632813,-3.04687505 z m 0,0"
         style="fill:#000000;fill-opacity:1;fill-rule:nonzero;stroke:none" />
    </g>
    <path
       id="path41"
       d="m 14.17339,14.5719 h -0.0022"
       style="fill:none;stroke:#000000;stroke-width:0.79701;stroke-linecap:butt;stroke-linejoin:miter;stroke-miterlimit:10;stroke-dasharray:none;stroke-opacity:1"
       transform="matrix(1.3333333,0,0,-1.3333333,49.336,38.858667)" />
    <path
       id="path42"
       d="m 14.17339,14.5719 h 0.0037"
       style="fill:none;stroke:#000000;stroke-width:0.79701;stroke-linecap:butt;stroke-linejoin:miter;stroke-miterlimit:10;stroke-dasharray:none;stroke-opacity:1"
       transform="matrix(1.3333333,0,0,-1.3333333,49.336,38.858667)" />
    <path
       id="path43"
       d="m 14.17339,14.5719 h 0.0035"
       style="fill:none;stroke:#000000;stroke-width:0.79701;stroke-linecap:butt;stroke-linejoin:miter;stroke-miterlimit:10;stroke-dasharray:none;stroke-opacity:1"
       transform="matrix(1.3333333,0,0,-1.3333333,49.336,38.858667)" />
    <path
       id="path44"
       d="M -14.17339,-28.74529 H 14.1734 V -0.3985 h -28.34679 z"
       style="fill:none;stroke:#000000;stroke-width:0.79701;stroke-linecap:butt;stroke-linejoin:miter;stroke-miterlimit:10;stroke-dasharray:none;stroke-opacity:1"
       transform="matrix(1.3333333,0,0,-1.3333333,49.336,38.858667)" />
    <g
       id="g44"
       aria-label="z&#10;1"
       transform="matrix(1.3333333,0,0,1.3333333,43.268,60.150667)">
      <path
         id="path45"
         d="M 1.3253672,-0.83077344 C 1.8644297,-1.4049922 2.1573984,-1.6510859 2.5089609,-1.9557734 c 0,-0.011719 0.6210938,-0.5390625 0.984375,-0.9023438 0.9375,-0.9257812 1.1601563,-1.40625 1.1601563,-1.4414062 0,-0.1054688 -0.09375,-0.1054688 -0.1054688,-0.1054688 -0.070312,0 -0.1054687,0.023437 -0.1523437,0.1171875 -0.3046875,0.46875 -0.5039063,0.6328125 -0.75,0.6328125 -0.234375,0 -0.3515625,-0.1523437 -0.5039063,-0.3164062 -0.1875,-0.234375 -0.3632812,-0.4335938 -0.6914062,-0.4335938 -0.75,0 -1.2070313,0.9257813 -1.2070313,1.1367188 0,0.046875 0.035156,0.1171875 0.1171875,0.1171875 0.09375,0 0.1171875,-0.058594 0.140625,-0.1171875 0.1875,-0.4570313 0.7617188,-0.46875 0.84375,-0.46875 0.2109375,0 0.3984375,0.070312 0.6210938,0.1523437 0.3984375,0.1523438 0.515625,0.1523438 0.7734375,0.1523438 -0.3632813,0.421875 -1.1953125,1.1367187 -1.3828125,1.3007812 l -0.9023438,0.8320313 c -0.67968746,0.66796871 -1.01953121,1.24218746 -1.01953121,1.31249996 0,0.09375 0.09375,0.09375 0.1171875,0.09375 0.0820313,0 0.09375,-0.01171875 0.15234375,-0.12890625 0.234375,-0.33984375 0.52734376,-0.609375 0.85546876,-0.609375 0.2226562,0 0.328125,0.0820313 0.5742187,0.375 0.1640625,0.2109375 0.3515625,0.36328125 0.6328125,0.36328125 0.984375,0 1.5703125,-1.26562496 1.5703125,-1.53515626 0,-0.046875 -0.046875,-0.09375 -0.1171875,-0.09375 -0.09375,0 -0.1171875,0.058594 -0.140625,0.1289063 -0.234375,0.64453121 -0.8671875,0.83203121 -1.1953125,0.83203121 -0.1992187,0 -0.3867187,-0.0585938 -0.5859375,-0.12890625 -0.3398437,-0.12890625 -0.4921875,-0.1640625 -0.703125,-0.1640625 -0.023437,0 -0.1757812,0 -0.2695312,0.0234375 z m 0,0"
         style="fill:#000000;fill-opacity:1;fill-rule:nonzero;stroke:none" />
      <path
         id="path46"
         d="m 6.9650156,-2.9342891 c 0,-0.1875 -0.011719,-0.1992187 -0.2109375,-0.1992187 -0.4453125,0.4335937 -1.078125,0.4453125 -1.359375,0.4453125 v 0.2460937 c 0.1640625,0 0.6210938,0 1.0078125,-0.1875 v 3.55078129 c 0,0.23437501 0,0.32812501 -0.6914062,0.32812501 H 5.4415781 v 0.2460937 c 0.1289063,-0.011719 0.984375,-0.023437 1.2421875,-0.023437 0.2109375,0 1.0898438,0.011719 1.2421875,0.023437 V 1.2493047 H 7.6681406 c -0.703125,0 -0.703125,-0.09375 -0.703125,-0.32812501 z m 0,0"
         style="fill:#000000;fill-opacity:1;fill-rule:nonzero;stroke:none" />
    </g>
    <path
       id="path47"
       d="M -14.17339,-28.74529 H 14.1734 V -0.3985 h -28.34679 z"
       style="fill:none;stroke:#000000;stroke-width:0.79701;stroke-linecap:butt;stroke-linejoin:miter;stroke-miterlimit:10;stroke-dasharray:none;stroke-opacity:1"
       transform="matrix(1.3333333,0,0,-1.3333333,49.336,38.858667)" />
    <g
       id="g47"
       aria-label="z&#10;2"
       transform="matrix(1.3333333,0,0,1.3333333,43.268,60.150667)">
      <path
         id="path48"
         d="M 1.3253672,-0.83077344 C 1.8644297,-1.4049922 2.1573984,-1.6510859 2.5089609,-1.9557734 c 0,-0.011719 0.6210938,-0.5390625 0.984375,-0.9023438 0.9375,-0.9257812 1.1601563,-1.40625 1.1601563,-1.4414062 0,-0.1054688 -0.09375,-0.1054688 -0.1054688,-0.1054688 -0.070312,0 -0.1054687,0.023437 -0.1523437,0.1171875 -0.3046875,0.46875 -0.5039063,0.6328125 -0.75,0.6328125 -0.234375,0 -0.3515625,-0.1523437 -0.5039063,-0.3164062 -0.1875,-0.234375 -0.3632812,-0.4335938 -0.6914062,-0.4335938 -0.75,0 -1.2070313,0.9257813 -1.2070313,1.1367188 0,0.046875 0.035156,0.1171875 0.1171875,0.1171875 0.09375,0 0.1171875,-0.058594 0.140625,-0.1171875 0.1875,-0.4570313 0.7617188,-0.46875 0.84375,-0.46875 0.2109375,0 0.3984375,0.070312 0.6210938,0.1523437 0.3984375,0.1523438 0.515625,0.1523438 0.7734375,0.1523438 -0.3632813,0.421875 -1.1953125,1.1367187 -1.3828125,1.3007812 l -0.9023438,0.8320313 c -0.67968746,0.66796871 -1.01953121,1.24218746 -1.01953121,1.31249996 0,0.09375 0.09375,0.09375 0.1171875,0.09375 0.0820313,0 0.09375,-0.01171875 0.15234375,-0.12890625 0.234375,-0.33984375 0.52734376,-0.609375 0.85546876,-0.609375 0.2226562,0 0.328125,0.0820313 0.5742187,0.375 0.1640625,0.2109375 0.3515625,0.36328125 0.6328125,0.36328125 0.984375,0 1.5703125,-1.26562496 1.5703125,-1.53515626 0,-0.046875 -0.046875,-0.09375 -0.1171875,-0.09375 -0.09375,0 -0.1171875,0.058594 -0.140625,0.1289063 -0.234375,0.64453121 -0.8671875,0.83203121 -1.1953125,0.83203121 -0.1992187,0 -0.3867187,-0.0585938 -0.5859375,-0.12890625 -0.3398437,-0.12890625 -0.4921875,-0.1640625 -0.703125,-0.1640625 -0.023437,0 -0.1757812,0 -0.2695312,0.0234375 z m 0,0"
         style="fill:#000000;fill-opacity:1;fill-rule:nonzero;stroke:none" />
      <path
         id="path49"
         d="m 8.1486094,0.22977344 h -0.234375 c -0.023437,0.15234375 -0.082031,0.5625 -0.1757813,0.6328125 -0.058594,0.0351563 -0.5976562,0.0351563 -0.6914062,0.0351563 H 5.7579844 c 0.7382812,-0.64453125 0.984375,-0.84375 1.3945312,-1.171875 0.515625,-0.41015625 0.9960938,-0.84374994 0.9960938,-1.50000004 0,-0.84375 -0.7382813,-1.359375 -1.6289063,-1.359375 -0.8671875,0 -1.453125,0.609375 -1.453125,1.2421875 0,0.3632813 0.3046875,0.3984375 0.375,0.3984375 0.1640625,0 0.375,-0.1171875 0.375,-0.375 0,-0.1289062 -0.058594,-0.3632813 -0.421875,-0.3632813 0.2226563,-0.5039062 0.6914063,-0.65625 1.0195313,-0.65625 0.703125,0 1.0664062,0.5507813 1.0664062,1.1132813 0,0.609375 -0.4335937,1.08984379 -0.65625,1.33593754 l -1.6875,1.66406246 c -0.070312,0.058594 -0.070312,0.070312 -0.070312,0.2695312 h 2.8828125 z m 0,0"
         style="fill:#000000;fill-opacity:1;fill-rule:nonzero;stroke:none" />
    </g>
    <path
       id="path50"
       d="m 1.9097422,-0.52728125 c 0,-0.29296875 -0.234375,-0.52734375 -0.5273438,-0.52734375 -0.28125,0 -0.52734371,0.234375 -0.52734371,0.52734375 0,0.29296875 0.24609371,0.52734375 0.52734371,0.52734375 0.2929688,0 0.5273438,-0.234375 0.5273438,-0.52734375 z m 2.7685547,0 c 0,-0.29296875 -0.234375,-0.52734375 -0.5273438,-0.52734375 -0.28125,0 -0.5273437,0.234375 -0.5273437,0.52734375 0,0.29296875 0.2460937,0.52734375 0.5273437,0.52734375 0.2929688,0 0.5273438,-0.234375 0.5273438,-0.52734375 z m 2.765625,0 c 0,-0.29296875 -0.234375,-0.52734375 -0.5273438,-0.52734375 -0.28125,0 -0.5273437,0.234375 -0.5273437,0.52734375 0,0.29296875 0.2460937,0.52734375 0.5273437,0.52734375 0.2929688,0 0.5273438,-0.234375 0.5273438,-0.52734375 z m 0,0"
       style="fill:#000000;fill-opacity:1;fill-rule:nonzero;stroke:none"
       aria-label="..."
       transform="matrix(1.3333333,0,0,1.3333333,43.801333,45.218667)" />
    <path
       id="path51"
       d="M -14.17339,-28.74529 H 14.1734 V -0.3985 h -28.34679 z"
       style="fill:none;stroke:#000000;stroke-width:0.79701;stroke-linecap:butt;stroke-linejoin:miter;stroke-miterlimit:10;stroke-dasharray:none;stroke-opacity:1"
       transform="matrix(1.3333333,0,0,-1.3333333,49.336,38.858667)" />
    <g
       id="g51"
       aria-label="z&#10;n"
       transform="matrix(1.3333333,0,0,1.3333333,42.632,60.150667)">
      <path
         id="path52"
         d="M 1.3248281,-0.83077344 C 1.8638906,-1.4049922 2.1568594,-1.6510859 2.5084219,-1.9557734 c 0,-0.011719 0.6210937,-0.5390625 0.984375,-0.9023438 0.9375,-0.9257812 1.1601562,-1.40625 1.1601562,-1.4414062 0,-0.1054688 -0.09375,-0.1054688 -0.1054687,-0.1054688 -0.070312,0 -0.1054688,0.023437 -0.1523438,0.1171875 -0.3046875,0.46875 -0.5039062,0.6328125 -0.75,0.6328125 -0.234375,0 -0.3515625,-0.1523437 -0.5039062,-0.3164062 -0.1875,-0.234375 -0.3632813,-0.4335938 -0.6914063,-0.4335938 -0.75,0 -1.2070312,0.9257813 -1.2070312,1.1367188 0,0.046875 0.035156,0.1171875 0.1171875,0.1171875 0.09375,0 0.1171875,-0.058594 0.140625,-0.1171875 0.1875,-0.4570313 0.7617187,-0.46875 0.84375,-0.46875 0.2109375,0 0.3984375,0.070312 0.6210937,0.1523437 0.3984375,0.1523438 0.515625,0.1523438 0.7734375,0.1523438 -0.3632812,0.421875 -1.1953125,1.1367187 -1.3828125,1.3007812 l -0.9023437,0.8320313 c -0.67968752,0.66796871 -1.01953127,1.24218746 -1.01953127,1.31249996 0,0.09375 0.09375,0.09375 0.1171875,0.09375 0.0820313,0 0.09375,-0.01171875 0.15234375,-0.12890625 0.234375,-0.33984375 0.52734372,-0.609375 0.85546872,-0.609375 0.2226563,0 0.328125,0.0820313 0.5742188,0.375 0.1640625,0.2109375 0.3515625,0.36328125 0.6328125,0.36328125 0.984375,0 1.5703125,-1.26562496 1.5703125,-1.53515626 0,-0.046875 -0.046875,-0.09375 -0.1171875,-0.09375 -0.09375,0 -0.1171875,0.058594 -0.140625,0.1289063 -0.234375,0.64453121 -0.8671875,0.83203121 -1.1953125,0.83203121 -0.1992188,0 -0.3867188,-0.0585938 -0.5859375,-0.12890625 -0.3398438,-0.12890625 -0.4921875,-0.1640625 -0.703125,-0.1640625 -0.023437,0 -0.1757813,0 -0.2695313,0.0234375 z m 0,0"
         style="fill:#000000;fill-opacity:1;fill-rule:nonzero;stroke:none" />
      <path
         id="path53"
         d="m 5.4879141,1.0618047 c -0.035156,0.082031 -0.070312,0.2578125 -0.070312,0.28125 0,0.1523437 0.1171875,0.2226562 0.234375,0.2226562 0.1289062,0 0.234375,-0.09375 0.2695312,-0.1523437 0.035156,-0.058594 0.09375,-0.2929688 0.1289063,-0.43359376 0.035156,-0.12890625 0.1054687,-0.45703125 0.1523437,-0.6328125 0.035156,-0.15234375 0.082031,-0.3046875 0.1171875,-0.45703125 0.082031,-0.29296875 0.09375,-0.3515625 0.2929688,-0.6328125 0.1992187,-0.28124999 0.5273437,-0.64453129 1.0429687,-0.64453129 0.4101563,0 0.4101563,0.3632813 0.4101563,0.49218754 0,0.421875 -0.2929688,1.1953125 -0.4101563,1.48828125 -0.070312,0.1875 -0.1054687,0.2578125 -0.1054687,0.375 0,0.36328121 0.3046875,0.59765621 0.6679687,0.59765621 0.6914063,0 1.0078125,-0.96093746 1.0078125,-1.06640621 0,-0.09375 -0.09375,-0.09375 -0.1171875,-0.09375 -0.09375,0 -0.1054687,0.046875 -0.1289062,0.1171875 -0.1640625,0.56250001 -0.46875,0.84375001 -0.7382813,0.84375001 -0.1523437,0 -0.1757812,-0.09375 -0.1757812,-0.2460938 0,-0.15234371 0.035156,-0.24609371 0.1523437,-0.56249996 0.09375,-0.2109375 0.375,-0.94921875 0.375,-1.34765625 0,-0.66796879 -0.5390625,-0.78515629 -0.9023437,-0.78515629 -0.5859375,0 -0.9726563,0.3515625 -1.1835938,0.63281254 -0.046875,-0.48046874 -0.4570312,-0.63281254 -0.75,-0.63281254 -0.2929687,0 -0.4570312,0.2109375 -0.5507812,0.375 -0.1523438,0.25781254 -0.2460938,0.65625004 -0.2460938,0.69140629 0,0.0820313 0.09375,0.0820313 0.1171875,0.0820313 0.09375,0 0.1054688,-0.0117188 0.1523438,-0.19921875 0.1054687,-0.42187494 0.234375,-0.76171874 0.515625,-0.76171874 0.1757812,0 0.2226562,0.1523438 0.2226562,0.3398438 0,0.14062494 -0.058594,0.39843744 -0.1054687,0.58593744 -0.046875,0.1875 -0.1171875,0.46875 -0.1523438,0.62109375 z m 0,0"
         style="fill:#000000;fill-opacity:1;fill-rule:nonzero;stroke:none" />
    </g>
    <path
       id="path54"
       d="M 0,0 V 0"
       style="fill:none;stroke:#000000;stroke-width:0.79701;stroke-linecap:butt;stroke-linejoin:miter;stroke-miterlimit:10;stroke-dasharray:none;stroke-opacity:1"
       transform="matrix(1.3333333,0,0,-1.3333333,49.336,38.858667)" />
    <path
       id="path55"
       d="m 0,-14.57042 14.5719,5.73514"
       style="fill:none;stroke:#000000;stroke-width:0.79701;stroke-linecap:butt;stroke-linejoin:miter;stroke-miterlimit:10;stroke-dasharray:none;stroke-opacity:1"
       transform="matrix(1.3333333,0,0,-1.3333333,49.336,38.858667)" />
    <path
       id="path56"
       d="m 0,-14.5706 14.5719,5.66394"
       style="fill:none;stroke:#000000;stroke-width:0.79701;stroke-linecap:butt;stroke-linejoin:miter;stroke-miterlimit:10;stroke-dasharray:none;stroke-opacity:1"
       transform="matrix(1.3333333,0,0,-1.3333333,49.336,38.858667)" />
    <path
       id="path57"
       d="m 4.7213828,-6.6928438 c -0.1054687,-0.2578125 -0.234375,-0.2578125 -0.3984375,-0.2578125 -0.28125,0 -0.3164062,0.070312 -0.3867187,0.2578125 l -2.4726563,5.9882813 c -0.058594,0.15234375 -0.09375,0.234375 -0.84374999,0.234375 h -0.2109375 v 0.46875 c 0.375,-0.01171875 0.85546879,-0.03515625 1.16015629,-0.03515625 0.3867187,0 0.9492187,0 1.3242187,0.03515625 v -0.46875 c -0.023437,0 -0.890625,0 -0.890625,-0.12890625 0,-0.0117188 0.023437,-0.10546875 0.035156,-0.1171875 L 2.5416953,-1.9233125 h 2.671875 l 0.5976563,1.453125 H 4.8620078 v 0.46875 c 0.375,-0.03515625 1.3242188,-0.03515625 1.7460938,-0.03515625 0.3984375,0 1.2773437,0 1.6289062,0.03515625 v -0.46875 H 7.2760703 Z m -0.84375,1.5351563 1.1367188,2.765625 H 2.7409141 Z m 5.9208985,1.6054687 v 3.0820313 H 9.107125 v 0.46875 c 0.28125,-0.01171875 0.8789063,-0.03515625 1.253906,-0.03515625 0.398438,0 0.984375,0.0234375 1.253907,0.03515625 v -0.46875 H 10.93525 V -2.556125 c 0,-1.078125 0.867188,-1.5703125 1.476563,-1.5703125 0.339843,0 0.5625,0.1992187 0.5625,0.9726562 v 2.6835938 h -0.691407 v 0.46875 c 0.28125,-0.01171875 0.878907,-0.03515625 1.265625,-0.03515625 0.386719,0 0.972657,0.0234375 1.253907,0.03515625 v -0.46875 H 14.111031 V -2.556125 c 0,-1.078125 0.867188,-1.5703125 1.488282,-1.5703125 0.339843,0 0.550781,0.1992187 0.550781,0.9726562 v 2.6835938 h -0.679688 v 0.46875 c 0.269532,-0.01171875 0.867188,-0.03515625 1.253907,-0.03515625 0.386718,0 0.972656,0.0234375 1.253906,0.03515625 v -0.46875 h -0.691406 v -2.578125 c 0,-1.03125 -0.503907,-1.4414063 -1.535157,-1.4414063 -0.902343,0 -1.417968,0.5039063 -1.675781,0.9609375 -0.199219,-0.9257812 -1.125,-0.9609375 -1.5,-0.9609375 -0.867187,0 -1.429687,0.4570313 -1.757812,1.078125 v -1.078125 l -1.710938,0.082031 v 0.46875 c 0.6210938,0 0.6914063,0 0.6914063,0.386719 z m 13.8134767,1.3828125 c 0,-1.3359375 -0.914063,-2.34375 -2.542969,-2.34375 -1.628906,0 -2.542969,1.0195313 -2.542969,2.34375 0,1.2304688 0.878907,2.22656255 2.542969,2.22656255 1.675781,0 2.542969,-1.0078125 2.542969,-2.22656255 z m -2.542969,1.82812505 c -1.265625,0 -1.265625,-1.07812505 -1.265625,-1.94531255 0,-0.4453125 0,-0.9492187 0.164063,-1.2890625 0.199218,-0.375 0.609375,-0.5742187 1.101562,-0.5742187 0.421875,0 0.832031,0.1523437 1.054688,0.5039062 0.210937,0.3398438 0.210937,0.890625 0.210937,1.359375 0,0.8671875 0,1.94531255 -1.265625,1.94531255 z m 4.96582,-2.58984375 c -0.363281,-0.070312 -1.007812,-0.1757813 -1.007812,-0.6445313 0,-0.6210937 0.925781,-0.6210937 1.113281,-0.6210937 0.75,0 1.125,0.2929687 1.171875,0.84375 0.01172,0.140625 0.02344,0.1992187 0.234375,0.1992187 0.234375,0 0.234375,-0.058594 0.234375,-0.28125 v -0.796875 c 0,-0.1875 0,-0.28125 -0.175781,-0.28125 -0.04687,0 -0.05859,0 -0.445313,0.1875 -0.269531,-0.1289062 -0.609375,-0.1875 -1.007812,-0.1875 -0.304688,0 -1.839844,0 -1.839844,1.3007813 0,0.3984375 0.199219,0.6679687 0.398438,0.84375 0.398437,0.3398437 0.785156,0.4101562 1.546875,0.5390625 0.363281,0.070312 1.101562,0.1992187 1.101562,0.7851562 0,0.7382813 -0.914062,0.7382813 -1.125,0.7382813 -1.066406,0 -1.324219,-0.7265625 -1.441406,-1.1484375 -0.04687,-0.140625 -0.09375,-0.140625 -0.234375,-0.140625 -0.246094,0 -0.246094,0.058594 -0.246094,0.2929687 v 1.07812505 c 0,0.1875 0,0.28125 0.1875,0.28125 0.07031,0 0.08203,0 0.292969,-0.15234375 0.01172,0 0.234375,-0.140625 0.257812,-0.1640625 0.457032,0.31640625 0.984375,0.31640625 1.183594,0.31640625 0.304688,0 1.839844,0 1.839844,-1.45312505 0,-0.4335937 -0.199219,-0.7734375 -0.550781,-1.0546875 -0.386719,-0.2929687 -0.703125,-0.3515625 -1.488282,-0.4804687 z m 3.451172,-1.0195313 v 2.71875 c 0,1.0664063 0.867188,1.28906255 1.570313,1.28906255 0.75,0 1.207031,-0.5625 1.207031,-1.28906255 V -1.75925 h -0.46875 v 0.5039062 c 0,0.67968755 -0.316406,0.91406255 -0.597656,0.91406255 -0.585938,0 -0.585938,-0.6328125 -0.585938,-0.86718755 v -2.7421875 h 1.464844 v -0.46875 H 30.611031 V -6.3295625 H 30.154 c -0.01172,0.9960937 -0.503906,1.9804687 -1.488281,2.015625 v 0.3632812 z M 34.93818,-3.353 v -1.1367188 l -1.664063,0.082031 v 0.46875 c 0.621094,0 0.691406,0 0.691406,0.3867187 v 3.0820313 h -0.691406 v 0.46875 c 0.351563,-0.01171875 0.796875,-0.03515625 1.265625,-0.03515625 0.375,0 1.007813,0 1.371094,0.03515625 v -0.46875 h -0.867188 v -1.7460938 c 0,-0.6914062 0.246094,-1.9101562 1.242188,-1.9101562 -0.01172,0.011719 -0.1875,0.1757812 -0.1875,0.4570312 0,0.4101563 0.316406,0.609375 0.609375,0.609375 0.292969,0 0.609375,-0.2109375 0.609375,-0.609375 0,-0.5273437 -0.539063,-0.8203125 -1.054688,-0.8203125 -0.703125,0 -1.101562,0.5039063 -1.324218,1.1367191 z m 6.418945,2.58984375 c 0,0.3046875 0,0.76171875 1.03125,0.76171875 h 0.480469 c 0.199219,0 0.316406,0 0.316406,-0.234375 0,-0.234375 -0.128906,-0.234375 -0.257812,-0.234375 -0.609375,-0.0117188 -0.609375,-0.140625 -0.609375,-0.36328125 V -2.978 c 0,-0.890625 -0.703125,-1.5351563 -2.191407,-1.5351563 -0.5625,0 -1.78125,0.035156 -1.78125,0.9140625 0,0.4453125 0.351563,0.6328125 0.621094,0.6328125 0.304688,0 0.621094,-0.2109375 0.621094,-0.6328125 0,-0.2929687 -0.1875,-0.46875 -0.210938,-0.4921875 0.28125,-0.058594 0.597657,-0.058594 0.714844,-0.058594 0.75,0 1.089844,0.4101562 1.089844,1.171875 v 0.3398437 c -0.703125,0.023437 -3.234375,0.1171875 -3.234375,1.5585938 0,0.9609375 1.242187,1.13671875 1.921875,1.13671875 0.796875,0 1.265625,-0.41015625 1.488281,-0.8203122 z M 41.181344,-2.3334688 V -1.38425 c 0,0.94921875 -0.914063,1.078125 -1.160156,1.078125 -0.503907,0 -0.902344,-0.33984375 -0.902344,-0.7851563 0,-1.0664062 1.570312,-1.2070312 2.0625,-1.2421875 z m 11.235351,0.1640625 c 0,-1.3359375 -0.914062,-2.34375 -2.542968,-2.34375 -1.628907,0 -2.542969,1.0195313 -2.542969,2.34375 0,1.2304688 0.878906,2.22656255 2.542969,2.22656255 1.675781,0 2.542968,-1.0078125 2.542968,-2.22656255 z m -2.542968,1.82812505 c -1.265625,0 -1.265625,-1.07812505 -1.265625,-1.94531255 0,-0.4453125 0,-0.9492187 0.164062,-1.2890625 0.199219,-0.375 0.609375,-0.5742187 1.101563,-0.5742187 0.421875,0 0.832031,0.1523437 1.054687,0.5039062 0.210938,0.3398438 0.210938,0.890625 0.210938,1.359375 0,0.8671875 0,1.94531255 -1.265625,1.94531255 z M 54.874703,-3.9975313 V -6.9155 l -1.769531,0.082031 v 0.46875 c 0.621094,0 0.691406,0 0.691406,0.3867188 v 5.9765625 h 0.46875 l 0.492188,-0.5625 c 0.08203,0.0820313 0.5625,0.62109375 1.453125,0.62109375 1.476562,0 2.507812,-0.890625 2.507812,-2.28515625 0,-1.3242188 -0.9375,-2.2617188 -2.378906,-2.2617188 -0.726563,0 -1.230469,0.2929688 -1.464844,0.4921877 z m 0.05859,3.0117188 V -3.493625 c 0.269531,-0.3398438 0.75,-0.6328125 1.300781,-0.6328125 1.207031,0 1.207031,1.2070312 1.207031,1.8984375 0,0.46875 0,1.0195312 -0.257812,1.40625 -0.292969,0.41015625 -0.75,0.515625 -1.066406,0.515625 -0.691407,0 -1.078125,-0.52734375 -1.183594,-0.6796875 z m 6.272461,-1.9453125 c -0.363281,-0.070312 -1.007813,-0.1757813 -1.007813,-0.6445313 0,-0.6210937 0.925782,-0.6210937 1.113282,-0.6210937 0.75,0 1.125,0.2929687 1.171875,0.84375 0.01172,0.140625 0.02344,0.1992187 0.234375,0.1992187 0.234375,0 0.234375,-0.058594 0.234375,-0.28125 v -0.796875 c 0,-0.1875 0,-0.28125 -0.175782,-0.28125 -0.04687,0 -0.05859,0 -0.445312,0.1875 -0.269531,-0.1289062 -0.609375,-0.1875 -1.007813,-0.1875 -0.304687,0 -1.839843,0 -1.839843,1.3007813 0,0.3984375 0.199218,0.6679687 0.398437,0.84375 0.398438,0.3398437 0.785156,0.4101562 1.546875,0.5390625 0.363281,0.070312 1.101563,0.1992187 1.101563,0.7851562 0,0.7382813 -0.914063,0.7382813 -1.125,0.7382813 -1.066407,0 -1.324219,-0.7265625 -1.441407,-1.1484375 -0.04687,-0.140625 -0.09375,-0.140625 -0.234375,-0.140625 -0.246093,0 -0.246093,0.058594 -0.246093,0.2929687 v 1.07812505 c 0,0.1875 0,0.28125 0.1875,0.28125 0.07031,0 0.08203,0 0.292968,-0.15234375 0.01172,0 0.234375,-0.140625 0.257813,-0.1640625 0.457031,0.31640625 0.984375,0.31640625 1.183594,0.31640625 0.304687,0 1.839843,0 1.839843,-1.45312505 0,-0.4335937 -0.199218,-0.7734375 -0.550781,-1.0546875 C 62.30732,-2.743625 61.990914,-2.8022188 61.205758,-2.931125 Z m 7.02539,0.7617187 c 0.210938,0 0.316407,0 0.316407,-0.2695312 0,-0.3164063 -0.05859,-1.0429688 -0.5625,-1.5351563 -0.363282,-0.3632812 -0.890625,-0.5390625 -1.582032,-0.5390625 -1.59375,0 -2.460937,1.0195313 -2.460937,2.2734375 0,1.33593755 0.996094,2.29687505 2.601562,2.29687505 1.570313,0 2.003907,-1.0546875 2.003907,-1.21875005 0,-0.1875 -0.1875,-0.1875 -0.234375,-0.1875 -0.175782,0 -0.199219,0.046875 -0.257813,0.2109375 -0.210937,0.4804688 -0.773437,0.79687505 -1.417969,0.79687505 -1.40625,0 -1.417968,-1.32421875 -1.417968,-1.82812505 z m -3.011718,-0.328125 c 0.02344,-0.3984375 0.03516,-0.8085937 0.234375,-1.1367187 0.269531,-0.3984375 0.667968,-0.515625 0.949218,-0.515625 1.171875,0 1.183594,1.3007812 1.195313,1.6523437 z M 70.905953,-3.353 v -1.1367188 l -1.664062,0.082031 v 0.46875 c 0.621093,0 0.691406,0 0.691406,0.3867187 v 3.0820313 h -0.691406 v 0.46875 c 0.351562,-0.01171875 0.796875,-0.03515625 1.265625,-0.03515625 0.375,0 1.007812,0 1.371093,0.03515625 v -0.46875 h -0.867187 v -1.7460938 c 0,-0.6914062 0.246094,-1.9101562 1.242187,-1.9101562 -0.01172,0.011719 -0.1875,0.1757812 -0.1875,0.4570312 0,0.4101563 0.316407,0.609375 0.609375,0.609375 0.292969,0 0.609375,-0.2109375 0.609375,-0.609375 0,-0.5273437 -0.539062,-0.8203125 -1.054687,-0.8203125 -0.703125,0 -1.101563,0.5039063 -1.324219,1.1367191 z m 7.728516,-0.3984375 c 0.05859,-0.140625 0.105468,-0.1992188 0.738281,-0.1992188 v -0.46875 c -0.246094,0.011719 -0.539063,0.023437 -0.785156,0.023437 -0.246094,0 -0.703125,-0.023437 -0.902344,-0.023437 v 0.46875 c 0.1875,0 0.46875,0.023437 0.46875,0.1054688 0,0.011719 -0.01172,0.023437 -0.04687,0.1171875 l -1.160156,2.4960937 -1.253907,-2.71875 h 0.527344 v -0.46875 c -0.328125,0.011719 -1.21875,0.023437 -1.230469,0.023437 -0.28125,0 -0.726562,-0.023437 -1.136718,-0.023437 v 0.46875 h 0.644531 l 1.734375,3.7382813 c 0.117187,0.24609375 0.257812,0.24609375 0.386719,0.24609375 0.164062,0 0.269531,-0.0234375 0.363281,-0.234375 z m 4.107422,2.98828125 c 0,0.3046875 0,0.76171875 1.03125,0.76171875 h 0.480468 c 0.199219,0 0.316407,0 0.316407,-0.234375 0,-0.234375 -0.128907,-0.234375 -0.257813,-0.234375 -0.609375,-0.0117188 -0.609375,-0.140625 -0.609375,-0.36328125 V -2.978 c 0,-0.890625 -0.703125,-1.5351563 -2.191406,-1.5351563 -0.5625,0 -1.78125,0.035156 -1.78125,0.9140625 0,0.4453125 0.351562,0.6328125 0.621094,0.6328125 0.304687,0 0.621093,-0.2109375 0.621093,-0.6328125 0,-0.2929687 -0.1875,-0.46875 -0.210937,-0.4921875 0.28125,-0.058594 0.597656,-0.058594 0.714844,-0.058594 0.75,0 1.089843,0.4101562 1.089843,1.171875 v 0.3398437 c -0.703125,0.023437 -3.234375,0.1171875 -3.234375,1.5585938 0,0.9609375 1.242188,1.13671875 1.921875,1.13671875 0.796875,0 1.265625,-0.41015625 1.488282,-0.8203122 z M 82.566109,-2.3334688 V -1.38425 c 0,0.94921875 -0.914062,1.078125 -1.160156,1.078125 -0.503906,0 -0.902344,-0.33984375 -0.902344,-0.7851563 0,-1.0664062 1.570313,-1.2070312 2.0625,-1.2421875 z m 6.178711,1.89843755 v 0.4921875 l 1.828125,-0.05859375 v -0.46875 c -0.621093,0 -0.691406,0 -0.691406,-0.38671875 V -6.9155 l -1.757812,0.082031 v 0.46875 c 0.609375,0 0.679687,0 0.679687,0.3867188 v 1.9453125 c -0.492187,-0.3867188 -1.007812,-0.4570313 -1.335937,-0.4570313 -1.453125,0 -2.507813,0.8789063 -2.507813,2.2851563 0,1.3125 0.925781,2.26171875 2.390625,2.26171875 0.609375,0 1.089844,-0.234375 1.394531,-0.4921873 z m 0,-3.08203125 v 2.484375 c -0.128906,0.1875 -0.539062,0.7265625 -1.289062,0.7265625 -1.21875,0 -1.21875,-1.1953125 -1.21875,-1.8984375 0,-0.4804688 0,-1.0195313 0.257812,-1.40625 0.292969,-0.4101563 0.761719,-0.515625 1.066407,-0.515625 0.574218,0 0.972656,0.3164062 1.183593,0.609375 z m 5.932617,2.75390625 c 0,0.3046875 0,0.76171875 1.03125,0.76171875 h 0.480469 c 0.199219,0 0.316406,0 0.316406,-0.234375 0,-0.234375 -0.128906,-0.234375 -0.257812,-0.234375 -0.609375,-0.0117188 -0.609375,-0.140625 -0.609375,-0.36328125 V -2.978 c 0,-0.890625 -0.703125,-1.5351563 -2.191406,-1.5351563 -0.5625,0 -1.78125,0.035156 -1.78125,0.9140625 0,0.4453125 0.351562,0.6328125 0.621093,0.6328125 0.304688,0 0.621094,-0.2109375 0.621094,-0.6328125 0,-0.2929687 -0.1875,-0.46875 -0.210937,-0.4921875 0.28125,-0.058594 0.597656,-0.058594 0.714843,-0.058594 0.75,0 1.089844,0.4101562 1.089844,1.171875 v 0.3398437 c -0.703125,0.023437 -3.234375,0.1171875 -3.234375,1.5585938 0,0.9609375 1.242188,1.13671875 1.921875,1.13671875 0.796875,0 1.265625,-0.41015625 1.488281,-0.8203122 z M 94.501656,-2.3334688 V -1.38425 c 0,0.94921875 -0.914062,1.078125 -1.160156,1.078125 -0.503906,0 -0.902344,-0.33984375 -0.902344,-0.7851563 0,-1.0664062 1.570313,-1.2070312 2.0625,-1.2421875 z m 0,0"
       style="fill:#000000;fill-opacity:1;fill-rule:nonzero;stroke:none"
       aria-label="Amostraobservada"
       transform="matrix(1.3333333,0,0,1.3333333,54.294667,43.470667)" />
    <path
       id="path58"
       d="m 7.3698203,-6.1398594 c 0.058594,-0.140625 0.1054688,-0.2226562 0.8320313,-0.2226562 h 0.1875 v -0.46875 c -0.3867188,0.011719 -0.8554688,0.023437 -1.125,0.023437 -0.3984375,0 -0.9257813,0 -1.3125,-0.023437 v 0.46875 c 0.09375,0 0.8789062,0 0.8789062,0.1171875 0,0.035156 -0.023437,0.09375 -0.035156,0.1171875 L 4.7799768,-1.5929844 2.658883,-6.3625156 h 0.9375 v -0.46875 c -0.375,0.023437 -1.3359375,0.023437 -1.7695312,0.023437 -0.3867188,0 -1.21875004,0 -1.57031254,-0.023437 v 0.46875 H 1.1706016 l 2.7539062,6.18749997 c 0.082031,0.175781255 0.1171875,0.2578125 0.3984375,0.2578125 0.1640625,0 0.2929688,0 0.3984375,-0.24609375 z m 4.9394527,3.9726563 c 0.210938,0 0.316407,0 0.316407,-0.2695313 0,-0.3164062 -0.05859,-1.0429687 -0.5625,-1.5351562 -0.363282,-0.3632813 -0.890625,-0.5390625 -1.582032,-0.5390625 -1.5937496,0 -2.4609371,1.0195312 -2.4609371,2.2734375 0,1.33593747 0.9960938,2.29687497 2.6015621,2.29687497 1.570313,0 2.003907,-1.0546875 2.003907,-1.21874997 0,-0.1875 -0.1875,-0.1875 -0.234375,-0.1875 -0.175782,0 -0.199219,0.046875 -0.257813,0.2109375 -0.210937,0.48046872 -0.773437,0.79687497 -1.417969,0.79687497 -1.4062496,0 -1.4179683,-1.32421877 -1.4179683,-1.82812497 z m -3.0117183,-0.328125 c 0.023437,-0.3984375 0.035156,-0.8085938 0.234375,-1.1367188 0.2695312,-0.3984375 0.6679683,-0.515625 0.9492183,-0.515625 1.171875,0 1.183594,1.3007813 1.195313,1.6523438 z m 4.6904293,-1.453125 v 2.71875 c 0,1.06640622 0.867188,1.28906247 1.570313,1.28906247 0.75,0 1.207031,-0.5625 1.207031,-1.28906247 v -0.5273438 h -0.46875 v 0.5039063 c 0,0.67968747 -0.316406,0.91406247 -0.597656,0.91406247 -0.585938,0 -0.585938,-0.6328125 -0.585938,-0.86718747 v -2.7421875 h 1.464844 v -0.46875 h -1.464844 v -1.9101563 h -0.457031 c -0.01172,0.9960938 -0.503906,1.9804688 -1.488281,2.015625 v 0.3632813 z m 8.827149,1.78125 c 0,-1.3359375 -0.914063,-2.34375 -2.542969,-2.34375 -1.628906,0 -2.542969,1.0195312 -2.542969,2.34375 0,1.23046872 0.878907,2.22656247 2.542969,2.22656247 1.675781,0 2.542969,-1.0078125 2.542969,-2.22656247 z m -2.542969,1.82812497 c -1.265625,0 -1.265625,-1.07812497 -1.265625,-1.94531247 0,-0.4453125 0,-0.9492188 0.164063,-1.2890625 0.199218,-0.375 0.609375,-0.5742188 1.101562,-0.5742188 0.421875,0 0.832031,0.1523438 1.054688,0.5039063 0.210937,0.3398437 0.210937,0.890625 0.210937,1.359375 0,0.8671875 0,1.94531247 -1.265625,1.94531247 z m 4.895508,-3.01171877 v -1.1367187 l -1.664063,0.082031 v 0.46875 c 0.621094,0 0.691407,0 0.691407,0.3867188 v 3.08203122 H 23.503609 V 7.65625e-4 c 0.351563,-0.011718755 0.796875,-0.035156255 1.265625,-0.035156255 0.375,0 1.007813,0 1.371094,0.035156255 V -0.46798438 H 25.273141 V -2.2140781 c 0,-0.6914063 0.246093,-1.9101563 1.242187,-1.9101563 -0.01172,0.011719 -0.1875,0.1757813 -0.1875,0.4570313 0,0.4101562 0.316406,0.609375 0.609375,0.609375 0.292969,0 0.609375,-0.2109375 0.609375,-0.609375 0,-0.5273438 -0.539062,-0.8203125 -1.054687,-0.8203125 -0.703125,0 -1.101563,0.5039062 -1.324219,1.1367187 z m 10.242187,2.58984377 c 0,0.3046875 0,0.761718755 1.03125,0.761718755 h 0.480469 c 0.199219,0 0.316406,0 0.316406,-0.234375005 0,-0.234375 -0.128906,-0.234375 -0.257812,-0.234375 -0.609375,-0.0117188 -0.609375,-0.140625 -0.609375,-0.36328125 V -2.9757969 c 0,-0.890625 -0.703125,-1.5351562 -2.191406,-1.5351562 -0.5625,0 -1.78125,0.035156 -1.78125,0.9140625 0,0.4453125 0.351562,0.6328125 0.621093,0.6328125 0.304688,0 0.621094,-0.2109375 0.621094,-0.6328125 0,-0.2929688 -0.1875,-0.46875 -0.210937,-0.4921875 0.28125,-0.058594 0.597656,-0.058594 0.714843,-0.058594 0.75,0 1.089844,0.4101563 1.089844,1.171875 v 0.3398438 c -0.703125,0.023437 -3.234375,0.1171875 -3.234375,1.5585937 0,0.96093752 1.242188,1.13671877 1.921875,1.13671877 0.796875,0 1.265625,-0.41015625 1.488281,-0.8203123 z M 35.234078,-2.3312656 v 0.9492187 c 0,0.94921877 -0.914062,1.07812502 -1.160156,1.07812502 -0.503906,0 -0.902344,-0.33984375 -0.902344,-0.78515622 0,-1.0664063 1.570313,-1.2070313 2.0625,-1.2421875 z m 4.245117,-4.5820313 -1.757812,0.082031 v 0.46875 c 0.621094,0 0.691406,0 0.691406,0.3867187 v 5.50781252 H 37.721383 V 7.65625e-4 c 0.316406,-0.011718755 0.796875,-0.035156255 1.230469,-0.035156255 0.421875,0 0.878906,0.0234375 1.21875,0.035156255 V -0.46798438 h -0.691407 z m 5.560547,4.7460938 c 0.210938,0 0.316406,0 0.316406,-0.2695313 0,-0.3164062 -0.05859,-1.0429687 -0.5625,-1.5351562 -0.363281,-0.3632813 -0.890625,-0.5390625 -1.582031,-0.5390625 -1.59375,0 -2.460937,1.0195312 -2.460937,2.2734375 0,1.33593747 0.996093,2.29687497 2.601562,2.29687497 1.570313,0 2.003906,-1.0546875 2.003906,-1.21874997 0,-0.1875 -0.1875,-0.1875 -0.234375,-0.1875 -0.175781,0 -0.199218,0.046875 -0.257812,0.2109375 -0.210938,0.48046872 -0.773438,0.79687497 -1.417969,0.79687497 -1.40625,0 -1.417969,-1.32421877 -1.417969,-1.82812497 z m -3.011719,-0.328125 c 0.02344,-0.3984375 0.03516,-0.8085938 0.234375,-1.1367188 0.269532,-0.3984375 0.667969,-0.515625 0.949219,-0.515625 1.171875,0 1.183594,1.3007813 1.195313,1.6523438 z m 7.385743,1.73437497 c 0,0.3046875 0,0.761718755 1.03125,0.761718755 h 0.480468 c 0.199219,0 0.316407,0 0.316407,-0.234375005 0,-0.234375 -0.128907,-0.234375 -0.257813,-0.234375 -0.609375,-0.0117188 -0.609375,-0.140625 -0.609375,-0.36328125 V -2.9757969 c 0,-0.890625 -0.703125,-1.5351562 -2.191406,-1.5351562 -0.5625,0 -1.78125,0.035156 -1.78125,0.9140625 0,0.4453125 0.351562,0.6328125 0.621094,0.6328125 0.304687,0 0.621093,-0.2109375 0.621093,-0.6328125 0,-0.2929688 -0.1875,-0.46875 -0.210937,-0.4921875 0.28125,-0.058594 0.597656,-0.058594 0.714844,-0.058594 0.75,0 1.089843,0.4101563 1.089843,1.171875 v 0.3398438 c -0.703125,0.023437 -3.234375,0.1171875 -3.234375,1.5585937 0,0.96093752 1.242188,1.13671877 1.921875,1.13671877 0.796875,0 1.265625,-0.41015625 1.488282,-0.8203123 z M 49.237984,-2.3312656 v 0.9492187 c 0,0.94921877 -0.914062,1.07812502 -1.160156,1.07812502 -0.503906,0 -0.902344,-0.33984375 -0.902344,-0.78515622 0,-1.0664063 1.570313,-1.2070313 2.0625,-1.2421875 z m 3.049805,-1.6171875 v 2.71875 c 0,1.06640622 0.867188,1.28906247 1.570313,1.28906247 0.75,0 1.207031,-0.5625 1.207031,-1.28906247 v -0.5273438 h -0.46875 v 0.5039063 c 0,0.67968747 -0.316406,0.91406247 -0.597656,0.91406247 -0.585938,0 -0.585938,-0.6328125 -0.585938,-0.86718747 v -2.7421875 h 1.464844 v -0.46875 h -1.464844 v -1.9101563 h -0.457031 c -0.01172,0.9960938 -0.503906,1.9804688 -1.488281,2.015625 v 0.3632813 z m 7.59375,-1.9335938 c 0.164063,-0.082031 0.375,-0.1992187 0.375,-0.515625 0,-0.3046875 -0.269531,-0.609375 -0.597656,-0.609375 -0.222656,0 -0.339844,0.1289063 -0.457031,0.2578125 -0.269532,0.28125 -0.867188,1.0195313 -1.125,1.3125 l 0.304687,0.3632813 z m 1.230469,3.7148438 c 0,-1.3359375 -0.914063,-2.34375 -2.542969,-2.34375 -1.628906,0 -2.542969,1.0195312 -2.542969,2.34375 0,1.23046872 0.878907,2.22656247 2.542969,2.22656247 1.675781,0 2.542969,-1.0078125 2.542969,-2.22656247 z m -2.542969,1.82812497 c -1.265625,0 -1.265625,-1.07812497 -1.265625,-1.94531247 0,-0.4453125 0,-0.9492188 0.164063,-1.2890625 0.199218,-0.375 0.609375,-0.5742188 1.101562,-0.5742188 0.421875,0 0.832031,0.1523438 1.054688,0.5039063 0.210937,0.3398437 0.210937,0.890625 0.210937,1.359375 0,0.8671875 0,1.94531247 -1.265625,1.94531247 z m 4.898438,-3.01171877 v -1.1367187 l -1.664063,0.082031 v 0.46875 c 0.621094,0 0.691406,0 0.691406,0.3867188 v 3.08203122 H 61.803414 V 7.65625e-4 c 0.351563,-0.011718755 0.796875,-0.035156255 1.265625,-0.035156255 0.375,0 1.007813,0 1.371094,0.035156255 V -0.46798438 H 63.572945 V -2.2140781 c 0,-0.6914063 0.246094,-1.9101563 1.242188,-1.9101563 -0.01172,0.011719 -0.1875,0.1757813 -0.1875,0.4570313 0,0.4101562 0.316406,0.609375 0.609375,0.609375 0.292969,0 0.609375,-0.2109375 0.609375,-0.609375 0,-0.5273438 -0.539063,-0.8203125 -1.054688,-0.8203125 -0.703125,0 -1.101562,0.5039062 -1.324218,1.1367187 z m 4.916015,-1.1367187 -1.722656,0.082031 v 0.46875 c 0.585937,0 0.65625,0 0.65625,0.3867188 v 3.08203122 H 66.62568 V 7.65625e-4 c 0.304687,-0.011718755 0.796875,-0.035156255 1.21875,-0.035156255 0.292968,0 0.808593,0.0234375 1.160156,0.035156255 V -0.46798438 h -0.621094 z m 0.105469,-1.6523438 c 0,-0.4453125 -0.363281,-0.7851562 -0.773438,-0.7851562 -0.433593,0 -0.785156,0.3515625 -0.785156,0.7851562 0,0.421875 0.351563,0.7734375 0.785156,0.7734375 0.410157,0 0.773438,-0.3398437 0.773438,-0.7734375 z m 6.251953,3.9726563 c 0,-1.3359375 -0.914062,-2.34375 -2.542969,-2.34375 -1.628906,0 -2.542968,1.0195312 -2.542968,2.34375 0,1.23046872 0.878906,2.22656247 2.542968,2.22656247 1.675782,0 2.542969,-1.0078125 2.542969,-2.22656247 z m -2.542969,1.82812497 c -1.265625,0 -1.265625,-1.07812497 -1.265625,-1.94531247 0,-0.4453125 0,-0.9492188 0.164063,-1.2890625 0.199219,-0.375 0.609375,-0.5742188 1.101562,-0.5742188 0.421875,0 0.832032,0.1523438 1.054688,0.5039063 0.210937,0.3398437 0.210937,0.890625 0.210937,1.359375 0,0.8671875 0,1.94531247 -1.265625,1.94531247 z m 8.876953,-2.94140627 c 0,-0.1875 0.01172,-0.1992187 0.152344,-0.3398437 0.398438,-0.3984375 0.914063,-0.46875 1.136719,-0.46875 0.667969,0 1.21875,0.609375 1.21875,1.8632812 0,1.40625002 -0.691406,1.92187502 -1.347656,1.92187502 -0.128907,0 -0.597657,0 -1.054688,-0.52734375 -0.105469,-0.12890625 -0.105469,-0.140625 -0.105469,-0.32812497 z m 0,2.89453127 c 0.433594,0.3515625 0.867188,0.4453125 1.277344,0.4453125 1.488281,0 2.507813,-0.890625 2.507813,-2.28515627 0,-1.3242187 -0.902344,-2.2617187 -2.34375,-2.2617187 -0.738282,0 -1.277344,0.3164062 -1.5,0.4921875 v -0.4921875 l -1.769532,0.082031 v 0.46875 c 0.621094,0 0.691407,0 0.691407,0.3867188 v 5.015625 h -0.691407 v 0.46875 c 0.28125,-0.011719 0.878907,-0.035156 1.265625,-0.035156 0.386719,0 0.972657,0.023437 1.253907,0.035156 v -0.46875 h -0.691407 z m 9.896485,-1.78124997 c 0,-1.3359375 -0.914063,-2.34375 -2.542969,-2.34375 -1.628906,0 -2.542969,1.0195312 -2.542969,2.34375 0,1.23046872 0.878907,2.22656247 2.542969,2.22656247 1.675781,0 2.542969,-1.0078125 2.542969,-2.22656247 z m -2.542969,1.82812497 c -1.265625,0 -1.265625,-1.07812497 -1.265625,-1.94531247 0,-0.4453125 0,-0.9492188 0.164063,-1.2890625 0.199218,-0.375 0.609375,-0.5742188 1.101562,-0.5742188 0.421875,0 0.832031,0.1523438 1.054688,0.5039063 0.210937,0.3398437 0.210937,0.890625 0.210937,1.359375 0,0.8671875 0,1.94531247 -1.265625,1.94531247 z m 5.05957,-2.94140627 c 0,-0.1875 0.01172,-0.1992187 0.152344,-0.3398437 0.398438,-0.3984375 0.914063,-0.46875 1.136719,-0.46875 0.667969,0 1.21875,0.609375 1.21875,1.8632812 0,1.40625002 -0.691406,1.92187502 -1.347656,1.92187502 -0.128907,0 -0.597657,0 -1.054688,-0.52734375 -0.105469,-0.12890625 -0.105469,-0.140625 -0.105469,-0.32812497 z m 0,2.89453127 c 0.433594,0.3515625 0.867188,0.4453125 1.277344,0.4453125 1.488281,0 2.507813,-0.890625 2.507813,-2.28515627 0,-1.3242187 -0.902344,-2.2617187 -2.34375,-2.2617187 -0.738282,0 -1.277344,0.3164062 -1.5,0.4921875 v -0.4921875 l -1.769532,0.082031 v 0.46875 c 0.621094,0 0.691407,0 0.691407,0.3867188 v 5.015625 h -0.691407 v 0.46875 c 0.28125,-0.011719 0.878907,-0.035156 1.265625,-0.035156 0.386719,0 0.972657,0.023437 1.253907,0.035156 v -0.46875 h -0.691407 z m 8.534176,-0.328125 v 0.7734375 L 103.7917,7.65625e-4 V -0.46798438 c -0.6211,0 -0.69141,0 -0.69141,-0.38671875 V -4.4875156 l -1.81641,0.082031 v 0.46875 c 0.60938,0 0.67969,0 0.67969,0.3867188 v 1.9101562 c 0,0.80859377 -0.50391,1.33593752 -1.23047,1.33593752 -0.773436,0 -0.796873,-0.24609375 -0.796873,-0.78515622 v -3.3984375 l -1.828125,0.082031 v 0.46875 c 0.621093,0 0.691406,0 0.691406,0.3867188 v 2.3203125 c 0,1.06640622 0.808594,1.28906247 1.792972,1.28906247 0.25781,0 0.97265,0 1.42968,-0.7734371 z m 4.23047,-6.19921877 -1.75781,0.082031 v 0.46875 c 0.62109,0 0.69141,0 0.69141,0.3867187 v 5.50781252 h -0.69141 V 7.65625e-4 c 0.31641,-0.011718755 0.79688,-0.035156255 1.23047,-0.035156255 0.42187,0 0.87891,0.0234375 1.21875,0.035156255 V -0.46798438 h -0.69141 z m 4.68164,6.15234377 c 0,0.3046875 0,0.761718755 1.03125,0.761718755 h 0.48047 c 0.19922,0 0.31641,0 0.31641,-0.234375005 0,-0.234375 -0.12891,-0.234375 -0.25781,-0.234375 -0.60938,-0.0117188 -0.60938,-0.140625 -0.60938,-0.36328125 V -2.9757969 c 0,-0.890625 -0.70312,-1.5351562 -2.19141,-1.5351562 -0.5625,0 -1.78125,0.035156 -1.78125,0.9140625 0,0.4453125 0.35157,0.6328125 0.6211,0.6328125 0.30469,0 0.62109,-0.2109375 0.62109,-0.6328125 0,-0.2929688 -0.1875,-0.46875 -0.21094,-0.4921875 0.28125,-0.058594 0.59766,-0.058594 0.71485,-0.058594 0.75,0 1.08984,0.4101563 1.08984,1.171875 v 0.3398438 c -0.70312,0.023437 -3.23437,0.1171875 -3.23437,1.5585937 0,0.96093752 1.24218,1.13671877 1.92187,1.13671877 0.79688,0 1.26563,-0.41015625 1.48828,-0.8203123 z m -0.17578,-1.57031247 v 0.9492187 c 0,0.94921877 -0.91406,1.07812502 -1.16015,1.07812502 -0.50391,0 -0.90235,-0.33984375 -0.90235,-0.78515622 0,-1.0664063 1.57031,-1.2070313 2.0625,-1.2421875 z m 5.60449,-1.7226563 c -0.17578,0.1640625 -0.19921,0.3632813 -0.19921,0.4570313 0,0.4453125 0.35156,0.6328125 0.62109,0.6328125 0.30469,0 0.62109,-0.2109375 0.62109,-0.6328125 0,-0.8554688 -1.14843,-0.9140625 -1.73437,-0.9140625 -1.78125,0 -2.51953,1.1484375 -2.51953,2.296875 0,1.32421872 0.9375,2.27343747 2.47265,2.27343747 1.61719,0 1.91016,-1.16015627 1.91016,-1.21874997 0,-0.140625 -0.14063,-0.140625 -0.23438,-0.140625 -0.17578,0 -0.1875,0.011719 -0.23437,0.140625 -0.26953,0.63281247 -0.73828,0.82031247 -1.25391,0.82031247 -1.38281,0 -1.38281,-1.46484377 -1.38281,-1.92187497 0,-0.5625 0,-1.8515625 1.28906,-1.8515625 0.35157,0 0.51563,0.023437 0.64453,0.058594 z m 3.73243,-0.4335937 -1.72266,0.082031 v 0.46875 c 0.58594,0 0.65625,0 0.65625,0.3867188 v 3.08203122 h -0.69141 V 7.65625e-4 c 0.30469,-0.011718755 0.79688,-0.035156255 1.21875,-0.035156255 0.29297,0 0.8086,0.0234375 1.16016,0.035156255 V -0.46798438 h -0.62109 z m 0.10546,-1.6523438 c 0,-0.4453125 -0.36328,-0.7851562 -0.77343,-0.7851562 -0.4336,0 -0.78516,0.3515625 -0.78516,0.7851562 0,0.421875 0.35156,0.7734375 0.78516,0.7734375 0.41015,0 0.77343,-0.3398437 0.77343,-0.7734375 z m 6.25196,3.9726563 c 0,-1.3359375 -0.91406,-2.34375 -2.54297,-2.34375 -1.62891,0 -2.54297,1.0195312 -2.54297,2.34375 0,1.23046872 0.87891,2.22656247 2.54297,2.22656247 1.67578,0 2.54297,-1.0078125 2.54297,-2.22656247 z m -2.54297,1.82812497 c -1.26563,0 -1.26563,-1.07812497 -1.26563,-1.94531247 0,-0.4453125 0,-0.9492188 0.16407,-1.2890625 0.19922,-0.375 0.60937,-0.5742188 1.10156,-0.5742188 0.42187,0 0.83203,0.1523438 1.05469,0.5039063 0.21093,0.3398437 0.21093,0.890625 0.21093,1.359375 0,0.8671875 0,1.94531247 -1.26562,1.94531247 z m 4.00781,-3.21093747 v 3.08203122 h -0.6914 V 7.65625e-4 c 0.28125,-0.011718755 0.8789,-0.035156255 1.2539,-0.035156255 0.39844,0 0.98438,0.0234375 1.25391,0.035156255 V -0.46798438 h -0.67969 V -2.5539219 c 0,-1.078125 0.85547,-1.5703125 1.47656,-1.5703125 0.33985,0 0.55078,0.2109375 0.55078,0.9726563 v 2.68359372 h -0.67968 V 7.65625e-4 c 0.26953,-0.011718755 0.86718,-0.035156255 1.2539,-0.035156255 0.38672,0 0.97266,0.0234375 1.25391,0.035156255 V -0.46798438 h -0.69141 V -3.0461094 c 0,-1.0429687 -0.53906,-1.4414062 -1.53515,-1.4414062 -0.94922,0 -1.47657,0.5742187 -1.7461,1.078125 v -1.078125 l -1.71093,0.082031 v 0.46875 c 0.62109,0 0.6914,0 0.6914,0.386719 z m 8.95313,2.78906247 c 0,0.3046875 0,0.761718755 1.03125,0.761718755 h 0.48047 c 0.19921,0 0.3164,0 0.3164,-0.234375005 0,-0.234375 -0.1289,-0.234375 -0.25781,-0.234375 -0.60938,-0.0117188 -0.60938,-0.140625 -0.60938,-0.36328125 V -2.9757969 c 0,-0.890625 -0.70312,-1.5351562 -2.1914,-1.5351562 -0.5625,0 -1.78125,0.035156 -1.78125,0.9140625 0,0.4453125 0.35156,0.6328125 0.62109,0.6328125 0.30469,0 0.6211,-0.2109375 0.6211,-0.6328125 0,-0.2929688 -0.1875,-0.46875 -0.21094,-0.4921875 0.28125,-0.058594 0.59765,-0.058594 0.71484,-0.058594 0.75,0 1.08985,0.4101563 1.08985,1.171875 v 0.3398438 c -0.70313,0.023437 -3.23438,0.1171875 -3.23438,1.5585937 0,0.96093752 1.24219,1.13671877 1.92188,1.13671877 0.79687,0 1.26562,-0.41015625 1.48828,-0.8203123 z m -0.17578,-1.57031247 v 0.9492187 c 0,0.94921877 -0.91407,1.07812502 -1.16016,1.07812502 -0.50391,0 -0.90234,-0.33984375 -0.90234,-0.78515622 0,-1.0664063 1.57031,-1.2070313 2.0625,-1.2421875 z m 4.24511,-4.5820313 -1.75781,0.082031 v 0.46875 c 0.62109,0 0.69141,0 0.69141,0.3867187 v 5.50781252 h -0.69141 V 7.65625e-4 c 0.31641,-0.011718755 0.79688,-0.035156255 1.23047,-0.035156255 0.42187,0 0.87891,0.0234375 1.21875,0.035156255 V -0.46798438 h -0.69141 z m 0,0"
       style="fill:#000000;fill-opacity:1;fill-rule:nonzero;stroke:none"
       aria-label="Vetoraleat´oriopopulacional"
       transform="matrix(1.3333333,0,0,1.3333333,54.294667,42.178667)" />
    <path
       id="path59"
       d="m 4.7213828,-6.6928438 c -0.1054687,-0.2578125 -0.234375,-0.2578125 -0.3984375,-0.2578125 -0.28125,0 -0.3164062,0.070312 -0.3867187,0.2578125 l -2.4726563,5.9882813 c -0.058594,0.15234375 -0.09375,0.234375 -0.84374999,0.234375 h -0.2109375 v 0.46875 c 0.375,-0.01171875 0.85546879,-0.03515625 1.16015629,-0.03515625 0.3867187,0 0.9492187,0 1.3242187,0.03515625 v -0.46875 c -0.023437,0 -0.890625,0 -0.890625,-0.12890625 0,-0.0117188 0.023437,-0.10546875 0.035156,-0.1171875 L 2.5416953,-1.9233125 h 2.671875 l 0.5976563,1.453125 H 4.8620078 v 0.46875 c 0.375,-0.03515625 1.3242188,-0.03515625 1.7460938,-0.03515625 0.3984375,0 1.2773437,0 1.6289062,0.03515625 v -0.46875 H 7.2760703 Z m -0.84375,1.5351563 1.1367188,2.765625 H 2.7409141 Z m 5.9208985,1.6054687 v 3.0820313 H 9.107125 v 0.46875 c 0.28125,-0.01171875 0.8789063,-0.03515625 1.253906,-0.03515625 0.398438,0 0.984375,0.0234375 1.253907,0.03515625 v -0.46875 H 10.93525 V -2.556125 c 0,-1.078125 0.867188,-1.5703125 1.476563,-1.5703125 0.339843,0 0.5625,0.1992187 0.5625,0.9726562 v 2.6835938 h -0.691407 v 0.46875 c 0.28125,-0.01171875 0.878907,-0.03515625 1.265625,-0.03515625 0.386719,0 0.972657,0.0234375 1.253907,0.03515625 v -0.46875 H 14.111031 V -2.556125 c 0,-1.078125 0.867188,-1.5703125 1.488282,-1.5703125 0.339843,0 0.550781,0.1992187 0.550781,0.9726562 v 2.6835938 h -0.679688 v 0.46875 c 0.269532,-0.01171875 0.867188,-0.03515625 1.253907,-0.03515625 0.386718,0 0.972656,0.0234375 1.253906,0.03515625 v -0.46875 h -0.691406 v -2.578125 c 0,-1.03125 -0.503907,-1.4414063 -1.535157,-1.4414063 -0.902343,0 -1.417968,0.5039063 -1.675781,0.9609375 -0.199219,-0.9257812 -1.125,-0.9609375 -1.5,-0.9609375 -0.867187,0 -1.429687,0.4570313 -1.757812,1.078125 v -1.078125 l -1.710938,0.082031 v 0.46875 c 0.6210938,0 0.6914063,0 0.6914063,0.386719 z m 13.8134767,1.3828125 c 0,-1.3359375 -0.914063,-2.34375 -2.542969,-2.34375 -1.628906,0 -2.542969,1.0195313 -2.542969,2.34375 0,1.2304688 0.878907,2.22656255 2.542969,2.22656255 1.675781,0 2.542969,-1.0078125 2.542969,-2.22656255 z m -2.542969,1.82812505 c -1.265625,0 -1.265625,-1.07812505 -1.265625,-1.94531255 0,-0.4453125 0,-0.9492187 0.164063,-1.2890625 0.199218,-0.375 0.609375,-0.5742187 1.101562,-0.5742187 0.421875,0 0.832031,0.1523437 1.054688,0.5039062 0.210937,0.3398438 0.210937,0.890625 0.210937,1.359375 0,0.8671875 0,1.94531255 -1.265625,1.94531255 z m 4.96582,-2.58984375 c -0.363281,-0.070312 -1.007812,-0.1757813 -1.007812,-0.6445313 0,-0.6210937 0.925781,-0.6210937 1.113281,-0.6210937 0.75,0 1.125,0.2929687 1.171875,0.84375 0.01172,0.140625 0.02344,0.1992187 0.234375,0.1992187 0.234375,0 0.234375,-0.058594 0.234375,-0.28125 v -0.796875 c 0,-0.1875 0,-0.28125 -0.175781,-0.28125 -0.04687,0 -0.05859,0 -0.445313,0.1875 -0.269531,-0.1289062 -0.609375,-0.1875 -1.007812,-0.1875 -0.304688,0 -1.839844,0 -1.839844,1.3007813 0,0.3984375 0.199219,0.6679687 0.398438,0.84375 0.398437,0.3398437 0.785156,0.4101562 1.546875,0.5390625 0.363281,0.070312 1.101562,0.1992187 1.101562,0.7851562 0,0.7382813 -0.914062,0.7382813 -1.125,0.7382813 -1.066406,0 -1.324219,-0.7265625 -1.441406,-1.1484375 -0.04687,-0.140625 -0.09375,-0.140625 -0.234375,-0.140625 -0.246094,0 -0.246094,0.058594 -0.246094,0.2929687 v 1.07812505 c 0,0.1875 0,0.28125 0.1875,0.28125 0.07031,0 0.08203,0 0.292969,-0.15234375 0.01172,0 0.234375,-0.140625 0.257812,-0.1640625 0.457032,0.31640625 0.984375,0.31640625 1.183594,0.31640625 0.304688,0 1.839844,0 1.839844,-1.45312505 0,-0.4335937 -0.199219,-0.7734375 -0.550781,-1.0546875 -0.386719,-0.2929687 -0.703125,-0.3515625 -1.488282,-0.4804687 z m 3.451172,-1.0195313 v 2.71875 c 0,1.0664063 0.867188,1.28906255 1.570313,1.28906255 0.75,0 1.207031,-0.5625 1.207031,-1.28906255 V -1.75925 h -0.46875 v 0.5039062 c 0,0.67968755 -0.316406,0.91406255 -0.597656,0.91406255 -0.585938,0 -0.585938,-0.6328125 -0.585938,-0.86718755 v -2.7421875 h 1.464844 v -0.46875 H 30.611031 V -6.3295625 H 30.154 c -0.01172,0.9960937 -0.503906,1.9804687 -1.488281,2.015625 v 0.3632812 z M 34.93818,-3.353 v -1.1367188 l -1.664063,0.082031 v 0.46875 c 0.621094,0 0.691406,0 0.691406,0.3867187 v 3.0820313 h -0.691406 v 0.46875 c 0.351563,-0.01171875 0.796875,-0.03515625 1.265625,-0.03515625 0.375,0 1.007813,0 1.371094,0.03515625 v -0.46875 h -0.867188 v -1.7460938 c 0,-0.6914062 0.246094,-1.9101562 1.242188,-1.9101562 -0.01172,0.011719 -0.1875,0.1757812 -0.1875,0.4570312 0,0.4101563 0.316406,0.609375 0.609375,0.609375 0.292969,0 0.609375,-0.2109375 0.609375,-0.609375 0,-0.5273437 -0.539063,-0.8203125 -1.054688,-0.8203125 -0.703125,0 -1.101562,0.5039063 -1.324218,1.1367191 z m 6.418945,2.58984375 c 0,0.3046875 0,0.76171875 1.03125,0.76171875 h 0.480469 c 0.199219,0 0.316406,0 0.316406,-0.234375 0,-0.234375 -0.128906,-0.234375 -0.257812,-0.234375 -0.609375,-0.0117188 -0.609375,-0.140625 -0.609375,-0.36328125 V -2.978 c 0,-0.890625 -0.703125,-1.5351563 -2.191407,-1.5351563 -0.5625,0 -1.78125,0.035156 -1.78125,0.9140625 0,0.4453125 0.351563,0.6328125 0.621094,0.6328125 0.304688,0 0.621094,-0.2109375 0.621094,-0.6328125 0,-0.2929687 -0.1875,-0.46875 -0.210938,-0.4921875 0.28125,-0.058594 0.597657,-0.058594 0.714844,-0.058594 0.75,0 1.089844,0.4101562 1.089844,1.171875 v 0.3398437 c -0.703125,0.023437 -3.234375,0.1171875 -3.234375,1.5585938 0,0.9609375 1.242187,1.13671875 1.921875,1.13671875 0.796875,0 1.265625,-0.41015625 1.488281,-0.8203122 z M 41.181344,-2.3334688 V -1.38425 c 0,0.94921875 -0.914063,1.078125 -1.160156,1.078125 -0.503907,0 -0.902344,-0.33984375 -0.902344,-0.7851563 0,-1.0664062 1.570312,-1.2070312 2.0625,-1.2421875 z m 9.55957,1.57031255 c 0,0.3046875 0,0.76171875 1.03125,0.76171875 h 0.480469 c 0.199219,0 0.316406,0 0.316406,-0.234375 0,-0.234375 -0.128906,-0.234375 -0.257812,-0.234375 -0.609375,-0.0117188 -0.609375,-0.140625 -0.609375,-0.36328125 V -2.978 c 0,-0.890625 -0.703125,-1.5351563 -2.191407,-1.5351563 -0.5625,0 -1.78125,0.035156 -1.78125,0.9140625 0,0.4453125 0.351563,0.6328125 0.621094,0.6328125 0.304688,0 0.621094,-0.2109375 0.621094,-0.6328125 0,-0.2929687 -0.1875,-0.46875 -0.210938,-0.4921875 0.28125,-0.058594 0.597657,-0.058594 0.714844,-0.058594 0.75,0 1.089844,0.4101562 1.089844,1.171875 v 0.3398437 c -0.703125,0.023437 -3.234375,0.1171875 -3.234375,1.5585938 0,0.9609375 1.242187,1.13671875 1.921875,1.13671875 0.796875,0 1.265625,-0.41015625 1.488281,-0.8203122 z M 50.565133,-2.3334688 V -1.38425 c 0,0.94921875 -0.914063,1.078125 -1.160156,1.078125 -0.503907,0 -0.902344,-0.33984375 -0.902344,-0.7851563 0,-1.0664062 1.570312,-1.2070312 2.0625,-1.2421875 z M 54.81025,-6.9155 53.052438,-6.833469 v 0.46875 c 0.621093,0 0.691406,0 0.691406,0.3867188 v 5.5078125 h -0.691406 v 0.46875 c 0.316406,-0.01171875 0.796875,-0.03515625 1.230468,-0.03515625 0.421875,0 0.878907,0.0234375 1.21875,0.03515625 v -0.46875 H 54.81025 Z m 5.572266,4.7460937 c 0.210937,0 0.316406,0 0.316406,-0.2695312 0,-0.3164063 -0.05859,-1.0429688 -0.5625,-1.5351563 -0.363281,-0.3632812 -0.890625,-0.5390625 -1.582031,-0.5390625 -1.59375,0 -2.460938,1.0195313 -2.460938,2.2734375 0,1.33593755 0.996094,2.29687505 2.601563,2.29687505 1.570312,0 2.003906,-1.0546875 2.003906,-1.21875005 0,-0.1875 -0.1875,-0.1875 -0.234375,-0.1875 -0.175781,0 -0.199219,0.046875 -0.257813,0.2109375 -0.210937,0.4804688 -0.773437,0.79687505 -1.417968,0.79687505 -1.40625,0 -1.417969,-1.32421875 -1.417969,-1.82812505 z m -3.011719,-0.328125 c 0.02344,-0.3984375 0.03516,-0.8085937 0.234375,-1.1367187 0.269531,-0.3984375 0.667969,-0.515625 0.949219,-0.515625 1.171875,0 1.183593,1.3007812 1.195312,1.6523437 z m 7.382812,1.73437505 c 0,0.3046875 0,0.76171875 1.03125,0.76171875 h 0.480469 c 0.199219,0 0.316406,0 0.316406,-0.234375 0,-0.234375 -0.128906,-0.234375 -0.257812,-0.234375 -0.609375,-0.0117188 -0.609375,-0.140625 -0.609375,-0.36328125 V -2.978 c 0,-0.890625 -0.703125,-1.5351563 -2.191406,-1.5351563 -0.5625,0 -1.78125,0.035156 -1.78125,0.9140625 0,0.4453125 0.351562,0.6328125 0.621093,0.6328125 0.304688,0 0.621094,-0.2109375 0.621094,-0.6328125 0,-0.2929687 -0.1875,-0.46875 -0.210937,-0.4921875 0.28125,-0.058594 0.597656,-0.058594 0.714843,-0.058594 0.75,0 1.089844,0.4101562 1.089844,1.171875 v 0.3398437 c -0.703125,0.023437 -3.234375,0.1171875 -3.234375,1.5585938 0,0.9609375 1.242188,1.13671875 1.921875,1.13671875 0.796875,0 1.265625,-0.41015625 1.488281,-0.8203122 z M 64.577828,-2.3334688 V -1.38425 c 0,0.94921875 -0.914062,1.078125 -1.160156,1.078125 -0.503906,0 -0.902344,-0.33984375 -0.902344,-0.7851563 0,-1.0664062 1.570313,-1.2070312 2.0625,-1.2421875 z m 3.049805,-1.6171875 v 2.71875 c 0,1.0664063 0.867187,1.28906255 1.570312,1.28906255 0.75,0 1.207032,-0.5625 1.207032,-1.28906255 V -1.75925 h -0.46875 v 0.5039062 c 0,0.67968755 -0.316407,0.91406255 -0.597657,0.91406255 -0.585937,0 -0.585937,-0.6328125 -0.585937,-0.86718755 v -2.7421875 h 1.464844 v -0.46875 h -1.464844 v -1.9101562 h -0.457031 c -0.01172,0.9960937 -0.503907,1.9804687 -1.488282,2.015625 v 0.3632812 z M 75.224312,-5.88425 c 0.164063,-0.082031 0.375,-0.1992188 0.375,-0.515625 0,-0.3046875 -0.269531,-0.609375 -0.597656,-0.609375 -0.222656,0 -0.339844,0.1289062 -0.457031,0.2578125 -0.269531,0.28125 -0.867188,1.0195312 -1.125,1.3125 l 0.304687,0.3632812 z m 1.230469,3.7148437 c 0,-1.3359375 -0.914062,-2.34375 -2.542969,-2.34375 -1.628906,0 -2.542968,1.0195313 -2.542968,2.34375 0,1.2304688 0.878906,2.22656255 2.542968,2.22656255 1.675782,0 2.542969,-1.0078125 2.542969,-2.22656255 z m -2.542969,1.82812505 c -1.265625,0 -1.265625,-1.07812505 -1.265625,-1.94531255 0,-0.4453125 0,-0.9492187 0.164063,-1.2890625 0.199219,-0.375 0.609375,-0.5742187 1.101562,-0.5742187 0.421875,0 0.832032,0.1523437 1.054688,0.5039062 0.210937,0.3398438 0.210937,0.890625 0.210937,1.359375 0,0.8671875 0,1.94531255 -1.265625,1.94531255 z M 78.80732,-3.353 v -1.1367188 l -1.664062,0.082031 v 0.46875 c 0.621094,0 0.691406,0 0.691406,0.3867187 v 3.0820313 h -0.691406 v 0.46875 c 0.351562,-0.01171875 0.796875,-0.03515625 1.265625,-0.03515625 0.375,0 1.007812,0 1.371094,0.03515625 v -0.46875 h -0.867188 v -1.7460938 c 0,-0.6914062 0.246094,-1.9101562 1.242188,-1.9101562 -0.01172,0.011719 -0.1875,0.1757812 -0.1875,0.4570312 0,0.4101563 0.316406,0.609375 0.609375,0.609375 0.292968,0 0.609375,-0.2109375 0.609375,-0.609375 0,-0.5273437 -0.539063,-0.8203125 -1.054688,-0.8203125 -0.703125,0 -1.101562,0.5039063 -1.324219,1.1367191 z m 4.916016,-1.1367188 -1.722656,0.082031 v 0.46875 c 0.585937,0 0.65625,0 0.65625,0.3867187 v 3.0820313 h -0.691407 v 0.46875 c 0.304688,-0.01171875 0.796875,-0.03515625 1.21875,-0.03515625 0.292969,0 0.808594,0.0234375 1.160157,0.03515625 v -0.46875 h -0.621094 z m 0.105469,-1.6523437 c 0,-0.4453125 -0.363282,-0.7851563 -0.773438,-0.7851563 -0.433594,0 -0.785156,0.3515625 -0.785156,0.7851563 0,0.421875 0.351562,0.7734375 0.785156,0.7734375 0.410156,0 0.773438,-0.3398438 0.773438,-0.7734375 z m 4.579101,5.37890625 c 0,0.3046875 0,0.76171875 1.03125,0.76171875 h 0.480469 c 0.199219,0 0.316406,0 0.316406,-0.234375 0,-0.234375 -0.128906,-0.234375 -0.257812,-0.234375 -0.609375,-0.0117188 -0.609375,-0.140625 -0.609375,-0.36328125 V -2.978 c 0,-0.890625 -0.703125,-1.5351563 -2.191407,-1.5351563 -0.5625,0 -1.78125,0.035156 -1.78125,0.9140625 0,0.4453125 0.351563,0.6328125 0.621094,0.6328125 0.304688,0 0.621094,-0.2109375 0.621094,-0.6328125 0,-0.2929687 -0.1875,-0.46875 -0.210938,-0.4921875 0.28125,-0.058594 0.597657,-0.058594 0.714844,-0.058594 0.75,0 1.089844,0.4101562 1.089844,1.171875 v 0.3398437 c -0.703125,0.023437 -3.234375,0.1171875 -3.234375,1.5585938 0,0.9609375 1.242187,1.13671875 1.921875,1.13671875 0.796875,0 1.265625,-0.41015625 1.488281,-0.8203122 z M 88.232125,-2.3334688 V -1.38425 c 0,0.94921875 -0.914063,1.078125 -1.160156,1.078125 -0.503907,0 -0.902344,-0.33984375 -0.902344,-0.7851563 0,-1.0664062 1.570312,-1.2070312 2.0625,-1.2421875 z m 0,0"
       style="fill:#000000;fill-opacity:1;fill-rule:nonzero;stroke:none"
       aria-label="Amostraaleat´oria"
       transform="matrix(1.3333333,0,0,1.3333333,54.294667,43.470667)" />
  </g>
</svg>
