<?xml version="1.0" encoding="UTF-8" standalone="no"?>
<!-- Created with Inkscape (http://www.inkscape.org/) -->

<svg
   version="1.1"
   id="svg1"
   width="527.45331"
   height="177.04668"
   viewBox="0 0 527.45331 177.04668"
   xmlns="http://www.w3.org/2000/svg"
   xmlns:svg="http://www.w3.org/2000/svg">
  <defs
     id="defs1" />
  <g
     id="g1">
    <path
       id="path1"
       d="M -37.3305,-14.17339 H 37.33051 V 14.1734 H -37.3305 Z"
       style="fill:none;stroke:#000000;stroke-width:0.79701;stroke-linecap:butt;stroke-linejoin:miter;stroke-miterlimit:10;stroke-dasharray:none;stroke-opacity:1"
       transform="matrix(1.3333333,0,0,-1.3333333,50.305333,88.524)" />
    <g
       id="g2"
       aria-label="X&#10;1&#10;∼f&#10;θ&#10;,θ∈Θ"
       transform="matrix(1.3333333,0,0,1.3333333,4.9586667,91.844)">
      <path
         id="path2"
         d="M 4.8268984,-4.0900312 3.9948672,-6.0822187 c -0.035156,-0.070312 -0.046875,-0.1171875 -0.046875,-0.1289063 0,-0.058594 0.1640625,-0.2460937 0.5859375,-0.28125 0.09375,-0.011719 0.1992187,-0.023437 0.1992187,-0.1875 0,-0.1289062 -0.1171875,-0.1289062 -0.1523437,-0.1289062 -0.4101563,0 -0.8320313,0.035156 -1.2539063,0.035156 -0.2460937,0 -0.8671875,-0.035156 -1.1132812,-0.035156 -0.058594,0 -0.1875,0 -0.1875,0.1992187 0,0.1171875 0.1054687,0.1171875 0.234375,0.1171875 0.5976562,0 0.65625,0.09375 0.75,0.3164063 l 1.171875,2.7773437 -2.0976563,2.2617188 -0.1289062,0.1054687 c -0.4921875,0.52734375 -0.96093751,0.69140625 -1.46484376,0.7265625 -0.12890625,0 -0.22265625,0 -0.22265625,0.19921875 0,0 0,0.10546875 0.12890625,0.10546875 0.3046875,0 0.63281246,-0.03515625 0.93749996,-0.03515625 0.3632813,0 0.7617188,0.03515625 1.1132813,0.03515625 0.058594,0 0.1757812,0 0.1757812,-0.19921875 0,-0.10546875 -0.09375,-0.10546875 -0.1171875,-0.10546875 -0.082031,-0.0117188 -0.3984375,-0.0351563 -0.3984375,-0.31640625 0,-0.15234375 0.1523438,-0.31640625 0.2695313,-0.44531245 l 1.0195312,-1.078125 0.890625,-0.9726563 1.0078125,2.37890625 c 0.046875,0.10546875 0.046875,0.1171875 0.046875,0.140625 0,0.0820313 -0.1875,0.24609375 -0.5742187,0.29296875 -0.1054688,0 -0.1992188,0.0117188 -0.1992188,0.1875 0,0.1171875 0.1171875,0.1171875 0.1523438,0.1171875 0.28125,0 0.9726562,-0.03515625 1.2539062,-0.03515625 0.2460938,0 0.8554688,0.03515625 1.1015625,0.03515625 0.070312,0 0.1992188,0 0.1992188,-0.1875 0,-0.1171875 -0.1054688,-0.1171875 -0.1875,-0.1171875 C 6.4206484,-0.31659375 6.4089297,-0.35175 6.2331484,-0.7501875 5.8464297,-1.6759687 5.1784609,-3.2228437 4.9440859,-3.8205 c 0.6796875,-0.703125 1.734375,-1.8867187 2.0507813,-2.1679687 0.28125,-0.234375 0.6679687,-0.4804688 1.265625,-0.5039063 0.1289062,-0.011719 0.2109375,-0.011719 0.2109375,-0.1992187 0,-0.011719 0,-0.1171875 -0.1289063,-0.1171875 -0.2929687,0 -0.6210937,0.035156 -0.9375,0.035156 -0.3632812,0 -0.7382812,-0.035156 -1.1015625,-0.035156 -0.058594,0 -0.1875,0 -0.1875,0.1992187 0,0.070312 0.046875,0.1054688 0.1171875,0.1171875 0.09375,0.011719 0.3984375,0.023437 0.3984375,0.3046875 0,0.140625 -0.1054687,0.2695313 -0.1875,0.3632813 z m 0,0"
         style="fill:#000000;fill-opacity:1;fill-rule:nonzero;stroke:none" />
      <path
         id="path3"
         d="m 10.586664,-2.9357344 c 0,-0.1875 -0.01172,-0.1992187 -0.210937,-0.1992187 -0.4453129,0.4335937 -1.0781254,0.4453125 -1.3593754,0.4453125 v 0.2460937 c 0.1640625,0 0.6210937,0 1.0078124,-0.1875 v 3.55078128 c 0,0.23437502 0,0.32812502 -0.6914062,0.32812502 H 9.0632266 v 0.2460937 c 0.1289062,-0.011719 0.9843754,-0.023437 1.2421874,-0.023437 0.210938,0 1.089844,0.011719 1.242188,0.023437 V 1.2478594 h -0.257813 c -0.703125,0 -0.703125,-0.09375 -0.703125,-0.32812502 z m 0,0"
         style="fill:#000000;fill-opacity:1;fill-rule:nonzero;stroke:none" />
      <path
         id="path4"
         d="m 22.686273,-3.3283125 c 0,-0.2226562 -0.05859,-0.3164062 -0.140625,-0.3164062 -0.04687,0 -0.128906,0.070312 -0.140625,0.2578125 -0.03516,0.9609375 -0.703125,1.5 -1.394531,1.5 -0.632812,0 -1.101562,-0.421875 -1.59375,-0.8554688 -0.503906,-0.4570312 -1.03125,-0.9140625 -1.699219,-0.9140625 -1.089843,0 -1.675781,1.1015625 -1.675781,2.0039063 0,0.3164062 0.128906,0.3164062 0.140625,0.3164062 0.105469,0 0.140625,-0.1992187 0.140625,-0.2226562 0.03516,-1.1015625 0.785156,-1.5351563 1.394531,-1.5351563 0.621094,0 1.101563,0.421875 1.59375,0.8554688 0.503907,0.4570312 1.019532,0.9140625 1.699219,0.9140625 1.089844,0 1.675781,-1.1015625 1.675781,-2.0039063 z m 0,0"
         style="fill:#000000;fill-opacity:1;fill-rule:nonzero;stroke:none" />
      <path
         id="path5"
         d="m 29.661859,-3.9845625 h 0.855469 c 0.199219,0 0.304688,0 0.304688,-0.1992187 0,-0.1054688 -0.105469,-0.1054688 -0.269532,-0.1054688 h -0.832031 l 0.210938,-1.1367187 c 0.03516,-0.2109375 0.175781,-0.9140625 0.234375,-1.0429688 0.09375,-0.1875 0.257812,-0.3398437 0.46875,-0.3398437 0.04687,0 0.304687,0 0.492187,0.1875 -0.433594,0.035156 -0.539062,0.3867187 -0.539062,0.5390625 0,0.2226562 0.175781,0.3398437 0.363281,0.3398437 0.269531,0 0.550781,-0.2109375 0.550781,-0.5976562 0,-0.4570313 -0.457031,-0.6796875 -0.867187,-0.6796875 -0.339844,0 -0.960938,0.1757812 -1.265625,1.1601562 -0.05859,0.2109375 -0.08203,0.3164063 -0.328125,1.5703125 h -0.679688 c -0.199219,0 -0.304687,0 -0.304687,0.1875 0,0.1171875 0.09375,0.1171875 0.28125,0.1171875 h 0.65625 l -0.75,3.9375 c -0.175782,0.9609375 -0.339844,1.875 -0.867188,1.875 -0.03516,0 -0.28125,0 -0.46875,-0.1875 0.457031,-0.023437 0.539063,-0.3867187 0.539063,-0.5390625 0,-0.22265625 -0.175782,-0.33984375 -0.363282,-0.33984375 -0.257812,0 -0.550781,0.2109375 -0.550781,0.59765625 0,0.4453125 0.433594,0.6796875 0.84375,0.6796875 0.550781,0 0.949219,-0.5859375 1.125,-0.9609375 0.328125,-0.6328125 0.550781,-1.83984375 0.5625,-1.91015625 z m 0,0"
         style="fill:#000000;fill-opacity:1;fill-rule:nonzero;stroke:none" />
      <path
         id="path6"
         d="m 34.446039,-1.9044844 c 0,-0.7265625 -0.28125,-1.5117187 -0.960937,-1.5117187 -1.042969,0 -2.167969,1.875 -2.167969,3.46874998 0,0.83203125 0.328125,1.51171872 0.972656,1.51171872 1.054688,0 2.15625,-1.89843747 2.15625,-3.46875 z m -2.332031,0.8554688 c 0.351562,-1.5117188 0.949219,-2.1679688 1.359375,-2.1679688 0.445312,0 0.445312,0.7734375 0.445312,0.9023438 0,0.2695312 -0.04687,0.6796875 -0.199218,1.265625 z m 1.546875,0.24609373 c -0.199219,0.76171875 -0.363281,1.13671875 -0.5625,1.4765625 -0.222656,0.36328127 -0.503906,0.69140627 -0.808594,0.69140627 -0.386719,0 -0.445312,-0.52734377 -0.445312,-0.90234377 0,-0.45703125 0.128906,-1.0078125 0.199218,-1.265625 z m 0,0"
         style="fill:#000000;fill-opacity:1;fill-rule:nonzero;stroke:none" />
      <path
         id="path7"
         d="m 37.419672,-0.01190625 c 0,-0.65625 -0.257813,-1.04296875 -0.644531,-1.04296875 -0.328125,0 -0.527344,0.24609375 -0.527344,0.52734375 0,0.26953125 0.199219,0.52734375 0.527344,0.52734375 0.117187,0 0.246093,-0.03515625 0.351562,-0.12890625 0.02344,-0.0234375 0.03516,-0.0351563 0.04687,-0.0351563 0.01172,0 0.02344,0.0117188 0.02344,0.15234375 0,0.73828125 -0.351563,1.3359375 -0.679688,1.6640625 -0.105469,0.1054687 -0.105469,0.1289062 -0.105469,0.1640625 0,0.070312 0.04687,0.1054687 0.09375,0.1054687 0.117188,0 0.914063,-0.7617187 0.914063,-1.9335937 z M 47.676508,-4.9806562 c 0,-0.65625 -0.1875,-2.0390625 -1.195313,-2.0390625 -1.382812,0 -2.917968,2.8007812 -2.917968,5.0859375 0,0.93749995 0.28125,2.03906245 1.195312,2.03906245 1.40625,0 2.917969,-2.85937495 2.917969,-5.08593745 z m -3.058594,1.359375 c 0.164063,-0.6328125 0.363281,-1.4296875 0.761719,-2.1328125 0.269531,-0.4921875 0.644531,-1.0546875 1.089844,-1.0546875 0.492187,0 0.550781,0.6445312 0.550781,1.2070312 0,0.4921875 -0.08203,0.9960938 -0.328125,1.9804688 z m 1.992188,0.328125 c -0.117188,0.4570312 -0.316407,1.3007812 -0.703125,2.015625 -0.339844,0.67968745 -0.726563,1.17187495 -1.148438,1.17187495 -0.328125,0 -0.539062,-0.29296875 -0.539062,-1.21874995 0,-0.421875 0.05859,-0.9960938 0.316406,-1.96875 z m 0,0"
         style="fill:#000000;fill-opacity:1;fill-rule:nonzero;stroke:none" />
      <path
         id="path8"
         d="m 56.322016,-2.2970625 c 0.164062,0 0.351562,0 0.351562,-0.1992187 0,-0.1992188 -0.1875,-0.1992188 -0.351562,-0.1992188 h -4.230469 c 0.128906,-1.3242187 1.265625,-2.2851562 2.671875,-2.2851562 h 1.558594 c 0.164062,0 0.351562,0 0.351562,-0.1992188 0,-0.1992187 -0.1875,-0.1992187 -0.351562,-0.1992187 h -1.570313 c -1.710937,0 -3.058594,1.2890625 -3.058594,2.8828125 0,1.59374995 1.347657,2.8945312 3.058594,2.8945312 h 1.570313 c 0.164062,0 0.351562,0 0.351562,-0.19921875 0,-0.19921875 -0.1875,-0.19921875 -0.351562,-0.19921875 h -1.558594 c -1.40625,0 -2.542969,-0.9609375 -2.671875,-2.296875 z m 0,0"
         style="fill:#000000;fill-opacity:1;fill-rule:nonzero;stroke:none" />
      <path
         id="path9"
         d="m 67.454828,-3.3751875 c 0,-2.0390625 -1.5,-3.6445312 -3.316406,-3.6445312 -1.78125,0 -3.304688,1.59375 -3.304688,3.6445312 0,2.0390625 1.535157,3.59765625 3.304688,3.59765625 1.816406,0 3.316406,-1.58203125 3.316406,-3.59765625 z m -3.304687,3.36328125 c -0.984375,0 -2.355469,-0.85546875 -2.355469,-3.36328125 0,-2.5664062 1.382812,-3.4335937 2.34375,-3.4335937 1.007812,0 2.34375,0.9140625 2.34375,3.4335937 0,2.54296875 -1.394531,3.36328125 -2.332031,3.36328125 z m 1.769531,-4.11328125 h -0.246094 v 0.3398438 H 62.614984 V -4.1251875 H 62.368891 V -2.6955 h 0.246093 v -0.328125 h 3.058594 V -2.6955 h 0.246094 z m 0,0"
         style="fill:#000000;fill-opacity:1;fill-rule:nonzero;stroke:none" />
    </g>
    <path
       id="path10"
       d="m 52.3009,-14.17339 h 74.66101 V 14.1734 H 52.3009 Z"
       style="fill:none;stroke:#000000;stroke-width:0.79701;stroke-linecap:butt;stroke-linejoin:miter;stroke-miterlimit:10;stroke-dasharray:none;stroke-opacity:1"
       transform="matrix(1.3333333,0,0,-1.3333333,50.305333,88.524)" />
    <g
       id="g10"
       aria-label="X&#10;2&#10;∼f&#10;θ&#10;,θ∈Θ"
       transform="matrix(1.3333333,0,0,1.3333333,124.46533,91.844)">
      <path
         id="path11"
         d="M 4.8277578,-4.0900312 3.9957266,-6.0822187 c -0.035156,-0.070312 -0.046875,-0.1171875 -0.046875,-0.1289063 0,-0.058594 0.1640625,-0.2460937 0.5859375,-0.28125 0.09375,-0.011719 0.1992187,-0.023437 0.1992187,-0.1875 0,-0.1289062 -0.1171875,-0.1289062 -0.1523437,-0.1289062 -0.4101563,0 -0.8320313,0.035156 -1.2539063,0.035156 -0.2460937,0 -0.8671875,-0.035156 -1.1132812,-0.035156 -0.058594,0 -0.1875,0 -0.1875,0.1992187 0,0.1171875 0.1054687,0.1171875 0.234375,0.1171875 0.5976562,0 0.65625,0.09375 0.75,0.3164063 l 1.171875,2.7773437 -2.0976563,2.2617188 -0.1289062,0.1054687 c -0.4921875,0.52734375 -0.96093754,0.69140625 -1.46484379,0.7265625 -0.12890625,0 -0.22265625,0 -0.22265625,0.19921875 0,0 0,0.10546875 0.12890625,0.10546875 0.3046875,0 0.63281249,-0.03515625 0.93749999,-0.03515625 0.3632813,0 0.7617188,0.03515625 1.1132813,0.03515625 0.058594,0 0.1757812,0 0.1757812,-0.19921875 0,-0.10546875 -0.09375,-0.10546875 -0.1171875,-0.10546875 -0.082031,-0.0117188 -0.3984375,-0.0351563 -0.3984375,-0.31640625 0,-0.15234375 0.1523438,-0.31640625 0.2695313,-0.44531245 l 1.0195312,-1.078125 0.890625,-0.9726563 1.0078125,2.37890625 c 0.046875,0.10546875 0.046875,0.1171875 0.046875,0.140625 0,0.0820313 -0.1875,0.24609375 -0.5742187,0.29296875 -0.1054688,0 -0.1992188,0.0117188 -0.1992188,0.1875 0,0.1171875 0.1171875,0.1171875 0.1523438,0.1171875 0.28125,0 0.9726562,-0.03515625 1.2539062,-0.03515625 0.2460938,0 0.8554688,0.03515625 1.1015625,0.03515625 0.070312,0 0.1992188,0 0.1992188,-0.1875 0,-0.1171875 -0.1054688,-0.1171875 -0.1875,-0.1171875 C 6.4215078,-0.31659375 6.4097891,-0.35175 6.2340078,-0.7501875 5.8472891,-1.6759687 5.1793203,-3.2228437 4.9449453,-3.8205 c 0.6796875,-0.703125 1.734375,-1.8867187 2.0507813,-2.1679687 0.28125,-0.234375 0.6679687,-0.4804688 1.265625,-0.5039063 0.1289062,-0.011719 0.2109375,-0.011719 0.2109375,-0.1992187 0,-0.011719 0,-0.1171875 -0.1289063,-0.1171875 -0.2929687,0 -0.6210937,0.035156 -0.9375,0.035156 -0.3632812,0 -0.7382812,-0.035156 -1.1015625,-0.035156 -0.058594,0 -0.1875,0 -0.1875,0.1992187 0,0.070312 0.046875,0.1054688 0.1171875,0.1171875 0.09375,0.011719 0.3984375,0.023437 0.3984375,0.3046875 0,0.140625 -0.1054687,0.2695313 -0.1875,0.3632813 z m 0,0"
         style="fill:#000000;fill-opacity:1;fill-rule:nonzero;stroke:none" />
      <path
         id="path12"
         d="m 11.768187,0.22832813 h -0.234375 c -0.02344,0.15234375 -0.08203,0.5625 -0.175781,0.6328125 -0.05859,0.0351563 -0.597656,0.0351563 -0.691406,0.0351563 H 9.3775625 c 0.7382815,-0.64453125 0.9843745,-0.84375 1.3945315,-1.171875 0.515625,-0.41015625 0.996093,-0.84374993 0.996093,-1.49999993 0,-0.8437501 -0.738281,-1.3593751 -1.628906,-1.3593751 -0.8671873,0 -1.4531248,0.609375 -1.4531248,1.2421876 0,0.3632812 0.3046875,0.3984375 0.375,0.3984375 0.1640625,0 0.375,-0.1171875 0.375,-0.375 0,-0.1289063 -0.058594,-0.3632814 -0.421875,-0.3632814 0.2226563,-0.5039062 0.6914063,-0.65625 1.0195308,-0.65625 0.703125,0 1.066407,0.5507813 1.066407,1.1132813 0,0.609375 -0.433594,1.08984378 -0.65625,1.33593753 L 8.7564687,1.2244219 c -0.070312,0.058594 -0.070312,0.070312 -0.070312,0.2695312 H 11.56897 Z m 0,0"
         style="fill:#000000;fill-opacity:1;fill-rule:nonzero;stroke:none" />
      <path
         id="path13"
         d="m 22.687133,-3.3283125 c 0,-0.2226562 -0.05859,-0.3164062 -0.140625,-0.3164062 -0.04687,0 -0.128906,0.070312 -0.140625,0.2578125 -0.03516,0.9609375 -0.703125,1.5 -1.394531,1.5 -0.632813,0 -1.101563,-0.421875 -1.59375,-0.8554688 -0.503907,-0.4570312 -1.03125,-0.9140625 -1.699219,-0.9140625 -1.089844,0 -1.675781,1.1015625 -1.675781,2.0039063 0,0.3164062 0.128906,0.3164062 0.140625,0.3164062 0.105468,0 0.140625,-0.1992187 0.140625,-0.2226562 0.03516,-1.1015625 0.785156,-1.5351563 1.394531,-1.5351563 0.621094,0 1.101562,0.421875 1.59375,0.8554688 0.503906,0.4570312 1.019531,0.9140625 1.699219,0.9140625 1.089843,0 1.675781,-1.1015625 1.675781,-2.0039063 z m 0,0"
         style="fill:#000000;fill-opacity:1;fill-rule:nonzero;stroke:none" />
      <path
         id="path14"
         d="m 29.662719,-3.9845625 h 0.855468 c 0.199219,0 0.304688,0 0.304688,-0.1992187 0,-0.1054688 -0.105469,-0.1054688 -0.269531,-0.1054688 h -0.832032 l 0.210938,-1.1367187 c 0.03516,-0.2109375 0.175781,-0.9140625 0.234375,-1.0429688 0.09375,-0.1875 0.257812,-0.3398437 0.46875,-0.3398437 0.04687,0 0.304687,0 0.492187,0.1875 -0.433593,0.035156 -0.539062,0.3867187 -0.539062,0.5390625 0,0.2226562 0.175781,0.3398437 0.363281,0.3398437 0.269531,0 0.550781,-0.2109375 0.550781,-0.5976562 0,-0.4570313 -0.457031,-0.6796875 -0.867187,-0.6796875 -0.339844,0 -0.960938,0.1757812 -1.265625,1.1601562 -0.05859,0.2109375 -0.08203,0.3164063 -0.328125,1.5703125 h -0.679688 c -0.199218,0 -0.304687,0 -0.304687,0.1875 0,0.1171875 0.09375,0.1171875 0.28125,0.1171875 h 0.65625 l -0.75,3.9375 c -0.175781,0.9609375 -0.339844,1.875 -0.867188,1.875 -0.03516,0 -0.28125,0 -0.46875,-0.1875 0.457032,-0.023437 0.539063,-0.3867187 0.539063,-0.5390625 0,-0.22265625 -0.175781,-0.33984375 -0.363281,-0.33984375 -0.257813,0 -0.550782,0.2109375 -0.550782,0.59765625 0,0.4453125 0.433594,0.6796875 0.84375,0.6796875 0.550782,0 0.949219,-0.5859375 1.125,-0.9609375 0.328125,-0.6328125 0.550782,-1.83984375 0.5625,-1.91015625 z m 0,0"
         style="fill:#000000;fill-opacity:1;fill-rule:nonzero;stroke:none" />
      <path
         id="path15"
         d="m 34.446898,-1.9044844 c 0,-0.7265625 -0.28125,-1.5117187 -0.960937,-1.5117187 -1.042969,0 -2.167969,1.875 -2.167969,3.46874998 0,0.83203125 0.328125,1.51171872 0.972656,1.51171872 1.054688,0 2.15625,-1.89843747 2.15625,-3.46875 z m -2.332031,0.8554688 c 0.351563,-1.5117188 0.949219,-2.1679688 1.359375,-2.1679688 0.445313,0 0.445313,0.7734375 0.445313,0.9023438 0,0.2695312 -0.04687,0.6796875 -0.199219,1.265625 z m 1.546875,0.24609373 c -0.199219,0.76171875 -0.363281,1.13671875 -0.5625,1.4765625 -0.222656,0.36328127 -0.503906,0.69140627 -0.808594,0.69140627 -0.386718,0 -0.445312,-0.52734377 -0.445312,-0.90234377 0,-0.45703125 0.128906,-1.0078125 0.199219,-1.265625 z m 0,0"
         style="fill:#000000;fill-opacity:1;fill-rule:nonzero;stroke:none" />
      <path
         id="path16"
         d="m 37.420531,-0.01190625 c 0,-0.65625 -0.257812,-1.04296875 -0.644531,-1.04296875 -0.328125,0 -0.527344,0.24609375 -0.527344,0.52734375 0,0.26953125 0.199219,0.52734375 0.527344,0.52734375 0.117187,0 0.246094,-0.03515625 0.351562,-0.12890625 0.02344,-0.0234375 0.03516,-0.0351563 0.04687,-0.0351563 0.01172,0 0.02344,0.0117188 0.02344,0.15234375 0,0.73828125 -0.351563,1.3359375 -0.679688,1.6640625 -0.105468,0.1054687 -0.105468,0.1289062 -0.105468,0.1640625 0,0.070312 0.04687,0.1054687 0.09375,0.1054687 0.117187,0 0.914062,-0.7617187 0.914062,-1.9335937 z M 47.677367,-4.9806562 c 0,-0.65625 -0.1875,-2.0390625 -1.195312,-2.0390625 -1.382813,0 -2.917969,2.8007812 -2.917969,5.0859375 0,0.93749995 0.28125,2.03906245 1.195312,2.03906245 1.40625,0 2.917969,-2.85937495 2.917969,-5.08593745 z m -3.058594,1.359375 c 0.164063,-0.6328125 0.363282,-1.4296875 0.761719,-2.1328125 0.269531,-0.4921875 0.644531,-1.0546875 1.089844,-1.0546875 0.492187,0 0.550781,0.6445312 0.550781,1.2070312 0,0.4921875 -0.08203,0.9960938 -0.328125,1.9804688 z m 1.992188,0.328125 c -0.117188,0.4570312 -0.316406,1.3007812 -0.703125,2.015625 -0.339844,0.67968745 -0.726563,1.17187495 -1.148438,1.17187495 -0.328125,0 -0.539062,-0.29296875 -0.539062,-1.21874995 0,-0.421875 0.05859,-0.9960938 0.316406,-1.96875 z m 0,0"
         style="fill:#000000;fill-opacity:1;fill-rule:nonzero;stroke:none" />
      <path
         id="path17"
         d="m 56.322875,-2.2970625 c 0.164062,0 0.351562,0 0.351562,-0.1992187 0,-0.1992188 -0.1875,-0.1992188 -0.351562,-0.1992188 h -4.230469 c 0.128906,-1.3242187 1.265625,-2.2851562 2.671875,-2.2851562 h 1.558594 c 0.164062,0 0.351562,0 0.351562,-0.1992188 0,-0.1992187 -0.1875,-0.1992187 -0.351562,-0.1992187 h -1.570313 c -1.710937,0 -3.058593,1.2890625 -3.058593,2.8828125 0,1.59374995 1.347656,2.8945312 3.058593,2.8945312 h 1.570313 c 0.164062,0 0.351562,0 0.351562,-0.19921875 0,-0.19921875 -0.1875,-0.19921875 -0.351562,-0.19921875 h -1.558594 c -1.40625,0 -2.542969,-0.9609375 -2.671875,-2.296875 z m 0,0"
         style="fill:#000000;fill-opacity:1;fill-rule:nonzero;stroke:none" />
      <path
         id="path18"
         d="m 67.455687,-3.3751875 c 0,-2.0390625 -1.5,-3.6445312 -3.316406,-3.6445312 -1.78125,0 -3.304687,1.59375 -3.304687,3.6445312 0,2.0390625 1.535156,3.59765625 3.304687,3.59765625 1.816406,0 3.316406,-1.58203125 3.316406,-3.59765625 z M 64.151,-0.01190625 c -0.984375,0 -2.355469,-0.85546875 -2.355469,-3.36328125 0,-2.5664062 1.382813,-3.4335937 2.34375,-3.4335937 1.007813,0 2.34375,0.9140625 2.34375,3.4335937 0,2.54296875 -1.394531,3.36328125 -2.332031,3.36328125 z m 1.769531,-4.11328125 h -0.246094 v 0.3398438 H 62.615844 V -4.1251875 H 62.36975 V -2.6955 h 0.246094 v -0.328125 h 3.058593 V -2.6955 h 0.246094 z m 0,0"
         style="fill:#000000;fill-opacity:1;fill-rule:nonzero;stroke:none" />
    </g>
    <path
       id="path19"
       d="m 1.9096484,-0.52835156 c 0,-0.29296875 -0.234375,-0.52734374 -0.5273437,-0.52734374 -0.28125,0 -0.52734376,0.23437499 -0.52734376,0.52734374 0,0.29296875 0.24609376,0.52734375 0.52734376,0.52734375 0.2929687,0 0.5273437,-0.234375 0.5273437,-0.52734375 z m 2.7685547,0 c 0,-0.29296875 -0.234375,-0.52734374 -0.5273437,-0.52734374 -0.28125,0 -0.5273438,0.23437499 -0.5273438,0.52734374 0,0.29296875 0.2460938,0.52734375 0.5273438,0.52734375 0.2929687,0 0.5273437,-0.234375 0.5273437,-0.52734375 z m 2.7685547,0 c 0,-0.29296875 -0.234375,-0.52734374 -0.5273437,-0.52734374 -0.28125,0 -0.5273438,0.23437499 -0.5273438,0.52734374 0,0.29296875 0.2460938,0.52734375 0.5273438,0.52734375 0.2929687,0 0.5273437,-0.234375 0.5273437,-0.52734375 z m 0,0"
       style="fill:#000000;fill-opacity:1;fill-rule:nonzero;stroke:none"
       aria-label="..."
       transform="matrix(1.3333333,0,0,1.3333333,243.97333,89.224)" />
    <path
       id="path20"
       d="m 171.84619,-14.17339 h 74.16174 V 14.1734 h -74.16174 z"
       style="fill:none;stroke:#000000;stroke-width:0.79701;stroke-linecap:butt;stroke-linejoin:miter;stroke-miterlimit:10;stroke-dasharray:none;stroke-opacity:1"
       transform="matrix(1.3333333,0,0,-1.3333333,50.305333,88.524)" />
    <g
       id="g20"
       aria-label="Z&#10;n&#10;∼f&#10;θ&#10;,θ∈Θ"
       transform="matrix(1.3333333,0,0,1.3333333,283.85733,91.844)">
      <path
         id="path21"
         d="m 7.1704766,-6.5626875 c 0.011719,-0.046875 0.035156,-0.09375 0.035156,-0.1523437 0,-0.09375 -0.058594,-0.09375 -0.2578125,-0.09375 H 2.7525078 c -0.2460937,0 -0.2578125,0.011719 -0.3164062,0.1992187 l -0.5390625,1.7929688 c -0.023437,0.058594 -0.035156,0.1289062 -0.035156,0.140625 0,0.011719 0,0.1171875 0.1171875,0.1171875 0.09375,0 0.1171875,-0.070312 0.1289063,-0.1054688 0.3867187,-1.171875 0.9023437,-1.828125 2.4492187,-1.828125 h 1.6289063 l -5.56640629,6.22265625 c 0,0.0117188 -0.046875,0.15234375 -0.046875,0.17578125 0,0.09375 0.0703125,0.09375 0.2578125,0.09375 H 5.1548516 c 0.2460937,0 0.2578125,-0.01171875 0.3164062,-0.19921875 l 0.703125,-2.20312495 c 0.011719,-0.035156 0.035156,-0.1054688 0.035156,-0.1523438 0,-0.046875 -0.035156,-0.1054687 -0.1289063,-0.1054687 -0.082031,0 -0.09375,0.035156 -0.1640625,0.2460937 -0.4335937,1.359375 -0.9140625,2.07421875 -2.6132812,2.07421875 H 1.6040703 Z m 0,0"
         style="fill:#000000;fill-opacity:1;fill-rule:nonzero;stroke:none" />
      <path
         id="path22"
         d="m 7.6568047,1.0603594 c -0.035156,0.082031 -0.070312,0.2578125 -0.070312,0.28125 0,0.1523437 0.1171875,0.2226562 0.234375,0.2226562 0.1289062,0 0.234375,-0.09375 0.2695312,-0.1523437 0.035156,-0.058594 0.09375,-0.2929688 0.1289063,-0.43359377 0.035156,-0.12890625 0.1054687,-0.45703125 0.1523437,-0.6328125 0.035156,-0.15234375 0.082031,-0.3046875 0.1171875,-0.45703125 0.082031,-0.29296875 0.09375,-0.3515625 0.2929688,-0.6328125 0.1992187,-0.28124998 0.5273437,-0.64453128 1.0429687,-0.64453128 0.4101571,0 0.4101571,0.3632813 0.4101571,0.49218753 0,0.421875 -0.2929696,1.1953125 -0.4101571,1.48828125 -0.070312,0.1875 -0.1054687,0.2578125 -0.1054687,0.375 0,0.36328122 0.3046878,0.59765622 0.6679688,0.59765622 0.691407,0 1.007813,-0.96093747 1.007813,-1.06640622 0,-0.09375 -0.09375,-0.09375 -0.117188,-0.09375 -0.09375,0 -0.105468,0.046875 -0.128906,0.1171875 -0.164062,0.56250002 -0.46875,0.84375002 -0.738281,0.84375002 -0.152344,0 -0.175782,-0.09375 -0.175782,-0.2460938 0,-0.15234372 0.03516,-0.24609372 0.152343,-0.56249997 0.09375,-0.2109375 0.375,-0.94921875 0.375,-1.34765625 0,-0.66796878 -0.539061,-0.78515628 -0.9023428,-0.78515628 -0.5859375,0 -0.9726563,0.3515625 -1.1835938,0.63281253 -0.046875,-0.48046873 -0.4570312,-0.63281253 -0.75,-0.63281253 -0.2929687,0 -0.4570312,0.2109375 -0.5507812,0.375 -0.1523438,0.25781253 -0.2460938,0.65625003 -0.2460938,0.69140628 0,0.0820313 0.09375,0.0820313 0.1171875,0.0820313 0.09375,0 0.1054688,-0.0117188 0.1523438,-0.19921875 0.1054687,-0.42187493 0.234375,-0.76171873 0.515625,-0.76171873 0.1757812,0 0.2226562,0.1523438 0.2226562,0.3398438 0,0.14062493 -0.058594,0.39843743 -0.1054687,0.58593743 -0.046875,0.1875 -0.1171875,0.46875 -0.1523438,0.62109375 z m 0,0"
         style="fill:#000000;fill-opacity:1;fill-rule:nonzero;stroke:none" />
      <path
         id="path23"
         d="m 22.185125,-3.3283125 c 0,-0.2226562 -0.05859,-0.3164062 -0.140625,-0.3164062 -0.04687,0 -0.128906,0.070312 -0.140625,0.2578125 -0.03516,0.9609375 -0.703125,1.5 -1.394531,1.5 -0.632813,0 -1.101563,-0.421875 -1.59375,-0.8554688 -0.503906,-0.4570312 -1.03125,-0.9140625 -1.699219,-0.9140625 -1.089844,0 -1.675781,1.1015625 -1.675781,2.0039063 0,0.3164062 0.128906,0.3164062 0.140625,0.3164062 0.105469,0 0.140625,-0.1992187 0.140625,-0.2226562 0.03516,-1.1015625 0.785156,-1.5351563 1.394531,-1.5351563 0.621094,0 1.101563,0.421875 1.59375,0.8554688 0.503906,0.4570312 1.019531,0.9140625 1.699219,0.9140625 1.089844,0 1.675781,-1.1015625 1.675781,-2.0039063 z m 0,0"
         style="fill:#000000;fill-opacity:1;fill-rule:nonzero;stroke:none" />
      <path
         id="path24"
         d="m 29.163641,-3.9845625 h 0.855468 c 0.199219,0 0.304688,0 0.304688,-0.1992187 0,-0.1054688 -0.105469,-0.1054688 -0.269531,-0.1054688 h -0.832032 l 0.210938,-1.1367187 c 0.03516,-0.2109375 0.175781,-0.9140625 0.234375,-1.0429688 0.09375,-0.1875 0.257812,-0.3398437 0.46875,-0.3398437 0.04687,0 0.304687,0 0.492187,0.1875 -0.433593,0.035156 -0.539062,0.3867187 -0.539062,0.5390625 0,0.2226562 0.175781,0.3398437 0.363281,0.3398437 0.269531,0 0.550781,-0.2109375 0.550781,-0.5976562 0,-0.4570313 -0.457031,-0.6796875 -0.867187,-0.6796875 -0.339844,0 -0.960938,0.1757812 -1.265625,1.1601562 -0.05859,0.2109375 -0.08203,0.3164063 -0.328125,1.5703125 h -0.679688 c -0.199218,0 -0.304687,0 -0.304687,0.1875 0,0.1171875 0.09375,0.1171875 0.28125,0.1171875 h 0.65625 l -0.75,3.9375 c -0.175781,0.9609375 -0.339844,1.875 -0.867188,1.875 -0.03516,0 -0.28125,0 -0.46875,-0.1875 0.457032,-0.023437 0.539063,-0.3867187 0.539063,-0.5390625 0,-0.22265625 -0.175781,-0.33984375 -0.363281,-0.33984375 -0.257813,0 -0.550782,0.2109375 -0.550782,0.59765625 0,0.4453125 0.433594,0.6796875 0.84375,0.6796875 0.550782,0 0.949219,-0.5859375 1.125,-0.9609375 0.328125,-0.6328125 0.550782,-1.83984375 0.5625,-1.91015625 z m 0,0"
         style="fill:#000000;fill-opacity:1;fill-rule:nonzero;stroke:none" />
      <path
         id="path25"
         d="m 33.94782,-1.9044844 c 0,-0.7265625 -0.28125,-1.5117187 -0.960937,-1.5117187 -1.042969,0 -2.167969,1.875 -2.167969,3.46874998 0,0.83203125 0.328125,1.51171872 0.972656,1.51171872 1.054688,0 2.15625,-1.89843747 2.15625,-3.46875 z m -2.332031,0.8554688 c 0.351563,-1.5117188 0.949219,-2.1679688 1.359375,-2.1679688 0.445313,0 0.445313,0.7734375 0.445313,0.9023438 0,0.2695312 -0.04687,0.6796875 -0.199219,1.265625 z m 1.546875,0.24609373 c -0.199219,0.76171875 -0.363281,1.13671875 -0.5625,1.4765625 -0.222656,0.36328127 -0.503906,0.69140627 -0.808594,0.69140627 -0.386718,0 -0.445312,-0.52734377 -0.445312,-0.90234377 0,-0.45703125 0.128906,-1.0078125 0.199219,-1.265625 z m 0,0"
         style="fill:#000000;fill-opacity:1;fill-rule:nonzero;stroke:none" />
      <path
         id="path26"
         d="m 36.918523,-0.01190625 c 0,-0.65625 -0.257812,-1.04296875 -0.644531,-1.04296875 -0.328125,0 -0.527344,0.24609375 -0.527344,0.52734375 0,0.26953125 0.199219,0.52734375 0.527344,0.52734375 0.117188,0 0.246094,-0.03515625 0.351563,-0.12890625 0.02344,-0.0234375 0.03516,-0.0351563 0.04687,-0.0351563 0.01172,0 0.02344,0.0117188 0.02344,0.15234375 0,0.73828125 -0.351562,1.3359375 -0.679687,1.6640625 -0.105469,0.1054687 -0.105469,0.1289062 -0.105469,0.1640625 0,0.070312 0.04687,0.1054687 0.09375,0.1054687 0.117187,0 0.914062,-0.7617187 0.914062,-1.9335937 z M 47.175359,-4.9806562 c 0,-0.65625 -0.1875,-2.0390625 -1.195312,-2.0390625 -1.382813,0 -2.917969,2.8007812 -2.917969,5.0859375 0,0.93749995 0.28125,2.03906245 1.195313,2.03906245 1.40625,0 2.917968,-2.85937495 2.917968,-5.08593745 z m -3.058593,1.359375 c 0.164062,-0.6328125 0.363281,-1.4296875 0.761718,-2.1328125 0.269532,-0.4921875 0.644532,-1.0546875 1.089844,-1.0546875 0.492188,0 0.550781,0.6445312 0.550781,1.2070312 0,0.4921875 -0.08203,0.9960938 -0.328125,1.9804688 z m 1.992187,0.328125 c -0.117187,0.4570312 -0.316406,1.3007812 -0.703125,2.015625 -0.339844,0.67968745 -0.726562,1.17187495 -1.148437,1.17187495 -0.328125,0 -0.539063,-0.29296875 -0.539063,-1.21874995 0,-0.421875 0.05859,-0.9960938 0.316406,-1.96875 z m 0,0"
         style="fill:#000000;fill-opacity:1;fill-rule:nonzero;stroke:none" />
      <path
         id="path27"
         d="m 55.823797,-2.2970625 c 0.164062,0 0.351562,0 0.351562,-0.1992187 0,-0.1992188 -0.1875,-0.1992188 -0.351562,-0.1992188 h -4.230469 c 0.128906,-1.3242187 1.265625,-2.2851562 2.671875,-2.2851562 h 1.558594 c 0.164062,0 0.351562,0 0.351562,-0.1992188 0,-0.1992187 -0.1875,-0.1992187 -0.351562,-0.1992187 h -1.570313 c -1.710937,0 -3.058593,1.2890625 -3.058593,2.8828125 0,1.59374995 1.347656,2.8945312 3.058593,2.8945312 h 1.570313 c 0.164062,0 0.351562,0 0.351562,-0.19921875 0,-0.19921875 -0.1875,-0.19921875 -0.351562,-0.19921875 h -1.558594 c -1.40625,0 -2.542969,-0.9609375 -2.671875,-2.296875 z m 0,0"
         style="fill:#000000;fill-opacity:1;fill-rule:nonzero;stroke:none" />
      <path
         id="path28"
         d="m 66.95368,-3.3751875 c 0,-2.0390625 -1.5,-3.6445312 -3.316407,-3.6445312 -1.78125,0 -3.304687,1.59375 -3.304687,3.6445312 0,2.0390625 1.535156,3.59765625 3.304687,3.59765625 1.816407,0 3.316407,-1.58203125 3.316407,-3.59765625 z m -3.304688,3.36328125 c -0.984375,0 -2.355469,-0.85546875 -2.355469,-3.36328125 0,-2.5664062 1.382813,-3.4335937 2.34375,-3.4335937 1.007813,0 2.34375,0.9140625 2.34375,3.4335937 0,2.54296875 -1.394531,3.36328125 -2.332031,3.36328125 z M 65.418523,-4.1251875 H 65.17243 v 0.3398438 H 62.113836 V -4.1251875 H 61.867742 V -2.6955 h 0.246094 V -3.023625 H 65.17243 V -2.6955 h 0.246093 z m 0,0"
         style="fill:#000000;fill-opacity:1;fill-rule:nonzero;stroke:none" />
    </g>
    <path
       id="path29"
       d="m 56.36798,37.64793 h 94.87366 V 65.99472 H 56.36798 Z"
       style="fill:none;stroke:#000000;stroke-width:0.79701;stroke-linecap:butt;stroke-linejoin:miter;stroke-miterlimit:10;stroke-dasharray:none;stroke-opacity:1"
       transform="matrix(1.3333333,0,0,-1.3333333,50.305333,88.524)" />
    <g
       id="g29"
       aria-label="X∼f&#10;θ&#10;,θ∈Θ,g(θ)"
       transform="matrix(1.3333333,0,0,1.3333333,129.888,22.750667)">
      <path
         id="path30"
         d="M 4.8271641,-4.0903438 3.9951328,-6.0825313 c -0.035156,-0.070312 -0.046875,-0.1171875 -0.046875,-0.1289062 0,-0.058594 0.1640625,-0.2460938 0.5859375,-0.28125 0.09375,-0.011719 0.1992188,-0.023437 0.1992188,-0.1875 0,-0.1289063 -0.1171875,-0.1289063 -0.1523438,-0.1289063 -0.4101562,0 -0.8320312,0.035156 -1.2539062,0.035156 -0.2460938,0 -0.8671875,-0.035156 -1.1132813,-0.035156 -0.058594,0 -0.1875,0 -0.1875,0.1992188 0,0.1171875 0.1054688,0.1171875 0.234375,0.1171875 0.5976563,0 0.65625,0.09375 0.75,0.3164062 l 1.171875,2.7773438 -2.0976562,2.2617187 -0.1289063,0.1054688 c -0.4921875,0.52734375 -0.96093749,0.69140625 -1.46484374,0.7265625 -0.12890625,0 -0.22265625,0 -0.22265625,0.19921875 0,0 0,0.10546875 0.12890625,0.10546875 0.3046875,0 0.63281254,-0.03515625 0.93750004,-0.03515625 0.3632812,0 0.7617187,0.03515625 1.1132812,0.03515625 0.058594,0 0.1757813,0 0.1757813,-0.19921875 0,-0.10546875 -0.09375,-0.10546875 -0.1171875,-0.10546875 -0.082031,-0.0117188 -0.3984375,-0.0351563 -0.3984375,-0.31640625 0,-0.15234375 0.1523437,-0.31640625 0.2695312,-0.44531255 l 1.0195313,-1.078125 0.890625,-0.9726562 1.0078125,2.37890625 c 0.046875,0.10546875 0.046875,0.1171875 0.046875,0.140625 0,0.0820313 -0.1875,0.24609375 -0.5742188,0.29296875 -0.1054687,0 -0.1992187,0.0117188 -0.1992187,0.1875 0,0.1171875 0.1171875,0.1171875 0.1523437,0.1171875 0.28125,0 0.9726563,-0.03515625 1.2539063,-0.03515625 0.2460937,0 0.8554687,0.03515625 1.1015625,0.03515625 0.070312,0 0.1992187,0 0.1992187,-0.1875 0,-0.1171875 -0.1054687,-0.1171875 -0.1875,-0.1171875 C 6.4209141,-0.31690625 6.4091953,-0.3520625 6.2334141,-0.7505 5.8466953,-1.6762813 5.1787266,-3.2231563 4.9443516,-3.8208125 c 0.6796875,-0.703125 1.734375,-1.8867188 2.0507812,-2.1679688 0.28125,-0.234375 0.6679688,-0.4804687 1.265625,-0.5039062 0.1289063,-0.011719 0.2109375,-0.011719 0.2109375,-0.1992188 0,-0.011719 0,-0.1171875 -0.1289062,-0.1171875 -0.2929688,0 -0.6210938,0.035156 -0.9375,0.035156 -0.3632813,0 -0.7382813,-0.035156 -1.1015625,-0.035156 -0.058594,0 -0.1875,0 -0.1875,0.1992188 0,0.070312 0.046875,0.1054687 0.1171875,0.1171875 0.09375,0.011719 0.3984375,0.023437 0.3984375,0.3046875 0,0.140625 -0.1054688,0.2695312 -0.1875,0.3632812 z m 0,0"
         style="fill:#000000;fill-opacity:1;fill-rule:nonzero;stroke:none" />
      <path
         id="path31"
         d="m 18.998063,-3.328625 c 0,-0.2226563 -0.05859,-0.3164063 -0.140625,-0.3164063 -0.04687,0 -0.128907,0.070312 -0.140625,0.2578125 -0.03516,0.9609375 -0.703125,1.5 -1.394532,1.5 -0.632812,0 -1.101562,-0.421875 -1.59375,-0.8554687 -0.503906,-0.4570313 -1.03125,-0.9140625 -1.699218,-0.9140625 -1.089844,0 -1.675782,1.1015625 -1.675782,2.0039062 0,0.3164063 0.128907,0.3164063 0.140625,0.3164063 0.105469,0 0.140625,-0.1992188 0.140625,-0.2226563 0.03516,-1.1015625 0.785157,-1.5351562 1.394532,-1.5351562 0.621093,0 1.101562,0.421875 1.59375,0.8554687 0.503906,0.4570313 1.019531,0.9140625 1.699218,0.9140625 1.089844,0 1.675782,-1.1015625 1.675782,-2.0039062 z m 0,0"
         style="fill:#000000;fill-opacity:1;fill-rule:nonzero;stroke:none" />
      <path
         id="path32"
         d="m 25.976578,-3.984875 h 0.855469 c 0.199219,0 0.304687,0 0.304687,-0.1992188 0,-0.1054687 -0.105468,-0.1054687 -0.269531,-0.1054687 h -0.832031 l 0.210937,-1.1367188 c 0.03516,-0.2109375 0.175782,-0.9140625 0.234375,-1.0429687 0.09375,-0.1875 0.257813,-0.3398438 0.46875,-0.3398438 0.04687,0 0.304688,0 0.492188,0.1875 -0.433594,0.035156 -0.539063,0.3867188 -0.539063,0.5390625 0,0.2226563 0.175782,0.3398438 0.363282,0.3398438 0.269531,0 0.550781,-0.2109375 0.550781,-0.5976563 0,-0.4570312 -0.457031,-0.6796875 -0.867188,-0.6796875 -0.339843,0 -0.960937,0.1757813 -1.265625,1.1601563 -0.05859,0.2109375 -0.08203,0.3164062 -0.328125,1.5703125 h -0.679687 c -0.199219,0 -0.304688,0 -0.304688,0.1875 0,0.1171875 0.09375,0.1171875 0.28125,0.1171875 h 0.65625 l -0.75,3.9375 c -0.175781,0.9609375 -0.339843,1.875 -0.867187,1.875 -0.03516,0 -0.28125,0 -0.46875,-0.1875 0.457031,-0.023437 0.539062,-0.3867188 0.539062,-0.5390625 0,-0.22265625 -0.175781,-0.33984375 -0.363281,-0.33984375 -0.257812,0 -0.550781,0.2109375 -0.550781,0.59765625 0,0.4453125 0.433594,0.6796875 0.84375,0.6796875 0.550781,0 0.949219,-0.5859375 1.125,-0.9609375 0.328125,-0.6328125 0.550781,-1.83984375 0.5625,-1.91015625 z m 0,0"
         style="fill:#000000;fill-opacity:1;fill-rule:nonzero;stroke:none" />
      <path
         id="path33"
         d="m 30.760758,-1.9047969 c 0,-0.7265625 -0.28125,-1.5117187 -0.960938,-1.5117187 -1.042968,0 -2.167968,1.875 -2.167968,3.46874997 0,0.83203125 0.328125,1.51171873 0.972656,1.51171873 1.054687,0 2.15625,-1.89843748 2.15625,-3.46875 z m -2.332031,0.8554688 c 0.351562,-1.5117188 0.949218,-2.1679688 1.359375,-2.1679688 0.445312,0 0.445312,0.7734375 0.445312,0.9023438 0,0.2695312 -0.04687,0.6796875 -0.199219,1.265625 z m 1.546875,0.24609372 c -0.199219,0.76171875 -0.363282,1.13671875 -0.5625,1.4765625 -0.222657,0.36328128 -0.503907,0.69140628 -0.808594,0.69140628 -0.386719,0 -0.445313,-0.52734378 -0.445313,-0.90234378 0,-0.45703125 0.128907,-1.0078125 0.199219,-1.265625 z m 0,0"
         style="fill:#000000;fill-opacity:1;fill-rule:nonzero;stroke:none" />
      <path
         id="path34"
         d="m 33.731461,-0.01221875 c 0,-0.65625 -0.257813,-1.04296875 -0.644531,-1.04296875 -0.328125,0 -0.527344,0.24609375 -0.527344,0.52734375 0,0.26953125 0.199219,0.52734375 0.527344,0.52734375 0.117187,0 0.246093,-0.03515625 0.351562,-0.12890625 0.02344,-0.0234375 0.03516,-0.0351563 0.04687,-0.0351563 0.01172,0 0.02344,0.0117188 0.02344,0.15234375 0,0.73828125 -0.351563,1.3359375 -0.679688,1.6640625 -0.105469,0.1054688 -0.105469,0.1289063 -0.105469,0.1640625 0,0.070312 0.04687,0.1054688 0.09375,0.1054688 0.117188,0 0.914063,-0.7617189 0.914063,-1.9335938 z M 43.988297,-4.9809688 c 0,-0.65625 -0.1875,-2.0390625 -1.195313,-2.0390625 -1.382812,0 -2.917968,2.8007813 -2.917968,5.0859375 0,0.93750005 0.28125,2.03906255 1.195312,2.03906255 1.40625,0 2.917969,-2.85937505 2.917969,-5.08593755 z m -3.058594,1.359375 c 0.164063,-0.6328125 0.363281,-1.4296875 0.761719,-2.1328125 0.269531,-0.4921875 0.644531,-1.0546875 1.089844,-1.0546875 0.492187,0 0.550781,0.6445313 0.550781,1.2070313 0,0.4921875 -0.08203,0.9960937 -0.328125,1.9804687 z m 1.992188,0.328125 c -0.117188,0.4570313 -0.316407,1.3007813 -0.703125,2.015625 -0.339844,0.67968755 -0.726563,1.17187505 -1.148438,1.17187505 -0.328125,0 -0.539062,-0.29296875 -0.539062,-1.21875005 0,-0.421875 0.05859,-0.9960937 0.316406,-1.96875 z m 0,0"
         style="fill:#000000;fill-opacity:1;fill-rule:nonzero;stroke:none" />
      <path
         id="path35"
         d="m 52.633805,-2.297375 c 0.164062,0 0.351562,0 0.351562,-0.1992188 0,-0.1992187 -0.1875,-0.1992187 -0.351562,-0.1992187 h -4.230469 c 0.128906,-1.3242188 1.265625,-2.2851563 2.671875,-2.2851563 h 1.558594 c 0.164062,0 0.351562,0 0.351562,-0.1992187 0,-0.1992188 -0.1875,-0.1992188 -0.351562,-0.1992188 h -1.570313 c -1.710937,0 -3.058594,1.2890625 -3.058594,2.8828125 0,1.59375005 1.347657,2.8945313 3.058594,2.8945313 h 1.570313 c 0.164062,0 0.351562,0 0.351562,-0.19921875 C 52.985367,-5e-4 52.797867,-5e-4 52.633805,-5e-4 h -1.558594 c -1.40625,0 -2.542969,-0.9609375 -2.671875,-2.296875 z m 0,0"
         style="fill:#000000;fill-opacity:1;fill-rule:nonzero;stroke:none" />
      <path
         id="path36"
         d="m 63.766617,-3.3755 c 0,-2.0390625 -1.5,-3.6445313 -3.316406,-3.6445313 -1.78125,0 -3.304688,1.59375 -3.304688,3.6445313 0,2.0390625 1.535157,3.59765625 3.304688,3.59765625 1.816406,0 3.316406,-1.58203125 3.316406,-3.59765625 z m -3.304687,3.36328125 c -0.984375,0 -2.355469,-0.85546875 -2.355469,-3.36328125 0,-2.5664063 1.382812,-3.4335938 2.34375,-3.4335938 1.007812,0 2.34375,0.9140625 2.34375,3.4335938 0,2.54296875 -1.394531,3.36328125 -2.332031,3.36328125 z M 62.231461,-4.1255 h -0.246094 v 0.3398437 H 58.926773 V -4.1255 H 58.68068 v 1.4296875 h 0.246093 v -0.328125 h 3.058594 v 0.328125 h 0.246094 z m 4.12793,4.11328125 c 0,-0.6328125 -0.246094,-1.04296875 -0.644532,-1.04296875 -0.351562,0 -0.527343,0.26953125 -0.527343,0.52734375 0,0.2578125 0.175781,0.52734375 0.527343,0.52734375 0.164063,0 0.28125,-0.05859375 0.375,-0.140625 l 0.02344,-0.0234375 c 0.01172,0 0.02344,0.0117188 0.02344,0.15234375 0,0.64453125 -0.28125,1.24218745 -0.714843,1.71093745 -0.05859,0.058594 -0.07031,0.070312 -0.07031,0.1171875 0,0.070312 0.04687,0.1054688 0.09375,0.1054688 0.117188,0 0.914063,-0.7851563 0.914063,-1.93359375 z m 0,0"
         style="fill:#000000;fill-opacity:1;fill-rule:nonzero;stroke:none" />
      <path
         id="path37"
         d="m 75.107438,-3.7505 c 0.01172,-0.070312 0.03516,-0.1171875 0.03516,-0.1875 0,-0.1640625 -0.117188,-0.2695313 -0.292969,-0.2695313 -0.09375,0 -0.363281,0.070312 -0.410156,0.4335938 -0.175781,-0.375 -0.527344,-0.6328125 -0.925781,-0.6328125 -1.136719,0 -2.367188,1.3945312 -2.367188,2.8359375 0,0.984375 0.609375,1.5703125 1.324219,1.5703125 0.585937,0 1.054687,-0.46875 1.160156,-0.57421875 L 73.642594,-0.563 c -0.210938,0.87890625 -0.328125,1.2890625 -0.328125,1.3125 -0.04687,0.0820313 -0.386719,1.078125 -1.441406,1.078125 -0.1875,0 -0.515625,-0.011719 -0.796875,-0.1054688 0.304687,-0.09375 0.410156,-0.3515625 0.410156,-0.515625 0,-0.1640625 -0.105469,-0.35156245 -0.375,-0.35156245 -0.222656,0 -0.539063,0.17578125 -0.539063,0.57421875 0,0.4101562 0.363282,0.609375 1.324219,0.609375 1.242188,0 1.957031,-0.7734375 2.109375,-1.37109375 z m -1.289063,2.4726562 c -0.05859,0.2578125 -0.292969,0.51562505 -0.503906,0.70312505 -0.210938,0.17578125 -0.527344,0.3515625 -0.808594,0.3515625 -0.503906,0 -0.65625,-0.515625 -0.65625,-0.91406255 0,-0.4804687 0.292969,-1.6523437 0.5625,-2.15625 0.269531,-0.4921875 0.703125,-0.890625 1.113281,-0.890625 0.65625,0 0.796875,0.8085938 0.796875,0.8554688 0,0.046875 -0.01172,0.1054687 -0.02344,0.1523437 z m 0,0"
         style="fill:#000000;fill-opacity:1;fill-rule:nonzero;stroke:none" />
      <path
         id="path38"
         d="m 78.822281,2.390125 c 0,-0.035156 0,-0.046875 -0.164062,-0.2226563 -1.242188,-1.2539062 -1.570313,-3.1289062 -1.570313,-4.6640625 0,-1.7226562 0.386719,-3.4570312 1.605469,-4.7109375 0.128906,-0.1171875 0.128906,-0.1289062 0.128906,-0.1640625 0,-0.070312 -0.03516,-0.1054687 -0.09375,-0.1054687 -0.105468,0 -0.996093,0.6796875 -1.582031,1.9453125 -0.515625,1.1015625 -0.632812,2.203125 -0.632812,3.0351562 0,0.7851563 0.117187,1.99218755 0.65625,3.11718755 0.597656,1.21874995 1.453125,1.87499995 1.558593,1.87499995 0.05859,0 0.09375,-0.035156 0.09375,-0.1054687 z m 0,0"
         style="fill:#000000;fill-opacity:1;fill-rule:nonzero;stroke:none" />
      <path
         id="path39"
         d="m 83.940445,-4.9809688 c 0,-0.65625 -0.1875,-2.0390625 -1.195312,-2.0390625 -1.382813,0 -2.917969,2.8007813 -2.917969,5.0859375 0,0.93750005 0.28125,2.03906255 1.195313,2.03906255 1.40625,0 2.917968,-2.85937505 2.917968,-5.08593755 z m -3.058593,1.359375 c 0.164062,-0.6328125 0.363281,-1.4296875 0.761718,-2.1328125 0.269532,-0.4921875 0.644532,-1.0546875 1.089844,-1.0546875 0.492188,0 0.550781,0.6445313 0.550781,1.2070313 0,0.4921875 -0.08203,0.9960937 -0.328125,1.9804687 z m 1.992187,0.328125 c -0.117187,0.4570313 -0.316406,1.3007813 -0.703125,2.015625 -0.339844,0.67968755 -0.726562,1.17187505 -1.148437,1.17187505 -0.328125,0 -0.539063,-0.29296875 -0.539063,-1.21875005 0,-0.421875 0.05859,-0.9960937 0.316406,-1.96875 z m 0,0"
         style="fill:#000000;fill-opacity:1;fill-rule:nonzero;stroke:none" />
      <path
         id="path40"
         d="m 87.239273,-2.4965938 c 0,-0.7734375 -0.117187,-1.9804687 -0.65625,-3.1054687 -0.597656,-1.21875 -1.464843,-1.875 -1.558593,-1.875 -0.05859,0 -0.105469,0.046875 -0.105469,0.1054687 0,0.035156 0,0.046875 0.199219,0.234375 0.972656,0.984375 1.535156,2.5664063 1.535156,4.640625 0,1.71093755 -0.363281,3.4570313 -1.59375,4.7226563 -0.140625,0.1171875 -0.140625,0.1289062 -0.140625,0.1640625 0,0.058594 0.04687,0.1054687 0.105469,0.1054687 0.09375,0 0.996093,-0.6796875 1.582031,-1.94531245 0.503906,-1.1015625 0.632812,-2.20312505 0.632812,-3.04687505 z m 0,0"
         style="fill:#000000;fill-opacity:1;fill-rule:nonzero;stroke:none" />
    </g>
    <path
       id="path41"
       d="M 74.62077,37.24944 29.16736,14.5719"
       style="fill:none;stroke:#000000;stroke-width:0.79701;stroke-linecap:butt;stroke-linejoin:miter;stroke-miterlimit:10;stroke-dasharray:none;stroke-opacity:1"
       transform="matrix(1.3333333,0,0,-1.3333333,50.305333,88.524)" />
    <path
       id="path42"
       d="M 99.8201,37.24944 93.6137,14.5719"
       style="fill:none;stroke:#000000;stroke-width:0.79701;stroke-linecap:butt;stroke-linejoin:miter;stroke-miterlimit:10;stroke-dasharray:none;stroke-opacity:1"
       transform="matrix(1.3333333,0,0,-1.3333333,50.305333,88.524)" />
    <path
       id="path43"
       d="M 133.35928,37.24944 179.3895,14.5719"
       style="fill:none;stroke:#000000;stroke-width:0.79701;stroke-linecap:butt;stroke-linejoin:miter;stroke-miterlimit:10;stroke-dasharray:none;stroke-opacity:1"
       transform="matrix(1.3333333,0,0,-1.3333333,50.305333,88.524)" />
    <path
       id="path44"
       d="M -14.17339,-65.99474 H 14.1734 v 28.34679 h -28.34679 z"
       style="fill:none;stroke:#000000;stroke-width:0.79701;stroke-linecap:butt;stroke-linejoin:miter;stroke-miterlimit:10;stroke-dasharray:none;stroke-opacity:1"
       transform="matrix(1.3333333,0,0,-1.3333333,50.305333,88.524)" />
    <g
       id="g44"
       aria-label="x&#10;1"
       transform="matrix(1.3333333,0,0,1.3333333,43.529333,159.48133)">
      <path
         id="path45"
         d="m 3.3295625,-3.0123672 c 0.058594,-0.2578125 0.2929687,-1.171875 0.984375,-1.171875 0.046875,0 0.2929687,0 0.5039062,0.1289063 -0.28125,0.046875 -0.4804687,0.3046875 -0.4804687,0.5390625 0,0.1640625 0.1054687,0.3515625 0.375,0.3515625 0.2226562,0 0.5390625,-0.1875 0.5390625,-0.5859375 0,-0.515625 -0.5859375,-0.65625 -0.9257813,-0.65625 -0.5742187,0 -0.9257812,0.5273437 -1.0429687,0.7617187 -0.2578125,-0.65625 -0.7851563,-0.7617187 -1.078125,-0.7617187 -1.0429688,0 -1.60546875,1.2890625 -1.60546875,1.5351562 0,0.1054688 0.10546875,0.1054688 0.1171875,0.1054688 0.0820313,0 0.1171875,-0.023437 0.12890625,-0.1171875 0.3398437,-1.0546875 0.9960937,-1.3007813 1.3359375,-1.3007813 0.1875,0 0.5390625,0.09375 0.5390625,0.6679688 0,0.3046875 -0.1640625,0.9726562 -0.5390625,2.3671875 -0.1523438,0.62109371 -0.5039063,1.04296871 -0.9492188,1.04296871 -0.058594,0 -0.28124995,0 -0.49218745,-0.12890625 0.24609375,-0.0585937 0.46874995,-0.26953125 0.46874995,-0.5390625 0,-0.26953126 -0.2226562,-0.35156246 -0.37499995,-0.35156246 -0.29296875,0 -0.5390625,0.25781246 -0.5390625,0.57421871 0,0.45703125 0.4921875,0.65625 0.93749995,0.65625 0.65625,0 1.0078125,-0.69140625 1.0429688,-0.75 0.1171875,0.36328125 0.4804687,0.75 1.078125,0.75 1.0195312,0 1.59375,-1.27734371 1.59375,-1.53515621 0,-0.09375 -0.09375,-0.09375 -0.1289063,-0.09375 -0.082031,0 -0.1054687,0.035156 -0.1289062,0.1054687 -0.328125,1.06640626 -0.9960938,1.31250001 -1.3242188,1.31250001 -0.3867187,0 -0.5390625,-0.328125 -0.5390625,-0.65625 0,-0.22265625 0.058594,-0.44531251 0.1640625,-0.87890621 z m 0,0"
         style="fill:#000000;fill-opacity:1;fill-rule:nonzero;stroke:none" />
      <path
         id="path46"
         d="m 8.0258516,-2.9361953 c 0,-0.1875 -0.011719,-0.1992188 -0.2109375,-0.1992188 -0.4453125,0.4335938 -1.078125,0.4453125 -1.359375,0.4453125 v 0.2460938 c 0.1640625,0 0.6210937,0 1.0078125,-0.1875 v 3.55078124 c 0,0.23437496 0,0.32812496 -0.6914063,0.32812496 H 6.5024141 v 0.2460938 c 0.1289062,-0.011719 0.984375,-0.023437 1.2421875,-0.023437 0.2109375,0 1.0898437,0.011719 1.2421875,0.023437 V 1.2473984 H 8.7289766 c -0.703125,0 -0.703125,-0.09375 -0.703125,-0.32812496 z m 0,0"
         style="fill:#000000;fill-opacity:1;fill-rule:nonzero;stroke:none" />
    </g>
    <path
       id="path47"
       d="m 75.45802,-65.99474 h 28.34679 v 28.34679 H 75.45802 Z"
       style="fill:none;stroke:#000000;stroke-width:0.79701;stroke-linecap:butt;stroke-linejoin:miter;stroke-miterlimit:10;stroke-dasharray:none;stroke-opacity:1"
       transform="matrix(1.3333333,0,0,-1.3333333,50.305333,88.524)" />
    <g
       id="g47"
       aria-label="x&#10;2"
       transform="matrix(1.3333333,0,0,1.3333333,163.036,159.48133)">
      <path
         id="path48"
         d="m 3.3274922,-3.0123672 c 0.058594,-0.2578125 0.2929687,-1.171875 0.984375,-1.171875 0.046875,0 0.2929687,0 0.5039062,0.1289063 -0.28125,0.046875 -0.4804687,0.3046875 -0.4804687,0.5390625 0,0.1640625 0.1054687,0.3515625 0.375,0.3515625 0.2226562,0 0.5390625,-0.1875 0.5390625,-0.5859375 0,-0.515625 -0.5859375,-0.65625 -0.9257813,-0.65625 -0.5742187,0 -0.9257812,0.5273437 -1.0429687,0.7617187 -0.2578125,-0.65625 -0.7851563,-0.7617187 -1.078125,-0.7617187 -1.0429688,0 -1.60546876,1.2890625 -1.60546876,1.5351562 0,0.1054688 0.10546875,0.1054688 0.1171875,0.1054688 0.0820313,0 0.1171875,-0.023437 0.12890625,-0.1171875 0.33984371,-1.0546875 0.99609371,-1.3007813 1.33593751,-1.3007813 0.1875,0 0.5390625,0.09375 0.5390625,0.6679688 0,0.3046875 -0.1640625,0.9726562 -0.5390625,2.3671875 -0.1523438,0.62109371 -0.5039063,1.04296871 -0.9492188,1.04296871 -0.058594,0 -0.28124996,0 -0.49218746,-0.12890625 0.24609375,-0.0585937 0.46874996,-0.26953125 0.46874996,-0.5390625 0,-0.26953126 -0.22265621,-0.35156246 -0.37499996,-0.35156246 -0.29296875,0 -0.5390625,0.25781246 -0.5390625,0.57421871 0,0.45703125 0.4921875,0.65625 0.93749996,0.65625 0.65625,0 1.0078125,-0.69140625 1.0429688,-0.75 0.1171875,0.36328125 0.4804687,0.75 1.078125,0.75 1.0195312,0 1.59375,-1.27734371 1.59375,-1.53515621 0,-0.09375 -0.09375,-0.09375 -0.1289063,-0.09375 -0.082031,0 -0.1054687,0.035156 -0.1289062,0.1054687 -0.328125,1.06640626 -0.9960938,1.31250001 -1.3242188,1.31250001 -0.3867187,0 -0.5390625,-0.328125 -0.5390625,-0.65625 0,-0.22265625 0.058594,-0.44531251 0.1640625,-0.87890621 z m 0,0"
         style="fill:#000000;fill-opacity:1;fill-rule:nonzero;stroke:none" />
      <path
         id="path49"
         d="m 9.2103047,0.22786719 h -0.234375 c -0.023437,0.15234375 -0.082031,0.5625 -0.1757813,0.6328125 -0.058594,0.0351563 -0.5976562,0.0351563 -0.6914062,0.0351563 H 6.8196797 c 0.7382812,-0.64453125 0.984375,-0.84375 1.3945312,-1.171875 0.515625,-0.41015625 0.9960938,-0.84374999 0.9960938,-1.50000009 0,-0.84375 -0.7382813,-1.359375 -1.6289063,-1.359375 -0.8671875,0 -1.453125,0.609375 -1.453125,1.2421875 0,0.3632813 0.3046875,0.3984375 0.375,0.3984375 0.1640625,0 0.375,-0.1171875 0.375,-0.375 0,-0.1289061 -0.058594,-0.3632812 -0.421875,-0.3632812 0.2226563,-0.5039063 0.6914063,-0.6562499 1.0195313,-0.6562499 0.703125,0 1.0664062,0.5507811 1.0664062,1.1132812 0,0.609375 -0.4335937,1.08984374 -0.65625,1.33593749 l -1.6875,1.66406251 c -0.070312,0.058594 -0.070312,0.070312 -0.070312,0.2695312 h 2.8828125 z m 0,0"
         style="fill:#000000;fill-opacity:1;fill-rule:nonzero;stroke:none" />
    </g>
    <path
       id="path50"
       d="m 1.9096484,-0.52663281 c 0,-0.29296875 -0.234375,-0.52734379 -0.5273437,-0.52734379 -0.28125,0 -0.52734376,0.23437504 -0.52734376,0.52734379 0,0.29296875 0.24609376,0.5273437475 0.52734376,0.5273437475 0.2929687,0 0.5273437,-0.2343749975 0.5273437,-0.5273437475 z m 2.7685547,0 c 0,-0.29296875 -0.234375,-0.52734379 -0.5273437,-0.52734379 -0.28125,0 -0.5273438,0.23437504 -0.5273438,0.52734379 0,0.29296875 0.2460938,0.5273437475 0.5273438,0.5273437475 0.2929687,0 0.5273437,-0.2343749975 0.5273437,-0.5273437475 z m 2.7685547,0 c 0,-0.29296875 -0.234375,-0.52734379 -0.5273437,-0.52734379 -0.28125,0 -0.5273438,0.23437504 -0.5273438,0.52734379 0,0.29296875 0.2460938,0.5273437475 0.5273438,0.5273437475 0.2929687,0 0.5273437,-0.2343749975 0.5273437,-0.5273437475 z m 0,0"
       style="fill:#000000;fill-opacity:1;fill-rule:nonzero;stroke:none"
       aria-label="..."
       transform="matrix(1.3333333,0,0,1.3333333,243.97333,157.23733)" />
    <path
       id="path51"
       d="m 194.75368,-65.99474 h 28.34679 v 28.34679 h -28.34679 z"
       style="fill:none;stroke:#000000;stroke-width:0.79701;stroke-linecap:butt;stroke-linejoin:miter;stroke-miterlimit:10;stroke-dasharray:none;stroke-opacity:1"
       transform="matrix(1.3333333,0,0,-1.3333333,50.305333,88.524)" />
    <g
       id="g51"
       aria-label="x&#10;n"
       transform="matrix(1.3333333,0,0,1.3333333,321.45867,159.48133)">
      <path
         id="path52"
         d="m 3.3268984,-3.0123672 c 0.058594,-0.2578125 0.2929688,-1.171875 0.984375,-1.171875 0.046875,0 0.2929688,0 0.5039063,0.1289063 -0.28125,0.046875 -0.4804688,0.3046875 -0.4804688,0.5390625 0,0.1640625 0.1054688,0.3515625 0.375,0.3515625 0.2226563,0 0.5390625,-0.1875 0.5390625,-0.5859375 0,-0.515625 -0.5859375,-0.65625 -0.9257812,-0.65625 -0.5742188,0 -0.9257813,0.5273437 -1.0429688,0.7617187 -0.2578125,-0.65625 -0.7851562,-0.7617187 -1.078125,-0.7617187 -1.0429687,0 -1.60546871,1.2890625 -1.60546871,1.5351562 0,0.1054688 0.10546875,0.1054688 0.1171875,0.1054688 0.0820313,0 0.1171875,-0.023437 0.12890625,-0.1171875 0.33984376,-1.0546875 0.99609376,-1.3007813 1.33593746,-1.3007813 0.1875,0 0.5390625,0.09375 0.5390625,0.6679688 0,0.3046875 -0.1640625,0.9726562 -0.5390625,2.3671875 -0.1523437,0.62109371 -0.5039062,1.04296871 -0.9492187,1.04296871 -0.058594,0 -0.28125001,0 -0.49218751,-0.12890625 0.24609375,-0.0585937 0.46875001,-0.26953125 0.46875001,-0.5390625 0,-0.26953126 -0.22265626,-0.35156246 -0.37500001,-0.35156246 -0.29296875,0 -0.5390625,0.25781246 -0.5390625,0.57421871 0,0.45703125 0.4921875,0.65625 0.93750001,0.65625 0.65625,0 1.0078125,-0.69140625 1.0429687,-0.75 0.1171875,0.36328125 0.4804688,0.75 1.078125,0.75 1.0195313,0 1.59375,-1.27734371 1.59375,-1.53515621 0,-0.09375 -0.09375,-0.09375 -0.1289062,-0.09375 -0.082031,0 -0.1054688,0.035156 -0.1289063,0.1054687 -0.328125,1.06640626 -0.9960937,1.31250001 -1.3242187,1.31250001 -0.3867188,0 -0.5390625,-0.328125 -0.5390625,-0.65625 0,-0.22265625 0.058594,-0.44531251 0.1640625,-0.87890621 z m 0,0"
         style="fill:#000000;fill-opacity:1;fill-rule:nonzero;stroke:none" />
      <path
         id="path53"
         d="m 6.5495547,1.0598984 c -0.035156,0.082031 -0.070312,0.2578125 -0.070312,0.28125 0,0.1523438 0.1171875,0.2226563 0.234375,0.2226563 0.1289062,0 0.234375,-0.09375 0.2695312,-0.1523438 0.035156,-0.058594 0.09375,-0.2929687 0.1289063,-0.43359371 0.035156,-0.12890625 0.1054687,-0.45703125 0.1523437,-0.6328125 0.035156,-0.15234375 0.082031,-0.3046875 0.1171875,-0.45703125 0.082031,-0.29296875 0.09375,-0.3515625 0.2929688,-0.6328125 0.1992187,-0.28125004 0.5273437,-0.64453124 1.0429687,-0.64453124 0.4101563,0 0.4101563,0.3632812 0.4101563,0.49218749 0,0.421875 -0.2929688,1.1953125 -0.4101563,1.48828125 -0.070312,0.1875 -0.1054687,0.2578125 -0.1054687,0.375 0,0.36328126 0.3046875,0.59765626 0.6679687,0.59765626 0.6914063,0 1.0078121,-0.96093751 1.0078121,-1.06640626 0,-0.09375 -0.09375,-0.09375 -0.117188,-0.09375 -0.09375,0 -0.105468,0.046875 -0.128906,0.1171875 C 9.8776797,1.0833359 9.5729922,1.3645859 9.3034609,1.3645859 c -0.1523437,0 -0.1757812,-0.09375 -0.1757812,-0.2460937 0,-0.15234376 0.035156,-0.24609376 0.1523437,-0.56250001 0.09375,-0.2109375 0.375,-0.94921875 0.375,-1.34765625 0,-0.66796874 -0.5390625,-0.78515624 -0.9023437,-0.78515624 -0.5859375,0 -0.9726563,0.3515625 -1.1835938,0.63281249 -0.046875,-0.48046879 -0.4570312,-0.63281249 -0.75,-0.63281249 -0.2929687,0 -0.4570312,0.2109375 -0.5507812,0.375 -0.1523438,0.25781249 -0.2460938,0.65624999 -0.2460938,0.69140624 0,0.0820313 0.09375,0.0820313 0.1171875,0.0820313 0.09375,0 0.1054688,-0.0117188 0.1523438,-0.19921875 0.1054687,-0.42187499 0.234375,-0.76171869 0.515625,-0.76171869 0.1757812,0 0.2226562,0.1523437 0.2226562,0.3398437 0,0.14062499 -0.058594,0.39843749 -0.1054687,0.58593749 -0.046875,0.1875 -0.1171875,0.46875 -0.1523438,0.62109375 z m 0,0"
         style="fill:#000000;fill-opacity:1;fill-rule:nonzero;stroke:none" />
    </g>
    <path
       id="path54"
       d="M 0,-14.5719 V -37.24944"
       style="fill:none;stroke:#000000;stroke-width:0.79701;stroke-linecap:butt;stroke-linejoin:miter;stroke-miterlimit:10;stroke-dasharray:none;stroke-opacity:1"
       transform="matrix(1.3333333,0,0,-1.3333333,50.305333,88.524)" />
    <path
       id="path55"
       d="M 89.63142,-14.5719 V -37.24944"
       style="fill:none;stroke:#000000;stroke-width:0.79701;stroke-linecap:butt;stroke-linejoin:miter;stroke-miterlimit:10;stroke-dasharray:none;stroke-opacity:1"
       transform="matrix(1.3333333,0,0,-1.3333333,50.305333,88.524)" />
    <path
       id="path56"
       d="M 208.92708,-14.5719 V -37.24944"
       style="fill:none;stroke:#000000;stroke-width:0.79701;stroke-linecap:butt;stroke-linejoin:miter;stroke-miterlimit:10;stroke-dasharray:none;stroke-opacity:1"
       transform="matrix(1.3333333,0,0,-1.3333333,50.305333,88.524)" />
    <path
       id="path57"
       d="M 4.7228437,-6.6915547 C 4.617375,-6.9493672 4.4884687,-6.9493672 4.3244062,-6.9493672 c -0.28125,0 -0.3164062,0.070312 -0.3867187,0.2578125 l -2.4726563,5.98828126 c -0.058594,0.15234375 -0.09375,0.234375 -0.84374995,0.234375 H 0.41034375 V -1.484375e-4 C 0.78534375,-0.01186719 1.2658125,-0.03530469 1.5705,-0.03530469 c 0.3867187,0 0.9492187,0 1.3242187,0.0351562525 V -0.46889844 c -0.023437,0 -0.890625,0 -0.890625,-0.12890625 0,-0.0117188 0.023437,-0.10546875 0.035156,-0.1171875 L 2.5431562,-1.9220234 h 2.671875 l 0.5976563,1.45312496 H 4.8634687 v 0.4687500025 c 0.375,-0.0351562525 1.3242188,-0.0351562525 1.7460938,-0.0351562525 0.3984375,0 1.2773437,0 1.6289062,0.0351562525 V -0.46889844 H 7.2775312 Z m -0.84375,1.5351563 1.1367188,2.765625 H 2.742375 Z m 5.9179688,1.6054687 v 3.08203126 H 9.1056562 V -1.484375e-4 C 9.3869062,-0.01186719 9.9845625,-0.03530469 10.359562,-0.03530469 c 0.398438,0 0.984375,0.0234375 1.253907,0.0351562525 V -0.46889844 H 10.933781 V -2.5548359 c 0,-1.078125 0.867188,-1.5703125 1.476563,-1.5703125 0.339843,0 0.5625,0.1992187 0.5625,0.9726562 v 2.68359376 h -0.691407 v 0.4687500025 c 0.28125,-0.0117187525 0.878907,-0.0351562525 1.265625,-0.0351562525 0.386719,0 0.972657,0.0234375 1.253907,0.0351562525 V -0.46889844 H 14.109562 V -2.5548359 c 0,-1.078125 0.867188,-1.5703125 1.488282,-1.5703125 0.339843,0 0.550781,0.1992187 0.550781,0.9726562 v 2.68359376 H 15.468937 V -1.484375e-4 C 15.738469,-0.01186719 16.336125,-0.03530469 16.722844,-0.03530469 c 0.386718,0 0.972656,0.0234375 1.253906,0.0351562525 V -0.46889844 H 17.285344 V -3.0470234 c 0,-1.03125 -0.503907,-1.4414063 -1.535157,-1.4414063 -0.902343,0 -1.417968,0.5039063 -1.675781,0.9609375 -0.199219,-0.9257812 -1.125,-0.9609375 -1.5,-0.9609375 -0.867187,0 -1.429687,0.4570313 -1.757812,1.078125 v -1.078125 l -1.7109378,0.082031 v 0.46875 c 0.6210938,0 0.6914063,0 0.6914063,0.386719 z m 13.8134765,1.3828125 c 0,-1.3359375 -0.914062,-2.34375 -2.542969,-2.34375 -1.628906,0 -2.542968,1.0195313 -2.542968,2.34375 0,1.23046876 0.878906,2.22656251 2.542968,2.22656251 1.675782,0 2.542969,-1.0078125 2.542969,-2.22656251 z m -2.542969,1.82812501 c -1.265625,0 -1.265625,-1.07812501 -1.265625,-1.94531251 0,-0.4453125 0,-0.9492187 0.164063,-1.2890625 0.199219,-0.375 0.609375,-0.5742187 1.101562,-0.5742187 0.421875,0 0.832032,0.1523437 1.054688,0.5039062 0.210937,0.3398438 0.210937,0.890625 0.210937,1.359375 0,0.8671875 0,1.94531251 -1.265625,1.94531251 z m 4.965821,-2.58984371 c -0.363282,-0.070312 -1.007813,-0.1757813 -1.007813,-0.6445313 0,-0.6210937 0.925781,-0.6210937 1.113281,-0.6210937 0.75,0 1.125,0.2929687 1.171875,0.84375 0.01172,0.140625 0.02344,0.1992187 0.234375,0.1992187 0.234375,0 0.234375,-0.058594 0.234375,-0.28125 v -0.796875 c 0,-0.1875 0,-0.28125 -0.175781,-0.28125 -0.04687,0 -0.05859,0 -0.445312,0.1875 -0.269532,-0.1289062 -0.609375,-0.1875 -1.007813,-0.1875 -0.304687,0 -1.839844,0 -1.839844,1.3007813 0,0.3984375 0.199219,0.6679687 0.398438,0.84375 0.398437,0.3398437 0.785156,0.4101562 1.546875,0.5390625 0.363281,0.070312 1.101562,0.1992187 1.101562,0.7851562 0,0.73828126 -0.914062,0.73828126 -1.125,0.73828126 -1.066406,0 -1.324218,-0.72656246 -1.441406,-1.14843746 -0.04687,-0.140625 -0.09375,-0.140625 -0.234375,-0.140625 -0.246094,0 -0.246094,0.058594 -0.246094,0.2929687 v 1.07812501 c 0,0.1875 0,0.28125 0.1875,0.28125 0.07031,0 0.08203,0 0.292969,-0.15234375 0.01172,0 0.234375,-0.140625 0.257813,-0.1640625 0.457031,0.31640625 0.984375,0.31640625 1.183593,0.31640625 0.304688,0 1.839844,0 1.839844,-1.45312501 0,-0.4335937 -0.199219,-0.7734375 -0.550781,-1.0546875 -0.386719,-0.2929687 -0.703125,-0.3515625 -1.488281,-0.4804687 z m 3.454101,-1.0195313 v 2.71875 c 0,1.06640626 0.867188,1.28906251 1.570313,1.28906251 0.75,0 1.207031,-0.5625 1.207031,-1.28906251 v -0.5273437 h -0.46875 v 0.5039062 c 0,0.67968751 -0.316406,0.91406251 -0.597656,0.91406251 -0.585938,0 -0.585938,-0.6328125 -0.585938,-0.86718751 v -2.7421875 h 1.464844 v -0.46875 h -1.464844 v -1.9101562 h -0.457031 c -0.01172,0.9960937 -0.503906,1.9804687 -1.488281,2.015625 v 0.3632812 z m 5.452149,0.5976563 v -1.1367188 l -1.664063,0.082031 v 0.46875 c 0.621094,0 0.691406,0 0.691406,0.3867187 v 3.08203126 H 33.275578 V -1.484375e-4 C 33.627141,-0.01186719 34.072453,-0.03530469 34.541203,-0.03530469 c 0.375,0 1.007813,0 1.371094,0.0351562525 V -0.46889844 H 35.045109 V -2.2149922 c 0,-0.6914062 0.246094,-1.9101562 1.242188,-1.9101562 -0.01172,0.011719 -0.1875,0.1757812 -0.1875,0.4570312 0,0.4101563 0.316406,0.609375 0.609375,0.609375 0.292969,0 0.609375,-0.2109375 0.609375,-0.609375 0,-0.5273437 -0.539063,-0.8203125 -1.054688,-0.8203125 -0.703125,0 -1.101562,0.5039063 -1.324218,1.1367188 z m 6.416015,2.58984371 c 0,0.3046875 0,0.7617187525 1.03125,0.7617187525 h 0.480469 c 0.199219,0 0.316406,0 0.316406,-0.2343750025 0,-0.234375 -0.128906,-0.234375 -0.257812,-0.234375 -0.609375,-0.0117188 -0.609375,-0.140625 -0.609375,-0.36328125 V -2.9767109 c 0,-0.890625 -0.703125,-1.5351563 -2.191407,-1.5351563 -0.5625,0 -1.78125,0.035156 -1.78125,0.9140625 0,0.4453125 0.351563,0.6328125 0.621094,0.6328125 0.304688,0 0.621094,-0.2109375 0.621094,-0.6328125 0,-0.2929687 -0.1875,-0.46875 -0.210938,-0.4921875 0.28125,-0.058594 0.597657,-0.058594 0.714844,-0.058594 0.75,0 1.089844,0.4101562 1.089844,1.171875 v 0.3398437 C 40.47675,-2.6134305 37.9455,-2.51968 37.9455,-1.0782737 c 0,0.96093746 1.242187,1.13671871 1.921875,1.13671871 0.796875,0 1.265625,-0.41015625 1.488281,-0.8203122 z M 41.179875,-2.3321797 v 0.9492188 c 0,0.94921871 -0.914063,1.07812496 -1.160156,1.07812496 -0.503907,0 -0.902344,-0.33984375 -0.902344,-0.78515626 0,-1.0664062 1.570312,-1.2070312 2.0625,-1.2421875 z m 11.238281,0.1640625 c 0,-1.3359375 -0.914062,-2.34375 -2.542969,-2.34375 -1.628906,0 -2.542968,1.0195313 -2.542968,2.34375 0,1.23046876 0.878906,2.22656251 2.542968,2.22656251 1.675782,0 2.542969,-1.0078125 2.542969,-2.22656251 z m -2.542969,1.82812501 c -1.265625,0 -1.265625,-1.07812501 -1.265625,-1.94531251 0,-0.4453125 0,-0.9492187 0.164063,-1.2890625 0.199219,-0.375 0.609375,-0.5742187 1.101562,-0.5742187 0.421875,0 0.832032,0.1523437 1.054688,0.5039062 0.210937,0.3398438 0.210937,0.890625 0.210937,1.359375 0,0.8671875 0,1.94531251 -1.265625,1.94531251 z m 5.000977,-3.65625001 v -2.9179687 l -1.769531,0.082031 v 0.46875 c 0.621094,0 0.691406,0 0.691406,0.3867188 v 5.9765624625 h 0.46875 L 54.758977,-0.56264844 c 0.08203,0.0820313 0.5625,0.62109375 1.453125,0.62109375 1.476562,0 2.507812,-0.890625 2.507812,-2.28515621 0,-1.3242188 -0.9375,-2.2617188 -2.378906,-2.2617188 -0.726563,0 -1.230469,0.2929688 -1.464844,0.4921875 z m 0.05859,3.01171876 V -3.4923359 c 0.269531,-0.3398438 0.75,-0.6328125 1.300781,-0.6328125 1.207031,0 1.207031,1.2070312 1.207031,1.8984375 0,0.46875 0,1.0195312 -0.257812,1.40624996 -0.292969,0.41015625 -0.75,0.515625 -1.066406,0.515625 -0.691407,0 -1.078125,-0.52734375 -1.183594,-0.6796875 z m 6.272461,-1.94531246 c -0.363282,-0.070312 -1.007813,-0.1757813 -1.007813,-0.6445313 0,-0.6210937 0.925781,-0.6210937 1.113281,-0.6210937 0.75,0 1.125,0.2929687 1.171875,0.84375 0.01172,0.140625 0.02344,0.1992187 0.234375,0.1992187 0.234375,0 0.234375,-0.058594 0.234375,-0.28125 v -0.796875 c 0,-0.1875 0,-0.28125 -0.175781,-0.28125 -0.04687,0 -0.05859,0 -0.445312,0.1875 -0.269532,-0.1289062 -0.609375,-0.1875 -1.007813,-0.1875 -0.304687,0 -1.839844,0 -1.839844,1.3007813 0,0.3984375 0.199219,0.6679687 0.398438,0.84375 0.398437,0.3398437 0.785156,0.4101562 1.546875,0.5390625 0.363281,0.070312 1.101562,0.1992187 1.101562,0.7851562 0,0.73828126 -0.914062,0.73828126 -1.125,0.73828126 -1.066406,0 -1.324218,-0.72656246 -1.441406,-1.14843746 -0.04687,-0.140625 -0.09375,-0.140625 -0.234375,-0.140625 -0.246094,0 -0.246094,0.058594 -0.246094,0.2929687 v 1.07812501 c 0,0.1875 0,0.28125 0.1875,0.28125 0.07031,0 0.08203,0 0.292969,-0.15234375 0.01172,0 0.234375,-0.140625 0.257813,-0.1640625 0.457031,0.31640625 0.984375,0.31640625 1.183593,0.31640625 0.304688,0 1.839844,0 1.839844,-1.45312501 0,-0.4335937 -0.199219,-0.7734375 -0.550781,-1.0546875 -0.386719,-0.2929687 -0.703125,-0.3515625 -1.488281,-0.4804687 z m 7.02539,0.7617187 c 0.210938,0 0.316407,0 0.316407,-0.2695312 0,-0.3164063 -0.05859,-1.0429688 -0.5625,-1.5351563 -0.363282,-0.3632812 -0.890625,-0.5390625 -1.582032,-0.5390625 -1.59375,0 -2.460937,1.0195313 -2.460937,2.2734375 0,1.33593751 0.996094,2.29687501 2.601562,2.29687501 1.570313,0 2.003907,-1.0546875 2.003907,-1.21875001 0,-0.1875 -0.1875,-0.1875 -0.234375,-0.1875 -0.175782,0 -0.199219,0.046875 -0.257813,0.2109375 -0.210937,0.48046876 -0.773437,0.79687501 -1.417969,0.79687501 -1.40625,0 -1.417968,-1.32421871 -1.417968,-1.82812501 z m -3.011718,-0.328125 c 0.02344,-0.3984375 0.03516,-0.8085937 0.234375,-1.1367187 0.269531,-0.3984375 0.667968,-0.515625 0.949218,-0.515625 1.171875,0 1.183594,1.3007812 1.195313,1.6523437 z m 5.683593,-0.8554687 v -1.1367188 l -1.664062,0.082031 v 0.46875 c 0.621094,0 0.691406,0 0.691406,0.3867187 v 3.08203126 H 69.240422 V -1.484375e-4 C 69.591984,-0.01186719 70.037297,-0.03530469 70.506047,-0.03530469 c 0.375,0 1.007812,0 1.371094,0.0351562525 V -0.46889844 H 71.009953 V -2.2149922 c 0,-0.6914062 0.246094,-1.9101562 1.242188,-1.9101562 -0.01172,0.011719 -0.1875,0.1757812 -0.1875,0.4570312 0,0.4101563 0.316406,0.609375 0.609375,0.609375 0.292968,0 0.609375,-0.2109375 0.609375,-0.609375 0,-0.5273437 -0.539063,-0.8203125 -1.054688,-0.8203125 -0.703125,0 -1.101562,0.5039063 -1.324219,1.1367188 z m 7.731446,-0.3984375 c 0.05859,-0.140625 0.105468,-0.1992188 0.738281,-0.1992188 v -0.46875 c -0.246094,0.011719 -0.539063,0.023437 -0.785156,0.023437 -0.246094,0 -0.703125,-0.023437 -0.902344,-0.023437 v 0.46875 c 0.1875,0 0.46875,0.023437 0.46875,0.1054688 0,0.011719 -0.01172,0.023437 -0.04687,0.1171875 l -1.160156,2.4960937 -1.253907,-2.71875 h 0.527344 v -0.46875 c -0.328125,0.011719 -1.21875,0.023437 -1.230469,0.023437 -0.28125,0 -0.726562,-0.023437 -1.136718,-0.023437 v 0.46875 h 0.644531 l 1.734375,3.73828126 c 0.117187,0.24609375 0.257812,0.24609375 0.386719,0.24609375 0.164062,0 0.269531,-0.0234375 0.363281,-0.234375 z m 4.107422,2.98828121 c 0,0.3046875 0,0.7617187525 1.03125,0.7617187525 h 0.480468 c 0.199219,0 0.316407,0 0.316407,-0.2343750025 0,-0.234375 -0.128907,-0.234375 -0.257813,-0.234375 -0.609375,-0.0117188 -0.609375,-0.140625 -0.609375,-0.36328125 V -2.9767109 c 0,-0.890625 -0.703125,-1.5351563 -2.191406,-1.5351563 -0.5625,0 -1.78125,0.035156 -1.78125,0.9140625 0,0.4453125 0.351562,0.6328125 0.621094,0.6328125 0.304687,0 0.621093,-0.2109375 0.621093,-0.6328125 0,-0.2929687 -0.1875,-0.46875 -0.210937,-0.4921875 0.28125,-0.058594 0.597656,-0.058594 0.714844,-0.058594 0.75,0 1.089843,0.4101562 1.089843,1.171875 v 0.3398437 c -0.703125,0.023437 -3.234375,0.1171875 -3.234375,1.5585938 0,0.96093746 1.242188,1.13671871 1.921875,1.13671871 0.796875,0 1.265625,-0.41015625 1.488282,-0.8203122 z M 82.56757,-2.3321797 v 0.9492188 c 0,0.94921871 -0.914062,1.07812496 -1.160156,1.07812496 -0.503906,0 -0.902344,-0.33984375 -0.902344,-0.78515626 0,-1.0664062 1.570313,-1.2070312 2.0625,-1.2421875 z m 6.175782,1.89843751 v 0.4921875 L 90.571477,-1.484375e-4 V -0.46889844 c -0.621094,0 -0.691407,0 -0.691407,-0.38671875 V -6.9142109 l -1.757812,0.082031 v 0.46875 c 0.609375,0 0.679687,0 0.679687,0.3867188 v 1.9453125 c -0.492187,-0.3867188 -1.007812,-0.4570313 -1.335937,-0.4570313 -1.453125,0 -2.507813,0.8789063 -2.507813,2.2851563 0,1.31249996 0.925782,2.26171871 2.390625,2.26171871 0.609375,0 1.089844,-0.234375 1.394532,-0.4921873 z m 0,-3.08203121 v 2.484375 c -0.128907,0.18749996 -0.539063,0.72656246 -1.289063,0.72656246 -1.21875,0 -1.21875,-1.19531246 -1.21875,-1.89843746 0,-0.4804688 0,-1.0195313 0.257813,-1.40625 0.292968,-0.4101563 0.761718,-0.515625 1.066406,-0.515625 0.574219,0 0.972656,0.3164062 1.183594,0.609375 z m 5.932617,2.75390621 c 0,0.3046875 0,0.7617187525 1.03125,0.7617187525 h 0.480468 c 0.199219,0 0.316407,0 0.316407,-0.2343750025 0,-0.234375 -0.128907,-0.234375 -0.257813,-0.234375 -0.609375,-0.0117188 -0.609375,-0.140625 -0.609375,-0.36328125 V -2.9767109 c 0,-0.890625 -0.703125,-1.5351563 -2.191406,-1.5351563 -0.5625,0 -1.78125,0.035156 -1.78125,0.9140625 0,0.4453125 0.351562,0.6328125 0.621094,0.6328125 0.304687,0 0.621093,-0.2109375 0.621093,-0.6328125 0,-0.2929687 -0.1875,-0.46875 -0.210937,-0.4921875 0.28125,-0.058594 0.597656,-0.058594 0.714844,-0.058594 0.75,0 1.089843,0.4101562 1.089843,1.171875 v 0.3398437 c -0.703125,0.023437 -3.234375,0.1171875 -3.234375,1.5585938 0,0.96093746 1.242188,1.13671871 1.921875,1.13671871 0.796875,0 1.265625,-0.41015625 1.488282,-0.8203122 z M 94.500187,-2.3321797 v 0.9492188 c 0,0.94921871 -0.914062,1.07812496 -1.160156,1.07812496 -0.503906,0 -0.902344,-0.33984375 -0.902344,-0.78515626 0,-1.0664062 1.570313,-1.2070312 2.0625,-1.2421875 z m 0,0"
       style="fill:#000000;fill-opacity:1;fill-rule:nonzero;stroke:none"
       aria-label="Amostraobservada"
       transform="matrix(1.3333333,0,0,1.3333333,372.156,162.23067)" />
    <path
       id="path58"
       d="M 7.3699063,-6.141125 C 7.4285,-6.28175 7.475375,-6.3637813 8.2019375,-6.3637813 h 0.1875 v -0.46875 c -0.3867187,0.011719 -0.8554687,0.023437 -1.125,0.023437 -0.3984375,0 -0.9257812,0 -1.3125,-0.023437 v 0.46875 c 0.09375,0 0.8789063,0 0.8789063,0.1171875 0,0.035156 -0.023437,0.09375 -0.035156,0.1171875 L 4.7800625,-1.59425 2.6589688,-6.3637813 h 0.9375 v -0.46875 c -0.375,0.023437 -1.3359375,0.023437 -1.7695313,0.023437 -0.3867187,0 -1.21875,0 -1.5703125,-0.023437 v 0.46875 h 0.9140625 l 2.7539063,6.18750005 C 4.006625,-5e-4 4.0417813,0.08153125 4.3230313,0.08153125 c 0.1640625,0 0.2929687,0 0.3984375,-0.24609375 z m 4.9394527,3.9726562 c 0.210938,0 0.316407,0 0.316407,-0.2695312 0,-0.3164063 -0.05859,-1.0429688 -0.5625,-1.5351563 -0.363282,-0.3632812 -0.890625,-0.5390625 -1.582032,-0.5390625 -1.5937496,0 -2.4609371,1.0195313 -2.4609371,2.2734375 0,1.33593755 0.9960937,2.29687505 2.6015621,2.29687505 1.570313,0 2.003907,-1.0546875 2.003907,-1.21875005 0,-0.1875 -0.1875,-0.1875 -0.234375,-0.1875 -0.175782,0 -0.199219,0.046875 -0.257813,0.2109375 -0.210937,0.4804688 -0.773437,0.79687505 -1.417969,0.79687505 -1.4062496,0 -1.4179684,-1.32421875 -1.4179684,-1.82812505 z m -3.0117184,-0.328125 c 0.023437,-0.3984375 0.035156,-0.8085937 0.234375,-1.1367187 0.2695313,-0.3984375 0.6679684,-0.515625 0.9492184,-0.515625 1.171875,0 1.183594,1.3007812 1.195313,1.6523437 z m 4.6904294,-1.453125 v 2.71875 c 0,1.0664063 0.867188,1.28906255 1.570313,1.28906255 0.75,0 1.207031,-0.5625 1.207031,-1.28906255 v -0.5273437 h -0.46875 v 0.5039062 c 0,0.67968755 -0.316406,0.91406255 -0.597656,0.91406255 -0.585938,0 -0.585938,-0.6328125 -0.585938,-0.86718755 v -2.7421875 h 1.464844 v -0.46875 H 15.11307 V -6.328625 h -0.457031 c -0.01172,0.9960937 -0.503906,1.9804687 -1.488281,2.015625 v 0.3632812 z m 8.827149,1.78125 c 0,-1.3359375 -0.914063,-2.34375 -2.542969,-2.34375 -1.628906,0 -2.542969,1.0195313 -2.542969,2.34375 0,1.2304688 0.878907,2.22656255 2.542969,2.22656255 1.675781,0 2.542969,-1.0078125 2.542969,-2.22656255 z m -2.542969,1.82812505 c -1.265625,0 -1.265625,-1.07812505 -1.265625,-1.94531255 0,-0.4453125 0,-0.9492187 0.164063,-1.2890625 0.199218,-0.375 0.609375,-0.5742187 1.101562,-0.5742187 0.421875,0 0.832031,0.1523437 1.054688,0.5039062 0.210937,0.3398438 0.210937,0.890625 0.210937,1.359375 0,0.8671875 0,1.94531255 -1.265625,1.94531255 z M 25.167758,-3.3520625 V -4.4887813 L 23.503695,-4.40675 V -3.938 c 0.621094,0 0.691407,0 0.691407,0.3867187 V -0.46925 H 23.503695 V -5e-4 c 0.351563,-0.01171875 0.796875,-0.03515625 1.265625,-0.03515625 0.375,0 1.007813,0 1.371094,0.03515625 v -0.46875 h -0.867187 v -1.7460938 c 0,-0.6914062 0.246093,-1.9101562 1.242187,-1.9101562 -0.01172,0.011719 -0.1875,0.1757812 -0.1875,0.4570312 0,0.4101563 0.316406,0.609375 0.609375,0.609375 0.292969,0 0.609375,-0.2109375 0.609375,-0.609375 0,-0.5273437 -0.539062,-0.8203125 -1.054687,-0.8203125 -0.703125,0 -1.101563,0.5039063 -1.324219,1.1367188 z m 10.242187,2.58984375 c 0,0.3046875 0,0.76171875 1.03125,0.76171875 h 0.480469 c 0.199219,0 0.316406,0 0.316406,-0.234375 0,-0.234375 -0.128906,-0.234375 -0.257812,-0.234375 -0.609375,-0.0117188 -0.609375,-0.140625 -0.609375,-0.36328125 V -2.9770625 c 0,-0.890625 -0.703125,-1.5351563 -2.191406,-1.5351563 -0.5625,0 -1.78125,0.035156 -1.78125,0.9140625 0,0.4453125 0.351562,0.6328125 0.621093,0.6328125 0.304688,0 0.621094,-0.2109375 0.621094,-0.6328125 0,-0.2929687 -0.1875,-0.46875 -0.210937,-0.4921875 0.28125,-0.058594 0.597656,-0.058594 0.714843,-0.058594 0.75,0 1.089844,0.4101562 1.089844,1.171875 v 0.3398437 c -0.703125,0.023437 -3.234375,0.1171875 -3.234375,1.5585938 0,0.9609375 1.242188,1.13671875 1.921875,1.13671875 0.796875,0 1.265625,-0.41015625 1.488281,-0.8203122 z M 35.234164,-2.3325313 v 0.9492188 c 0,0.94921875 -0.914062,1.078125 -1.160156,1.078125 -0.503906,0 -0.902344,-0.33984375 -0.902344,-0.7851563 0,-1.0664062 1.570313,-1.2070312 2.0625,-1.2421875 z m 4.245117,-4.5820312 -1.757812,0.082031 v 0.46875 c 0.621094,0 0.691406,0 0.691406,0.3867188 V -0.46925 H 37.721469 V -5e-4 c 0.316406,-0.01171875 0.796875,-0.03515625 1.230469,-0.03515625 0.421875,0 0.878906,0.0234375 1.21875,0.03515625 v -0.46875 h -0.691407 z m 5.560547,4.7460937 c 0.210938,0 0.316406,0 0.316406,-0.2695312 0,-0.3164063 -0.05859,-1.0429688 -0.5625,-1.5351563 -0.363281,-0.3632812 -0.890625,-0.5390625 -1.582031,-0.5390625 -1.59375,0 -2.460937,1.0195313 -2.460937,2.2734375 0,1.33593755 0.996093,2.29687505 2.601562,2.29687505 1.570313,0 2.003906,-1.0546875 2.003906,-1.21875005 0,-0.1875 -0.1875,-0.1875 -0.234375,-0.1875 -0.175781,0 -0.199218,0.046875 -0.257812,0.2109375 -0.210938,0.4804688 -0.773438,0.79687505 -1.417969,0.79687505 -1.40625,0 -1.417969,-1.32421875 -1.417969,-1.82812505 z m -3.011719,-0.328125 c 0.02344,-0.3984375 0.03516,-0.8085937 0.234375,-1.1367187 0.269532,-0.3984375 0.667969,-0.515625 0.949219,-0.515625 1.171875,0 1.183594,1.3007812 1.195313,1.6523437 z m 7.385743,1.73437505 c 0,0.3046875 0,0.76171875 1.03125,0.76171875 h 0.480468 c 0.199219,0 0.316407,0 0.316407,-0.234375 0,-0.234375 -0.128907,-0.234375 -0.257813,-0.234375 -0.609375,-0.0117188 -0.609375,-0.140625 -0.609375,-0.36328125 V -2.9770625 c 0,-0.890625 -0.703125,-1.5351563 -2.191406,-1.5351563 -0.5625,0 -1.78125,0.035156 -1.78125,0.9140625 0,0.4453125 0.351562,0.6328125 0.621094,0.6328125 0.304687,0 0.621093,-0.2109375 0.621093,-0.6328125 0,-0.2929687 -0.1875,-0.46875 -0.210937,-0.4921875 0.28125,-0.058594 0.597656,-0.058594 0.714844,-0.058594 0.75,0 1.089843,0.4101562 1.089843,1.171875 v 0.3398437 c -0.703125,0.023437 -3.234375,0.1171875 -3.234375,1.5585938 0,0.9609375 1.242188,1.13671875 1.921875,1.13671875 0.796875,0 1.265625,-0.41015625 1.488282,-0.8203122 z M 49.23807,-2.3325313 v 0.9492188 c 0,0.94921875 -0.914062,1.078125 -1.160156,1.078125 -0.503906,0 -0.902344,-0.33984375 -0.902344,-0.7851563 0,-1.0664062 1.570313,-1.2070312 2.0625,-1.2421875 z m 3.049805,-1.6171875 v 2.71875 c 0,1.0664063 0.867188,1.28906255 1.570313,1.28906255 0.75,0 1.207031,-0.5625 1.207031,-1.28906255 v -0.5273437 h -0.46875 v 0.5039062 c 0,0.67968755 -0.316406,0.91406255 -0.597656,0.91406255 -0.585938,0 -0.585938,-0.6328125 -0.585938,-0.86718755 v -2.7421875 h 1.464844 v -0.46875 H 53.412875 V -6.328625 h -0.457031 c -0.01172,0.9960937 -0.503906,1.9804687 -1.488281,2.015625 v 0.3632812 z m 7.59375,-1.9335937 c 0.164063,-0.082031 0.375,-0.1992188 0.375,-0.515625 0,-0.3046875 -0.269531,-0.609375 -0.597656,-0.609375 -0.222656,0 -0.339844,0.1289062 -0.457031,0.2578125 -0.269532,0.28125 -0.867188,1.0195312 -1.125,1.3125 l 0.304687,0.3632812 z m 1.230469,3.7148437 c 0,-1.3359375 -0.914063,-2.34375 -2.542969,-2.34375 -1.628906,0 -2.542969,1.0195313 -2.542969,2.34375 0,1.2304688 0.878907,2.22656255 2.542969,2.22656255 1.675781,0 2.542969,-1.0078125 2.542969,-2.22656255 z m -2.542969,1.82812505 c -1.265625,0 -1.265625,-1.07812505 -1.265625,-1.94531255 0,-0.4453125 0,-0.9492187 0.164063,-1.2890625 0.199218,-0.375 0.609375,-0.5742187 1.101562,-0.5742187 0.421875,0 0.832031,0.1523437 1.054688,0.5039062 0.210937,0.3398438 0.210937,0.890625 0.210937,1.359375 0,0.8671875 0,1.94531255 -1.265625,1.94531255 z M 63.467563,-3.3520625 V -4.4887813 L 61.8035,-4.40675 V -3.938 c 0.621094,0 0.691406,0 0.691406,0.3867187 V -0.46925 H 61.8035 V -5e-4 c 0.351563,-0.01171875 0.796875,-0.03515625 1.265625,-0.03515625 0.375,0 1.007813,0 1.371094,0.03515625 v -0.46875 h -0.867188 v -1.7460938 c 0,-0.6914062 0.246094,-1.9101562 1.242188,-1.9101562 -0.01172,0.011719 -0.1875,0.1757812 -0.1875,0.4570312 0,0.4101563 0.316406,0.609375 0.609375,0.609375 0.292969,0 0.609375,-0.2109375 0.609375,-0.609375 0,-0.5273437 -0.539063,-0.8203125 -1.054688,-0.8203125 -0.703125,0 -1.101562,0.5039063 -1.324218,1.1367188 z m 4.916015,-1.1367188 -1.722656,0.082031 V -3.938 c 0.585937,0 0.65625,0 0.65625,0.3867187 V -0.46925 H 66.625766 V -5e-4 c 0.304687,-0.01171875 0.796875,-0.03515625 1.21875,-0.03515625 0.292968,0 0.808593,0.0234375 1.160156,0.03515625 v -0.46875 h -0.621094 z m 0.105469,-1.6523437 c 0,-0.4453125 -0.363281,-0.7851563 -0.773438,-0.7851563 -0.433593,0 -0.785156,0.3515625 -0.785156,0.7851563 0,0.421875 0.351563,0.7734375 0.785156,0.7734375 0.410157,0 0.773438,-0.3398438 0.773438,-0.7734375 z M 74.741,-2.1684688 c 0,-1.3359375 -0.914062,-2.34375 -2.542969,-2.34375 -1.628906,0 -2.542968,1.0195313 -2.542968,2.34375 0,1.2304688 0.878906,2.22656255 2.542968,2.22656255 1.675782,0 2.542969,-1.0078125 2.542969,-2.22656255 z m -2.542969,1.82812505 c -1.265625,0 -1.265625,-1.07812505 -1.265625,-1.94531255 0,-0.4453125 0,-0.9492187 0.164063,-1.2890625 0.199219,-0.375 0.609375,-0.5742187 1.101562,-0.5742187 0.421875,0 0.832032,0.1523437 1.054688,0.5039062 0.210937,0.3398438 0.210937,0.890625 0.210937,1.359375 0,0.8671875 0,1.94531255 -1.265625,1.94531255 z M 81.074984,-3.28175 c 0,-0.1875 0.01172,-0.1992188 0.152344,-0.3398438 0.398438,-0.3984375 0.914063,-0.46875 1.136719,-0.46875 0.667969,0 1.21875,0.609375 1.21875,1.8632813 0,1.40625 -0.691406,1.921875 -1.347656,1.921875 -0.128907,0 -0.597657,0 -1.054688,-0.52734375 -0.105469,-0.12890625 -0.105469,-0.140625 -0.105469,-0.32812505 z m 0,2.89453125 c 0.433594,0.3515625 0.867188,0.4453125 1.277344,0.4453125 1.488281,0 2.507813,-0.890625 2.507813,-2.28515625 0,-1.3242188 -0.902344,-2.2617188 -2.34375,-2.2617188 -0.738282,0 -1.277344,0.3164063 -1.5,0.4921875 V -4.4887813 L 79.246859,-4.40675 V -3.938 c 0.621094,0 0.691407,0 0.691407,0.3867187 v 5.015625 h -0.691407 v 0.46875 c 0.28125,-0.011719 0.878907,-0.035156 1.265625,-0.035156 0.386719,0 0.972657,0.023437 1.253907,0.035156 v -0.46875 h -0.691407 z m 9.896485,-1.78125005 c 0,-1.3359375 -0.914063,-2.34375 -2.542969,-2.34375 -1.628906,0 -2.542969,1.0195313 -2.542969,2.34375 0,1.2304688 0.878907,2.22656255 2.542969,2.22656255 1.675781,0 2.542969,-1.0078125 2.542969,-2.22656255 z M 88.4285,-0.34034375 c -1.265625,0 -1.265625,-1.07812505 -1.265625,-1.94531255 0,-0.4453125 0,-0.9492187 0.164063,-1.2890625 0.199218,-0.375 0.609375,-0.5742187 1.101562,-0.5742187 0.421875,0 0.832031,0.1523437 1.054688,0.5039062 0.210937,0.3398438 0.210937,0.890625 0.210937,1.359375 0,0.8671875 0,1.94531255 -1.265625,1.94531255 z M 93.48807,-3.28175 c 0,-0.1875 0.01172,-0.1992188 0.152344,-0.3398438 0.398438,-0.3984375 0.914063,-0.46875 1.136719,-0.46875 0.667969,0 1.21875,0.609375 1.21875,1.8632813 0,1.40625 -0.691406,1.921875 -1.347656,1.921875 -0.128907,0 -0.597657,0 -1.054688,-0.52734375 C 93.48807,-0.9614375 93.48807,-0.97315625 93.48807,-1.1606563 Z m 0,2.89453125 c 0.433594,0.3515625 0.867188,0.4453125 1.277344,0.4453125 1.488281,0 2.507813,-0.890625 2.507813,-2.28515625 0,-1.3242188 -0.902344,-2.2617188 -2.34375,-2.2617188 -0.738282,0 -1.277344,0.3164063 -1.5,0.4921875 V -4.4887813 L 91.659945,-4.40675 V -3.938 c 0.621094,0 0.691407,0 0.691407,0.3867187 v 5.015625 h -0.691407 v 0.46875 c 0.28125,-0.011719 0.878907,-0.035156 1.265625,-0.035156 0.386719,0 0.972657,0.023437 1.253907,0.035156 v -0.46875 H 93.48807 Z m 8.53125,-0.328125 v 0.7734375 L 103.78885,-5e-4 v -0.46875 c -0.62109,0 -0.6914,0 -0.6914,-0.38671875 V -4.4887813 l -1.81641,0.082031 V -3.938 c 0.60937,0 0.67969,0 0.67969,0.3867187 v 1.9101563 c 0,0.80859375 -0.50391,1.3359375 -1.23047,1.3359375 -0.77344,0 -0.796877,-0.24609375 -0.796877,-0.7851563 V -4.4887813 L 98.105258,-4.40675 V -3.938 c 0.621094,0 0.691406,0 0.691406,0.3867187 v 2.3203125 c 0,1.0664063 0.808594,1.28906255 1.792966,1.28906255 0.25782,0 0.97266,0 1.42969,-0.7734375 z m 4.2334,-6.19921875 -1.75781,0.082031 v 0.46875 c 0.62109,0 0.6914,0 0.6914,0.3867188 V -0.46925 h -0.6914 V -5e-4 c 0.3164,-0.01171875 0.79687,-0.03515625 1.23047,-0.03515625 0.42187,0 0.8789,0.0234375 1.21875,0.03515625 v -0.46875 h -0.69141 z m 4.68164,6.15234375 c 0,0.3046875 0,0.76171875 1.03125,0.76171875 h 0.48047 c 0.19922,0 0.3164,0 0.3164,-0.234375 0,-0.234375 -0.1289,-0.234375 -0.25781,-0.234375 -0.60937,-0.0117188 -0.60937,-0.140625 -0.60937,-0.36328125 V -2.9770625 c 0,-0.890625 -0.70313,-1.5351563 -2.19141,-1.5351563 -0.5625,0 -1.78125,0.035156 -1.78125,0.9140625 0,0.4453125 0.35156,0.6328125 0.62109,0.6328125 0.30469,0 0.6211,-0.2109375 0.6211,-0.6328125 0,-0.2929687 -0.1875,-0.46875 -0.21094,-0.4921875 0.28125,-0.058594 0.59766,-0.058594 0.71484,-0.058594 0.75,0 1.08985,0.4101562 1.08985,1.171875 v 0.3398437 c -0.70313,0.023437 -3.23438,0.1171875 -3.23438,1.5585938 0,0.9609375 1.24219,1.13671875 1.92188,1.13671875 0.79687,0 1.26562,-0.41015625 1.48828,-0.8203122 z m -0.17578,-1.57031255 v 0.9492188 c 0,0.94921875 -0.91406,1.078125 -1.16016,1.078125 -0.5039,0 -0.90234,-0.33984375 -0.90234,-0.7851563 0,-1.0664062 1.57031,-1.2070312 2.0625,-1.2421875 z m 5.60449,-1.7226562 c -0.17578,0.1640625 -0.19922,0.3632812 -0.19922,0.4570312 0,0.4453125 0.35156,0.6328125 0.6211,0.6328125 0.30468,0 0.62109,-0.2109375 0.62109,-0.6328125 0,-0.8554687 -1.14844,-0.9140625 -1.73438,-0.9140625 -1.78125,0 -2.51953,1.1484375 -2.51953,2.296875 0,1.3242188 0.9375,2.27343755 2.47266,2.27343755 1.61719,0 1.91016,-1.16015625 1.91016,-1.21875005 0,-0.140625 -0.14063,-0.140625 -0.23438,-0.140625 -0.17578,0 -0.1875,0.011719 -0.23437,0.140625 -0.26954,0.63281255 -0.73829,0.82031255 -1.25391,0.82031255 -1.38281,0 -1.38281,-1.46484375 -1.38281,-1.92187505 0,-0.5625 0,-1.8515625 1.28906,-1.8515625 0.35156,0 0.51562,0.023437 0.64453,0.058594 z m 3.73242,-0.4335938 -1.72265,0.082031 V -3.938 c 0.58593,0 0.65625,0 0.65625,0.3867187 V -0.46925 h -0.69141 V -5e-4 c 0.30469,-0.01171875 0.79687,-0.03515625 1.21875,-0.03515625 0.29297,0 0.80859,0.0234375 1.16016,0.03515625 v -0.46875 h -0.6211 z m 0.10547,-1.6523437 c 0,-0.4453125 -0.36328,-0.7851563 -0.77344,-0.7851563 -0.43359,0 -0.78515,0.3515625 -0.78515,0.7851563 0,0.421875 0.35156,0.7734375 0.78515,0.7734375 0.41016,0 0.77344,-0.3398438 0.77344,-0.7734375 z m 6.25195,3.9726562 c 0,-1.3359375 -0.91406,-2.34375 -2.54296,-2.34375 -1.62891,0 -2.54297,1.0195313 -2.54297,2.34375 0,1.2304688 0.8789,2.22656255 2.54297,2.22656255 1.67578,0 2.54296,-1.0078125 2.54296,-2.22656255 z m -2.54296,1.82812505 c -1.26563,0 -1.26563,-1.07812505 -1.26563,-1.94531255 0,-0.4453125 0,-0.9492187 0.16406,-1.2890625 0.19922,-0.375 0.60938,-0.5742187 1.10157,-0.5742187 0.42187,0 0.83203,0.1523437 1.05468,0.5039062 0.21094,0.3398438 0.21094,0.890625 0.21094,1.359375 0,0.8671875 0,1.94531255 -1.26562,1.94531255 z m 4.00781,-3.21093755 V -0.46925 h -0.69141 V -5e-4 c 0.28125,-0.01171875 0.87891,-0.03515625 1.25391,-0.03515625 0.39844,0 0.98437,0.0234375 1.2539,0.03515625 v -0.46875 h -0.67968 v -2.0859375 c 0,-1.078125 0.85547,-1.5703125 1.47656,-1.5703125 0.33984,0 0.55078,0.2109375 0.55078,0.9726562 V -0.46925 h -0.67969 V -5e-4 c 0.26953,-0.01171875 0.86719,-0.03515625 1.25391,-0.03515625 0.38672,0 0.97266,0.0234375 1.25391,0.03515625 v -0.46875 h -0.69141 v -2.578125 c 0,-1.0429688 -0.53906,-1.4414063 -1.53516,-1.4414063 -0.94922,0 -1.47656,0.5742188 -1.74609,1.078125 v -1.078125 l -1.71094,0.082031 V -3.938 c 0.6211,0 0.69141,0 0.69141,0.3867187 z m 8.95312,2.78906255 c 0,0.3046875 0,0.76171875 1.03125,0.76171875 h 0.48047 c 0.19922,0 0.31641,0 0.31641,-0.234375 0,-0.234375 -0.12891,-0.234375 -0.25781,-0.234375 -0.60938,-0.0117188 -0.60938,-0.140625 -0.60938,-0.36328125 V -2.9770625 c 0,-0.890625 -0.70312,-1.5351563 -2.19141,-1.5351563 -0.5625,0 -1.78125,0.035156 -1.78125,0.9140625 0,0.4453125 0.35157,0.6328125 0.6211,0.6328125 0.30469,0 0.62109,-0.2109375 0.62109,-0.6328125 0,-0.2929687 -0.1875,-0.46875 -0.21094,-0.4921875 0.28125,-0.058594 0.59766,-0.058594 0.71485,-0.058594 0.75,0 1.08984,0.4101562 1.08984,1.171875 v 0.3398437 c -0.70312,0.023437 -3.23437,0.1171875 -3.23437,1.5585938 0,0.9609375 1.24218,1.13671875 1.92187,1.13671875 0.79688,0 1.26563,-0.41015625 1.48828,-0.8203122 z M 136.6951,-2.3325313 v 0.9492188 c 0,0.94921875 -0.91406,1.078125 -1.16015,1.078125 -0.50391,0 -0.90235,-0.33984375 -0.90235,-0.7851563 0,-1.0664062 1.57031,-1.2070312 2.0625,-1.2421875 z m 4.24512,-4.5820312 -1.75781,0.082031 v 0.46875 c 0.62109,0 0.6914,0 0.6914,0.3867188 V -0.46925 h -0.6914 V -5e-4 c 0.3164,-0.01171875 0.79687,-0.03515625 1.23047,-0.03515625 0.42187,0 0.8789,0.0234375 1.21875,0.03515625 v -0.46875 h -0.69141 z m 0,0"
       style="fill:#000000;fill-opacity:1;fill-rule:nonzero;stroke:none"
       aria-label="Vetoraleat´oriopopulacional"
       transform="matrix(1.3333333,0,0,1.3333333,276.34533,22.750667)" />
    <path
       id="path59"
       d="m 4.7230703,-6.6908672 c -0.1054687,-0.2578125 -0.234375,-0.2578125 -0.3984375,-0.2578125 -0.28125,0 -0.3164062,0.070312 -0.3867187,0.2578125 l -2.4726563,5.98828126 c -0.058594,0.15234375 -0.09375,0.234375 -0.84374999,0.234375 H 0.41057031 V 5.390625e-4 C 0.78557031,-0.01117969 1.2660391,-0.03461719 1.5707266,-0.03461719 c 0.3867187,0 0.9492187,0 1.3242187,0.0351562525 V -0.46821094 c -0.023437,0 -0.890625,0 -0.890625,-0.12890625 0,-0.0117188 0.023437,-0.10546875 0.035156,-0.1171875 L 2.5433828,-1.9213359 h 2.671875 l 0.5976563,1.45312496 H 4.8636953 V 5.390625e-4 c 0.375,-0.0351562525 1.3242188,-0.0351562525 1.7460938,-0.0351562525 0.3984375,0 1.2773437,0 1.6289062,0.0351562525 V -0.46821094 H 7.2777578 Z m -0.84375,1.5351563 1.1367188,2.765625 H 2.7426016 Z m 5.9179688,1.6054687 v 3.08203126 H 9.1058828 V 5.390625e-4 C 9.3871328,-0.01117969 9.9847891,-0.03461719 10.359789,-0.03461719 c 0.398438,0 0.984375,0.0234375 1.253906,0.0351562525 V -0.46821094 H 10.934008 V -2.5541484 c 0,-1.078125 0.867187,-1.5703125 1.476562,-1.5703125 0.339844,0 0.5625,0.1992187 0.5625,0.9726562 v 2.68359376 H 12.281664 V 5.390625e-4 C 12.562914,-0.01117969 13.16057,-0.03461719 13.547289,-0.03461719 c 0.386719,0 0.972656,0.0234375 1.253906,0.0351562525 V -0.46821094 H 14.109789 V -2.5541484 c 0,-1.078125 0.867188,-1.5703125 1.488281,-1.5703125 0.339844,0 0.550782,0.1992187 0.550782,0.9726562 v 2.68359376 H 15.469164 V 5.390625e-4 C 15.738695,-0.01117969 16.336352,-0.03461719 16.72307,-0.03461719 c 0.386719,0 0.972657,0.0234375 1.253907,0.0351562525 V -0.46821094 H 17.28557 V -3.0463359 c 0,-1.03125 -0.503906,-1.4414063 -1.535156,-1.4414063 -0.902344,0 -1.417969,0.5039063 -1.675781,0.9609375 -0.199219,-0.9257812 -1.125,-0.9609375 -1.5,-0.9609375 -0.867188,0 -1.429688,0.4570313 -1.757813,1.078125 v -1.078125 l -1.7109372,0.082031 v 0.46875 c 0.6210938,0 0.6914063,0 0.6914063,0.386719 z m 13.8134769,1.3828125 c 0,-1.3359375 -0.914063,-2.34375 -2.542969,-2.34375 -1.628906,0 -2.542969,1.0195313 -2.542969,2.34375 0,1.23046876 0.878906,2.22656251 2.542969,2.22656251 1.675781,0 2.542969,-1.0078125 2.542969,-2.22656251 z m -2.542969,1.82812501 c -1.265625,0 -1.265625,-1.07812501 -1.265625,-1.94531251 0,-0.4453125 0,-0.9492187 0.164062,-1.2890625 0.199219,-0.375 0.609375,-0.5742187 1.101563,-0.5742187 0.421875,0 0.832031,0.1523437 1.054687,0.5039062 0.210938,0.3398438 0.210938,0.890625 0.210938,1.359375 0,0.8671875 0,1.94531251 -1.265625,1.94531251 z m 4.96582,-2.58984371 c -0.363281,-0.070312 -1.007812,-0.1757813 -1.007812,-0.6445313 0,-0.6210937 0.925781,-0.6210937 1.113281,-0.6210937 0.75,0 1.125,0.2929687 1.171875,0.84375 0.01172,0.140625 0.02344,0.1992187 0.234375,0.1992187 0.234375,0 0.234375,-0.058594 0.234375,-0.28125 v -0.796875 c 0,-0.1875 0,-0.28125 -0.175781,-0.28125 -0.04687,0 -0.05859,0 -0.445313,0.1875 -0.269531,-0.1289062 -0.609375,-0.1875 -1.007812,-0.1875 -0.304688,0 -1.839844,0 -1.839844,1.3007813 0,0.3984375 0.199219,0.6679687 0.398437,0.84375 0.398438,0.3398437 0.785157,0.4101562 1.546875,0.5390625 0.363282,0.070312 1.101563,0.1992187 1.101563,0.7851562 0,0.73828126 -0.914063,0.73828126 -1.125,0.73828126 -1.066406,0 -1.324219,-0.72656246 -1.441406,-1.14843746 -0.04687,-0.140625 -0.09375,-0.140625 -0.234375,-0.140625 -0.246094,0 -0.246094,0.058594 -0.246094,0.2929687 v 1.07812501 c 0,0.1875 0,0.28125 0.1875,0.28125 0.07031,0 0.08203,0 0.292969,-0.15234375 0.01172,0 0.234375,-0.140625 0.257812,-0.1640625 0.457031,0.31640625 0.984375,0.31640625 1.183594,0.31640625 0.304687,0 1.839844,0 1.839844,-1.45312501 0,-0.4335937 -0.199219,-0.7734375 -0.550782,-1.0546875 -0.386718,-0.2929687 -0.703125,-0.3515625 -1.488281,-0.4804687 z m 3.454102,-1.0195313 v 2.71875 c 0,1.06640626 0.867187,1.28906251 1.570312,1.28906251 0.75,0 1.207032,-0.5625 1.207032,-1.28906251 v -0.5273437 h -0.46875 v 0.5039062 c 0,0.67968751 -0.316407,0.91406251 -0.597657,0.91406251 -0.585937,0 -0.585937,-0.6328125 -0.585937,-0.86718751 v -2.7421875 h 1.464844 v -0.46875 h -1.464844 v -1.9101562 h -0.457031 c -0.01172,0.9960937 -0.503907,1.9804687 -1.488282,2.015625 v 0.3632812 z m 5.452148,0.5976563 v -1.1367188 l -1.664062,0.082031 v 0.46875 c 0.621093,0 0.691406,0 0.691406,0.3867187 v 3.08203126 H 33.275805 V 5.390625e-4 C 33.627367,-0.01117969 34.07268,-0.03461719 34.54143,-0.03461719 c 0.375,0 1.007812,0 1.371093,0.0351562525 V -0.46821094 H 35.045336 V -2.2143047 c 0,-0.6914062 0.246094,-1.9101562 1.242187,-1.9101562 -0.01172,0.011719 -0.1875,0.1757812 -0.1875,0.4570312 0,0.4101563 0.316407,0.609375 0.609375,0.609375 0.292969,0 0.609375,-0.2109375 0.609375,-0.609375 0,-0.5273437 -0.539062,-0.8203125 -1.054687,-0.8203125 -0.703125,0 -1.101563,0.5039063 -1.324219,1.1367188 z m 6.416016,2.58984371 c 0,0.3046875 0,0.7617187525 1.03125,0.7617187525 h 0.480469 c 0.199218,0 0.316406,0 0.316406,-0.2343750025 0,-0.234375 -0.128906,-0.234375 -0.257813,-0.234375 -0.609375,-0.0117188 -0.609375,-0.140625 -0.609375,-0.36328125 V -2.9760234 c 0,-0.890625 -0.703125,-1.5351563 -2.191406,-1.5351563 -0.5625,0 -1.78125,0.035156 -1.78125,0.9140625 0,0.4453125 0.351563,0.6328125 0.621094,0.6328125 0.304687,0 0.621094,-0.2109375 0.621094,-0.6328125 0,-0.2929687 -0.1875,-0.46875 -0.210938,-0.4921875 0.28125,-0.058594 0.597656,-0.058594 0.714844,-0.058594 0.75,0 1.089844,0.4101562 1.089844,1.171875 V -2.63618 c -0.703125,0.023437 -3.234375,0.1171875 -3.234375,1.5585938 0,0.96093746 1.242187,1.13671871 1.921875,1.13671871 0.796875,0 1.265625,-0.41015625 1.488281,-0.8203122 z M 41.180102,-2.3314922 v 0.9492188 c 0,0.94921871 -0.914063,1.07812496 -1.160157,1.07812496 -0.503906,0 -0.902343,-0.33984375 -0.902343,-0.78515626 0,-1.0664062 1.570312,-1.2070312 2.0625,-1.2421875 z m 9.55957,1.57031251 c 0,0.3046875 0,0.7617187525 1.03125,0.7617187525 h 0.480469 c 0.199218,0 0.316406,0 0.316406,-0.2343750025 0,-0.234375 -0.128906,-0.234375 -0.257813,-0.234375 -0.609375,-0.0117188 -0.609375,-0.140625 -0.609375,-0.36328125 V -2.9760234 c 0,-0.890625 -0.703125,-1.5351563 -2.191406,-1.5351563 -0.5625,0 -1.78125,0.035156 -1.78125,0.9140625 0,0.4453125 0.351563,0.6328125 0.621094,0.6328125 0.304687,0 0.621094,-0.2109375 0.621094,-0.6328125 0,-0.2929687 -0.1875,-0.46875 -0.210938,-0.4921875 0.28125,-0.058594 0.597656,-0.058594 0.714844,-0.058594 0.75,0 1.089844,0.4101562 1.089844,1.171875 V -2.63618 c -0.703125,0.023437 -3.234375,0.1171875 -3.234375,1.5585938 0,0.96093746 1.242187,1.13671871 1.921875,1.13671871 0.796875,0 1.265625,-0.41015625 1.488281,-0.8203122 z M 50.563891,-2.3314922 v 0.9492188 c 0,0.94921871 -0.914063,1.07812496 -1.160157,1.07812496 -0.503906,0 -0.902343,-0.33984375 -0.902343,-0.78515626 0,-1.0664062 1.570312,-1.2070312 2.0625,-1.2421875 z m 4.245117,-4.5820312 -1.757813,0.082031 v 0.46875 c 0.621094,0 0.691407,0 0.691407,0.3867188 v 5.50781246 H 53.051195 V 5.390625e-4 C 53.367602,-0.01117969 53.84807,-0.03461719 54.281664,-0.03461719 c 0.421875,0 0.878906,0.0234375 1.21875,0.0351562525 V -0.46821094 h -0.691406 z m 5.572265,4.7460937 c 0.210938,0 0.316407,0 0.316407,-0.2695312 0,-0.3164063 -0.05859,-1.0429688 -0.5625,-1.5351563 -0.363282,-0.3632812 -0.890625,-0.5390625 -1.582032,-0.5390625 -1.59375,0 -2.460937,1.0195313 -2.460937,2.2734375 0,1.33593751 0.996094,2.29687501 2.601562,2.29687501 1.570313,0 2.003907,-1.0546875 2.003907,-1.21875001 0,-0.1875 -0.1875,-0.1875 -0.234375,-0.1875 -0.175782,0 -0.199219,0.046875 -0.257813,0.2109375 -0.210937,0.48046876 -0.773437,0.79687501 -1.417969,0.79687501 -1.40625,0 -1.417968,-1.32421871 -1.417968,-1.82812501 z m -3.011718,-0.328125 c 0.02344,-0.3984375 0.03516,-0.8085937 0.234375,-1.1367187 0.269531,-0.3984375 0.667968,-0.515625 0.949218,-0.515625 1.171875,0 1.183594,1.3007812 1.195313,1.6523437 z m 7.382812,1.73437501 c 0,0.3046875 0,0.7617187525 1.03125,0.7617187525 h 0.480469 c 0.199219,0 0.316406,0 0.316406,-0.2343750025 0,-0.234375 -0.128906,-0.234375 -0.257812,-0.234375 -0.609375,-0.0117188 -0.609375,-0.140625 -0.609375,-0.36328125 V -2.9760234 c 0,-0.890625 -0.703125,-1.5351563 -2.191407,-1.5351563 -0.5625,0 -1.78125,0.035156 -1.78125,0.9140625 0,0.4453125 0.351563,0.6328125 0.621094,0.6328125 0.304688,0 0.621094,-0.2109375 0.621094,-0.6328125 0,-0.2929687 -0.1875,-0.46875 -0.210938,-0.4921875 0.28125,-0.058594 0.597657,-0.058594 0.714844,-0.058594 0.75,0 1.089844,0.4101562 1.089844,1.171875 V -2.63618 c -0.703125,0.023437 -3.234375,0.1171875 -3.234375,1.5585938 0,0.96093746 1.242187,1.13671871 1.921875,1.13671871 0.796875,0 1.265625,-0.41015625 1.488281,-0.8203122 z M 64.576586,-2.3314922 v 0.9492188 c 0,0.94921871 -0.914063,1.07812496 -1.160156,1.07812496 -0.503907,0 -0.902344,-0.33984375 -0.902344,-0.78515626 0,-1.0664062 1.570312,-1.2070312 2.0625,-1.2421875 z m 3.049805,-1.6171875 v 2.71875 c 0,1.06640626 0.867187,1.28906251 1.570312,1.28906251 0.75,0 1.207031,-0.5625 1.207031,-1.28906251 v -0.5273437 h -0.46875 v 0.5039062 c 0,0.67968751 -0.316406,0.91406251 -0.597656,0.91406251 -0.585937,0 -0.585937,-0.6328125 -0.585937,-0.86718751 v -2.7421875 h 1.464843 v -0.46875 h -1.464843 v -1.9101562 h -0.457032 c -0.01172,0.9960937 -0.503906,1.9804687 -1.488281,2.015625 v 0.3632812 z m 7.596679,-1.9335937 c 0.164063,-0.082031 0.375,-0.1992188 0.375,-0.515625 0,-0.3046875 -0.269531,-0.609375 -0.597656,-0.609375 -0.222656,0 -0.339844,0.1289062 -0.457031,0.2578125 -0.269531,0.28125 -0.867188,1.0195312 -1.125,1.3125 l 0.304687,0.3632812 z m 1.230469,3.7148437 c 0,-1.3359375 -0.914062,-2.34375 -2.542969,-2.34375 -1.628906,0 -2.542968,1.0195313 -2.542968,2.34375 0,1.23046876 0.878906,2.22656251 2.542968,2.22656251 1.675782,0 2.542969,-1.0078125 2.542969,-2.22656251 z m -2.542969,1.82812501 c -1.265625,0 -1.265625,-1.07812501 -1.265625,-1.94531251 0,-0.4453125 0,-0.9492187 0.164063,-1.2890625 0.199219,-0.375 0.609375,-0.5742187 1.101562,-0.5742187 0.421875,0 0.832032,0.1523437 1.054688,0.5039062 0.210937,0.3398438 0.210937,0.890625 0.210937,1.359375 0,0.8671875 0,1.94531251 -1.265625,1.94531251 z m 4.895508,-3.01171871 v -1.1367188 l -1.664062,0.082031 v 0.46875 c 0.621093,0 0.691406,0 0.691406,0.3867187 v 3.08203126 H 77.142016 V 5.390625e-4 C 77.493578,-0.01117969 77.938891,-0.03461719 78.407641,-0.03461719 c 0.375,0 1.007812,0 1.371093,0.0351562525 V -0.46821094 H 78.911547 V -2.2143047 c 0,-0.6914062 0.246094,-1.9101562 1.242187,-1.9101562 -0.01172,0.011719 -0.1875,0.1757812 -0.1875,0.4570312 0,0.4101563 0.316407,0.609375 0.609375,0.609375 0.292969,0 0.609375,-0.2109375 0.609375,-0.609375 0,-0.5273437 -0.539062,-0.8203125 -1.054687,-0.8203125 -0.703125,0 -1.101563,0.5039063 -1.324219,1.1367188 z m 4.918945,-1.1367188 -1.722656,0.082031 v 0.46875 c 0.585938,0 0.65625,0 0.65625,0.3867187 v 3.08203126 H 81.967211 V 5.390625e-4 c 0.304687,-0.0117187525 0.796875,-0.0351562525 1.21875,-0.0351562525 0.292969,0 0.808594,0.0234375 1.160156,0.0351562525 V -0.46821094 h -0.621094 z m 0.105469,-1.6523437 c 0,-0.4453125 -0.363281,-0.7851563 -0.773437,-0.7851563 -0.433594,0 -0.785157,0.3515625 -0.785157,0.7851563 0,0.421875 0.351563,0.7734375 0.785157,0.7734375 0.410156,0 0.773437,-0.3398438 0.773437,-0.7734375 z m 4.576172,5.37890621 c 0,0.3046875 0,0.7617187525 1.03125,0.7617187525 h 0.480469 c 0.199219,0 0.316406,0 0.316406,-0.2343750025 0,-0.234375 -0.128906,-0.234375 -0.257812,-0.234375 -0.609375,-0.0117188 -0.609375,-0.140625 -0.609375,-0.36328125 V -2.9760234 c 0,-0.890625 -0.703125,-1.5351563 -2.191407,-1.5351563 -0.5625,0 -1.78125,0.035156 -1.78125,0.9140625 0,0.4453125 0.351563,0.6328125 0.621094,0.6328125 0.304688,0 0.621094,-0.2109375 0.621094,-0.6328125 0,-0.2929687 -0.1875,-0.46875 -0.210938,-0.4921875 0.28125,-0.058594 0.597657,-0.058594 0.714844,-0.058594 0.75,0 1.089844,0.4101562 1.089844,1.171875 V -2.63618 c -0.703125,0.023437 -3.234375,0.1171875 -3.234375,1.5585938 0,0.96093746 1.242187,1.13671871 1.921875,1.13671871 0.796875,0 1.265625,-0.41015625 1.488281,-0.8203122 z M 88.230883,-2.3314922 v 0.9492188 c 0,0.94921871 -0.914063,1.07812496 -1.160156,1.07812496 -0.503907,0 -0.902344,-0.33984375 -0.902344,-0.78515626 0,-1.0664062 1.570312,-1.2070312 2.0625,-1.2421875 z m 0,0"
       style="fill:#000000;fill-opacity:1;fill-rule:nonzero;stroke:none"
       aria-label="Amostraaleat´oria"
       transform="matrix(1.3333333,0,0,1.3333333,402.69867,93.136)" />
  </g>
</svg>
