<?xml version="1.0" encoding="UTF-8" standalone="no"?>
<!-- Created with Inkscape (http://www.inkscape.org/) -->

<svg
   version="1.1"
   id="svg1"
   width="230.25867"
   height="33.523998"
   viewBox="0 0 230.25867 33.523998"
   xmlns="http://www.w3.org/2000/svg"
   xmlns:svg="http://www.w3.org/2000/svg">
  <defs
     id="defs1" />
  <g
     id="g1">
    <path
       id="path1"
       d="M -27.72592,-5.92194 H 27.72594 V 5.92195 h -55.45186 z"
       style="fill:none;stroke:#000000;stroke-width:0.3985;stroke-linecap:butt;stroke-linejoin:miter;stroke-miterlimit:10;stroke-dasharray:none;stroke-opacity:1"
       transform="matrix(1.3333333,0,0,-1.3333333,45.914667,16.426667)" />
    <g
       id="g2"
       aria-label="Z&#10;1&#10;∼f&#10;θ&#10;,θ∈Θ"
       transform="matrix(1.3333333,0,0,1.3333333,13.374667,17.570667)">
      <path
         id="path2"
         d="m 4.4768125,-3.1643281 c 0.046875,-0.046875 0.09375,-0.09375 0.09375,-0.1757813 0,-0.058594 -0.058594,-0.058594 -0.1523438,-0.058594 H 1.7697812 c -0.1289062,0 -0.140625,0 -0.1757812,0.1054687 l -0.28125,0.9023438 c -0.011719,0.023437 -0.023437,0.082031 -0.023437,0.09375 0,0.035156 0.011719,0.082031 0.1054687,0.082031 0.046875,0 0.082031,0 0.1054688,-0.070312 0.2578125,-0.7382812 0.703125,-0.890625 1.359375,-0.890625 H 3.8791567 L 0.726813,-0.23464063 c -0.0585938,0.0351563 -0.0820313,0.10546875 -0.0820313,0.1640625 0,0.070312505 0.0351563,0.070312505 0.140625,0.070312505 h 2.742187 c 0.1289063,0 0.140625,0 0.1757813,-0.117187505 0.046875,-0.140625 0.3984375,-1.14843747 0.3984375,-1.19531247 0,-0.082031 -0.082031,-0.082031 -0.1054688,-0.082031 -0.082031,0 -0.09375,0.023437 -0.1171875,0.1054688 -0.2695312,0.76171872 -0.5625,1.05468747 -1.453125,1.05468747 h -1.078125 z m 0,0"
         style="fill:#000000;fill-opacity:1;fill-rule:nonzero;stroke:none" />
      <path
         id="path3"
         d="m 6.6770078,-1.6701875 c 0,-0.1523438 -0.011719,-0.1523438 -0.1757812,-0.1523438 C 6.1496641,-1.506125 5.5988828,-1.506125 5.4934141,-1.506125 h -0.082031 v 0.2226562 h 0.082031 c 0.1171875,0 0.4335937,-0.011719 0.7265625,-0.140625 v 2.484375 c 0,0.1640625 0,0.2109375 -0.5273438,0.2109375 H 5.4465391 V 1.493875 C 5.7160703,1.470438 6.1613828,1.470438 6.4543516,1.470438 c 0.28125,0 0.7265625,0 0.9960937,0.023437 V 1.2712187 H 7.2043516 c -0.5273438,0 -0.5273438,-0.046875 -0.5273438,-0.2109375 z m 0,0"
         style="fill:#000000;fill-opacity:1;fill-rule:nonzero;stroke:none" />
      <path
         id="path4"
         d="m 15.392828,-1.7580781 c 0,-0.1640625 -0.05859,-0.2109375 -0.09375,-0.2109375 -0.09375,0 -0.09375,0.1523437 -0.09375,0.234375 -0.02344,0.3867187 -0.351562,0.83203122 -0.855469,0.83203122 -0.386718,0 -0.691406,-0.25781252 -1.007812,-0.52734372 -0.316406,-0.28125 -0.632813,-0.5390625 -1.054688,-0.5390625 -0.667968,0 -1.042968,0.65625 -1.042968,1.23046872 0,0.1875 0.07031,0.2109375 0.105468,0.2109375 0.03516,0 0.08203,-0.0351563 0.09375,-0.1875 0.01172,-0.52734372 0.410157,-0.86718752 0.84375,-0.86718752 0.386719,0 0.65625,0.234375 1.066407,0.58593752 0.328125,0.26953125 0.621093,0.48046875 0.996093,0.48046875 0.65625,0 1.042969,-0.64453127 1.042969,-1.24218747 z m 0,0"
         style="fill:#000000;fill-opacity:1;fill-rule:nonzero;stroke:none" />
      <path
         id="path5"
         d="m 20.423102,-1.9221406 h 0.5625 c 0.105468,0 0.105468,0 0.128906,-0.023437 0.03516,-0.023437 0.04687,-0.082031 0.04687,-0.1171875 0,-0.082031 -0.08203,-0.082031 -0.164063,-0.082031 h -0.527343 c 0.05859,-0.375 0.152343,-1.0078125 0.222656,-1.078125 0.07031,-0.082031 0.152344,-0.1171875 0.234375,-0.1171875 0.03516,0 0.140625,0 0.246094,0.046875 -0.199219,0.09375 -0.199219,0.2695313 -0.199219,0.2929688 0,0.1171875 0.09375,0.1992187 0.222656,0.1992187 0.128906,0 0.304688,-0.1054687 0.304688,-0.328125 0,-0.2929687 -0.328125,-0.3867187 -0.5625,-0.3867187 -0.632813,0 -0.761719,0.609375 -0.808594,0.8203125 -0.04687,0.2109375 -0.01172,0.082031 -0.09375,0.5507812 h -0.457031 c -0.09375,0 -0.175782,0 -0.175782,0.140625 0,0.082031 0.08203,0.082031 0.164063,0.082031 h 0.433594 c -0.09375,0.4921875 -0.304688,1.87499997 -0.445313,2.40234372 -0.03516,0.1171875 -0.152344,0.375 -0.339844,0.375 -0.03516,0 -0.140625,-0.0117188 -0.234375,-0.0585938 0.140625,-0.0585938 0.199219,-0.17578125 0.199219,-0.28125 0,-0.12890625 -0.09375,-0.2109375 -0.222656,-0.2109375 -0.128906,0 -0.304688,0.1171875 -0.304688,0.328125 0,0.3046875 0.363282,0.38671868 0.550782,0.38671868 0.292968,0 0.515625,-0.22265618 0.621093,-0.38671868 0.199219,-0.26953125 0.316407,-0.9375 0.328125,-0.94921875 z m 4.051757,1.30957029 c 0,-0.60937499 -0.28125,-1.16015629 -0.820312,-1.16015629 -0.796875,0 -1.652344,1.25390629 -1.652344,2.41406254 0,0.67968746 0.316406,1.16015626 0.808594,1.16015626 0.808594,0 1.664062,-1.28906251 1.664062,-2.41406251 z m -1.875,0.515625 c 0.316407,-1.24218749 0.820313,-1.49999999 1.054688,-1.49999999 0.28125,0 0.398437,0.3164062 0.398437,0.70312499 0,0.15234375 -0.01172,0.3515625 -0.128906,0.796875 z m 1.265625,0.22265625 C 23.572516,1.3210234 23.068609,1.6257109 22.822516,1.6257109 c -0.375,0 -0.398438,-0.5507812 -0.398438,-0.70312496 0,-0.1875 0.03516,-0.421875 0.117188,-0.796875 z m 2.991211,-0.19628907 c 0,0.48046875 -0.257812,0.75 -0.398437,0.8671875 -0.04687,0.0351563 -0.05859,0.046875 -0.05859,0.0820313 0,0.0234375 0.04687,0.0820313 0.09375,0.0820313 0.05859,0 0.527344,-0.38671875 0.527344,-1.0078125 0,-0.33984375 -0.152344,-0.5625 -0.375,-0.5625 -0.1875,0 -0.304688,0.15234375 -0.304688,0.3046875 0,0.1640625 0.117188,0.304687505 0.304688,0.304687505 0.08203,0 0.152344,-0.023437505 0.210937,-0.070312505 z m 7.523438,-2.28515627 c 0,-0.609375 -0.28125,-1.1601562 -0.820313,-1.1601562 -0.796875,0 -1.652343,1.2539062 -1.652343,2.4140625 0,0.67968747 0.316406,1.16015622 0.808593,1.16015622 0.808594,0 1.664063,-1.28906252 1.664063,-2.41406252 z m -1.875,0.515625 c 0.316406,-1.2421875 0.820312,-1.5 1.054687,-1.5 0.28125,0 0.398438,0.3164063 0.398438,0.703125 0,0.1523438 -0.01172,0.3515625 -0.128906,0.796875 z m 1.265625,0.2226563 c -0.292969,1.19531247 -0.796875,1.49999997 -1.042969,1.49999997 -0.375,0 -0.398437,-0.55078125 -0.398437,-0.703125 0,-0.18749997 0.03516,-0.42187497 0.117187,-0.79687497 z m 0,0"
         style="fill:#000000;fill-opacity:1;fill-rule:nonzero;stroke:none" />
      <path
         id="path6"
         d="m 40.637945,-1.1018281 c 0.08203,0 0.210938,0 0.210938,-0.140625 0,-0.140625 -0.128906,-0.140625 -0.210938,-0.140625 h -2.601562 c 0.05859,-0.7148438 0.726562,-1.3359375 1.617187,-1.3359375 h 0.984375 c 0.08203,0 0.210938,0 0.210938,-0.140625 0,-0.1289063 -0.128906,-0.1289063 -0.210938,-0.1289063 h -0.996093 c -1.007813,0 -1.898438,0.7382813 -1.898438,1.7460938 0,1.00781247 0.890625,1.74609372 1.898438,1.74609372 h 0.996093 c 0.08203,0 0.210938,0 0.210938,-0.140625 0,-0.140625 -0.128906,-0.140625 -0.210938,-0.140625 H 39.65357 c -0.890625,0 -1.558593,-0.62109375 -1.617187,-1.32421872 z m 0,0"
         style="fill:#000000;fill-opacity:1;fill-rule:nonzero;stroke:none" />
      <path
         id="path7"
         d="m 48.319586,-1.6877656 c 0,-0.984375 -0.902344,-1.828125 -2.074219,-1.828125 -1.183594,0 -2.074219,0.8554687 -2.074219,1.828125 0,0.97265622 0.914063,1.79296872 2.074219,1.79296872 1.183594,0 2.074219,-0.83203125 2.074219,-1.79296872 z m -2.074219,1.62890622 c -0.785156,0 -1.523437,-0.5625 -1.523437,-1.62890622 0,-1.1015625 0.761718,-1.6640625 1.523437,-1.6640625 0.796875,0 1.535156,0.5742187 1.535156,1.6640625 0,1.08984372 -0.761718,1.62890622 -1.535156,1.62890622 z m 1.183594,-2.03906252 h -0.210938 v 0.1640625 h -1.945312 v -0.1640625 h -0.210938 v 0.7851563 h 0.210938 v -0.1640625 h 1.945312 v 0.1640625 h 0.210938 z m 0,0"
         style="fill:#000000;fill-opacity:1;fill-rule:nonzero;stroke:none" />
    </g>
    <path
       id="path8"
       d="M 0.19925,-5.92194 H 55.65111 V 5.92195 H 0.19925 Z"
       style="fill:none;stroke:#000000;stroke-width:0.3985;stroke-linecap:butt;stroke-linejoin:miter;stroke-miterlimit:10;stroke-dasharray:none;stroke-opacity:1"
       transform="matrix(1.3333333,0,0,-1.3333333,45.914667,16.426667)" />
    <g
       id="g8"
       aria-label="Z&#10;2&#10;∼f&#10;θ&#10;,θ∈Θ"
       transform="matrix(1.3333333,0,0,1.3333333,50.606667,17.570667)">
      <path
         id="path9"
         d="m 4.4756641,-3.1643281 c 0.046875,-0.046875 0.09375,-0.09375 0.09375,-0.1757813 0,-0.058594 -0.058594,-0.058594 -0.1523438,-0.058594 H 1.7686328 c -0.1289062,0 -0.140625,0 -0.1757812,0.1054687 l -0.28125,0.9023438 c -0.011719,0.023437 -0.023437,0.082031 -0.023437,0.09375 0,0.035156 0.011719,0.082031 0.1054687,0.082031 0.046875,0 0.082031,0 0.1054688,-0.070312 0.2578125,-0.7382812 0.703125,-0.890625 1.359375,-0.890625 h 1.0195312 l -3.15234374,2.94140627 c -0.0585938,0.0351563 -0.0820313,0.10546875 -0.0820313,0.1640625 0,0.070312505 0.0351563,0.070312505 0.140625,0.070312505 H 3.5264453 c 0.1289063,0 0.140625,0 0.1757813,-0.117187505 0.046875,-0.140625 0.3984375,-1.14843747 0.3984375,-1.19531247 0,-0.082031 -0.082031,-0.082031 -0.1054688,-0.082031 -0.082031,0 -0.09375,0.023437 -0.1171875,0.1054688 -0.2695312,0.76171872 -0.5625,1.05468747 -1.453125,1.05468747 h -1.078125 z m 0,0"
         style="fill:#000000;fill-opacity:1;fill-rule:nonzero;stroke:none" />
      <path
         id="path10"
         d="M 7.6280078,0.5329375 H 7.4170703 C 7.4053516,0.6266875 7.3584766,0.931375 7.2764453,0.98996875 7.2412891,1.0134062 6.8194141,1.0134062 6.7491016,1.0134062 h -0.984375 c 0.328125,-0.2460937 0.703125,-0.51562495 0.9960937,-0.7148437 0.4570313,-0.31640625 0.8671875,-0.59765625 0.8671875,-1.125 0,-0.6445313 -0.5976562,-0.9960938 -1.3125,-0.9960938 -0.6679687,0 -1.1601562,0.3867188 -1.1601562,0.8789063 0,0.2578125 0.2109375,0.3046875 0.28125,0.3046875 0.140625,0 0.2929687,-0.09375 0.2929687,-0.29296875 0,-0.18750005 -0.1289062,-0.28125005 -0.28125,-0.29296875 0.140625,-0.234375 0.4335938,-0.375 0.7617188,-0.375 0.4804687,0 0.890625,0.28125 0.890625,0.7734375 0,0.421875 -0.2929688,0.73828125 -0.6796875,1.0546875 L 5.2139453,1.2595 C 5.1670703,1.306375 5.1553513,1.306375 5.1553513,1.341531 V 1.493875 H 7.463945 Z m 0,0"
         style="fill:#000000;fill-opacity:1;fill-rule:nonzero;stroke:none" />
      <path
         id="path11"
         d="m 15.394609,-1.7580781 c 0,-0.1640625 -0.05859,-0.2109375 -0.09375,-0.2109375 -0.09375,0 -0.09375,0.1523437 -0.09375,0.234375 -0.02344,0.3867187 -0.351562,0.83203122 -0.855468,0.83203122 -0.386719,0 -0.691407,-0.25781252 -1.007813,-0.52734372 -0.316406,-0.28125 -0.632812,-0.5390625 -1.054687,-0.5390625 -0.667969,0 -1.042969,0.65625 -1.042969,1.23046872 0,0.1875 0.07031,0.2109375 0.105469,0.2109375 0.03516,0 0.08203,-0.0351563 0.09375,-0.1875 0.01172,-0.52734372 0.410156,-0.86718752 0.84375,-0.86718752 0.386718,0 0.65625,0.234375 1.066406,0.58593752 0.328125,0.26953125 0.621094,0.48046875 0.996094,0.48046875 0.65625,0 1.042968,-0.64453127 1.042968,-1.24218747 z m 0,0"
         style="fill:#000000;fill-opacity:1;fill-rule:nonzero;stroke:none" />
      <path
         id="path12"
         d="m 20.424883,-1.9221406 h 0.5625 c 0.105469,0 0.105469,0 0.128906,-0.023437 0.03516,-0.023437 0.04687,-0.082031 0.04687,-0.1171875 0,-0.082031 -0.08203,-0.082031 -0.164062,-0.082031 h -0.527344 c 0.05859,-0.375 0.152344,-1.0078125 0.222656,-1.078125 0.07031,-0.082031 0.152344,-0.1171875 0.234375,-0.1171875 0.03516,0 0.140625,0 0.246094,0.046875 -0.199219,0.09375 -0.199219,0.2695313 -0.199219,0.2929688 0,0.1171875 0.09375,0.1992187 0.222656,0.1992187 0.128907,0 0.304688,-0.1054687 0.304688,-0.328125 0,-0.2929687 -0.328125,-0.3867187 -0.5625,-0.3867187 -0.632813,0 -0.761719,0.609375 -0.808594,0.8203125 -0.04687,0.2109375 -0.01172,0.082031 -0.09375,0.5507812 h -0.457031 c -0.09375,0 -0.175781,0 -0.175781,0.140625 0,0.082031 0.08203,0.082031 0.164062,0.082031 h 0.433594 c -0.09375,0.4921875 -0.304688,1.87499997 -0.445313,2.40234372 -0.03516,0.1171875 -0.152343,0.375 -0.339843,0.375 -0.03516,0 -0.140625,-0.0117188 -0.234375,-0.0585938 0.140625,-0.0585938 0.199218,-0.17578125 0.199218,-0.28125 0,-0.12890625 -0.09375,-0.2109375 -0.222656,-0.2109375 -0.128906,0 -0.304687,0.1171875 -0.304687,0.328125 0,0.3046875 0.363281,0.38671868 0.550781,0.38671868 0.292969,0 0.515625,-0.22265618 0.621094,-0.38671868 0.199218,-0.26953125 0.316406,-0.9375 0.328125,-0.94921875 z m 4.051758,1.30957029 c 0,-0.60937499 -0.28125,-1.16015629 -0.820313,-1.16015629 -0.796875,0 -1.652344,1.25390629 -1.652344,2.41406254 0,0.67968746 0.316407,1.16015626 0.808594,1.16015626 0.808594,0 1.664063,-1.28906251 1.664063,-2.41406251 z m -1.875,0.515625 c 0.316406,-1.24218749 0.820312,-1.49999999 1.054687,-1.49999999 0.28125,0 0.398438,0.3164062 0.398438,0.70312499 0,0.15234375 -0.01172,0.3515625 -0.128907,0.796875 z m 1.265625,0.22265625 C 23.574297,1.3210234 23.070391,1.6257109 22.824297,1.6257109 c -0.375,0 -0.398438,-0.5507812 -0.398438,-0.70312496 0,-0.1875 0.03516,-0.421875 0.117188,-0.796875 z m 2.988281,-0.19628907 c 0,0.48046875 -0.257813,0.75 -0.398438,0.8671875 -0.04687,0.0351563 -0.05859,0.046875 -0.05859,0.0820313 0,0.0234375 0.04687,0.0820313 0.09375,0.0820313 0.05859,0 0.527343,-0.38671875 0.527343,-1.0078125 0,-0.33984375 -0.152343,-0.5625 -0.375,-0.5625 -0.1875,0 -0.304687,0.15234375 -0.304687,0.3046875 0,0.1640625 0.117187,0.304687505 0.304687,0.304687505 0.08203,0 0.152344,-0.023437505 0.210938,-0.070312505 z m 7.523437,-2.28515627 c 0,-0.609375 -0.28125,-1.1601562 -0.820312,-1.1601562 -0.796875,0 -1.652344,1.2539062 -1.652344,2.4140625 0,0.67968747 0.316406,1.16015622 0.808594,1.16015622 0.808594,0 1.664062,-1.28906252 1.664062,-2.41406252 z m -1.875,0.515625 c 0.316407,-1.2421875 0.820313,-1.5 1.054688,-1.5 0.28125,0 0.398437,0.3164063 0.398437,0.703125 0,0.1523438 -0.01172,0.3515625 -0.128906,0.796875 z m 1.265625,0.2226563 c -0.292968,1.19531247 -0.796875,1.49999997 -1.042968,1.49999997 -0.375,0 -0.398438,-0.55078125 -0.398438,-0.703125 0,-0.18749997 0.03516,-0.42187497 0.117188,-0.79687497 z m 0,0"
         style="fill:#000000;fill-opacity:1;fill-rule:nonzero;stroke:none" />
      <path
         id="path13"
         d="m 40.639727,-1.1018281 c 0.08203,0 0.210937,0 0.210937,-0.140625 0,-0.140625 -0.128906,-0.140625 -0.210937,-0.140625 h -2.601563 c 0.05859,-0.7148438 0.726563,-1.3359375 1.617188,-1.3359375 h 0.984375 c 0.08203,0 0.210937,0 0.210937,-0.140625 0,-0.1289063 -0.128906,-0.1289063 -0.210937,-0.1289063 h -0.996094 c -1.007813,0 -1.898438,0.7382813 -1.898438,1.7460938 0,1.00781247 0.890625,1.74609372 1.898438,1.74609372 h 0.996094 c 0.08203,0 0.210937,0 0.210937,-0.140625 0,-0.140625 -0.128906,-0.140625 -0.210937,-0.140625 h -0.984375 c -0.890625,0 -1.558594,-0.62109375 -1.617188,-1.32421872 z m 0,0"
         style="fill:#000000;fill-opacity:1;fill-rule:nonzero;stroke:none" />
      <path
         id="path14"
         d="m 48.321367,-1.6877656 c 0,-0.984375 -0.902344,-1.828125 -2.074219,-1.828125 -1.183593,0 -2.074218,0.8554687 -2.074218,1.828125 0,0.97265622 0.914062,1.79296872 2.074218,1.79296872 1.183594,0 2.074219,-0.83203125 2.074219,-1.79296872 z m -2.074219,1.62890622 c -0.785156,0 -1.523437,-0.5625 -1.523437,-1.62890622 0,-1.1015625 0.761719,-1.6640625 1.523437,-1.6640625 0.796875,0 1.535157,0.5742187 1.535157,1.6640625 0,1.08984372 -0.761719,1.62890622 -1.535157,1.62890622 z m 1.183594,-2.03906252 h -0.210937 v 0.1640625 h -1.945313 v -0.1640625 h -0.210937 v 0.7851563 h 0.210937 v -0.1640625 h 1.945313 v 0.1640625 h 0.210937 z m 0,0"
         style="fill:#000000;fill-opacity:1;fill-rule:nonzero;stroke:none" />
    </g>
    <path
       id="path15"
       d="m 1.9092578,-0.52859375 c 0,-0.29296875 -0.234375,-0.52734375 -0.5273437,-0.52734375 -0.28125,0 -0.52734379,0.234375 -0.52734379,0.52734375 0,0.29296875 0.24609379,0.52734375 0.52734379,0.52734375 0.2929687,0 0.5273437,-0.234375 0.5273437,-0.52734375 z m 2.7685547,0 c 0,-0.29296875 -0.234375,-0.52734375 -0.5273437,-0.52734375 -0.28125,0 -0.5273438,0.234375 -0.5273438,0.52734375 0,0.29296875 0.2460938,0.52734375 0.5273438,0.52734375 0.2929687,0 0.5273437,-0.234375 0.5273437,-0.52734375 z m 2.7685547,0 c 0,-0.29296875 -0.234375,-0.52734375 -0.5273438,-0.52734375 -0.28125,0 -0.5273437,0.234375 -0.5273437,0.52734375 0,0.29296875 0.2460937,0.52734375 0.5273437,0.52734375 0.2929688,0 0.5273438,-0.234375 0.5273438,-0.52734375 z m 0,0"
       style="fill:#000000;fill-opacity:1;fill-rule:nonzero;stroke:none"
       aria-label="..."
       transform="matrix(1.3333333,0,0,1.3333333,50.606667,17.126667)" />
    <path
       id="path16"
       d="M 0.19925,-7.74846 H 74.36099 V 7.74846 H 0.19925 Z"
       style="fill:none;stroke:#000000;stroke-width:0.3985;stroke-linecap:butt;stroke-linejoin:miter;stroke-miterlimit:10;stroke-dasharray:none;stroke-opacity:1"
       transform="matrix(1.3333333,0,0,-1.3333333,45.914667,16.426667)" />
    <g
       id="g16"
       aria-label="Z&#10;n&#10;∼f&#10;θ&#10;,θ∈Θ"
       transform="matrix(1.3333333,0,0,1.3333333,50.606667,19.746667)">
      <path
         id="path17"
         d="m 7.1709766,-6.5629297 c 0.011719,-0.046875 0.035156,-0.09375 0.035156,-0.1523437 0,-0.09375 -0.058594,-0.09375 -0.2578125,-0.09375 H 2.7530078 c -0.2460937,0 -0.2578125,0.011719 -0.3164062,0.1992187 l -0.5390625,1.7929688 c -0.023437,0.058594 -0.035156,0.1289062 -0.035156,0.140625 0,0.011719 0,0.1171875 0.1171875,0.1171875 0.09375,0 0.1171875,-0.070312 0.1289063,-0.1054688 0.3867187,-1.171875 0.9023437,-1.828125 2.4492187,-1.828125 h 1.6289063 l -5.56640629,6.22265626 c 0,0.0117188 -0.046875,0.15234375 -0.046875,0.17578125 0,0.0937500025 0.0703125,0.0937500025 0.2578125,0.0937500025 H 5.1553516 c 0.2460937,0 0.2578125,-0.0117187525 0.3164062,-0.1992187525 l 0.703125,-2.20312496 c 0.011719,-0.035156 0.035156,-0.1054688 0.035156,-0.1523438 0,-0.046875 -0.035156,-0.1054687 -0.1289063,-0.1054687 -0.082031,0 -0.09375,0.035156 -0.1640625,0.2460937 -0.4335937,1.359375 -0.9140625,2.07421876 -2.6132812,2.07421876 H 1.6045703 Z m 0,0"
         style="fill:#000000;fill-opacity:1;fill-rule:nonzero;stroke:none" />
      <path
         id="path18"
         d="m 7.6573047,1.0601172 c -0.035156,0.082031 -0.070312,0.2578125 -0.070312,0.28125 0,0.1523437 0.1171875,0.2226562 0.234375,0.2226562 0.1289062,0 0.234375,-0.09375 0.2695312,-0.1523437 0.035156,-0.058594 0.09375,-0.2929688 0.1289063,-0.43359376 0.035156,-0.12890625 0.1054687,-0.45703125 0.1523437,-0.6328125 0.035156,-0.15234375 0.082031,-0.3046875 0.1171875,-0.45703125 0.082031,-0.29296875 0.09375,-0.3515625 0.2929688,-0.6328125 0.1992187,-0.28124999 0.5273437,-0.64453129 1.0429687,-0.64453129 0.4101571,0 0.4101571,0.3632813 0.4101571,0.49218754 0,0.421875 -0.2929696,1.1953125 -0.4101571,1.48828125 -0.070312,0.1875 -0.1054687,0.2578125 -0.1054687,0.375 0,0.36328121 0.3046868,0.59765621 0.6679688,0.59765621 0.691407,0 1.007813,-0.96093746 1.007813,-1.06640621 0,-0.09375 -0.09375,-0.09375 -0.117188,-0.09375 -0.09375,0 -0.105468,0.046875 -0.128907,0.1171875 -0.164061,0.56250001 -0.46875,0.84375001 -0.738281,0.84375001 -0.152344,0 -0.175781,-0.09375 -0.175781,-0.2460938 0,-0.15234371 0.03516,-0.24609371 0.152343,-0.56249996 0.09375,-0.2109375 0.375,-0.94921875 0.375,-1.34765625 0,-0.66796879 -0.539062,-0.78515629 -0.9023428,-0.78515629 -0.5859375,0 -0.9726563,0.3515625 -1.1835938,0.63281254 -0.046875,-0.48046874 -0.4570312,-0.63281254 -0.75,-0.63281254 -0.2929687,0 -0.4570312,0.2109375 -0.5507812,0.375 -0.1523438,0.25781254 -0.2460938,0.65625004 -0.2460938,0.69140629 0,0.0820312 0.09375,0.0820312 0.1171875,0.0820312 0.09375,0 0.1054688,-0.0117188 0.1523438,-0.19921875 0.1054687,-0.42187494 0.234375,-0.76171874 0.515625,-0.76171874 0.1757812,0 0.2226562,0.1523438 0.2226562,0.3398438 0,0.14062494 -0.058594,0.39843744 -0.1054687,0.58593744 -0.046875,0.1875 -0.1171875,0.46875 -0.1523438,0.62109375 z m 0,0"
         style="fill:#000000;fill-opacity:1;fill-rule:nonzero;stroke:none" />
      <path
         id="path19"
         d="m 22.188555,-3.3285547 c 0,-0.2226562 -0.05859,-0.3164062 -0.140625,-0.3164062 -0.04687,0 -0.128907,0.070312 -0.140625,0.2578125 -0.03516,0.9609375 -0.703125,1.5 -1.394532,1.5 -0.632812,0 -1.101562,-0.421875 -1.59375,-0.8554688 -0.503906,-0.4570312 -1.03125,-0.9140625 -1.699218,-0.9140625 -1.089844,0 -1.675782,1.1015625 -1.675782,2.0039063 0,0.3164062 0.128907,0.3164062 0.140625,0.3164062 0.105469,0 0.140625,-0.1992187 0.140625,-0.2226562 0.03516,-1.1015625 0.785157,-1.5351563 1.394532,-1.5351563 0.621093,0 1.101562,0.421875 1.59375,0.8554688 0.503906,0.4570312 1.019531,0.9140625 1.699218,0.9140625 1.089844,0 1.675782,-1.1015625 1.675782,-2.0039063 z m 0,0"
         style="fill:#000000;fill-opacity:1;fill-rule:nonzero;stroke:none" />
      <path
         id="path20"
         d="m 29.164141,-3.9848047 h 0.855468 c 0.199219,0 0.304688,0 0.304688,-0.1992187 0,-0.1054688 -0.105469,-0.1054688 -0.269531,-0.1054688 h -0.832032 l 0.210938,-1.1367187 c 0.03516,-0.2109375 0.175781,-0.9140625 0.234375,-1.0429688 0.09375,-0.1875 0.257812,-0.3398437 0.46875,-0.3398437 0.04687,0 0.304687,0 0.492187,0.1875 -0.433593,0.035156 -0.539062,0.3867187 -0.539062,0.5390625 0,0.2226562 0.175781,0.3398437 0.363281,0.3398437 0.269531,0 0.550781,-0.2109375 0.550781,-0.5976562 0,-0.4570313 -0.457031,-0.6796875 -0.867187,-0.6796875 -0.339844,0 -0.960938,0.1757812 -1.265625,1.1601562 -0.05859,0.2109375 -0.08203,0.3164063 -0.328125,1.5703125 h -0.679688 c -0.199218,0 -0.304687,0 -0.304687,0.1875 0,0.1171875 0.09375,0.1171875 0.28125,0.1171875 h 0.65625 l -0.75,3.93750001 c -0.175781,0.9609375 -0.339844,1.87499999 -0.867188,1.87499999 -0.03516,0 -0.28125,0 -0.46875,-0.1875 0.457032,-0.023437 0.539063,-0.3867187 0.539063,-0.5390625 0,-0.22265624 -0.175781,-0.33984374 -0.363281,-0.33984374 -0.257813,0 -0.550782,0.2109375 -0.550782,0.59765624 0,0.4453125 0.433594,0.6796875 0.84375,0.6796875 0.550782,0 0.949219,-0.5859375 1.125,-0.9609375 0.328125,-0.63281249 0.550782,-1.83984374 0.5625,-1.91015624 z m 0,0"
         style="fill:#000000;fill-opacity:1;fill-rule:nonzero;stroke:none" />
      <path
         id="path21"
         d="m 33.94832,-1.9047266 c 0,-0.7265625 -0.28125,-1.5117187 -0.960937,-1.5117187 -1.042969,0 -2.167969,1.875 -2.167969,3.46874999 0,0.83203125 0.328125,1.51171871 0.972656,1.51171871 1.054688,0 2.15625,-1.89843746 2.15625,-3.46875 z m -2.332031,0.8554688 c 0.351563,-1.5117188 0.949219,-2.1679688 1.359375,-2.1679688 0.445313,0 0.445313,0.7734375 0.445313,0.9023438 0,0.2695312 -0.04687,0.6796875 -0.199219,1.265625 z m 1.546875,0.24609374 c -0.199219,0.76171875 -0.363281,1.13671875 -0.5625,1.4765625 -0.222656,0.36328126 -0.503906,0.69140626 -0.808594,0.69140626 -0.386718,0 -0.445312,-0.52734376 -0.445312,-0.90234376 0,-0.45703125 0.128906,-1.0078125 0.199219,-1.265625 z m 0,0"
         style="fill:#000000;fill-opacity:1;fill-rule:nonzero;stroke:none" />
      <path
         id="path22"
         d="m 36.919023,-0.01214844 c 0,-0.65625 -0.257812,-1.04296876 -0.644531,-1.04296876 -0.328125,0 -0.527344,0.24609376 -0.527344,0.52734376 0,0.26953125 0.199219,0.5273437525 0.527344,0.5273437525 0.117188,0 0.246094,-0.0351562525 0.351563,-0.1289062525 0.02344,-0.0234375 0.03516,-0.0351563 0.04687,-0.0351563 0.01172,0 0.02344,0.0117188 0.02344,0.15234375 0,0.73828125 -0.351562,1.33593749 -0.679687,1.66406249 -0.105469,0.1054688 -0.105469,0.1289063 -0.105469,0.1640625 0,0.070312 0.04687,0.1054688 0.09375,0.1054688 0.117187,0 0.914062,-0.7617187 0.914062,-1.93359379 z M 47.175859,-4.9808984 c 0,-0.65625 -0.1875,-2.0390625 -1.195312,-2.0390625 -1.382813,0 -2.917969,2.8007812 -2.917969,5.0859375 0,0.93749996 0.28125,2.03906246 1.195313,2.03906246 1.40625,0 2.917968,-2.85937496 2.917968,-5.08593746 z m -3.058593,1.359375 c 0.164062,-0.6328125 0.363281,-1.4296875 0.761718,-2.1328125 0.269532,-0.4921875 0.644532,-1.0546875 1.089844,-1.0546875 0.492188,0 0.550781,0.6445312 0.550781,1.2070312 0,0.4921875 -0.08203,0.9960938 -0.328125,1.9804688 z m 1.992187,0.328125 c -0.117187,0.4570312 -0.316406,1.3007812 -0.703125,2.015625 -0.339844,0.67968746 -0.726562,1.17187496 -1.148437,1.17187496 -0.328125,0 -0.539063,-0.29296875 -0.539063,-1.21874996 0,-0.421875 0.05859,-0.9960938 0.316406,-1.96875 z m 0,0"
         style="fill:#000000;fill-opacity:1;fill-rule:nonzero;stroke:none" />
      <path
         id="path23"
         d="m 55.824297,-2.2973047 c 0.164062,0 0.351562,0 0.351562,-0.1992187 0,-0.1992188 -0.1875,-0.1992188 -0.351562,-0.1992188 h -4.230469 c 0.128906,-1.3242187 1.265625,-2.2851562 2.671875,-2.2851562 h 1.558594 c 0.164062,0 0.351562,0 0.351562,-0.1992188 0,-0.1992187 -0.1875,-0.1992187 -0.351562,-0.1992187 h -1.570313 c -1.710937,0 -3.058593,1.2890625 -3.058593,2.8828125 0,1.59374996 1.347656,2.89453121 3.058593,2.89453121 h 1.570313 c 0.164062,0 0.351562,0 0.351562,-0.19921875 0,-0.1992187475 -0.1875,-0.1992187475 -0.351562,-0.1992187475 h -1.558594 c -1.40625,0 -2.542969,-0.9609375025 -2.671875,-2.2968750125 z m 0,0"
         style="fill:#000000;fill-opacity:1;fill-rule:nonzero;stroke:none" />
      <path
         id="path24"
         d="m 66.95418,-3.3754297 c 0,-2.0390625 -1.5,-3.6445312 -3.316407,-3.6445312 -1.78125,0 -3.304687,1.59375 -3.304687,3.6445312 0,2.0390625 1.535156,3.59765626 3.304687,3.59765626 1.816407,0 3.316407,-1.58203126 3.316407,-3.59765626 z m -3.304688,3.36328126 c -0.984375,0 -2.355469,-0.85546875 -2.355469,-3.36328126 0,-2.5664062 1.382813,-3.4335937 2.34375,-3.4335937 1.007813,0 2.34375,0.9140625 2.34375,3.4335937 0,2.54296876 -1.394531,3.36328126 -2.332031,3.36328126 z M 65.419023,-4.1254297 H 65.17293 v 0.3398438 h -3.058594 v -0.3398438 h -0.246094 v 1.4296875 h 0.246094 v -0.328125 h 3.058594 v 0.328125 h 0.246093 z m 0,0"
         style="fill:#000000;fill-opacity:1;fill-rule:nonzero;stroke:none" />
    </g>
    <g
       id="g24"
       aria-label="Z∼f&#10;θ&#10;,θ∈Θ,g(θ)"
       transform="matrix(1.3333333,0,0,1.3333333,4.428,9.408)">
      <path
         id="path25"
         d="m 4.4778281,-3.165375 c 0.046875,-0.046875 0.09375,-0.09375 0.09375,-0.1757813 0,-0.058594 -0.058594,-0.058594 -0.1523437,-0.058594 H 1.7707969 c -0.1289063,0 -0.140625,0 -0.1757813,0.1054687 l -0.28125,0.9023438 c -0.011719,0.023437 -0.023437,0.082031 -0.023437,0.09375 0,0.035156 0.011719,0.082031 0.1054688,0.082031 0.046875,0 0.082031,0 0.1054687,-0.070312 0.2578125,-0.7382812 0.703125,-0.890625 1.359375,-0.890625 h 1.0195313 l -3.15234377,2.9414063 c -0.0585938,0.0351563 -0.0820313,0.10546875 -0.0820313,0.1640625 0,0.0703125 0.0351563,0.0703125 0.140625,0.0703125 H 3.5286094 c 0.1289062,0 0.140625,0 0.1757812,-0.1171875 0.046875,-0.140625 0.3984375,-1.1484375 0.3984375,-1.1953125 0,-0.082031 -0.082031,-0.082031 -0.1054687,-0.082031 -0.082031,0 -0.09375,0.023437 -0.1171875,0.1054688 -0.2695313,0.76171875 -0.5625,1.0546875 -1.453125,1.0546875 h -1.078125 z m 0,0"
         style="fill:#000000;fill-opacity:1;fill-rule:nonzero;stroke:none" />
      <path
         id="path26"
         d="m 11.843063,-1.759125 c 0,-0.1640625 -0.05859,-0.2109375 -0.09375,-0.2109375 -0.09375,0 -0.09375,0.1523437 -0.09375,0.234375 -0.02344,0.3867187 -0.351563,0.83203125 -0.855469,0.83203125 -0.386719,0 -0.691406,-0.25781255 -1.0078127,-0.52734375 -0.3164063,-0.28125 -0.6328125,-0.5390625 -1.0546875,-0.5390625 -0.6679688,0 -1.0429688,0.65625 -1.0429688,1.23046875 0,0.1875 0.070312,0.2109375 0.1054688,0.2109375 0.035156,0 0.082031,-0.0351563 0.09375,-0.1875 C 7.9055625,-1.2435 8.304,-1.5833438 8.7375938,-1.5833438 c 0.3867187,0 0.65625,0.234375 1.0664062,0.58593755 0.328125,0.26953125 0.621094,0.48046875 0.996094,0.48046875 0.65625,0 1.042969,-0.6445313 1.042969,-1.2421875 z m 0,0"
         style="fill:#000000;fill-opacity:1;fill-rule:nonzero;stroke:none" />
      <path
         id="path27"
         d="m 16.873336,-1.9231875 h 0.5625 c 0.105469,0 0.105469,0 0.128906,-0.023437 0.03516,-0.023437 0.04687,-0.082031 0.04687,-0.1171875 0,-0.082031 -0.08203,-0.082031 -0.164062,-0.082031 h -0.527344 c 0.05859,-0.375 0.152344,-1.0078125 0.222656,-1.078125 0.07031,-0.082031 0.152344,-0.1171875 0.234375,-0.1171875 0.03516,0 0.140625,0 0.246094,0.046875 -0.199219,0.09375 -0.199219,0.2695313 -0.199219,0.2929688 0,0.1171875 0.09375,0.1992187 0.222656,0.1992187 0.128907,0 0.304688,-0.1054687 0.304688,-0.328125 0,-0.2929687 -0.328125,-0.3867187 -0.5625,-0.3867187 -0.632813,0 -0.761719,0.609375 -0.808594,0.8203125 -0.04687,0.2109375 -0.01172,0.082031 -0.09375,0.5507812 h -0.457031 c -0.09375,0 -0.175781,0 -0.175781,0.140625 0,0.082031 0.08203,0.082031 0.164062,0.082031 h 0.433594 c -0.09375,0.4921875 -0.304688,1.875 -0.445313,2.40234375 -0.03516,0.1171875 -0.152343,0.375 -0.339843,0.375 -0.03516,0 -0.140625,-0.0117188 -0.234375,-0.0585938 0.140625,-0.0585938 0.199218,-0.17578125 0.199218,-0.28125 0,-0.12890625 -0.09375,-0.2109375 -0.222656,-0.2109375 -0.128906,0 -0.304687,0.1171875 -0.304687,0.328125 0,0.3046875 0.363281,0.38671865 0.550781,0.38671865 0.292969,0 0.515625,-0.22265615 0.621094,-0.38671865 0.199218,-0.26953125 0.316406,-0.9375 0.328125,-0.94921875 z m 4.051758,1.3125 c 0,-0.609375 -0.28125,-1.1601563 -0.820313,-1.1601563 -0.796875,0 -1.652343,1.2539063 -1.652343,2.41406255 0,0.67968745 0.316406,1.16015625 0.808593,1.16015625 0.808594,0 1.664063,-1.2890625 1.664063,-2.4140625 z m -1.875,0.515625 c 0.316406,-1.2421875 0.820312,-1.5 1.054687,-1.5 0.28125,0 0.398438,0.3164062 0.398438,0.703125 0,0.15234375 -0.01172,0.3515625 -0.128906,0.796875 z m 1.265625,0.22265625 C 20.02275,1.3229062 19.518844,1.6275937 19.27275,1.6275937 c -0.375,0 -0.398437,-0.5507812 -0.398437,-0.70312495 0,-0.1875 0.03516,-0.421875 0.117187,-0.796875 z M 23.30693,-0.071625 c 0,0.48046875 -0.257813,0.75 -0.398438,0.8671875 -0.04687,0.0351563 -0.05859,0.046875 -0.05859,0.0820313 0,0.0234375 0.04687,0.0820313 0.09375,0.0820313 0.05859,0 0.527344,-0.38671875 0.527344,-1.0078125 0,-0.33984375 -0.152344,-0.5625 -0.375,-0.5625 -0.1875,0 -0.304687,0.15234375 -0.304687,0.3046875 0,0.1640625 0.117187,0.3046875 0.304687,0.3046875 0.08203,0 0.152344,-0.0234375 0.210938,-0.0703125 z m 7.523437,-2.2851563 c 0,-0.609375 -0.28125,-1.1601562 -0.820312,-1.1601562 -0.796875,0 -1.652344,1.2539062 -1.652344,2.4140625 0,0.6796875 0.316406,1.16015625 0.808594,1.16015625 0.808593,0 1.664062,-1.28906255 1.664062,-2.41406255 z m -1.875,0.515625 c 0.316406,-1.2421875 0.820313,-1.5 1.054688,-1.5 0.28125,0 0.398437,0.3164063 0.398437,0.703125 0,0.1523438 -0.01172,0.3515625 -0.128906,0.796875 z M 30.220992,-1.6185 c -0.292969,1.1953125 -0.796875,1.5 -1.042969,1.5 -0.375,0 -0.398437,-0.55078125 -0.398437,-0.703125 0,-0.1875 0.03516,-0.421875 0.117187,-0.796875 z m 0,0"
         style="fill:#000000;fill-opacity:1;fill-rule:nonzero;stroke:none" />
      <path
         id="path28"
         d="m 37.091109,-1.102875 c 0.08203,0 0.210938,0 0.210938,-0.140625 0,-0.140625 -0.128906,-0.140625 -0.210938,-0.140625 h -2.601562 c 0.05859,-0.7148438 0.726562,-1.3359375 1.617187,-1.3359375 h 0.984375 c 0.08203,0 0.210938,0 0.210938,-0.140625 0,-0.1289063 -0.128906,-0.1289063 -0.210938,-0.1289063 h -0.996093 c -1.007813,0 -1.898438,0.7382813 -1.898438,1.7460938 0,1.0078125 0.890625,1.74609375 1.898438,1.74609375 h 0.996093 c 0.08203,0 0.210938,0 0.210938,-0.140625 0,-0.140625 -0.128906,-0.140625 -0.210938,-0.140625 h -0.984375 c -0.890625,0 -1.558593,-0.62109375 -1.617187,-1.32421875 z m 0,0"
         style="fill:#000000;fill-opacity:1;fill-rule:nonzero;stroke:none" />
      <path
         id="path29"
         d="m 44.76982,-1.6888125 c 0,-0.984375 -0.902343,-1.828125 -2.074218,-1.828125 -1.183594,0 -2.074219,0.8554687 -2.074219,1.828125 0,0.97265625 0.914062,1.79296875 2.074219,1.79296875 1.183593,0 2.074218,-0.83203125 2.074218,-1.79296875 z m -2.074218,1.62890625 c -0.785157,0 -1.523438,-0.5625 -1.523438,-1.62890625 0,-1.1015625 0.761719,-1.6640625 1.523438,-1.6640625 0.796875,0 1.535156,0.5742187 1.535156,1.6640625 0,1.08984375 -0.761719,1.62890625 -1.535156,1.62890625 z m 1.183593,-2.03906255 h -0.210937 v 0.1640625 h -1.945313 v -0.1640625 h -0.210937 v 0.7851563 h 0.210937 V -1.477875 h 1.945313 v 0.1640625 h 0.210937 z m 2.589844,2.0273438 c 0,0.3515625 -0.140625,0.65625 -0.410156,0.87890625 -0.03516,0.0351563 -0.04687,0.0351563 -0.04687,0.0703125 0,0.046875 0.04687,0.0820313 0.08203,0.0820313 0.07031,0 0.539063,-0.38671875 0.539063,-1.0078125 0,-0.31640625 -0.128907,-0.5625 -0.375,-0.5625 -0.1875,0 -0.292969,0.15234375 -0.292969,0.3046875 0,0.15234375 0.105469,0.3046875 0.292969,0.3046875 0.128906,0 0.210937,-0.0703125 0.210937,-0.0703125 z m 0,0"
         style="fill:#000000;fill-opacity:1;fill-rule:nonzero;stroke:none" />
      <path
         id="path30"
         d="m 52.759078,-1.8177188 c 0.02344,-0.082031 0.02344,-0.09375 0.02344,-0.1054687 0,-0.09375 -0.07031,-0.1757813 -0.1875,-0.1757813 -0.09375,0 -0.210938,0.070312 -0.246094,0.1875 -0.164063,-0.2109375 -0.375,-0.2929687 -0.597656,-0.2929687 -0.679688,0 -1.382813,0.6445312 -1.382813,1.34765625 0,0.52734375 0.398438,0.85546875 0.867188,0.85546875 0.316406,0 0.585937,-0.17578125 0.703125,-0.26953125 -0.01172,0.046875 -0.09375,0.38671875 -0.117188,0.46875 -0.04687,0.1875 -0.08203,0.328125 -0.304687,0.4921875 -0.234375,0.1640625 -0.457032,0.1640625 -0.597657,0.1640625 -0.04687,0 -0.410156,-0.0117188 -0.410156,-0.0351563 l 0.02344,-0.0234375 c 0.08203,-0.0703125 0.117187,-0.1875 0.117187,-0.234375 0,-0.0820312 -0.07031,-0.19921875 -0.234375,-0.19921875 -0.152344,0 -0.304687,0.140625 -0.304687,0.328125 0,0.3281249 0.503906,0.3281249 0.808593,0.3281249 0.679688,0 1.195313,-0.22265615 1.3125,-0.71484365 z m -0.714844,1.1132813 c -0.01172,0.0703125 -0.02344,0.09375 -0.117187,0.19921875 -0.1875,0.17578125 -0.410156,0.33984375 -0.667969,0.33984375 -0.199219,0 -0.445312,-0.10546875 -0.445312,-0.50390625 0,-0.19921875 0.09375,-0.66796875 0.28125,-0.96093755 0.128906,-0.2109375 0.386718,-0.3984375 0.65625,-0.3984375 0.410156,0 0.515625,0.3867188 0.515625,0.4335938 0,0 0,0.035156 -0.01172,0.070312 z m 0,0"
         style="fill:#000000;fill-opacity:1;fill-rule:nonzero;stroke:none" />
      <path
         id="path31"
         d="m 55.480758,-3.6224063 c 0,0 0.02344,-0.023437 0.02344,-0.046875 0,-0.023437 -0.01172,-0.070312 -0.09375,-0.070312 -0.09375,0 -1.371093,0.796875 -1.371093,2.4960938 0,1.6875 1.277343,2.484375 1.371093,2.484375 0.08203,0 0.09375,-0.046875 0.09375,-0.070312 0,-0.035156 -0.02344,-0.046875 -0.04687,-0.058594 -0.878906,-0.70312495 -1.042968,-1.71093745 -1.042968,-2.3554687 0,-1.21875 0.574218,-2.0273438 1.066406,-2.3789063 z m 0,0"
         style="fill:#000000;fill-opacity:1;fill-rule:nonzero;stroke:none" />
      <path
         id="path32"
         d="m 58.996383,-2.3567813 c 0,-0.609375 -0.28125,-1.1601562 -0.820313,-1.1601562 -0.796875,0 -1.652343,1.2539062 -1.652343,2.4140625 0,0.6796875 0.316406,1.16015625 0.808593,1.16015625 0.808594,0 1.664063,-1.28906255 1.664063,-2.41406255 z m -1.875,0.515625 c 0.316406,-1.2421875 0.820312,-1.5 1.054687,-1.5 0.28125,0 0.398438,0.3164063 0.398438,0.703125 0,0.1523438 -0.01172,0.3515625 -0.128906,0.796875 z M 58.387008,-1.6185 c -0.292969,1.1953125 -0.796875,1.5 -1.042969,1.5 -0.375,0 -0.398437,-0.55078125 -0.398437,-0.703125 0,-0.1875 0.03516,-0.421875 0.117187,-0.796875 z m 0,0"
         style="fill:#000000;fill-opacity:1;fill-rule:nonzero;stroke:none" />
      <path
         id="path33"
         d="m 61.477828,-1.2435 c 0,-1.6875 -1.277344,-2.4960938 -1.382812,-2.4960938 -0.07031,0 -0.07031,0.058594 -0.07031,0.070312 0,0.011719 0,0.035156 0.02344,0.070312 0.75,0.5859375 1.042968,1.453125 1.042968,2.3554688 0,0.4453125 -0.08203,0.9140625 -0.246093,1.32421875 -0.246094,0.5625 -0.550782,0.84375 -0.796875,1.04296875 -0.01172,0 -0.02344,0.035156 -0.02344,0.046875 0,0.011719 0,0.070312 0.07031,0.070312 0.105468,0 1.382812,-0.796875 1.382812,-2.484375 z m 0,0"
         style="fill:#000000;fill-opacity:1;fill-rule:nonzero;stroke:none" />
    </g>
    <path
       id="path34"
       d="M 0,0 V 6.12119"
       style="fill:none;stroke:#000000;stroke-width:0.3985;stroke-linecap:butt;stroke-linejoin:miter;stroke-miterlimit:10;stroke-dasharray:none;stroke-opacity:1"
       transform="matrix(1.3333333,0,0,-1.3333333,45.914667,16.426667)" />
    <path
       id="path35"
       d="M 28.03381,0 0.61928,6.12119"
       style="fill:none;stroke:#000000;stroke-width:0.3985;stroke-linecap:butt;stroke-linejoin:miter;stroke-miterlimit:10;stroke-dasharray:none;stroke-opacity:1"
       transform="matrix(1.3333333,0,0,-1.3333333,45.914667,16.426667)" />
    <path
       id="path36"
       d="M 0,6.25957 V 6.2579"
       style="fill:none;stroke:#000000;stroke-width:0.3985;stroke-linecap:butt;stroke-linejoin:miter;stroke-miterlimit:10;stroke-dasharray:none;stroke-opacity:1"
       transform="matrix(1.3333333,0,0,-1.3333333,45.914667,16.426667)" />
    <path
       id="path37"
       d="M -7.87187,-12.62428 H 7.87187 V -0.19926 H -7.87187 Z"
       style="fill:none;stroke:#000000;stroke-width:0.3985;stroke-linecap:butt;stroke-linejoin:miter;stroke-miterlimit:10;stroke-dasharray:none;stroke-opacity:1"
       transform="matrix(1.3333333,0,0,-1.3333333,45.914667,16.426667)" />
    <g
       id="g37"
       aria-label="z&#10;1"
       transform="matrix(1.3333333,0,0,1.3333333,39.845333,26.838667)">
      <path
         id="path38"
         d="M 1.3230313,-0.83114844 C 1.8620938,-1.4053672 2.1550625,-1.6514609 2.506625,-1.9561484 c 0,-0.011719 0.6210938,-0.5390625 0.984375,-0.9023438 0.9375,-0.9257812 1.1601563,-1.40625 1.1601563,-1.4414062 0,-0.1054688 -0.09375,-0.1054688 -0.1054688,-0.1054688 -0.070312,0 -0.1054687,0.023437 -0.1523437,0.1171875 -0.3046875,0.46875 -0.5039063,0.6328125 -0.75,0.6328125 -0.234375,0 -0.3515625,-0.1523437 -0.5039063,-0.3164062 -0.1875,-0.234375 -0.3632812,-0.4335938 -0.6914062,-0.4335938 -0.75,0 -1.2070313,0.9257813 -1.2070313,1.1367188 0,0.046875 0.035156,0.1171875 0.1171875,0.1171875 0.09375,0 0.1171875,-0.058594 0.140625,-0.1171875 0.1875,-0.4570313 0.7617188,-0.46875 0.84375,-0.46875 0.2109375,0 0.3984375,0.070312 0.6210938,0.1523437 0.3984375,0.1523438 0.515625,0.1523438 0.7734375,0.1523438 -0.3632813,0.421875 -1.1953125,1.1367187 -1.3828125,1.3007812 L 1.4519375,-1.2998984 C 0.77225,-0.63192969 0.43240625,-0.05771094 0.43240625,0.01260156 c 0,0.09375 0.09375,0.09375 0.1171875,0.09375 0.0820313,0 0.09375,-0.01171875 0.15234375,-0.12890625 0.234375,-0.33984375 0.5273438,-0.609375 0.8554688,-0.609375 0.2226562,0 0.328125,0.0820313 0.5742187,0.375 0.1640625,0.2109375 0.3515625,0.36328125 0.6328125,0.36328125 0.984375,0 1.5703125,-1.26562496 1.5703125,-1.53515626 0,-0.046875 -0.046875,-0.09375 -0.1171875,-0.09375 -0.09375,0 -0.1171875,0.058594 -0.140625,0.1289063 -0.234375,0.64453121 -0.8671875,0.83203121 -1.1953125,0.83203121 -0.1992187,0 -0.3867187,-0.0585938 -0.5859375,-0.12890625 -0.3398437,-0.12890625 -0.4921875,-0.1640625 -0.703125,-0.1640625 -0.023437,0 -0.1757812,0 -0.2695312,0.0234375 z m 0,0"
         style="fill:#000000;fill-opacity:1;fill-rule:nonzero;stroke:none" />
      <path
         id="path39"
         d="m 6.9656094,-2.9346641 c 0,-0.1875 -0.011719,-0.1992187 -0.2109375,-0.1992187 -0.4453125,0.4335937 -1.078125,0.4453125 -1.359375,0.4453125 v 0.2460937 c 0.1640625,0 0.6210937,0 1.0078125,-0.1875 v 3.55078129 c 0,0.23437501 0,0.32812501 -0.6914063,0.32812501 H 5.4421719 v 0.2460937 c 0.1289062,-0.011719 0.984375,-0.023437 1.2421875,-0.023437 0.2109375,0 1.0898437,0.011719 1.2421875,0.023437 V 1.2489297 H 7.6687344 c -0.703125,0 -0.703125,-0.09375 -0.703125,-0.32812501 z m 0,0"
         style="fill:#000000;fill-opacity:1;fill-rule:nonzero;stroke:none" />
    </g>
    <path
       id="path40"
       d="M -7.87187,-12.62428 H 7.87187 V -0.19926 H -7.87187 Z"
       style="fill:none;stroke:#000000;stroke-width:0.3985;stroke-linecap:butt;stroke-linejoin:miter;stroke-miterlimit:10;stroke-dasharray:none;stroke-opacity:1"
       transform="matrix(1.3333333,0,0,-1.3333333,45.914667,16.426667)" />
    <g
       id="g40"
       aria-label="z&#10;2"
       transform="matrix(1.3333333,0,0,1.3333333,39.845333,26.838667)">
      <path
         id="path41"
         d="M 1.3230313,-0.83114844 C 1.8620938,-1.4053672 2.1550625,-1.6514609 2.506625,-1.9561484 c 0,-0.011719 0.6210938,-0.5390625 0.984375,-0.9023438 0.9375,-0.9257812 1.1601563,-1.40625 1.1601563,-1.4414062 0,-0.1054688 -0.09375,-0.1054688 -0.1054688,-0.1054688 -0.070312,0 -0.1054687,0.023437 -0.1523437,0.1171875 -0.3046875,0.46875 -0.5039063,0.6328125 -0.75,0.6328125 -0.234375,0 -0.3515625,-0.1523437 -0.5039063,-0.3164062 -0.1875,-0.234375 -0.3632812,-0.4335938 -0.6914062,-0.4335938 -0.75,0 -1.2070313,0.9257813 -1.2070313,1.1367188 0,0.046875 0.035156,0.1171875 0.1171875,0.1171875 0.09375,0 0.1171875,-0.058594 0.140625,-0.1171875 0.1875,-0.4570313 0.7617188,-0.46875 0.84375,-0.46875 0.2109375,0 0.3984375,0.070312 0.6210938,0.1523437 0.3984375,0.1523438 0.515625,0.1523438 0.7734375,0.1523438 -0.3632813,0.421875 -1.1953125,1.1367187 -1.3828125,1.3007812 L 1.4519375,-1.2998984 C 0.77225,-0.63192969 0.43240625,-0.05771094 0.43240625,0.01260156 c 0,0.09375 0.09375,0.09375 0.1171875,0.09375 0.0820313,0 0.09375,-0.01171875 0.15234375,-0.12890625 0.234375,-0.33984375 0.5273438,-0.609375 0.8554688,-0.609375 0.2226562,0 0.328125,0.0820313 0.5742187,0.375 0.1640625,0.2109375 0.3515625,0.36328125 0.6328125,0.36328125 0.984375,0 1.5703125,-1.26562496 1.5703125,-1.53515626 0,-0.046875 -0.046875,-0.09375 -0.1171875,-0.09375 -0.09375,0 -0.1171875,0.058594 -0.140625,0.1289063 -0.234375,0.64453121 -0.8671875,0.83203121 -1.1953125,0.83203121 -0.1992187,0 -0.3867187,-0.0585938 -0.5859375,-0.12890625 -0.3398437,-0.12890625 -0.4921875,-0.1640625 -0.703125,-0.1640625 -0.023437,0 -0.1757812,0 -0.2695312,0.0234375 z m 0,0"
         style="fill:#000000;fill-opacity:1;fill-rule:nonzero;stroke:none" />
      <path
         id="path42"
         d="m 8.1492031,0.22939844 h -0.234375 c -0.023437,0.15234375 -0.082031,0.5625 -0.1757812,0.6328125 -0.058594,0.0351563 -0.5976563,0.0351563 -0.6914063,0.0351563 H 5.7585781 c 0.7382813,-0.64453125 0.984375,-0.84375 1.3945313,-1.171875 0.515625,-0.41015625 0.9960937,-0.84374994 0.9960937,-1.50000004 0,-0.84375 -0.7382812,-1.359375 -1.6289062,-1.359375 -0.8671875,0 -1.453125,0.609375 -1.453125,1.2421875 0,0.3632813 0.3046875,0.3984375 0.375,0.3984375 0.1640625,0 0.375,-0.1171875 0.375,-0.375 0,-0.1289062 -0.058594,-0.3632813 -0.421875,-0.3632813 0.2226562,-0.5039062 0.6914062,-0.65625 1.0195312,-0.65625 0.703125,0 1.0664063,0.5507813 1.0664063,1.1132813 0,0.609375 -0.4335938,1.08984379 -0.65625,1.33593754 l -1.6875,1.66406246 c -0.070312,0.058594 -0.070312,0.070312 -0.070312,0.2695312 h 2.8828125 z m 0,0"
         style="fill:#000000;fill-opacity:1;fill-rule:nonzero;stroke:none" />
    </g>
    <path
       id="path43"
       d="m 1.9093359,-0.52869531 c 0,-0.29296875 -0.234375,-0.52734379 -0.5273437,-0.52734379 -0.28125,0 -0.52734376,0.23437504 -0.52734376,0.52734379 0,0.29296875 0.24609376,0.52734375 0.52734376,0.52734375 0.2929687,0 0.5273437,-0.234375 0.5273437,-0.52734375 z m 2.7685547,0 c 0,-0.29296875 -0.234375,-0.52734379 -0.5273437,-0.52734379 -0.28125,0 -0.5273438,0.23437504 -0.5273438,0.52734379 0,0.29296875 0.2460938,0.52734375 0.5273438,0.52734375 0.2929687,0 0.5273437,-0.234375 0.5273437,-0.52734375 z m 2.7685547,0 c 0,-0.29296875 -0.234375,-0.52734379 -0.5273437,-0.52734379 -0.28125,0 -0.5273438,0.23437504 -0.5273438,0.52734379 0,0.29296875 0.2460938,0.52734375 0.5273438,0.52734375 0.2929687,0 0.5273437,-0.234375 0.5273437,-0.52734375 z m 0,0"
       style="fill:#000000;fill-opacity:1;fill-rule:nonzero;stroke:none"
       aria-label="..."
       transform="matrix(1.3333333,0,0,1.3333333,40.38,22.521333)" />
    <path
       id="path44"
       d="M -8.34868,-12.62428 H 8.34868 V -0.19926 H -8.34868 Z"
       style="fill:none;stroke:#000000;stroke-width:0.3985;stroke-linecap:butt;stroke-linejoin:miter;stroke-miterlimit:10;stroke-dasharray:none;stroke-opacity:1"
       transform="matrix(1.3333333,0,0,-1.3333333,45.914667,16.426667)" />
    <g
       id="g44"
       aria-label="z&#10;n"
       transform="matrix(1.3333333,0,0,1.3333333,39.210667,26.838667)">
      <path
         id="path45"
         d="M 1.3244219,-0.83114844 C 1.8634844,-1.4053672 2.1564531,-1.6514609 2.5080156,-1.9561484 c 0,-0.011719 0.6210938,-0.5390625 0.984375,-0.9023438 0.9375,-0.9257812 1.1601563,-1.40625 1.1601563,-1.4414062 0,-0.1054688 -0.09375,-0.1054688 -0.1054688,-0.1054688 -0.070312,0 -0.1054687,0.023437 -0.1523437,0.1171875 -0.3046875,0.46875 -0.5039063,0.6328125 -0.75,0.6328125 -0.234375,0 -0.3515625,-0.1523437 -0.5039063,-0.3164062 -0.1875,-0.234375 -0.3632812,-0.4335938 -0.6914062,-0.4335938 -0.75,0 -1.2070313,0.9257813 -1.2070313,1.1367188 0,0.046875 0.035156,0.1171875 0.1171875,0.1171875 0.09375,0 0.1171875,-0.058594 0.140625,-0.1171875 0.1875,-0.4570313 0.7617188,-0.46875 0.84375,-0.46875 0.2109375,0 0.3984375,0.070312 0.6210938,0.1523437 0.3984375,0.1523438 0.515625,0.1523438 0.7734375,0.1523438 -0.3632813,0.421875 -1.1953125,1.1367187 -1.3828125,1.3007812 l -0.9023438,0.8320313 c -0.67968747,0.66796871 -1.01953122,1.24218746 -1.01953122,1.31249996 0,0.09375 0.09375,0.09375 0.1171875,0.09375 0.0820313,0 0.09375,-0.01171875 0.15234375,-0.12890625 0.234375,-0.33984375 0.52734377,-0.609375 0.85546877,-0.609375 0.2226562,0 0.328125,0.0820313 0.5742187,0.375 0.1640625,0.2109375 0.3515625,0.36328125 0.6328125,0.36328125 0.984375,0 1.5703125,-1.26562496 1.5703125,-1.53515626 0,-0.046875 -0.046875,-0.09375 -0.1171875,-0.09375 -0.09375,0 -0.1171875,0.058594 -0.140625,0.1289063 -0.234375,0.64453121 -0.8671875,0.83203121 -1.1953125,0.83203121 -0.1992187,0 -0.3867187,-0.0585938 -0.5859375,-0.12890625 -0.3398437,-0.12890625 -0.4921875,-0.1640625 -0.703125,-0.1640625 -0.023437,0 -0.1757812,0 -0.2695312,0.0234375 z m 0,0"
         style="fill:#000000;fill-opacity:1;fill-rule:nonzero;stroke:none" />
      <path
         id="path46"
         d="m 5.4875078,1.0614297 c -0.035156,0.082031 -0.070312,0.2578125 -0.070312,0.28125 0,0.1523437 0.1171875,0.2226562 0.234375,0.2226562 0.1289063,0 0.234375,-0.09375 0.2695313,-0.1523437 0.035156,-0.058594 0.09375,-0.2929688 0.1289062,-0.43359376 0.035156,-0.12890625 0.1054688,-0.45703125 0.1523438,-0.6328125 0.035156,-0.15234375 0.082031,-0.3046875 0.1171875,-0.45703125 0.082031,-0.29296875 0.09375,-0.3515625 0.2929687,-0.6328125 0.1992188,-0.28124999 0.5273438,-0.64453129 1.0429688,-0.64453129 0.4101562,0 0.4101562,0.3632813 0.4101562,0.49218754 0,0.421875 -0.2929687,1.1953125 -0.4101562,1.48828125 -0.070312,0.1875 -0.1054688,0.2578125 -0.1054688,0.375 0,0.36328121 0.3046875,0.59765621 0.6679688,0.59765621 0.6914062,0 1.0078125,-0.96093746 1.0078125,-1.06640621 0,-0.09375 -0.09375,-0.09375 -0.1171875,-0.09375 -0.09375,0 -0.1054688,0.046875 -0.1289063,0.1171875 -0.1640625,0.56250001 -0.46875,0.84375001 -0.7382812,0.84375001 -0.1523438,0 -0.1757813,-0.09375 -0.1757813,-0.2460938 0,-0.15234371 0.035156,-0.24609371 0.1523438,-0.56249996 0.09375,-0.2109375 0.375,-0.94921875 0.375,-1.34765625 0,-0.66796879 -0.5390625,-0.78515629 -0.9023438,-0.78515629 -0.5859375,0 -0.9726562,0.3515625 -1.1835937,0.63281254 -0.046875,-0.48046874 -0.4570313,-0.63281254 -0.75,-0.63281254 -0.2929688,0 -0.4570313,0.2109375 -0.5507813,0.375 -0.1523437,0.25781254 -0.2460937,0.65625004 -0.2460937,0.69140629 0,0.0820313 0.09375,0.0820313 0.1171875,0.0820313 0.09375,0 0.1054687,-0.0117188 0.1523437,-0.19921875 0.1054688,-0.42187494 0.234375,-0.76171874 0.515625,-0.76171874 0.1757813,0 0.2226563,0.1523438 0.2226563,0.3398438 0,0.14062494 -0.058594,0.39843744 -0.1054688,0.58593744 -0.046875,0.1875 -0.1171875,0.46875 -0.1523437,0.62109375 z m 0,0"
         style="fill:#000000;fill-opacity:1;fill-rule:nonzero;stroke:none" />
    </g>
    <path
       id="path47"
       d="M 0,0 V 0"
       style="fill:none;stroke:#000000;stroke-width:0.3985;stroke-linecap:butt;stroke-linejoin:miter;stroke-miterlimit:10;stroke-dasharray:none;stroke-opacity:1"
       transform="matrix(1.3333333,0,0,-1.3333333,45.914667,16.426667)" />
    <path
       id="path48"
       d="m 1.2671,-6.12119 6.80402,1.56241"
       style="fill:none;stroke:#000000;stroke-width:0.3985;stroke-linecap:butt;stroke-linejoin:miter;stroke-miterlimit:10;stroke-dasharray:none;stroke-opacity:1"
       transform="matrix(1.3333333,0,0,-1.3333333,45.914667,16.426667)" />
    <path
       id="path49"
       d="m 0,-6.41092 8.54793,1.46886"
       style="fill:none;stroke:#000000;stroke-width:0.3985;stroke-linecap:butt;stroke-linejoin:miter;stroke-miterlimit:10;stroke-dasharray:none;stroke-opacity:1"
       transform="matrix(1.3333333,0,0,-1.3333333,45.914667,16.426667)" />
    <path
       id="path50"
       d="m 4.3936328,-6.0345625 c -0.1054687,-0.234375 -0.234375,-0.234375 -0.3984375,-0.234375 -0.1640625,0 -0.2929687,0 -0.3867187,0.234375 l -2.2734375,5.390625 c -0.058594,0.140625 -0.058594,0.15234375 -0.28125,0.17578125 C 0.88972656,-0.44471875 0.72566406,-0.433 0.57332031,-0.433 h -0.1875 V 5.9375e-4 c 0.50390625,-0.0234375 0.62109379,-0.0234375 1.08984379,-0.0234375 0.3515625,0 0.6445312,0 1.1953125,0.0234375 V -0.433 c -0.2460938,0 -0.5507813,0 -0.796875,-0.10546875 L 2.3662891,-1.7220625 h 2.484375 L 5.3897266,-0.433 h -0.84375 V 5.9375e-4 c 0.3164062,-0.0234375 1.21875,-0.0234375 1.5820312,-0.0234375 0.375,0 1.1367188,0 1.4765625,0.0234375 V -0.433 H 6.7373828 Z m -0.7851562,1.359375 1.0546875,2.5195312 H 2.5537891 Z M 15.998125,-2.729875 c 0,-1.0664063 -0.644531,-1.3007813 -1.429687,-1.3007813 -0.9375,0 -1.394532,0.5625 -1.558594,0.84375 -0.199219,-0.8085937 -0.984375,-0.84375 -1.382813,-0.84375 -1.113281,0 -1.546875,0.8085938 -1.617187,0.9375 v -0.9375 L 8.45125,-3.9603438 V -3.52675 c 0.5390625,0 0.609375,0 0.609375,0.3515625 V -0.433 H 8.45125 V 5.9375e-4 c 0.6679688,-0.0234375 0.7734375,-0.0234375 1.1367188,-0.0234375 0.3632812,0 0.4570312,0 1.1367192,0.0234375 V -0.433 h -0.609375 v -1.8398438 c 0,-0.9960937 0.820312,-1.40625 1.359375,-1.40625 0.339843,0 0.527343,0.1875 0.527343,0.8671875 V -0.433 H 11.392656 V 5.9375e-4 c 0.667969,-0.0234375 0.773438,-0.0234375 1.136719,-0.0234375 0.363281,0 0.457031,0 1.136719,0.0234375 V -0.433 h -0.609375 v -1.8398438 c 0,-0.9960937 0.820312,-1.40625 1.359375,-1.40625 0.339844,0 0.527344,0.1875 0.527344,0.8671875 V -0.433 H 14.334063 V 5.9375e-4 c 0.667968,-0.0234375 0.773437,-0.0234375 1.125,-0.0234375 0.375,0 0.457031,0 1.148437,0.0234375 V -0.433 h -0.609375 z m 5.853516,0.7734375 c 0,-1.171875 -0.832032,-2.109375 -2.355469,-2.109375 -1.570313,0 -2.355469,0.984375 -2.355469,2.109375 0,1.11328125 0.808594,2.015625 2.355469,2.015625 1.605469,0 2.355469,-0.94921875 2.355469,-2.015625 z m -2.355469,1.62890625 c -1.160156,0 -1.160156,-0.94921875 -1.160156,-1.72265625 0,-0.75 0,-1.6523438 1.160156,-1.6523438 1.160156,0 1.160156,0.9023438 1.160156,1.6523438 0,0.7734375 0,1.72265625 -1.160156,1.72265625 z m 6.219726,-3.46875005 c 0,-0.1640625 0,-0.2695312 -0.1875,-0.2695312 -0.08203,0 -0.222656,0.082031 -0.386718,0.1640625 -0.292969,-0.1171875 -0.644532,-0.1640625 -0.9375,-0.1640625 -0.28125,0 -1.699219,0 -1.699219,1.1835937 0,0.9492188 1.171875,1.1484375 1.488281,1.1953125 0.738281,0.1289063 1.324219,0.2226563 1.324219,0.7382813 0,0.64453125 -0.84375,0.64453125 -1.042969,0.64453125 -0.457031,0 -1.03125,-0.1171875 -1.300781,-0.93750005 -0.03516,-0.1523437 -0.04687,-0.1875 -0.234375,-0.1875 -0.234375,0 -0.234375,0.058594 -0.234375,0.2695313 v 0.94921875 c 0,0.1640625 0,0.26953125 0.175781,0.26953125 0.05859,0 0.08203,0 0.28125,-0.12890625 l 0.246094,-0.15234375 c 0.410156,0.28125 0.890625,0.28125 1.066406,0.28125 0.269531,0 1.710938,0 1.710938,-1.3125 0,-0.4570313 -0.269532,-0.75 -0.421875,-0.8789063 -0.410157,-0.3398437 -0.691407,-0.3867187 -1.40625,-0.5039062 -0.421875,-0.070312 -0.996094,-0.1640625 -0.996094,-0.5625 0,-0.5390625 0.84375,-0.5390625 1.03125,-0.5390625 1.007812,0 1.042969,0.5273437 1.066406,0.7734375 0,0.1171875 0.128906,0.1171875 0.222656,0.1171875 0.222657,0 0.234375,-0.035156 0.234375,-0.2578125 z m 2.62793,0.2578125 h 1.347656 v -0.4453125 h -1.347656 v -1.7109375 h -0.457031 c -0.01172,0.84375 -0.433594,1.7695313 -1.347656,1.7929688 v 0.3632812 h 0.75 v 2.4375 c 0,1.0195313 0.890625,1.1601563 1.441406,1.1601563 0.703125,0 1.136719,-0.50390625 1.136719,-1.1601563 v -0.4804687 h -0.457032 v 0.4570312 c 0,0.63281255 -0.328125,0.79687505 -0.550781,0.79687505 -0.515625,0 -0.515625,-0.5390625 -0.515625,-0.76171875 z m 4.089844,1.5820313 c 0,-0.65625 0.246094,-1.6875 1.113281,-1.7226563 -0.09375,0.1054688 -0.140625,0.2578125 -0.140625,0.3984375 0,0.3984375 0.316406,0.5742188 0.5625,0.5742188 0.292969,0 0.574219,-0.1992188 0.574219,-0.5742188 0,-0.4570312 -0.46875,-0.75 -0.996094,-0.75 -0.621094,0 -1.007812,0.4570313 -1.207031,0.9726563 h -0.01172 v -0.9726563 l -1.5,0.070313 V -3.52675 c 0.539063,0 0.609375,0 0.609375,0.3515625 V -0.433 H 30.828203 V 5.9375e-4 c 0.667969,-0.0234375 0.726563,-0.0234375 1.148438,-0.0234375 0.222656,0 0.75,0 1.21875,0.0234375 V -0.433 h -0.761719 z m 6.744141,-0.7148438 c 0,-0.7851562 -0.644532,-1.3945312 -2.027344,-1.3945312 -0.503906,0 -1.652344,0.023437 -1.652344,0.84375 0,0.4101562 0.304688,0.5976562 0.585938,0.5976562 0.304687,0 0.574218,-0.2226562 0.574218,-0.5859375 0,-0.2578125 -0.152343,-0.4101562 -0.175781,-0.4335937 0.09375,-0.023437 0.304688,-0.058594 0.632813,-0.058594 0.644531,0 1.019531,0.328125 1.019531,1.03125 v 0.2929688 c -1.488281,0 -3,0.375 -3,1.3710937 0,0.89062505 1.125,1.0664063 1.769531,1.0664063 0.679688,0 1.148438,-0.3046875 1.394531,-0.7265625 0,0.234375 0,0.66796875 0.949219,0.66796875 h 0.445313 c 0.164062,0 0.292968,0 0.292968,-0.22265625 C 39.986406,-0.433 39.845781,-0.433 39.752031,-0.433 39.177813,-0.44471875 39.177813,-0.53846875 39.177813,-0.74940625 Z m -1.042969,1.4296875 c 0,0.93750005 -1.042969,0.93750005 -1.078125,0.93750005 -0.457031,0 -0.832031,-0.29296875 -0.832031,-0.70312505 0,-0.2929687 0.164062,-0.9960937 1.910156,-1.0664062 z m 10.40039,-0.7148437 c 0,-1.171875 -0.832031,-2.109375 -2.355468,-2.109375 -1.570313,0 -2.355469,0.984375 -2.355469,2.109375 0,1.11328125 0.808594,2.015625 2.355469,2.015625 1.605468,0 2.355468,-0.94921875 2.355468,-2.015625 z m -2.355468,1.62890625 c -1.160157,0 -1.160157,-0.94921875 -1.160157,-1.72265625 0,-0.75 0,-1.6523438 1.160157,-1.6523438 1.160156,0 1.160156,0.9023438 1.160156,1.6523438 0,0.7734375 0,1.72265625 -1.160156,1.72265625 z m 4.625976,-5.89453125 -1.605469,0.070312 v 0.4453125 c 0.539063,0 0.609375,0 0.609375,0.3515625 V 5.9375e-4 h 0.457032 l 0.421875,-0.515625 c 0.292968,0.29296875 0.726562,0.57421875 1.371093,0.57421875 1.394532,0 2.308594,-0.84375 2.308594,-2.0507813 0,-1.2070312 -0.867187,-2.0390625 -2.191406,-2.0390625 -0.726563,0 -1.195313,0.3046875 -1.371094,0.421875 z m 0.05859,3.1171875 c 0.222656,-0.28125 0.65625,-0.5742188 1.195312,-0.5742188 1.113282,0 1.113282,1.078125 1.113282,1.6757813 0,0.375 0,0.84375 -0.1875,1.16015625 -0.292969,0.50390625 -0.84375,0.5390625 -1.019532,0.5390625 -0.550781,0 -0.914062,-0.33984375 -1.101562,-0.6328125 z m 7.429687,-0.6914063 c 0,-0.1640625 0,-0.2695312 -0.1875,-0.2695312 -0.08203,0 -0.222656,0.082031 -0.386718,0.1640625 -0.292969,-0.1171875 -0.644532,-0.1640625 -0.9375,-0.1640625 -0.28125,0 -1.699219,0 -1.699219,1.1835937 0,0.9492188 1.171875,1.1484375 1.488281,1.1953125 0.738281,0.1289063 1.324219,0.2226563 1.324219,0.7382813 0,0.64453125 -0.84375,0.64453125 -1.042969,0.64453125 -0.457031,0 -1.03125,-0.1171875 -1.300781,-0.93750005 -0.03516,-0.1523437 -0.04687,-0.1875 -0.234375,-0.1875 -0.234375,0 -0.234375,0.058594 -0.234375,0.2695313 v 0.94921875 c 0,0.1640625 0,0.26953125 0.175781,0.26953125 0.05859,0 0.08203,0 0.28125,-0.12890625 l 0.246094,-0.15234375 c 0.410156,0.28125 0.890625,0.28125 1.066406,0.28125 0.269531,0 1.710938,0 1.710938,-1.3125 0,-0.4570313 -0.269532,-0.75 -0.421875,-0.8789063 -0.410157,-0.3398437 -0.691407,-0.3867187 -1.40625,-0.5039062 -0.421875,-0.070312 -0.996094,-0.1640625 -0.996094,-0.5625 0,-0.5390625 0.84375,-0.5390625 1.03125,-0.5390625 1.007812,0 1.042969,0.5273437 1.066406,0.7734375 0,0.1171875 0.128906,0.1171875 0.222656,0.1171875 0.222657,0 0.234375,-0.035156 0.234375,-0.2578125 z m 4.889649,1.875 c 0.1875,0 0.292969,0 0.292969,-0.2578125 0,-0.1992187 -0.01172,-0.984375 -0.597657,-1.4648437 -0.398437,-0.3398438 -0.9375,-0.421875 -1.382812,-0.421875 -1.523438,0 -2.285156,0.9726562 -2.285156,2.0507812 0,1.17187505 0.890625,2.0742188 2.414062,2.0742188 1.476563,0 1.851563,-0.94921875 1.851563,-1.1015625 0,-0.1757813 -0.175782,-0.1757813 -0.234375,-0.1757813 -0.152344,0 -0.175782,0.058594 -0.222657,0.1757813 -0.210937,0.46875 -0.761718,0.71484375 -1.324218,0.71484375 -1.265625,0 -1.289063,-1.16015625 -1.289063,-1.59375005 z m -2.777344,-0.328125 c 0.02344,-0.4101562 0.05859,-1.453125 1.089844,-1.453125 1.054687,0 1.089844,1.0898438 1.101562,1.453125 z m 5.34961,0.2929688 c 0,-0.65625 0.246093,-1.6875 1.113281,-1.7226563 -0.09375,0.1054688 -0.140625,0.2578125 -0.140625,0.3984375 0,0.3984375 0.316406,0.5742188 0.5625,0.5742188 0.292969,0 0.574219,-0.1992188 0.574219,-0.5742188 0,-0.4570312 -0.46875,-0.75 -0.996094,-0.75 -0.621094,0 -1.007813,0.4570313 -1.207031,0.9726563 h -0.01172 v -0.9726563 l -1.5,0.070313 V -3.52675 c 0.539062,0 0.609375,0 0.609375,0.3515625 V -0.433 h -0.60937 V 5.9375e-4 c 0.667969,-0.0234375 0.726562,-0.0234375 1.148437,-0.0234375 0.222657,0 0.75,0 1.21875,0.0234375 V -0.433 h -0.761718 z m 7.092773,-1.3945313 c 0.05859,-0.1289062 0.09375,-0.1875 0.65625,-0.1875 v -0.4453125 c -0.246094,0.035156 -0.480469,0.035156 -0.726563,0.035156 -0.257812,0 -0.550781,0 -0.808593,-0.035156 v 0.4453125 c 0.257812,0 0.328125,0.046875 0.410156,0.082031 0,0.035156 0,0.046875 -0.04687,0.1171875 l -1.078125,2.2382812 -1.171875,-2.4375 h 0.457031 v -0.4453125 c -0.585937,0.023437 -0.761719,0.035156 -1.101562,0.035156 -0.316407,0 -0.492188,0 -1.03125,-0.035156 v 0.4453125 h 0.574218 l 1.605469,3.32812505 c 0.07031,0.17578125 0.152344,0.2578125 0.375,0.2578125 0.222656,0 0.292969,-0.08203125 0.375,-0.2578125 z m 4.666992,0.6796875 c 0,-0.7851562 -0.644531,-1.3945312 -2.027344,-1.3945312 -0.503906,0 -1.652343,0.023437 -1.652343,0.84375 0,0.4101562 0.304687,0.5976562 0.585937,0.5976562 0.304688,0 0.574219,-0.2226562 0.574219,-0.5859375 0,-0.2578125 -0.152344,-0.4101562 -0.175781,-0.4335937 0.09375,-0.023437 0.304687,-0.058594 0.632812,-0.058594 0.644531,0 1.019531,0.328125 1.019531,1.03125 v 0.2929688 c -1.488281,0 -3,0.375 -3,1.3710937 0,0.89062505 1.125,1.0664063 1.769532,1.0664063 0.679687,0 1.148437,-0.3046875 1.394531,-0.7265625 0,0.234375 0,0.66796875 0.949219,0.66796875 h 0.445312 c 0.164063,0 0.292969,0 0.292969,-0.22265625 C 78.324297,-0.433 78.183672,-0.433 78.089922,-0.433 77.515703,-0.44471875 77.515703,-0.53846875 77.515703,-0.74940625 Z m -1.042969,1.4296875 c 0,0.93750005 -1.042968,0.93750005 -1.078125,0.93750005 -0.457031,0 -0.832031,-0.29296875 -0.832031,-0.70312505 0,-0.2929687 0.164063,-0.9960937 1.910156,-1.0664062 z M 81.640703,-6.15175 v 0.4453125 c 0.527344,0 0.609375,0 0.609375,0.3515625 v 1.7226562 c -0.398437,-0.28125 -0.820312,-0.3984375 -1.253906,-0.3984375 -1.453125,0 -2.308594,0.8789063 -2.308594,2.0390625 0,1.19531255 0.84375,2.0507813 2.203125,2.0507813 0.5625,0 1.007813,-0.22265625 1.300781,-0.45703125 V 0.0591875 L 83.843828,5.9375e-4 V -0.433 c -0.527344,0 -0.609375,0 -0.609375,-0.3515625 v -5.4375 z m 0.550781,5.1796875 c -0.199218,0.3046875 -0.632812,0.66796875 -1.207031,0.66796875 -1.101562,0 -1.101562,-1.07812505 -1.101562,-1.66406255 0,-0.5273437 0,-0.9140625 0.234375,-1.2421875 0.234375,-0.3515625 0.667968,-0.46875 0.984375,-0.46875 0.445312,0 0.808593,0.1992188 1.089843,0.5507813 z m 6.375,-1.6992188 c 0,-0.7851562 -0.644531,-1.3945312 -2.027343,-1.3945312 -0.503907,0 -1.652344,0.023437 -1.652344,0.84375 0,0.4101562 0.304687,0.5976562 0.585937,0.5976562 0.304688,0 0.574219,-0.2226562 0.574219,-0.5859375 0,-0.2578125 -0.152344,-0.4101562 -0.175781,-0.4335937 0.09375,-0.023437 0.304687,-0.058594 0.632812,-0.058594 0.644532,0 1.019532,0.328125 1.019532,1.03125 v 0.2929688 c -1.488282,0 -3,0.375 -3,1.3710937 0,0.89062505 1.125,1.0664063 1.769531,1.0664063 0.679687,0 1.148437,-0.3046875 1.394531,-0.7265625 0,0.234375 0,0.66796875 0.949219,0.66796875 h 0.445312 c 0.164063,0 0.292969,0 0.292969,-0.22265625 C 89.375078,-0.433 89.234453,-0.433 89.140703,-0.433 88.566484,-0.44471875 88.566484,-0.53846875 88.566484,-0.74940625 Z m -1.042968,1.4296875 c 0,0.93750005 -1.042969,0.93750005 -1.078125,0.93750005 -0.457032,0 -0.832032,-0.29296875 -0.832032,-0.70312505 0,-0.2929687 0.164063,-0.9960937 1.910157,-1.0664062 z m 0,0"
       style="fill:#000000;fill-opacity:1;fill-rule:nonzero;stroke:none"
       aria-label="Amostraobservada"
       transform="matrix(1.3333333,0,0,1.3333333,50.606667,20.577333)" />
    <path
       id="path51"
       d="m 6.8311328,-5.5082656 c 0.058594,-0.1171875 0.09375,-0.1992188 0.75,-0.1992188 h 0.1640625 v -0.4453125 c -0.4804687,0.035156 -0.6914062,0.035156 -1.0546875,0.035156 -0.4921875,0 -0.7148437,-0.011719 -1.1835937,-0.035156 v 0.4453125 c 0.234375,0 0.5507812,0 0.7851562,0.09375 L 4.3936328,-1.4301406 2.4483203,-5.7074844 h 0.8203125 v -0.4453125 c -0.3164062,0.035156 -1.2070312,0.035156 -1.5703125,0.035156 -0.3867187,0 -1.10156249,0 -1.45312499,-0.035156 v 0.4453125 H 1.0772266 l 2.5195312,5.54296877 c 0.1054688,0.24609375 0.234375,0.24609375 0.3984375,0.24609375 0.1757813,0 0.2929688,0 0.4101563,-0.24609375 z m 4.5527342,3.5859375 c 0.1875,0 0.292969,0 0.292969,-0.2578125 0,-0.1992188 -0.01172,-0.984375 -0.597656,-1.4648438 -0.398438,-0.3398437 -0.9375,-0.421875 -1.3828128,-0.421875 -1.5234375,0 -2.2851563,0.9726563 -2.2851563,2.0507813 0,1.17187497 0.890625,2.07421872 2.4140625,2.07421872 1.4765626,0 1.8515626,-0.94921875 1.8515626,-1.10156252 0,-0.1757812 -0.175781,-0.1757812 -0.234375,-0.1757812 -0.152344,0 -0.175781,0.058594 -0.222656,0.1757812 -0.210938,0.46875002 -0.761719,0.71484377 -1.3242191,0.71484377 -1.265625,0 -1.2890625,-1.16015627 -1.2890625,-1.59374997 z m -2.7773436,-0.328125 c 0.023437,-0.4101563 0.058594,-1.453125 1.0898438,-1.453125 1.0546878,0 1.0898438,1.0898437 1.1015628,1.453125 z m 5.3847656,-1.2890625 h 1.347656 v -0.4453125 h -1.347656 v -1.7109375 h -0.457031 c -0.01172,0.84375 -0.433594,1.7695312 -1.347656,1.7929687 v 0.3632813 h 0.75 v 2.4375 c 0,1.01953122 0.890625,1.16015622 1.441406,1.16015622 0.703125,0 1.136719,-0.50390625 1.136719,-1.16015622 v -0.4804688 h -0.457032 v 0.4570313 c 0,0.63281247 -0.328125,0.79687497 -0.550781,0.79687497 -0.515625,0 -0.515625,-0.5390625 -0.515625,-0.76171877 z m 7.125,1.5820312 c 0,-1.171875 -0.832031,-2.109375 -2.355469,-2.109375 -1.570312,0 -2.355468,0.984375 -2.355468,2.109375 0,1.11328127 0.808593,2.01562502 2.355468,2.01562502 1.605469,0 2.355469,-0.94921875 2.355469,-2.01562502 z m -2.355469,1.62890627 c -1.160156,0 -1.160156,-0.94921877 -1.160156,-1.72265627 0,-0.75 0,-1.6523437 1.160156,-1.6523437 1.160157,0 1.160157,0.9023437 1.160157,1.6523437 0,0.7734375 0,1.72265627 -1.160157,1.72265627 z m 4.625977,-1.62890627 c 0,-0.65625 0.246094,-1.6875 1.113281,-1.7226562 -0.09375,0.1054687 -0.140625,0.2578125 -0.140625,0.3984375 0,0.3984375 0.316406,0.5742187 0.5625,0.5742187 0.292969,0 0.574219,-0.1992187 0.574219,-0.5742187 0,-0.4570313 -0.46875,-0.75 -0.996094,-0.75 -0.621094,0 -1.007812,0.4570312 -1.207031,0.9726562 h -0.01172 v -0.9726562 l -1.5,0.070312 v 0.4335937 c 0.539063,0 0.609375,0 0.609375,0.3515625 v 2.74218752 h -0.609375 v 0.433593755 c 0.667969,-0.023437505 0.726563,-0.023437505 1.148438,-0.023437505 0.222656,0 0.75,0 1.21875,0.023437505 V -0.43404688 H 23.386797 Z M 33.67293,-2.6723281 c 0,-0.7851563 -0.644532,-1.3945313 -2.027344,-1.3945313 -0.503906,0 -1.652344,0.023437 -1.652344,0.84375 0,0.4101563 0.304688,0.5976563 0.585938,0.5976563 0.304687,0 0.574218,-0.2226563 0.574218,-0.5859375 0,-0.2578125 -0.152343,-0.4101563 -0.175781,-0.4335938 0.09375,-0.023437 0.304688,-0.058594 0.632813,-0.058594 0.644531,0 1.019531,0.328125 1.019531,1.03125 v 0.2929687 c -1.488281,0 -3,0.375 -3,1.3710938 0,0.89062497 1.125,1.06640622 1.769531,1.06640622 0.679688,0 1.148438,-0.3046875 1.394531,-0.7265625 0,0.234375 0,0.667968755 0.949219,0.667968755 h 0.445313 c 0.164062,0 0.292968,0 0.292968,-0.222656255 0,-0.2109375 -0.140625,-0.2109375 -0.234375,-0.2109375 -0.574218,-0.0117188 -0.574218,-0.10546875 -0.574218,-0.31640625 z m -1.042969,1.4296875 c 0,0.93749997 -1.042969,0.93749997 -1.078125,0.93749997 -0.457031,0 -0.832031,-0.29296875 -0.832031,-0.70312497 0,-0.2929688 0.164062,-0.9960938 1.910156,-1.0664063 z m 3.9375,-4.9804688 -1.605469,0.070312 v 0.4453125 c 0.539063,0 0.609375,0 0.609375,0.3515625 v 4.92187502 h -0.609375 v 0.433593755 c 0.609375,-0.023437505 0.714844,-0.023437505 1.101563,-0.023437505 0.398437,0 0.621093,0 1.113281,0.023437505 V -0.43404688 h -0.609375 z m 5.138672,4.3007813 c 0.1875,0 0.292969,0 0.292969,-0.2578125 0,-0.1992188 -0.01172,-0.984375 -0.597657,-1.4648438 -0.398437,-0.3398437 -0.9375,-0.421875 -1.382812,-0.421875 -1.523438,0 -2.285156,0.9726563 -2.285156,2.0507813 0,1.17187497 0.890625,2.07421872 2.414062,2.07421872 1.476563,0 1.851563,-0.94921875 1.851563,-1.10156252 0,-0.1757812 -0.175782,-0.1757812 -0.234375,-0.1757812 -0.152344,0 -0.175782,0.058594 -0.222657,0.1757812 -0.210937,0.46875002 -0.761718,0.71484377 -1.324218,0.71484377 -1.265625,0 -1.289063,-1.16015627 -1.289063,-1.59374997 z m -2.777344,-0.328125 c 0.02344,-0.4101563 0.05859,-1.453125 1.089844,-1.453125 1.054687,0 1.089844,1.0898437 1.101562,1.453125 z m 7.716797,-0.421875 c 0,-0.7851563 -0.644531,-1.3945313 -2.027344,-1.3945313 -0.503906,0 -1.652344,0.023437 -1.652344,0.84375 0,0.4101563 0.304688,0.5976563 0.585938,0.5976563 0.304687,0 0.574219,-0.2226563 0.574219,-0.5859375 0,-0.2578125 -0.152344,-0.4101563 -0.175782,-0.4335938 0.09375,-0.023437 0.304688,-0.058594 0.632813,-0.058594 0.644531,0 1.019531,0.328125 1.019531,1.03125 v 0.2929687 c -1.488281,0 -3,0.375 -3,1.3710938 0,0.89062497 1.125,1.06640622 1.769531,1.06640622 0.679688,0 1.148438,-0.3046875 1.394532,-0.7265625 0,0.234375 0,0.667968755 0.949218,0.667968755 h 0.445313 c 0.164062,0 0.292969,0 0.292969,-0.222656255 0,-0.2109375 -0.140625,-0.2109375 -0.234375,-0.2109375 -0.574219,-0.0117188 -0.574219,-0.10546875 -0.574219,-0.31640625 z m -1.042969,1.4296875 c 0,0.93749997 -1.042969,0.93749997 -1.078125,0.93749997 -0.457031,0 -0.832031,-0.29296875 -0.832031,-0.70312497 0,-0.2929688 0.164062,-0.9960938 1.910156,-1.0664063 z m 3.870117,-2.296875 h 1.347657 v -0.4453125 h -1.347657 v -1.7109375 h -0.457031 c -0.01172,0.84375 -0.433594,1.7695312 -1.347656,1.7929687 v 0.3632813 h 0.75 v 2.4375 c 0,1.01953122 0.890625,1.16015622 1.441406,1.16015622 0.703125,0 1.136719,-0.50390625 1.136719,-1.16015622 v -0.4804688 h -0.457031 v 0.4570313 c 0,0.63281247 -0.328125,0.79687497 -0.550782,0.79687497 -0.515625,0 -0.515625,-0.5390625 -0.515625,-0.76171877 z m 6,-1.7226563 c 0.128907,-0.058594 0.339844,-0.1757812 0.339844,-0.4804687 0,-0.3046875 -0.269531,-0.5742188 -0.539062,-0.5742188 -0.222657,0 -0.304688,0.1054688 -0.5625,0.3867188 -0.199219,0.2226562 -0.703125,0.796875 -0.925782,1.0195312 l 0.28125,0.3632813 z m 1.122071,3.3046875 c 0,-1.171875 -0.832032,-2.109375 -2.355469,-2.109375 -1.570313,0 -2.355469,0.984375 -2.355469,2.109375 0,1.11328127 0.808594,2.01562502 2.355469,2.01562502 1.605469,0 2.355469,-0.94921875 2.355469,-2.01562502 z m -2.355469,1.62890627 c -1.160156,0 -1.160156,-0.94921877 -1.160156,-1.72265627 0,-0.75 0,-1.6523437 1.160156,-1.6523437 1.160156,0 1.160156,0.9023437 1.160156,1.6523437 0,0.7734375 0,1.72265627 -1.160156,1.72265627 z m 4.625977,-1.62890627 c 0,-0.65625 0.246093,-1.6875 1.113281,-1.7226562 -0.09375,0.1054687 -0.140625,0.2578125 -0.140625,0.3984375 0,0.3984375 0.316406,0.5742187 0.5625,0.5742187 0.292969,0 0.574219,-0.1992187 0.574219,-0.5742187 0,-0.4570313 -0.46875,-0.75 -0.996094,-0.75 -0.621094,0 -1.007813,0.4570312 -1.207031,0.9726562 h -0.01172 v -0.9726562 l -1.5,0.070312 v 0.4335937 c 0.539062,0 0.609375,0 0.609375,0.3515625 v 2.74218752 h -0.609375 v 0.433593755 c 0.667969,-0.023437505 0.726562,-0.023437505 1.148437,-0.023437505 0.222657,0 0.75,0 1.21875,0.023437505 V -0.43404688 h -0.761718 z m 4.564453,-3.5625 c 0,-0.46875 -0.386719,-0.7148437 -0.703125,-0.7148437 -0.410157,0 -0.714844,0.3515625 -0.714844,0.703125 0,0.375 0.316406,0.703125 0.714844,0.703125 0.339843,0 0.703125,-0.2695313 0.703125,-0.6914063 z m -1.664063,1.5585938 v 0.4335937 c 0.515625,0 0.585938,0 0.585938,0.3515625 v 2.74218752 h -0.609375 v 0.433593755 c 0.597656,-0.023437505 0.714843,-0.023437505 1.089843,-0.023437505 0.445313,0 0.5625,0 1.054688,0.023437505 V -0.43404688 H 63.347734 V -4.0317031 Z m 7.458985,2.0039062 c 0,-1.171875 -0.832032,-2.109375 -2.355469,-2.109375 -1.570313,0 -2.355469,0.984375 -2.355469,2.109375 0,1.11328127 0.808594,2.01562502 2.355469,2.01562502 1.605469,0 2.355469,-0.94921875 2.355469,-2.01562502 z m -2.355469,1.62890627 c -1.160156,0 -1.160156,-0.94921877 -1.160156,-1.72265627 0,-0.75 0,-1.6523437 1.160156,-1.6523437 1.160156,0 1.160156,0.9023437 1.160156,1.6523437 0,0.7734375 0,1.72265627 -1.160156,1.72265627 z m 8.827148,1.62890623 h -0.609375 v -1.65234373 c 0.527344,0.41015625 1.019531,0.41015625 1.195313,0.41015625 1.40625,0 2.308593,-0.85546875 2.308593,-2.05078122 0,-1.1835938 -0.820312,-2.0390625 -2.167968,-2.0390625 -0.726563,0 -1.21875,0.3046875 -1.394532,0.421875 v -0.421875 l -1.605468,0.070312 v 0.4335937 c 0.1875,0 0.328125,0 0.445312,0.035156 0.164063,0.023437 0.164063,0.1171875 0.164063,0.3046875 v 4.488282 H 73.42293 v 0.4335938 c 0.667968,-0.023437 0.773437,-0.023437 1.136718,-0.023437 0.363282,0 0.457032,0 1.136719,0.023437 z m -0.609375,-4.3945312 c 0.164063,-0.1992188 0.585938,-0.5507813 1.195313,-0.5507813 0.621093,0 1.113281,0.5507813 1.113281,1.640625 0,1.25390627 -0.632813,1.69921877 -1.230469,1.69921877 -0.457031,0 -0.832031,-0.2578125 -1.078125,-0.6328125 z m 9.166992,1.1367187 c 0,-1.171875 -0.832031,-2.109375 -2.355468,-2.109375 -1.570313,0 -2.355469,0.984375 -2.355469,2.109375 0,1.11328127 0.808594,2.01562502 2.355469,2.01562502 1.605468,0 2.355468,-0.94921875 2.355468,-2.01562502 z m -2.355468,1.62890627 c -1.160157,0 -1.160157,-0.94921877 -1.160157,-1.72265627 0,-0.75 0,-1.6523437 1.160157,-1.6523437 1.160156,0 1.160156,0.9023437 1.160156,1.6523437 0,0.7734375 0,1.72265627 -1.160156,1.72265627 z m 5.293945,1.62890623 h -0.609375 v -1.65234373 c 0.527344,0.41015625 1.019531,0.41015625 1.195312,0.41015625 1.40625,0 2.308594,-0.85546875 2.308594,-2.05078122 0,-1.1835938 -0.820312,-2.0390625 -2.167969,-2.0390625 -0.726562,0 -1.21875,0.3046875 -1.394531,0.421875 v -0.421875 l -1.605469,0.070312 v 0.4335937 c 0.1875,0 0.328125,0 0.445313,0.035156 0.164062,0.023437 0.164062,0.1171875 0.164062,0.3046875 v 4.4882812 h -0.609375 v 0.4335938 c 0.667969,-0.023437 0.773438,-0.023437 1.136719,-0.023437 0.363281,0 0.457031,0 1.136719,0.023437 z m -0.609375,-4.3945312 c 0.164062,-0.1992188 0.585937,-0.5507813 1.195312,-0.5507813 0.621094,0 1.113282,0.5507813 1.113282,1.640625 0,1.25390627 -0.632813,1.69921877 -1.230469,1.69921877 -0.457031,0 -0.832031,-0.2578125 -1.078125,-0.6328125 z m 7.242187,-0.8671875 v 0.4335937 c 0.539063,0 0.609375,0 0.609375,0.3515625 v 1.7109375 c 0,0.71484377 -0.457031,1.16015627 -1.148437,1.16015627 -0.691406,0 -0.726563,-0.19921875 -0.726563,-0.66796875 V -4.0317031 l -1.664062,0.070312 v 0.4335937 c 0.539062,0 0.609375,0 0.609375,0.3515625 v 2.0742188 c 0,0.97265622 0.773437,1.16015622 1.640625,1.16015622 0.28125,0 0.890625,0 1.347656,-0.6796875 v 0.6796875 L 96.098711,-4.53125e-4 V -0.43404688 c -0.539063,0 -0.609375,0 -0.609375,-0.3515625 V -4.0317031 Z m 4.59375,-2.2617188 -1.605468,0.070312 v 0.4453125 c 0.539062,0 0.609375,0 0.609375,0.3515625 v 4.92187502 h -0.609375 v 0.433593755 c 0.609375,-0.023437505 0.714843,-0.023437505 1.101562,-0.023437505 0.398438,0 0.621094,0 1.113281,0.023437505 V -0.43404688 h -0.609375 z m 5.208987,3.5507813 c 0,-0.7851563 -0.64453,-1.3945313 -2.02735,-1.3945313 -0.5039,0 -1.65234,0.023437 -1.65234,0.84375 0,0.4101563 0.30469,0.5976563 0.58594,0.5976563 0.30469,0 0.57422,-0.2226563 0.57422,-0.5859375 0,-0.2578125 -0.15235,-0.4101563 -0.17578,-0.4335938 0.0937,-0.023437 0.30468,-0.058594 0.63281,-0.058594 0.64453,0 1.01953,0.328125 1.01953,1.03125 v 0.2929687 c -1.48828,0 -3.000001,0.375 -3.000001,1.3710938 0,0.89062497 1.125001,1.06640622 1.769531,1.06640622 0.67969,0 1.14844,-0.3046875 1.39453,-0.7265625 0,0.234375 0,0.667968755 0.94922,0.667968755 h 0.44531 c 0.16407,0 0.29297,0 0.29297,-0.222656255 0,-0.2109375 -0.14062,-0.2109375 -0.23437,-0.2109375 -0.57422,-0.0117188 -0.57422,-0.10546875 -0.57422,-0.31640625 z m -1.04297,1.4296875 c 0,0.93749997 -1.04297,0.93749997 -1.07813,0.93749997 -0.45703,0 -0.83203,-0.29296875 -0.83203,-0.70312497 0,-0.2929688 0.16407,-0.9960938 1.91016,-1.0664063 z m 6.26953,0.1992187 c 0,-0.140625 -0.12891,-0.140625 -0.23437,-0.140625 -0.17579,0 -0.17579,0.011719 -0.2461,0.1757813 -0.17578,0.42187497 -0.58594,0.67968747 -1.11328,0.67968747 -1.26562,0 -1.26562,-1.28906247 -1.26562,-1.69921877 0,-0.5390625 0,-1.6523437 1.18359,-1.6523437 0.0586,0 0.53906,0.011719 0.53906,0.058594 0,0.011719 -0.0117,0.035156 -0.0234,0.046875 -0.082,0.09375 -0.11718,0.234375 -0.11718,0.3632813 0,0.3632812 0.28125,0.5859375 0.58593,0.5859375 0.26954,0 0.57422,-0.1875 0.57422,-0.5976563 0,-0.84375 -1.2539,-0.84375 -1.60547,-0.84375 -1.71093,0 -2.33203,1.1015625 -2.33203,2.0742188 0,1.13671872 0.8086,2.05078122 2.29688,2.05078122 0.32812,0 0.76172,-0.058593745 1.14844,-0.29296875 0.5039,-0.31640625 0.60937,-0.77343747 0.60937,-0.80859377 z m 2.4668,-4.4765625 c 0,-0.46875 -0.38672,-0.7148437 -0.70313,-0.7148437 -0.41015,0 -0.71484,0.3515625 -0.71484,0.703125 0,0.375 0.3164,0.703125 0.71484,0.703125 0.33985,0 0.70313,-0.2695313 0.70313,-0.6914063 z m -1.66407,1.5585938 v 0.4335937 c 0.51563,0 0.58594,0 0.58594,0.3515625 v 2.74218752 h -0.60937 v 0.433593755 c 0.59765,-0.023437505 0.71484,-0.023437505 1.08984,-0.023437505 0.44531,0 0.5625,0 1.05469,0.023437505 V -0.43404688 h -0.53906 V -4.0317031 Z m 7.45899,2.0039062 c 0,-1.171875 -0.83203,-2.109375 -2.35547,-2.109375 -1.57031,0 -2.35547,0.984375 -2.35547,2.109375 0,1.11328127 0.8086,2.01562502 2.35547,2.01562502 1.60547,0 2.35547,-0.94921875 2.35547,-2.01562502 z m -2.35547,1.62890627 c -1.16016,0 -1.16016,-0.94921877 -1.16016,-1.72265627 0,-0.75 0,-1.6523437 1.16016,-1.6523437 1.16016,0 1.16016,0.9023437 1.16016,1.6523437 0,0.7734375 0,1.72265627 -1.16016,1.72265627 z m 7.69629,-2.40234377 c 0,-1.0664062 -0.64453,-1.3007812 -1.42969,-1.3007812 -1.10156,0 -1.53515,0.8085937 -1.60547,0.9375 v -0.9375 l -1.55859,0.070312 v 0.4335937 c 0.53906,0 0.60937,0 0.60937,0.3515625 v 2.74218752 h -0.60937 v 0.433593755 c 0.66797,-0.023437505 0.77344,-0.023437505 1.13672,-0.023437505 0.36328,0 0.45703,0 1.13672,0.023437505 V -0.43404688 h -0.60938 V -2.2738906 c 0,-1.0078125 0.82031,-1.40625 1.35938,-1.40625 0.33984,0 0.51562,0.1875 0.51562,0.8671875 v 2.37890622 h -0.60937 v 0.433593755 c 0.66797,-0.023437505 0.77343,-0.023437505 1.13672,-0.023437505 0.36328,0 0.45703,0 1.13671,0.023437505 V -0.43404688 h -0.60937 z m 5.19141,0.058594 c 0,-0.7851563 -0.64454,-1.3945313 -2.02735,-1.3945313 -0.5039,0 -1.65234,0.023437 -1.65234,0.84375 0,0.4101563 0.30469,0.5976563 0.58594,0.5976563 0.30468,0 0.57421,-0.2226563 0.57421,-0.5859375 0,-0.2578125 -0.15234,-0.4101563 -0.17578,-0.4335938 0.0937,-0.023437 0.30469,-0.058594 0.63282,-0.058594 0.64453,0 1.01953,0.328125 1.01953,1.03125 v 0.2929687 c -1.48828,0 -3,0.375 -3,1.3710938 0,0.89062497 1.125,1.06640622 1.76953,1.06640622 0.67969,0 1.14844,-0.3046875 1.39453,-0.7265625 0,0.234375 0,0.667968755 0.94922,0.667968755 h 0.44531 c 0.16406,0 0.29297,0 0.29297,-0.222656255 0,-0.2109375 -0.14063,-0.2109375 -0.23438,-0.2109375 -0.57421,-0.0117188 -0.57421,-0.10546875 -0.57421,-0.31640625 z m -1.04297,1.4296875 c 0,0.93749997 -1.04297,0.93749997 -1.07813,0.93749997 -0.45703,0 -0.83203,-0.29296875 -0.83203,-0.70312497 0,-0.2929688 0.16406,-0.9960938 1.91016,-1.0664063 z m 3.9375,-4.9804688 -1.60547,0.070312 v 0.4453125 c 0.53906,0 0.60937,0 0.60937,0.3515625 v 4.92187502 h -0.60937 v 0.433593755 c 0.60937,-0.023437505 0.71484,-0.023437505 1.10156,-0.023437505 0.39844,0 0.62109,0 1.11328,0.023437505 V -0.43404688 h -0.60937 z m 0,0"
       style="fill:#000000;fill-opacity:1;fill-rule:nonzero;stroke:none"
       aria-label="Vetoraleat´oriopopulacional"
       transform="matrix(1.3333333,0,0,1.3333333,50.606667,19.414667)" />
    <path
       id="path52"
       d="m 4.3936328,-6.0345625 c -0.1054687,-0.234375 -0.234375,-0.234375 -0.3984375,-0.234375 -0.1640625,0 -0.2929687,0 -0.3867187,0.234375 l -2.2734375,5.390625 c -0.058594,0.140625 -0.058594,0.15234375 -0.28125,0.17578125 C 0.88972656,-0.44471875 0.72566406,-0.433 0.57332031,-0.433 h -0.1875 V 5.9375e-4 c 0.50390625,-0.0234375 0.62109379,-0.0234375 1.08984379,-0.0234375 0.3515625,0 0.6445312,0 1.1953125,0.0234375 V -0.433 c -0.2460938,0 -0.5507813,0 -0.796875,-0.10546875 L 2.3662891,-1.7220625 h 2.484375 L 5.3897266,-0.433 h -0.84375 V 5.9375e-4 c 0.3164062,-0.0234375 1.21875,-0.0234375 1.5820312,-0.0234375 0.375,0 1.1367188,0 1.4765625,0.0234375 V -0.433 H 6.7373828 Z m -0.7851562,1.359375 1.0546875,2.5195312 H 2.5537891 Z M 15.998125,-2.729875 c 0,-1.0664063 -0.644531,-1.3007813 -1.429687,-1.3007813 -0.9375,0 -1.394532,0.5625 -1.558594,0.84375 -0.199219,-0.8085937 -0.984375,-0.84375 -1.382813,-0.84375 -1.113281,0 -1.546875,0.8085938 -1.617187,0.9375 v -0.9375 L 8.45125,-3.9603438 V -3.52675 c 0.5390625,0 0.609375,0 0.609375,0.3515625 V -0.433 H 8.45125 V 5.9375e-4 c 0.6679688,-0.0234375 0.7734375,-0.0234375 1.1367188,-0.0234375 0.3632812,0 0.4570312,0 1.1367192,0.0234375 V -0.433 h -0.609375 v -1.8398438 c 0,-0.9960937 0.820312,-1.40625 1.359375,-1.40625 0.339843,0 0.527343,0.1875 0.527343,0.8671875 V -0.433 H 11.392656 V 5.9375e-4 c 0.667969,-0.0234375 0.773438,-0.0234375 1.136719,-0.0234375 0.363281,0 0.457031,0 1.136719,0.0234375 V -0.433 h -0.609375 v -1.8398438 c 0,-0.9960937 0.820312,-1.40625 1.359375,-1.40625 0.339844,0 0.527344,0.1875 0.527344,0.8671875 V -0.433 H 14.334063 V 5.9375e-4 c 0.667968,-0.0234375 0.773437,-0.0234375 1.125,-0.0234375 0.375,0 0.457031,0 1.148437,0.0234375 V -0.433 h -0.609375 z m 5.853516,0.7734375 c 0,-1.171875 -0.832032,-2.109375 -2.355469,-2.109375 -1.570313,0 -2.355469,0.984375 -2.355469,2.109375 0,1.11328125 0.808594,2.015625 2.355469,2.015625 1.605469,0 2.355469,-0.94921875 2.355469,-2.015625 z m -2.355469,1.62890625 c -1.160156,0 -1.160156,-0.94921875 -1.160156,-1.72265625 0,-0.75 0,-1.6523438 1.160156,-1.6523438 1.160156,0 1.160156,0.9023438 1.160156,1.6523438 0,0.7734375 0,1.72265625 -1.160156,1.72265625 z m 6.219726,-3.46875005 c 0,-0.1640625 0,-0.2695312 -0.1875,-0.2695312 -0.08203,0 -0.222656,0.082031 -0.386718,0.1640625 -0.292969,-0.1171875 -0.644532,-0.1640625 -0.9375,-0.1640625 -0.28125,0 -1.699219,0 -1.699219,1.1835937 0,0.9492188 1.171875,1.1484375 1.488281,1.1953125 0.738281,0.1289063 1.324219,0.2226563 1.324219,0.7382813 0,0.64453125 -0.84375,0.64453125 -1.042969,0.64453125 -0.457031,0 -1.03125,-0.1171875 -1.300781,-0.93750005 -0.03516,-0.1523437 -0.04687,-0.1875 -0.234375,-0.1875 -0.234375,0 -0.234375,0.058594 -0.234375,0.2695313 v 0.94921875 c 0,0.1640625 0,0.26953125 0.175781,0.26953125 0.05859,0 0.08203,0 0.28125,-0.12890625 l 0.246094,-0.15234375 c 0.410156,0.28125 0.890625,0.28125 1.066406,0.28125 0.269531,0 1.710938,0 1.710938,-1.3125 0,-0.4570313 -0.269532,-0.75 -0.421875,-0.8789063 -0.410157,-0.3398437 -0.691407,-0.3867187 -1.40625,-0.5039062 -0.421875,-0.070312 -0.996094,-0.1640625 -0.996094,-0.5625 0,-0.5390625 0.84375,-0.5390625 1.03125,-0.5390625 1.007812,0 1.042969,0.5273437 1.066406,0.7734375 0,0.1171875 0.128906,0.1171875 0.222656,0.1171875 0.222657,0 0.234375,-0.035156 0.234375,-0.2578125 z m 2.62793,0.2578125 h 1.347656 v -0.4453125 h -1.347656 v -1.7109375 h -0.457031 c -0.01172,0.84375 -0.433594,1.7695313 -1.347656,1.7929688 v 0.3632812 h 0.75 v 2.4375 c 0,1.0195313 0.890625,1.1601563 1.441406,1.1601563 0.703125,0 1.136719,-0.50390625 1.136719,-1.1601563 v -0.4804687 h -0.457032 v 0.4570312 c 0,0.63281255 -0.328125,0.79687505 -0.550781,0.79687505 -0.515625,0 -0.515625,-0.5390625 -0.515625,-0.76171875 z m 4.089844,1.5820313 c 0,-0.65625 0.246094,-1.6875 1.113281,-1.7226563 -0.09375,0.1054688 -0.140625,0.2578125 -0.140625,0.3984375 0,0.3984375 0.316406,0.5742188 0.5625,0.5742188 0.292969,0 0.574219,-0.1992188 0.574219,-0.5742188 0,-0.4570312 -0.46875,-0.75 -0.996094,-0.75 -0.621094,0 -1.007812,0.4570313 -1.207031,0.9726563 h -0.01172 v -0.9726563 l -1.5,0.070313 V -3.52675 c 0.539063,0 0.609375,0 0.609375,0.3515625 V -0.433 H 30.828203 V 5.9375e-4 c 0.667969,-0.0234375 0.726563,-0.0234375 1.148438,-0.0234375 0.222656,0 0.75,0 1.21875,0.0234375 V -0.433 h -0.761719 z m 6.744141,-0.7148438 c 0,-0.7851562 -0.644532,-1.3945312 -2.027344,-1.3945312 -0.503906,0 -1.652344,0.023437 -1.652344,0.84375 0,0.4101562 0.304688,0.5976562 0.585938,0.5976562 0.304687,0 0.574218,-0.2226562 0.574218,-0.5859375 0,-0.2578125 -0.152343,-0.4101562 -0.175781,-0.4335937 0.09375,-0.023437 0.304688,-0.058594 0.632813,-0.058594 0.644531,0 1.019531,0.328125 1.019531,1.03125 v 0.2929688 c -1.488281,0 -3,0.375 -3,1.3710937 0,0.89062505 1.125,1.0664063 1.769531,1.0664063 0.679688,0 1.148438,-0.3046875 1.394531,-0.7265625 0,0.234375 0,0.66796875 0.949219,0.66796875 h 0.445313 c 0.164062,0 0.292968,0 0.292968,-0.22265625 C 39.986406,-0.433 39.845781,-0.433 39.752031,-0.433 39.177813,-0.44471875 39.177813,-0.53846875 39.177813,-0.74940625 Z m -1.042969,1.4296875 c 0,0.93750005 -1.042969,0.93750005 -1.078125,0.93750005 -0.457031,0 -0.832031,-0.29296875 -0.832031,-0.70312505 0,-0.2929687 0.164062,-0.9960937 1.910156,-1.0664062 z m 9.732422,-1.4296875 c 0,-0.7851562 -0.644532,-1.3945312 -2.027344,-1.3945312 -0.503906,0 -1.652344,0.023437 -1.652344,0.84375 0,0.4101562 0.304688,0.5976562 0.585938,0.5976562 0.304687,0 0.574218,-0.2226562 0.574218,-0.5859375 0,-0.2578125 -0.152343,-0.4101562 -0.175781,-0.4335937 0.09375,-0.023437 0.304688,-0.058594 0.632813,-0.058594 0.644531,0 1.019531,0.328125 1.019531,1.03125 v 0.2929688 c -1.488281,0 -3,0.375 -3,1.3710937 0,0.89062505 1.125,1.0664063 1.769531,1.0664063 0.679688,0 1.148438,-0.3046875 1.394531,-0.7265625 0,0.234375 0,0.66796875 0.949219,0.66796875 h 0.445313 c 0.164062,0 0.292968,0 0.292968,-0.22265625 C 48.675859,-0.433 48.535234,-0.433 48.441484,-0.433 47.867266,-0.44471875 47.867266,-0.53846875 47.867266,-0.74940625 Z m -1.042969,1.4296875 c 0,0.93750005 -1.042969,0.93750005 -1.078125,0.93750005 -0.457031,0 -0.832031,-0.29296875 -0.832031,-0.70312505 0,-0.2929687 0.164062,-0.9960937 1.910156,-1.0664062 z m 3.94043,-4.9804687 -1.605469,0.070312 v 0.4453125 c 0.539062,0 0.609375,0 0.609375,0.3515625 V -0.433 H 49.159258 V 5.9375e-4 c 0.609375,-0.0234375 0.714844,-0.0234375 1.101562,-0.0234375 0.398438,0 0.621094,0 1.113282,0.0234375 V -0.433 h -0.609375 z m 5.138671,4.3007812 c 0.1875,0 0.292969,0 0.292969,-0.2578125 0,-0.1992187 -0.01172,-0.984375 -0.597656,-1.4648437 -0.398438,-0.3398438 -0.9375,-0.421875 -1.382813,-0.421875 -1.523437,0 -2.285156,0.9726562 -2.285156,2.0507812 0,1.17187505 0.890625,2.0742188 2.414063,2.0742188 1.476562,0 1.851562,-0.94921875 1.851562,-1.1015625 0,-0.1757813 -0.175781,-0.1757813 -0.234375,-0.1757813 -0.152344,0 -0.175781,0.058594 -0.222656,0.1757813 -0.210938,0.46875 -0.761719,0.71484375 -1.324219,0.71484375 -1.265625,0 -1.289062,-1.16015625 -1.289062,-1.59375005 z m -2.777343,-0.328125 c 0.02344,-0.4101562 0.05859,-1.453125 1.089843,-1.453125 1.054688,0 1.089844,1.0898438 1.101563,1.453125 z m 7.713867,-0.421875 c 0,-0.7851562 -0.644531,-1.3945312 -2.027344,-1.3945312 -0.503906,0 -1.652344,0.023437 -1.652344,0.84375 0,0.4101562 0.304688,0.5976562 0.585938,0.5976562 0.304687,0 0.574219,-0.2226562 0.574219,-0.5859375 0,-0.2578125 -0.152344,-0.4101562 -0.175782,-0.4335937 0.09375,-0.023437 0.304688,-0.058594 0.632813,-0.058594 0.644531,0 1.019531,0.328125 1.019531,1.03125 v 0.2929688 c -1.488281,0 -3,0.375 -3,1.3710937 0,0.89062505 1.125,1.0664063 1.769531,1.0664063 0.679688,0 1.148438,-0.3046875 1.394532,-0.7265625 0,0.234375 0,0.66796875 0.949218,0.66796875 h 0.445313 c 0.164062,0 0.292969,0 0.292969,-0.22265625 C 61.648516,-0.433 61.507891,-0.433 61.414141,-0.433 60.839922,-0.44471875 60.839922,-0.53846875 60.839922,-0.74940625 Z m -1.042969,1.4296875 c 0,0.93750005 -1.042969,0.93750005 -1.078125,0.93750005 -0.457031,0 -0.832031,-0.29296875 -0.832031,-0.70312505 0,-0.2929687 0.164062,-0.9960937 1.910156,-1.0664062 z m 3.870117,-2.296875 h 1.347657 V -3.9837813 H 63.66707 v -1.7109375 h -0.457031 c -0.01172,0.84375 -0.433594,1.7695313 -1.347656,1.7929688 v 0.3632812 h 0.75 v 2.4375 c 0,1.0195313 0.890625,1.1601563 1.441406,1.1601563 0.703125,0 1.136719,-0.50390625 1.136719,-1.1601563 v -0.4804687 h -0.457031 v 0.4570312 c 0,0.63281255 -0.328125,0.79687505 -0.550782,0.79687505 -0.515625,0 -0.515625,-0.5390625 -0.515625,-0.76171875 z m 6,-1.7226562 c 0.128907,-0.058594 0.339844,-0.1757813 0.339844,-0.4804688 0,-0.3046875 -0.269531,-0.5742187 -0.539062,-0.5742187 -0.222657,0 -0.304688,0.1054687 -0.5625,0.3867187 -0.199219,0.2226563 -0.703125,0.796875 -0.925782,1.0195313 l 0.28125,0.3632812 z m 1.13086,3.3046875 c 0,-1.171875 -0.832032,-2.109375 -2.355469,-2.109375 -1.570313,0 -2.355469,0.984375 -2.355469,2.109375 0,1.11328125 0.808594,2.015625 2.355469,2.015625 1.605469,0 2.355469,-0.94921875 2.355469,-2.015625 z m -2.355469,1.62890625 c -1.160156,0 -1.160156,-0.94921875 -1.160156,-1.72265625 0,-0.75 0,-1.6523438 1.160156,-1.6523438 1.160156,0 1.160156,0.9023438 1.160156,1.6523438 0,0.7734375 0,1.72265625 -1.160156,1.72265625 z m 4.625977,-1.62890625 c 0,-0.65625 0.246093,-1.6875 1.113281,-1.7226563 -0.09375,0.1054688 -0.140625,0.2578125 -0.140625,0.3984375 0,0.3984375 0.316406,0.5742188 0.5625,0.5742188 0.292969,0 0.574219,-0.1992188 0.574219,-0.5742188 0,-0.4570312 -0.46875,-0.75 -0.996094,-0.75 -0.621094,0 -1.007813,0.4570313 -1.207031,0.9726563 h -0.01172 v -0.9726563 l -1.5,0.070313 V -3.52675 c 0.539062,0 0.609375,0 0.609375,0.3515625 V -0.433 H 71.462969 V 5.9375e-4 c 0.667969,-0.0234375 0.726562,-0.0234375 1.148437,-0.0234375 0.222657,0 0.75,0 1.21875,0.0234375 V -0.433 h -0.761718 z m 4.564453,-3.5625 c 0,-0.46875 -0.386719,-0.7148438 -0.703125,-0.7148438 -0.410157,0 -0.714844,0.3515625 -0.714844,0.703125 0,0.375 0.316406,0.703125 0.714844,0.703125 0.339843,0 0.703125,-0.2695312 0.703125,-0.6914062 z m -1.664063,1.5585937 V -3.52675 c 0.515625,0 0.585938,0 0.585938,0.3515625 V -0.433 H 75.945391 V 5.9375e-4 c 0.597656,-0.0234375 0.714843,-0.0234375 1.089843,-0.0234375 0.445313,0 0.5625,0 1.054688,0.0234375 V -0.433 h -0.539063 v -3.5976563 z m 6.791016,1.2890625 c 0,-0.7851562 -0.644531,-1.3945312 -2.027344,-1.3945312 -0.503906,0 -1.652344,0.023437 -1.652344,0.84375 0,0.4101562 0.304688,0.5976562 0.585938,0.5976562 0.304687,0 0.574219,-0.2226562 0.574219,-0.5859375 0,-0.2578125 -0.152344,-0.4101562 -0.175782,-0.4335937 0.09375,-0.023437 0.304688,-0.058594 0.632813,-0.058594 0.644531,0 1.019531,0.328125 1.019531,1.03125 v 0.2929688 c -1.488281,0 -3,0.375 -3,1.3710937 0,0.89062505 1.125,1.0664063 1.769531,1.0664063 0.679688,0 1.148438,-0.3046875 1.394532,-0.7265625 0,0.234375 0,0.66796875 0.949218,0.66796875 h 0.445313 c 0.164062,0 0.292969,0 0.292969,-0.22265625 C 83.568438,-0.433 83.427813,-0.433 83.334063,-0.433 82.759844,-0.44471875 82.759844,-0.53846875 82.759844,-0.74940625 Z m -1.042969,1.4296875 c 0,0.93750005 -1.042969,0.93750005 -1.078125,0.93750005 -0.457031,0 -0.832031,-0.29296875 -0.832031,-0.70312505 0,-0.2929687 0.164062,-0.9960937 1.910156,-1.0664062 z m 0,0"
       style="fill:#000000;fill-opacity:1;fill-rule:nonzero;stroke:none"
       aria-label="Amostraaleat´oria"
       transform="matrix(1.3333333,0,0,1.3333333,50.606667,20.577333)" />
  </g>
</svg>
