<?xml version="1.0" encoding="utf-8"?>
<svg xmlns="http://www.w3.org/2000/svg" xmlns:xlink="http://www.w3.org/1999/xlink" width="672" height="480" viewBox="0 0 2688 1920">
<defs>
  <clipPath id="clip580">
    <rect x="0" y="0" width="2688" height="1920"/>
  </clipPath>
</defs>
<path clip-path="url(#clip580)" d="M0 1920 L2688 1920 L2688 0 L0 0  Z" fill="#ffffff" fill-rule="evenodd" fill-opacity="1"/>
<defs>
  <clipPath id="clip581">
    <rect x="537" y="0" width="1883" height="1883"/>
  </clipPath>
</defs>
<path clip-path="url(#clip580)" d="M126.77 1791.36 L2640.76 1791.36 L2640.76 122.38 L126.77 122.38  Z" fill="#ffffff" fill-rule="evenodd" fill-opacity="1"/>
<defs>
  <clipPath id="clip582">
    <rect x="126" y="122" width="2515" height="1670"/>
  </clipPath>
</defs>
<polyline clip-path="url(#clip582)" style="stroke:#000000; stroke-linecap:round; stroke-linejoin:round; stroke-width:2; stroke-opacity:0.1; fill:none" points="268.293,1791.36 268.293,122.38 "/>
<polyline clip-path="url(#clip582)" style="stroke:#000000; stroke-linecap:round; stroke-linejoin:round; stroke-width:2; stroke-opacity:0.1; fill:none" points="887.998,1791.36 887.998,122.38 "/>
<polyline clip-path="url(#clip582)" style="stroke:#000000; stroke-linecap:round; stroke-linejoin:round; stroke-width:2; stroke-opacity:0.1; fill:none" points="1507.7,1791.36 1507.7,122.38 "/>
<polyline clip-path="url(#clip582)" style="stroke:#000000; stroke-linecap:round; stroke-linejoin:round; stroke-width:2; stroke-opacity:0.1; fill:none" points="2127.41,1791.36 2127.41,122.38 "/>
<polyline clip-path="url(#clip582)" style="stroke:#000000; stroke-linecap:round; stroke-linejoin:round; stroke-width:2; stroke-opacity:0.1; fill:none" points="126.77,1791.36 2640.76,1791.36 "/>
<polyline clip-path="url(#clip582)" style="stroke:#000000; stroke-linecap:round; stroke-linejoin:round; stroke-width:2; stroke-opacity:0.1; fill:none" points="126.77,1374.53 2640.76,1374.53 "/>
<polyline clip-path="url(#clip582)" style="stroke:#000000; stroke-linecap:round; stroke-linejoin:round; stroke-width:2; stroke-opacity:0.1; fill:none" points="126.77,957.703 2640.76,957.703 "/>
<polyline clip-path="url(#clip582)" style="stroke:#000000; stroke-linecap:round; stroke-linejoin:round; stroke-width:2; stroke-opacity:0.1; fill:none" points="126.77,540.875 2640.76,540.875 "/>
<polyline clip-path="url(#clip582)" style="stroke:#000000; stroke-linecap:round; stroke-linejoin:round; stroke-width:2; stroke-opacity:0.1; fill:none" points="126.77,124.047 2640.76,124.047 "/>
<polyline clip-path="url(#clip580)" style="stroke:#000000; stroke-linecap:round; stroke-linejoin:round; stroke-width:4; stroke-opacity:1; fill:none" points="126.77,1791.36 2640.76,1791.36 "/>
<polyline clip-path="url(#clip580)" style="stroke:#000000; stroke-linecap:round; stroke-linejoin:round; stroke-width:4; stroke-opacity:1; fill:none" points="268.293,1791.36 268.293,1772.46 "/>
<polyline clip-path="url(#clip580)" style="stroke:#000000; stroke-linecap:round; stroke-linejoin:round; stroke-width:4; stroke-opacity:1; fill:none" points="887.998,1791.36 887.998,1772.46 "/>
<polyline clip-path="url(#clip580)" style="stroke:#000000; stroke-linecap:round; stroke-linejoin:round; stroke-width:4; stroke-opacity:1; fill:none" points="1507.7,1791.36 1507.7,1772.46 "/>
<polyline clip-path="url(#clip580)" style="stroke:#000000; stroke-linecap:round; stroke-linejoin:round; stroke-width:4; stroke-opacity:1; fill:none" points="2127.41,1791.36 2127.41,1772.46 "/>
<path clip-path="url(#clip580)" d="M240.029 1852.13 L256.348 1852.13 L256.348 1856.06 L234.404 1856.06 L234.404 1852.13 Q237.066 1849.37 241.649 1844.74 Q246.256 1840.09 247.436 1838.75 Q249.682 1836.23 250.561 1834.49 Q251.464 1832.73 251.464 1831.04 Q251.464 1828.29 249.519 1826.55 Q247.598 1824.81 244.496 1824.81 Q242.297 1824.81 239.844 1825.58 Q237.413 1826.34 234.635 1827.89 L234.635 1823.17 Q237.459 1822.04 239.913 1821.46 Q242.367 1820.88 244.404 1820.88 Q249.774 1820.88 252.969 1823.56 Q256.163 1826.25 256.163 1830.74 Q256.163 1832.87 255.353 1834.79 Q254.566 1836.69 252.459 1839.28 Q251.881 1839.95 248.779 1843.17 Q245.677 1846.36 240.029 1852.13 Z" fill="#000000" fill-rule="nonzero" fill-opacity="1" /><path clip-path="url(#clip580)" d="M266.163 1850.18 L271.047 1850.18 L271.047 1856.06 L266.163 1856.06 L266.163 1850.18 Z" fill="#000000" fill-rule="nonzero" fill-opacity="1" /><path clip-path="url(#clip580)" d="M281.279 1821.5 L299.635 1821.5 L299.635 1825.44 L285.561 1825.44 L285.561 1833.91 Q286.579 1833.56 287.598 1833.4 Q288.616 1833.22 289.635 1833.22 Q295.422 1833.22 298.802 1836.39 Q302.181 1839.56 302.181 1844.98 Q302.181 1850.55 298.709 1853.66 Q295.237 1856.74 288.917 1856.74 Q286.741 1856.74 284.473 1856.36 Q282.228 1855.99 279.82 1855.25 L279.82 1850.55 Q281.904 1851.69 284.126 1852.24 Q286.348 1852.8 288.825 1852.8 Q292.829 1852.8 295.167 1850.69 Q297.505 1848.59 297.505 1844.98 Q297.505 1841.36 295.167 1839.26 Q292.829 1837.15 288.825 1837.15 Q286.95 1837.15 285.075 1837.57 Q283.223 1837.99 281.279 1838.86 L281.279 1821.5 Z" fill="#000000" fill-rule="nonzero" fill-opacity="1" /><path clip-path="url(#clip580)" d="M855.163 1821.5 L873.519 1821.5 L873.519 1825.44 L859.445 1825.44 L859.445 1833.91 Q860.464 1833.56 861.482 1833.4 Q862.501 1833.22 863.519 1833.22 Q869.306 1833.22 872.686 1836.39 Q876.066 1839.56 876.066 1844.98 Q876.066 1850.55 872.593 1853.66 Q869.121 1856.74 862.802 1856.74 Q860.626 1856.74 858.357 1856.36 Q856.112 1855.99 853.705 1855.25 L853.705 1850.55 Q855.788 1851.69 858.01 1852.24 Q860.232 1852.8 862.709 1852.8 Q866.714 1852.8 869.052 1850.69 Q871.39 1848.59 871.39 1844.98 Q871.39 1841.36 869.052 1839.26 Q866.714 1837.15 862.709 1837.15 Q860.834 1837.15 858.959 1837.57 Q857.107 1837.99 855.163 1838.86 L855.163 1821.5 Z" fill="#000000" fill-rule="nonzero" fill-opacity="1" /><path clip-path="url(#clip580)" d="M885.278 1850.18 L890.163 1850.18 L890.163 1856.06 L885.278 1856.06 L885.278 1850.18 Z" fill="#000000" fill-rule="nonzero" fill-opacity="1" /><path clip-path="url(#clip580)" d="M910.348 1824.58 Q906.737 1824.58 904.908 1828.15 Q903.102 1831.69 903.102 1838.82 Q903.102 1845.93 904.908 1849.49 Q906.737 1853.03 910.348 1853.03 Q913.982 1853.03 915.788 1849.49 Q917.616 1845.93 917.616 1838.82 Q917.616 1831.69 915.788 1828.15 Q913.982 1824.58 910.348 1824.58 M910.348 1820.88 Q916.158 1820.88 919.213 1825.49 Q922.292 1830.07 922.292 1838.82 Q922.292 1847.55 919.213 1852.15 Q916.158 1856.74 910.348 1856.74 Q904.538 1856.74 901.459 1852.15 Q898.403 1847.55 898.403 1838.82 Q898.403 1830.07 901.459 1825.49 Q904.538 1820.88 910.348 1820.88 Z" fill="#000000" fill-rule="nonzero" fill-opacity="1" /><path clip-path="url(#clip580)" d="M1474.02 1821.5 L1496.25 1821.5 L1496.25 1823.49 L1483.7 1856.06 L1478.82 1856.06 L1490.62 1825.44 L1474.02 1825.44 L1474.02 1821.5 Z" fill="#000000" fill-rule="nonzero" fill-opacity="1" /><path clip-path="url(#clip580)" d="M1505.37 1850.18 L1510.25 1850.18 L1510.25 1856.06 L1505.37 1856.06 L1505.37 1850.18 Z" fill="#000000" fill-rule="nonzero" fill-opacity="1" /><path clip-path="url(#clip580)" d="M1520.48 1821.5 L1538.84 1821.5 L1538.84 1825.44 L1524.76 1825.44 L1524.76 1833.91 Q1525.78 1833.56 1526.8 1833.4 Q1527.82 1833.22 1528.84 1833.22 Q1534.63 1833.22 1538 1836.39 Q1541.38 1839.56 1541.38 1844.98 Q1541.38 1850.55 1537.91 1853.66 Q1534.44 1856.74 1528.12 1856.74 Q1525.94 1856.74 1523.68 1856.36 Q1521.43 1855.99 1519.02 1855.25 L1519.02 1850.55 Q1521.11 1851.69 1523.33 1852.24 Q1525.55 1852.8 1528.03 1852.8 Q1532.03 1852.8 1534.37 1850.69 Q1536.71 1848.59 1536.71 1844.98 Q1536.71 1841.36 1534.37 1839.26 Q1532.03 1837.15 1528.03 1837.15 Q1526.15 1837.15 1524.28 1837.57 Q1522.43 1837.99 1520.48 1838.86 L1520.48 1821.5 Z" fill="#000000" fill-rule="nonzero" fill-opacity="1" /><path clip-path="url(#clip580)" d="M2079.48 1852.13 L2087.12 1852.13 L2087.12 1825.76 L2078.81 1827.43 L2078.81 1823.17 L2087.07 1821.5 L2091.75 1821.5 L2091.75 1852.13 L2099.39 1852.13 L2099.39 1856.06 L2079.48 1856.06 L2079.48 1852.13 Z" fill="#000000" fill-rule="nonzero" fill-opacity="1" /><path clip-path="url(#clip580)" d="M2118.83 1824.58 Q2115.22 1824.58 2113.39 1828.15 Q2111.59 1831.69 2111.59 1838.82 Q2111.59 1845.93 2113.39 1849.49 Q2115.22 1853.03 2118.83 1853.03 Q2122.47 1853.03 2124.27 1849.49 Q2126.1 1845.93 2126.1 1838.82 Q2126.1 1831.69 2124.27 1828.15 Q2122.47 1824.58 2118.83 1824.58 M2118.83 1820.88 Q2124.64 1820.88 2127.7 1825.49 Q2130.78 1830.07 2130.78 1838.82 Q2130.78 1847.55 2127.7 1852.15 Q2124.64 1856.74 2118.83 1856.74 Q2113.02 1856.74 2109.94 1852.15 Q2106.89 1847.55 2106.89 1838.82 Q2106.89 1830.07 2109.94 1825.49 Q2113.02 1820.88 2118.83 1820.88 Z" fill="#000000" fill-rule="nonzero" fill-opacity="1" /><path clip-path="url(#clip580)" d="M2139 1850.18 L2143.88 1850.18 L2143.88 1856.06 L2139 1856.06 L2139 1850.18 Z" fill="#000000" fill-rule="nonzero" fill-opacity="1" /><path clip-path="url(#clip580)" d="M2164.06 1824.58 Q2160.45 1824.58 2158.63 1828.15 Q2156.82 1831.69 2156.82 1838.82 Q2156.82 1845.93 2158.63 1849.49 Q2160.45 1853.03 2164.06 1853.03 Q2167.7 1853.03 2169.5 1849.49 Q2171.33 1845.93 2171.33 1838.82 Q2171.33 1831.69 2169.5 1828.15 Q2167.7 1824.58 2164.06 1824.58 M2164.06 1820.88 Q2169.88 1820.88 2172.93 1825.49 Q2176.01 1830.07 2176.01 1838.82 Q2176.01 1847.55 2172.93 1852.15 Q2169.88 1856.74 2164.06 1856.74 Q2158.25 1856.74 2155.18 1852.15 Q2152.12 1847.55 2152.12 1838.82 Q2152.12 1830.07 2155.18 1825.49 Q2158.25 1820.88 2164.06 1820.88 Z" fill="#000000" fill-rule="nonzero" fill-opacity="1" /><path clip-path="url(#clip580)" d="M1399.83 1909.98 Q1398.99 1914.14 1397.87 1916.52 Q1396.06 1920.16 1392.97 1920.16 Q1390.78 1920.16 1389.11 1918.84 Q1387.46 1917.52 1387.04 1915.33 Q1386.21 1916.33 1385.6 1916.9 Q1385.02 1917.48 1383.86 1918.39 Q1382.73 1919.26 1381.31 1919.71 Q1379.89 1920.16 1378.28 1920.16 Q1374.36 1920.16 1371.88 1918.1 Q1368.53 1931.59 1368.24 1932.27 Q1367.3 1933.65 1365.95 1933.65 Q1365.11 1933.65 1364.6 1933.14 Q1364.08 1932.65 1364.08 1931.88 Q1364.11 1931.62 1364.31 1930.82 L1373.78 1892.65 Q1374.03 1891.62 1374.68 1891.04 Q1375.35 1890.43 1375.74 1890.37 Q1376.13 1890.27 1376.42 1890.27 Q1377.29 1890.27 1377.8 1890.75 Q1378.35 1891.2 1378.35 1892.04 Q1378.35 1892.17 1378.16 1892.91 Q1377.99 1893.62 1377.74 1894.71 Q1377.48 1895.78 1377.35 1896.26 L1374.58 1907.34 Q1373.65 1911.14 1373.65 1912.94 Q1373.65 1915.68 1374.87 1917.19 Q1376.13 1918.68 1378.54 1918.68 Q1380.06 1918.68 1381.47 1918.06 Q1382.89 1917.42 1383.86 1916.55 Q1384.82 1915.68 1385.6 1914.75 Q1386.37 1913.78 1386.72 1913.17 Q1387.08 1912.52 1387.11 1912.36 L1388.82 1905.63 L1391.94 1893.3 Q1392.13 1892.52 1392.49 1892.01 Q1392.87 1891.46 1393.32 1891.27 Q1393.78 1891.08 1394.03 1891.04 Q1394.29 1890.98 1394.52 1890.98 Q1395.32 1890.98 1395.87 1891.46 Q1396.42 1891.95 1396.42 1892.78 Q1396.42 1892.94 1396.22 1893.72 Q1396.06 1894.46 1395.8 1895.55 Q1395.55 1896.62 1395.42 1897.19 Q1394.39 1901.25 1394.29 1901.67 L1392.46 1908.79 Q1392.36 1909.21 1392.04 1910.56 Q1391.75 1911.91 1391.59 1912.62 Q1391.42 1913.3 1391.26 1914.23 Q1391.13 1915.13 1391.13 1915.65 Q1391.13 1918.68 1393.13 1918.68 Q1393.9 1918.68 1394.58 1918.23 Q1395.26 1917.74 1395.71 1917.07 Q1396.19 1916.39 1396.64 1915.23 Q1397.13 1914.04 1397.41 1913.07 Q1397.7 1912.07 1398.12 1910.53 Q1398.28 1909.79 1398.45 1909.56 Q1398.61 1909.34 1399.06 1909.34 Q1399.83 1909.34 1399.83 1909.98 Z" fill="#000000" fill-rule="nonzero" fill-opacity="1" /><polyline clip-path="url(#clip580)" style="stroke:#000000; stroke-linecap:round; stroke-linejoin:round; stroke-width:4; stroke-opacity:1; fill:none" points="126.77,1791.36 126.77,122.38 "/>
<polyline clip-path="url(#clip580)" style="stroke:#000000; stroke-linecap:round; stroke-linejoin:round; stroke-width:4; stroke-opacity:1; fill:none" points="126.77,1791.36 145.668,1791.36 "/>
<polyline clip-path="url(#clip580)" style="stroke:#000000; stroke-linecap:round; stroke-linejoin:round; stroke-width:4; stroke-opacity:1; fill:none" points="126.77,1374.53 145.668,1374.53 "/>
<polyline clip-path="url(#clip580)" style="stroke:#000000; stroke-linecap:round; stroke-linejoin:round; stroke-width:4; stroke-opacity:1; fill:none" points="126.77,957.703 145.668,957.703 "/>
<polyline clip-path="url(#clip580)" style="stroke:#000000; stroke-linecap:round; stroke-linejoin:round; stroke-width:4; stroke-opacity:1; fill:none" points="126.77,540.875 145.668,540.875 "/>
<polyline clip-path="url(#clip580)" style="stroke:#000000; stroke-linecap:round; stroke-linejoin:round; stroke-width:4; stroke-opacity:1; fill:none" points="126.77,124.047 145.668,124.047 "/>
<path clip-path="url(#clip580)" d="M-0.887337 1777.16 Q-4.49843 1777.16 -6.32712 1780.72 Q-8.13267 1784.26 -8.13267 1791.39 Q-8.13267 1798.5 -6.32712 1802.07 Q-4.49843 1805.61 -0.887337 1805.61 Q2.7469 1805.61 4.55245 1802.07 Q6.38114 1798.5 6.38114 1791.39 Q6.38114 1784.26 4.55245 1780.72 Q2.7469 1777.16 -0.887337 1777.16 M-0.887337 1773.45 Q4.92282 1773.45 7.97836 1778.06 Q11.057 1782.64 11.057 1791.39 Q11.057 1800.12 7.97836 1804.73 Q4.92282 1809.31 -0.887337 1809.31 Q-6.69749 1809.31 -9.77618 1804.73 Q-12.8317 1800.12 -12.8317 1791.39 Q-12.8317 1782.64 -9.77618 1778.06 Q-6.69749 1773.45 -0.887337 1773.45 Z" fill="#000000" fill-rule="nonzero" fill-opacity="1" /><path clip-path="url(#clip580)" d="M19.2746 1802.76 L24.1588 1802.76 L24.1588 1808.64 L19.2746 1808.64 L19.2746 1802.76 Z" fill="#000000" fill-rule="nonzero" fill-opacity="1" /><path clip-path="url(#clip580)" d="M44.3439 1777.16 Q40.7328 1777.16 38.9041 1780.72 Q37.0986 1784.26 37.0986 1791.39 Q37.0986 1798.5 38.9041 1802.07 Q40.7328 1805.61 44.3439 1805.61 Q47.9781 1805.61 49.7837 1802.07 Q51.6124 1798.5 51.6124 1791.39 Q51.6124 1784.26 49.7837 1780.72 Q47.9781 1777.16 44.3439 1777.16 M44.3439 1773.45 Q50.1541 1773.45 53.2096 1778.06 Q56.2883 1782.64 56.2883 1791.39 Q56.2883 1800.12 53.2096 1804.73 Q50.1541 1809.31 44.3439 1809.31 Q38.5337 1809.31 35.4551 1804.73 Q32.3995 1800.12 32.3995 1791.39 Q32.3995 1782.64 35.4551 1778.06 Q38.5337 1773.45 44.3439 1773.45 Z" fill="#000000" fill-rule="nonzero" fill-opacity="1" /><path clip-path="url(#clip580)" d="M74.5058 1777.16 Q70.8947 1777.16 69.066 1780.72 Q67.2604 1784.26 67.2604 1791.39 Q67.2604 1798.5 69.066 1802.07 Q70.8947 1805.61 74.5058 1805.61 Q78.14 1805.61 79.9456 1802.07 Q81.7743 1798.5 81.7743 1791.39 Q81.7743 1784.26 79.9456 1780.72 Q78.14 1777.16 74.5058 1777.16 M74.5058 1773.45 Q80.3159 1773.45 83.3715 1778.06 Q86.4502 1782.64 86.4502 1791.39 Q86.4502 1800.12 83.3715 1804.73 Q80.3159 1809.31 74.5058 1809.31 Q68.6956 1809.31 65.6169 1804.73 Q62.5614 1800.12 62.5614 1791.39 Q62.5614 1782.64 65.6169 1778.06 Q68.6956 1773.45 74.5058 1773.45 Z" fill="#000000" fill-rule="nonzero" fill-opacity="1" /><path clip-path="url(#clip580)" d="M0.108028 1360.33 Q-3.50306 1360.33 -5.33176 1363.9 Q-7.1373 1367.44 -7.1373 1374.57 Q-7.1373 1381.67 -5.33176 1385.24 Q-3.50306 1388.78 0.108028 1388.78 Q3.74227 1388.78 5.54781 1385.24 Q7.37651 1381.67 7.37651 1374.57 Q7.37651 1367.44 5.54781 1363.9 Q3.74227 1360.33 0.108028 1360.33 M0.108028 1356.63 Q5.91818 1356.63 8.97372 1361.23 Q12.0524 1365.82 12.0524 1374.57 Q12.0524 1383.29 8.97372 1387.9 Q5.91818 1392.48 0.108028 1392.48 Q-5.70213 1392.48 -8.78081 1387.9 Q-11.8364 1383.29 -11.8364 1374.57 Q-11.8364 1365.82 -8.78081 1361.23 Q-5.70213 1356.63 0.108028 1356.63 Z" fill="#000000" fill-rule="nonzero" fill-opacity="1" /><path clip-path="url(#clip580)" d="M20.27 1385.93 L25.1542 1385.93 L25.1542 1391.81 L20.27 1391.81 L20.27 1385.93 Z" fill="#000000" fill-rule="nonzero" fill-opacity="1" /><path clip-path="url(#clip580)" d="M39.3671 1387.88 L55.6864 1387.88 L55.6864 1391.81 L33.7421 1391.81 L33.7421 1387.88 Q36.4041 1385.12 40.9874 1380.49 Q45.5939 1375.84 46.7744 1374.5 Q49.0198 1371.97 49.8994 1370.24 Q50.8022 1368.48 50.8022 1366.79 Q50.8022 1364.03 48.8578 1362.3 Q46.9365 1360.56 43.8346 1360.56 Q41.6356 1360.56 39.1819 1361.33 Q36.7513 1362.09 33.9736 1363.64 L33.9736 1358.92 Q36.7976 1357.78 39.2513 1357.21 Q41.705 1356.63 43.7421 1356.63 Q49.1124 1356.63 52.3068 1359.31 Q55.5012 1362 55.5012 1366.49 Q55.5012 1368.62 54.6911 1370.54 Q53.904 1372.44 51.7976 1375.03 Q51.2189 1375.7 48.117 1378.92 Q45.0152 1382.11 39.3671 1387.88 Z" fill="#000000" fill-rule="nonzero" fill-opacity="1" /><path clip-path="url(#clip580)" d="M65.5475 1357.25 L83.9039 1357.25 L83.9039 1361.19 L69.8299 1361.19 L69.8299 1369.66 Q70.8484 1369.31 71.8669 1369.15 Q72.8854 1368.96 73.9039 1368.96 Q79.6909 1368.96 83.0705 1372.14 Q86.4502 1375.31 86.4502 1380.72 Q86.4502 1386.3 82.978 1389.4 Q79.5058 1392.48 73.1863 1392.48 Q71.0104 1392.48 68.7419 1392.11 Q66.4966 1391.74 64.0892 1391 L64.0892 1386.3 Q66.1725 1387.44 68.3947 1387.99 Q70.6169 1388.55 73.0937 1388.55 Q77.0984 1388.55 79.4363 1386.44 Q81.7743 1384.33 81.7743 1380.72 Q81.7743 1377.11 79.4363 1375.01 Q77.0984 1372.9 73.0937 1372.9 Q71.2188 1372.9 69.3438 1373.32 Q67.4919 1373.73 65.5475 1374.61 L65.5475 1357.25 Z" fill="#000000" fill-rule="nonzero" fill-opacity="1" /><path clip-path="url(#clip580)" d="M-0.887337 943.502 Q-4.49843 943.502 -6.32712 947.067 Q-8.13267 950.609 -8.13267 957.738 Q-8.13267 964.845 -6.32712 968.409 Q-4.49843 971.951 -0.887337 971.951 Q2.7469 971.951 4.55245 968.409 Q6.38114 964.845 6.38114 957.738 Q6.38114 950.609 4.55245 947.067 Q2.7469 943.502 -0.887337 943.502 M-0.887337 939.798 Q4.92282 939.798 7.97836 944.405 Q11.057 948.988 11.057 957.738 Q11.057 966.465 7.97836 971.071 Q4.92282 975.655 -0.887337 975.655 Q-6.69749 975.655 -9.77618 971.071 Q-12.8317 966.465 -12.8317 957.738 Q-12.8317 948.988 -9.77618 944.405 Q-6.69749 939.798 -0.887337 939.798 Z" fill="#000000" fill-rule="nonzero" fill-opacity="1" /><path clip-path="url(#clip580)" d="M19.2746 969.104 L24.1588 969.104 L24.1588 974.983 L19.2746 974.983 L19.2746 969.104 Z" fill="#000000" fill-rule="nonzero" fill-opacity="1" /><path clip-path="url(#clip580)" d="M34.3903 940.423 L52.7466 940.423 L52.7466 944.359 L38.6726 944.359 L38.6726 952.831 Q39.6911 952.484 40.7097 952.321 Q41.7282 952.136 42.7467 952.136 Q48.5337 952.136 51.9133 955.308 Q55.2929 958.479 55.2929 963.895 Q55.2929 969.474 51.8207 972.576 Q48.3485 975.655 42.0291 975.655 Q39.8532 975.655 37.5847 975.284 Q35.3393 974.914 32.9319 974.173 L32.9319 969.474 Q35.0152 970.608 37.2375 971.164 Q39.4597 971.72 41.9365 971.72 Q45.9411 971.72 48.2791 969.613 Q50.617 967.507 50.617 963.895 Q50.617 960.284 48.2791 958.178 Q45.9411 956.071 41.9365 956.071 Q40.0615 956.071 38.1865 956.488 Q36.3347 956.905 34.3903 957.784 L34.3903 940.423 Z" fill="#000000" fill-rule="nonzero" fill-opacity="1" /><path clip-path="url(#clip580)" d="M74.5058 943.502 Q70.8947 943.502 69.066 947.067 Q67.2604 950.609 67.2604 957.738 Q67.2604 964.845 69.066 968.409 Q70.8947 971.951 74.5058 971.951 Q78.14 971.951 79.9456 968.409 Q81.7743 964.845 81.7743 957.738 Q81.7743 950.609 79.9456 947.067 Q78.14 943.502 74.5058 943.502 M74.5058 939.798 Q80.3159 939.798 83.3715 944.405 Q86.4502 948.988 86.4502 957.738 Q86.4502 966.465 83.3715 971.071 Q80.3159 975.655 74.5058 975.655 Q68.6956 975.655 65.6169 971.071 Q62.5614 966.465 62.5614 957.738 Q62.5614 948.988 65.6169 944.405 Q68.6956 939.798 74.5058 939.798 Z" fill="#000000" fill-rule="nonzero" fill-opacity="1" /><path clip-path="url(#clip580)" d="M0.108028 526.674 Q-3.50306 526.674 -5.33176 530.239 Q-7.1373 533.78 -7.1373 540.91 Q-7.1373 548.016 -5.33176 551.581 Q-3.50306 555.123 0.108028 555.123 Q3.74227 555.123 5.54781 551.581 Q7.37651 548.016 7.37651 540.91 Q7.37651 533.78 5.54781 530.239 Q3.74227 526.674 0.108028 526.674 M0.108028 522.97 Q5.91818 522.97 8.97372 527.577 Q12.0524 532.16 12.0524 540.91 Q12.0524 549.637 8.97372 554.243 Q5.91818 558.826 0.108028 558.826 Q-5.70213 558.826 -8.78081 554.243 Q-11.8364 549.637 -11.8364 540.91 Q-11.8364 532.16 -8.78081 527.577 Q-5.70213 522.97 0.108028 522.97 Z" fill="#000000" fill-rule="nonzero" fill-opacity="1" /><path clip-path="url(#clip580)" d="M20.27 552.276 L25.1542 552.276 L25.1542 558.155 L20.27 558.155 L20.27 552.276 Z" fill="#000000" fill-rule="nonzero" fill-opacity="1" /><path clip-path="url(#clip580)" d="M34.1588 523.595 L56.3809 523.595 L56.3809 525.586 L43.8346 558.155 L38.9504 558.155 L50.7559 527.53 L34.1588 527.53 L34.1588 523.595 Z" fill="#000000" fill-rule="nonzero" fill-opacity="1" /><path clip-path="url(#clip580)" d="M65.5475 523.595 L83.9039 523.595 L83.9039 527.53 L69.8299 527.53 L69.8299 536.003 Q70.8484 535.655 71.8669 535.493 Q72.8854 535.308 73.9039 535.308 Q79.6909 535.308 83.0705 538.479 Q86.4502 541.651 86.4502 547.067 Q86.4502 552.646 82.978 555.748 Q79.5058 558.826 73.1863 558.826 Q71.0104 558.826 68.7419 558.456 Q66.4966 558.086 64.0892 557.345 L64.0892 552.646 Q66.1725 553.78 68.3947 554.336 Q70.6169 554.891 73.0937 554.891 Q77.0984 554.891 79.4363 552.785 Q81.7743 550.678 81.7743 547.067 Q81.7743 543.456 79.4363 541.35 Q77.0984 539.243 73.0937 539.243 Q71.2188 539.243 69.3438 539.66 Q67.4919 540.077 65.5475 540.956 L65.5475 523.595 Z" fill="#000000" fill-rule="nonzero" fill-opacity="1" /><path clip-path="url(#clip580)" d="M-10.0771 137.392 L-2.43826 137.392 L-2.43826 111.026 L-10.7484 112.693 L-10.7484 108.434 L-2.48455 106.767 L2.19135 106.767 L2.19135 137.392 L9.8302 137.392 L9.8302 141.327 L-10.0771 141.327 L-10.0771 137.392 Z" fill="#000000" fill-rule="nonzero" fill-opacity="1" /><path clip-path="url(#clip580)" d="M19.2746 135.447 L24.1588 135.447 L24.1588 141.327 L19.2746 141.327 L19.2746 135.447 Z" fill="#000000" fill-rule="nonzero" fill-opacity="1" /><path clip-path="url(#clip580)" d="M44.3439 109.846 Q40.7328 109.846 38.9041 113.41 Q37.0986 116.952 37.0986 124.082 Q37.0986 131.188 38.9041 134.753 Q40.7328 138.295 44.3439 138.295 Q47.9781 138.295 49.7837 134.753 Q51.6124 131.188 51.6124 124.082 Q51.6124 116.952 49.7837 113.41 Q47.9781 109.846 44.3439 109.846 M44.3439 106.142 Q50.1541 106.142 53.2096 110.748 Q56.2883 115.332 56.2883 124.082 Q56.2883 132.808 53.2096 137.415 Q50.1541 141.998 44.3439 141.998 Q38.5337 141.998 35.4551 137.415 Q32.3995 132.808 32.3995 124.082 Q32.3995 115.332 35.4551 110.748 Q38.5337 106.142 44.3439 106.142 Z" fill="#000000" fill-rule="nonzero" fill-opacity="1" /><path clip-path="url(#clip580)" d="M74.5058 109.846 Q70.8947 109.846 69.066 113.41 Q67.2604 116.952 67.2604 124.082 Q67.2604 131.188 69.066 134.753 Q70.8947 138.295 74.5058 138.295 Q78.14 138.295 79.9456 134.753 Q81.7743 131.188 81.7743 124.082 Q81.7743 116.952 79.9456 113.41 Q78.14 109.846 74.5058 109.846 M74.5058 106.142 Q80.3159 106.142 83.3715 110.748 Q86.4502 115.332 86.4502 124.082 Q86.4502 132.808 83.3715 137.415 Q80.3159 141.998 74.5058 141.998 Q68.6956 141.998 65.6169 137.415 Q62.5614 132.808 62.5614 124.082 Q62.5614 115.332 65.6169 110.748 Q68.6956 106.142 74.5058 106.142 Z" fill="#000000" fill-rule="nonzero" fill-opacity="1" /><path clip-path="url(#clip580)" d="M-92.8431 940.759 Q-92.5211 940.823 -91.9413 940.952 Q-91.3938 941.081 -89.6547 941.66 Q-87.9156 942.24 -86.1443 943.013 Q-84.4052 943.754 -81.9575 945.203 Q-79.5421 946.62 -77.3521 948.359 Q-76.7724 948.842 -76.4181 948.939 Q-76.0961 949.003 -75.0333 949.003 Q-68.3345 949.003 -68.3345 946.974 Q-68.3345 946.878 -68.3345 946.717 Q-68.3667 946.523 -68.5277 946.04 Q-68.7209 945.525 -69.0108 945.074 Q-69.3328 944.623 -69.977 944.108 Q-70.6533 943.593 -71.555 943.271 Q-72.1992 942.981 -72.1992 942.401 Q-72.1992 941.628 -71.555 941.628 Q-70.3956 941.628 -68.6243 943.238 Q-66.853 944.849 -66.853 947.167 Q-66.853 949.39 -68.3022 950.968 Q-69.7837 952.514 -72.4246 953.158 Q-66.853 960.114 -66.853 967.071 Q-66.853 971.966 -70.0414 974.865 Q-73.2619 977.763 -78.0284 977.763 Q-82.6016 977.763 -86.9494 975.251 Q-91.2972 972.707 -94.0025 968.584 Q-96.74 964.43 -96.74 960.018 Q-96.74 958.472 -96.3213 956.99 Q-95.9349 955.509 -94.9365 954.027 Q-93.9381 952.546 -92.4244 951.451 Q-90.9108 950.356 -88.5275 949.68 Q-86.1443 949.003 -83.1491 949.003 L-79.059 949.003 Q-84.4374 944.752 -92.1346 942.53 Q-93.294 942.208 -93.4228 942.015 Q-93.5194 941.886 -93.5194 941.564 Q-93.5194 941.242 -93.3262 941.048 Q-93.1652 940.823 -93.0041 940.791 L-92.8431 940.759 M-74.1315 953.415 Q-75.2587 953.544 -81.5067 953.544 Q-82.6983 953.544 -83.3424 953.544 Q-84.0187 953.544 -85.3069 953.609 Q-86.5952 953.673 -87.4003 953.802 Q-88.2055 953.899 -89.3649 954.124 Q-90.5243 954.349 -91.265 954.671 Q-92.0058 954.994 -92.8431 955.509 Q-93.6805 955.992 -94.1636 956.636 Q-94.6466 957.248 -94.9687 958.15 Q-95.2908 959.019 -95.2908 960.082 Q-95.2908 961.402 -94.8077 962.787 Q-94.3568 964.14 -92.9075 965.879 Q-91.4905 967.618 -89.2361 969.067 Q-86.8528 970.581 -82.4728 971.741 Q-78.125 972.868 -75.5164 972.868 Q-72.2314 972.868 -70.2668 971.354 Q-68.3345 969.84 -68.3345 966.942 Q-68.3345 960.018 -74.1315 953.415 Z" fill="#000000" fill-rule="nonzero" fill-opacity="1" /><path clip-path="url(#clip580)" d="M1268.87 43.0777 Q1268.79 43.4875 1268.62 44.2254 Q1268.46 44.9222 1267.72 47.1356 Q1266.98 49.349 1266 51.6034 Q1265.06 53.8168 1263.21 56.932 Q1261.41 60.0062 1259.19 62.7935 Q1258.58 63.5313 1258.46 63.9822 Q1258.37 64.3921 1258.37 65.7447 Q1258.37 74.2705 1260.96 74.2705 Q1261.08 74.2705 1261.28 74.2705 Q1261.53 74.2295 1262.15 74.0246 Q1262.8 73.7786 1263.37 73.4097 Q1263.95 72.9998 1264.6 72.18 Q1265.26 71.3193 1265.67 70.1716 Q1266.04 69.3518 1266.78 69.3518 Q1267.76 69.3518 1267.76 70.1716 Q1267.76 71.6472 1265.71 73.9016 Q1263.66 76.156 1260.71 76.156 Q1257.88 76.156 1255.87 74.3115 Q1253.91 72.426 1253.09 69.0649 Q1244.23 76.156 1235.38 76.156 Q1229.15 76.156 1225.46 72.0981 Q1221.77 67.9991 1221.77 61.9327 Q1221.77 56.1122 1224.97 50.5787 Q1228.21 45.0451 1233.45 41.602 Q1238.74 38.118 1244.36 38.118 Q1246.32 38.118 1248.21 38.6508 Q1250.09 39.1427 1251.98 40.4134 Q1253.87 41.684 1255.26 43.6105 Q1256.65 45.537 1257.51 48.5702 Q1258.37 51.6034 1258.37 55.4154 L1258.37 60.6211 Q1263.78 53.7759 1266.61 43.9794 Q1267.02 42.5038 1267.27 42.3398 Q1267.43 42.2169 1267.84 42.2169 Q1268.25 42.2169 1268.5 42.4628 Q1268.79 42.6678 1268.83 42.8727 L1268.87 43.0777 M1252.76 66.8924 Q1252.59 65.4578 1252.59 57.5059 Q1252.59 55.9893 1252.59 55.1695 Q1252.59 54.3087 1252.51 52.6691 Q1252.43 51.0296 1252.27 50.0048 Q1252.14 48.9801 1251.86 47.5045 Q1251.57 46.0289 1251.16 45.0861 Q1250.75 44.1434 1250.09 43.0777 Q1249.48 42.0119 1248.66 41.3971 Q1247.88 40.7823 1246.73 40.3724 Q1245.63 39.9625 1244.27 39.9625 Q1242.59 39.9625 1240.83 40.5773 Q1239.11 41.1512 1236.9 42.9957 Q1234.68 44.7992 1232.84 47.6685 Q1230.91 50.7017 1229.44 56.2762 Q1228 61.8098 1228 65.1299 Q1228 69.3108 1229.93 71.8111 Q1231.85 74.2705 1235.54 74.2705 Q1244.36 74.2705 1252.76 66.8924 Z" fill="#000000" fill-rule="nonzero" fill-opacity="1" /><path clip-path="url(#clip580)" d="M1298.24 62.4656 Q1298.32 61.4409 1299.92 61.4409 L1351.36 61.4409 Q1353.78 61.4409 1353.82 62.3836 Q1353.82 63.4083 1351.53 63.3673 L1300.5 63.3673 Q1298.24 63.4083 1298.24 62.4656 M1298.24 46.0699 Q1298.24 45.0451 1300 45.0861 L1351.28 45.0861 Q1353.78 45.0861 1353.82 46.0699 Q1353.82 47.0126 1351.69 47.0126 L1299.92 47.0126 Q1298.24 47.0126 1298.24 46.0699 Z" fill="#000000" fill-rule="nonzero" fill-opacity="1" /><path clip-path="url(#clip580)" d="M1431.54 41.0282 Q1431.54 43.8974 1427.44 43.8974 L1417.85 43.8974 Q1416.37 50.7017 1416.37 57.2599 Q1416.37 65.0889 1418.79 71.1143 Q1419.28 72.303 1419.28 72.9588 Q1419.28 74.1885 1418.17 75.1723 Q1417.11 76.156 1415.84 76.156 Q1414.77 76.156 1414.07 75.3362 Q1413.42 74.5164 1412.84 71.9341 Q1412.15 68.9009 1412.15 65.5398 Q1412.15 61.5228 1412.8 57.6698 Q1413.46 53.7759 1415.67 43.8974 L1406.2 43.8974 L1401.49 62.4656 Q1399.81 68.7369 1399.24 70.6634 Q1398.87 71.8111 1398.74 72.18 Q1398.62 72.5489 1398.25 73.4507 Q1397.92 74.3115 1397.68 74.6394 Q1397.43 74.9263 1397.02 75.3772 Q1396.61 75.8691 1396.12 75.992 Q1395.63 76.156 1395.01 76.156 Q1394.07 76.156 1393.33 75.5412 Q1392.6 74.9673 1392.6 73.8606 Q1392.6 73.1228 1393.25 71.8521 Q1401.04 55.0465 1403.99 43.8974 L1399.24 43.8974 Q1392.68 43.8974 1388.58 50.3737 Q1387.92 51.2345 1387.55 51.3165 Q1387.39 51.3575 1387.23 51.3575 Q1386.78 51.3575 1386.49 51.1525 Q1386.24 50.9476 1386.24 50.7427 L1386.2 50.5377 Q1386.2 50.2918 1386.82 49.1851 Q1387.47 48.0374 1388.7 46.2748 Q1389.97 44.5123 1391.33 42.9957 Q1392.64 41.602 1393.91 40.7413 Q1395.22 39.8395 1396.45 39.5116 Q1397.68 39.1837 1398.38 39.1017 Q1399.07 39.0197 1400.06 39.0197 L1428.17 39.0197 Q1429.24 39.0197 1429.81 39.1017 Q1430.39 39.1427 1430.96 39.6346 Q1431.54 40.0854 1431.54 41.0282 Z" fill="#000000" fill-rule="nonzero" fill-opacity="1" /><path clip-path="url(#clip580)" d="M1442.65 54.2267 Q1442.65 40.0444 1447.94 28.6084 Q1450.19 23.8127 1453.35 19.7957 Q1456.5 15.7788 1458.6 14.0163 Q1460.69 12.2537 1461.26 12.2537 Q1462.08 12.2537 1462.12 13.0735 Q1462.12 13.4834 1461.01 14.5081 Q1447.49 28.2805 1447.53 54.2267 Q1447.53 80.2549 1460.69 93.4945 Q1462.12 94.9291 1462.12 95.38 Q1462.12 96.1998 1461.26 96.1998 Q1460.69 96.1998 1458.68 94.5192 Q1456.67 92.8386 1453.55 88.9856 Q1450.44 85.1327 1448.18 80.4189 Q1442.65 68.9829 1442.65 54.2267 Z" fill="#000000" fill-rule="nonzero" fill-opacity="1" /><path clip-path="url(#clip580)" d="M1504.86 33.2402 Q1504.86 40.1264 1502.64 47.8734 Q1500.47 55.5794 1497.03 61.8098 Q1493.59 67.9991 1489.08 72.0981 Q1484.57 76.156 1480.26 76.156 Q1477.52 76.156 1475.47 74.6394 Q1473.46 73.0818 1472.35 70.4995 Q1471.25 67.8762 1470.71 65.0069 Q1470.18 62.0967 1470.18 58.9405 Q1470.18 54.2267 1471.21 49.1031 Q1472.23 43.9384 1473.95 39.2657 Q1475.67 34.5519 1478.09 30.289 Q1480.51 25.9851 1483.17 22.8699 Q1485.88 19.7138 1488.91 17.8692 Q1491.95 16.0247 1494.77 16.0247 Q1496.82 16.0247 1498.46 16.9265 Q1500.14 17.7873 1501.21 19.3039 Q1502.27 20.7795 1503.01 22.542 Q1503.79 24.3046 1504.16 26.354 Q1504.53 28.3625 1504.69 30.0431 Q1504.86 31.6826 1504.86 33.2402 M1499.32 28.0346 Q1499.32 25.9441 1499.16 24.3865 Q1499 22.788 1498.54 21.1894 Q1498.09 19.5908 1497.11 18.73 Q1496.17 17.8692 1494.69 17.8692 Q1490.39 17.8692 1485.55 26.6819 Q1483.99 29.4282 1482.6 33.1583 Q1481.21 36.8883 1480.71 38.6508 Q1480.22 40.4134 1479.07 44.7582 L1496.62 44.7582 Q1499.32 33.5681 1499.32 28.0346 M1495.88 47.4225 L1478.42 47.4225 Q1475.71 57.6698 1475.71 64.0642 Q1475.71 69.6387 1476.86 71.9751 Q1478.05 74.2705 1480.26 74.2705 Q1482.81 74.2705 1485.18 71.7292 Q1487.56 69.1468 1489.98 64.4741 Q1493.18 58.4076 1495.88 47.4225 Z" fill="#000000" fill-rule="nonzero" fill-opacity="1" /><path clip-path="url(#clip580)" d="M1513.52 95.38 Q1513.52 94.9701 1514.59 93.9454 Q1528.11 80.173 1528.11 54.2267 Q1528.11 28.1985 1515.12 15.041 Q1513.52 13.5244 1513.52 13.0735 Q1513.52 12.2537 1514.34 12.2537 Q1514.92 12.2537 1516.92 13.9343 Q1518.97 15.6148 1522.05 19.4678 Q1525.16 23.3208 1527.46 28.0346 Q1532.99 39.4706 1532.99 54.2267 Q1532.99 68.409 1527.7 79.845 Q1525.45 84.6408 1522.29 88.6577 Q1519.14 92.6747 1517.05 94.4372 Q1514.96 96.1998 1514.34 96.1998 Q1513.52 96.1998 1513.52 95.38 Z" fill="#000000" fill-rule="nonzero" fill-opacity="1" /><polyline clip-path="url(#clip582)" style="stroke:#009af9; stroke-linecap:round; stroke-linejoin:round; stroke-width:4; stroke-opacity:1; fill:none" points="126.77,124.047 152.724,124.047 304.732,124.07 375.446,124.171 470.229,125.003 509.39,126.096 548.55,128.241 584.965,131.88 621.38,138.111 644.237,143.951 667.093,151.788 689.95,162.129 712.807,175.544 733.309,190.701 753.812,209.298 774.314,231.808 794.817,258.683 806.551,276.189 818.285,295.328 830.019,316.16 841.753,338.732 853.487,363.081 865.221,389.23 876.955,417.185 888.689,446.938 906.231,494.71 923.774,546.276 941.316,601.384 958.858,659.69 981.295,738.231 1003.73,820.216 1026.17,904.403 1048.61,989.442 1069.08,1066.62 1089.56,1142.3 1110.04,1215.48 1130.52,1285.27 1142.17,1323.16 1153.83,1359.57 1165.48,1394.4 1177.13,1427.54 1188.79,1458.92 1200.44,1488.49 1212.09,1516.18 1223.75,1541.99 1232.98,1561.08 1242.22,1578.97 1251.46,1595.65 1260.7,1611.13 1269.94,1625.41 1279.17,1638.5 1288.41,1650.43 1297.65,1661.19 1309.13,1672.96 1320.6,1682.99 1332.08,1691.3 1343.56,1697.92 1355.03,1702.86 1366.51,1706.15 1377.99,1707.79 1389.47,1707.8 1398.25,1706.7 1407.04,1704.63 1415.83,1701.59 1424.62,1697.58 1442.2,1686.61 1459.78,1671.64 1472.17,1658.62 1484.56,1643.53 1496.96,1626.34 1509.35,1607.02 1521.74,1585.55 1534.13,1561.9 1546.52,1536.08 1558.92,1508.1 1568.18,1485.8 1577.44,1462.32 1586.7,1437.68 1595.96,1411.93 1605.22,1385.08 1614.48,1357.19 1623.74,1328.3 1633,1298.46 1654.06,1227.41 1675.12,1152.62 1696.18,1075.05 1717.25,995.781 1738.1,916.709 1758.96,838.2 1779.82,761.35 1800.68,687.184 1812.15,647.866 1823.63,609.773 1835.1,573.026 1846.58,537.727 1858.05,503.965 1869.53,471.812 1881,441.321 1892.47,412.53 1910,371.874 1927.53,335.239 1936.29,318.411 1945.06,302.556 1953.82,287.656 1962.59,273.688 1973.65,257.352 1984.71,242.401 1995.77,228.774 2006.83,216.401 2017.89,205.212 2028.95,195.134 2040.01,186.093 2051.07,178.014 2071.52,165.358 2091.98,155.291 2112.44,147.393 2132.9,141.279 2175.1,132.907 2217.29,128.368 2260.07,126.023 2302.84,124.902 2392.17,124.171 2462.53,124.07 2622.78,124.047 2640.76,124.047 "/>
<polyline clip-path="url(#clip582)" style="stroke:#e26f46; stroke-linecap:round; stroke-linejoin:round; stroke-width:4; stroke-opacity:1; fill:none" points="1383.76,3460.34 1383.76,-1546.6 "/>
<path clip-path="url(#clip580)" d="M2283.34 1735.73 L2556.96 1735.73 L2556.96 1632.05 L2283.34 1632.05  Z" fill="#ffffff" fill-rule="evenodd" fill-opacity="1"/>
<polyline clip-path="url(#clip580)" style="stroke:#000000; stroke-linecap:round; stroke-linejoin:round; stroke-width:4; stroke-opacity:1; fill:none" points="2283.34,1735.73 2556.96,1735.73 2556.96,1632.05 2283.34,1632.05 2283.34,1735.73 "/>
<polyline clip-path="url(#clip580)" style="stroke:#e26f46; stroke-linecap:round; stroke-linejoin:round; stroke-width:4; stroke-opacity:1; fill:none" points="2311.27,1683.89 2478.87,1683.89 "/>
<path clip-path="url(#clip580)" d="M2506.8 1666.61 L2529.02 1666.61 L2529.02 1668.6 L2516.48 1701.17 L2511.59 1701.17 L2523.4 1670.54 L2506.8 1670.54 L2506.8 1666.61 Z" fill="#000000" fill-rule="nonzero" fill-opacity="1" /></svg>
