<?xml version="1.0" encoding="utf-8"?>
<svg xmlns="http://www.w3.org/2000/svg" xmlns:xlink="http://www.w3.org/1999/xlink" width="672" height="480" viewBox="0 0 2688 1920">
<defs>
  <clipPath id="clip770">
    <rect x="0" y="0" width="2688" height="1920"/>
  </clipPath>
</defs>
<path clip-path="url(#clip770)" d="M0 1920 L2688 1920 L2688 0 L0 0  Z" fill="#ffffff" fill-rule="evenodd" fill-opacity="1"/>
<defs>
  <clipPath id="clip771">
    <rect x="537" y="0" width="1883" height="1883"/>
  </clipPath>
</defs>
<path clip-path="url(#clip770)" d="M255.816 1734.12 L2640.76 1734.12 L2640.76 141.759 L255.816 141.759  Z" fill="#ffffff" fill-rule="evenodd" fill-opacity="1"/>
<defs>
  <clipPath id="clip772">
    <rect x="255" y="141" width="2386" height="1593"/>
  </clipPath>
</defs>
<polyline clip-path="url(#clip772)" style="stroke:#000000; stroke-linecap:round; stroke-linejoin:round; stroke-width:2; stroke-opacity:0.1; fill:none" points="255.816,1734.12 255.816,141.759 "/>
<polyline clip-path="url(#clip772)" style="stroke:#000000; stroke-linecap:round; stroke-linejoin:round; stroke-width:2; stroke-opacity:0.1; fill:none" points="852.051,1734.12 852.051,141.759 "/>
<polyline clip-path="url(#clip772)" style="stroke:#000000; stroke-linecap:round; stroke-linejoin:round; stroke-width:2; stroke-opacity:0.1; fill:none" points="1448.29,1734.12 1448.29,141.759 "/>
<polyline clip-path="url(#clip772)" style="stroke:#000000; stroke-linecap:round; stroke-linejoin:round; stroke-width:2; stroke-opacity:0.1; fill:none" points="2044.52,1734.12 2044.52,141.759 "/>
<polyline clip-path="url(#clip772)" style="stroke:#000000; stroke-linecap:round; stroke-linejoin:round; stroke-width:2; stroke-opacity:0.1; fill:none" points="2640.76,1734.12 2640.76,141.759 "/>
<polyline clip-path="url(#clip772)" style="stroke:#000000; stroke-linecap:round; stroke-linejoin:round; stroke-width:2; stroke-opacity:0.1; fill:none" points="255.816,1689.05 2640.76,1689.05 "/>
<polyline clip-path="url(#clip772)" style="stroke:#000000; stroke-linecap:round; stroke-linejoin:round; stroke-width:2; stroke-opacity:0.1; fill:none" points="255.816,1219.61 2640.76,1219.61 "/>
<polyline clip-path="url(#clip772)" style="stroke:#000000; stroke-linecap:round; stroke-linejoin:round; stroke-width:2; stroke-opacity:0.1; fill:none" points="255.816,750.16 2640.76,750.16 "/>
<polyline clip-path="url(#clip772)" style="stroke:#000000; stroke-linecap:round; stroke-linejoin:round; stroke-width:2; stroke-opacity:0.1; fill:none" points="255.816,280.715 2640.76,280.715 "/>
<polyline clip-path="url(#clip770)" style="stroke:#000000; stroke-linecap:round; stroke-linejoin:round; stroke-width:4; stroke-opacity:1; fill:none" points="255.816,1734.12 2640.76,1734.12 "/>
<polyline clip-path="url(#clip770)" style="stroke:#000000; stroke-linecap:round; stroke-linejoin:round; stroke-width:4; stroke-opacity:1; fill:none" points="255.816,1734.12 255.816,1715.22 "/>
<polyline clip-path="url(#clip770)" style="stroke:#000000; stroke-linecap:round; stroke-linejoin:round; stroke-width:4; stroke-opacity:1; fill:none" points="852.051,1734.12 852.051,1715.22 "/>
<polyline clip-path="url(#clip770)" style="stroke:#000000; stroke-linecap:round; stroke-linejoin:round; stroke-width:4; stroke-opacity:1; fill:none" points="1448.29,1734.12 1448.29,1715.22 "/>
<polyline clip-path="url(#clip770)" style="stroke:#000000; stroke-linecap:round; stroke-linejoin:round; stroke-width:4; stroke-opacity:1; fill:none" points="2044.52,1734.12 2044.52,1715.22 "/>
<polyline clip-path="url(#clip770)" style="stroke:#000000; stroke-linecap:round; stroke-linejoin:round; stroke-width:4; stroke-opacity:1; fill:none" points="2640.76,1734.12 2640.76,1715.22 "/>
<path clip-path="url(#clip770)" d="M233.12 1767.34 Q229.509 1767.34 227.68 1770.9 Q225.874 1774.45 225.874 1781.58 Q225.874 1788.68 227.68 1792.25 Q229.509 1795.79 233.12 1795.79 Q236.754 1795.79 238.559 1792.25 Q240.388 1788.68 240.388 1781.58 Q240.388 1774.45 238.559 1770.9 Q236.754 1767.34 233.12 1767.34 M233.12 1763.64 Q238.93 1763.64 241.985 1768.24 Q245.064 1772.83 245.064 1781.58 Q245.064 1790.3 241.985 1794.91 Q238.93 1799.49 233.12 1799.49 Q227.31 1799.49 224.231 1794.91 Q221.175 1790.3 221.175 1781.58 Q221.175 1772.83 224.231 1768.24 Q227.31 1763.64 233.12 1763.64 Z" fill="#000000" fill-rule="nonzero" fill-opacity="1" /><path clip-path="url(#clip770)" d="M253.282 1792.94 L258.166 1792.94 L258.166 1798.82 L253.282 1798.82 L253.282 1792.94 Z" fill="#000000" fill-rule="nonzero" fill-opacity="1" /><path clip-path="url(#clip770)" d="M278.93 1779.68 Q275.781 1779.68 273.93 1781.83 Q272.101 1783.98 272.101 1787.73 Q272.101 1791.46 273.93 1793.64 Q275.781 1795.79 278.93 1795.79 Q282.078 1795.79 283.906 1793.64 Q285.758 1791.46 285.758 1787.73 Q285.758 1783.98 283.906 1781.83 Q282.078 1779.68 278.93 1779.68 M288.212 1765.02 L288.212 1769.28 Q286.453 1768.45 284.647 1768.01 Q282.865 1767.57 281.106 1767.57 Q276.476 1767.57 274.022 1770.7 Q271.592 1773.82 271.244 1780.14 Q272.61 1778.13 274.67 1777.06 Q276.731 1775.97 279.207 1775.97 Q284.416 1775.97 287.425 1779.15 Q290.457 1782.29 290.457 1787.73 Q290.457 1793.06 287.309 1796.27 Q284.161 1799.49 278.93 1799.49 Q272.934 1799.49 269.763 1794.91 Q266.592 1790.3 266.592 1781.58 Q266.592 1773.38 270.481 1768.52 Q274.369 1763.64 280.92 1763.64 Q282.68 1763.64 284.462 1763.98 Q286.268 1764.33 288.212 1765.02 Z" fill="#000000" fill-rule="nonzero" fill-opacity="1" /><path clip-path="url(#clip770)" d="M829.887 1767.34 Q826.276 1767.34 824.447 1770.9 Q822.642 1774.45 822.642 1781.58 Q822.642 1788.68 824.447 1792.25 Q826.276 1795.79 829.887 1795.79 Q833.521 1795.79 835.327 1792.25 Q837.155 1788.68 837.155 1781.58 Q837.155 1774.45 835.327 1770.9 Q833.521 1767.34 829.887 1767.34 M829.887 1763.64 Q835.697 1763.64 838.753 1768.24 Q841.831 1772.83 841.831 1781.58 Q841.831 1790.3 838.753 1794.91 Q835.697 1799.49 829.887 1799.49 Q824.077 1799.49 820.998 1794.91 Q817.943 1790.3 817.943 1781.58 Q817.943 1772.83 820.998 1768.24 Q824.077 1763.64 829.887 1763.64 Z" fill="#000000" fill-rule="nonzero" fill-opacity="1" /><path clip-path="url(#clip770)" d="M850.049 1792.94 L854.933 1792.94 L854.933 1798.82 L850.049 1798.82 L850.049 1792.94 Z" fill="#000000" fill-rule="nonzero" fill-opacity="1" /><path clip-path="url(#clip770)" d="M863.938 1764.26 L886.16 1764.26 L886.16 1766.25 L873.614 1798.82 L868.729 1798.82 L880.535 1768.2 L863.938 1768.2 L863.938 1764.26 Z" fill="#000000" fill-rule="nonzero" fill-opacity="1" /><path clip-path="url(#clip770)" d="M1425.72 1767.34 Q1422.11 1767.34 1420.28 1770.9 Q1418.47 1774.45 1418.47 1781.58 Q1418.47 1788.68 1420.28 1792.25 Q1422.11 1795.79 1425.72 1795.79 Q1429.35 1795.79 1431.16 1792.25 Q1432.99 1788.68 1432.99 1781.58 Q1432.99 1774.45 1431.16 1770.9 Q1429.35 1767.34 1425.72 1767.34 M1425.72 1763.64 Q1431.53 1763.64 1434.58 1768.24 Q1437.66 1772.83 1437.66 1781.58 Q1437.66 1790.3 1434.58 1794.91 Q1431.53 1799.49 1425.72 1799.49 Q1419.91 1799.49 1416.83 1794.91 Q1413.77 1790.3 1413.77 1781.58 Q1413.77 1772.83 1416.83 1768.24 Q1419.91 1763.64 1425.72 1763.64 Z" fill="#000000" fill-rule="nonzero" fill-opacity="1" /><path clip-path="url(#clip770)" d="M1445.88 1792.94 L1450.76 1792.94 L1450.76 1798.82 L1445.88 1798.82 L1445.88 1792.94 Z" fill="#000000" fill-rule="nonzero" fill-opacity="1" /><path clip-path="url(#clip770)" d="M1470.95 1782.41 Q1467.61 1782.41 1465.69 1784.19 Q1463.8 1785.97 1463.8 1789.1 Q1463.8 1792.22 1465.69 1794.01 Q1467.61 1795.79 1470.95 1795.79 Q1474.28 1795.79 1476.2 1794.01 Q1478.12 1792.2 1478.12 1789.1 Q1478.12 1785.97 1476.2 1784.19 Q1474.3 1782.41 1470.95 1782.41 M1466.27 1780.42 Q1463.26 1779.68 1461.57 1777.62 Q1459.91 1775.56 1459.91 1772.59 Q1459.91 1768.45 1462.85 1766.04 Q1465.81 1763.64 1470.95 1763.64 Q1476.11 1763.64 1479.05 1766.04 Q1481.99 1768.45 1481.99 1772.59 Q1481.99 1775.56 1480.3 1777.62 Q1478.63 1779.68 1475.65 1780.42 Q1479.03 1781.21 1480.9 1783.5 Q1482.8 1785.79 1482.8 1789.1 Q1482.8 1794.12 1479.72 1796.81 Q1476.67 1799.49 1470.95 1799.49 Q1465.23 1799.49 1462.15 1796.81 Q1459.1 1794.12 1459.1 1789.1 Q1459.1 1785.79 1460.99 1783.5 Q1462.89 1781.21 1466.27 1780.42 M1464.56 1773.03 Q1464.56 1775.72 1466.23 1777.22 Q1467.92 1778.73 1470.95 1778.73 Q1473.96 1778.73 1475.65 1777.22 Q1477.36 1775.72 1477.36 1773.03 Q1477.36 1770.35 1475.65 1768.84 Q1473.96 1767.34 1470.95 1767.34 Q1467.92 1767.34 1466.23 1768.84 Q1464.56 1770.35 1464.56 1773.03 Z" fill="#000000" fill-rule="nonzero" fill-opacity="1" /><path clip-path="url(#clip770)" d="M2022 1767.34 Q2018.39 1767.34 2016.56 1770.9 Q2014.75 1774.45 2014.75 1781.58 Q2014.75 1788.68 2016.56 1792.25 Q2018.39 1795.79 2022 1795.79 Q2025.63 1795.79 2027.44 1792.25 Q2029.27 1788.68 2029.27 1781.58 Q2029.27 1774.45 2027.44 1770.9 Q2025.63 1767.34 2022 1767.34 M2022 1763.64 Q2027.81 1763.64 2030.86 1768.24 Q2033.94 1772.83 2033.94 1781.58 Q2033.94 1790.3 2030.86 1794.91 Q2027.81 1799.49 2022 1799.49 Q2016.19 1799.49 2013.11 1794.91 Q2010.05 1790.3 2010.05 1781.58 Q2010.05 1772.83 2013.11 1768.24 Q2016.19 1763.64 2022 1763.64 Z" fill="#000000" fill-rule="nonzero" fill-opacity="1" /><path clip-path="url(#clip770)" d="M2042.16 1792.94 L2047.04 1792.94 L2047.04 1798.82 L2042.16 1798.82 L2042.16 1792.94 Z" fill="#000000" fill-rule="nonzero" fill-opacity="1" /><path clip-path="url(#clip770)" d="M2057.37 1798.1 L2057.37 1793.84 Q2059.13 1794.68 2060.93 1795.12 Q2062.74 1795.56 2064.47 1795.56 Q2069.1 1795.56 2071.53 1792.46 Q2073.99 1789.33 2074.34 1782.99 Q2072.99 1784.98 2070.93 1786.04 Q2068.87 1787.11 2066.37 1787.11 Q2061.19 1787.11 2058.16 1783.98 Q2055.15 1780.83 2055.15 1775.4 Q2055.15 1770.07 2058.29 1766.85 Q2061.44 1763.64 2066.67 1763.64 Q2072.67 1763.64 2075.82 1768.24 Q2078.99 1772.83 2078.99 1781.58 Q2078.99 1789.75 2075.1 1794.63 Q2071.23 1799.49 2064.68 1799.49 Q2062.92 1799.49 2061.12 1799.15 Q2059.31 1798.8 2057.37 1798.1 M2066.67 1783.45 Q2069.82 1783.45 2071.65 1781.3 Q2073.5 1779.15 2073.5 1775.4 Q2073.5 1771.67 2071.65 1769.52 Q2069.82 1767.34 2066.67 1767.34 Q2063.53 1767.34 2061.67 1769.52 Q2059.85 1771.67 2059.85 1775.4 Q2059.85 1779.15 2061.67 1781.3 Q2063.53 1783.45 2066.67 1783.45 Z" fill="#000000" fill-rule="nonzero" fill-opacity="1" /><path clip-path="url(#clip770)" d="M2607.91 1794.89 L2615.55 1794.89 L2615.55 1768.52 L2607.24 1770.19 L2607.24 1765.93 L2615.5 1764.26 L2620.18 1764.26 L2620.18 1794.89 L2627.82 1794.89 L2627.82 1798.82 L2607.91 1798.82 L2607.91 1794.89 Z" fill="#000000" fill-rule="nonzero" fill-opacity="1" /><path clip-path="url(#clip770)" d="M2637.26 1792.94 L2642.14 1792.94 L2642.14 1798.82 L2637.26 1798.82 L2637.26 1792.94 Z" fill="#000000" fill-rule="nonzero" fill-opacity="1" /><path clip-path="url(#clip770)" d="M2662.33 1767.34 Q2658.72 1767.34 2656.89 1770.9 Q2655.08 1774.45 2655.08 1781.58 Q2655.08 1788.68 2656.89 1792.25 Q2658.72 1795.79 2662.33 1795.79 Q2665.96 1795.79 2667.77 1792.25 Q2669.6 1788.68 2669.6 1781.58 Q2669.6 1774.45 2667.77 1770.9 Q2665.96 1767.34 2662.33 1767.34 M2662.33 1763.64 Q2668.14 1763.64 2671.2 1768.24 Q2674.27 1772.83 2674.27 1781.58 Q2674.27 1790.3 2671.2 1794.91 Q2668.14 1799.49 2662.33 1799.49 Q2656.52 1799.49 2653.44 1794.91 Q2650.39 1790.3 2650.39 1781.58 Q2650.39 1772.83 2653.44 1768.24 Q2656.52 1763.64 2662.33 1763.64 Z" fill="#000000" fill-rule="nonzero" fill-opacity="1" /><path clip-path="url(#clip770)" d="M1460.22 1844.47 Q1460.22 1849.88 1458.48 1855.97 Q1456.78 1862.02 1454.07 1866.92 Q1451.36 1871.78 1447.82 1875 Q1444.28 1878.19 1440.9 1878.19 Q1438.74 1878.19 1437.13 1877 Q1435.55 1875.78 1434.68 1873.75 Q1433.81 1871.69 1433.39 1869.43 Q1432.97 1867.15 1432.97 1864.67 Q1432.97 1860.96 1433.78 1856.94 Q1434.59 1852.88 1435.94 1849.21 Q1437.29 1845.5 1439.19 1842.15 Q1441.09 1838.77 1443.18 1836.32 Q1445.31 1833.84 1447.69 1832.4 Q1450.08 1830.95 1452.3 1830.95 Q1453.91 1830.95 1455.2 1831.65 Q1456.52 1832.33 1457.35 1833.52 Q1458.19 1834.68 1458.77 1836.07 Q1459.38 1837.45 1459.67 1839.06 Q1459.96 1840.64 1460.09 1841.96 Q1460.22 1843.25 1460.22 1844.47 M1455.87 1840.38 Q1455.87 1838.74 1455.74 1837.52 Q1455.62 1836.26 1455.26 1835 Q1454.91 1833.75 1454.13 1833.07 Q1453.39 1832.4 1452.23 1832.4 Q1448.85 1832.4 1445.05 1839.32 Q1443.83 1841.48 1442.73 1844.41 Q1441.64 1847.34 1441.25 1848.72 Q1440.87 1850.11 1439.96 1853.52 L1453.75 1853.52 Q1455.87 1844.73 1455.87 1840.38 M1453.17 1855.62 L1439.45 1855.62 Q1437.32 1863.67 1437.32 1868.69 Q1437.32 1873.07 1438.22 1874.91 Q1439.16 1876.71 1440.9 1876.71 Q1442.89 1876.71 1444.76 1874.71 Q1446.63 1872.69 1448.53 1869.01 Q1451.04 1864.25 1453.17 1855.62 Z" fill="#000000" fill-rule="nonzero" fill-opacity="1" /><polyline clip-path="url(#clip770)" style="stroke:#000000; stroke-linecap:round; stroke-linejoin:round; stroke-width:4; stroke-opacity:1; fill:none" points="255.816,1734.12 255.816,141.759 "/>
<polyline clip-path="url(#clip770)" style="stroke:#000000; stroke-linecap:round; stroke-linejoin:round; stroke-width:4; stroke-opacity:1; fill:none" points="255.816,1689.05 274.714,1689.05 "/>
<polyline clip-path="url(#clip770)" style="stroke:#000000; stroke-linecap:round; stroke-linejoin:round; stroke-width:4; stroke-opacity:1; fill:none" points="255.816,1219.61 274.714,1219.61 "/>
<polyline clip-path="url(#clip770)" style="stroke:#000000; stroke-linecap:round; stroke-linejoin:round; stroke-width:4; stroke-opacity:1; fill:none" points="255.816,750.16 274.714,750.16 "/>
<polyline clip-path="url(#clip770)" style="stroke:#000000; stroke-linecap:round; stroke-linejoin:round; stroke-width:4; stroke-opacity:1; fill:none" points="255.816,280.715 274.714,280.715 "/>
<path clip-path="url(#clip770)" d="M128.159 1674.85 Q124.548 1674.85 122.719 1678.41 Q120.913 1681.96 120.913 1689.08 Q120.913 1696.19 122.719 1699.76 Q124.548 1703.3 128.159 1703.3 Q131.793 1703.3 133.599 1699.76 Q135.427 1696.19 135.427 1689.08 Q135.427 1681.96 133.599 1678.41 Q131.793 1674.85 128.159 1674.85 M128.159 1671.15 Q133.969 1671.15 137.025 1675.75 Q140.103 1680.34 140.103 1689.08 Q140.103 1697.81 137.025 1702.42 Q133.969 1707 128.159 1707 Q122.349 1707 119.27 1702.42 Q116.214 1697.81 116.214 1689.08 Q116.214 1680.34 119.27 1675.75 Q122.349 1671.15 128.159 1671.15 Z" fill="#000000" fill-rule="nonzero" fill-opacity="1" /><path clip-path="url(#clip770)" d="M148.321 1700.45 L153.205 1700.45 L153.205 1706.33 L148.321 1706.33 L148.321 1700.45 Z" fill="#000000" fill-rule="nonzero" fill-opacity="1" /><path clip-path="url(#clip770)" d="M173.39 1674.85 Q169.779 1674.85 167.95 1678.41 Q166.145 1681.96 166.145 1689.08 Q166.145 1696.19 167.95 1699.76 Q169.779 1703.3 173.39 1703.3 Q177.024 1703.3 178.83 1699.76 Q180.659 1696.19 180.659 1689.08 Q180.659 1681.96 178.83 1678.41 Q177.024 1674.85 173.39 1674.85 M173.39 1671.15 Q179.2 1671.15 182.256 1675.75 Q185.334 1680.34 185.334 1689.08 Q185.334 1697.81 182.256 1702.42 Q179.2 1707 173.39 1707 Q167.58 1707 164.501 1702.42 Q161.446 1697.81 161.446 1689.08 Q161.446 1680.34 164.501 1675.75 Q167.58 1671.15 173.39 1671.15 Z" fill="#000000" fill-rule="nonzero" fill-opacity="1" /><path clip-path="url(#clip770)" d="M203.552 1674.85 Q199.941 1674.85 198.112 1678.41 Q196.307 1681.96 196.307 1689.08 Q196.307 1696.19 198.112 1699.76 Q199.941 1703.3 203.552 1703.3 Q207.186 1703.3 208.992 1699.76 Q210.82 1696.19 210.82 1689.08 Q210.82 1681.96 208.992 1678.41 Q207.186 1674.85 203.552 1674.85 M203.552 1671.15 Q209.362 1671.15 212.418 1675.75 Q215.496 1680.34 215.496 1689.08 Q215.496 1697.81 212.418 1702.42 Q209.362 1707 203.552 1707 Q197.742 1707 194.663 1702.42 Q191.608 1697.81 191.608 1689.08 Q191.608 1680.34 194.663 1675.75 Q197.742 1671.15 203.552 1671.15 Z" fill="#000000" fill-rule="nonzero" fill-opacity="1" /><path clip-path="url(#clip770)" d="M129.154 1205.4 Q125.543 1205.4 123.714 1208.97 Q121.909 1212.51 121.909 1219.64 Q121.909 1226.75 123.714 1230.31 Q125.543 1233.85 129.154 1233.85 Q132.788 1233.85 134.594 1230.31 Q136.423 1226.75 136.423 1219.64 Q136.423 1212.51 134.594 1208.97 Q132.788 1205.4 129.154 1205.4 M129.154 1201.7 Q134.964 1201.7 138.02 1206.31 Q141.099 1210.89 141.099 1219.64 Q141.099 1228.37 138.02 1232.97 Q134.964 1237.56 129.154 1237.56 Q123.344 1237.56 120.265 1232.97 Q117.21 1228.37 117.21 1219.64 Q117.21 1210.89 120.265 1206.31 Q123.344 1201.7 129.154 1201.7 Z" fill="#000000" fill-rule="nonzero" fill-opacity="1" /><path clip-path="url(#clip770)" d="M149.316 1231.01 L154.2 1231.01 L154.2 1236.89 L149.316 1236.89 L149.316 1231.01 Z" fill="#000000" fill-rule="nonzero" fill-opacity="1" /><path clip-path="url(#clip770)" d="M174.385 1205.4 Q170.774 1205.4 168.946 1208.97 Q167.14 1212.51 167.14 1219.64 Q167.14 1226.75 168.946 1230.31 Q170.774 1233.85 174.385 1233.85 Q178.02 1233.85 179.825 1230.31 Q181.654 1226.75 181.654 1219.64 Q181.654 1212.51 179.825 1208.97 Q178.02 1205.4 174.385 1205.4 M174.385 1201.7 Q180.196 1201.7 183.251 1206.31 Q186.33 1210.89 186.33 1219.64 Q186.33 1228.37 183.251 1232.97 Q180.196 1237.56 174.385 1237.56 Q168.575 1237.56 165.497 1232.97 Q162.441 1228.37 162.441 1219.64 Q162.441 1210.89 165.497 1206.31 Q168.575 1201.7 174.385 1201.7 Z" fill="#000000" fill-rule="nonzero" fill-opacity="1" /><path clip-path="url(#clip770)" d="M194.594 1202.33 L212.95 1202.33 L212.95 1206.26 L198.876 1206.26 L198.876 1214.73 Q199.895 1214.39 200.913 1214.22 Q201.932 1214.04 202.95 1214.04 Q208.737 1214.04 212.117 1217.21 Q215.496 1220.38 215.496 1225.8 Q215.496 1231.38 212.024 1234.48 Q208.552 1237.56 202.233 1237.56 Q200.057 1237.56 197.788 1237.19 Q195.543 1236.82 193.135 1236.07 L193.135 1231.38 Q195.219 1232.51 197.441 1233.07 Q199.663 1233.62 202.14 1233.62 Q206.145 1233.62 208.482 1231.51 Q210.82 1229.41 210.82 1225.8 Q210.82 1222.19 208.482 1220.08 Q206.145 1217.97 202.14 1217.97 Q200.265 1217.97 198.39 1218.39 Q196.538 1218.81 194.594 1219.69 L194.594 1202.33 Z" fill="#000000" fill-rule="nonzero" fill-opacity="1" /><path clip-path="url(#clip770)" d="M128.159 735.959 Q124.548 735.959 122.719 739.523 Q120.913 743.065 120.913 750.195 Q120.913 757.301 122.719 760.866 Q124.548 764.408 128.159 764.408 Q131.793 764.408 133.599 760.866 Q135.427 757.301 135.427 750.195 Q135.427 743.065 133.599 739.523 Q131.793 735.959 128.159 735.959 M128.159 732.255 Q133.969 732.255 137.025 736.861 Q140.103 741.445 140.103 750.195 Q140.103 758.922 137.025 763.528 Q133.969 768.111 128.159 768.111 Q122.349 768.111 119.27 763.528 Q116.214 758.922 116.214 750.195 Q116.214 741.445 119.27 736.861 Q122.349 732.255 128.159 732.255 Z" fill="#000000" fill-rule="nonzero" fill-opacity="1" /><path clip-path="url(#clip770)" d="M148.321 761.56 L153.205 761.56 L153.205 767.44 L148.321 767.44 L148.321 761.56 Z" fill="#000000" fill-rule="nonzero" fill-opacity="1" /><path clip-path="url(#clip770)" d="M164.2 763.505 L171.839 763.505 L171.839 737.139 L163.529 738.806 L163.529 734.547 L171.793 732.88 L176.469 732.88 L176.469 763.505 L184.108 763.505 L184.108 767.44 L164.2 767.44 L164.2 763.505 Z" fill="#000000" fill-rule="nonzero" fill-opacity="1" /><path clip-path="url(#clip770)" d="M203.552 735.959 Q199.941 735.959 198.112 739.523 Q196.307 743.065 196.307 750.195 Q196.307 757.301 198.112 760.866 Q199.941 764.408 203.552 764.408 Q207.186 764.408 208.992 760.866 Q210.82 757.301 210.82 750.195 Q210.82 743.065 208.992 739.523 Q207.186 735.959 203.552 735.959 M203.552 732.255 Q209.362 732.255 212.418 736.861 Q215.496 741.445 215.496 750.195 Q215.496 758.922 212.418 763.528 Q209.362 768.111 203.552 768.111 Q197.742 768.111 194.663 763.528 Q191.608 758.922 191.608 750.195 Q191.608 741.445 194.663 736.861 Q197.742 732.255 203.552 732.255 Z" fill="#000000" fill-rule="nonzero" fill-opacity="1" /><path clip-path="url(#clip770)" d="M129.154 266.514 Q125.543 266.514 123.714 270.078 Q121.909 273.62 121.909 280.75 Q121.909 287.856 123.714 291.421 Q125.543 294.962 129.154 294.962 Q132.788 294.962 134.594 291.421 Q136.423 287.856 136.423 280.75 Q136.423 273.62 134.594 270.078 Q132.788 266.514 129.154 266.514 M129.154 262.81 Q134.964 262.81 138.02 267.416 Q141.099 272 141.099 280.75 Q141.099 289.476 138.02 294.083 Q134.964 298.666 129.154 298.666 Q123.344 298.666 120.265 294.083 Q117.21 289.476 117.21 280.75 Q117.21 272 120.265 267.416 Q123.344 262.81 129.154 262.81 Z" fill="#000000" fill-rule="nonzero" fill-opacity="1" /><path clip-path="url(#clip770)" d="M149.316 292.115 L154.2 292.115 L154.2 297.995 L149.316 297.995 L149.316 292.115 Z" fill="#000000" fill-rule="nonzero" fill-opacity="1" /><path clip-path="url(#clip770)" d="M165.196 294.06 L172.835 294.06 L172.835 267.694 L164.524 269.361 L164.524 265.102 L172.788 263.435 L177.464 263.435 L177.464 294.06 L185.103 294.06 L185.103 297.995 L165.196 297.995 L165.196 294.06 Z" fill="#000000" fill-rule="nonzero" fill-opacity="1" /><path clip-path="url(#clip770)" d="M194.594 263.435 L212.95 263.435 L212.95 267.37 L198.876 267.37 L198.876 275.842 Q199.895 275.495 200.913 275.333 Q201.932 275.148 202.95 275.148 Q208.737 275.148 212.117 278.319 Q215.496 281.49 215.496 286.907 Q215.496 292.486 212.024 295.587 Q208.552 298.666 202.233 298.666 Q200.057 298.666 197.788 298.296 Q195.543 297.925 193.135 297.185 L193.135 292.486 Q195.219 293.62 197.441 294.175 Q199.663 294.731 202.14 294.731 Q206.145 294.731 208.482 292.625 Q210.82 290.518 210.82 286.907 Q210.82 283.296 208.482 281.189 Q206.145 279.083 202.14 279.083 Q200.265 279.083 198.39 279.5 Q196.538 279.916 194.594 280.796 L194.594 263.435 Z" fill="#000000" fill-rule="nonzero" fill-opacity="1" /><path clip-path="url(#clip770)" d="M36.859 965.001 Q39.1134 965.001 39.1134 968.222 L39.1134 975.758 Q44.4596 976.917 49.6125 976.917 Q55.7638 976.917 60.4981 975.017 Q61.4321 974.631 61.9474 974.631 Q62.9135 974.631 63.6865 975.5 Q64.4594 976.338 64.4594 977.336 Q64.4594 978.173 63.8153 978.721 Q63.1712 979.236 61.1422 979.687 Q58.759 980.235 56.1181 980.235 Q52.9619 980.235 49.9346 979.719 Q46.875 979.204 39.1134 977.465 L39.1134 984.904 L53.7027 988.608 Q58.6302 989.929 60.1438 990.379 Q61.0456 990.669 61.3355 990.766 Q61.6253 990.863 62.3338 991.152 Q63.0102 991.41 63.2678 991.603 Q63.4933 991.797 63.8475 992.119 Q64.234 992.441 64.3306 992.827 Q64.4594 993.214 64.4594 993.697 Q64.4594 994.437 63.9763 995.017 Q63.5255 995.597 62.6559 995.597 Q62.0762 995.597 61.0778 995.082 Q47.8734 988.962 39.1134 986.644 L39.1134 990.379 Q39.1134 995.532 44.2019 998.753 Q44.8783 999.268 44.9427 999.558 Q44.9749 999.687 44.9749 999.816 Q44.9749 1000.17 44.8139 1000.4 Q44.6528 1000.59 44.4918 1000.59 L44.3308 1000.62 Q44.1375 1000.62 43.268 1000.14 Q42.3662 999.623 40.9814 998.656 Q39.5965 997.658 38.4049 996.595 Q37.3099 995.565 36.6336 994.566 Q35.925 993.536 35.6674 992.569 Q35.4097 991.603 35.3453 991.056 Q35.2809 990.508 35.2809 989.735 L35.2809 967.642 Q35.2809 966.805 35.3453 966.354 Q35.3775 965.903 35.764 965.452 Q36.1183 965.001 36.859 965.001 Z" fill="#000000" fill-rule="nonzero" fill-opacity="1" /><path clip-path="url(#clip770)" d="M47.2293 956.268 Q36.0861 956.268 27.1006 952.113 Q23.3325 950.342 20.1764 947.862 Q17.0202 945.382 15.6353 943.74 Q14.2505 942.097 14.2505 941.646 Q14.2505 941.002 14.8946 940.97 Q15.2167 940.97 16.0218 941.84 Q26.843 952.467 47.2293 952.435 Q67.68 952.435 78.0825 942.097 Q79.2097 940.97 79.564 940.97 Q80.2081 940.97 80.2081 941.646 Q80.2081 942.097 78.8877 943.675 Q77.5672 945.253 74.5399 947.701 Q71.5125 950.149 67.8088 951.92 Q58.8234 956.268 47.2293 956.268 Z" fill="#000000" fill-rule="nonzero" fill-opacity="1" /><path clip-path="url(#clip770)" d="M30.7399 907.39 Q36.1505 907.39 42.2374 909.13 Q48.2921 910.836 53.1874 913.542 Q58.0505 916.247 61.271 919.79 Q64.4594 923.332 64.4594 926.714 Q64.4594 928.872 63.2678 930.482 Q62.044 932.06 60.015 932.93 Q57.9538 933.799 55.6994 934.218 Q53.4128 934.637 50.933 934.637 Q47.2293 934.637 43.2036 933.831 Q39.1456 933.026 35.4742 931.674 Q31.7705 930.321 28.4211 928.421 Q25.0395 926.521 22.5918 924.427 Q20.112 922.302 18.6627 919.919 Q17.2134 917.535 17.2134 915.313 Q17.2134 913.703 17.922 912.415 Q18.5983 911.094 19.7899 910.257 Q20.9493 909.419 22.3342 908.84 Q23.719 908.228 25.3293 907.938 Q26.9074 907.648 28.2278 907.519 Q29.5161 907.39 30.7399 907.39 M26.6497 911.738 Q25.0072 911.738 23.7834 911.867 Q22.5274 911.996 21.2714 912.35 Q20.0153 912.704 19.339 913.477 Q18.6627 914.218 18.6627 915.377 Q18.6627 918.759 25.587 922.559 Q27.7447 923.783 30.6755 924.878 Q33.6062 925.973 34.9911 926.36 Q36.3759 926.746 39.7897 927.648 L39.7897 913.864 Q30.9975 911.738 26.6497 911.738 M41.8831 914.444 L41.8831 928.163 Q49.9346 930.289 54.9587 930.289 Q59.3387 930.289 61.1744 929.387 Q62.978 928.453 62.978 926.714 Q62.978 924.717 60.9812 922.849 Q58.9522 920.981 55.2808 919.081 Q50.5143 916.569 41.8831 914.444 Z" fill="#000000" fill-rule="nonzero" fill-opacity="1" /><path clip-path="url(#clip770)" d="M79.564 900.582 Q79.2419 900.582 78.4368 899.745 Q67.6156 889.117 47.2293 889.117 Q26.7786 889.117 16.4405 899.326 Q15.2489 900.582 14.8946 900.582 Q14.2505 900.582 14.2505 899.938 Q14.2505 899.487 15.5709 897.909 Q16.8914 896.299 19.9187 893.884 Q22.9461 891.436 26.6497 889.632 Q35.6352 885.285 47.2293 885.285 Q58.3725 885.285 67.358 889.439 Q71.126 891.21 74.2822 893.69 Q77.4384 896.17 78.8232 897.813 Q80.2081 899.455 80.2081 899.938 Q80.2081 900.582 79.564 900.582 Z" fill="#000000" fill-rule="nonzero" fill-opacity="1" /><path clip-path="url(#clip770)" d="M1133.44 68.3756 Q1133.36 68.7855 1133.19 69.5233 Q1133.03 70.2201 1132.29 72.4335 Q1131.55 74.6469 1130.57 76.9014 Q1129.63 79.1148 1127.78 82.23 Q1125.98 85.3042 1123.77 88.0914 Q1123.15 88.8292 1123.03 89.2801 Q1122.95 89.69 1122.95 91.0427 Q1122.95 99.5684 1125.53 99.5684 Q1125.65 99.5684 1125.86 99.5684 Q1126.1 99.5274 1126.72 99.3225 Q1127.37 99.0766 1127.95 98.7077 Q1128.52 98.2978 1129.18 97.478 Q1129.83 96.6172 1130.24 95.4695 Q1130.61 94.6497 1131.35 94.6497 Q1132.33 94.6497 1132.33 95.4695 Q1132.33 96.9451 1130.28 99.1995 Q1128.23 101.454 1125.28 101.454 Q1122.45 101.454 1120.45 99.6094 Q1118.48 97.7239 1117.66 94.3628 Q1108.81 101.454 1099.95 101.454 Q1093.72 101.454 1090.03 97.396 Q1086.34 93.2971 1086.34 87.2307 Q1086.34 81.4102 1089.54 75.8766 Q1092.78 70.3431 1098.03 66.9 Q1103.31 63.4159 1108.93 63.4159 Q1110.9 63.4159 1112.78 63.9487 Q1114.67 64.4406 1116.55 65.7113 Q1118.44 66.982 1119.83 68.9084 Q1121.23 70.8349 1122.09 73.8681 Q1122.95 76.9014 1122.95 80.7134 L1122.95 85.919 Q1128.36 79.0738 1131.19 69.2774 Q1131.6 67.8017 1131.84 67.6378 Q1132.01 67.5148 1132.42 67.5148 Q1132.83 67.5148 1133.07 67.7607 Q1133.36 67.9657 1133.4 68.1706 L1133.44 68.3756 M1117.33 92.1904 Q1117.17 90.7557 1117.17 82.8038 Q1117.17 81.2872 1117.17 80.4674 Q1117.17 79.6066 1117.09 77.9671 Q1117 76.3275 1116.84 75.3028 Q1116.72 74.278 1116.43 72.8024 Q1116.14 71.3268 1115.73 70.3841 Q1115.32 69.4413 1114.67 68.3756 Q1114.05 67.3099 1113.23 66.695 Q1112.45 66.0802 1111.31 65.6703 Q1110.2 65.2604 1108.85 65.2604 Q1107.17 65.2604 1105.4 65.8752 Q1103.68 66.4491 1101.47 68.2936 Q1099.25 70.0971 1097.41 72.9664 Q1095.48 75.9996 1094.01 81.5741 Q1092.57 87.1077 1092.57 90.4278 Q1092.57 94.6087 1094.5 97.1091 Q1096.43 99.5684 1100.12 99.5684 Q1108.93 99.5684 1117.33 92.1904 Z" fill="#000000" fill-rule="nonzero" fill-opacity="1" /><path clip-path="url(#clip770)" d="M1162.81 87.7635 Q1162.9 86.7388 1164.49 86.7388 L1215.94 86.7388 Q1218.35 86.7388 1218.4 87.6815 Q1218.4 88.7063 1216.1 88.6653 L1165.07 88.6653 Q1162.81 88.7063 1162.81 87.7635 M1162.81 71.3678 Q1162.81 70.3431 1164.58 70.3841 L1215.85 70.3841 Q1218.35 70.3841 1218.4 71.3678 Q1218.4 72.3106 1216.26 72.3106 L1164.49 72.3106 Q1162.81 72.3106 1162.81 71.3678 Z" fill="#000000" fill-rule="nonzero" fill-opacity="1" /><path clip-path="url(#clip770)" d="M1296.11 66.3261 Q1296.11 69.1954 1292.01 69.1954 L1282.42 69.1954 Q1280.94 75.9996 1280.94 82.5579 Q1280.94 90.3868 1283.36 96.4123 Q1283.85 97.6009 1283.85 98.2568 Q1283.85 99.4864 1282.75 100.47 Q1281.68 101.454 1280.41 101.454 Q1279.34 101.454 1278.65 100.634 Q1277.99 99.8144 1277.42 97.232 Q1276.72 94.1988 1276.72 90.8377 Q1276.72 86.8208 1277.38 82.9678 Q1278.03 79.0738 1280.25 69.1954 L1270.78 69.1954 L1266.06 87.7635 Q1264.38 94.0349 1263.81 95.9614 Q1263.44 97.1091 1263.32 97.478 Q1263.19 97.8469 1262.83 98.7486 Q1262.5 99.6094 1262.25 99.9373 Q1262.01 100.224 1261.6 100.675 Q1261.19 101.167 1260.69 101.29 Q1260.2 101.454 1259.59 101.454 Q1258.64 101.454 1257.91 100.839 Q1257.17 100.265 1257.17 99.1585 Q1257.17 98.4207 1257.82 97.1501 Q1265.61 80.3445 1268.56 69.1954 L1263.81 69.1954 Q1257.25 69.1954 1253.15 75.6717 Q1252.5 76.5325 1252.13 76.6144 Q1251.96 76.6554 1251.8 76.6554 Q1251.35 76.6554 1251.06 76.4505 Q1250.82 76.2455 1250.82 76.0406 L1250.77 75.8356 Q1250.77 75.5897 1251.39 74.483 Q1252.04 73.3353 1253.27 71.5727 Q1254.55 69.8102 1255.9 68.2936 Q1257.21 66.9 1258.48 66.0392 Q1259.79 65.1374 1261.02 64.8095 Q1262.25 64.4816 1262.95 64.3996 Q1263.64 64.3176 1264.63 64.3176 L1292.75 64.3176 Q1293.81 64.3176 1294.39 64.3996 Q1294.96 64.4406 1295.53 64.9325 Q1296.11 65.3834 1296.11 66.3261 Z" fill="#000000" fill-rule="nonzero" fill-opacity="1" /><path clip-path="url(#clip770)" d="M1307.22 79.5247 Q1307.22 65.3424 1312.51 53.9064 Q1314.76 49.1106 1317.92 45.0937 Q1321.08 41.0767 1323.17 39.3142 Q1325.26 37.5516 1325.83 37.5516 Q1326.65 37.5516 1326.69 38.3714 Q1326.69 38.7813 1325.59 39.8061 Q1312.06 53.5785 1312.1 79.5247 Q1312.1 105.553 1325.26 118.792 Q1326.69 120.227 1326.69 120.678 Q1326.69 121.498 1325.83 121.498 Q1325.26 121.498 1323.25 119.817 Q1321.24 118.137 1318.13 114.284 Q1315.01 110.431 1312.76 105.717 Q1307.22 94.2808 1307.22 79.5247 Z" fill="#000000" fill-rule="nonzero" fill-opacity="1" /><path clip-path="url(#clip770)" d="M1369.43 58.5382 Q1369.43 65.4244 1367.22 73.1713 Q1365.04 80.8773 1361.6 87.1077 Q1358.16 93.2971 1353.65 97.396 Q1349.14 101.454 1344.84 101.454 Q1342.09 101.454 1340.04 99.9373 Q1338.03 98.3797 1336.93 95.7974 Q1335.82 93.1741 1335.29 90.3048 Q1334.75 87.3946 1334.75 84.2384 Q1334.75 79.5247 1335.78 74.401 Q1336.8 69.2364 1338.52 64.5636 Q1340.25 59.8498 1342.66 55.5869 Q1345.08 51.2831 1347.75 48.1679 Q1350.45 45.0117 1353.48 43.1672 Q1356.52 41.3227 1359.35 41.3227 Q1361.4 41.3227 1363.04 42.2244 Q1364.72 43.0852 1365.78 44.6018 Q1366.85 46.0774 1367.59 47.84 Q1368.36 49.6025 1368.73 51.652 Q1369.1 53.6604 1369.27 55.341 Q1369.43 56.9806 1369.43 58.5382 M1363.9 53.3325 Q1363.9 51.2421 1363.73 49.6845 Q1363.57 48.0859 1363.12 46.4873 Q1362.67 44.8887 1361.68 44.028 Q1360.74 43.1672 1359.26 43.1672 Q1354.96 43.1672 1350.12 51.9799 Q1348.57 54.7262 1347.17 58.4562 Q1345.78 62.1862 1345.29 63.9487 Q1344.8 65.7113 1343.65 70.0561 L1361.19 70.0561 Q1363.9 58.8661 1363.9 53.3325 M1360.45 72.7204 L1342.99 72.7204 Q1340.29 82.9678 1340.29 89.3621 Q1340.29 94.9366 1341.43 97.273 Q1342.62 99.5684 1344.84 99.5684 Q1347.38 99.5684 1349.75 97.0271 Q1352.13 94.4448 1354.55 89.772 Q1357.75 83.7056 1360.45 72.7204 Z" fill="#000000" fill-rule="nonzero" fill-opacity="1" /><path clip-path="url(#clip770)" d="M1378.09 120.678 Q1378.09 120.268 1379.16 119.243 Q1392.69 105.471 1392.69 79.5247 Q1392.69 53.4965 1379.69 40.3389 Q1378.09 38.8223 1378.09 38.3714 Q1378.09 37.5516 1378.91 37.5516 Q1379.49 37.5516 1381.5 39.2322 Q1383.55 40.9128 1386.62 44.7658 Q1389.73 48.6188 1392.03 53.3325 Q1397.56 64.7685 1397.56 79.5247 Q1397.56 93.707 1392.28 105.143 Q1390.02 109.939 1386.87 113.956 Q1383.71 117.973 1381.62 119.735 Q1379.53 121.498 1378.91 121.498 Q1378.09 121.498 1378.09 120.678 Z" fill="#000000" fill-rule="nonzero" fill-opacity="1" /><path clip-path="url(#clip770)" d="M1433.62 87.7635 Q1433.7 86.7388 1435.3 86.7388 L1486.74 86.7388 Q1489.16 86.7388 1489.2 87.6815 Q1489.2 88.7063 1486.9 88.6653 L1435.87 88.6653 Q1433.62 88.7063 1433.62 87.7635 M1433.62 71.3678 Q1433.62 70.3431 1435.38 70.3841 L1486.66 70.3841 Q1489.16 70.3841 1489.2 71.3678 Q1489.2 72.3106 1487.07 72.3106 L1435.3 72.3106 Q1433.62 72.3106 1433.62 71.3678 Z" fill="#000000" fill-rule="nonzero" fill-opacity="1" /><path clip-path="url(#clip770)" d="M1521.58 79.5247 Q1521.58 65.3424 1526.86 53.9064 Q1529.12 49.1106 1532.28 45.0937 Q1535.43 41.0767 1537.52 39.3142 Q1539.61 37.5516 1540.19 37.5516 Q1541.01 37.5516 1541.05 38.3714 Q1541.05 38.7813 1539.94 39.8061 Q1526.41 53.5785 1526.45 79.5247 Q1526.45 105.553 1539.61 118.792 Q1541.05 120.227 1541.05 120.678 Q1541.05 121.498 1540.19 121.498 Q1539.61 121.498 1537.6 119.817 Q1535.6 118.137 1532.48 114.284 Q1529.36 110.431 1527.11 105.717 Q1521.58 94.2808 1521.58 79.5247 Z" fill="#000000" fill-rule="nonzero" fill-opacity="1" /><path clip-path="url(#clip770)" d="M1552.13 52.5947 L1552.13 49.9714 Q1562.21 49.9714 1567.42 44.6018 Q1568.85 44.6018 1569.1 44.9297 Q1569.35 45.2576 1569.35 46.7742 L1569.35 93.8709 Q1569.35 96.3713 1570.58 97.1501 Q1571.81 97.9289 1577.18 97.9289 L1579.84 97.9289 L1579.84 100.511 Q1576.89 100.265 1566.23 100.265 Q1555.57 100.265 1552.66 100.511 L1552.66 97.9289 L1555.33 97.9289 Q1560.62 97.9289 1561.89 97.191 Q1563.16 96.4123 1563.16 93.8709 L1563.16 50.3813 Q1558.77 52.5947 1552.13 52.5947 Z" fill="#000000" fill-rule="nonzero" fill-opacity="1" /><path clip-path="url(#clip770)" d="M1672.41 78.336 Q1672.9 78.8279 1672.9 79.5247 Q1672.9 80.2215 1672.41 80.7134 Q1671.92 81.2052 1671.22 81.2052 L1618.67 81.2052 Q1617.97 81.2052 1617.48 80.7134 Q1616.99 80.2215 1616.99 79.5247 Q1616.99 78.8279 1617.48 78.336 Q1617.97 77.8441 1618.67 77.8441 L1671.22 77.8441 Q1671.92 77.8441 1672.41 78.336 Z" fill="#000000" fill-rule="nonzero" fill-opacity="1" /><path clip-path="url(#clip770)" d="M1739.63 58.5382 Q1739.63 65.4244 1737.41 73.1713 Q1735.24 80.8773 1731.8 87.1077 Q1728.36 93.2971 1723.85 97.396 Q1719.34 101.454 1715.03 101.454 Q1712.29 101.454 1710.24 99.9373 Q1708.23 98.3797 1707.12 95.7974 Q1706.02 93.1741 1705.48 90.3048 Q1704.95 87.3946 1704.95 84.2384 Q1704.95 79.5247 1705.98 74.401 Q1707 69.2364 1708.72 64.5636 Q1710.44 59.8498 1712.86 55.5869 Q1715.28 51.2831 1717.94 48.1679 Q1720.65 45.0117 1723.68 43.1672 Q1726.72 41.3227 1729.54 41.3227 Q1731.59 41.3227 1733.23 42.2244 Q1734.91 43.0852 1735.98 44.6018 Q1737.05 46.0774 1737.78 47.84 Q1738.56 49.6025 1738.93 51.652 Q1739.3 53.6604 1739.46 55.341 Q1739.63 56.9806 1739.63 58.5382 M1734.09 53.3325 Q1734.09 51.2421 1733.93 49.6845 Q1733.77 48.0859 1733.32 46.4873 Q1732.86 44.8887 1731.88 44.028 Q1730.94 43.1672 1729.46 43.1672 Q1725.16 43.1672 1720.32 51.9799 Q1718.76 54.7262 1717.37 58.4562 Q1715.98 62.1862 1715.49 63.9487 Q1714.99 65.7113 1713.85 70.0561 L1731.39 70.0561 Q1734.09 58.8661 1734.09 53.3325 M1730.65 72.7204 L1713.19 72.7204 Q1710.48 82.9678 1710.48 89.3621 Q1710.48 94.9366 1711.63 97.273 Q1712.82 99.5684 1715.03 99.5684 Q1717.58 99.5684 1719.95 97.0271 Q1722.33 94.4448 1724.75 89.772 Q1727.95 83.7056 1730.65 72.7204 Z" fill="#000000" fill-rule="nonzero" fill-opacity="1" /><path clip-path="url(#clip770)" d="M1743.92 120.678 Q1743.92 120.268 1744.99 119.243 Q1758.52 105.471 1758.52 79.5247 Q1758.52 53.4965 1745.52 40.3389 Q1743.92 38.8223 1743.92 38.3714 Q1743.92 37.5516 1744.74 37.5516 Q1745.32 37.5516 1747.33 39.2322 Q1749.38 40.9128 1752.45 44.7658 Q1755.57 48.6188 1757.86 53.3325 Q1763.39 64.7685 1763.39 79.5247 Q1763.39 93.707 1758.11 105.143 Q1755.85 109.939 1752.7 113.956 Q1749.54 117.973 1747.45 119.735 Q1745.36 121.498 1744.74 121.498 Q1743.92 121.498 1743.92 120.678 Z" fill="#000000" fill-rule="nonzero" fill-opacity="1" /><path clip-path="url(#clip770)" d="M1772.17 49.7864 Q1772.17 48.7248 1772.26 48.4091 Q1772.37 48.0935 1772.83 47.6058 L1784.11 35.0384 Q1790.27 28.0949 1790.27 22.0407 Q1790.27 18.1099 1788.21 15.298 Q1786.17 12.4861 1782.41 12.4861 Q1779.83 12.4861 1777.65 14.0642 Q1775.47 15.6423 1774.46 18.4542 Q1774.64 18.3968 1775.24 18.3968 Q1776.7 18.3968 1777.51 19.315 Q1778.34 20.2331 1778.34 21.4669 Q1778.34 23.045 1777.31 23.8197 Q1776.3 24.5657 1775.3 24.5657 Q1774.89 24.5657 1774.35 24.4796 Q1773.83 24.3935 1773 23.5901 Q1772.17 22.7581 1772.17 21.2947 Q1772.17 17.1917 1775.27 13.9208 Q1778.4 10.6498 1783.16 10.6498 Q1788.55 10.6498 1792.08 13.8634 Q1795.64 17.0482 1795.64 22.0407 Q1795.64 23.791 1795.09 25.3978 Q1794.58 26.9758 1793.86 28.2096 Q1793.17 29.4434 1791.28 31.4232 Q1789.38 33.403 1787.86 34.8089 Q1786.34 36.2148 1782.93 39.1988 L1776.7 45.253 L1787.29 45.253 Q1792.45 45.253 1792.86 44.7939 Q1793.43 43.9618 1794.15 39.5719 L1795.64 39.5719 L1793.98 49.7864 L1772.17 49.7864 Z" fill="#000000" fill-rule="nonzero" fill-opacity="1" /><polyline clip-path="url(#clip772)" style="stroke:#009af9; stroke-linecap:round; stroke-linejoin:round; stroke-width:4; stroke-opacity:1; fill:none" points="255.816,186.826 268.127,202.294 280.438,217.683 352.54,306.204 424.643,391.979 458.185,430.946 491.727,469.318 536.686,519.82 581.645,569.253 655.945,648.608 725.037,719.783 811.771,805.563 889.571,879.127 978.625,959.407 1045.19,1016.68 1130.33,1086.52 1208.04,1146.93 1296.48,1211.79 1366.59,1260.27 1453.7,1316.89 1520.4,1357.55 1614.45,1410.86 1684.73,1447.66 1764.65,1486.33 1843.8,1521.31 1930.88,1555.96 1997.4,1579.73 2081.33,1606.4 2158.97,1627.75 2239.03,1646.43 2320.19,1661.91 2362.56,1668.61 2404.93,1674.36 2438.3,1678.23 2471.68,1681.5 2547.69,1686.76 2623.7,1688.97 2632.23,1689.03 2640.76,1689.05 "/>
</svg>
