<?xml version="1.0" encoding="utf-8"?>
<svg xmlns="http://www.w3.org/2000/svg" xmlns:xlink="http://www.w3.org/1999/xlink" width="672" height="480" viewBox="0 0 2688 1920">
<defs>
  <clipPath id="clip460">
    <rect x="0" y="0" width="2688" height="1920"/>
  </clipPath>
</defs>
<path clip-path="url(#clip460)" d="M0 1920 L2688 1920 L2688 0 L0 0  Z" fill="#ffffff" fill-rule="evenodd" fill-opacity="1"/>
<defs>
  <clipPath id="clip461">
    <rect x="537" y="0" width="1883" height="1883"/>
  </clipPath>
</defs>
<path clip-path="url(#clip460)" d="M152.283 1788.63 L2640.76 1788.63 L2640.76 141.759 L152.283 141.759  Z" fill="#ffffff" fill-rule="evenodd" fill-opacity="1"/>
<defs>
  <clipPath id="clip462">
    <rect x="152" y="141" width="2489" height="1648"/>
  </clipPath>
</defs>
<polyline clip-path="url(#clip462)" style="stroke:#000000; stroke-linecap:round; stroke-linejoin:round; stroke-width:2; stroke-opacity:0.1; fill:none" points="152.283,1788.63 152.283,141.759 "/>
<polyline clip-path="url(#clip462)" style="stroke:#000000; stroke-linecap:round; stroke-linejoin:round; stroke-width:2; stroke-opacity:0.1; fill:none" points="774.401,1788.63 774.401,141.759 "/>
<polyline clip-path="url(#clip462)" style="stroke:#000000; stroke-linecap:round; stroke-linejoin:round; stroke-width:2; stroke-opacity:0.1; fill:none" points="1396.52,1788.63 1396.52,141.759 "/>
<polyline clip-path="url(#clip462)" style="stroke:#000000; stroke-linecap:round; stroke-linejoin:round; stroke-width:2; stroke-opacity:0.1; fill:none" points="2018.64,1788.63 2018.64,141.759 "/>
<polyline clip-path="url(#clip462)" style="stroke:#000000; stroke-linecap:round; stroke-linejoin:round; stroke-width:2; stroke-opacity:0.1; fill:none" points="2640.76,1788.63 2640.76,141.759 "/>
<polyline clip-path="url(#clip462)" style="stroke:#000000; stroke-linecap:round; stroke-linejoin:round; stroke-width:2; stroke-opacity:0.1; fill:none" points="152.283,1742.03 2640.76,1742.03 "/>
<polyline clip-path="url(#clip462)" style="stroke:#000000; stroke-linecap:round; stroke-linejoin:round; stroke-width:2; stroke-opacity:0.1; fill:none" points="152.283,1256.51 2640.76,1256.51 "/>
<polyline clip-path="url(#clip462)" style="stroke:#000000; stroke-linecap:round; stroke-linejoin:round; stroke-width:2; stroke-opacity:0.1; fill:none" points="152.283,770.99 2640.76,770.99 "/>
<polyline clip-path="url(#clip462)" style="stroke:#000000; stroke-linecap:round; stroke-linejoin:round; stroke-width:2; stroke-opacity:0.1; fill:none" points="152.283,285.472 2640.76,285.472 "/>
<polyline clip-path="url(#clip460)" style="stroke:#000000; stroke-linecap:round; stroke-linejoin:round; stroke-width:4; stroke-opacity:1; fill:none" points="152.283,1788.63 2640.76,1788.63 "/>
<polyline clip-path="url(#clip460)" style="stroke:#000000; stroke-linecap:round; stroke-linejoin:round; stroke-width:4; stroke-opacity:1; fill:none" points="152.283,1788.63 152.283,1769.74 "/>
<polyline clip-path="url(#clip460)" style="stroke:#000000; stroke-linecap:round; stroke-linejoin:round; stroke-width:4; stroke-opacity:1; fill:none" points="774.401,1788.63 774.401,1769.74 "/>
<polyline clip-path="url(#clip460)" style="stroke:#000000; stroke-linecap:round; stroke-linejoin:round; stroke-width:4; stroke-opacity:1; fill:none" points="1396.52,1788.63 1396.52,1769.74 "/>
<polyline clip-path="url(#clip460)" style="stroke:#000000; stroke-linecap:round; stroke-linejoin:round; stroke-width:4; stroke-opacity:1; fill:none" points="2018.64,1788.63 2018.64,1769.74 "/>
<polyline clip-path="url(#clip460)" style="stroke:#000000; stroke-linecap:round; stroke-linejoin:round; stroke-width:4; stroke-opacity:1; fill:none" points="2640.76,1788.63 2640.76,1769.74 "/>
<path clip-path="url(#clip460)" d="M129.586 1821.86 Q125.975 1821.86 124.146 1825.42 Q122.341 1828.96 122.341 1836.09 Q122.341 1843.2 124.146 1846.76 Q125.975 1850.31 129.586 1850.31 Q133.22 1850.31 135.026 1846.76 Q136.854 1843.2 136.854 1836.09 Q136.854 1828.96 135.026 1825.42 Q133.22 1821.86 129.586 1821.86 M129.586 1818.15 Q135.396 1818.15 138.452 1822.76 Q141.53 1827.34 141.53 1836.09 Q141.53 1844.82 138.452 1849.43 Q135.396 1854.01 129.586 1854.01 Q123.776 1854.01 120.697 1849.43 Q117.642 1844.82 117.642 1836.09 Q117.642 1827.34 120.697 1822.76 Q123.776 1818.15 129.586 1818.15 Z" fill="#000000" fill-rule="nonzero" fill-opacity="1" /><path clip-path="url(#clip460)" d="M149.748 1847.46 L154.632 1847.46 L154.632 1853.34 L149.748 1853.34 L149.748 1847.46 Z" fill="#000000" fill-rule="nonzero" fill-opacity="1" /><path clip-path="url(#clip460)" d="M175.396 1834.2 Q172.248 1834.2 170.396 1836.35 Q168.567 1838.5 168.567 1842.25 Q168.567 1845.98 170.396 1848.15 Q172.248 1850.31 175.396 1850.31 Q178.544 1850.31 180.373 1848.15 Q182.225 1845.98 182.225 1842.25 Q182.225 1838.5 180.373 1836.35 Q178.544 1834.2 175.396 1834.2 M184.678 1819.54 L184.678 1823.8 Q182.919 1822.97 181.114 1822.53 Q179.331 1822.09 177.572 1822.09 Q172.942 1822.09 170.489 1825.21 Q168.058 1828.34 167.711 1834.66 Q169.077 1832.64 171.137 1831.58 Q173.197 1830.49 175.674 1830.49 Q180.882 1830.49 183.891 1833.66 Q186.924 1836.81 186.924 1842.25 Q186.924 1847.57 183.776 1850.79 Q180.627 1854.01 175.396 1854.01 Q169.401 1854.01 166.229 1849.43 Q163.058 1844.82 163.058 1836.09 Q163.058 1827.9 166.947 1823.04 Q170.836 1818.15 177.387 1818.15 Q179.146 1818.15 180.928 1818.5 Q182.734 1818.85 184.678 1819.54 Z" fill="#000000" fill-rule="nonzero" fill-opacity="1" /><path clip-path="url(#clip460)" d="M752.237 1821.86 Q748.626 1821.86 746.797 1825.42 Q744.991 1828.96 744.991 1836.09 Q744.991 1843.2 746.797 1846.76 Q748.626 1850.31 752.237 1850.31 Q755.871 1850.31 757.677 1846.76 Q759.505 1843.2 759.505 1836.09 Q759.505 1828.96 757.677 1825.42 Q755.871 1821.86 752.237 1821.86 M752.237 1818.15 Q758.047 1818.15 761.102 1822.76 Q764.181 1827.34 764.181 1836.09 Q764.181 1844.82 761.102 1849.43 Q758.047 1854.01 752.237 1854.01 Q746.427 1854.01 743.348 1849.43 Q740.292 1844.82 740.292 1836.09 Q740.292 1827.34 743.348 1822.76 Q746.427 1818.15 752.237 1818.15 Z" fill="#000000" fill-rule="nonzero" fill-opacity="1" /><path clip-path="url(#clip460)" d="M772.399 1847.46 L777.283 1847.46 L777.283 1853.34 L772.399 1853.34 L772.399 1847.46 Z" fill="#000000" fill-rule="nonzero" fill-opacity="1" /><path clip-path="url(#clip460)" d="M786.287 1818.78 L808.51 1818.78 L808.51 1820.77 L795.963 1853.34 L791.079 1853.34 L802.885 1822.71 L786.287 1822.71 L786.287 1818.78 Z" fill="#000000" fill-rule="nonzero" fill-opacity="1" /><path clip-path="url(#clip460)" d="M1373.95 1821.86 Q1370.34 1821.86 1368.51 1825.42 Q1366.7 1828.96 1366.7 1836.09 Q1366.7 1843.2 1368.51 1846.76 Q1370.34 1850.31 1373.95 1850.31 Q1377.58 1850.31 1379.39 1846.76 Q1381.22 1843.2 1381.22 1836.09 Q1381.22 1828.96 1379.39 1825.42 Q1377.58 1821.86 1373.95 1821.86 M1373.95 1818.15 Q1379.76 1818.15 1382.82 1822.76 Q1385.89 1827.34 1385.89 1836.09 Q1385.89 1844.82 1382.82 1849.43 Q1379.76 1854.01 1373.95 1854.01 Q1368.14 1854.01 1365.06 1849.43 Q1362.01 1844.82 1362.01 1836.09 Q1362.01 1827.34 1365.06 1822.76 Q1368.14 1818.15 1373.95 1818.15 Z" fill="#000000" fill-rule="nonzero" fill-opacity="1" /><path clip-path="url(#clip460)" d="M1394.11 1847.46 L1399 1847.46 L1399 1853.34 L1394.11 1853.34 L1394.11 1847.46 Z" fill="#000000" fill-rule="nonzero" fill-opacity="1" /><path clip-path="url(#clip460)" d="M1419.18 1836.93 Q1415.85 1836.93 1413.93 1838.71 Q1412.03 1840.49 1412.03 1843.62 Q1412.03 1846.74 1413.93 1848.52 Q1415.85 1850.31 1419.18 1850.31 Q1422.51 1850.31 1424.44 1848.52 Q1426.36 1846.72 1426.36 1843.62 Q1426.36 1840.49 1424.44 1838.71 Q1422.54 1836.93 1419.18 1836.93 M1414.51 1834.94 Q1411.5 1834.2 1409.81 1832.14 Q1408.14 1830.08 1408.14 1827.11 Q1408.14 1822.97 1411.08 1820.56 Q1414.04 1818.15 1419.18 1818.15 Q1424.34 1818.15 1427.28 1820.56 Q1430.22 1822.97 1430.22 1827.11 Q1430.22 1830.08 1428.53 1832.14 Q1426.87 1834.2 1423.88 1834.94 Q1427.26 1835.72 1429.13 1838.01 Q1431.03 1840.31 1431.03 1843.62 Q1431.03 1848.64 1427.95 1851.32 Q1424.9 1854.01 1419.18 1854.01 Q1413.46 1854.01 1410.38 1851.32 Q1407.33 1848.64 1407.33 1843.62 Q1407.33 1840.31 1409.23 1838.01 Q1411.13 1835.72 1414.51 1834.94 M1412.79 1827.55 Q1412.79 1830.24 1414.46 1831.74 Q1416.15 1833.25 1419.18 1833.25 Q1422.19 1833.25 1423.88 1831.74 Q1425.59 1830.24 1425.59 1827.55 Q1425.59 1824.87 1423.88 1823.36 Q1422.19 1821.86 1419.18 1821.86 Q1416.15 1821.86 1414.46 1823.36 Q1412.79 1824.87 1412.79 1827.55 Z" fill="#000000" fill-rule="nonzero" fill-opacity="1" /><path clip-path="url(#clip460)" d="M1996.11 1821.86 Q1992.5 1821.86 1990.67 1825.42 Q1988.87 1828.96 1988.87 1836.09 Q1988.87 1843.2 1990.67 1846.76 Q1992.5 1850.31 1996.11 1850.31 Q1999.75 1850.31 2001.55 1846.76 Q2003.38 1843.2 2003.38 1836.09 Q2003.38 1828.96 2001.55 1825.42 Q1999.75 1821.86 1996.11 1821.86 M1996.11 1818.15 Q2001.92 1818.15 2004.98 1822.76 Q2008.06 1827.34 2008.06 1836.09 Q2008.06 1844.82 2004.98 1849.43 Q2001.92 1854.01 1996.11 1854.01 Q1990.3 1854.01 1987.23 1849.43 Q1984.17 1844.82 1984.17 1836.09 Q1984.17 1827.34 1987.23 1822.76 Q1990.3 1818.15 1996.11 1818.15 Z" fill="#000000" fill-rule="nonzero" fill-opacity="1" /><path clip-path="url(#clip460)" d="M2016.28 1847.46 L2021.16 1847.46 L2021.16 1853.34 L2016.28 1853.34 L2016.28 1847.46 Z" fill="#000000" fill-rule="nonzero" fill-opacity="1" /><path clip-path="url(#clip460)" d="M2031.48 1852.62 L2031.48 1848.36 Q2033.24 1849.2 2035.05 1849.64 Q2036.86 1850.07 2038.59 1850.07 Q2043.22 1850.07 2045.65 1846.97 Q2048.11 1843.85 2048.45 1837.51 Q2047.11 1839.5 2045.05 1840.56 Q2042.99 1841.63 2040.49 1841.63 Q2035.3 1841.63 2032.27 1838.5 Q2029.26 1835.35 2029.26 1829.91 Q2029.26 1824.59 2032.41 1821.37 Q2035.56 1818.15 2040.79 1818.15 Q2046.79 1818.15 2049.93 1822.76 Q2053.11 1827.34 2053.11 1836.09 Q2053.11 1844.26 2049.22 1849.15 Q2045.35 1854.01 2038.8 1854.01 Q2037.04 1854.01 2035.23 1853.66 Q2033.43 1853.32 2031.48 1852.62 M2040.79 1837.97 Q2043.94 1837.97 2045.77 1835.82 Q2047.62 1833.66 2047.62 1829.91 Q2047.62 1826.19 2045.77 1824.03 Q2043.94 1821.86 2040.79 1821.86 Q2037.64 1821.86 2035.79 1824.03 Q2033.96 1826.19 2033.96 1829.91 Q2033.96 1833.66 2035.79 1835.82 Q2037.64 1837.97 2040.79 1837.97 Z" fill="#000000" fill-rule="nonzero" fill-opacity="1" /><path clip-path="url(#clip460)" d="M2607.91 1849.4 L2615.55 1849.4 L2615.55 1823.04 L2607.24 1824.7 L2607.24 1820.45 L2615.5 1818.78 L2620.18 1818.78 L2620.18 1849.4 L2627.82 1849.4 L2627.82 1853.34 L2607.91 1853.34 L2607.91 1849.4 Z" fill="#000000" fill-rule="nonzero" fill-opacity="1" /><path clip-path="url(#clip460)" d="M2637.26 1847.46 L2642.14 1847.46 L2642.14 1853.34 L2637.26 1853.34 L2637.26 1847.46 Z" fill="#000000" fill-rule="nonzero" fill-opacity="1" /><path clip-path="url(#clip460)" d="M2662.33 1821.86 Q2658.72 1821.86 2656.89 1825.42 Q2655.08 1828.96 2655.08 1836.09 Q2655.08 1843.2 2656.89 1846.76 Q2658.72 1850.31 2662.33 1850.31 Q2665.96 1850.31 2667.77 1846.76 Q2669.6 1843.2 2669.6 1836.09 Q2669.6 1828.96 2667.77 1825.42 Q2665.96 1821.86 2662.33 1821.86 M2662.33 1818.15 Q2668.14 1818.15 2671.2 1822.76 Q2674.27 1827.34 2674.27 1836.09 Q2674.27 1844.82 2671.2 1849.43 Q2668.14 1854.01 2662.33 1854.01 Q2656.52 1854.01 2653.44 1849.43 Q2650.39 1844.82 2650.39 1836.09 Q2650.39 1827.34 2653.44 1822.76 Q2656.52 1818.15 2662.33 1818.15 Z" fill="#000000" fill-rule="nonzero" fill-opacity="1" /><path clip-path="url(#clip460)" d="M1408.45 1898.99 Q1408.45 1904.4 1406.72 1910.49 Q1405.01 1916.54 1402.3 1921.44 Q1399.6 1926.3 1396.06 1929.52 Q1392.51 1932.71 1389.13 1932.71 Q1386.97 1932.71 1385.36 1931.52 Q1383.78 1930.29 1382.92 1928.27 Q1382.05 1926.2 1381.63 1923.95 Q1381.21 1921.66 1381.21 1919.18 Q1381.21 1915.48 1382.01 1911.45 Q1382.82 1907.4 1384.17 1903.72 Q1385.52 1900.02 1387.42 1896.67 Q1389.32 1893.29 1391.42 1890.84 Q1393.54 1888.36 1395.93 1886.91 Q1398.31 1885.46 1400.53 1885.46 Q1402.14 1885.46 1403.43 1886.17 Q1404.75 1886.85 1405.59 1888.04 Q1406.43 1889.2 1407.01 1890.58 Q1407.62 1891.97 1407.91 1893.58 Q1408.2 1895.16 1408.33 1896.48 Q1408.45 1897.77 1408.45 1898.99 M1404.11 1894.9 Q1404.11 1893.26 1403.98 1892.03 Q1403.85 1890.78 1403.49 1889.52 Q1403.14 1888.27 1402.37 1887.59 Q1401.63 1886.91 1400.47 1886.91 Q1397.09 1886.91 1393.29 1893.84 Q1392.06 1896 1390.97 1898.93 Q1389.87 1901.86 1389.49 1903.24 Q1389.1 1904.63 1388.2 1908.04 L1401.98 1908.04 Q1404.11 1899.25 1404.11 1894.9 M1401.4 1910.13 L1387.68 1910.13 Q1385.56 1918.19 1385.56 1923.21 Q1385.56 1927.59 1386.46 1929.43 Q1387.39 1931.23 1389.13 1931.23 Q1391.13 1931.23 1393 1929.23 Q1394.86 1927.2 1396.76 1923.53 Q1399.28 1918.76 1401.4 1910.13 Z" fill="#000000" fill-rule="nonzero" fill-opacity="1" /><polyline clip-path="url(#clip460)" style="stroke:#000000; stroke-linecap:round; stroke-linejoin:round; stroke-width:4; stroke-opacity:1; fill:none" points="152.283,1788.63 152.283,141.759 "/>
<polyline clip-path="url(#clip460)" style="stroke:#000000; stroke-linecap:round; stroke-linejoin:round; stroke-width:4; stroke-opacity:1; fill:none" points="152.283,1742.03 171.18,1742.03 "/>
<polyline clip-path="url(#clip460)" style="stroke:#000000; stroke-linecap:round; stroke-linejoin:round; stroke-width:4; stroke-opacity:1; fill:none" points="152.283,1256.51 171.18,1256.51 "/>
<polyline clip-path="url(#clip460)" style="stroke:#000000; stroke-linecap:round; stroke-linejoin:round; stroke-width:4; stroke-opacity:1; fill:none" points="152.283,770.99 171.18,770.99 "/>
<polyline clip-path="url(#clip460)" style="stroke:#000000; stroke-linecap:round; stroke-linejoin:round; stroke-width:4; stroke-opacity:1; fill:none" points="152.283,285.472 171.18,285.472 "/>
<path clip-path="url(#clip460)" d="M24.6252 1727.82 Q21.0141 1727.82 19.1854 1731.39 Q17.3798 1734.93 17.3798 1742.06 Q17.3798 1749.17 19.1854 1752.73 Q21.0141 1756.27 24.6252 1756.27 Q28.2594 1756.27 30.0649 1752.73 Q31.8936 1749.17 31.8936 1742.06 Q31.8936 1734.93 30.0649 1731.39 Q28.2594 1727.82 24.6252 1727.82 M24.6252 1724.12 Q30.4353 1724.12 33.4909 1728.73 Q36.5695 1733.31 36.5695 1742.06 Q36.5695 1750.79 33.4909 1755.39 Q30.4353 1759.98 24.6252 1759.98 Q18.815 1759.98 15.7363 1755.39 Q12.6808 1750.79 12.6808 1742.06 Q12.6808 1733.31 15.7363 1728.73 Q18.815 1724.12 24.6252 1724.12 Z" fill="#000000" fill-rule="nonzero" fill-opacity="1" /><path clip-path="url(#clip460)" d="M44.7871 1753.43 L49.6713 1753.43 L49.6713 1759.31 L44.7871 1759.31 L44.7871 1753.43 Z" fill="#000000" fill-rule="nonzero" fill-opacity="1" /><path clip-path="url(#clip460)" d="M69.8564 1727.82 Q66.2453 1727.82 64.4166 1731.39 Q62.6111 1734.93 62.6111 1742.06 Q62.6111 1749.17 64.4166 1752.73 Q66.2453 1756.27 69.8564 1756.27 Q73.4906 1756.27 75.2962 1752.73 Q77.1249 1749.17 77.1249 1742.06 Q77.1249 1734.93 75.2962 1731.39 Q73.4906 1727.82 69.8564 1727.82 M69.8564 1724.12 Q75.6666 1724.12 78.7221 1728.73 Q81.8008 1733.31 81.8008 1742.06 Q81.8008 1750.79 78.7221 1755.39 Q75.6666 1759.98 69.8564 1759.98 Q64.0462 1759.98 60.9676 1755.39 Q57.912 1750.79 57.912 1742.06 Q57.912 1733.31 60.9676 1728.73 Q64.0462 1724.12 69.8564 1724.12 Z" fill="#000000" fill-rule="nonzero" fill-opacity="1" /><path clip-path="url(#clip460)" d="M100.018 1727.82 Q96.4072 1727.82 94.5785 1731.39 Q92.7729 1734.93 92.7729 1742.06 Q92.7729 1749.17 94.5785 1752.73 Q96.4072 1756.27 100.018 1756.27 Q103.653 1756.27 105.458 1752.73 Q107.287 1749.17 107.287 1742.06 Q107.287 1734.93 105.458 1731.39 Q103.653 1727.82 100.018 1727.82 M100.018 1724.12 Q105.828 1724.12 108.884 1728.73 Q111.963 1733.31 111.963 1742.06 Q111.963 1750.79 108.884 1755.39 Q105.828 1759.98 100.018 1759.98 Q94.2081 1759.98 91.1294 1755.39 Q88.0739 1750.79 88.0739 1742.06 Q88.0739 1733.31 91.1294 1728.73 Q94.2081 1724.12 100.018 1724.12 Z" fill="#000000" fill-rule="nonzero" fill-opacity="1" /><path clip-path="url(#clip460)" d="M25.6205 1242.31 Q22.0094 1242.31 20.1807 1245.87 Q18.3752 1249.41 18.3752 1256.54 Q18.3752 1263.65 20.1807 1267.21 Q22.0094 1270.76 25.6205 1270.76 Q29.2548 1270.76 31.0603 1267.21 Q32.889 1263.65 32.889 1256.54 Q32.889 1249.41 31.0603 1245.87 Q29.2548 1242.31 25.6205 1242.31 M25.6205 1238.6 Q31.4307 1238.6 34.4862 1243.21 Q37.5649 1247.79 37.5649 1256.54 Q37.5649 1265.27 34.4862 1269.88 Q31.4307 1274.46 25.6205 1274.46 Q19.8104 1274.46 16.7317 1269.88 Q13.6761 1265.27 13.6761 1256.54 Q13.6761 1247.79 16.7317 1243.21 Q19.8104 1238.6 25.6205 1238.6 Z" fill="#000000" fill-rule="nonzero" fill-opacity="1" /><path clip-path="url(#clip460)" d="M45.7825 1267.91 L50.6667 1267.91 L50.6667 1273.79 L45.7825 1273.79 L45.7825 1267.91 Z" fill="#000000" fill-rule="nonzero" fill-opacity="1" /><path clip-path="url(#clip460)" d="M70.8518 1242.31 Q67.2407 1242.31 65.412 1245.87 Q63.6064 1249.41 63.6064 1256.54 Q63.6064 1263.65 65.412 1267.21 Q67.2407 1270.76 70.8518 1270.76 Q74.486 1270.76 76.2916 1267.21 Q78.1202 1263.65 78.1202 1256.54 Q78.1202 1249.41 76.2916 1245.87 Q74.486 1242.31 70.8518 1242.31 M70.8518 1238.6 Q76.6619 1238.6 79.7175 1243.21 Q82.7961 1247.79 82.7961 1256.54 Q82.7961 1265.27 79.7175 1269.88 Q76.6619 1274.46 70.8518 1274.46 Q65.0416 1274.46 61.9629 1269.88 Q58.9074 1265.27 58.9074 1256.54 Q58.9074 1247.79 61.9629 1243.21 Q65.0416 1238.6 70.8518 1238.6 Z" fill="#000000" fill-rule="nonzero" fill-opacity="1" /><path clip-path="url(#clip460)" d="M91.06 1239.23 L109.416 1239.23 L109.416 1243.16 L95.3424 1243.16 L95.3424 1251.63 Q96.3609 1251.29 97.3794 1251.13 Q98.3979 1250.94 99.4164 1250.94 Q105.203 1250.94 108.583 1254.11 Q111.963 1257.28 111.963 1262.7 Q111.963 1268.28 108.49 1271.38 Q105.018 1274.46 98.6988 1274.46 Q96.5229 1274.46 94.2544 1274.09 Q92.0091 1273.72 89.6017 1272.98 L89.6017 1268.28 Q91.685 1269.41 93.9072 1269.97 Q96.1294 1270.52 98.6062 1270.52 Q102.611 1270.52 104.949 1268.42 Q107.287 1266.31 107.287 1262.7 Q107.287 1259.09 104.949 1256.98 Q102.611 1254.88 98.6062 1254.88 Q96.7313 1254.88 94.8563 1255.29 Q93.0044 1255.71 91.06 1256.59 L91.06 1239.23 Z" fill="#000000" fill-rule="nonzero" fill-opacity="1" /><path clip-path="url(#clip460)" d="M24.6252 756.789 Q21.0141 756.789 19.1854 760.353 Q17.3798 763.895 17.3798 771.025 Q17.3798 778.131 19.1854 781.696 Q21.0141 785.238 24.6252 785.238 Q28.2594 785.238 30.0649 781.696 Q31.8936 778.131 31.8936 771.025 Q31.8936 763.895 30.0649 760.353 Q28.2594 756.789 24.6252 756.789 M24.6252 753.085 Q30.4353 753.085 33.4909 757.691 Q36.5695 762.275 36.5695 771.025 Q36.5695 779.751 33.4909 784.358 Q30.4353 788.941 24.6252 788.941 Q18.815 788.941 15.7363 784.358 Q12.6808 779.751 12.6808 771.025 Q12.6808 762.275 15.7363 757.691 Q18.815 753.085 24.6252 753.085 Z" fill="#000000" fill-rule="nonzero" fill-opacity="1" /><path clip-path="url(#clip460)" d="M44.7871 782.39 L49.6713 782.39 L49.6713 788.27 L44.7871 788.27 L44.7871 782.39 Z" fill="#000000" fill-rule="nonzero" fill-opacity="1" /><path clip-path="url(#clip460)" d="M60.6666 784.335 L68.3055 784.335 L68.3055 757.969 L59.9953 759.636 L59.9953 755.377 L68.2592 753.71 L72.9351 753.71 L72.9351 784.335 L80.5739 784.335 L80.5739 788.27 L60.6666 788.27 L60.6666 784.335 Z" fill="#000000" fill-rule="nonzero" fill-opacity="1" /><path clip-path="url(#clip460)" d="M100.018 756.789 Q96.4072 756.789 94.5785 760.353 Q92.7729 763.895 92.7729 771.025 Q92.7729 778.131 94.5785 781.696 Q96.4072 785.238 100.018 785.238 Q103.653 785.238 105.458 781.696 Q107.287 778.131 107.287 771.025 Q107.287 763.895 105.458 760.353 Q103.653 756.789 100.018 756.789 M100.018 753.085 Q105.828 753.085 108.884 757.691 Q111.963 762.275 111.963 771.025 Q111.963 779.751 108.884 784.358 Q105.828 788.941 100.018 788.941 Q94.2081 788.941 91.1294 784.358 Q88.0739 779.751 88.0739 771.025 Q88.0739 762.275 91.1294 757.691 Q94.2081 753.085 100.018 753.085 Z" fill="#000000" fill-rule="nonzero" fill-opacity="1" /><path clip-path="url(#clip460)" d="M25.6205 271.271 Q22.0094 271.271 20.1807 274.836 Q18.3752 278.377 18.3752 285.507 Q18.3752 292.614 20.1807 296.178 Q22.0094 299.72 25.6205 299.72 Q29.2548 299.72 31.0603 296.178 Q32.889 292.614 32.889 285.507 Q32.889 278.377 31.0603 274.836 Q29.2548 271.271 25.6205 271.271 M25.6205 267.567 Q31.4307 267.567 34.4862 272.174 Q37.5649 276.757 37.5649 285.507 Q37.5649 294.234 34.4862 298.84 Q31.4307 303.424 25.6205 303.424 Q19.8104 303.424 16.7317 298.84 Q13.6761 294.234 13.6761 285.507 Q13.6761 276.757 16.7317 272.174 Q19.8104 267.567 25.6205 267.567 Z" fill="#000000" fill-rule="nonzero" fill-opacity="1" /><path clip-path="url(#clip460)" d="M45.7825 296.873 L50.6667 296.873 L50.6667 302.752 L45.7825 302.752 L45.7825 296.873 Z" fill="#000000" fill-rule="nonzero" fill-opacity="1" /><path clip-path="url(#clip460)" d="M61.662 298.817 L69.3008 298.817 L69.3008 272.452 L60.9907 274.118 L60.9907 269.859 L69.2546 268.192 L73.9305 268.192 L73.9305 298.817 L81.5693 298.817 L81.5693 302.752 L61.662 302.752 L61.662 298.817 Z" fill="#000000" fill-rule="nonzero" fill-opacity="1" /><path clip-path="url(#clip460)" d="M91.06 268.192 L109.416 268.192 L109.416 272.128 L95.3424 272.128 L95.3424 280.6 Q96.3609 280.252 97.3794 280.09 Q98.3979 279.905 99.4164 279.905 Q105.203 279.905 108.583 283.077 Q111.963 286.248 111.963 291.664 Q111.963 297.243 108.49 300.345 Q105.018 303.424 98.6988 303.424 Q96.5229 303.424 94.2544 303.053 Q92.0091 302.683 89.6017 301.942 L89.6017 297.243 Q91.685 298.377 93.9072 298.933 Q96.1294 299.488 98.6062 299.488 Q102.611 299.488 104.949 297.382 Q107.287 295.276 107.287 291.664 Q107.287 288.053 104.949 285.947 Q102.611 283.84 98.6062 283.84 Q96.7313 283.84 94.8563 284.257 Q93.0044 284.674 91.06 285.553 L91.06 268.192 Z" fill="#000000" fill-rule="nonzero" fill-opacity="1" /><path clip-path="url(#clip460)" d="M-66.6747 992.26 Q-64.4202 992.26 -64.4202 995.481 L-64.4202 1003.02 Q-59.0741 1004.18 -53.9211 1004.18 Q-47.7698 1004.18 -43.0356 1002.28 Q-42.1016 1001.89 -41.5863 1001.89 Q-40.6201 1001.89 -39.8472 1002.76 Q-39.0742 1003.6 -39.0742 1004.6 Q-39.0742 1005.43 -39.7184 1005.98 Q-40.3625 1006.5 -42.3914 1006.95 Q-44.7747 1007.49 -47.4156 1007.49 Q-50.5717 1007.49 -53.5991 1006.98 Q-56.6586 1006.46 -64.4202 1004.72 L-64.4202 1012.16 L-49.831 1015.87 Q-44.9035 1017.19 -43.3898 1017.64 Q-42.4881 1017.93 -42.1982 1018.02 Q-41.9083 1018.12 -41.1998 1018.41 Q-40.5235 1018.67 -40.2658 1018.86 Q-40.0404 1019.06 -39.6861 1019.38 Q-39.2997 1019.7 -39.2031 1020.09 Q-39.0742 1020.47 -39.0742 1020.96 Q-39.0742 1021.7 -39.5573 1022.28 Q-40.0082 1022.86 -40.8778 1022.86 Q-41.4575 1022.86 -42.4558 1022.34 Q-55.6603 1016.22 -64.4202 1013.9 L-64.4202 1017.64 Q-64.4202 1022.79 -59.3317 1026.01 Q-58.6554 1026.53 -58.591 1026.82 Q-58.5588 1026.95 -58.5588 1027.07 Q-58.5588 1027.43 -58.7198 1027.65 Q-58.8808 1027.85 -59.0419 1027.85 L-59.2029 1027.88 Q-59.3961 1027.88 -60.2657 1027.4 Q-61.1675 1026.88 -62.5523 1025.92 Q-63.9372 1024.92 -65.1288 1023.85 Q-66.2238 1022.82 -66.9001 1021.83 Q-67.6086 1020.79 -67.8663 1019.83 Q-68.1239 1018.86 -68.1883 1018.31 Q-68.2527 1017.77 -68.2527 1016.99 L-68.2527 994.901 Q-68.2527 994.064 -68.1883 993.613 Q-68.1561 993.162 -67.7697 992.711 Q-67.4154 992.26 -66.6747 992.26 Z" fill="#000000" fill-rule="nonzero" fill-opacity="1" /><path clip-path="url(#clip460)" d="M-56.3044 983.527 Q-67.4476 983.527 -76.433 979.372 Q-80.2011 977.601 -83.3573 975.121 Q-86.5135 972.641 -87.8983 970.999 Q-89.2832 969.356 -89.2832 968.905 Q-89.2832 968.261 -88.6391 968.229 Q-88.317 968.229 -87.5118 969.098 Q-76.6907 979.726 -56.3044 979.694 Q-35.8536 979.694 -25.4512 969.356 Q-24.3239 968.229 -23.9697 968.229 Q-23.3256 968.229 -23.3256 968.905 Q-23.3256 969.356 -24.646 970.934 Q-25.9664 972.512 -28.9938 974.96 Q-32.0211 977.408 -35.7248 979.179 Q-44.7103 983.527 -56.3044 983.527 Z" fill="#000000" fill-rule="nonzero" fill-opacity="1" /><path clip-path="url(#clip460)" d="M-72.7938 934.649 Q-67.3832 934.649 -61.2963 936.388 Q-55.2416 938.095 -50.3463 940.801 Q-45.4832 943.506 -42.2626 947.049 Q-39.0742 950.591 -39.0742 953.973 Q-39.0742 956.131 -40.2658 957.741 Q-41.4897 959.319 -43.5186 960.189 Q-45.5798 961.058 -47.8342 961.477 Q-50.1208 961.896 -52.6007 961.896 Q-56.3044 961.896 -60.3301 961.09 Q-64.388 960.285 -68.0595 958.933 Q-71.7632 957.58 -75.1126 955.68 Q-78.4942 953.78 -80.9419 951.686 Q-83.4217 949.561 -84.871 947.177 Q-86.3202 944.794 -86.3202 942.572 Q-86.3202 940.962 -85.6117 939.673 Q-84.9354 938.353 -83.7438 937.516 Q-82.5844 936.678 -81.1995 936.099 Q-79.8146 935.487 -78.2044 935.197 Q-76.6263 934.907 -75.3058 934.778 Q-74.0176 934.649 -72.7938 934.649 M-76.8839 938.997 Q-78.5264 938.997 -79.7502 939.126 Q-81.0063 939.255 -82.2623 939.609 Q-83.5183 939.963 -84.1946 940.736 Q-84.871 941.477 -84.871 942.636 Q-84.871 946.018 -77.9467 949.818 Q-75.7889 951.042 -72.8582 952.137 Q-69.9274 953.232 -68.5426 953.619 Q-67.1577 954.005 -63.7439 954.907 L-63.7439 941.123 Q-72.5361 938.997 -76.8839 938.997 M-61.6505 941.702 L-61.6505 955.422 Q-53.5991 957.548 -48.575 957.548 Q-44.195 957.548 -42.3592 956.646 Q-40.5557 955.712 -40.5557 953.973 Q-40.5557 951.976 -42.5525 950.108 Q-44.5814 948.24 -48.2529 946.34 Q-53.0194 943.828 -61.6505 941.702 Z" fill="#000000" fill-rule="nonzero" fill-opacity="1" /><path clip-path="url(#clip460)" d="M-23.9697 927.841 Q-24.2917 927.841 -25.0969 927.004 Q-35.9181 916.376 -56.3044 916.376 Q-76.7551 916.376 -87.0932 926.585 Q-88.2848 927.841 -88.6391 927.841 Q-89.2832 927.841 -89.2832 927.197 Q-89.2832 926.746 -87.9627 925.168 Q-86.6423 923.558 -83.6149 921.142 Q-80.5876 918.695 -76.8839 916.891 Q-67.8985 912.543 -56.3044 912.543 Q-45.1611 912.543 -36.1757 916.698 Q-32.4076 918.469 -29.2514 920.949 Q-26.0953 923.429 -24.7104 925.072 Q-23.3256 926.714 -23.3256 927.197 Q-23.3256 927.841 -23.9697 927.841 Z" fill="#000000" fill-rule="nonzero" fill-opacity="1" /><path clip-path="url(#clip460)" d="M1081.67 68.3756 Q1081.59 68.7855 1081.43 69.5233 Q1081.26 70.2201 1080.53 72.4335 Q1079.79 74.6469 1078.8 76.9014 Q1077.86 79.1148 1076.02 82.23 Q1074.21 85.3042 1072 88.0914 Q1071.38 88.8292 1071.26 89.2801 Q1071.18 89.69 1071.18 91.0427 Q1071.18 99.5684 1073.76 99.5684 Q1073.89 99.5684 1074.09 99.5684 Q1074.34 99.5274 1074.95 99.3225 Q1075.61 99.0766 1076.18 98.7077 Q1076.75 98.2978 1077.41 97.478 Q1078.07 96.6172 1078.48 95.4695 Q1078.84 94.6497 1079.58 94.6497 Q1080.57 94.6497 1080.57 95.4695 Q1080.57 96.9451 1078.52 99.1995 Q1076.47 101.454 1073.52 101.454 Q1070.69 101.454 1068.68 99.6094 Q1066.71 97.7239 1065.89 94.3628 Q1057.04 101.454 1048.18 101.454 Q1041.95 101.454 1038.27 97.396 Q1034.58 93.2971 1034.58 87.2307 Q1034.58 81.4102 1037.77 75.8766 Q1041.01 70.3431 1046.26 66.9 Q1051.55 63.4159 1057.16 63.4159 Q1059.13 63.4159 1061.01 63.9487 Q1062.9 64.4406 1064.79 65.7113 Q1066.67 66.982 1068.06 68.9084 Q1069.46 70.8349 1070.32 73.8681 Q1071.18 76.9014 1071.18 80.7134 L1071.18 85.919 Q1076.59 79.0738 1079.42 69.2774 Q1079.83 67.8017 1080.07 67.6378 Q1080.24 67.5148 1080.65 67.5148 Q1081.06 67.5148 1081.3 67.7607 Q1081.59 67.9657 1081.63 68.1706 L1081.67 68.3756 M1065.56 92.1904 Q1065.4 90.7557 1065.4 82.8038 Q1065.4 81.2872 1065.4 80.4674 Q1065.4 79.6066 1065.32 77.9671 Q1065.24 76.3275 1065.07 75.3028 Q1064.95 74.278 1064.66 72.8024 Q1064.38 71.3268 1063.97 70.3841 Q1063.56 69.4413 1062.9 68.3756 Q1062.29 67.3099 1061.47 66.695 Q1060.69 66.0802 1059.54 65.6703 Q1058.43 65.2604 1057.08 65.2604 Q1055.4 65.2604 1053.64 65.8752 Q1051.91 66.4491 1049.7 68.2936 Q1047.49 70.0971 1045.64 72.9664 Q1043.72 75.9996 1042.24 81.5741 Q1040.81 87.1077 1040.81 90.4278 Q1040.81 94.6087 1042.73 97.1091 Q1044.66 99.5684 1048.35 99.5684 Q1057.16 99.5684 1065.56 92.1904 Z" fill="#000000" fill-rule="nonzero" fill-opacity="1" /><path clip-path="url(#clip460)" d="M1111.05 87.7635 Q1111.13 86.7388 1112.73 86.7388 L1164.17 86.7388 Q1166.59 86.7388 1166.63 87.6815 Q1166.63 88.7063 1164.33 88.6653 L1113.3 88.6653 Q1111.05 88.7063 1111.05 87.7635 M1111.05 71.3678 Q1111.05 70.3431 1112.81 70.3841 L1164.09 70.3841 Q1166.59 70.3841 1166.63 71.3678 Q1166.63 72.3106 1164.5 72.3106 L1112.73 72.3106 Q1111.05 72.3106 1111.05 71.3678 Z" fill="#000000" fill-rule="nonzero" fill-opacity="1" /><path clip-path="url(#clip460)" d="M1244.34 66.3261 Q1244.34 69.1954 1240.24 69.1954 L1230.65 69.1954 Q1229.18 75.9996 1229.18 82.5579 Q1229.18 90.3868 1231.59 96.4123 Q1232.09 97.6009 1232.09 98.2568 Q1232.09 99.4864 1230.98 100.47 Q1229.91 101.454 1228.64 101.454 Q1227.58 101.454 1226.88 100.634 Q1226.22 99.8144 1225.65 97.232 Q1224.95 94.1988 1224.95 90.8377 Q1224.95 86.8208 1225.61 82.9678 Q1226.27 79.0738 1228.48 69.1954 L1219.01 69.1954 L1214.3 87.7635 Q1212.62 94.0349 1212.04 95.9614 Q1211.67 97.1091 1211.55 97.478 Q1211.43 97.8469 1211.06 98.7486 Q1210.73 99.6094 1210.48 99.9373 Q1210.24 100.224 1209.83 100.675 Q1209.42 101.167 1208.93 101.29 Q1208.43 101.454 1207.82 101.454 Q1206.88 101.454 1206.14 100.839 Q1205.4 100.265 1205.4 99.1585 Q1205.4 98.4207 1206.06 97.1501 Q1213.85 80.3445 1216.8 69.1954 L1212.04 69.1954 Q1205.48 69.1954 1201.38 75.6717 Q1200.73 76.5325 1200.36 76.6144 Q1200.2 76.6554 1200.03 76.6554 Q1199.58 76.6554 1199.29 76.4505 Q1199.05 76.2455 1199.05 76.0406 L1199.01 75.8356 Q1199.01 75.5897 1199.62 74.483 Q1200.28 73.3353 1201.51 71.5727 Q1202.78 69.8102 1204.13 68.2936 Q1205.44 66.9 1206.71 66.0392 Q1208.03 65.1374 1209.25 64.8095 Q1210.48 64.4816 1211.18 64.3996 Q1211.88 64.3176 1212.86 64.3176 L1240.98 64.3176 Q1242.05 64.3176 1242.62 64.3996 Q1243.19 64.4406 1243.77 64.9325 Q1244.34 65.3834 1244.34 66.3261 Z" fill="#000000" fill-rule="nonzero" fill-opacity="1" /><path clip-path="url(#clip460)" d="M1255.46 79.5247 Q1255.46 65.3424 1260.74 53.9064 Q1263 49.1106 1266.15 45.0937 Q1269.31 41.0767 1271.4 39.3142 Q1273.49 37.5516 1274.07 37.5516 Q1274.88 37.5516 1274.93 38.3714 Q1274.93 38.7813 1273.82 39.8061 Q1260.29 53.5785 1260.33 79.5247 Q1260.33 105.553 1273.49 118.792 Q1274.93 120.227 1274.93 120.678 Q1274.93 121.498 1274.07 121.498 Q1273.49 121.498 1271.48 119.817 Q1269.47 118.137 1266.36 114.284 Q1263.24 110.431 1260.99 105.717 Q1255.46 94.2808 1255.46 79.5247 Z" fill="#000000" fill-rule="nonzero" fill-opacity="1" /><path clip-path="url(#clip460)" d="M1317.66 58.5382 Q1317.66 65.4244 1315.45 73.1713 Q1313.28 80.8773 1309.83 87.1077 Q1306.39 93.2971 1301.88 97.396 Q1297.37 101.454 1293.07 101.454 Q1290.32 101.454 1288.27 99.9373 Q1286.27 98.3797 1285.16 95.7974 Q1284.05 93.1741 1283.52 90.3048 Q1282.99 87.3946 1282.99 84.2384 Q1282.99 79.5247 1284.01 74.401 Q1285.04 69.2364 1286.76 64.5636 Q1288.48 59.8498 1290.9 55.5869 Q1293.32 51.2831 1295.98 48.1679 Q1298.68 45.0117 1301.72 43.1672 Q1304.75 41.3227 1307.58 41.3227 Q1309.63 41.3227 1311.27 42.2244 Q1312.95 43.0852 1314.01 44.6018 Q1315.08 46.0774 1315.82 47.84 Q1316.6 49.6025 1316.97 51.652 Q1317.33 53.6604 1317.5 55.341 Q1317.66 56.9806 1317.66 58.5382 M1312.13 53.3325 Q1312.13 51.2421 1311.97 49.6845 Q1311.8 48.0859 1311.35 46.4873 Q1310.9 44.8887 1309.92 44.028 Q1308.97 43.1672 1307.5 43.1672 Q1303.19 43.1672 1298.36 51.9799 Q1296.8 54.7262 1295.41 58.4562 Q1294.01 62.1862 1293.52 63.9487 Q1293.03 65.7113 1291.88 70.0561 L1309.42 70.0561 Q1312.13 58.8661 1312.13 53.3325 M1308.69 72.7204 L1291.22 72.7204 Q1288.52 82.9678 1288.52 89.3621 Q1288.52 94.9366 1289.67 97.273 Q1290.86 99.5684 1293.07 99.5684 Q1295.61 99.5684 1297.99 97.0271 Q1300.37 94.4448 1302.78 89.772 Q1305.98 83.7056 1308.69 72.7204 Z" fill="#000000" fill-rule="nonzero" fill-opacity="1" /><path clip-path="url(#clip460)" d="M1326.33 120.678 Q1326.33 120.268 1327.39 119.243 Q1340.92 105.471 1340.92 79.5247 Q1340.92 53.4965 1327.93 40.3389 Q1326.33 38.8223 1326.33 38.3714 Q1326.33 37.5516 1327.15 37.5516 Q1327.72 37.5516 1329.73 39.2322 Q1331.78 40.9128 1334.85 44.7658 Q1337.97 48.6188 1340.26 53.3325 Q1345.8 64.7685 1345.8 79.5247 Q1345.8 93.707 1340.51 105.143 Q1338.25 109.939 1335.1 113.956 Q1331.94 117.973 1329.85 119.735 Q1327.76 121.498 1327.15 121.498 Q1326.33 121.498 1326.33 120.678 Z" fill="#000000" fill-rule="nonzero" fill-opacity="1" /><path clip-path="url(#clip460)" d="M1381.85 87.7635 Q1381.93 86.7388 1383.53 86.7388 L1434.97 86.7388 Q1437.39 86.7388 1437.43 87.6815 Q1437.43 88.7063 1435.14 88.6653 L1384.1 88.6653 Q1381.85 88.7063 1381.85 87.7635 M1381.85 71.3678 Q1381.85 70.3431 1383.61 70.3841 L1434.89 70.3841 Q1437.39 70.3841 1437.43 71.3678 Q1437.43 72.3106 1435.3 72.3106 L1383.53 72.3106 Q1381.85 72.3106 1381.85 71.3678 Z" fill="#000000" fill-rule="nonzero" fill-opacity="1" /><path clip-path="url(#clip460)" d="M1469.81 79.5247 Q1469.81 65.3424 1475.1 53.9064 Q1477.35 49.1106 1480.51 45.0937 Q1483.66 41.0767 1485.75 39.3142 Q1487.85 37.5516 1488.42 37.5516 Q1489.24 37.5516 1489.28 38.3714 Q1489.28 38.7813 1488.17 39.8061 Q1474.65 53.5785 1474.69 79.5247 Q1474.69 105.553 1487.85 118.792 Q1489.28 120.227 1489.28 120.678 Q1489.28 121.498 1488.42 121.498 Q1487.85 121.498 1485.84 119.817 Q1483.83 118.137 1480.71 114.284 Q1477.6 110.431 1475.34 105.717 Q1469.81 94.2808 1469.81 79.5247 Z" fill="#000000" fill-rule="nonzero" fill-opacity="1" /><path clip-path="url(#clip460)" d="M1500.36 52.5947 L1500.36 49.9714 Q1510.45 49.9714 1515.65 44.6018 Q1517.09 44.6018 1517.33 44.9297 Q1517.58 45.2576 1517.58 46.7742 L1517.58 93.8709 Q1517.58 96.3713 1518.81 97.1501 Q1520.04 97.9289 1525.41 97.9289 L1528.07 97.9289 L1528.07 100.511 Q1525.12 100.265 1514.46 100.265 Q1503.81 100.265 1500.9 100.511 L1500.9 97.9289 L1503.56 97.9289 Q1508.85 97.9289 1510.12 97.191 Q1511.39 96.4123 1511.39 93.8709 L1511.39 50.3813 Q1507 52.5947 1500.36 52.5947 Z" fill="#000000" fill-rule="nonzero" fill-opacity="1" /><path clip-path="url(#clip460)" d="M1620.64 78.336 Q1621.13 78.8279 1621.13 79.5247 Q1621.13 80.2215 1620.64 80.7134 Q1620.15 81.2052 1619.45 81.2052 L1566.9 81.2052 Q1566.21 81.2052 1565.72 80.7134 Q1565.22 80.2215 1565.22 79.5247 Q1565.22 78.8279 1565.72 78.336 Q1566.21 77.8441 1566.9 77.8441 L1619.45 77.8441 Q1620.15 77.8441 1620.64 78.336 Z" fill="#000000" fill-rule="nonzero" fill-opacity="1" /><path clip-path="url(#clip460)" d="M1687.86 58.5382 Q1687.86 65.4244 1685.65 73.1713 Q1683.48 80.8773 1680.03 87.1077 Q1676.59 93.2971 1672.08 97.396 Q1667.57 101.454 1663.27 101.454 Q1660.52 101.454 1658.47 99.9373 Q1656.46 98.3797 1655.36 95.7974 Q1654.25 93.1741 1653.72 90.3048 Q1653.18 87.3946 1653.18 84.2384 Q1653.18 79.5247 1654.21 74.401 Q1655.23 69.2364 1656.96 64.5636 Q1658.68 59.8498 1661.1 55.5869 Q1663.51 51.2831 1666.18 48.1679 Q1668.88 45.0117 1671.92 43.1672 Q1674.95 41.3227 1677.78 41.3227 Q1679.83 41.3227 1681.47 42.2244 Q1683.15 43.0852 1684.21 44.6018 Q1685.28 46.0774 1686.02 47.84 Q1686.8 49.6025 1687.16 51.652 Q1687.53 53.6604 1687.7 55.341 Q1687.86 56.9806 1687.86 58.5382 M1682.33 53.3325 Q1682.33 51.2421 1682.16 49.6845 Q1682 48.0859 1681.55 46.4873 Q1681.1 44.8887 1680.11 44.028 Q1679.17 43.1672 1677.7 43.1672 Q1673.39 43.1672 1668.56 51.9799 Q1667 54.7262 1665.6 58.4562 Q1664.21 62.1862 1663.72 63.9487 Q1663.23 65.7113 1662.08 70.0561 L1679.62 70.0561 Q1682.33 58.8661 1682.33 53.3325 M1678.88 72.7204 L1661.42 72.7204 Q1658.72 82.9678 1658.72 89.3621 Q1658.72 94.9366 1659.87 97.273 Q1661.05 99.5684 1663.27 99.5684 Q1665.81 99.5684 1668.19 97.0271 Q1670.56 94.4448 1672.98 89.772 Q1676.18 83.7056 1678.88 72.7204 Z" fill="#000000" fill-rule="nonzero" fill-opacity="1" /><path clip-path="url(#clip460)" d="M1692.16 120.678 Q1692.16 120.268 1693.22 119.243 Q1706.75 105.471 1706.75 79.5247 Q1706.75 53.4965 1693.76 40.3389 Q1692.16 38.8223 1692.16 38.3714 Q1692.16 37.5516 1692.98 37.5516 Q1693.55 37.5516 1695.56 39.2322 Q1697.61 40.9128 1700.68 44.7658 Q1703.8 48.6188 1706.09 53.3325 Q1711.63 64.7685 1711.63 79.5247 Q1711.63 93.707 1706.34 105.143 Q1704.09 109.939 1700.93 113.956 Q1697.77 117.973 1695.68 119.735 Q1693.59 121.498 1692.98 121.498 Q1692.16 121.498 1692.16 120.678 Z" fill="#000000" fill-rule="nonzero" fill-opacity="1" /><path clip-path="url(#clip460)" d="M1720.4 49.7864 Q1720.4 48.7248 1720.49 48.4091 Q1720.6 48.0935 1721.06 47.6058 L1732.34 35.0384 Q1738.51 28.0949 1738.51 22.0407 Q1738.51 18.1099 1736.44 15.298 Q1734.4 12.4861 1730.65 12.4861 Q1728.06 12.4861 1725.88 14.0642 Q1723.7 15.6423 1722.7 18.4542 Q1722.87 18.3968 1723.47 18.3968 Q1724.94 18.3968 1725.74 19.315 Q1726.57 20.2331 1726.57 21.4669 Q1726.57 23.045 1725.54 23.8197 Q1724.53 24.5657 1723.53 24.5657 Q1723.13 24.5657 1722.58 24.4796 Q1722.07 24.3935 1721.23 23.5901 Q1720.4 22.7581 1720.4 21.2947 Q1720.4 17.1917 1723.5 13.9208 Q1726.63 10.6498 1731.39 10.6498 Q1736.79 10.6498 1740.31 13.8634 Q1743.87 17.0482 1743.87 22.0407 Q1743.87 23.791 1743.33 25.3978 Q1742.81 26.9758 1742.09 28.2096 Q1741.41 29.4434 1739.51 31.4232 Q1737.62 33.403 1736.1 34.8089 Q1734.58 36.2148 1731.16 39.1988 L1724.94 45.253 L1735.52 45.253 Q1740.69 45.253 1741.09 44.7939 Q1741.66 43.9618 1742.38 39.5719 L1743.87 39.5719 L1742.21 49.7864 L1720.4 49.7864 Z" fill="#000000" fill-rule="nonzero" fill-opacity="1" /><polyline clip-path="url(#clip462)" style="stroke:#009af9; stroke-linecap:round; stroke-linejoin:round; stroke-width:4; stroke-opacity:1; fill:none" points="152.283,188.369 165.128,204.367 177.973,220.282 253.206,311.834 328.438,400.546 363.437,440.847 398.435,480.533 445.346,532.763 492.256,583.889 569.782,665.961 641.873,739.573 732.372,828.29 813.55,904.373 906.469,987.401 975.926,1046.64 1064.76,1118.87 1145.85,1181.34 1238.13,1248.43 1311.28,1298.57 1402.16,1357.13 1471.77,1399.17 1569.9,1454.32 1643.23,1492.37 1726.62,1532.37 1809.21,1568.54 1900.07,1604.38 1969.47,1628.97 2057.05,1656.54 2138.05,1678.62 2221.59,1697.94 2306.27,1713.95 2350.48,1720.88 2394.69,1726.83 2429.51,1730.83 2464.34,1734.22 2543.65,1739.66 2622.96,1741.95 2631.86,1742.01 2640.76,1742.03 "/>
</svg>
