<?xml version="1.0" encoding="utf-8"?>
<svg xmlns="http://www.w3.org/2000/svg" xmlns:xlink="http://www.w3.org/1999/xlink" width="672" height="480" viewBox="0 0 2688 1920">
<defs>
  <clipPath id="clip090">
    <rect x="0" y="0" width="2688" height="1920"/>
  </clipPath>
</defs>
<path clip-path="url(#clip090)" d="M0 1920 L2688 1920 L2688 0 L0 0  Z" fill="#ffffff" fill-rule="evenodd" fill-opacity="1"/>
<defs>
  <clipPath id="clip091">
    <rect x="537" y="0" width="1883" height="1883"/>
  </clipPath>
</defs>
<path clip-path="url(#clip090)" d="M255.816 1734.12 L2640.76 1734.12 L2640.76 127.792 L255.816 127.792  Z" fill="#ffffff" fill-rule="evenodd" fill-opacity="1"/>
<defs>
  <clipPath id="clip092">
    <rect x="255" y="127" width="2386" height="1607"/>
  </clipPath>
</defs>
<polyline clip-path="url(#clip092)" style="stroke:#000000; stroke-linecap:round; stroke-linejoin:round; stroke-width:2; stroke-opacity:0.1; fill:none" points="390.074,1734.12 390.074,127.792 "/>
<polyline clip-path="url(#clip092)" style="stroke:#000000; stroke-linecap:round; stroke-linejoin:round; stroke-width:2; stroke-opacity:0.1; fill:none" points="977.97,1734.12 977.97,127.792 "/>
<polyline clip-path="url(#clip092)" style="stroke:#000000; stroke-linecap:round; stroke-linejoin:round; stroke-width:2; stroke-opacity:0.1; fill:none" points="1565.87,1734.12 1565.87,127.792 "/>
<polyline clip-path="url(#clip092)" style="stroke:#000000; stroke-linecap:round; stroke-linejoin:round; stroke-width:2; stroke-opacity:0.1; fill:none" points="2153.76,1734.12 2153.76,127.792 "/>
<polyline clip-path="url(#clip092)" style="stroke:#000000; stroke-linecap:round; stroke-linejoin:round; stroke-width:2; stroke-opacity:0.1; fill:none" points="255.816,1718.23 2640.76,1718.23 "/>
<polyline clip-path="url(#clip092)" style="stroke:#000000; stroke-linecap:round; stroke-linejoin:round; stroke-width:2; stroke-opacity:0.1; fill:none" points="255.816,1321.02 2640.76,1321.02 "/>
<polyline clip-path="url(#clip092)" style="stroke:#000000; stroke-linecap:round; stroke-linejoin:round; stroke-width:2; stroke-opacity:0.1; fill:none" points="255.816,923.805 2640.76,923.805 "/>
<polyline clip-path="url(#clip092)" style="stroke:#000000; stroke-linecap:round; stroke-linejoin:round; stroke-width:2; stroke-opacity:0.1; fill:none" points="255.816,526.593 2640.76,526.593 "/>
<polyline clip-path="url(#clip092)" style="stroke:#000000; stroke-linecap:round; stroke-linejoin:round; stroke-width:2; stroke-opacity:0.1; fill:none" points="255.816,129.381 2640.76,129.381 "/>
<polyline clip-path="url(#clip090)" style="stroke:#000000; stroke-linecap:round; stroke-linejoin:round; stroke-width:4; stroke-opacity:1; fill:none" points="255.816,1734.12 2640.76,1734.12 "/>
<polyline clip-path="url(#clip090)" style="stroke:#000000; stroke-linecap:round; stroke-linejoin:round; stroke-width:4; stroke-opacity:1; fill:none" points="390.074,1734.12 390.074,1715.22 "/>
<polyline clip-path="url(#clip090)" style="stroke:#000000; stroke-linecap:round; stroke-linejoin:round; stroke-width:4; stroke-opacity:1; fill:none" points="977.97,1734.12 977.97,1715.22 "/>
<polyline clip-path="url(#clip090)" style="stroke:#000000; stroke-linecap:round; stroke-linejoin:round; stroke-width:4; stroke-opacity:1; fill:none" points="1565.87,1734.12 1565.87,1715.22 "/>
<polyline clip-path="url(#clip090)" style="stroke:#000000; stroke-linecap:round; stroke-linejoin:round; stroke-width:4; stroke-opacity:1; fill:none" points="2153.76,1734.12 2153.76,1715.22 "/>
<path clip-path="url(#clip090)" d="M361.81 1794.89 L378.13 1794.89 L378.13 1798.82 L356.185 1798.82 L356.185 1794.89 Q358.847 1792.13 363.431 1787.5 Q368.037 1782.85 369.218 1781.51 Q371.463 1778.98 372.343 1777.25 Q373.246 1775.49 373.246 1773.8 Q373.246 1771.04 371.301 1769.31 Q369.38 1767.57 366.278 1767.57 Q364.079 1767.57 361.625 1768.34 Q359.195 1769.1 356.417 1770.65 L356.417 1765.93 Q359.241 1764.79 361.695 1764.21 Q364.148 1763.64 366.185 1763.64 Q371.556 1763.64 374.75 1766.32 Q377.945 1769.01 377.945 1773.5 Q377.945 1775.63 377.134 1777.55 Q376.347 1779.45 374.241 1782.04 Q373.662 1782.71 370.56 1785.93 Q367.459 1789.12 361.81 1794.89 Z" fill="#000000" fill-rule="nonzero" fill-opacity="1" /><path clip-path="url(#clip090)" d="M387.945 1792.94 L392.829 1792.94 L392.829 1798.82 L387.945 1798.82 L387.945 1792.94 Z" fill="#000000" fill-rule="nonzero" fill-opacity="1" /><path clip-path="url(#clip090)" d="M403.06 1764.26 L421.417 1764.26 L421.417 1768.2 L407.343 1768.2 L407.343 1776.67 Q408.361 1776.32 409.38 1776.16 Q410.398 1775.97 411.417 1775.97 Q417.204 1775.97 420.583 1779.15 Q423.963 1782.32 423.963 1787.73 Q423.963 1793.31 420.491 1796.41 Q417.018 1799.49 410.699 1799.49 Q408.523 1799.49 406.255 1799.12 Q404.009 1798.75 401.602 1798.01 L401.602 1793.31 Q403.685 1794.45 405.907 1795 Q408.13 1795.56 410.606 1795.56 Q414.611 1795.56 416.949 1793.45 Q419.287 1791.34 419.287 1787.73 Q419.287 1784.12 416.949 1782.02 Q414.611 1779.91 410.606 1779.91 Q408.731 1779.91 406.856 1780.33 Q405.005 1780.74 403.06 1781.62 L403.06 1764.26 Z" fill="#000000" fill-rule="nonzero" fill-opacity="1" /><path clip-path="url(#clip090)" d="M945.134 1764.26 L963.491 1764.26 L963.491 1768.2 L949.417 1768.2 L949.417 1776.67 Q950.435 1776.32 951.454 1776.16 Q952.472 1775.97 953.491 1775.97 Q959.278 1775.97 962.657 1779.15 Q966.037 1782.32 966.037 1787.73 Q966.037 1793.31 962.565 1796.41 Q959.092 1799.49 952.773 1799.49 Q950.597 1799.49 948.329 1799.12 Q946.083 1798.75 943.676 1798.01 L943.676 1793.31 Q945.759 1794.45 947.981 1795 Q950.204 1795.56 952.68 1795.56 Q956.685 1795.56 959.023 1793.45 Q961.361 1791.34 961.361 1787.73 Q961.361 1784.12 959.023 1782.02 Q956.685 1779.91 952.68 1779.91 Q950.805 1779.91 948.93 1780.33 Q947.079 1780.74 945.134 1781.62 L945.134 1764.26 Z" fill="#000000" fill-rule="nonzero" fill-opacity="1" /><path clip-path="url(#clip090)" d="M975.25 1792.94 L980.134 1792.94 L980.134 1798.82 L975.25 1798.82 L975.25 1792.94 Z" fill="#000000" fill-rule="nonzero" fill-opacity="1" /><path clip-path="url(#clip090)" d="M1000.32 1767.34 Q996.708 1767.34 994.879 1770.9 Q993.074 1774.45 993.074 1781.58 Q993.074 1788.68 994.879 1792.25 Q996.708 1795.79 1000.32 1795.79 Q1003.95 1795.79 1005.76 1792.25 Q1007.59 1788.68 1007.59 1781.58 Q1007.59 1774.45 1005.76 1770.9 Q1003.95 1767.34 1000.32 1767.34 M1000.32 1763.64 Q1006.13 1763.64 1009.18 1768.24 Q1012.26 1772.83 1012.26 1781.58 Q1012.26 1790.3 1009.18 1794.91 Q1006.13 1799.49 1000.32 1799.49 Q994.509 1799.49 991.43 1794.91 Q988.375 1790.3 988.375 1781.58 Q988.375 1772.83 991.43 1768.24 Q994.509 1763.64 1000.32 1763.64 Z" fill="#000000" fill-rule="nonzero" fill-opacity="1" /><path clip-path="url(#clip090)" d="M1532.18 1764.26 L1554.41 1764.26 L1554.41 1766.25 L1541.86 1798.82 L1536.98 1798.82 L1548.78 1768.2 L1532.18 1768.2 L1532.18 1764.26 Z" fill="#000000" fill-rule="nonzero" fill-opacity="1" /><path clip-path="url(#clip090)" d="M1563.53 1792.94 L1568.41 1792.94 L1568.41 1798.82 L1563.53 1798.82 L1563.53 1792.94 Z" fill="#000000" fill-rule="nonzero" fill-opacity="1" /><path clip-path="url(#clip090)" d="M1578.64 1764.26 L1597 1764.26 L1597 1768.2 L1582.93 1768.2 L1582.93 1776.67 Q1583.94 1776.32 1584.96 1776.16 Q1585.98 1775.97 1587 1775.97 Q1592.79 1775.97 1596.17 1779.15 Q1599.55 1782.32 1599.55 1787.73 Q1599.55 1793.31 1596.07 1796.41 Q1592.6 1799.49 1586.28 1799.49 Q1584.11 1799.49 1581.84 1799.12 Q1579.59 1798.75 1577.18 1798.01 L1577.18 1793.31 Q1579.27 1794.45 1581.49 1795 Q1583.71 1795.56 1586.19 1795.56 Q1590.19 1795.56 1592.53 1793.45 Q1594.87 1791.34 1594.87 1787.73 Q1594.87 1784.12 1592.53 1782.02 Q1590.19 1779.91 1586.19 1779.91 Q1584.31 1779.91 1582.44 1780.33 Q1580.59 1780.74 1578.64 1781.62 L1578.64 1764.26 Z" fill="#000000" fill-rule="nonzero" fill-opacity="1" /><path clip-path="url(#clip090)" d="M2105.83 1794.89 L2113.47 1794.89 L2113.47 1768.52 L2105.16 1770.19 L2105.16 1765.93 L2113.43 1764.26 L2118.1 1764.26 L2118.1 1794.89 L2125.74 1794.89 L2125.74 1798.82 L2105.83 1798.82 L2105.83 1794.89 Z" fill="#000000" fill-rule="nonzero" fill-opacity="1" /><path clip-path="url(#clip090)" d="M2145.18 1767.34 Q2141.57 1767.34 2139.74 1770.9 Q2137.94 1774.45 2137.94 1781.58 Q2137.94 1788.68 2139.74 1792.25 Q2141.57 1795.79 2145.18 1795.79 Q2148.82 1795.79 2150.62 1792.25 Q2152.45 1788.68 2152.45 1781.58 Q2152.45 1774.45 2150.62 1770.9 Q2148.82 1767.34 2145.18 1767.34 M2145.18 1763.64 Q2150.99 1763.64 2154.05 1768.24 Q2157.13 1772.83 2157.13 1781.58 Q2157.13 1790.3 2154.05 1794.91 Q2150.99 1799.49 2145.18 1799.49 Q2139.37 1799.49 2136.3 1794.91 Q2133.24 1790.3 2133.24 1781.58 Q2133.24 1772.83 2136.3 1768.24 Q2139.37 1763.64 2145.18 1763.64 Z" fill="#000000" fill-rule="nonzero" fill-opacity="1" /><path clip-path="url(#clip090)" d="M2165.35 1792.94 L2170.23 1792.94 L2170.23 1798.82 L2165.35 1798.82 L2165.35 1792.94 Z" fill="#000000" fill-rule="nonzero" fill-opacity="1" /><path clip-path="url(#clip090)" d="M2190.42 1767.34 Q2186.8 1767.34 2184.98 1770.9 Q2183.17 1774.45 2183.17 1781.58 Q2183.17 1788.68 2184.98 1792.25 Q2186.8 1795.79 2190.42 1795.79 Q2194.05 1795.79 2195.86 1792.25 Q2197.68 1788.68 2197.68 1781.58 Q2197.68 1774.45 2195.86 1770.9 Q2194.05 1767.34 2190.42 1767.34 M2190.42 1763.64 Q2196.23 1763.64 2199.28 1768.24 Q2202.36 1772.83 2202.36 1781.58 Q2202.36 1790.3 2199.28 1794.91 Q2196.23 1799.49 2190.42 1799.49 Q2184.61 1799.49 2181.53 1794.91 Q2178.47 1790.3 2178.47 1781.58 Q2178.47 1772.83 2181.53 1768.24 Q2184.61 1763.64 2190.42 1763.64 Z" fill="#000000" fill-rule="nonzero" fill-opacity="1" /><path clip-path="url(#clip090)" d="M1464.35 1852.74 Q1463.52 1856.89 1462.39 1859.28 Q1460.59 1862.91 1457.49 1862.91 Q1455.3 1862.91 1453.63 1861.59 Q1451.99 1860.27 1451.57 1858.08 Q1450.73 1859.08 1450.12 1859.66 Q1449.54 1860.24 1448.38 1861.14 Q1447.25 1862.01 1445.84 1862.46 Q1444.42 1862.91 1442.81 1862.91 Q1438.88 1862.91 1436.4 1860.85 Q1433.05 1874.35 1432.76 1875.02 Q1431.83 1876.41 1430.47 1876.41 Q1429.64 1876.41 1429.12 1875.89 Q1428.6 1875.41 1428.6 1874.64 Q1428.64 1874.38 1428.83 1873.57 L1438.3 1835.41 Q1438.56 1834.38 1439.2 1833.8 Q1439.88 1833.19 1440.26 1833.12 Q1440.65 1833.03 1440.94 1833.03 Q1441.81 1833.03 1442.32 1833.51 Q1442.87 1833.96 1442.87 1834.8 Q1442.87 1834.93 1442.68 1835.67 Q1442.52 1836.38 1442.26 1837.47 Q1442 1838.53 1441.87 1839.02 L1439.1 1850.1 Q1438.17 1853.9 1438.17 1855.7 Q1438.17 1858.44 1439.39 1859.95 Q1440.65 1861.43 1443.07 1861.43 Q1444.58 1861.43 1446 1860.82 Q1447.41 1860.18 1448.38 1859.31 Q1449.35 1858.44 1450.12 1857.5 Q1450.89 1856.54 1451.25 1855.93 Q1451.6 1855.28 1451.63 1855.12 L1453.34 1848.39 L1456.46 1836.06 Q1456.66 1835.28 1457.01 1834.77 Q1457.4 1834.22 1457.85 1834.03 Q1458.3 1833.83 1458.56 1833.8 Q1458.81 1833.74 1459.04 1833.74 Q1459.84 1833.74 1460.39 1834.22 Q1460.94 1834.7 1460.94 1835.54 Q1460.94 1835.7 1460.75 1836.47 Q1460.59 1837.21 1460.33 1838.31 Q1460.07 1839.37 1459.94 1839.95 Q1458.91 1844.01 1458.81 1844.43 L1456.98 1851.55 Q1456.88 1851.96 1456.56 1853.32 Q1456.27 1854.67 1456.11 1855.38 Q1455.95 1856.05 1455.79 1856.99 Q1455.66 1857.89 1455.66 1858.41 Q1455.66 1861.43 1457.65 1861.43 Q1458.43 1861.43 1459.1 1860.98 Q1459.78 1860.5 1460.23 1859.82 Q1460.71 1859.15 1461.17 1857.99 Q1461.65 1856.8 1461.94 1855.83 Q1462.23 1854.83 1462.65 1853.29 Q1462.81 1852.54 1462.97 1852.32 Q1463.13 1852.09 1463.58 1852.09 Q1464.35 1852.09 1464.35 1852.74 Z" fill="#000000" fill-rule="nonzero" fill-opacity="1" /><polyline clip-path="url(#clip090)" style="stroke:#000000; stroke-linecap:round; stroke-linejoin:round; stroke-width:4; stroke-opacity:1; fill:none" points="255.816,1734.12 255.816,127.792 "/>
<polyline clip-path="url(#clip090)" style="stroke:#000000; stroke-linecap:round; stroke-linejoin:round; stroke-width:4; stroke-opacity:1; fill:none" points="255.816,1718.23 274.714,1718.23 "/>
<polyline clip-path="url(#clip090)" style="stroke:#000000; stroke-linecap:round; stroke-linejoin:round; stroke-width:4; stroke-opacity:1; fill:none" points="255.816,1321.02 274.714,1321.02 "/>
<polyline clip-path="url(#clip090)" style="stroke:#000000; stroke-linecap:round; stroke-linejoin:round; stroke-width:4; stroke-opacity:1; fill:none" points="255.816,923.805 274.714,923.805 "/>
<polyline clip-path="url(#clip090)" style="stroke:#000000; stroke-linecap:round; stroke-linejoin:round; stroke-width:4; stroke-opacity:1; fill:none" points="255.816,526.593 274.714,526.593 "/>
<polyline clip-path="url(#clip090)" style="stroke:#000000; stroke-linecap:round; stroke-linejoin:round; stroke-width:4; stroke-opacity:1; fill:none" points="255.816,129.381 274.714,129.381 "/>
<path clip-path="url(#clip090)" d="M128.159 1704.03 Q124.548 1704.03 122.719 1707.59 Q120.913 1711.13 120.913 1718.26 Q120.913 1725.37 122.719 1728.93 Q124.548 1732.48 128.159 1732.48 Q131.793 1732.48 133.599 1728.93 Q135.427 1725.37 135.427 1718.26 Q135.427 1711.13 133.599 1707.59 Q131.793 1704.03 128.159 1704.03 M128.159 1700.32 Q133.969 1700.32 137.025 1704.93 Q140.103 1709.51 140.103 1718.26 Q140.103 1726.99 137.025 1731.6 Q133.969 1736.18 128.159 1736.18 Q122.349 1736.18 119.27 1731.6 Q116.214 1726.99 116.214 1718.26 Q116.214 1709.51 119.27 1704.93 Q122.349 1700.32 128.159 1700.32 Z" fill="#000000" fill-rule="nonzero" fill-opacity="1" /><path clip-path="url(#clip090)" d="M148.321 1729.63 L153.205 1729.63 L153.205 1735.51 L148.321 1735.51 L148.321 1729.63 Z" fill="#000000" fill-rule="nonzero" fill-opacity="1" /><path clip-path="url(#clip090)" d="M173.39 1704.03 Q169.779 1704.03 167.95 1707.59 Q166.145 1711.13 166.145 1718.26 Q166.145 1725.37 167.95 1728.93 Q169.779 1732.48 173.39 1732.48 Q177.024 1732.48 178.83 1728.93 Q180.659 1725.37 180.659 1718.26 Q180.659 1711.13 178.83 1707.59 Q177.024 1704.03 173.39 1704.03 M173.39 1700.32 Q179.2 1700.32 182.256 1704.93 Q185.334 1709.51 185.334 1718.26 Q185.334 1726.99 182.256 1731.6 Q179.2 1736.18 173.39 1736.18 Q167.58 1736.18 164.501 1731.6 Q161.446 1726.99 161.446 1718.26 Q161.446 1709.51 164.501 1704.93 Q167.58 1700.32 173.39 1700.32 Z" fill="#000000" fill-rule="nonzero" fill-opacity="1" /><path clip-path="url(#clip090)" d="M203.552 1704.03 Q199.941 1704.03 198.112 1707.59 Q196.307 1711.13 196.307 1718.26 Q196.307 1725.37 198.112 1728.93 Q199.941 1732.48 203.552 1732.48 Q207.186 1732.48 208.992 1728.93 Q210.82 1725.37 210.82 1718.26 Q210.82 1711.13 208.992 1707.59 Q207.186 1704.03 203.552 1704.03 M203.552 1700.32 Q209.362 1700.32 212.418 1704.93 Q215.496 1709.51 215.496 1718.26 Q215.496 1726.99 212.418 1731.6 Q209.362 1736.18 203.552 1736.18 Q197.742 1736.18 194.663 1731.6 Q191.608 1726.99 191.608 1718.26 Q191.608 1709.51 194.663 1704.93 Q197.742 1700.32 203.552 1700.32 Z" fill="#000000" fill-rule="nonzero" fill-opacity="1" /><path clip-path="url(#clip090)" d="M129.154 1306.82 Q125.543 1306.82 123.714 1310.38 Q121.909 1313.92 121.909 1321.05 Q121.909 1328.16 123.714 1331.72 Q125.543 1335.26 129.154 1335.26 Q132.788 1335.26 134.594 1331.72 Q136.423 1328.16 136.423 1321.05 Q136.423 1313.92 134.594 1310.38 Q132.788 1306.82 129.154 1306.82 M129.154 1303.11 Q134.964 1303.11 138.02 1307.72 Q141.099 1312.3 141.099 1321.05 Q141.099 1329.78 138.02 1334.38 Q134.964 1338.97 129.154 1338.97 Q123.344 1338.97 120.265 1334.38 Q117.21 1329.78 117.21 1321.05 Q117.21 1312.3 120.265 1307.72 Q123.344 1303.11 129.154 1303.11 Z" fill="#000000" fill-rule="nonzero" fill-opacity="1" /><path clip-path="url(#clip090)" d="M149.316 1332.42 L154.2 1332.42 L154.2 1338.3 L149.316 1338.3 L149.316 1332.42 Z" fill="#000000" fill-rule="nonzero" fill-opacity="1" /><path clip-path="url(#clip090)" d="M168.413 1334.36 L184.733 1334.36 L184.733 1338.3 L162.788 1338.3 L162.788 1334.36 Q165.45 1331.61 170.034 1326.98 Q174.64 1322.32 175.821 1320.98 Q178.066 1318.46 178.946 1316.72 Q179.848 1314.96 179.848 1313.27 Q179.848 1310.52 177.904 1308.78 Q175.983 1307.05 172.881 1307.05 Q170.682 1307.05 168.228 1307.81 Q165.798 1308.57 163.02 1310.13 L163.02 1305.4 Q165.844 1304.27 168.297 1303.69 Q170.751 1303.11 172.788 1303.11 Q178.159 1303.11 181.353 1305.8 Q184.547 1308.48 184.547 1312.97 Q184.547 1315.1 183.737 1317.02 Q182.95 1318.92 180.844 1321.51 Q180.265 1322.19 177.163 1325.4 Q174.061 1328.6 168.413 1334.36 Z" fill="#000000" fill-rule="nonzero" fill-opacity="1" /><path clip-path="url(#clip090)" d="M194.594 1303.74 L212.95 1303.74 L212.95 1307.67 L198.876 1307.67 L198.876 1316.14 Q199.895 1315.8 200.913 1315.63 Q201.932 1315.45 202.95 1315.45 Q208.737 1315.45 212.117 1318.62 Q215.496 1321.79 215.496 1327.21 Q215.496 1332.79 212.024 1335.89 Q208.552 1338.97 202.233 1338.97 Q200.057 1338.97 197.788 1338.6 Q195.543 1338.23 193.135 1337.49 L193.135 1332.79 Q195.219 1333.92 197.441 1334.48 Q199.663 1335.03 202.14 1335.03 Q206.145 1335.03 208.482 1332.93 Q210.82 1330.82 210.82 1327.21 Q210.82 1323.6 208.482 1321.49 Q206.145 1319.38 202.14 1319.38 Q200.265 1319.38 198.39 1319.8 Q196.538 1320.22 194.594 1321.1 L194.594 1303.74 Z" fill="#000000" fill-rule="nonzero" fill-opacity="1" /><path clip-path="url(#clip090)" d="M128.159 909.603 Q124.548 909.603 122.719 913.168 Q120.913 916.71 120.913 923.839 Q120.913 930.946 122.719 934.511 Q124.548 938.052 128.159 938.052 Q131.793 938.052 133.599 934.511 Q135.427 930.946 135.427 923.839 Q135.427 916.71 133.599 913.168 Q131.793 909.603 128.159 909.603 M128.159 905.9 Q133.969 905.9 137.025 910.506 Q140.103 915.09 140.103 923.839 Q140.103 932.566 137.025 937.173 Q133.969 941.756 128.159 941.756 Q122.349 941.756 119.27 937.173 Q116.214 932.566 116.214 923.839 Q116.214 915.09 119.27 910.506 Q122.349 905.9 128.159 905.9 Z" fill="#000000" fill-rule="nonzero" fill-opacity="1" /><path clip-path="url(#clip090)" d="M148.321 935.205 L153.205 935.205 L153.205 941.085 L148.321 941.085 L148.321 935.205 Z" fill="#000000" fill-rule="nonzero" fill-opacity="1" /><path clip-path="url(#clip090)" d="M163.436 906.525 L181.793 906.525 L181.793 910.46 L167.719 910.46 L167.719 918.932 Q168.737 918.585 169.756 918.423 Q170.774 918.238 171.793 918.238 Q177.58 918.238 180.959 921.409 Q184.339 924.58 184.339 929.997 Q184.339 935.576 180.867 938.677 Q177.395 941.756 171.075 941.756 Q168.899 941.756 166.631 941.386 Q164.385 941.015 161.978 940.275 L161.978 935.576 Q164.061 936.71 166.284 937.265 Q168.506 937.821 170.983 937.821 Q174.987 937.821 177.325 935.714 Q179.663 933.608 179.663 929.997 Q179.663 926.386 177.325 924.279 Q174.987 922.173 170.983 922.173 Q169.108 922.173 167.233 922.589 Q165.381 923.006 163.436 923.886 L163.436 906.525 Z" fill="#000000" fill-rule="nonzero" fill-opacity="1" /><path clip-path="url(#clip090)" d="M203.552 909.603 Q199.941 909.603 198.112 913.168 Q196.307 916.71 196.307 923.839 Q196.307 930.946 198.112 934.511 Q199.941 938.052 203.552 938.052 Q207.186 938.052 208.992 934.511 Q210.82 930.946 210.82 923.839 Q210.82 916.71 208.992 913.168 Q207.186 909.603 203.552 909.603 M203.552 905.9 Q209.362 905.9 212.418 910.506 Q215.496 915.09 215.496 923.839 Q215.496 932.566 212.418 937.173 Q209.362 941.756 203.552 941.756 Q197.742 941.756 194.663 937.173 Q191.608 932.566 191.608 923.839 Q191.608 915.09 194.663 910.506 Q197.742 905.9 203.552 905.9 Z" fill="#000000" fill-rule="nonzero" fill-opacity="1" /><path clip-path="url(#clip090)" d="M129.154 512.392 Q125.543 512.392 123.714 515.956 Q121.909 519.498 121.909 526.628 Q121.909 533.734 123.714 537.299 Q125.543 540.84 129.154 540.84 Q132.788 540.84 134.594 537.299 Q136.423 533.734 136.423 526.628 Q136.423 519.498 134.594 515.956 Q132.788 512.392 129.154 512.392 M129.154 508.688 Q134.964 508.688 138.02 513.294 Q141.099 517.878 141.099 526.628 Q141.099 535.354 138.02 539.961 Q134.964 544.544 129.154 544.544 Q123.344 544.544 120.265 539.961 Q117.21 535.354 117.21 526.628 Q117.21 517.878 120.265 513.294 Q123.344 508.688 129.154 508.688 Z" fill="#000000" fill-rule="nonzero" fill-opacity="1" /><path clip-path="url(#clip090)" d="M149.316 537.993 L154.2 537.993 L154.2 543.873 L149.316 543.873 L149.316 537.993 Z" fill="#000000" fill-rule="nonzero" fill-opacity="1" /><path clip-path="url(#clip090)" d="M163.205 509.313 L185.427 509.313 L185.427 511.304 L172.881 543.873 L167.997 543.873 L179.802 513.248 L163.205 513.248 L163.205 509.313 Z" fill="#000000" fill-rule="nonzero" fill-opacity="1" /><path clip-path="url(#clip090)" d="M194.594 509.313 L212.95 509.313 L212.95 513.248 L198.876 513.248 L198.876 521.72 Q199.895 521.373 200.913 521.211 Q201.932 521.026 202.95 521.026 Q208.737 521.026 212.117 524.197 Q215.496 527.368 215.496 532.785 Q215.496 538.364 212.024 541.465 Q208.552 544.544 202.233 544.544 Q200.057 544.544 197.788 544.174 Q195.543 543.803 193.135 543.063 L193.135 538.364 Q195.219 539.498 197.441 540.053 Q199.663 540.609 202.14 540.609 Q206.145 540.609 208.482 538.503 Q210.82 536.396 210.82 532.785 Q210.82 529.174 208.482 527.067 Q206.145 524.961 202.14 524.961 Q200.265 524.961 198.39 525.378 Q196.538 525.794 194.594 526.674 L194.594 509.313 Z" fill="#000000" fill-rule="nonzero" fill-opacity="1" /><path clip-path="url(#clip090)" d="M118.969 142.726 L126.608 142.726 L126.608 116.36 L118.298 118.027 L118.298 113.768 L126.562 112.101 L131.238 112.101 L131.238 142.726 L138.876 142.726 L138.876 146.661 L118.969 146.661 L118.969 142.726 Z" fill="#000000" fill-rule="nonzero" fill-opacity="1" /><path clip-path="url(#clip090)" d="M148.321 140.781 L153.205 140.781 L153.205 146.661 L148.321 146.661 L148.321 140.781 Z" fill="#000000" fill-rule="nonzero" fill-opacity="1" /><path clip-path="url(#clip090)" d="M173.39 115.18 Q169.779 115.18 167.95 118.744 Q166.145 122.286 166.145 129.416 Q166.145 136.522 167.95 140.087 Q169.779 143.629 173.39 143.629 Q177.024 143.629 178.83 140.087 Q180.659 136.522 180.659 129.416 Q180.659 122.286 178.83 118.744 Q177.024 115.18 173.39 115.18 M173.39 111.476 Q179.2 111.476 182.256 116.082 Q185.334 120.666 185.334 129.416 Q185.334 138.143 182.256 142.749 Q179.2 147.332 173.39 147.332 Q167.58 147.332 164.501 142.749 Q161.446 138.143 161.446 129.416 Q161.446 120.666 164.501 116.082 Q167.58 111.476 173.39 111.476 Z" fill="#000000" fill-rule="nonzero" fill-opacity="1" /><path clip-path="url(#clip090)" d="M203.552 115.18 Q199.941 115.18 198.112 118.744 Q196.307 122.286 196.307 129.416 Q196.307 136.522 198.112 140.087 Q199.941 143.629 203.552 143.629 Q207.186 143.629 208.992 140.087 Q210.82 136.522 210.82 129.416 Q210.82 122.286 208.992 118.744 Q207.186 115.18 203.552 115.18 M203.552 111.476 Q209.362 111.476 212.418 116.082 Q215.496 120.666 215.496 129.416 Q215.496 138.143 212.418 142.749 Q209.362 147.332 203.552 147.332 Q197.742 147.332 194.663 142.749 Q191.608 138.143 191.608 129.416 Q191.608 120.666 194.663 116.082 Q197.742 111.476 203.552 111.476 Z" fill="#000000" fill-rule="nonzero" fill-opacity="1" /><path clip-path="url(#clip090)" d="M26.2384 913.53 Q27.0757 913.53 28.686 913.884 Q33.227 915.011 36.351 919.23 Q36.9307 919.939 37.6714 921.195 Q38.6698 919.681 40.5055 918.361 Q43.5329 916.396 47.623 916.396 Q49.5232 916.396 51.842 916.912 Q57.2204 918.361 61.0851 923.449 Q64.8532 928.57 64.8532 934.657 Q64.8532 937.942 63.1141 940.196 Q61.3427 942.419 58.3798 943.288 L76.4473 947.765 Q76.8982 947.861 76.8982 948.441 L76.8982 948.763 Q76.8982 949.44 76.1252 949.44 L35.5458 939.263 Q32.8083 938.586 30.2319 937.491 Q27.6554 936.396 25.3366 934.883 Q23.0178 933.337 21.3109 931.565 Q19.5717 929.794 18.5734 927.604 Q17.5428 925.414 17.5428 923.095 Q17.5428 918.232 20.86 915.462 Q23.211 913.53 26.2384 913.53 M25.0789 917.234 Q23.0822 917.234 21.6973 918.039 Q19.0564 919.681 19.0564 923.16 Q19.0564 925.253 20.0226 927.25 Q20.9566 929.214 22.5669 930.792 Q24.1772 932.37 26.3672 933.723 Q28.5572 935.076 30.9404 936.074 Q33.2914 937.04 35.8679 937.684 L51.842 941.646 Q53.5489 942.032 55.0626 942.032 Q58.6697 942.032 61.0207 940.035 Q63.3717 938.039 63.3717 934.593 Q63.3717 930.019 59.9579 926.09 Q56.8983 922.676 51.52 921.259 Q48.1383 920.454 45.7873 920.454 Q43.2108 920.454 41.2141 921.388 Q39.6038 922.065 38.6376 923.385 Q39.5072 925.833 39.5072 928.313 Q39.5072 929.504 39.475 930.148 Q39.4428 930.76 39.3139 931.662 Q39.1851 932.531 38.8308 932.95 Q38.4766 933.337 37.9291 933.337 Q37.607 933.337 37.4782 933.272 Q36.9629 933.143 36.6086 932.725 Q36.2544 932.306 36.0933 931.823 Q35.9001 931.34 35.8035 930.535 Q35.7069 929.697 35.7069 929.15 Q35.6747 928.602 35.6747 927.668 Q35.6747 925.478 36.5442 923.256 Q36.0933 922.419 35.2882 921.517 Q32.6151 918.651 28.3639 917.685 Q26.7858 917.234 25.0789 917.234 M37.5426 925.35 Q37.1883 926.702 37.1883 927.733 Q37.1883 931.501 37.8003 931.694 Q37.8647 931.694 37.9291 931.565 Q37.9613 931.436 37.9935 931.147 Q37.9935 930.825 38.0257 930.567 Q38.0579 930.277 38.0579 929.794 Q38.0579 929.311 38.0579 929.053 Q38.0579 928.763 38.0579 928.248 Q38.0579 926.96 37.5426 925.35 Z" fill="#000000" fill-rule="nonzero" fill-opacity="1" /><path clip-path="url(#clip090)" d="M1470.46 27.5174 Q1470.46 28.5831 1470.01 30.6325 Q1468.58 36.412 1463.21 40.388 Q1462.31 41.1258 1460.71 42.0686 Q1462.63 43.3392 1464.31 45.6756 Q1466.82 49.5286 1466.82 54.7342 Q1466.82 57.1526 1466.16 60.1038 Q1464.31 66.949 1457.84 71.8678 Q1451.32 76.6635 1443.57 76.6635 Q1439.39 76.6635 1436.52 74.4501 Q1433.7 72.1957 1432.59 68.4247 L1426.89 91.4196 Q1426.77 91.9935 1426.03 91.9935 L1425.62 91.9935 Q1424.76 91.9935 1424.76 91.0098 L1437.71 39.3633 Q1438.57 35.8792 1439.97 32.6 Q1441.36 29.3209 1443.29 26.3697 Q1445.25 23.4184 1447.51 21.246 Q1449.76 19.0326 1452.55 17.7619 Q1455.34 16.4503 1458.29 16.4503 Q1464.48 16.4503 1468 20.6721 Q1470.46 23.6644 1470.46 27.5174 M1465.75 26.0417 Q1465.75 23.5004 1464.72 21.7379 Q1462.63 18.3767 1458.21 18.3767 Q1455.54 18.3767 1453 19.6064 Q1450.5 20.7951 1448.49 22.8446 Q1446.48 24.894 1444.76 27.6813 Q1443.04 30.4686 1441.77 33.5018 Q1440.54 36.494 1439.72 39.7732 L1434.68 60.1038 Q1434.19 62.2763 1434.19 64.2028 Q1434.19 68.7936 1436.73 71.7858 Q1439.27 74.778 1443.66 74.778 Q1449.48 74.778 1454.48 70.4331 Q1458.82 66.5392 1460.63 59.6939 Q1461.65 55.3901 1461.65 52.3979 Q1461.65 49.1187 1460.46 46.5774 Q1459.6 44.5279 1457.92 43.2982 Q1454.81 44.4049 1451.65 44.4049 Q1450.13 44.4049 1449.31 44.364 Q1448.53 44.323 1447.39 44.159 Q1446.28 43.995 1445.75 43.5442 Q1445.25 43.0933 1445.25 42.3965 Q1445.25 41.9866 1445.34 41.8226 Q1445.5 41.1668 1446.03 40.7159 Q1446.57 40.265 1447.18 40.0601 Q1447.8 39.8141 1448.82 39.6912 Q1449.89 39.5682 1450.58 39.5682 Q1451.28 39.5272 1452.47 39.5272 Q1455.26 39.5272 1458.08 40.6339 Q1459.15 40.0601 1460.3 39.0353 Q1463.95 35.6332 1465.18 30.2227 Q1465.75 28.2142 1465.75 26.0417 M1455.42 41.9046 Q1453.7 41.4537 1452.39 41.4537 Q1447.59 41.4537 1447.35 42.2325 Q1447.35 42.3145 1447.51 42.3965 Q1447.67 42.4375 1448.04 42.4784 Q1448.45 42.4784 1448.78 42.5194 Q1449.15 42.5604 1449.76 42.5604 Q1450.38 42.5604 1450.71 42.5604 Q1451.08 42.5604 1451.73 42.5604 Q1453.37 42.5604 1455.42 41.9046 Z" fill="#000000" fill-rule="nonzero" fill-opacity="1" /><polyline clip-path="url(#clip092)" style="stroke:#009af9; stroke-linecap:round; stroke-linejoin:round; stroke-width:4; stroke-opacity:1; fill:none" points="255.816,1718.23 280.438,1718.23 424.643,1718.21 491.727,1718.11 581.645,1717.32 618.795,1716.28 655.945,1714.23 690.491,1710.76 725.037,1704.83 746.721,1699.26 768.404,1691.79 790.087,1681.94 811.771,1669.16 831.221,1654.71 850.671,1636.99 870.121,1615.54 889.571,1589.93 900.703,1573.25 911.835,1555.01 922.966,1535.16 934.098,1513.65 945.23,1490.44 956.361,1465.53 967.493,1438.89 978.625,1410.53 995.267,1365.01 1011.91,1315.87 1028.55,1263.36 1045.19,1207.79 1066.48,1132.95 1087.76,1054.82 1109.05,974.597 1130.33,893.56 1149.76,820.015 1169.19,747.9 1188.61,678.161 1208.04,611.657 1219.1,575.548 1230.15,540.849 1241.21,507.664 1252.26,476.082 1263.32,446.175 1274.37,418.002 1285.43,391.606 1296.48,367.018 1305.25,348.822 1314.01,331.777 1322.77,315.881 1331.54,301.132 1340.3,287.522 1349.07,275.042 1357.83,263.682 1366.59,253.427 1377.48,242.209 1388.37,232.653 1399.26,224.733 1410.14,218.427 1421.03,213.715 1431.92,210.581 1442.81,209.014 1453.7,209.009 1462.03,210.061 1470.37,212.031 1478.71,214.924 1487.05,218.744 1503.73,229.199 1520.4,243.471 1532.16,255.874 1543.91,270.25 1555.67,286.631 1567.43,305.044 1579.18,325.51 1590.94,348.043 1602.69,372.646 1614.45,399.308 1623.23,420.563 1632.02,442.938 1640.8,466.412 1649.59,490.956 1658.37,516.538 1667.16,543.119 1675.94,570.651 1684.73,599.084 1704.71,666.791 1724.69,738.062 1744.67,811.977 1764.65,887.519 1784.44,962.87 1804.23,1037.68 1824.01,1110.92 1843.8,1181.59 1854.69,1219.06 1865.57,1255.36 1876.46,1290.38 1887.34,1324.02 1898.23,1356.19 1909.11,1386.83 1920,1415.89 1930.88,1443.32 1947.51,1482.06 1964.14,1516.98 1972.46,1533.01 1980.77,1548.12 1989.08,1562.32 1997.4,1575.63 2007.89,1591.2 2018.38,1605.44 2028.87,1618.43 2039.37,1630.22 2049.86,1640.88 2060.35,1650.49 2070.84,1659.1 2081.33,1666.8 2100.74,1678.86 2120.15,1688.45 2139.56,1695.98 2158.97,1701.81 2199,1709.79 2239.03,1714.11 2279.61,1716.35 2320.19,1717.41 2404.93,1718.11 2471.68,1718.21 2623.7,1718.23 2640.76,1718.23 "/>
<polyline clip-path="url(#clip092)" style="stroke:#e26f46; stroke-linecap:round; stroke-linejoin:round; stroke-width:4; stroke-opacity:1; fill:none" points="1448.29,3340.44 1448.29,-1478.53 "/>
<path clip-path="url(#clip090)" d="M2300.54 285.016 L2561.26 285.016 L2561.26 181.336 L2300.54 181.336  Z" fill="#ffffff" fill-rule="evenodd" fill-opacity="1"/>
<polyline clip-path="url(#clip090)" style="stroke:#000000; stroke-linecap:round; stroke-linejoin:round; stroke-width:4; stroke-opacity:1; fill:none" points="2300.54,285.016 2561.26,285.016 2561.26,181.336 2300.54,181.336 2300.54,285.016 "/>
<polyline clip-path="url(#clip090)" style="stroke:#e26f46; stroke-linecap:round; stroke-linejoin:round; stroke-width:4; stroke-opacity:1; fill:none" points="2327.04,233.176 2486.04,233.176 "/>
<path clip-path="url(#clip090)" d="M2512.54 215.896 L2534.76 215.896 L2534.76 217.887 L2522.21 250.456 L2517.33 250.456 L2529.13 219.831 L2512.54 219.831 L2512.54 215.896 Z" fill="#000000" fill-rule="nonzero" fill-opacity="1" /></svg>
