<?xml version="1.0" encoding="utf-8"?>
<svg xmlns="http://www.w3.org/2000/svg" xmlns:xlink="http://www.w3.org/1999/xlink" width="672" height="480" viewBox="0 0 2688 1920">
<defs>
  <clipPath id="clip520">
    <rect x="0" y="0" width="2688" height="1920"/>
  </clipPath>
</defs>
<path clip-path="url(#clip520)" d="M0 1920 L2688 1920 L2688 0 L0 0  Z" fill="#ffffff" fill-rule="evenodd" fill-opacity="1"/>
<defs>
  <clipPath id="clip521">
    <rect x="537" y="0" width="1883" height="1883"/>
  </clipPath>
</defs>
<path clip-path="url(#clip520)" d="M152.283 1788.63 L2640.76 1788.63 L2640.76 141.759 L152.283 141.759  Z" fill="#ffffff" fill-rule="evenodd" fill-opacity="1"/>
<defs>
  <clipPath id="clip522">
    <rect x="152" y="141" width="2489" height="1648"/>
  </clipPath>
</defs>
<polyline clip-path="url(#clip522)" style="stroke:#000000; stroke-linecap:round; stroke-linejoin:round; stroke-width:2; stroke-opacity:0.1; fill:none" points="152.283,1788.63 152.283,141.759 "/>
<polyline clip-path="url(#clip522)" style="stroke:#000000; stroke-linecap:round; stroke-linejoin:round; stroke-width:2; stroke-opacity:0.1; fill:none" points="566.338,1788.63 566.338,141.759 "/>
<polyline clip-path="url(#clip522)" style="stroke:#000000; stroke-linecap:round; stroke-linejoin:round; stroke-width:2; stroke-opacity:0.1; fill:none" points="980.394,1788.63 980.394,141.759 "/>
<polyline clip-path="url(#clip522)" style="stroke:#000000; stroke-linecap:round; stroke-linejoin:round; stroke-width:2; stroke-opacity:0.1; fill:none" points="1394.45,1788.63 1394.45,141.759 "/>
<polyline clip-path="url(#clip522)" style="stroke:#000000; stroke-linecap:round; stroke-linejoin:round; stroke-width:2; stroke-opacity:0.1; fill:none" points="1808.5,1788.63 1808.5,141.759 "/>
<polyline clip-path="url(#clip522)" style="stroke:#000000; stroke-linecap:round; stroke-linejoin:round; stroke-width:2; stroke-opacity:0.1; fill:none" points="2222.56,1788.63 2222.56,141.759 "/>
<polyline clip-path="url(#clip522)" style="stroke:#000000; stroke-linecap:round; stroke-linejoin:round; stroke-width:2; stroke-opacity:0.1; fill:none" points="2636.62,1788.63 2636.62,141.759 "/>
<polyline clip-path="url(#clip522)" style="stroke:#000000; stroke-linecap:round; stroke-linejoin:round; stroke-width:2; stroke-opacity:0.1; fill:none" points="152.283,1742.03 2640.76,1742.03 "/>
<polyline clip-path="url(#clip522)" style="stroke:#000000; stroke-linecap:round; stroke-linejoin:round; stroke-width:2; stroke-opacity:0.1; fill:none" points="152.283,1372.46 2640.76,1372.46 "/>
<polyline clip-path="url(#clip522)" style="stroke:#000000; stroke-linecap:round; stroke-linejoin:round; stroke-width:2; stroke-opacity:0.1; fill:none" points="152.283,1002.89 2640.76,1002.89 "/>
<polyline clip-path="url(#clip522)" style="stroke:#000000; stroke-linecap:round; stroke-linejoin:round; stroke-width:2; stroke-opacity:0.1; fill:none" points="152.283,633.325 2640.76,633.325 "/>
<polyline clip-path="url(#clip522)" style="stroke:#000000; stroke-linecap:round; stroke-linejoin:round; stroke-width:2; stroke-opacity:0.1; fill:none" points="152.283,263.759 2640.76,263.759 "/>
<polyline clip-path="url(#clip520)" style="stroke:#000000; stroke-linecap:round; stroke-linejoin:round; stroke-width:4; stroke-opacity:1; fill:none" points="152.283,1788.63 2640.76,1788.63 "/>
<polyline clip-path="url(#clip520)" style="stroke:#000000; stroke-linecap:round; stroke-linejoin:round; stroke-width:4; stroke-opacity:1; fill:none" points="152.283,1788.63 152.283,1769.74 "/>
<polyline clip-path="url(#clip520)" style="stroke:#000000; stroke-linecap:round; stroke-linejoin:round; stroke-width:4; stroke-opacity:1; fill:none" points="566.338,1788.63 566.338,1769.74 "/>
<polyline clip-path="url(#clip520)" style="stroke:#000000; stroke-linecap:round; stroke-linejoin:round; stroke-width:4; stroke-opacity:1; fill:none" points="980.394,1788.63 980.394,1769.74 "/>
<polyline clip-path="url(#clip520)" style="stroke:#000000; stroke-linecap:round; stroke-linejoin:round; stroke-width:4; stroke-opacity:1; fill:none" points="1394.45,1788.63 1394.45,1769.74 "/>
<polyline clip-path="url(#clip520)" style="stroke:#000000; stroke-linecap:round; stroke-linejoin:round; stroke-width:4; stroke-opacity:1; fill:none" points="1808.5,1788.63 1808.5,1769.74 "/>
<polyline clip-path="url(#clip520)" style="stroke:#000000; stroke-linecap:round; stroke-linejoin:round; stroke-width:4; stroke-opacity:1; fill:none" points="2222.56,1788.63 2222.56,1769.74 "/>
<polyline clip-path="url(#clip520)" style="stroke:#000000; stroke-linecap:round; stroke-linejoin:round; stroke-width:4; stroke-opacity:1; fill:none" points="2636.62,1788.63 2636.62,1769.74 "/>
<path clip-path="url(#clip520)" d="M129.667 1821.86 Q126.056 1821.86 124.227 1825.42 Q122.422 1828.96 122.422 1836.09 Q122.422 1843.2 124.227 1846.76 Q126.056 1850.31 129.667 1850.31 Q133.301 1850.31 135.107 1846.76 Q136.936 1843.2 136.936 1836.09 Q136.936 1828.96 135.107 1825.42 Q133.301 1821.86 129.667 1821.86 M129.667 1818.15 Q135.477 1818.15 138.533 1822.76 Q141.611 1827.34 141.611 1836.09 Q141.611 1844.82 138.533 1849.43 Q135.477 1854.01 129.667 1854.01 Q123.857 1854.01 120.778 1849.43 Q117.723 1844.82 117.723 1836.09 Q117.723 1827.34 120.778 1822.76 Q123.857 1818.15 129.667 1818.15 Z" fill="#000000" fill-rule="nonzero" fill-opacity="1" /><path clip-path="url(#clip520)" d="M149.829 1847.46 L154.713 1847.46 L154.713 1853.34 L149.829 1853.34 L149.829 1847.46 Z" fill="#000000" fill-rule="nonzero" fill-opacity="1" /><path clip-path="url(#clip520)" d="M174.898 1821.86 Q171.287 1821.86 169.458 1825.42 Q167.653 1828.96 167.653 1836.09 Q167.653 1843.2 169.458 1846.76 Q171.287 1850.31 174.898 1850.31 Q178.533 1850.31 180.338 1846.76 Q182.167 1843.2 182.167 1836.09 Q182.167 1828.96 180.338 1825.42 Q178.533 1821.86 174.898 1821.86 M174.898 1818.15 Q180.708 1818.15 183.764 1822.76 Q186.843 1827.34 186.843 1836.09 Q186.843 1844.82 183.764 1849.43 Q180.708 1854.01 174.898 1854.01 Q169.088 1854.01 166.009 1849.43 Q162.954 1844.82 162.954 1836.09 Q162.954 1827.34 166.009 1822.76 Q169.088 1818.15 174.898 1818.15 Z" fill="#000000" fill-rule="nonzero" fill-opacity="1" /><path clip-path="url(#clip520)" d="M544.336 1821.86 Q540.725 1821.86 538.896 1825.42 Q537.091 1828.96 537.091 1836.09 Q537.091 1843.2 538.896 1846.76 Q540.725 1850.31 544.336 1850.31 Q547.97 1850.31 549.776 1846.76 Q551.604 1843.2 551.604 1836.09 Q551.604 1828.96 549.776 1825.42 Q547.97 1821.86 544.336 1821.86 M544.336 1818.15 Q550.146 1818.15 553.202 1822.76 Q556.28 1827.34 556.28 1836.09 Q556.28 1844.82 553.202 1849.43 Q550.146 1854.01 544.336 1854.01 Q538.526 1854.01 535.447 1849.43 Q532.392 1844.82 532.392 1836.09 Q532.392 1827.34 535.447 1822.76 Q538.526 1818.15 544.336 1818.15 Z" fill="#000000" fill-rule="nonzero" fill-opacity="1" /><path clip-path="url(#clip520)" d="M564.498 1847.46 L569.382 1847.46 L569.382 1853.34 L564.498 1853.34 L564.498 1847.46 Z" fill="#000000" fill-rule="nonzero" fill-opacity="1" /><path clip-path="url(#clip520)" d="M580.377 1849.4 L588.016 1849.4 L588.016 1823.04 L579.706 1824.7 L579.706 1820.45 L587.97 1818.78 L592.646 1818.78 L592.646 1849.4 L600.285 1849.4 L600.285 1853.34 L580.377 1853.34 L580.377 1849.4 Z" fill="#000000" fill-rule="nonzero" fill-opacity="1" /><path clip-path="url(#clip520)" d="M958.577 1821.86 Q954.965 1821.86 953.137 1825.42 Q951.331 1828.96 951.331 1836.09 Q951.331 1843.2 953.137 1846.76 Q954.965 1850.31 958.577 1850.31 Q962.211 1850.31 964.016 1846.76 Q965.845 1843.2 965.845 1836.09 Q965.845 1828.96 964.016 1825.42 Q962.211 1821.86 958.577 1821.86 M958.577 1818.15 Q964.387 1818.15 967.442 1822.76 Q970.521 1827.34 970.521 1836.09 Q970.521 1844.82 967.442 1849.43 Q964.387 1854.01 958.577 1854.01 Q952.766 1854.01 949.688 1849.43 Q946.632 1844.82 946.632 1836.09 Q946.632 1827.34 949.688 1822.76 Q952.766 1818.15 958.577 1818.15 Z" fill="#000000" fill-rule="nonzero" fill-opacity="1" /><path clip-path="url(#clip520)" d="M978.738 1847.46 L983.623 1847.46 L983.623 1853.34 L978.738 1853.34 L978.738 1847.46 Z" fill="#000000" fill-rule="nonzero" fill-opacity="1" /><path clip-path="url(#clip520)" d="M997.836 1849.4 L1014.15 1849.4 L1014.15 1853.34 L992.211 1853.34 L992.211 1849.4 Q994.873 1846.65 999.456 1842.02 Q1004.06 1837.37 1005.24 1836.02 Q1007.49 1833.5 1008.37 1831.76 Q1009.27 1830.01 1009.27 1828.32 Q1009.27 1825.56 1007.33 1823.83 Q1005.4 1822.09 1002.3 1822.09 Q1000.1 1822.09 997.65 1822.85 Q995.22 1823.62 992.442 1825.17 L992.442 1820.45 Q995.266 1819.31 997.72 1818.73 Q1000.17 1818.15 1002.21 1818.15 Q1007.58 1818.15 1010.78 1820.84 Q1013.97 1823.52 1013.97 1828.01 Q1013.97 1830.14 1013.16 1832.07 Q1012.37 1833.96 1010.27 1836.56 Q1009.69 1837.23 1006.59 1840.45 Q1003.48 1843.64 997.836 1849.4 Z" fill="#000000" fill-rule="nonzero" fill-opacity="1" /><path clip-path="url(#clip520)" d="M1372.16 1821.86 Q1368.55 1821.86 1366.72 1825.42 Q1364.91 1828.96 1364.91 1836.09 Q1364.91 1843.2 1366.72 1846.76 Q1368.55 1850.31 1372.16 1850.31 Q1375.79 1850.31 1377.6 1846.76 Q1379.43 1843.2 1379.43 1836.09 Q1379.43 1828.96 1377.6 1825.42 Q1375.79 1821.86 1372.16 1821.86 M1372.16 1818.15 Q1377.97 1818.15 1381.02 1822.76 Q1384.1 1827.34 1384.1 1836.09 Q1384.1 1844.82 1381.02 1849.43 Q1377.97 1854.01 1372.16 1854.01 Q1366.35 1854.01 1363.27 1849.43 Q1360.21 1844.82 1360.21 1836.09 Q1360.21 1827.34 1363.27 1822.76 Q1366.35 1818.15 1372.16 1818.15 Z" fill="#000000" fill-rule="nonzero" fill-opacity="1" /><path clip-path="url(#clip520)" d="M1392.32 1847.46 L1397.2 1847.46 L1397.2 1853.34 L1392.32 1853.34 L1392.32 1847.46 Z" fill="#000000" fill-rule="nonzero" fill-opacity="1" /><path clip-path="url(#clip520)" d="M1421.56 1834.7 Q1424.91 1835.42 1426.79 1837.69 Q1428.68 1839.96 1428.68 1843.29 Q1428.68 1848.41 1425.17 1851.21 Q1421.65 1854.01 1415.17 1854.01 Q1412.99 1854.01 1410.68 1853.57 Q1408.38 1853.15 1405.93 1852.3 L1405.93 1847.78 Q1407.87 1848.92 1410.19 1849.5 Q1412.5 1850.07 1415.03 1850.07 Q1419.43 1850.07 1421.72 1848.34 Q1424.03 1846.6 1424.03 1843.29 Q1424.03 1840.24 1421.88 1838.52 Q1419.75 1836.79 1415.93 1836.79 L1411.9 1836.79 L1411.9 1832.95 L1416.12 1832.95 Q1419.56 1832.95 1421.39 1831.58 Q1423.22 1830.19 1423.22 1827.6 Q1423.22 1824.94 1421.32 1823.52 Q1419.45 1822.09 1415.93 1822.09 Q1414.01 1822.09 1411.81 1822.51 Q1409.61 1822.92 1406.97 1823.8 L1406.97 1819.64 Q1409.63 1818.89 1411.95 1818.52 Q1414.29 1818.15 1416.35 1818.15 Q1421.67 1818.15 1424.77 1820.58 Q1427.87 1822.99 1427.87 1827.11 Q1427.87 1829.98 1426.23 1831.97 Q1424.59 1833.94 1421.56 1834.7 Z" fill="#000000" fill-rule="nonzero" fill-opacity="1" /><path clip-path="url(#clip520)" d="M1785.65 1821.86 Q1782.03 1821.86 1780.21 1825.42 Q1778.4 1828.96 1778.4 1836.09 Q1778.4 1843.2 1780.21 1846.76 Q1782.03 1850.31 1785.65 1850.31 Q1789.28 1850.31 1791.09 1846.76 Q1792.91 1843.2 1792.91 1836.09 Q1792.91 1828.96 1791.09 1825.42 Q1789.28 1821.86 1785.65 1821.86 M1785.65 1818.15 Q1791.46 1818.15 1794.51 1822.76 Q1797.59 1827.34 1797.59 1836.09 Q1797.59 1844.82 1794.51 1849.43 Q1791.46 1854.01 1785.65 1854.01 Q1779.84 1854.01 1776.76 1849.43 Q1773.7 1844.82 1773.7 1836.09 Q1773.7 1827.34 1776.76 1822.76 Q1779.84 1818.15 1785.65 1818.15 Z" fill="#000000" fill-rule="nonzero" fill-opacity="1" /><path clip-path="url(#clip520)" d="M1805.81 1847.46 L1810.69 1847.46 L1810.69 1853.34 L1805.81 1853.34 L1805.81 1847.46 Z" fill="#000000" fill-rule="nonzero" fill-opacity="1" /><path clip-path="url(#clip520)" d="M1833.72 1822.85 L1821.92 1841.3 L1833.72 1841.3 L1833.72 1822.85 M1832.5 1818.78 L1838.38 1818.78 L1838.38 1841.3 L1843.31 1841.3 L1843.31 1845.19 L1838.38 1845.19 L1838.38 1853.34 L1833.72 1853.34 L1833.72 1845.19 L1818.12 1845.19 L1818.12 1840.68 L1832.5 1818.78 Z" fill="#000000" fill-rule="nonzero" fill-opacity="1" /><path clip-path="url(#clip520)" d="M2200.44 1821.86 Q2196.83 1821.86 2195 1825.42 Q2193.2 1828.96 2193.2 1836.09 Q2193.2 1843.2 2195 1846.76 Q2196.83 1850.31 2200.44 1850.31 Q2204.08 1850.31 2205.88 1846.76 Q2207.71 1843.2 2207.71 1836.09 Q2207.71 1828.96 2205.88 1825.42 Q2204.08 1821.86 2200.44 1821.86 M2200.44 1818.15 Q2206.25 1818.15 2209.31 1822.76 Q2212.39 1827.34 2212.39 1836.09 Q2212.39 1844.82 2209.31 1849.43 Q2206.25 1854.01 2200.44 1854.01 Q2194.63 1854.01 2191.55 1849.43 Q2188.5 1844.82 2188.5 1836.09 Q2188.5 1827.34 2191.55 1822.76 Q2194.63 1818.15 2200.44 1818.15 Z" fill="#000000" fill-rule="nonzero" fill-opacity="1" /><path clip-path="url(#clip520)" d="M2220.6 1847.46 L2225.49 1847.46 L2225.49 1853.34 L2220.6 1853.34 L2220.6 1847.46 Z" fill="#000000" fill-rule="nonzero" fill-opacity="1" /><path clip-path="url(#clip520)" d="M2235.72 1818.78 L2254.08 1818.78 L2254.08 1822.71 L2240 1822.71 L2240 1831.19 Q2241.02 1830.84 2242.04 1830.68 Q2243.06 1830.49 2244.08 1830.49 Q2249.86 1830.49 2253.24 1833.66 Q2256.62 1836.83 2256.62 1842.25 Q2256.62 1847.83 2253.15 1850.93 Q2249.68 1854.01 2243.36 1854.01 Q2241.18 1854.01 2238.91 1853.64 Q2236.67 1853.27 2234.26 1852.53 L2234.26 1847.83 Q2236.34 1848.96 2238.57 1849.52 Q2240.79 1850.07 2243.27 1850.07 Q2247.27 1850.07 2249.61 1847.97 Q2251.95 1845.86 2251.95 1842.25 Q2251.95 1838.64 2249.61 1836.53 Q2247.27 1834.43 2243.27 1834.43 Q2241.39 1834.43 2239.52 1834.84 Q2237.66 1835.26 2235.72 1836.14 L2235.72 1818.78 Z" fill="#000000" fill-rule="nonzero" fill-opacity="1" /><path clip-path="url(#clip520)" d="M2613.92 1821.86 Q2610.31 1821.86 2608.48 1825.42 Q2606.67 1828.96 2606.67 1836.09 Q2606.67 1843.2 2608.48 1846.76 Q2610.31 1850.31 2613.92 1850.31 Q2617.55 1850.31 2619.36 1846.76 Q2621.19 1843.2 2621.19 1836.09 Q2621.19 1828.96 2619.36 1825.42 Q2617.55 1821.86 2613.92 1821.86 M2613.92 1818.15 Q2619.73 1818.15 2622.78 1822.76 Q2625.86 1827.34 2625.86 1836.09 Q2625.86 1844.82 2622.78 1849.43 Q2619.73 1854.01 2613.92 1854.01 Q2608.11 1854.01 2605.03 1849.43 Q2601.97 1844.82 2601.97 1836.09 Q2601.97 1827.34 2605.03 1822.76 Q2608.11 1818.15 2613.92 1818.15 Z" fill="#000000" fill-rule="nonzero" fill-opacity="1" /><path clip-path="url(#clip520)" d="M2634.08 1847.46 L2638.96 1847.46 L2638.96 1853.34 L2634.08 1853.34 L2634.08 1847.46 Z" fill="#000000" fill-rule="nonzero" fill-opacity="1" /><path clip-path="url(#clip520)" d="M2659.73 1834.2 Q2656.58 1834.2 2654.73 1836.35 Q2652.9 1838.5 2652.9 1842.25 Q2652.9 1845.98 2654.73 1848.15 Q2656.58 1850.31 2659.73 1850.31 Q2662.88 1850.31 2664.71 1848.15 Q2666.56 1845.98 2666.56 1842.25 Q2666.56 1838.5 2664.71 1836.35 Q2662.88 1834.2 2659.73 1834.2 M2669.01 1819.54 L2669.01 1823.8 Q2667.25 1822.97 2665.45 1822.53 Q2663.66 1822.09 2661.9 1822.09 Q2657.27 1822.09 2654.82 1825.21 Q2652.39 1828.34 2652.04 1834.66 Q2653.41 1832.64 2655.47 1831.58 Q2657.53 1830.49 2660.01 1830.49 Q2665.21 1830.49 2668.22 1833.66 Q2671.26 1836.81 2671.26 1842.25 Q2671.26 1847.57 2668.11 1850.79 Q2664.96 1854.01 2659.73 1854.01 Q2653.73 1854.01 2650.56 1849.43 Q2647.39 1844.82 2647.39 1836.09 Q2647.39 1827.9 2651.28 1823.04 Q2655.17 1818.15 2661.72 1818.15 Q2663.48 1818.15 2665.26 1818.5 Q2667.07 1818.85 2669.01 1819.54 Z" fill="#000000" fill-rule="nonzero" fill-opacity="1" /><path clip-path="url(#clip520)" d="M1408.45 1898.99 Q1408.45 1904.4 1406.72 1910.49 Q1405.01 1916.54 1402.3 1921.44 Q1399.6 1926.3 1396.06 1929.52 Q1392.51 1932.71 1389.13 1932.71 Q1386.97 1932.71 1385.36 1931.52 Q1383.78 1930.29 1382.92 1928.27 Q1382.05 1926.2 1381.63 1923.95 Q1381.21 1921.66 1381.21 1919.18 Q1381.21 1915.48 1382.01 1911.45 Q1382.82 1907.4 1384.17 1903.72 Q1385.52 1900.02 1387.42 1896.67 Q1389.32 1893.29 1391.42 1890.84 Q1393.54 1888.36 1395.93 1886.91 Q1398.31 1885.46 1400.53 1885.46 Q1402.14 1885.46 1403.43 1886.17 Q1404.75 1886.85 1405.59 1888.04 Q1406.43 1889.2 1407.01 1890.58 Q1407.62 1891.97 1407.91 1893.58 Q1408.2 1895.16 1408.33 1896.48 Q1408.45 1897.77 1408.45 1898.99 M1404.11 1894.9 Q1404.11 1893.26 1403.98 1892.03 Q1403.85 1890.78 1403.49 1889.52 Q1403.14 1888.27 1402.37 1887.59 Q1401.63 1886.91 1400.47 1886.91 Q1397.09 1886.91 1393.29 1893.84 Q1392.06 1896 1390.97 1898.93 Q1389.87 1901.86 1389.49 1903.24 Q1389.1 1904.63 1388.2 1908.04 L1401.98 1908.04 Q1404.11 1899.25 1404.11 1894.9 M1401.4 1910.13 L1387.68 1910.13 Q1385.56 1918.19 1385.56 1923.21 Q1385.56 1927.59 1386.46 1929.43 Q1387.39 1931.23 1389.13 1931.23 Q1391.13 1931.23 1393 1929.23 Q1394.86 1927.2 1396.76 1923.53 Q1399.28 1918.76 1401.4 1910.13 Z" fill="#000000" fill-rule="nonzero" fill-opacity="1" /><polyline clip-path="url(#clip520)" style="stroke:#000000; stroke-linecap:round; stroke-linejoin:round; stroke-width:4; stroke-opacity:1; fill:none" points="152.283,1788.63 152.283,141.759 "/>
<polyline clip-path="url(#clip520)" style="stroke:#000000; stroke-linecap:round; stroke-linejoin:round; stroke-width:4; stroke-opacity:1; fill:none" points="152.283,1742.03 171.18,1742.03 "/>
<polyline clip-path="url(#clip520)" style="stroke:#000000; stroke-linecap:round; stroke-linejoin:round; stroke-width:4; stroke-opacity:1; fill:none" points="152.283,1372.46 171.18,1372.46 "/>
<polyline clip-path="url(#clip520)" style="stroke:#000000; stroke-linecap:round; stroke-linejoin:round; stroke-width:4; stroke-opacity:1; fill:none" points="152.283,1002.89 171.18,1002.89 "/>
<polyline clip-path="url(#clip520)" style="stroke:#000000; stroke-linecap:round; stroke-linejoin:round; stroke-width:4; stroke-opacity:1; fill:none" points="152.283,633.325 171.18,633.325 "/>
<polyline clip-path="url(#clip520)" style="stroke:#000000; stroke-linecap:round; stroke-linejoin:round; stroke-width:4; stroke-opacity:1; fill:none" points="152.283,263.759 171.18,263.759 "/>
<path clip-path="url(#clip520)" d="M54.787 1727.82 Q51.1759 1727.82 49.3473 1731.39 Q47.5417 1734.93 47.5417 1742.06 Q47.5417 1749.17 49.3473 1752.73 Q51.1759 1756.27 54.787 1756.27 Q58.4213 1756.27 60.2268 1752.73 Q62.0555 1749.17 62.0555 1742.06 Q62.0555 1734.93 60.2268 1731.39 Q58.4213 1727.82 54.787 1727.82 M54.787 1724.12 Q60.5972 1724.12 63.6527 1728.73 Q66.7314 1733.31 66.7314 1742.06 Q66.7314 1750.79 63.6527 1755.39 Q60.5972 1759.98 54.787 1759.98 Q48.9769 1759.98 45.8982 1755.39 Q42.8427 1750.79 42.8427 1742.06 Q42.8427 1733.31 45.8982 1728.73 Q48.9769 1724.12 54.787 1724.12 Z" fill="#000000" fill-rule="nonzero" fill-opacity="1" /><path clip-path="url(#clip520)" d="M74.949 1753.43 L79.8332 1753.43 L79.8332 1759.31 L74.949 1759.31 L74.949 1753.43 Z" fill="#000000" fill-rule="nonzero" fill-opacity="1" /><path clip-path="url(#clip520)" d="M100.018 1727.82 Q96.4072 1727.82 94.5785 1731.39 Q92.7729 1734.93 92.7729 1742.06 Q92.7729 1749.17 94.5785 1752.73 Q96.4072 1756.27 100.018 1756.27 Q103.653 1756.27 105.458 1752.73 Q107.287 1749.17 107.287 1742.06 Q107.287 1734.93 105.458 1731.39 Q103.653 1727.82 100.018 1727.82 M100.018 1724.12 Q105.828 1724.12 108.884 1728.73 Q111.963 1733.31 111.963 1742.06 Q111.963 1750.79 108.884 1755.39 Q105.828 1759.98 100.018 1759.98 Q94.2081 1759.98 91.1294 1755.39 Q88.0739 1750.79 88.0739 1742.06 Q88.0739 1733.31 91.1294 1728.73 Q94.2081 1724.12 100.018 1724.12 Z" fill="#000000" fill-rule="nonzero" fill-opacity="1" /><path clip-path="url(#clip520)" d="M56.3843 1358.26 Q52.7732 1358.26 50.9445 1361.82 Q49.1389 1365.36 49.1389 1372.49 Q49.1389 1379.6 50.9445 1383.16 Q52.7732 1386.71 56.3843 1386.71 Q60.0185 1386.71 61.824 1383.16 Q63.6527 1379.6 63.6527 1372.49 Q63.6527 1365.36 61.824 1361.82 Q60.0185 1358.26 56.3843 1358.26 M56.3843 1354.55 Q62.1944 1354.55 65.2499 1359.16 Q68.3286 1363.74 68.3286 1372.49 Q68.3286 1381.22 65.2499 1385.83 Q62.1944 1390.41 56.3843 1390.41 Q50.5741 1390.41 47.4954 1385.83 Q44.4399 1381.22 44.4399 1372.49 Q44.4399 1363.74 47.4954 1359.16 Q50.5741 1354.55 56.3843 1354.55 Z" fill="#000000" fill-rule="nonzero" fill-opacity="1" /><path clip-path="url(#clip520)" d="M76.5462 1383.86 L81.4304 1383.86 L81.4304 1389.74 L76.5462 1389.74 L76.5462 1383.86 Z" fill="#000000" fill-rule="nonzero" fill-opacity="1" /><path clip-path="url(#clip520)" d="M95.6433 1385.8 L111.963 1385.8 L111.963 1389.74 L90.0183 1389.74 L90.0183 1385.8 Q92.6804 1383.05 97.2637 1378.42 Q101.87 1373.77 103.051 1372.42 Q105.296 1369.9 106.176 1368.16 Q107.078 1366.41 107.078 1364.72 Q107.078 1361.96 105.134 1360.22 Q103.213 1358.49 100.111 1358.49 Q97.9118 1358.49 95.4581 1359.25 Q93.0276 1360.02 90.2498 1361.57 L90.2498 1356.85 Q93.0739 1355.71 95.5276 1355.13 Q97.9813 1354.55 100.018 1354.55 Q105.389 1354.55 108.583 1357.24 Q111.777 1359.92 111.777 1364.41 Q111.777 1366.54 110.967 1368.47 Q110.18 1370.36 108.074 1372.96 Q107.495 1373.63 104.393 1376.85 Q101.291 1380.04 95.6433 1385.8 Z" fill="#000000" fill-rule="nonzero" fill-opacity="1" /><path clip-path="url(#clip520)" d="M54.3009 988.691 Q50.6898 988.691 48.8611 992.255 Q47.0556 995.797 47.0556 1002.93 Q47.0556 1010.03 48.8611 1013.6 Q50.6898 1017.14 54.3009 1017.14 Q57.9352 1017.14 59.7407 1013.6 Q61.5694 1010.03 61.5694 1002.93 Q61.5694 995.797 59.7407 992.255 Q57.9352 988.691 54.3009 988.691 M54.3009 984.987 Q60.1111 984.987 63.1666 989.593 Q66.2453 994.177 66.2453 1002.93 Q66.2453 1011.65 63.1666 1016.26 Q60.1111 1020.84 54.3009 1020.84 Q48.4908 1020.84 45.4121 1016.26 Q42.3565 1011.65 42.3565 1002.93 Q42.3565 994.177 45.4121 989.593 Q48.4908 984.987 54.3009 984.987 Z" fill="#000000" fill-rule="nonzero" fill-opacity="1" /><path clip-path="url(#clip520)" d="M74.4629 1014.29 L79.3471 1014.29 L79.3471 1020.17 L74.4629 1020.17 L74.4629 1014.29 Z" fill="#000000" fill-rule="nonzero" fill-opacity="1" /><path clip-path="url(#clip520)" d="M102.379 989.686 L90.5739 1008.13 L102.379 1008.13 L102.379 989.686 M101.153 985.612 L107.032 985.612 L107.032 1008.13 L111.963 1008.13 L111.963 1012.02 L107.032 1012.02 L107.032 1020.17 L102.379 1020.17 L102.379 1012.02 L86.7776 1012.02 L86.7776 1007.51 L101.153 985.612 Z" fill="#000000" fill-rule="nonzero" fill-opacity="1" /><path clip-path="url(#clip520)" d="M54.625 619.124 Q51.0139 619.124 49.1852 622.689 Q47.3797 626.23 47.3797 633.36 Q47.3797 640.466 49.1852 644.031 Q51.0139 647.573 54.625 647.573 Q58.2592 647.573 60.0648 644.031 Q61.8935 640.466 61.8935 633.36 Q61.8935 626.23 60.0648 622.689 Q58.2592 619.124 54.625 619.124 M54.625 615.42 Q60.4352 615.42 63.4907 620.027 Q66.5694 624.61 66.5694 633.36 Q66.5694 642.087 63.4907 646.693 Q60.4352 651.277 54.625 651.277 Q48.8148 651.277 45.7362 646.693 Q42.6806 642.087 42.6806 633.36 Q42.6806 624.61 45.7362 620.027 Q48.8148 615.42 54.625 615.42 Z" fill="#000000" fill-rule="nonzero" fill-opacity="1" /><path clip-path="url(#clip520)" d="M74.7869 644.726 L79.6712 644.726 L79.6712 650.605 L74.7869 650.605 L74.7869 644.726 Z" fill="#000000" fill-rule="nonzero" fill-opacity="1" /><path clip-path="url(#clip520)" d="M100.435 631.462 Q97.2868 631.462 95.435 633.615 Q93.6063 635.767 93.6063 639.517 Q93.6063 643.244 95.435 645.42 Q97.2868 647.573 100.435 647.573 Q103.583 647.573 105.412 645.42 Q107.264 643.244 107.264 639.517 Q107.264 635.767 105.412 633.615 Q103.583 631.462 100.435 631.462 M109.717 616.809 L109.717 621.068 Q107.958 620.235 106.153 619.795 Q104.37 619.355 102.611 619.355 Q97.9813 619.355 95.5276 622.48 Q93.097 625.605 92.7498 631.925 Q94.1155 629.911 96.1757 628.846 Q98.2359 627.758 100.713 627.758 Q105.921 627.758 108.93 630.929 Q111.963 634.078 111.963 639.517 Q111.963 644.841 108.815 648.059 Q105.666 651.277 100.435 651.277 Q94.4396 651.277 91.2683 646.693 Q88.097 642.087 88.097 633.36 Q88.097 625.166 91.9859 620.304 Q95.8748 615.42 102.426 615.42 Q104.185 615.42 105.967 615.767 Q107.773 616.115 109.717 616.809 Z" fill="#000000" fill-rule="nonzero" fill-opacity="1" /><path clip-path="url(#clip520)" d="M54.8796 249.557 Q51.2685 249.557 49.4398 253.122 Q47.6343 256.664 47.6343 263.793 Q47.6343 270.9 49.4398 274.465 Q51.2685 278.006 54.8796 278.006 Q58.5139 278.006 60.3194 274.465 Q62.1481 270.9 62.1481 263.793 Q62.1481 256.664 60.3194 253.122 Q58.5139 249.557 54.8796 249.557 M54.8796 245.854 Q60.6898 245.854 63.7453 250.46 Q66.824 255.043 66.824 263.793 Q66.824 272.52 63.7453 277.127 Q60.6898 281.71 54.8796 281.71 Q49.0695 281.71 45.9908 277.127 Q42.9352 272.52 42.9352 263.793 Q42.9352 255.043 45.9908 250.46 Q49.0695 245.854 54.8796 245.854 Z" fill="#000000" fill-rule="nonzero" fill-opacity="1" /><path clip-path="url(#clip520)" d="M75.0416 275.159 L79.9258 275.159 L79.9258 281.039 L75.0416 281.039 L75.0416 275.159 Z" fill="#000000" fill-rule="nonzero" fill-opacity="1" /><path clip-path="url(#clip520)" d="M100.111 264.627 Q96.7776 264.627 94.8563 266.409 Q92.9581 268.191 92.9581 271.316 Q92.9581 274.441 94.8563 276.224 Q96.7776 278.006 100.111 278.006 Q103.444 278.006 105.365 276.224 Q107.287 274.418 107.287 271.316 Q107.287 268.191 105.365 266.409 Q103.467 264.627 100.111 264.627 M95.435 262.636 Q92.4257 261.895 90.7359 259.835 Q89.0693 257.775 89.0693 254.812 Q89.0693 250.668 92.0091 248.261 Q94.972 245.854 100.111 245.854 Q105.273 245.854 108.213 248.261 Q111.152 250.668 111.152 254.812 Q111.152 257.775 109.463 259.835 Q107.796 261.895 104.81 262.636 Q108.19 263.423 110.065 265.715 Q111.963 268.006 111.963 271.316 Q111.963 276.34 108.884 279.025 Q105.828 281.71 100.111 281.71 Q94.3933 281.71 91.3146 279.025 Q88.2591 276.34 88.2591 271.316 Q88.2591 268.006 90.1572 265.715 Q92.0554 263.423 95.435 262.636 M93.722 255.252 Q93.722 257.937 95.3887 259.441 Q97.0785 260.946 100.111 260.946 Q103.12 260.946 104.81 259.441 Q106.523 257.937 106.523 255.252 Q106.523 252.566 104.81 251.062 Q103.12 249.557 100.111 249.557 Q97.0785 249.557 95.3887 251.062 Q93.722 252.566 93.722 255.252 Z" fill="#000000" fill-rule="nonzero" fill-opacity="1" /><path clip-path="url(#clip520)" d="M-47.7879 1087.92 L-49.849 1087.92 Q-49.849 1080 -54.068 1075.91 Q-54.068 1074.78 -53.8103 1074.59 Q-53.5527 1074.39 -52.3611 1074.39 L-15.3566 1074.39 Q-13.392 1074.39 -12.7801 1073.43 Q-12.1682 1072.46 -12.1682 1068.24 L-12.1682 1066.15 L-10.1392 1066.15 Q-10.3324 1068.47 -10.3324 1076.84 Q-10.3324 1085.21 -10.1392 1087.5 L-12.1682 1087.5 L-12.1682 1085.41 Q-12.1682 1081.25 -12.7479 1080.25 Q-13.3598 1079.26 -15.3566 1079.26 L-49.527 1079.26 Q-47.7879 1082.7 -47.7879 1087.92 Z" fill="#000000" fill-rule="nonzero" fill-opacity="1" /><path clip-path="url(#clip520)" d="M-27.5626 993.413 Q-27.1761 993.026 -26.6286 993.026 Q-26.0811 993.026 -25.6946 993.413 Q-25.3082 993.799 -25.3082 994.347 L-25.3082 1035.63 Q-25.3082 1036.18 -25.6946 1036.57 Q-26.0811 1036.95 -26.6286 1036.95 Q-27.1761 1036.95 -27.5626 1036.57 Q-27.949 1036.18 -27.949 1035.63 L-27.949 994.347 Q-27.949 993.799 -27.5626 993.413 Z" fill="#000000" fill-rule="nonzero" fill-opacity="1" /><path clip-path="url(#clip520)" d="M-36.9989 932.221 Q-34.7445 932.221 -34.7445 935.442 L-34.7445 942.978 Q-29.3983 944.137 -24.2454 944.137 Q-18.094 944.137 -13.3598 942.237 Q-12.4258 941.851 -11.9105 941.851 Q-10.9443 941.851 -10.1714 942.72 Q-9.39847 943.558 -9.39847 944.556 Q-9.39847 945.393 -10.0426 945.941 Q-10.6867 946.456 -12.7157 946.907 Q-15.0989 947.455 -17.7398 947.455 Q-20.896 947.455 -23.9233 946.939 Q-26.9829 946.424 -34.7445 944.685 L-34.7445 952.124 L-20.1552 955.828 Q-15.2277 957.149 -13.7141 957.599 Q-12.8123 957.889 -12.5224 957.986 Q-12.2326 958.082 -11.5241 958.372 Q-10.8477 958.63 -10.5901 958.823 Q-10.3646 959.016 -10.0104 959.339 Q-9.62391 959.661 -9.52729 960.047 Q-9.39847 960.434 -9.39847 960.917 Q-9.39847 961.657 -9.88155 962.237 Q-10.3324 962.817 -11.202 962.817 Q-11.7817 962.817 -12.7801 962.301 Q-25.9845 956.182 -34.7445 953.864 L-34.7445 957.599 Q-34.7445 962.752 -29.656 965.973 Q-28.9796 966.488 -28.9152 966.778 Q-28.883 966.907 -28.883 967.036 Q-28.883 967.39 -29.044 967.615 Q-29.2051 967.809 -29.3661 967.809 L-29.5271 967.841 Q-29.7204 967.841 -30.5899 967.358 Q-31.4917 966.842 -32.8765 965.876 Q-34.2614 964.878 -35.453 963.815 Q-36.548 962.785 -37.2243 961.786 Q-37.9329 960.756 -38.1905 959.789 Q-38.4482 958.823 -38.5126 958.276 Q-38.577 957.728 -38.577 956.955 L-38.577 934.862 Q-38.577 934.025 -38.5126 933.574 Q-38.4804 933.123 -38.0939 932.672 Q-37.7396 932.221 -36.9989 932.221 Z" fill="#000000" fill-rule="nonzero" fill-opacity="1" /><path clip-path="url(#clip520)" d="M-26.6286 923.488 Q-37.7718 923.488 -46.7573 919.333 Q-50.5254 917.562 -53.6815 915.082 Q-56.8377 912.602 -58.2226 910.96 Q-59.6074 909.317 -59.6074 908.866 Q-59.6074 908.222 -58.9633 908.19 Q-58.6412 908.19 -57.8361 909.059 Q-47.0149 919.687 -26.6286 919.655 Q-6.17788 919.655 4.22461 909.317 Q5.35182 908.19 5.70608 908.19 Q6.3502 908.19 6.3502 908.866 Q6.3502 909.317 5.02976 910.895 Q3.70932 912.473 0.681968 914.921 Q-2.34538 917.369 -6.04906 919.14 Q-15.0345 923.488 -26.6286 923.488 Z" fill="#000000" fill-rule="nonzero" fill-opacity="1" /><path clip-path="url(#clip520)" d="M-43.118 874.61 Q-37.7074 874.61 -31.6205 876.349 Q-25.5658 878.056 -20.6705 880.762 Q-15.8074 883.467 -12.5868 887.01 Q-9.39847 890.552 -9.39847 893.934 Q-9.39847 896.092 -10.5901 897.702 Q-11.8139 899.28 -13.8429 900.15 Q-15.9041 901.019 -18.1585 901.438 Q-20.4451 901.856 -22.9249 901.856 Q-26.6286 901.856 -30.6543 901.051 Q-34.7123 900.246 -38.3837 898.894 Q-42.0874 897.541 -45.4368 895.641 Q-48.8184 893.741 -51.2661 891.647 Q-53.7459 889.522 -55.1952 887.138 Q-56.6445 884.755 -56.6445 882.533 Q-56.6445 880.923 -55.9359 879.634 Q-55.2596 878.314 -54.068 877.477 Q-52.9086 876.639 -51.5237 876.06 Q-50.1389 875.448 -48.5286 875.158 Q-46.9505 874.868 -45.6301 874.739 Q-44.3418 874.61 -43.118 874.61 M-47.2081 878.958 Q-48.8506 878.958 -50.0745 879.087 Q-51.3305 879.216 -52.5865 879.57 Q-53.8426 879.924 -54.5189 880.697 Q-55.1952 881.438 -55.1952 882.597 Q-55.1952 885.979 -48.2709 889.779 Q-46.1131 891.003 -43.1824 892.098 Q-40.2517 893.193 -38.8668 893.58 Q-37.482 893.966 -34.0682 894.868 L-34.0682 881.084 Q-42.8604 878.958 -47.2081 878.958 M-31.9748 881.663 L-31.9748 895.383 Q-23.9233 897.509 -18.8992 897.509 Q-14.5192 897.509 -12.6835 896.607 Q-10.8799 895.673 -10.8799 893.934 Q-10.8799 891.937 -12.8767 890.069 Q-14.9057 888.201 -18.5771 886.301 Q-23.3436 883.789 -31.9748 881.663 Z" fill="#000000" fill-rule="nonzero" fill-opacity="1" /><path clip-path="url(#clip520)" d="M5.70608 867.802 Q5.38402 867.802 4.57888 866.965 Q-6.24229 856.337 -26.6286 856.337 Q-47.0793 856.337 -57.4174 866.546 Q-58.609 867.802 -58.9633 867.802 Q-59.6074 867.802 -59.6074 867.158 Q-59.6074 866.707 -58.287 865.129 Q-56.9665 863.519 -53.9392 861.103 Q-50.9118 858.656 -47.2081 856.852 Q-38.2227 852.504 -26.6286 852.504 Q-15.4854 852.504 -6.49994 856.659 Q-2.73185 858.43 0.424321 860.91 Q3.5805 863.39 4.96535 865.033 Q6.3502 866.675 6.3502 867.158 Q6.3502 867.802 5.70608 867.802 Z" fill="#000000" fill-rule="nonzero" fill-opacity="1" /><path clip-path="url(#clip520)" d="M1006.93 52.3078 Q1006.93 53.3735 1006.48 55.423 Q1005.05 61.2025 999.679 65.1784 Q998.777 65.9162 997.179 66.859 Q999.105 68.1297 1000.79 70.466 Q1003.29 74.319 1003.29 79.5247 Q1003.29 81.943 1002.63 84.8943 Q1000.79 91.7395 994.31 96.6582 Q987.792 101.454 980.045 101.454 Q975.864 101.454 972.995 99.2405 Q970.167 96.9861 969.06 93.2151 L963.363 116.21 Q963.24 116.784 962.502 116.784 L962.092 116.784 Q961.231 116.784 961.231 115.8 L974.184 64.1537 Q975.045 60.6696 976.438 57.3905 Q977.832 54.1113 979.758 51.1601 Q981.726 48.2089 983.98 46.0364 Q986.235 43.823 989.022 42.5523 Q991.809 41.2407 994.76 41.2407 Q1000.95 41.2407 1004.47 45.4626 Q1006.93 48.4548 1006.93 52.3078 M1002.22 50.8322 Q1002.22 48.2908 1001.2 46.5283 Q999.105 43.1672 994.679 43.1672 Q992.014 43.1672 989.473 44.3969 Q986.973 45.5855 984.964 47.635 Q982.956 49.6845 981.234 52.4717 Q979.512 55.259 978.242 58.2922 Q977.012 61.2844 976.192 64.5636 L971.151 84.8943 Q970.659 87.0667 970.659 88.9932 Q970.659 93.584 973.2 96.5762 Q975.741 99.5684 980.127 99.5684 Q985.948 99.5684 990.948 95.2236 Q995.293 91.3296 997.097 84.4844 Q998.122 80.1805 998.122 77.1883 Q998.122 73.9091 996.933 71.3678 Q996.072 69.3183 994.392 68.0887 Q991.276 69.1954 988.12 69.1954 Q986.604 69.1954 985.784 69.1544 Q985.005 69.1134 983.857 68.9494 Q982.751 68.7855 982.218 68.3346 Q981.726 67.8837 981.726 67.1869 Q981.726 66.777 981.808 66.613 Q981.972 65.9572 982.505 65.5063 Q983.038 65.0555 983.652 64.8505 Q984.267 64.6046 985.292 64.4816 Q986.358 64.3586 987.055 64.3586 Q987.751 64.3176 988.94 64.3176 Q991.727 64.3176 994.556 65.4244 Q995.621 64.8505 996.769 63.8258 Q1000.42 60.4237 1001.65 55.0131 Q1002.22 53.0046 1002.22 50.8322 M991.891 66.695 Q990.17 66.2441 988.858 66.2441 Q984.062 66.2441 983.816 67.0229 Q983.816 67.1049 983.98 67.1869 Q984.144 67.2279 984.513 67.2689 Q984.923 67.2689 985.251 67.3099 Q985.62 67.3509 986.235 67.3509 Q986.85 67.3509 987.177 67.3509 Q987.546 67.3509 988.202 67.3509 Q989.842 67.3509 991.891 66.695 Z" fill="#000000" fill-rule="nonzero" fill-opacity="1" /><path clip-path="url(#clip520)" d="M1031.57 87.7635 Q1031.65 86.7388 1033.25 86.7388 L1084.69 86.7388 Q1087.11 86.7388 1087.15 87.6815 Q1087.15 88.7063 1084.86 88.6653 L1033.83 88.6653 Q1031.57 88.7063 1031.57 87.7635 M1031.57 71.3678 Q1031.57 70.3431 1033.33 70.3841 L1084.61 70.3841 Q1087.11 70.3841 1087.15 71.3678 Q1087.15 72.3106 1085.02 72.3106 L1033.25 72.3106 Q1031.57 72.3106 1031.57 71.3678 Z" fill="#000000" fill-rule="nonzero" fill-opacity="1" /><path clip-path="url(#clip520)" d="M1119.53 52.5947 L1119.53 49.9714 Q1129.62 49.9714 1134.82 44.6018 Q1136.26 44.6018 1136.5 44.9297 Q1136.75 45.2576 1136.75 46.7742 L1136.75 93.8709 Q1136.75 96.3713 1137.98 97.1501 Q1139.21 97.9289 1144.58 97.9289 L1147.24 97.9289 L1147.24 100.511 Q1144.29 100.265 1133.63 100.265 Q1122.98 100.265 1120.07 100.511 L1120.07 97.9289 L1122.73 97.9289 Q1128.02 97.9289 1129.29 97.191 Q1130.56 96.4123 1130.56 93.8709 L1130.56 50.3813 Q1126.17 52.5947 1119.53 52.5947 Z" fill="#000000" fill-rule="nonzero" fill-opacity="1" /><path clip-path="url(#clip520)" d="M1239.81 78.336 Q1240.3 78.8279 1240.3 79.5247 Q1240.3 80.2215 1239.81 80.7134 Q1239.32 81.2052 1238.62 81.2052 L1186.07 81.2052 Q1185.38 81.2052 1184.88 80.7134 Q1184.39 80.2215 1184.39 79.5247 Q1184.39 78.8279 1184.88 78.336 Q1185.38 77.8441 1186.07 77.8441 L1238.62 77.8441 Q1239.32 77.8441 1239.81 78.336 Z" fill="#000000" fill-rule="nonzero" fill-opacity="1" /><path clip-path="url(#clip520)" d="M1317.69 66.3261 Q1317.69 69.1954 1313.59 69.1954 L1304 69.1954 Q1302.52 75.9996 1302.52 82.5579 Q1302.52 90.3868 1304.94 96.4123 Q1305.43 97.6009 1305.43 98.2568 Q1305.43 99.4864 1304.32 100.47 Q1303.26 101.454 1301.99 101.454 Q1300.92 101.454 1300.23 100.634 Q1299.57 99.8144 1299 97.232 Q1298.3 94.1988 1298.3 90.8377 Q1298.3 86.8208 1298.95 82.9678 Q1299.61 79.0738 1301.82 69.1954 L1292.36 69.1954 L1287.64 87.7635 Q1285.96 94.0349 1285.39 95.9614 Q1285.02 97.1091 1284.9 97.478 Q1284.77 97.8469 1284.4 98.7486 Q1284.08 99.6094 1283.83 99.9373 Q1283.58 100.224 1283.17 100.675 Q1282.76 101.167 1282.27 101.29 Q1281.78 101.454 1281.17 101.454 Q1280.22 101.454 1279.48 100.839 Q1278.75 100.265 1278.75 99.1585 Q1278.75 98.4207 1279.4 97.1501 Q1287.19 80.3445 1290.14 69.1954 L1285.39 69.1954 Q1278.83 69.1954 1274.73 75.6717 Q1274.07 76.5325 1273.71 76.6144 Q1273.54 76.6554 1273.38 76.6554 Q1272.93 76.6554 1272.64 76.4505 Q1272.39 76.2455 1272.39 76.0406 L1272.35 75.8356 Q1272.35 75.5897 1272.97 74.483 Q1273.62 73.3353 1274.85 71.5727 Q1276.12 69.8102 1277.48 68.2936 Q1278.79 66.9 1280.06 66.0392 Q1281.37 65.1374 1282.6 64.8095 Q1283.83 64.4816 1284.53 64.3996 Q1285.22 64.3176 1286.21 64.3176 L1314.33 64.3176 Q1315.39 64.3176 1315.97 64.3996 Q1316.54 64.4406 1317.11 64.9325 Q1317.69 65.3834 1317.69 66.3261 Z" fill="#000000" fill-rule="nonzero" fill-opacity="1" /><path clip-path="url(#clip520)" d="M1328.8 79.5247 Q1328.8 65.3424 1334.09 53.9064 Q1336.34 49.1106 1339.5 45.0937 Q1342.66 41.0767 1344.75 39.3142 Q1346.84 37.5516 1347.41 37.5516 Q1348.23 37.5516 1348.27 38.3714 Q1348.27 38.7813 1347.16 39.8061 Q1333.64 53.5785 1333.68 79.5247 Q1333.68 105.553 1346.84 118.792 Q1348.27 120.227 1348.27 120.678 Q1348.27 121.498 1347.41 121.498 Q1346.84 121.498 1344.83 119.817 Q1342.82 118.137 1339.7 114.284 Q1336.59 110.431 1334.33 105.717 Q1328.8 94.2808 1328.8 79.5247 Z" fill="#000000" fill-rule="nonzero" fill-opacity="1" /><path clip-path="url(#clip520)" d="M1391.01 58.5382 Q1391.01 65.4244 1388.79 73.1713 Q1386.62 80.8773 1383.18 87.1077 Q1379.74 93.2971 1375.23 97.396 Q1370.72 101.454 1366.41 101.454 Q1363.67 101.454 1361.62 99.9373 Q1359.61 98.3797 1358.5 95.7974 Q1357.4 93.1741 1356.86 90.3048 Q1356.33 87.3946 1356.33 84.2384 Q1356.33 79.5247 1357.36 74.401 Q1358.38 69.2364 1360.1 64.5636 Q1361.82 59.8498 1364.24 55.5869 Q1366.66 51.2831 1369.32 48.1679 Q1372.03 45.0117 1375.06 43.1672 Q1378.1 41.3227 1380.92 41.3227 Q1382.97 41.3227 1384.61 42.2244 Q1386.29 43.0852 1387.36 44.6018 Q1388.43 46.0774 1389.16 47.84 Q1389.94 49.6025 1390.31 51.652 Q1390.68 53.6604 1390.84 55.341 Q1391.01 56.9806 1391.01 58.5382 M1385.47 53.3325 Q1385.47 51.2421 1385.31 49.6845 Q1385.15 48.0859 1384.7 46.4873 Q1384.24 44.8887 1383.26 44.028 Q1382.32 43.1672 1380.84 43.1672 Q1376.54 43.1672 1371.7 51.9799 Q1370.14 54.7262 1368.75 58.4562 Q1367.36 62.1862 1366.87 63.9487 Q1366.37 65.7113 1365.23 70.0561 L1382.77 70.0561 Q1385.47 58.8661 1385.47 53.3325 M1382.03 72.7204 L1364.57 72.7204 Q1361.86 82.9678 1361.86 89.3621 Q1361.86 94.9366 1363.01 97.273 Q1364.2 99.5684 1366.41 99.5684 Q1368.96 99.5684 1371.33 97.0271 Q1373.71 94.4448 1376.13 89.772 Q1379.33 83.7056 1382.03 72.7204 Z" fill="#000000" fill-rule="nonzero" fill-opacity="1" /><path clip-path="url(#clip520)" d="M1399.67 120.678 Q1399.67 120.268 1400.74 119.243 Q1414.26 105.471 1414.26 79.5247 Q1414.26 53.4965 1401.27 40.3389 Q1399.67 38.8223 1399.67 38.3714 Q1399.67 37.5516 1400.49 37.5516 Q1401.07 37.5516 1403.07 39.2322 Q1405.12 40.9128 1408.2 44.7658 Q1411.31 48.6188 1413.61 53.3325 Q1419.14 64.7685 1419.14 79.5247 Q1419.14 93.707 1413.85 105.143 Q1411.6 109.939 1408.44 113.956 Q1405.29 117.973 1403.2 119.735 Q1401.11 121.498 1400.49 121.498 Q1399.67 121.498 1399.67 120.678 Z" fill="#000000" fill-rule="nonzero" fill-opacity="1" /><path clip-path="url(#clip520)" d="M1455.2 87.7635 Q1455.28 86.7388 1456.88 86.7388 L1508.32 86.7388 Q1510.74 86.7388 1510.78 87.6815 Q1510.78 88.7063 1508.48 88.6653 L1457.45 88.6653 Q1455.2 88.7063 1455.2 87.7635 M1455.2 71.3678 Q1455.2 70.3431 1456.96 70.3841 L1508.24 70.3841 Q1510.74 70.3841 1510.78 71.3678 Q1510.78 72.3106 1508.65 72.3106 L1456.88 72.3106 Q1455.2 72.3106 1455.2 71.3678 Z" fill="#000000" fill-rule="nonzero" fill-opacity="1" /><path clip-path="url(#clip520)" d="M1543.16 79.5247 Q1543.16 65.3424 1548.44 53.9064 Q1550.7 49.1106 1553.85 45.0937 Q1557.01 41.0767 1559.1 39.3142 Q1561.19 37.5516 1561.76 37.5516 Q1562.58 37.5516 1562.63 38.3714 Q1562.63 38.7813 1561.52 39.8061 Q1547.99 53.5785 1548.03 79.5247 Q1548.03 105.553 1561.19 118.792 Q1562.63 120.227 1562.63 120.678 Q1562.63 121.498 1561.76 121.498 Q1561.19 121.498 1559.18 119.817 Q1557.17 118.137 1554.06 114.284 Q1550.94 110.431 1548.69 105.717 Q1543.16 94.2808 1543.16 79.5247 Z" fill="#000000" fill-rule="nonzero" fill-opacity="1" /><path clip-path="url(#clip520)" d="M1573.71 52.5947 L1573.71 49.9714 Q1583.79 49.9714 1589 44.6018 Q1590.43 44.6018 1590.68 44.9297 Q1590.92 45.2576 1590.92 46.7742 L1590.92 93.8709 Q1590.92 96.3713 1592.15 97.1501 Q1593.38 97.9289 1598.75 97.9289 L1601.42 97.9289 L1601.42 100.511 Q1598.47 100.265 1587.81 100.265 Q1577.15 100.265 1574.24 100.511 L1574.24 97.9289 L1576.91 97.9289 Q1582.19 97.9289 1583.46 97.191 Q1584.74 96.4123 1584.74 93.8709 L1584.74 50.3813 Q1580.35 52.5947 1573.71 52.5947 Z" fill="#000000" fill-rule="nonzero" fill-opacity="1" /><path clip-path="url(#clip520)" d="M1693.99 78.336 Q1694.48 78.8279 1694.48 79.5247 Q1694.48 80.2215 1693.99 80.7134 Q1693.5 81.2052 1692.8 81.2052 L1640.25 81.2052 Q1639.55 81.2052 1639.06 80.7134 Q1638.57 80.2215 1638.57 79.5247 Q1638.57 78.8279 1639.06 78.336 Q1639.55 77.8441 1640.25 77.8441 L1692.8 77.8441 Q1693.5 77.8441 1693.99 78.336 Z" fill="#000000" fill-rule="nonzero" fill-opacity="1" /><path clip-path="url(#clip520)" d="M1761.21 58.5382 Q1761.21 65.4244 1758.99 73.1713 Q1756.82 80.8773 1753.38 87.1077 Q1749.93 93.2971 1745.43 97.396 Q1740.92 101.454 1736.61 101.454 Q1733.87 101.454 1731.82 99.9373 Q1729.81 98.3797 1728.7 95.7974 Q1727.6 93.1741 1727.06 90.3048 Q1726.53 87.3946 1726.53 84.2384 Q1726.53 79.5247 1727.55 74.401 Q1728.58 69.2364 1730.3 64.5636 Q1732.02 59.8498 1734.44 55.5869 Q1736.86 51.2831 1739.52 48.1679 Q1742.23 45.0117 1745.26 43.1672 Q1748.29 41.3227 1751.12 41.3227 Q1753.17 41.3227 1754.81 42.2244 Q1756.49 43.0852 1757.56 44.6018 Q1758.62 46.0774 1759.36 47.84 Q1760.14 49.6025 1760.51 51.652 Q1760.88 53.6604 1761.04 55.341 Q1761.21 56.9806 1761.21 58.5382 M1755.67 53.3325 Q1755.67 51.2421 1755.51 49.6845 Q1755.34 48.0859 1754.89 46.4873 Q1754.44 44.8887 1753.46 44.028 Q1752.52 43.1672 1751.04 43.1672 Q1746.74 43.1672 1741.9 51.9799 Q1740.34 54.7262 1738.95 58.4562 Q1737.56 62.1862 1737.06 63.9487 Q1736.57 65.7113 1735.42 70.0561 L1752.97 70.0561 Q1755.67 58.8661 1755.67 53.3325 M1752.23 72.7204 L1734.77 72.7204 Q1732.06 82.9678 1732.06 89.3621 Q1732.06 94.9366 1733.21 97.273 Q1734.4 99.5684 1736.61 99.5684 Q1739.15 99.5684 1741.53 97.0271 Q1743.91 94.4448 1746.33 89.772 Q1749.52 83.7056 1752.23 72.7204 Z" fill="#000000" fill-rule="nonzero" fill-opacity="1" /><path clip-path="url(#clip520)" d="M1765.5 120.678 Q1765.5 120.268 1766.57 119.243 Q1780.09 105.471 1780.09 79.5247 Q1780.09 53.4965 1767.1 40.3389 Q1765.5 38.8223 1765.5 38.3714 Q1765.5 37.5516 1766.32 37.5516 Q1766.9 37.5516 1768.9 39.2322 Q1770.95 40.9128 1774.03 44.7658 Q1777.14 48.6188 1779.44 53.3325 Q1784.97 64.7685 1784.97 79.5247 Q1784.97 93.707 1779.68 105.143 Q1777.43 109.939 1774.27 113.956 Q1771.12 117.973 1769.03 119.735 Q1766.94 121.498 1766.32 121.498 Q1765.5 121.498 1765.5 120.678 Z" fill="#000000" fill-rule="nonzero" fill-opacity="1" /><path clip-path="url(#clip520)" d="M1793.75 49.7864 Q1793.75 48.7248 1793.83 48.4091 Q1793.95 48.0935 1794.41 47.6058 L1805.68 35.0384 Q1811.85 28.0949 1811.85 22.0407 Q1811.85 18.1099 1809.79 15.298 Q1807.75 12.4861 1803.99 12.4861 Q1801.41 12.4861 1799.23 14.0642 Q1797.05 15.6423 1796.04 18.4542 Q1796.21 18.3968 1796.82 18.3968 Q1798.28 18.3968 1799.08 19.315 Q1799.92 20.2331 1799.92 21.4669 Q1799.92 23.045 1798.88 23.8197 Q1797.88 24.5657 1796.87 24.5657 Q1796.47 24.5657 1795.93 24.4796 Q1795.41 24.3935 1794.58 23.5901 Q1793.75 22.7581 1793.75 21.2947 Q1793.75 17.1917 1796.85 13.9208 Q1799.97 10.6498 1804.74 10.6498 Q1810.13 10.6498 1813.66 13.8634 Q1817.22 17.0482 1817.22 22.0407 Q1817.22 23.791 1816.67 25.3978 Q1816.16 26.9758 1815.44 28.2096 Q1814.75 29.4434 1812.86 31.4232 Q1810.96 33.403 1809.44 34.8089 Q1807.92 36.2148 1804.51 39.1988 L1798.28 45.253 L1808.87 45.253 Q1814.03 45.253 1814.43 44.7939 Q1815.01 43.9618 1815.73 39.5719 L1817.22 39.5719 L1815.55 49.7864 L1793.75 49.7864 Z" fill="#000000" fill-rule="nonzero" fill-opacity="1" /><polyline clip-path="url(#clip522)" style="stroke:#009af9; stroke-linecap:round; stroke-linejoin:round; stroke-width:4; stroke-opacity:1; fill:none" points="152.283,1742.03 177.973,1719.17 328.438,1588.14 398.435,1528.85 492.256,1451.04 569.782,1388.17 641.873,1330.87 732.372,1260.53 813.55,1198.94 906.469,1130.18 975.926,1080 1064.76,1017.33 1145.85,961.616 1238.13,899.932 1311.28,852.339 1402.16,794.817 1471.77,751.968 1569.9,693.331 1643.23,650.868 1726.62,603.987 1809.21,559.036 1900.07,511.281 1969.47,476.002 2057.05,432.966 2138.05,394.634 2221.59,356.582 2306.27,319.548 2394.69,282.527 2464.34,254.55 2622.96,194.741 2640.76,188.369 "/>
</svg>
