<?xml version="1.0" encoding="utf-8"?>
<svg xmlns="http://www.w3.org/2000/svg" xmlns:xlink="http://www.w3.org/1999/xlink" width="672" height="480" viewBox="0 0 2688 1920">
<defs>
  <clipPath id="clip510">
    <rect x="0" y="0" width="2688" height="1920"/>
  </clipPath>
</defs>
<path clip-path="url(#clip510)" d="M0 1920 L2688 1920 L2688 0 L0 0  Z" fill="#ffffff" fill-rule="evenodd" fill-opacity="1"/>
<defs>
  <clipPath id="clip511">
    <rect x="537" y="0" width="1883" height="1883"/>
  </clipPath>
</defs>
<path clip-path="url(#clip510)" d="M210.238 1734.12 L2640.76 1734.12 L2640.76 127.792 L210.238 127.792  Z" fill="#ffffff" fill-rule="evenodd" fill-opacity="1"/>
<defs>
  <clipPath id="clip512">
    <rect x="210" y="127" width="2432" height="1607"/>
  </clipPath>
</defs>
<polyline clip-path="url(#clip512)" style="stroke:#000000; stroke-linecap:round; stroke-linejoin:round; stroke-width:2; stroke-opacity:0.1; fill:none" points="219.123,1734.12 219.123,127.792 "/>
<polyline clip-path="url(#clip512)" style="stroke:#000000; stroke-linecap:round; stroke-linejoin:round; stroke-width:2; stroke-opacity:0.1; fill:none" points="635.114,1734.12 635.114,127.792 "/>
<polyline clip-path="url(#clip512)" style="stroke:#000000; stroke-linecap:round; stroke-linejoin:round; stroke-width:2; stroke-opacity:0.1; fill:none" points="1051.11,1734.12 1051.11,127.792 "/>
<polyline clip-path="url(#clip512)" style="stroke:#000000; stroke-linecap:round; stroke-linejoin:round; stroke-width:2; stroke-opacity:0.1; fill:none" points="1467.1,1734.12 1467.1,127.792 "/>
<polyline clip-path="url(#clip512)" style="stroke:#000000; stroke-linecap:round; stroke-linejoin:round; stroke-width:2; stroke-opacity:0.1; fill:none" points="1883.09,1734.12 1883.09,127.792 "/>
<polyline clip-path="url(#clip512)" style="stroke:#000000; stroke-linecap:round; stroke-linejoin:round; stroke-width:2; stroke-opacity:0.1; fill:none" points="2299.08,1734.12 2299.08,127.792 "/>
<polyline clip-path="url(#clip512)" style="stroke:#000000; stroke-linecap:round; stroke-linejoin:round; stroke-width:2; stroke-opacity:0.1; fill:none" points="210.238,1734.12 2640.76,1734.12 "/>
<polyline clip-path="url(#clip512)" style="stroke:#000000; stroke-linecap:round; stroke-linejoin:round; stroke-width:2; stroke-opacity:0.1; fill:none" points="210.238,1364.34 2640.76,1364.34 "/>
<polyline clip-path="url(#clip512)" style="stroke:#000000; stroke-linecap:round; stroke-linejoin:round; stroke-width:2; stroke-opacity:0.1; fill:none" points="210.238,994.557 2640.76,994.557 "/>
<polyline clip-path="url(#clip512)" style="stroke:#000000; stroke-linecap:round; stroke-linejoin:round; stroke-width:2; stroke-opacity:0.1; fill:none" points="210.238,624.777 2640.76,624.777 "/>
<polyline clip-path="url(#clip512)" style="stroke:#000000; stroke-linecap:round; stroke-linejoin:round; stroke-width:2; stroke-opacity:0.1; fill:none" points="210.238,254.996 2640.76,254.996 "/>
<polyline clip-path="url(#clip510)" style="stroke:#000000; stroke-linecap:round; stroke-linejoin:round; stroke-width:4; stroke-opacity:1; fill:none" points="210.238,1734.12 2640.76,1734.12 "/>
<polyline clip-path="url(#clip510)" style="stroke:#000000; stroke-linecap:round; stroke-linejoin:round; stroke-width:4; stroke-opacity:1; fill:none" points="219.123,1734.12 219.123,1715.22 "/>
<polyline clip-path="url(#clip510)" style="stroke:#000000; stroke-linecap:round; stroke-linejoin:round; stroke-width:4; stroke-opacity:1; fill:none" points="635.114,1734.12 635.114,1715.22 "/>
<polyline clip-path="url(#clip510)" style="stroke:#000000; stroke-linecap:round; stroke-linejoin:round; stroke-width:4; stroke-opacity:1; fill:none" points="1051.11,1734.12 1051.11,1715.22 "/>
<polyline clip-path="url(#clip510)" style="stroke:#000000; stroke-linecap:round; stroke-linejoin:round; stroke-width:4; stroke-opacity:1; fill:none" points="1467.1,1734.12 1467.1,1715.22 "/>
<polyline clip-path="url(#clip510)" style="stroke:#000000; stroke-linecap:round; stroke-linejoin:round; stroke-width:4; stroke-opacity:1; fill:none" points="1883.09,1734.12 1883.09,1715.22 "/>
<polyline clip-path="url(#clip510)" style="stroke:#000000; stroke-linecap:round; stroke-linejoin:round; stroke-width:4; stroke-opacity:1; fill:none" points="2299.08,1734.12 2299.08,1715.22 "/>
<path clip-path="url(#clip510)" d="M181.427 1767.34 Q177.816 1767.34 175.987 1770.9 Q174.182 1774.45 174.182 1781.58 Q174.182 1788.68 175.987 1792.25 Q177.816 1795.79 181.427 1795.79 Q185.061 1795.79 186.867 1792.25 Q188.695 1788.68 188.695 1781.58 Q188.695 1774.45 186.867 1770.9 Q185.061 1767.34 181.427 1767.34 M181.427 1763.64 Q187.237 1763.64 190.293 1768.24 Q193.371 1772.83 193.371 1781.58 Q193.371 1790.3 190.293 1794.91 Q187.237 1799.49 181.427 1799.49 Q175.617 1799.49 172.538 1794.91 Q169.482 1790.3 169.482 1781.58 Q169.482 1772.83 172.538 1768.24 Q175.617 1763.64 181.427 1763.64 Z" fill="#000000" fill-rule="nonzero" fill-opacity="1" /><path clip-path="url(#clip510)" d="M201.589 1792.94 L206.473 1792.94 L206.473 1798.82 L201.589 1798.82 L201.589 1792.94 Z" fill="#000000" fill-rule="nonzero" fill-opacity="1" /><path clip-path="url(#clip510)" d="M226.658 1767.34 Q223.047 1767.34 221.218 1770.9 Q219.413 1774.45 219.413 1781.58 Q219.413 1788.68 221.218 1792.25 Q223.047 1795.79 226.658 1795.79 Q230.292 1795.79 232.098 1792.25 Q233.927 1788.68 233.927 1781.58 Q233.927 1774.45 232.098 1770.9 Q230.292 1767.34 226.658 1767.34 M226.658 1763.64 Q232.468 1763.64 235.524 1768.24 Q238.602 1772.83 238.602 1781.58 Q238.602 1790.3 235.524 1794.91 Q232.468 1799.49 226.658 1799.49 Q220.848 1799.49 217.769 1794.91 Q214.714 1790.3 214.714 1781.58 Q214.714 1772.83 217.769 1768.24 Q220.848 1763.64 226.658 1763.64 Z" fill="#000000" fill-rule="nonzero" fill-opacity="1" /><path clip-path="url(#clip510)" d="M256.82 1767.34 Q253.209 1767.34 251.38 1770.9 Q249.575 1774.45 249.575 1781.58 Q249.575 1788.68 251.38 1792.25 Q253.209 1795.79 256.82 1795.79 Q260.454 1795.79 262.26 1792.25 Q264.088 1788.68 264.088 1781.58 Q264.088 1774.45 262.26 1770.9 Q260.454 1767.34 256.82 1767.34 M256.82 1763.64 Q262.63 1763.64 265.686 1768.24 Q268.764 1772.83 268.764 1781.58 Q268.764 1790.3 265.686 1794.91 Q262.63 1799.49 256.82 1799.49 Q251.01 1799.49 247.931 1794.91 Q244.876 1790.3 244.876 1781.58 Q244.876 1772.83 247.931 1768.24 Q251.01 1763.64 256.82 1763.64 Z" fill="#000000" fill-rule="nonzero" fill-opacity="1" /><path clip-path="url(#clip510)" d="M597.915 1767.34 Q594.304 1767.34 592.476 1770.9 Q590.67 1774.45 590.67 1781.58 Q590.67 1788.68 592.476 1792.25 Q594.304 1795.79 597.915 1795.79 Q601.55 1795.79 603.355 1792.25 Q605.184 1788.68 605.184 1781.58 Q605.184 1774.45 603.355 1770.9 Q601.55 1767.34 597.915 1767.34 M597.915 1763.64 Q603.726 1763.64 606.781 1768.24 Q609.86 1772.83 609.86 1781.58 Q609.86 1790.3 606.781 1794.91 Q603.726 1799.49 597.915 1799.49 Q592.105 1799.49 589.027 1794.91 Q585.971 1790.3 585.971 1781.58 Q585.971 1772.83 589.027 1768.24 Q592.105 1763.64 597.915 1763.64 Z" fill="#000000" fill-rule="nonzero" fill-opacity="1" /><path clip-path="url(#clip510)" d="M618.077 1792.94 L622.962 1792.94 L622.962 1798.82 L618.077 1798.82 L618.077 1792.94 Z" fill="#000000" fill-rule="nonzero" fill-opacity="1" /><path clip-path="url(#clip510)" d="M643.147 1767.34 Q639.536 1767.34 637.707 1770.9 Q635.901 1774.45 635.901 1781.58 Q635.901 1788.68 637.707 1792.25 Q639.536 1795.79 643.147 1795.79 Q646.781 1795.79 648.586 1792.25 Q650.415 1788.68 650.415 1781.58 Q650.415 1774.45 648.586 1770.9 Q646.781 1767.34 643.147 1767.34 M643.147 1763.64 Q648.957 1763.64 652.012 1768.24 Q655.091 1772.83 655.091 1781.58 Q655.091 1790.3 652.012 1794.91 Q648.957 1799.49 643.147 1799.49 Q637.336 1799.49 634.258 1794.91 Q631.202 1790.3 631.202 1781.58 Q631.202 1772.83 634.258 1768.24 Q637.336 1763.64 643.147 1763.64 Z" fill="#000000" fill-rule="nonzero" fill-opacity="1" /><path clip-path="url(#clip510)" d="M663.355 1764.26 L681.711 1764.26 L681.711 1768.2 L667.637 1768.2 L667.637 1776.67 Q668.656 1776.32 669.674 1776.16 Q670.693 1775.97 671.711 1775.97 Q677.498 1775.97 680.878 1779.15 Q684.258 1782.32 684.258 1787.73 Q684.258 1793.31 680.785 1796.41 Q677.313 1799.49 670.994 1799.49 Q668.818 1799.49 666.549 1799.12 Q664.304 1798.75 661.897 1798.01 L661.897 1793.31 Q663.98 1794.45 666.202 1795 Q668.424 1795.56 670.901 1795.56 Q674.906 1795.56 677.244 1793.45 Q679.582 1791.34 679.582 1787.73 Q679.582 1784.12 677.244 1782.02 Q674.906 1779.91 670.901 1779.91 Q669.026 1779.91 667.151 1780.33 Q665.299 1780.74 663.355 1781.62 L663.355 1764.26 Z" fill="#000000" fill-rule="nonzero" fill-opacity="1" /><path clip-path="url(#clip510)" d="M1013.41 1767.34 Q1009.8 1767.34 1007.97 1770.9 Q1006.16 1774.45 1006.16 1781.58 Q1006.16 1788.68 1007.97 1792.25 Q1009.8 1795.79 1013.41 1795.79 Q1017.04 1795.79 1018.85 1792.25 Q1020.68 1788.68 1020.68 1781.58 Q1020.68 1774.45 1018.85 1770.9 Q1017.04 1767.34 1013.41 1767.34 M1013.41 1763.64 Q1019.22 1763.64 1022.27 1768.24 Q1025.35 1772.83 1025.35 1781.58 Q1025.35 1790.3 1022.27 1794.91 Q1019.22 1799.49 1013.41 1799.49 Q1007.6 1799.49 1004.52 1794.91 Q1001.46 1790.3 1001.46 1781.58 Q1001.46 1772.83 1004.52 1768.24 Q1007.6 1763.64 1013.41 1763.64 Z" fill="#000000" fill-rule="nonzero" fill-opacity="1" /><path clip-path="url(#clip510)" d="M1033.57 1792.94 L1038.45 1792.94 L1038.45 1798.82 L1033.57 1798.82 L1033.57 1792.94 Z" fill="#000000" fill-rule="nonzero" fill-opacity="1" /><path clip-path="url(#clip510)" d="M1049.45 1794.89 L1057.09 1794.89 L1057.09 1768.52 L1048.78 1770.19 L1048.78 1765.93 L1057.04 1764.26 L1061.72 1764.26 L1061.72 1794.89 L1069.36 1794.89 L1069.36 1798.82 L1049.45 1798.82 L1049.45 1794.89 Z" fill="#000000" fill-rule="nonzero" fill-opacity="1" /><path clip-path="url(#clip510)" d="M1088.8 1767.34 Q1085.19 1767.34 1083.36 1770.9 Q1081.56 1774.45 1081.56 1781.58 Q1081.56 1788.68 1083.36 1792.25 Q1085.19 1795.79 1088.8 1795.79 Q1092.44 1795.79 1094.24 1792.25 Q1096.07 1788.68 1096.07 1781.58 Q1096.07 1774.45 1094.24 1770.9 Q1092.44 1767.34 1088.8 1767.34 M1088.8 1763.64 Q1094.61 1763.64 1097.67 1768.24 Q1100.75 1772.83 1100.75 1781.58 Q1100.75 1790.3 1097.67 1794.91 Q1094.61 1799.49 1088.8 1799.49 Q1082.99 1799.49 1079.91 1794.91 Q1076.86 1790.3 1076.86 1781.58 Q1076.86 1772.83 1079.91 1768.24 Q1082.99 1763.64 1088.8 1763.64 Z" fill="#000000" fill-rule="nonzero" fill-opacity="1" /><path clip-path="url(#clip510)" d="M1429.9 1767.34 Q1426.29 1767.34 1424.46 1770.9 Q1422.65 1774.45 1422.65 1781.58 Q1422.65 1788.68 1424.46 1792.25 Q1426.29 1795.79 1429.9 1795.79 Q1433.53 1795.79 1435.34 1792.25 Q1437.17 1788.68 1437.17 1781.58 Q1437.17 1774.45 1435.34 1770.9 Q1433.53 1767.34 1429.9 1767.34 M1429.9 1763.64 Q1435.71 1763.64 1438.76 1768.24 Q1441.84 1772.83 1441.84 1781.58 Q1441.84 1790.3 1438.76 1794.91 Q1435.71 1799.49 1429.9 1799.49 Q1424.09 1799.49 1421.01 1794.91 Q1417.95 1790.3 1417.95 1781.58 Q1417.95 1772.83 1421.01 1768.24 Q1424.09 1763.64 1429.9 1763.64 Z" fill="#000000" fill-rule="nonzero" fill-opacity="1" /><path clip-path="url(#clip510)" d="M1450.06 1792.94 L1454.94 1792.94 L1454.94 1798.82 L1450.06 1798.82 L1450.06 1792.94 Z" fill="#000000" fill-rule="nonzero" fill-opacity="1" /><path clip-path="url(#clip510)" d="M1465.94 1794.89 L1473.58 1794.89 L1473.58 1768.52 L1465.27 1770.19 L1465.27 1765.93 L1473.53 1764.26 L1478.21 1764.26 L1478.21 1794.89 L1485.85 1794.89 L1485.85 1798.82 L1465.94 1798.82 L1465.94 1794.89 Z" fill="#000000" fill-rule="nonzero" fill-opacity="1" /><path clip-path="url(#clip510)" d="M1495.34 1764.26 L1513.69 1764.26 L1513.69 1768.2 L1499.62 1768.2 L1499.62 1776.67 Q1500.64 1776.32 1501.66 1776.16 Q1502.67 1775.97 1503.69 1775.97 Q1509.48 1775.97 1512.86 1779.15 Q1516.24 1782.32 1516.24 1787.73 Q1516.24 1793.31 1512.77 1796.41 Q1509.29 1799.49 1502.98 1799.49 Q1500.8 1799.49 1498.53 1799.12 Q1496.29 1798.75 1493.88 1798.01 L1493.88 1793.31 Q1495.96 1794.45 1498.18 1795 Q1500.41 1795.56 1502.88 1795.56 Q1506.89 1795.56 1509.23 1793.45 Q1511.56 1791.34 1511.56 1787.73 Q1511.56 1784.12 1509.23 1782.02 Q1506.89 1779.91 1502.88 1779.91 Q1501.01 1779.91 1499.13 1780.33 Q1497.28 1780.74 1495.34 1781.62 L1495.34 1764.26 Z" fill="#000000" fill-rule="nonzero" fill-opacity="1" /><path clip-path="url(#clip510)" d="M1845.39 1767.34 Q1841.78 1767.34 1839.95 1770.9 Q1838.14 1774.45 1838.14 1781.58 Q1838.14 1788.68 1839.95 1792.25 Q1841.78 1795.79 1845.39 1795.79 Q1849.02 1795.79 1850.83 1792.25 Q1852.66 1788.68 1852.66 1781.58 Q1852.66 1774.45 1850.83 1770.9 Q1849.02 1767.34 1845.39 1767.34 M1845.39 1763.64 Q1851.2 1763.64 1854.26 1768.24 Q1857.33 1772.83 1857.33 1781.58 Q1857.33 1790.3 1854.26 1794.91 Q1851.2 1799.49 1845.39 1799.49 Q1839.58 1799.49 1836.5 1794.91 Q1833.45 1790.3 1833.45 1781.58 Q1833.45 1772.83 1836.5 1768.24 Q1839.58 1763.64 1845.39 1763.64 Z" fill="#000000" fill-rule="nonzero" fill-opacity="1" /><path clip-path="url(#clip510)" d="M1865.55 1792.94 L1870.44 1792.94 L1870.44 1798.82 L1865.55 1798.82 L1865.55 1792.94 Z" fill="#000000" fill-rule="nonzero" fill-opacity="1" /><path clip-path="url(#clip510)" d="M1884.65 1794.89 L1900.97 1794.89 L1900.97 1798.82 L1879.02 1798.82 L1879.02 1794.89 Q1881.69 1792.13 1886.27 1787.5 Q1890.88 1782.85 1892.06 1781.51 Q1894.3 1778.98 1895.18 1777.25 Q1896.08 1775.49 1896.08 1773.8 Q1896.08 1771.04 1894.14 1769.31 Q1892.22 1767.57 1889.12 1767.57 Q1886.92 1767.57 1884.46 1768.34 Q1882.03 1769.1 1879.26 1770.65 L1879.26 1765.93 Q1882.08 1764.79 1884.53 1764.21 Q1886.99 1763.64 1889.02 1763.64 Q1894.39 1763.64 1897.59 1766.32 Q1900.78 1769.01 1900.78 1773.5 Q1900.78 1775.63 1899.97 1777.55 Q1899.19 1779.45 1897.08 1782.04 Q1896.5 1782.71 1893.4 1785.93 Q1890.3 1789.12 1884.65 1794.89 Z" fill="#000000" fill-rule="nonzero" fill-opacity="1" /><path clip-path="url(#clip510)" d="M1920.78 1767.34 Q1917.17 1767.34 1915.34 1770.9 Q1913.54 1774.45 1913.54 1781.58 Q1913.54 1788.68 1915.34 1792.25 Q1917.17 1795.79 1920.78 1795.79 Q1924.42 1795.79 1926.22 1792.25 Q1928.05 1788.68 1928.05 1781.58 Q1928.05 1774.45 1926.22 1770.9 Q1924.42 1767.34 1920.78 1767.34 M1920.78 1763.64 Q1926.59 1763.64 1929.65 1768.24 Q1932.73 1772.83 1932.73 1781.58 Q1932.73 1790.3 1929.65 1794.91 Q1926.59 1799.49 1920.78 1799.49 Q1914.97 1799.49 1911.89 1794.91 Q1908.84 1790.3 1908.84 1781.58 Q1908.84 1772.83 1911.89 1768.24 Q1914.97 1763.64 1920.78 1763.64 Z" fill="#000000" fill-rule="nonzero" fill-opacity="1" /><path clip-path="url(#clip510)" d="M2261.88 1767.34 Q2258.27 1767.34 2256.44 1770.9 Q2254.63 1774.45 2254.63 1781.58 Q2254.63 1788.68 2256.44 1792.25 Q2258.27 1795.79 2261.88 1795.79 Q2265.51 1795.79 2267.32 1792.25 Q2269.15 1788.68 2269.15 1781.58 Q2269.15 1774.45 2267.32 1770.9 Q2265.51 1767.34 2261.88 1767.34 M2261.88 1763.64 Q2267.69 1763.64 2270.74 1768.24 Q2273.82 1772.83 2273.82 1781.58 Q2273.82 1790.3 2270.74 1794.91 Q2267.69 1799.49 2261.88 1799.49 Q2256.07 1799.49 2252.99 1794.91 Q2249.93 1790.3 2249.93 1781.58 Q2249.93 1772.83 2252.99 1768.24 Q2256.07 1763.64 2261.88 1763.64 Z" fill="#000000" fill-rule="nonzero" fill-opacity="1" /><path clip-path="url(#clip510)" d="M2282.04 1792.94 L2286.92 1792.94 L2286.92 1798.82 L2282.04 1798.82 L2282.04 1792.94 Z" fill="#000000" fill-rule="nonzero" fill-opacity="1" /><path clip-path="url(#clip510)" d="M2301.14 1794.89 L2317.46 1794.89 L2317.46 1798.82 L2295.51 1798.82 L2295.51 1794.89 Q2298.17 1792.13 2302.76 1787.5 Q2307.36 1782.85 2308.55 1781.51 Q2310.79 1778.98 2311.67 1777.25 Q2312.57 1775.49 2312.57 1773.8 Q2312.57 1771.04 2310.63 1769.31 Q2308.71 1767.57 2305.61 1767.57 Q2303.41 1767.57 2300.95 1768.34 Q2298.52 1769.1 2295.74 1770.65 L2295.74 1765.93 Q2298.57 1764.79 2301.02 1764.21 Q2303.48 1763.64 2305.51 1763.64 Q2310.88 1763.64 2314.08 1766.32 Q2317.27 1769.01 2317.27 1773.5 Q2317.27 1775.63 2316.46 1777.55 Q2315.67 1779.45 2313.57 1782.04 Q2312.99 1782.71 2309.89 1785.93 Q2306.79 1789.12 2301.14 1794.89 Z" fill="#000000" fill-rule="nonzero" fill-opacity="1" /><path clip-path="url(#clip510)" d="M2327.32 1764.26 L2345.67 1764.26 L2345.67 1768.2 L2331.6 1768.2 L2331.6 1776.67 Q2332.62 1776.32 2333.64 1776.16 Q2334.66 1775.97 2335.67 1775.97 Q2341.46 1775.97 2344.84 1779.15 Q2348.22 1782.32 2348.22 1787.73 Q2348.22 1793.31 2344.75 1796.41 Q2341.28 1799.49 2334.96 1799.49 Q2332.78 1799.49 2330.51 1799.12 Q2328.27 1798.75 2325.86 1798.01 L2325.86 1793.31 Q2327.94 1794.45 2330.17 1795 Q2332.39 1795.56 2334.86 1795.56 Q2338.87 1795.56 2341.21 1793.45 Q2343.55 1791.34 2343.55 1787.73 Q2343.55 1784.12 2341.21 1782.02 Q2338.87 1779.91 2334.86 1779.91 Q2332.99 1779.91 2331.11 1780.33 Q2329.26 1780.74 2327.32 1781.62 L2327.32 1764.26 Z" fill="#000000" fill-rule="nonzero" fill-opacity="1" /><path clip-path="url(#clip510)" d="M1362.18 1825.72 Q1362.18 1826.33 1362.05 1826.85 L1360.25 1838.31 Q1360.15 1839.18 1359.96 1839.51 Q1359.8 1839.83 1359.28 1839.83 Q1358.48 1839.83 1358.48 1838.99 Q1358.48 1838.51 1358.67 1837.73 Q1359.22 1834.1 1359.22 1832.45 Q1359.22 1831.36 1358.99 1830.55 Q1358.8 1829.72 1358.48 1829.14 Q1358.19 1828.56 1357.51 1828.17 Q1356.84 1827.78 1356.19 1827.56 Q1355.55 1827.33 1354.39 1827.24 Q1353.23 1827.11 1352.23 1827.07 Q1351.23 1827.04 1349.59 1827.04 Q1346.01 1827.04 1345.43 1827.17 Q1344.82 1827.33 1344.5 1827.82 Q1344.21 1828.27 1343.89 1829.62 L1335.13 1864.63 L1334.87 1866.01 Q1334.87 1866.78 1335.35 1867.04 Q1335.84 1867.3 1337.32 1867.46 Q1339.44 1867.62 1341.54 1867.62 Q1341.6 1867.62 1341.73 1867.62 Q1342.44 1867.62 1342.73 1867.65 Q1343.02 1867.65 1343.31 1867.72 Q1343.6 1867.78 1343.66 1867.94 Q1343.76 1868.07 1343.76 1868.33 Q1343.76 1868.94 1343.5 1869.26 Q1343.24 1869.55 1342.99 1869.62 Q1342.76 1869.65 1342.31 1869.65 Q1341.41 1869.65 1339.48 1869.59 Q1337.54 1869.52 1336.58 1869.52 L1331.1 1869.46 L1325.5 1869.52 Q1324.63 1869.52 1322.79 1869.59 Q1320.96 1869.65 1320.09 1869.65 Q1318.96 1869.65 1318.96 1868.85 Q1318.96 1867.94 1319.38 1867.78 Q1319.83 1867.62 1321.73 1867.62 Q1324.4 1867.62 1325.85 1867.49 Q1327.3 1867.36 1328.08 1866.91 Q1328.88 1866.46 1329.11 1866.01 Q1329.33 1865.53 1329.59 1864.43 L1338.45 1829.23 Q1338.7 1828.46 1338.7 1827.85 Q1338.7 1827.53 1338.61 1827.4 Q1338.54 1827.27 1338.12 1827.17 Q1337.7 1827.04 1336.84 1827.04 L1334.26 1827.04 Q1331.62 1827.04 1329.98 1827.17 Q1328.37 1827.27 1326.82 1827.75 Q1325.31 1828.23 1324.4 1828.91 Q1323.53 1829.59 1322.57 1830.97 Q1321.6 1832.36 1320.89 1834.03 Q1320.22 1835.71 1319.25 1838.44 Q1318.93 1839.34 1318.74 1839.6 Q1318.57 1839.83 1318.12 1839.83 Q1317.8 1839.83 1317.54 1839.63 Q1317.32 1839.41 1317.32 1839.12 Q1317.64 1838.06 1317.71 1837.93 L1321.67 1826.3 Q1321.99 1825.37 1322.28 1825.21 Q1322.6 1825.01 1323.79 1825.01 L1360.38 1825.01 Q1360.96 1825.01 1361.15 1825.01 Q1361.34 1825.01 1361.67 1825.08 Q1361.99 1825.14 1362.08 1825.3 Q1362.18 1825.46 1362.18 1825.72 Z" fill="#000000" fill-rule="nonzero" fill-opacity="1" /><path clip-path="url(#clip510)" d="M1369.2 1853.16 Q1369.2 1842.02 1373.35 1833.03 Q1375.12 1829.26 1377.6 1826.11 Q1380.08 1822.95 1381.72 1821.57 Q1383.37 1820.18 1383.82 1820.18 Q1384.46 1820.18 1384.49 1820.83 Q1384.49 1821.15 1383.63 1821.95 Q1373 1832.77 1373.03 1853.16 Q1373.03 1873.61 1383.37 1884.01 Q1384.49 1885.14 1384.49 1885.5 Q1384.49 1886.14 1383.82 1886.14 Q1383.37 1886.14 1381.79 1884.82 Q1380.21 1883.5 1377.76 1880.47 Q1375.32 1877.44 1373.54 1873.74 Q1369.2 1864.76 1369.2 1853.16 Z" fill="#000000" fill-rule="nonzero" fill-opacity="1" /><path clip-path="url(#clip510)" d="M1448.89 1825.34 Q1448.89 1825.92 1448.66 1826.24 Q1448.47 1826.53 1448.24 1826.59 Q1448.02 1826.62 1447.44 1826.66 Q1442.83 1826.88 1439.06 1830.01 Q1438.13 1830.81 1435.78 1833.32 Q1433.46 1835.83 1430.37 1839.18 Q1427.31 1842.53 1425.54 1844.34 L1434.04 1864.69 Q1434.39 1865.5 1434.52 1865.85 Q1434.68 1866.17 1435.01 1866.59 Q1435.36 1867.01 1435.62 1867.14 Q1435.91 1867.27 1436.52 1867.43 Q1437.16 1867.56 1437.81 1867.59 Q1438.48 1867.59 1439.71 1867.62 Q1440.1 1867.62 1440.26 1867.65 Q1440.45 1867.65 1440.67 1867.85 Q1440.9 1868.01 1440.9 1868.39 Q1440.9 1868.97 1440.64 1869.3 Q1440.42 1869.59 1440.19 1869.62 Q1440 1869.65 1439.64 1869.65 Q1438.81 1869.65 1435.97 1869.55 Q1433.14 1869.46 1432.33 1869.46 L1424.02 1869.65 Q1423.03 1869.65 1423.03 1868.85 Q1423.03 1868.43 1423.09 1868.2 Q1423.19 1867.94 1423.41 1867.85 Q1423.64 1867.72 1423.8 1867.69 Q1423.96 1867.65 1424.35 1867.62 Q1425.54 1867.49 1426.44 1867.14 Q1427.37 1866.75 1427.76 1866.37 Q1428.18 1865.98 1428.18 1865.69 L1427.86 1864.76 L1421.19 1849.01 L1415.23 1855.48 L1408.5 1862.6 Q1406.73 1864.5 1406.73 1865.56 Q1406.73 1867.33 1409.37 1867.62 Q1410.18 1867.69 1410.18 1868.33 Q1410.18 1868.94 1409.92 1869.26 Q1409.69 1869.55 1409.47 1869.62 Q1409.27 1869.65 1408.98 1869.65 Q1407.79 1869.65 1405.28 1869.55 Q1402.8 1869.46 1401.58 1869.46 Q1400.55 1869.46 1398.45 1869.55 Q1396.36 1869.65 1395.39 1869.65 Q1395.01 1869.65 1394.78 1869.46 Q1394.56 1869.26 1394.56 1869.07 L1394.52 1868.91 Q1394.52 1868.46 1394.59 1868.2 Q1394.69 1867.94 1394.94 1867.81 Q1395.23 1867.69 1395.36 1867.69 Q1395.49 1867.65 1395.97 1867.62 Q1398.71 1867.46 1401.03 1866.4 Q1403.38 1865.34 1405.67 1862.86 Q1405.86 1862.69 1406.09 1862.5 Q1406.34 1862.31 1406.54 1862.15 L1420.45 1847.17 L1412.66 1828.75 Q1412.3 1827.91 1411.98 1827.56 Q1411.66 1827.17 1410.66 1826.91 Q1409.66 1826.66 1407.73 1826.66 Q1407.18 1826.66 1406.92 1826.62 Q1406.67 1826.59 1406.44 1826.43 Q1406.21 1826.27 1406.21 1825.92 Q1406.21 1825.3 1406.44 1825.01 Q1406.7 1824.69 1406.89 1824.66 Q1407.12 1824.59 1407.41 1824.59 Q1408.21 1824.59 1411.08 1824.69 Q1413.94 1824.79 1414.78 1824.79 Q1416.17 1824.79 1418.94 1824.69 Q1421.74 1824.59 1423.09 1824.59 Q1424.09 1824.59 1424.09 1825.4 Q1424.09 1825.92 1423.86 1826.2 Q1423.64 1826.49 1423.41 1826.56 Q1423.19 1826.62 1422.77 1826.66 Q1421.51 1826.78 1420.55 1827.2 Q1419.61 1827.59 1419.23 1827.98 Q1418.87 1828.33 1418.87 1828.56 L1419.19 1829.43 L1424.73 1842.53 L1435.43 1831.07 Q1436.68 1829.65 1436.68 1828.68 Q1436.68 1826.95 1434.04 1826.66 Q1433.24 1826.53 1433.24 1825.92 Q1433.24 1825.3 1433.49 1825.01 Q1433.75 1824.69 1433.94 1824.66 Q1434.17 1824.59 1434.49 1824.59 Q1435.68 1824.59 1438.13 1824.69 Q1440.61 1824.79 1441.83 1824.79 Q1442.86 1824.79 1444.96 1824.69 Q1447.05 1824.59 1448.02 1824.59 Q1448.4 1824.59 1448.63 1824.79 Q1448.86 1824.95 1448.86 1825.14 L1448.89 1825.34 Z" fill="#000000" fill-rule="nonzero" fill-opacity="1" /><path clip-path="url(#clip510)" d="M1455.39 1880.48 Q1455.39 1879.11 1456.14 1878.59 Q1456.88 1878.05 1457.67 1878.05 Q1458.73 1878.05 1459.34 1878.72 Q1459.97 1879.38 1459.97 1880.3 Q1459.97 1881.23 1459.34 1881.9 Q1458.73 1882.56 1457.67 1882.56 Q1457.15 1882.56 1456.88 1882.47 Q1457.49 1884.59 1459.34 1886.12 Q1461.21 1887.65 1463.67 1887.65 Q1466.76 1887.65 1468.6 1884.65 Q1469.71 1882.72 1469.71 1878.32 Q1469.71 1874.44 1468.88 1872.5 Q1467.59 1869.55 1464.95 1869.55 Q1461.21 1869.55 1459 1872.77 Q1458.73 1873.18 1458.41 1873.2 Q1457.96 1873.2 1457.85 1872.95 Q1457.76 1872.68 1457.76 1871.98 L1457.76 1858.32 Q1457.76 1857.22 1458.21 1857.22 Q1458.39 1857.22 1458.78 1857.35 Q1461.68 1858.64 1464.91 1858.66 Q1468.22 1858.66 1471.2 1857.31 Q1471.42 1857.17 1471.56 1857.17 Q1472.01 1857.17 1472.03 1857.69 Q1472.03 1857.87 1471.65 1858.41 Q1471.29 1858.93 1470.5 1859.63 Q1469.71 1860.31 1468.69 1860.96 Q1467.68 1861.61 1466.19 1862.06 Q1464.73 1862.49 1463.1 1862.49 Q1461.17 1862.49 1459.18 1861.88 L1459.18 1870.88 Q1461.57 1868.53 1465.04 1868.53 Q1468.74 1868.53 1471.29 1871.51 Q1473.84 1874.49 1473.84 1878.63 Q1473.84 1882.99 1470.81 1885.96 Q1467.82 1888.94 1463.76 1888.94 Q1460.06 1888.94 1457.72 1886.3 Q1455.39 1883.66 1455.39 1880.48 Z" fill="#000000" fill-rule="nonzero" fill-opacity="1" /><path clip-path="url(#clip510)" d="M1478.44 1873.16 Q1478.44 1866.37 1480.16 1862.67 Q1482.55 1857.17 1488.18 1857.17 Q1489.38 1857.17 1490.62 1857.51 Q1491.88 1857.83 1493.46 1859.07 Q1495.06 1860.31 1496.03 1862.34 Q1497.88 1866.26 1497.88 1873.16 Q1497.88 1879.9 1496.16 1883.57 Q1493.66 1888.94 1488.14 1888.94 Q1486.06 1888.94 1483.94 1887.88 Q1481.85 1886.82 1480.52 1884.27 Q1478.44 1880.46 1478.44 1873.16 M1482.28 1872.59 Q1482.28 1879.56 1482.77 1882.33 Q1483.34 1885.33 1484.87 1886.64 Q1486.42 1887.92 1488.14 1887.92 Q1489.99 1887.92 1491.52 1886.55 Q1493.07 1885.15 1493.55 1882.15 Q1494.07 1879.2 1494.04 1872.59 Q1494.04 1866.17 1493.59 1863.6 Q1492.98 1860.6 1491.36 1859.4 Q1489.76 1858.19 1488.14 1858.19 Q1487.53 1858.19 1486.87 1858.37 Q1486.24 1858.55 1485.32 1859.07 Q1484.4 1859.58 1483.67 1860.87 Q1482.97 1862.15 1482.64 1864.09 Q1482.28 1866.6 1482.28 1872.59 Z" fill="#000000" fill-rule="nonzero" fill-opacity="1" /><path clip-path="url(#clip510)" d="M1508.35 1885.5 Q1508.35 1885.17 1509.19 1884.37 Q1519.81 1873.55 1519.81 1853.16 Q1519.81 1832.71 1509.6 1822.37 Q1508.35 1821.18 1508.35 1820.83 Q1508.35 1820.18 1508.99 1820.18 Q1509.44 1820.18 1511.02 1821.5 Q1512.63 1822.82 1515.05 1825.85 Q1517.49 1828.88 1519.3 1832.58 Q1523.65 1841.57 1523.65 1853.16 Q1523.65 1864.3 1519.49 1873.29 Q1517.72 1877.06 1515.24 1880.21 Q1512.76 1883.37 1511.12 1884.76 Q1509.48 1886.14 1508.99 1886.14 Q1508.35 1886.14 1508.35 1885.5 Z" fill="#000000" fill-rule="nonzero" fill-opacity="1" /><polyline clip-path="url(#clip510)" style="stroke:#000000; stroke-linecap:round; stroke-linejoin:round; stroke-width:4; stroke-opacity:1; fill:none" points="210.238,1734.12 210.238,127.792 "/>
<polyline clip-path="url(#clip510)" style="stroke:#000000; stroke-linecap:round; stroke-linejoin:round; stroke-width:4; stroke-opacity:1; fill:none" points="210.238,1734.12 229.135,1734.12 "/>
<polyline clip-path="url(#clip510)" style="stroke:#000000; stroke-linecap:round; stroke-linejoin:round; stroke-width:4; stroke-opacity:1; fill:none" points="210.238,1364.34 229.135,1364.34 "/>
<polyline clip-path="url(#clip510)" style="stroke:#000000; stroke-linecap:round; stroke-linejoin:round; stroke-width:4; stroke-opacity:1; fill:none" points="210.238,994.557 229.135,994.557 "/>
<polyline clip-path="url(#clip510)" style="stroke:#000000; stroke-linecap:round; stroke-linejoin:round; stroke-width:4; stroke-opacity:1; fill:none" points="210.238,624.777 229.135,624.777 "/>
<polyline clip-path="url(#clip510)" style="stroke:#000000; stroke-linecap:round; stroke-linejoin:round; stroke-width:4; stroke-opacity:1; fill:none" points="210.238,254.996 229.135,254.996 "/>
<path clip-path="url(#clip510)" d="M157.973 1719.92 Q154.362 1719.92 152.534 1723.48 Q150.728 1727.02 150.728 1734.15 Q150.728 1741.26 152.534 1744.82 Q154.362 1748.36 157.973 1748.36 Q161.608 1748.36 163.413 1744.82 Q165.242 1741.26 165.242 1734.15 Q165.242 1727.02 163.413 1723.48 Q161.608 1719.92 157.973 1719.92 M157.973 1716.21 Q163.784 1716.21 166.839 1720.82 Q169.918 1725.4 169.918 1734.15 Q169.918 1742.88 166.839 1747.48 Q163.784 1752.07 157.973 1752.07 Q152.163 1752.07 149.085 1747.48 Q146.029 1742.88 146.029 1734.15 Q146.029 1725.4 149.085 1720.82 Q152.163 1716.21 157.973 1716.21 Z" fill="#000000" fill-rule="nonzero" fill-opacity="1" /><path clip-path="url(#clip510)" d="M149.015 1347.06 L167.372 1347.06 L167.372 1350.99 L153.298 1350.99 L153.298 1359.46 Q154.316 1359.12 155.335 1358.95 Q156.353 1358.77 157.372 1358.77 Q163.159 1358.77 166.538 1361.94 Q169.918 1365.11 169.918 1370.53 Q169.918 1376.11 166.446 1379.21 Q162.973 1382.29 156.654 1382.29 Q154.478 1382.29 152.21 1381.92 Q149.964 1381.55 147.557 1380.81 L147.557 1376.11 Q149.64 1377.24 151.862 1377.8 Q154.085 1378.35 156.561 1378.35 Q160.566 1378.35 162.904 1376.25 Q165.242 1374.14 165.242 1370.53 Q165.242 1366.92 162.904 1364.81 Q160.566 1362.7 156.561 1362.7 Q154.686 1362.7 152.811 1363.12 Q150.96 1363.54 149.015 1364.42 L149.015 1347.06 Z" fill="#000000" fill-rule="nonzero" fill-opacity="1" /><path clip-path="url(#clip510)" d="M118.622 1007.9 L126.261 1007.9 L126.261 981.536 L117.951 983.203 L117.951 978.943 L126.214 977.277 L130.89 977.277 L130.89 1007.9 L138.529 1007.9 L138.529 1011.84 L118.622 1011.84 L118.622 1007.9 Z" fill="#000000" fill-rule="nonzero" fill-opacity="1" /><path clip-path="url(#clip510)" d="M157.973 980.355 Q154.362 980.355 152.534 983.92 Q150.728 987.462 150.728 994.591 Q150.728 1001.7 152.534 1005.26 Q154.362 1008.8 157.973 1008.8 Q161.608 1008.8 163.413 1005.26 Q165.242 1001.7 165.242 994.591 Q165.242 987.462 163.413 983.92 Q161.608 980.355 157.973 980.355 M157.973 976.652 Q163.784 976.652 166.839 981.258 Q169.918 985.842 169.918 994.591 Q169.918 1003.32 166.839 1007.92 Q163.784 1012.51 157.973 1012.51 Q152.163 1012.51 149.085 1007.92 Q146.029 1003.32 146.029 994.591 Q146.029 985.842 149.085 981.258 Q152.163 976.652 157.973 976.652 Z" fill="#000000" fill-rule="nonzero" fill-opacity="1" /><path clip-path="url(#clip510)" d="M119.617 638.121 L127.256 638.121 L127.256 611.756 L118.946 613.423 L118.946 609.163 L127.21 607.497 L131.886 607.497 L131.886 638.121 L139.525 638.121 L139.525 642.057 L119.617 642.057 L119.617 638.121 Z" fill="#000000" fill-rule="nonzero" fill-opacity="1" /><path clip-path="url(#clip510)" d="M149.015 607.497 L167.372 607.497 L167.372 611.432 L153.298 611.432 L153.298 619.904 Q154.316 619.557 155.335 619.395 Q156.353 619.21 157.372 619.21 Q163.159 619.21 166.538 622.381 Q169.918 625.552 169.918 630.969 Q169.918 636.547 166.446 639.649 Q162.973 642.728 156.654 642.728 Q154.478 642.728 152.21 642.358 Q149.964 641.987 147.557 641.246 L147.557 636.547 Q149.64 637.682 151.862 638.237 Q154.085 638.793 156.561 638.793 Q160.566 638.793 162.904 636.686 Q165.242 634.58 165.242 630.969 Q165.242 627.358 162.904 625.251 Q160.566 623.145 156.561 623.145 Q154.686 623.145 152.811 623.561 Q150.96 623.978 149.015 624.858 L149.015 607.497 Z" fill="#000000" fill-rule="nonzero" fill-opacity="1" /><path clip-path="url(#clip510)" d="M121.839 268.341 L138.159 268.341 L138.159 272.276 L116.214 272.276 L116.214 268.341 Q118.876 265.587 123.46 260.957 Q128.066 256.304 129.247 254.962 Q131.492 252.439 132.372 250.703 Q133.275 248.943 133.275 247.253 Q133.275 244.499 131.33 242.763 Q129.409 241.027 126.307 241.027 Q124.108 241.027 121.654 241.791 Q119.224 242.554 116.446 244.105 L116.446 239.383 Q119.27 238.249 121.724 237.67 Q124.177 237.091 126.214 237.091 Q131.585 237.091 134.779 239.777 Q137.974 242.462 137.974 246.953 Q137.974 249.082 137.163 251.003 Q136.376 252.902 134.27 255.494 Q133.691 256.165 130.589 259.383 Q127.488 262.577 121.839 268.341 Z" fill="#000000" fill-rule="nonzero" fill-opacity="1" /><path clip-path="url(#clip510)" d="M157.973 240.795 Q154.362 240.795 152.534 244.36 Q150.728 247.902 150.728 255.031 Q150.728 262.138 152.534 265.702 Q154.362 269.244 157.973 269.244 Q161.608 269.244 163.413 265.702 Q165.242 262.138 165.242 255.031 Q165.242 247.902 163.413 244.36 Q161.608 240.795 157.973 240.795 M157.973 237.091 Q163.784 237.091 166.839 241.698 Q169.918 246.281 169.918 255.031 Q169.918 263.758 166.839 268.364 Q163.784 272.948 157.973 272.948 Q152.163 272.948 149.085 268.364 Q146.029 263.758 146.029 255.031 Q146.029 246.281 149.085 241.698 Q152.163 237.091 157.973 237.091 Z" fill="#000000" fill-rule="nonzero" fill-opacity="1" /><path clip-path="url(#clip510)" d="M14.1184 1102.91 L14.1184 1075.6 L19.5293 1075.6 L19.5293 1096.48 L33.5338 1096.48 L33.5338 1077.64 L38.9447 1077.64 L38.9447 1096.48 L61.6384 1096.48 L61.6384 1102.91 L14.1184 1102.91 Z" fill="#000000" fill-rule="nonzero" fill-opacity="1" /><path clip-path="url(#clip510)" d="M31.465 1049.75 Q30.8921 1050.74 30.6375 1051.92 Q30.351 1053.06 30.351 1054.47 Q30.351 1059.43 33.5975 1062.1 Q36.8122 1064.75 42.8596 1064.75 L61.6384 1064.75 L61.6384 1070.63 L25.9905 1070.63 L25.9905 1064.75 L31.5287 1064.75 Q28.2821 1062.9 26.7225 1059.94 Q25.1311 1056.98 25.1311 1052.75 Q25.1311 1052.14 25.2266 1051.41 Q25.2903 1050.68 25.4494 1049.79 L31.465 1049.75 Z" fill="#000000" fill-rule="nonzero" fill-opacity="1" /><path clip-path="url(#clip510)" d="M42.3504 1014.55 L45.2149 1014.55 L45.2149 1041.48 Q51.2623 1041.1 54.4452 1037.85 Q57.5962 1034.57 57.5962 1028.75 Q57.5962 1025.37 56.7687 1022.22 Q55.9411 1019.04 54.2861 1015.92 L59.8242 1015.92 Q61.161 1019.07 61.8612 1022.38 Q62.5615 1025.69 62.5615 1029.1 Q62.5615 1037.63 57.5962 1042.62 Q52.631 1047.59 44.1646 1047.59 Q35.4117 1047.59 30.2873 1042.88 Q25.1311 1038.14 25.1311 1030.12 Q25.1311 1022.92 29.7781 1018.75 Q34.3932 1014.55 42.3504 1014.55 M40.6316 1020.41 Q35.8255 1020.47 32.9609 1023.11 Q30.0964 1025.72 30.0964 1030.05 Q30.0964 1034.95 32.8654 1037.91 Q35.6345 1040.84 40.6634 1041.29 L40.6316 1020.41 Z" fill="#000000" fill-rule="nonzero" fill-opacity="1" /><path clip-path="url(#clip510)" d="M43.8463 1001.44 Q50.3075 1001.44 53.9996 998.797 Q57.6599 996.123 57.6599 991.477 Q57.6599 986.83 53.9996 984.156 Q50.3075 981.482 43.8463 981.482 Q37.3851 981.482 33.7248 984.156 Q30.0327 986.83 30.0327 991.477 Q30.0327 996.123 33.7248 998.797 Q37.3851 1001.44 43.8463 1001.44 M56.2912 981.482 Q59.4741 983.328 61.0337 986.161 Q62.5615 988.962 62.5615 992.909 Q62.5615 999.37 57.4052 1003.44 Q52.249 1007.49 43.8463 1007.49 Q35.4436 1007.49 30.2873 1003.44 Q25.1311 999.37 25.1311 992.909 Q25.1311 988.962 26.6907 986.161 Q28.2185 983.328 31.4013 981.482 L25.9905 981.482 L25.9905 975.626 L75.1974 975.626 L75.1974 981.482 L56.2912 981.482 Z" fill="#000000" fill-rule="nonzero" fill-opacity="1" /><path clip-path="url(#clip510)" d="M47.5702 964.168 L25.9905 964.168 L25.9905 958.311 L47.3474 958.311 Q52.4082 958.311 54.9545 956.338 Q57.4689 954.364 57.4689 950.418 Q57.4689 945.675 54.4452 942.938 Q51.4215 940.169 46.2016 940.169 L25.9905 940.169 L25.9905 934.312 L61.6384 934.312 L61.6384 940.169 L56.1639 940.169 Q59.4104 942.301 61.0019 945.134 Q62.5615 947.935 62.5615 951.659 Q62.5615 957.802 58.742 960.985 Q54.9226 964.168 47.5702 964.168 M25.1311 949.431 L25.1311 949.431 Z" fill="#000000" fill-rule="nonzero" fill-opacity="1" /><path clip-path="url(#clip510)" d="M42.3504 891.758 L45.2149 891.758 L45.2149 918.685 Q51.2623 918.303 54.4452 915.056 Q57.5962 911.778 57.5962 905.953 Q57.5962 902.579 56.7687 899.428 Q55.9411 896.246 54.2861 893.126 L59.8242 893.126 Q61.161 896.277 61.8612 899.588 Q62.5615 902.898 62.5615 906.303 Q62.5615 914.833 57.5962 919.83 Q52.631 924.796 44.1646 924.796 Q35.4117 924.796 30.2873 920.085 Q25.1311 915.343 25.1311 907.322 Q25.1311 900.129 29.7781 895.959 Q34.3932 891.758 42.3504 891.758 M40.6316 897.614 Q35.8255 897.678 32.9609 900.32 Q30.0964 902.93 30.0964 907.258 Q30.0964 912.16 32.8654 915.12 Q35.6345 918.048 40.6634 918.494 L40.6316 897.614 M9.50331 910.027 L9.50331 905.317 L21.4708 897.519 L21.4708 901.943 L13.6728 907.672 L21.4708 913.401 L21.4708 917.825 L9.50331 910.027 Z" fill="#000000" fill-rule="nonzero" fill-opacity="1" /><path clip-path="url(#clip510)" d="M40.1224 852.513 L61.6384 852.513 L61.6384 858.37 L40.3133 858.37 Q35.2526 858.37 32.7381 860.343 Q30.2237 862.316 30.2237 866.263 Q30.2237 871.006 33.2474 873.743 Q36.2711 876.48 41.491 876.48 L61.6384 876.48 L61.6384 882.368 L25.9905 882.368 L25.9905 876.48 L31.5287 876.48 Q28.314 874.379 26.7225 871.547 Q25.1311 868.682 25.1311 864.958 Q25.1311 858.815 28.9505 855.664 Q32.7381 852.513 40.1224 852.513 Z" fill="#000000" fill-rule="nonzero" fill-opacity="1" /><path clip-path="url(#clip510)" d="M27.3591 815.178 L32.8336 815.178 Q31.465 817.661 30.7966 820.175 Q30.0964 822.658 30.0964 825.204 Q30.0964 830.902 33.7248 834.053 Q37.3214 837.204 43.8463 837.204 Q50.3711 837.204 53.9996 834.053 Q57.5962 830.902 57.5962 825.204 Q57.5962 822.658 56.9278 820.175 Q56.2276 817.661 54.859 815.178 L60.2698 815.178 Q61.4156 817.629 61.9886 820.271 Q62.5615 822.881 62.5615 825.841 Q62.5615 833.893 57.5007 838.636 Q52.44 843.378 43.8463 843.378 Q35.1253 843.378 30.1282 838.604 Q25.1311 833.798 25.1311 825.459 Q25.1311 822.753 25.704 820.175 Q26.2451 817.597 27.3591 815.178 Z" fill="#000000" fill-rule="nonzero" fill-opacity="1" /><path clip-path="url(#clip510)" d="M25.9905 804.993 L25.9905 799.137 L61.6384 799.137 L61.6384 804.993 L25.9905 804.993 M12.1132 804.993 L12.1132 799.137 L19.5293 799.137 L19.5293 804.993 L12.1132 804.993 Z" fill="#000000" fill-rule="nonzero" fill-opacity="1" /><path clip-path="url(#clip510)" d="M43.719 770.682 Q43.719 777.78 45.3422 780.517 Q46.9655 783.254 50.8804 783.254 Q53.9996 783.254 55.8457 781.217 Q57.6599 779.148 57.6599 775.615 Q57.6599 770.746 54.2224 767.817 Q50.7531 764.857 45.0239 764.857 L43.719 764.857 L43.719 770.682 M41.3 759.001 L61.6384 759.001 L61.6384 764.857 L56.2276 764.857 Q59.4741 766.863 61.0337 769.854 Q62.5615 772.846 62.5615 777.175 Q62.5615 782.65 59.5059 785.896 Q56.4186 789.111 51.2623 789.111 Q45.2467 789.111 42.1912 785.1 Q39.1357 781.058 39.1357 773.069 L39.1357 764.857 L38.5628 764.857 Q34.5205 764.857 32.3244 767.531 Q30.0964 770.173 30.0964 774.979 Q30.0964 778.034 30.8284 780.931 Q31.5605 783.827 33.0246 786.501 L27.6137 786.501 Q26.3724 783.286 25.7677 780.262 Q25.1311 777.239 25.1311 774.374 Q25.1311 766.64 29.1415 762.82 Q33.1519 759.001 41.3 759.001 Z" fill="#000000" fill-rule="nonzero" fill-opacity="1" /><path clip-path="url(#clip510)" d="M973.061 12.8636 L981.244 12.8636 L981.244 37.6551 L1010.98 37.6551 L1010.98 12.8636 L1019.16 12.8636 L1019.16 73.3435 L1010.98 73.3435 L1010.98 44.5416 L981.244 44.5416 L981.244 73.3435 L973.061 73.3435 L973.061 12.8636 Z" fill="#000000" fill-rule="nonzero" fill-opacity="1" /><path clip-path="url(#clip510)" d="M1035.12 27.9734 L1042.57 27.9734 L1042.57 73.3435 L1035.12 73.3435 L1035.12 27.9734 M1035.12 10.3115 L1042.57 10.3115 L1042.57 19.7501 L1035.12 19.7501 L1035.12 10.3115 Z" fill="#000000" fill-rule="nonzero" fill-opacity="1" /><path clip-path="url(#clip510)" d="M1087.09 29.3102 L1087.09 36.3588 Q1083.93 34.7384 1080.53 33.9283 Q1077.13 33.1181 1073.48 33.1181 Q1067.93 33.1181 1065.14 34.8195 Q1062.38 36.5208 1062.38 39.9236 Q1062.38 42.5162 1064.37 44.015 Q1066.35 45.4733 1072.35 46.8101 L1074.9 47.3773 Q1082.84 49.0786 1086.16 52.1978 Q1089.52 55.2765 1089.52 60.8263 Q1089.52 67.1457 1084.5 70.832 Q1079.52 74.5183 1070.77 74.5183 Q1067.12 74.5183 1063.15 73.7891 Q1059.22 73.1005 1054.85 71.6827 L1054.85 63.986 Q1058.98 66.1329 1062.99 67.2267 Q1067 68.2799 1070.93 68.2799 Q1076.2 68.2799 1079.03 66.4975 Q1081.87 64.6746 1081.87 61.3934 Q1081.87 58.3552 1079.8 56.7348 Q1077.78 55.1145 1070.85 53.6156 L1068.26 53.008 Q1061.33 51.5497 1058.25 48.552 Q1055.17 45.5138 1055.17 40.2477 Q1055.17 33.8472 1059.71 30.3635 Q1064.25 26.8797 1072.59 26.8797 Q1076.72 26.8797 1080.37 27.4873 Q1084.02 28.0949 1087.09 29.3102 Z" fill="#000000" fill-rule="nonzero" fill-opacity="1" /><path clip-path="url(#clip510)" d="M1108.77 15.0915 L1108.77 27.9734 L1124.12 27.9734 L1124.12 33.7662 L1108.77 33.7662 L1108.77 58.3957 Q1108.77 63.9455 1110.27 65.5253 Q1111.8 67.1052 1116.46 67.1052 L1124.12 67.1052 L1124.12 73.3435 L1116.46 73.3435 Q1107.83 73.3435 1104.55 70.1433 Q1101.27 66.9026 1101.27 58.3957 L1101.27 33.7662 L1095.8 33.7662 L1095.8 27.9734 L1101.27 27.9734 L1101.27 15.0915 L1108.77 15.0915 Z" fill="#000000" fill-rule="nonzero" fill-opacity="1" /><path clip-path="url(#clip510)" d="M1151.5 33.1991 Q1145.51 33.1991 1142.02 37.8981 Q1138.54 42.5567 1138.54 50.699 Q1138.54 58.8413 1141.98 63.5404 Q1145.47 68.1989 1151.5 68.1989 Q1157.46 68.1989 1160.94 63.4999 Q1164.43 58.8008 1164.43 50.699 Q1164.43 42.6377 1160.94 37.9386 Q1157.46 33.1991 1151.5 33.1991 M1151.5 26.8797 Q1161.23 26.8797 1166.78 33.1991 Q1172.32 39.5185 1172.32 50.699 Q1172.32 61.839 1166.78 68.1989 Q1161.23 74.5183 1151.5 74.5183 Q1141.74 74.5183 1136.19 68.1989 Q1130.68 61.839 1130.68 50.699 Q1130.68 39.5185 1136.19 33.1991 Q1141.74 26.8797 1151.5 26.8797 Z" fill="#000000" fill-rule="nonzero" fill-opacity="1" /><path clip-path="url(#clip510)" d="M1214.54 50.1319 Q1214.54 42.0301 1211.17 37.5741 Q1207.85 33.1181 1201.82 33.1181 Q1195.82 33.1181 1192.46 37.5741 Q1189.14 42.0301 1189.14 50.1319 Q1189.14 58.1932 1192.46 62.6492 Q1195.82 67.1052 1201.82 67.1052 Q1207.85 67.1052 1211.17 62.6492 Q1214.54 58.1932 1214.54 50.1319 M1221.99 67.7128 Q1221.99 79.2984 1216.84 84.9291 Q1211.7 90.6004 1201.09 90.6004 Q1197.16 90.6004 1193.67 89.9928 Q1190.19 89.4256 1186.91 88.2104 L1186.91 80.9592 Q1190.19 82.7416 1193.39 83.5923 Q1196.59 84.443 1199.91 84.443 Q1207.24 84.443 1210.89 80.5947 Q1214.54 76.7868 1214.54 69.0496 L1214.54 65.3633 Q1212.23 69.3737 1208.62 71.3586 Q1205.02 73.3435 1199.99 73.3435 Q1191.65 73.3435 1186.54 66.9836 Q1181.44 60.6237 1181.44 50.1319 Q1181.44 39.5995 1186.54 33.2396 Q1191.65 26.8797 1199.99 26.8797 Q1205.02 26.8797 1208.62 28.8646 Q1212.23 30.8496 1214.54 34.86 L1214.54 27.9734 L1221.99 27.9734 L1221.99 67.7128 Z" fill="#000000" fill-rule="nonzero" fill-opacity="1" /><path clip-path="url(#clip510)" d="M1263.63 34.941 Q1262.38 34.2118 1260.88 33.8877 Q1259.42 33.5232 1257.64 33.5232 Q1251.32 33.5232 1247.91 37.6551 Q1244.55 41.7465 1244.55 49.4432 L1244.55 73.3435 L1237.06 73.3435 L1237.06 27.9734 L1244.55 27.9734 L1244.55 35.022 Q1246.9 30.8901 1250.67 28.9051 Q1254.44 26.8797 1259.82 26.8797 Q1260.59 26.8797 1261.53 27.0012 Q1262.46 27.0822 1263.59 27.2848 L1263.63 34.941 Z" fill="#000000" fill-rule="nonzero" fill-opacity="1" /><path clip-path="url(#clip510)" d="M1292.07 50.537 Q1283.04 50.537 1279.55 52.6029 Q1276.07 54.6689 1276.07 59.6515 Q1276.07 63.6214 1278.66 65.9709 Q1281.29 68.2799 1285.79 68.2799 Q1291.99 68.2799 1295.72 63.9049 Q1299.48 59.4895 1299.48 52.1978 L1299.48 50.537 L1292.07 50.537 M1306.94 47.4583 L1306.94 73.3435 L1299.48 73.3435 L1299.48 66.457 Q1296.93 70.5889 1293.12 72.5739 Q1289.32 74.5183 1283.81 74.5183 Q1276.84 74.5183 1272.71 70.6294 Q1268.61 66.7001 1268.61 60.1376 Q1268.61 52.4814 1273.72 48.5925 Q1278.86 44.7037 1289.03 44.7037 L1299.48 44.7037 L1299.48 43.9745 Q1299.48 38.8298 1296.08 36.0347 Q1292.72 33.1991 1286.6 33.1991 Q1282.71 33.1991 1279.03 34.1308 Q1275.34 35.0625 1271.94 36.9259 L1271.94 30.0394 Q1276.03 28.4595 1279.88 27.6899 Q1283.72 26.8797 1287.37 26.8797 Q1297.21 26.8797 1302.08 31.9838 Q1306.94 37.088 1306.94 47.4583 Z" fill="#000000" fill-rule="nonzero" fill-opacity="1" /><path clip-path="url(#clip510)" d="M1357.61 36.6829 Q1360.41 31.6597 1364.3 29.2697 Q1368.19 26.8797 1373.45 26.8797 Q1380.54 26.8797 1384.39 31.8623 Q1388.24 36.8044 1388.24 45.9594 L1388.24 73.3435 L1380.74 73.3435 L1380.74 46.2025 Q1380.74 39.6805 1378.43 36.5208 Q1376.13 33.3611 1371.39 33.3611 Q1365.59 33.3611 1362.23 37.2095 Q1358.87 41.0578 1358.87 47.7013 L1358.87 73.3435 L1351.37 73.3435 L1351.37 46.2025 Q1351.37 39.64 1349.07 36.5208 Q1346.76 33.3611 1341.94 33.3611 Q1336.22 33.3611 1332.86 37.25 Q1329.5 41.0984 1329.5 47.7013 L1329.5 73.3435 L1322.01 73.3435 L1322.01 27.9734 L1329.5 27.9734 L1329.5 35.022 Q1332.05 30.8496 1335.62 28.8646 Q1339.18 26.8797 1344.08 26.8797 Q1349.03 26.8797 1352.47 29.3912 Q1355.95 31.9028 1357.61 36.6829 Z" fill="#000000" fill-rule="nonzero" fill-opacity="1" /><path clip-path="url(#clip510)" d="M1423.72 50.537 Q1414.69 50.537 1411.21 52.6029 Q1407.72 54.6689 1407.72 59.6515 Q1407.72 63.6214 1410.32 65.9709 Q1412.95 68.2799 1417.45 68.2799 Q1423.64 68.2799 1427.37 63.9049 Q1431.14 59.4895 1431.14 52.1978 L1431.14 50.537 L1423.72 50.537 M1438.59 47.4583 L1438.59 73.3435 L1431.14 73.3435 L1431.14 66.457 Q1428.59 70.5889 1424.78 72.5739 Q1420.97 74.5183 1415.46 74.5183 Q1408.49 74.5183 1404.36 70.6294 Q1400.27 66.7001 1400.27 60.1376 Q1400.27 52.4814 1405.37 48.5925 Q1410.52 44.7037 1420.69 44.7037 L1431.14 44.7037 L1431.14 43.9745 Q1431.14 38.8298 1427.73 36.0347 Q1424.37 33.1991 1418.26 33.1991 Q1414.37 33.1991 1410.68 34.1308 Q1406.99 35.0625 1403.59 36.9259 L1403.59 30.0394 Q1407.68 28.4595 1411.53 27.6899 Q1415.38 26.8797 1419.03 26.8797 Q1428.87 26.8797 1433.73 31.9838 Q1438.59 37.088 1438.59 47.4583 Z" fill="#000000" fill-rule="nonzero" fill-opacity="1" /><path clip-path="url(#clip510)" d="M1510.17 34.86 L1510.17 10.3115 L1517.62 10.3115 L1517.62 73.3435 L1510.17 73.3435 L1510.17 66.538 Q1507.82 70.5889 1504.22 72.5739 Q1500.65 74.5183 1495.63 74.5183 Q1487.4 74.5183 1482.22 67.9558 Q1477.07 61.3934 1477.07 50.699 Q1477.07 40.0046 1482.22 33.4421 Q1487.4 26.8797 1495.63 26.8797 Q1500.65 26.8797 1504.22 28.8646 Q1507.82 30.8091 1510.17 34.86 M1484.77 50.699 Q1484.77 58.9223 1488.13 63.6214 Q1491.54 68.2799 1497.45 68.2799 Q1503.36 68.2799 1506.77 63.6214 Q1510.17 58.9223 1510.17 50.699 Q1510.17 42.4757 1506.77 37.8171 Q1503.36 33.1181 1497.45 33.1181 Q1491.54 33.1181 1488.13 37.8171 Q1484.77 42.4757 1484.77 50.699 Z" fill="#000000" fill-rule="nonzero" fill-opacity="1" /><path clip-path="url(#clip510)" d="M1571.78 48.7951 L1571.78 52.4409 L1537.51 52.4409 Q1538 60.1376 1542.13 64.1885 Q1546.3 68.1989 1553.72 68.1989 Q1558.01 68.1989 1562.02 67.1457 Q1566.07 66.0924 1570.04 63.986 L1570.04 71.0345 Q1566.03 72.7359 1561.82 73.6271 Q1557.61 74.5183 1553.27 74.5183 Q1542.42 74.5183 1536.06 68.1989 Q1529.74 61.8795 1529.74 51.1041 Q1529.74 39.9641 1535.73 33.4421 Q1541.77 26.8797 1551.98 26.8797 Q1561.13 26.8797 1566.44 32.794 Q1571.78 38.6678 1571.78 48.7951 M1564.33 46.6076 Q1564.25 40.4907 1560.89 36.8449 Q1557.57 33.1991 1552.06 33.1991 Q1545.82 33.1991 1542.05 36.7234 Q1538.32 40.2477 1537.76 46.6481 L1564.33 46.6076 Z" fill="#000000" fill-rule="nonzero" fill-opacity="1" /><path clip-path="url(#clip510)" d="M1659.67 17.4342 Q1659.67 18.213 1659.51 18.8688 L1657.21 33.461 Q1657.09 34.5677 1656.84 34.9776 Q1656.64 35.3875 1655.98 35.3875 Q1654.96 35.3875 1654.96 34.3218 Q1654.96 33.7069 1655.2 32.7232 Q1655.9 28.0914 1655.9 26.0009 Q1655.9 24.6073 1655.61 23.5826 Q1655.37 22.5168 1654.96 21.779 Q1654.59 21.0412 1653.73 20.5494 Q1652.87 20.0575 1652.05 19.7706 Q1651.23 19.4836 1649.75 19.3607 Q1648.27 19.1967 1647 19.1557 Q1645.73 19.1147 1643.64 19.1147 Q1639.09 19.1147 1638.36 19.2787 Q1637.58 19.4836 1637.17 20.0985 Q1636.8 20.6723 1636.39 22.3939 L1625.24 66.9492 L1624.91 68.7118 Q1624.91 69.6955 1625.53 70.0234 Q1626.14 70.3513 1628.03 70.5563 Q1630.73 70.7612 1633.4 70.7612 Q1633.48 70.7612 1633.64 70.7612 Q1634.54 70.7612 1634.91 70.8022 Q1635.28 70.8022 1635.65 70.8842 Q1636.02 70.9662 1636.1 71.1711 Q1636.22 71.3351 1636.22 71.663 Q1636.22 72.4418 1635.9 72.8517 Q1635.57 73.2206 1635.24 73.3026 Q1634.95 73.3436 1634.38 73.3436 Q1633.23 73.3436 1630.77 73.2616 Q1628.31 73.1796 1627.08 73.1796 L1620.11 73.0976 L1612.98 73.1796 Q1611.88 73.1796 1609.54 73.2616 Q1607.2 73.3436 1606.1 73.3436 Q1604.66 73.3436 1604.66 72.3188 Q1604.66 71.1711 1605.19 70.9662 Q1605.77 70.7612 1608.19 70.7612 Q1611.59 70.7612 1613.43 70.5973 Q1615.28 70.4333 1616.26 69.8595 Q1617.29 69.2856 1617.57 68.7118 Q1617.86 68.0969 1618.19 66.7033 L1629.46 21.902 Q1629.79 20.9183 1629.79 20.1395 Q1629.79 19.7296 1629.67 19.5656 Q1629.58 19.4017 1629.05 19.2787 Q1628.52 19.1147 1627.41 19.1147 L1624.13 19.1147 Q1620.77 19.1147 1618.68 19.2787 Q1616.63 19.4017 1614.66 20.0165 Q1612.74 20.6313 1611.59 21.4921 Q1610.48 22.3529 1609.25 24.1154 Q1608.02 25.878 1607.12 28.0094 Q1606.26 30.1409 1605.03 33.6249 Q1604.62 34.7726 1604.38 35.1006 Q1604.17 35.3875 1603.6 35.3875 Q1603.19 35.3875 1602.86 35.1415 Q1602.57 34.8546 1602.57 34.4857 Q1602.98 33.1331 1603.06 32.9691 L1608.11 18.172 Q1608.51 16.9833 1608.88 16.7783 Q1609.29 16.5324 1610.81 16.5324 L1657.37 16.5324 Q1658.11 16.5324 1658.36 16.5324 Q1658.6 16.5324 1659.01 16.6144 Q1659.42 16.6964 1659.55 16.9013 Q1659.67 17.1063 1659.67 17.4342 Z" fill="#000000" fill-rule="nonzero" fill-opacity="1" /><path clip-path="url(#clip510)" d="M1668.6 52.357 Q1668.6 38.1747 1673.89 26.7387 Q1676.14 21.943 1679.3 17.926 Q1682.45 13.9091 1684.54 12.1466 Q1686.63 10.384 1687.21 10.384 Q1688.03 10.384 1688.07 11.2038 Q1688.07 11.6137 1686.96 12.6384 Q1673.43 26.4108 1673.48 52.357 Q1673.48 78.3852 1686.63 91.6248 Q1688.07 93.0594 1688.07 93.5103 Q1688.07 94.3301 1687.21 94.3301 Q1686.63 94.3301 1684.62 92.6495 Q1682.62 90.9689 1679.5 87.1159 Q1676.39 83.263 1674.13 78.5492 Q1668.6 67.1132 1668.6 52.357 Z" fill="#000000" fill-rule="nonzero" fill-opacity="1" /><path clip-path="url(#clip510)" d="M1770.02 16.9423 Q1770.02 17.6801 1769.73 18.09 Q1769.49 18.4589 1769.2 18.5409 Q1768.91 18.5819 1768.18 18.6229 Q1762.32 18.9098 1757.52 22.8857 Q1756.33 23.9105 1753.34 27.1076 Q1750.39 30.3048 1746.45 34.5677 Q1742.56 38.8306 1740.3 41.126 L1751.13 67.0312 Q1751.58 68.0559 1751.74 68.5068 Q1751.95 68.9167 1752.35 69.4496 Q1752.81 69.9824 1753.13 70.1464 Q1753.5 70.3103 1754.28 70.5153 Q1755.1 70.6792 1755.92 70.7202 Q1756.78 70.7202 1758.34 70.7612 Q1758.83 70.7612 1759.04 70.8022 Q1759.28 70.8022 1759.57 71.0482 Q1759.86 71.2531 1759.86 71.745 Q1759.86 72.4828 1759.53 72.8927 Q1759.24 73.2616 1758.95 73.3026 Q1758.71 73.3436 1758.26 73.3436 Q1757.19 73.3436 1753.58 73.2206 Q1749.98 73.0976 1748.95 73.0976 L1738.38 73.3436 Q1737.11 73.3436 1737.11 72.3188 Q1737.11 71.786 1737.19 71.499 Q1737.31 71.1711 1737.6 71.0482 Q1737.89 70.8842 1738.09 70.8432 Q1738.3 70.8022 1738.79 70.7612 Q1740.3 70.5973 1741.45 70.1464 Q1742.64 69.6545 1743.13 69.1626 Q1743.67 68.6708 1743.67 68.3019 L1743.26 67.1132 L1734.77 47.0694 L1727.19 55.3083 L1718.62 64.3669 Q1716.37 66.7853 1716.37 68.1379 Q1716.37 70.3923 1719.73 70.7612 Q1720.75 70.8432 1720.75 71.663 Q1720.75 72.4418 1720.42 72.8517 Q1720.14 73.2206 1719.85 73.3026 Q1719.6 73.3436 1719.24 73.3436 Q1717.72 73.3436 1714.52 73.2206 Q1711.37 73.0976 1709.81 73.0976 Q1708.5 73.0976 1705.83 73.2206 Q1703.17 73.3436 1701.94 73.3436 Q1701.45 73.3436 1701.16 73.0976 Q1700.87 72.8517 1700.87 72.6057 L1700.83 72.4008 Q1700.83 71.8269 1700.91 71.499 Q1701.04 71.1711 1701.36 71.0072 Q1701.73 70.8432 1701.9 70.8432 Q1702.06 70.8022 1702.68 70.7612 Q1706.16 70.5563 1709.11 69.2036 Q1712.1 67.851 1715.01 64.6948 Q1715.26 64.4899 1715.55 64.2439 Q1715.87 63.998 1716.12 63.793 L1733.83 44.733 L1723.91 21.2872 Q1723.46 20.2214 1723.05 19.7706 Q1722.64 19.2787 1721.37 18.9508 Q1720.1 18.6229 1717.64 18.6229 Q1716.94 18.6229 1716.61 18.5819 Q1716.28 18.5409 1716 18.3359 Q1715.71 18.131 1715.71 17.6801 Q1715.71 16.9013 1716 16.5324 Q1716.33 16.1225 1716.57 16.0815 Q1716.86 15.9996 1717.23 15.9996 Q1718.25 15.9996 1721.9 16.1225 Q1725.55 16.2455 1726.61 16.2455 Q1728.38 16.2455 1731.9 16.1225 Q1735.47 15.9996 1737.19 15.9996 Q1738.46 15.9996 1738.46 17.0243 Q1738.46 17.6801 1738.17 18.049 Q1737.89 18.4179 1737.6 18.4999 Q1737.31 18.5819 1736.78 18.6229 Q1735.18 18.7868 1733.95 19.3197 Q1732.76 19.8116 1732.27 20.3034 Q1731.82 20.7543 1731.82 21.0412 L1732.23 22.1479 L1739.28 38.8306 L1752.89 24.2384 Q1754.49 22.4349 1754.49 21.2052 Q1754.49 18.9918 1751.13 18.6229 Q1750.1 18.4589 1750.1 17.6801 Q1750.1 16.9013 1750.43 16.5324 Q1750.76 16.1225 1751 16.0815 Q1751.29 15.9996 1751.7 15.9996 Q1753.22 15.9996 1756.33 16.1225 Q1759.49 16.2455 1761.04 16.2455 Q1762.36 16.2455 1765.02 16.1225 Q1767.68 15.9996 1768.91 15.9996 Q1769.41 15.9996 1769.69 16.2455 Q1769.98 16.4504 1769.98 16.6964 L1770.02 16.9423 Z" fill="#000000" fill-rule="nonzero" fill-opacity="1" /><path clip-path="url(#clip510)" d="M1778.3 87.1304 Q1778.3 85.3802 1779.25 84.7203 Q1780.2 84.0316 1781.2 84.0316 Q1782.55 84.0316 1783.33 84.8924 Q1784.13 85.7245 1784.13 86.9009 Q1784.13 88.0773 1783.33 88.9381 Q1782.55 89.7701 1781.2 89.7701 Q1780.54 89.7701 1780.2 89.6554 Q1780.97 92.3525 1783.33 94.3036 Q1785.71 96.2546 1788.83 96.2546 Q1792.76 96.2546 1795.12 92.4385 Q1796.52 89.971 1796.52 84.3759 Q1796.52 79.4408 1795.46 76.9733 Q1793.83 73.2146 1790.47 73.2146 Q1785.71 73.2146 1782.89 77.3176 Q1782.55 77.8341 1782.15 77.8628 Q1781.57 77.8628 1781.43 77.5471 Q1781.32 77.2028 1781.32 76.3134 L1781.32 58.9257 Q1781.32 57.5198 1781.89 57.5198 Q1782.12 57.5198 1782.61 57.6919 Q1786.31 59.3274 1790.41 59.3561 Q1794.63 59.3561 1798.42 57.6345 Q1798.7 57.4624 1798.88 57.4624 Q1799.45 57.4624 1799.48 58.1223 Q1799.48 58.3519 1798.99 59.0405 Q1798.53 59.7004 1797.53 60.5899 Q1796.52 61.4506 1795.23 62.2827 Q1793.94 63.1148 1792.05 63.6887 Q1790.18 64.2338 1788.12 64.2338 Q1785.65 64.2338 1783.12 63.4591 L1783.12 74.9074 Q1786.17 71.9234 1790.58 71.9234 Q1795.29 71.9234 1798.53 75.7108 Q1801.77 79.4982 1801.77 84.7776 Q1801.77 90.3153 1797.93 94.1027 Q1794.11 97.8901 1788.95 97.8901 Q1784.24 97.8901 1781.26 94.5331 Q1778.3 91.1761 1778.3 87.1304 Z" fill="#000000" fill-rule="nonzero" fill-opacity="1" /><path clip-path="url(#clip510)" d="M1807.64 77.8054 Q1807.64 69.1689 1809.82 64.4634 Q1812.86 57.4624 1820.03 57.4624 Q1821.55 57.4624 1823.13 57.8928 Q1824.74 58.2945 1826.75 59.8726 Q1828.79 61.4506 1830.02 64.033 Q1832.37 69.0255 1832.37 77.8054 Q1832.37 86.3844 1830.19 91.0613 Q1827.01 97.8901 1819.98 97.8901 Q1817.34 97.8901 1814.64 96.5416 Q1811.97 95.193 1810.28 91.9508 Q1807.64 87.1017 1807.64 77.8054 M1812.52 77.0881 Q1812.52 85.954 1813.15 89.4832 Q1813.87 93.2993 1815.82 94.9635 Q1817.8 96.5989 1819.98 96.5989 Q1822.33 96.5989 1824.28 94.8487 Q1826.26 93.0698 1826.86 89.2537 Q1827.52 85.495 1827.49 77.0881 Q1827.49 68.9107 1826.92 65.6397 Q1826.15 61.8236 1824.08 60.3029 Q1822.04 58.7535 1819.98 58.7535 Q1819.2 58.7535 1818.37 58.9831 Q1817.57 59.2126 1816.39 59.8726 Q1815.21 60.5325 1814.3 62.168 Q1813.41 63.8034 1812.98 66.271 Q1812.52 69.4559 1812.52 77.0881 Z" fill="#000000" fill-rule="nonzero" fill-opacity="1" /><path clip-path="url(#clip510)" d="M1845.7 93.5103 Q1845.7 93.1004 1846.76 92.0757 Q1860.29 78.3033 1860.29 52.357 Q1860.29 26.3288 1847.3 13.1713 Q1845.7 11.6547 1845.7 11.2038 Q1845.7 10.384 1846.52 10.384 Q1847.09 10.384 1849.1 12.0646 Q1851.15 13.7451 1854.22 17.5981 Q1857.34 21.4511 1859.64 26.1649 Q1865.17 37.6009 1865.17 52.357 Q1865.17 66.5393 1859.88 77.9753 Q1857.63 82.7711 1854.47 86.788 Q1851.31 90.805 1849.22 92.5675 Q1847.13 94.3301 1846.52 94.3301 Q1845.7 94.3301 1845.7 93.5103 Z" fill="#000000" fill-rule="nonzero" fill-opacity="1" /><path clip-path="url(#clip512)" d="M343.921 1732.64 L343.921 1734.12 L385.52 1734.12 L385.52 1732.64 L343.921 1732.64 L343.921 1732.64  Z" fill="#009af9" fill-rule="evenodd" fill-opacity="1"/>
<polyline clip-path="url(#clip512)" style="stroke:#000000; stroke-linecap:round; stroke-linejoin:round; stroke-width:4; stroke-opacity:1; fill:none" points="343.921,1732.64 343.921,1734.12 385.52,1734.12 385.52,1732.64 343.921,1732.64 "/>
<path clip-path="url(#clip512)" d="M385.52 1720.8 L385.52 1734.12 L427.119 1734.12 L427.119 1720.8 L385.52 1720.8 L385.52 1720.8  Z" fill="#009af9" fill-rule="evenodd" fill-opacity="1"/>
<polyline clip-path="url(#clip512)" style="stroke:#000000; stroke-linecap:round; stroke-linejoin:round; stroke-width:4; stroke-opacity:1; fill:none" points="385.52,1720.8 385.52,1734.12 427.119,1734.12 427.119,1720.8 385.52,1720.8 "/>
<path clip-path="url(#clip512)" d="M427.119 1658.68 L427.119 1734.12 L468.718 1734.12 L468.718 1658.68 L427.119 1658.68 L427.119 1658.68  Z" fill="#009af9" fill-rule="evenodd" fill-opacity="1"/>
<polyline clip-path="url(#clip512)" style="stroke:#000000; stroke-linecap:round; stroke-linejoin:round; stroke-width:4; stroke-opacity:1; fill:none" points="427.119,1658.68 427.119,1734.12 468.718,1734.12 468.718,1658.68 427.119,1658.68 "/>
<path clip-path="url(#clip512)" d="M468.718 1614.31 L468.718 1734.12 L510.317 1734.12 L510.317 1614.31 L468.718 1614.31 L468.718 1614.31  Z" fill="#009af9" fill-rule="evenodd" fill-opacity="1"/>
<polyline clip-path="url(#clip512)" style="stroke:#000000; stroke-linecap:round; stroke-linejoin:round; stroke-width:4; stroke-opacity:1; fill:none" points="468.718,1614.31 468.718,1734.12 510.317,1734.12 510.317,1614.31 468.718,1614.31 "/>
<path clip-path="url(#clip512)" d="M510.317 1343.63 L510.317 1734.12 L551.916 1734.12 L551.916 1343.63 L510.317 1343.63 L510.317 1343.63  Z" fill="#009af9" fill-rule="evenodd" fill-opacity="1"/>
<polyline clip-path="url(#clip512)" style="stroke:#000000; stroke-linecap:round; stroke-linejoin:round; stroke-width:4; stroke-opacity:1; fill:none" points="510.317,1343.63 510.317,1734.12 551.916,1734.12 551.916,1343.63 510.317,1343.63 "/>
<path clip-path="url(#clip512)" d="M551.916 1061.12 L551.916 1734.12 L593.515 1734.12 L593.515 1061.12 L551.916 1061.12 L551.916 1061.12  Z" fill="#009af9" fill-rule="evenodd" fill-opacity="1"/>
<polyline clip-path="url(#clip512)" style="stroke:#000000; stroke-linecap:round; stroke-linejoin:round; stroke-width:4; stroke-opacity:1; fill:none" points="551.916,1061.12 551.916,1734.12 593.515,1734.12 593.515,1061.12 551.916,1061.12 "/>
<path clip-path="url(#clip512)" d="M593.515 1133.59 L593.515 1734.12 L635.114 1734.12 L635.114 1133.59 L593.515 1133.59 L593.515 1133.59  Z" fill="#009af9" fill-rule="evenodd" fill-opacity="1"/>
<polyline clip-path="url(#clip512)" style="stroke:#000000; stroke-linecap:round; stroke-linejoin:round; stroke-width:4; stroke-opacity:1; fill:none" points="593.515,1133.59 593.515,1734.12 635.114,1734.12 635.114,1133.59 593.515,1133.59 "/>
<path clip-path="url(#clip512)" d="M635.114 925.038 L635.114 1734.12 L676.713 1734.12 L676.713 925.038 L635.114 925.038 L635.114 925.038  Z" fill="#009af9" fill-rule="evenodd" fill-opacity="1"/>
<polyline clip-path="url(#clip512)" style="stroke:#000000; stroke-linecap:round; stroke-linejoin:round; stroke-width:4; stroke-opacity:1; fill:none" points="635.114,925.038 635.114,1734.12 676.713,1734.12 676.713,925.038 635.114,925.038 "/>
<path clip-path="url(#clip512)" d="M676.713 127.792 L676.713 1734.12 L718.312 1734.12 L718.312 127.792 L676.713 127.792 L676.713 127.792  Z" fill="#009af9" fill-rule="evenodd" fill-opacity="1"/>
<polyline clip-path="url(#clip512)" style="stroke:#000000; stroke-linecap:round; stroke-linejoin:round; stroke-width:4; stroke-opacity:1; fill:none" points="676.713,127.792 676.713,1734.12 718.312,1734.12 718.312,127.792 676.713,127.792 "/>
<path clip-path="url(#clip512)" d="M718.312 435.449 L718.312 1734.12 L759.912 1734.12 L759.912 435.449 L718.312 435.449 L718.312 435.449  Z" fill="#009af9" fill-rule="evenodd" fill-opacity="1"/>
<polyline clip-path="url(#clip512)" style="stroke:#000000; stroke-linecap:round; stroke-linejoin:round; stroke-width:4; stroke-opacity:1; fill:none" points="718.312,435.449 718.312,1734.12 759.912,1734.12 759.912,435.449 718.312,435.449 "/>
<path clip-path="url(#clip512)" d="M759.912 1004.91 L759.912 1734.12 L801.511 1734.12 L801.511 1004.91 L759.912 1004.91 L759.912 1004.91  Z" fill="#009af9" fill-rule="evenodd" fill-opacity="1"/>
<polyline clip-path="url(#clip512)" style="stroke:#000000; stroke-linecap:round; stroke-linejoin:round; stroke-width:4; stroke-opacity:1; fill:none" points="759.912,1004.91 759.912,1734.12 801.511,1734.12 801.511,1004.91 759.912,1004.91 "/>
<path clip-path="url(#clip512)" d="M801.511 238.726 L801.511 1734.12 L843.11 1734.12 L843.11 238.726 L801.511 238.726 L801.511 238.726  Z" fill="#009af9" fill-rule="evenodd" fill-opacity="1"/>
<polyline clip-path="url(#clip512)" style="stroke:#000000; stroke-linecap:round; stroke-linejoin:round; stroke-width:4; stroke-opacity:1; fill:none" points="801.511,238.726 801.511,1734.12 843.11,1734.12 843.11,238.726 801.511,238.726 "/>
<path clip-path="url(#clip512)" d="M843.11 302.328 L843.11 1734.12 L884.709 1734.12 L884.709 302.328 L843.11 302.328 L843.11 302.328  Z" fill="#009af9" fill-rule="evenodd" fill-opacity="1"/>
<polyline clip-path="url(#clip512)" style="stroke:#000000; stroke-linecap:round; stroke-linejoin:round; stroke-width:4; stroke-opacity:1; fill:none" points="843.11,302.328 843.11,1734.12 884.709,1734.12 884.709,302.328 843.11,302.328 "/>
<path clip-path="url(#clip512)" d="M884.709 1069.99 L884.709 1734.12 L926.308 1734.12 L926.308 1069.99 L884.709 1069.99 L884.709 1069.99  Z" fill="#009af9" fill-rule="evenodd" fill-opacity="1"/>
<polyline clip-path="url(#clip512)" style="stroke:#000000; stroke-linecap:round; stroke-linejoin:round; stroke-width:4; stroke-opacity:1; fill:none" points="884.709,1069.99 884.709,1734.12 926.308,1734.12 926.308,1069.99 884.709,1069.99 "/>
<path clip-path="url(#clip512)" d="M926.308 487.218 L926.308 1734.12 L967.907 1734.12 L967.907 487.218 L926.308 487.218 L926.308 487.218  Z" fill="#009af9" fill-rule="evenodd" fill-opacity="1"/>
<polyline clip-path="url(#clip512)" style="stroke:#000000; stroke-linecap:round; stroke-linejoin:round; stroke-width:4; stroke-opacity:1; fill:none" points="926.308,487.218 926.308,1734.12 967.907,1734.12 967.907,487.218 926.308,487.218 "/>
<path clip-path="url(#clip512)" d="M967.907 1149.86 L967.907 1734.12 L1009.51 1734.12 L1009.51 1149.86 L967.907 1149.86 L967.907 1149.86  Z" fill="#009af9" fill-rule="evenodd" fill-opacity="1"/>
<polyline clip-path="url(#clip512)" style="stroke:#000000; stroke-linecap:round; stroke-linejoin:round; stroke-width:4; stroke-opacity:1; fill:none" points="967.907,1149.86 967.907,1734.12 1009.51,1734.12 1009.51,1149.86 967.907,1149.86 "/>
<path clip-path="url(#clip512)" d="M1009.51 1207.55 L1009.51 1734.12 L1051.11 1734.12 L1051.11 1207.55 L1009.51 1207.55 L1009.51 1207.55  Z" fill="#009af9" fill-rule="evenodd" fill-opacity="1"/>
<polyline clip-path="url(#clip512)" style="stroke:#000000; stroke-linecap:round; stroke-linejoin:round; stroke-width:4; stroke-opacity:1; fill:none" points="1009.51,1207.55 1009.51,1734.12 1051.11,1734.12 1051.11,1207.55 1009.51,1207.55 "/>
<path clip-path="url(#clip512)" d="M1051.11 1309.61 L1051.11 1734.12 L1092.7 1734.12 L1092.7 1309.61 L1051.11 1309.61 L1051.11 1309.61  Z" fill="#009af9" fill-rule="evenodd" fill-opacity="1"/>
<polyline clip-path="url(#clip512)" style="stroke:#000000; stroke-linecap:round; stroke-linejoin:round; stroke-width:4; stroke-opacity:1; fill:none" points="1051.11,1309.61 1051.11,1734.12 1092.7,1734.12 1092.7,1309.61 1051.11,1309.61 "/>
<path clip-path="url(#clip512)" d="M1092.7 1299.26 L1092.7 1734.12 L1134.3 1734.12 L1134.3 1299.26 L1092.7 1299.26 L1092.7 1299.26  Z" fill="#009af9" fill-rule="evenodd" fill-opacity="1"/>
<polyline clip-path="url(#clip512)" style="stroke:#000000; stroke-linecap:round; stroke-linejoin:round; stroke-width:4; stroke-opacity:1; fill:none" points="1092.7,1299.26 1092.7,1734.12 1134.3,1734.12 1134.3,1299.26 1092.7,1299.26 "/>
<path clip-path="url(#clip512)" d="M1134.3 1136.55 L1134.3 1734.12 L1175.9 1734.12 L1175.9 1136.55 L1134.3 1136.55 L1134.3 1136.55  Z" fill="#009af9" fill-rule="evenodd" fill-opacity="1"/>
<polyline clip-path="url(#clip512)" style="stroke:#000000; stroke-linecap:round; stroke-linejoin:round; stroke-width:4; stroke-opacity:1; fill:none" points="1134.3,1136.55 1134.3,1734.12 1175.9,1734.12 1175.9,1136.55 1134.3,1136.55 "/>
<path clip-path="url(#clip512)" d="M1175.9 1459 L1175.9 1734.12 L1217.5 1734.12 L1217.5 1459 L1175.9 1459 L1175.9 1459  Z" fill="#009af9" fill-rule="evenodd" fill-opacity="1"/>
<polyline clip-path="url(#clip512)" style="stroke:#000000; stroke-linecap:round; stroke-linejoin:round; stroke-width:4; stroke-opacity:1; fill:none" points="1175.9,1459 1175.9,1734.12 1217.5,1734.12 1217.5,1459 1175.9,1459 "/>
<path clip-path="url(#clip512)" d="M1217.5 1555.14 L1217.5 1734.12 L1259.1 1734.12 L1259.1 1555.14 L1217.5 1555.14 L1217.5 1555.14  Z" fill="#009af9" fill-rule="evenodd" fill-opacity="1"/>
<polyline clip-path="url(#clip512)" style="stroke:#000000; stroke-linecap:round; stroke-linejoin:round; stroke-width:4; stroke-opacity:1; fill:none" points="1217.5,1555.14 1217.5,1734.12 1259.1,1734.12 1259.1,1555.14 1217.5,1555.14 "/>
<path clip-path="url(#clip512)" d="M1259.1 1556.62 L1259.1 1734.12 L1300.7 1734.12 L1300.7 1556.62 L1259.1 1556.62 L1259.1 1556.62  Z" fill="#009af9" fill-rule="evenodd" fill-opacity="1"/>
<polyline clip-path="url(#clip512)" style="stroke:#000000; stroke-linecap:round; stroke-linejoin:round; stroke-width:4; stroke-opacity:1; fill:none" points="1259.1,1556.62 1259.1,1734.12 1300.7,1734.12 1300.7,1556.62 1259.1,1556.62 "/>
<path clip-path="url(#clip512)" d="M1300.7 1734.12 L1300.7 1734.12 L1342.3 1734.12 L1342.3 1734.12 L1300.7 1734.12 L1300.7 1734.12  Z" fill="#009af9" fill-rule="evenodd" fill-opacity="1"/>
<polyline clip-path="url(#clip512)" style="stroke:#000000; stroke-linecap:round; stroke-linejoin:round; stroke-width:4; stroke-opacity:1; fill:none" points="1300.7,1734.12 1300.7,1734.12 1342.3,1734.12 1300.7,1734.12 "/>
<path clip-path="url(#clip512)" d="M1342.3 1627.62 L1342.3 1734.12 L1383.9 1734.12 L1383.9 1627.62 L1342.3 1627.62 L1342.3 1627.62  Z" fill="#009af9" fill-rule="evenodd" fill-opacity="1"/>
<polyline clip-path="url(#clip512)" style="stroke:#000000; stroke-linecap:round; stroke-linejoin:round; stroke-width:4; stroke-opacity:1; fill:none" points="1342.3,1627.62 1342.3,1734.12 1383.9,1734.12 1383.9,1627.62 1342.3,1627.62 "/>
<path clip-path="url(#clip512)" d="M1383.9 1645.37 L1383.9 1734.12 L1425.5 1734.12 L1425.5 1645.37 L1383.9 1645.37 L1383.9 1645.37  Z" fill="#009af9" fill-rule="evenodd" fill-opacity="1"/>
<polyline clip-path="url(#clip512)" style="stroke:#000000; stroke-linecap:round; stroke-linejoin:round; stroke-width:4; stroke-opacity:1; fill:none" points="1383.9,1645.37 1383.9,1734.12 1425.5,1734.12 1425.5,1645.37 1383.9,1645.37 "/>
<path clip-path="url(#clip512)" d="M1425.5 1679.39 L1425.5 1734.12 L1467.1 1734.12 L1467.1 1679.39 L1425.5 1679.39 L1425.5 1679.39  Z" fill="#009af9" fill-rule="evenodd" fill-opacity="1"/>
<polyline clip-path="url(#clip512)" style="stroke:#000000; stroke-linecap:round; stroke-linejoin:round; stroke-width:4; stroke-opacity:1; fill:none" points="1425.5,1679.39 1425.5,1734.12 1467.1,1734.12 1467.1,1679.39 1425.5,1679.39 "/>
<path clip-path="url(#clip512)" d="M1467.1 1677.91 L1467.1 1734.12 L1508.7 1734.12 L1508.7 1677.91 L1467.1 1677.91 L1467.1 1677.91  Z" fill="#009af9" fill-rule="evenodd" fill-opacity="1"/>
<polyline clip-path="url(#clip512)" style="stroke:#000000; stroke-linecap:round; stroke-linejoin:round; stroke-width:4; stroke-opacity:1; fill:none" points="1467.1,1677.91 1467.1,1734.12 1508.7,1734.12 1508.7,1677.91 1467.1,1677.91 "/>
<path clip-path="url(#clip512)" d="M1508.7 1691.22 L1508.7 1734.12 L1550.29 1734.12 L1550.29 1691.22 L1508.7 1691.22 L1508.7 1691.22  Z" fill="#009af9" fill-rule="evenodd" fill-opacity="1"/>
<polyline clip-path="url(#clip512)" style="stroke:#000000; stroke-linecap:round; stroke-linejoin:round; stroke-width:4; stroke-opacity:1; fill:none" points="1508.7,1691.22 1508.7,1734.12 1550.29,1734.12 1550.29,1691.22 1508.7,1691.22 "/>
<path clip-path="url(#clip512)" d="M1550.29 1734.12 L1550.29 1734.12 L1591.89 1734.12 L1591.89 1734.12 L1550.29 1734.12 L1550.29 1734.12  Z" fill="#009af9" fill-rule="evenodd" fill-opacity="1"/>
<polyline clip-path="url(#clip512)" style="stroke:#000000; stroke-linecap:round; stroke-linejoin:round; stroke-width:4; stroke-opacity:1; fill:none" points="1550.29,1734.12 1550.29,1734.12 1591.89,1734.12 1550.29,1734.12 "/>
<path clip-path="url(#clip512)" d="M1591.89 1714.89 L1591.89 1734.12 L1633.49 1734.12 L1633.49 1714.89 L1591.89 1714.89 L1591.89 1714.89  Z" fill="#009af9" fill-rule="evenodd" fill-opacity="1"/>
<polyline clip-path="url(#clip512)" style="stroke:#000000; stroke-linecap:round; stroke-linejoin:round; stroke-width:4; stroke-opacity:1; fill:none" points="1591.89,1714.89 1591.89,1734.12 1633.49,1734.12 1633.49,1714.89 1591.89,1714.89 "/>
<path clip-path="url(#clip512)" d="M1633.49 1717.85 L1633.49 1734.12 L1675.09 1734.12 L1675.09 1717.85 L1633.49 1717.85 L1633.49 1717.85  Z" fill="#009af9" fill-rule="evenodd" fill-opacity="1"/>
<polyline clip-path="url(#clip512)" style="stroke:#000000; stroke-linecap:round; stroke-linejoin:round; stroke-width:4; stroke-opacity:1; fill:none" points="1633.49,1717.85 1633.49,1734.12 1675.09,1734.12 1675.09,1717.85 1633.49,1717.85 "/>
<path clip-path="url(#clip512)" d="M1675.09 1734.12 L1675.09 1734.12 L1716.69 1734.12 L1716.69 1734.12 L1675.09 1734.12 L1675.09 1734.12  Z" fill="#009af9" fill-rule="evenodd" fill-opacity="1"/>
<polyline clip-path="url(#clip512)" style="stroke:#000000; stroke-linecap:round; stroke-linejoin:round; stroke-width:4; stroke-opacity:1; fill:none" points="1675.09,1734.12 1675.09,1734.12 1716.69,1734.12 1675.09,1734.12 "/>
<path clip-path="url(#clip512)" d="M1716.69 1714.89 L1716.69 1734.12 L1758.29 1734.12 L1758.29 1714.89 L1716.69 1714.89 L1716.69 1714.89  Z" fill="#009af9" fill-rule="evenodd" fill-opacity="1"/>
<polyline clip-path="url(#clip512)" style="stroke:#000000; stroke-linecap:round; stroke-linejoin:round; stroke-width:4; stroke-opacity:1; fill:none" points="1716.69,1714.89 1716.69,1734.12 1758.29,1734.12 1758.29,1714.89 1716.69,1714.89 "/>
<path clip-path="url(#clip512)" d="M1758.29 1719.33 L1758.29 1734.12 L1799.89 1734.12 L1799.89 1719.33 L1758.29 1719.33 L1758.29 1719.33  Z" fill="#009af9" fill-rule="evenodd" fill-opacity="1"/>
<polyline clip-path="url(#clip512)" style="stroke:#000000; stroke-linecap:round; stroke-linejoin:round; stroke-width:4; stroke-opacity:1; fill:none" points="1758.29,1719.33 1758.29,1734.12 1799.89,1734.12 1799.89,1719.33 1758.29,1719.33 "/>
<path clip-path="url(#clip512)" d="M1799.89 1734.12 L1799.89 1734.12 L1841.49 1734.12 L1841.49 1734.12 L1799.89 1734.12 L1799.89 1734.12  Z" fill="#009af9" fill-rule="evenodd" fill-opacity="1"/>
<polyline clip-path="url(#clip512)" style="stroke:#000000; stroke-linecap:round; stroke-linejoin:round; stroke-width:4; stroke-opacity:1; fill:none" points="1799.89,1734.12 1799.89,1734.12 1841.49,1734.12 1799.89,1734.12 "/>
<path clip-path="url(#clip512)" d="M1841.49 1728.2 L1841.49 1734.12 L1883.09 1734.12 L1883.09 1728.2 L1841.49 1728.2 L1841.49 1728.2  Z" fill="#009af9" fill-rule="evenodd" fill-opacity="1"/>
<polyline clip-path="url(#clip512)" style="stroke:#000000; stroke-linecap:round; stroke-linejoin:round; stroke-width:4; stroke-opacity:1; fill:none" points="1841.49,1728.2 1841.49,1734.12 1883.09,1734.12 1883.09,1728.2 1841.49,1728.2 "/>
<path clip-path="url(#clip512)" d="M1883.09 1728.2 L1883.09 1734.12 L1924.69 1734.12 L1924.69 1728.2 L1883.09 1728.2 L1883.09 1728.2  Z" fill="#009af9" fill-rule="evenodd" fill-opacity="1"/>
<polyline clip-path="url(#clip512)" style="stroke:#000000; stroke-linecap:round; stroke-linejoin:round; stroke-width:4; stroke-opacity:1; fill:none" points="1883.09,1728.2 1883.09,1734.12 1924.69,1734.12 1924.69,1728.2 1883.09,1728.2 "/>
<path clip-path="url(#clip512)" d="M1924.69 1734.12 L1924.69 1734.12 L1966.28 1734.12 L1966.28 1734.12 L1924.69 1734.12 L1924.69 1734.12  Z" fill="#009af9" fill-rule="evenodd" fill-opacity="1"/>
<polyline clip-path="url(#clip512)" style="stroke:#000000; stroke-linecap:round; stroke-linejoin:round; stroke-width:4; stroke-opacity:1; fill:none" points="1924.69,1734.12 1924.69,1734.12 1966.28,1734.12 1924.69,1734.12 "/>
<path clip-path="url(#clip512)" d="M1966.28 1729.68 L1966.28 1734.12 L2007.88 1734.12 L2007.88 1729.68 L1966.28 1729.68 L1966.28 1729.68  Z" fill="#009af9" fill-rule="evenodd" fill-opacity="1"/>
<polyline clip-path="url(#clip512)" style="stroke:#000000; stroke-linecap:round; stroke-linejoin:round; stroke-width:4; stroke-opacity:1; fill:none" points="1966.28,1729.68 1966.28,1734.12 2007.88,1734.12 2007.88,1729.68 1966.28,1729.68 "/>
<path clip-path="url(#clip512)" d="M2007.88 1734.12 L2007.88 1734.12 L2049.48 1734.12 L2049.48 1734.12 L2007.88 1734.12 L2007.88 1734.12  Z" fill="#009af9" fill-rule="evenodd" fill-opacity="1"/>
<polyline clip-path="url(#clip512)" style="stroke:#000000; stroke-linecap:round; stroke-linejoin:round; stroke-width:4; stroke-opacity:1; fill:none" points="2007.88,1734.12 2007.88,1734.12 2049.48,1734.12 2007.88,1734.12 "/>
<path clip-path="url(#clip512)" d="M2049.48 1734.12 L2049.48 1734.12 L2091.08 1734.12 L2091.08 1734.12 L2049.48 1734.12 L2049.48 1734.12  Z" fill="#009af9" fill-rule="evenodd" fill-opacity="1"/>
<polyline clip-path="url(#clip512)" style="stroke:#000000; stroke-linecap:round; stroke-linejoin:round; stroke-width:4; stroke-opacity:1; fill:none" points="2049.48,1734.12 2049.48,1734.12 2091.08,1734.12 2049.48,1734.12 "/>
<path clip-path="url(#clip512)" d="M2091.08 1734.12 L2091.08 1734.12 L2132.68 1734.12 L2132.68 1734.12 L2091.08 1734.12 L2091.08 1734.12  Z" fill="#009af9" fill-rule="evenodd" fill-opacity="1"/>
<polyline clip-path="url(#clip512)" style="stroke:#000000; stroke-linecap:round; stroke-linejoin:round; stroke-width:4; stroke-opacity:1; fill:none" points="2091.08,1734.12 2091.08,1734.12 2132.68,1734.12 2091.08,1734.12 "/>
<path clip-path="url(#clip512)" d="M2132.68 1734.12 L2132.68 1734.12 L2174.28 1734.12 L2174.28 1734.12 L2132.68 1734.12 L2132.68 1734.12  Z" fill="#009af9" fill-rule="evenodd" fill-opacity="1"/>
<polyline clip-path="url(#clip512)" style="stroke:#000000; stroke-linecap:round; stroke-linejoin:round; stroke-width:4; stroke-opacity:1; fill:none" points="2132.68,1734.12 2132.68,1734.12 2174.28,1734.12 2132.68,1734.12 "/>
<path clip-path="url(#clip512)" d="M2174.28 1734.12 L2174.28 1734.12 L2215.88 1734.12 L2215.88 1734.12 L2174.28 1734.12 L2174.28 1734.12  Z" fill="#009af9" fill-rule="evenodd" fill-opacity="1"/>
<polyline clip-path="url(#clip512)" style="stroke:#000000; stroke-linecap:round; stroke-linejoin:round; stroke-width:4; stroke-opacity:1; fill:none" points="2174.28,1734.12 2174.28,1734.12 2215.88,1734.12 2174.28,1734.12 "/>
<path clip-path="url(#clip512)" d="M2215.88 1734.12 L2215.88 1734.12 L2257.48 1734.12 L2257.48 1734.12 L2215.88 1734.12 L2215.88 1734.12  Z" fill="#009af9" fill-rule="evenodd" fill-opacity="1"/>
<polyline clip-path="url(#clip512)" style="stroke:#000000; stroke-linecap:round; stroke-linejoin:round; stroke-width:4; stroke-opacity:1; fill:none" points="2215.88,1734.12 2215.88,1734.12 2257.48,1734.12 2215.88,1734.12 "/>
<path clip-path="url(#clip512)" d="M2257.48 1734.12 L2257.48 1734.12 L2299.08 1734.12 L2299.08 1734.12 L2257.48 1734.12 L2257.48 1734.12  Z" fill="#009af9" fill-rule="evenodd" fill-opacity="1"/>
<polyline clip-path="url(#clip512)" style="stroke:#000000; stroke-linecap:round; stroke-linejoin:round; stroke-width:4; stroke-opacity:1; fill:none" points="2257.48,1734.12 2257.48,1734.12 2299.08,1734.12 2257.48,1734.12 "/>
<path clip-path="url(#clip512)" d="M2299.08 1734.12 L2299.08 1734.12 L2340.68 1734.12 L2340.68 1734.12 L2299.08 1734.12 L2299.08 1734.12  Z" fill="#009af9" fill-rule="evenodd" fill-opacity="1"/>
<polyline clip-path="url(#clip512)" style="stroke:#000000; stroke-linecap:round; stroke-linejoin:round; stroke-width:4; stroke-opacity:1; fill:none" points="2299.08,1734.12 2299.08,1734.12 2340.68,1734.12 2299.08,1734.12 "/>
<path clip-path="url(#clip512)" d="M2340.68 1734.12 L2340.68 1734.12 L2382.28 1734.12 L2382.28 1734.12 L2340.68 1734.12 L2340.68 1734.12  Z" fill="#009af9" fill-rule="evenodd" fill-opacity="1"/>
<polyline clip-path="url(#clip512)" style="stroke:#000000; stroke-linecap:round; stroke-linejoin:round; stroke-width:4; stroke-opacity:1; fill:none" points="2340.68,1734.12 2340.68,1734.12 2382.28,1734.12 2340.68,1734.12 "/>
<path clip-path="url(#clip512)" d="M2382.28 1734.12 L2382.28 1734.12 L2423.87 1734.12 L2423.87 1734.12 L2382.28 1734.12 L2382.28 1734.12  Z" fill="#009af9" fill-rule="evenodd" fill-opacity="1"/>
<polyline clip-path="url(#clip512)" style="stroke:#000000; stroke-linecap:round; stroke-linejoin:round; stroke-width:4; stroke-opacity:1; fill:none" points="2382.28,1734.12 2382.28,1734.12 2423.87,1734.12 2382.28,1734.12 "/>
<path clip-path="url(#clip512)" d="M2423.87 1734.12 L2423.87 1734.12 L2465.47 1734.12 L2465.47 1734.12 L2423.87 1734.12 L2423.87 1734.12  Z" fill="#009af9" fill-rule="evenodd" fill-opacity="1"/>
<polyline clip-path="url(#clip512)" style="stroke:#000000; stroke-linecap:round; stroke-linejoin:round; stroke-width:4; stroke-opacity:1; fill:none" points="2423.87,1734.12 2423.87,1734.12 2465.47,1734.12 2423.87,1734.12 "/>
<path clip-path="url(#clip512)" d="M2465.47 1732.64 L2465.47 1734.12 L2507.07 1734.12 L2507.07 1732.64 L2465.47 1732.64 L2465.47 1732.64  Z" fill="#009af9" fill-rule="evenodd" fill-opacity="1"/>
<polyline clip-path="url(#clip512)" style="stroke:#000000; stroke-linecap:round; stroke-linejoin:round; stroke-width:4; stroke-opacity:1; fill:none" points="2465.47,1732.64 2465.47,1734.12 2507.07,1734.12 2507.07,1732.64 2465.47,1732.64 "/>
<circle clip-path="url(#clip512)" style="fill:#009af9; stroke:none; fill-opacity:0" cx="364.72" cy="1732.64" r="2"/>
<circle clip-path="url(#clip512)" style="fill:#009af9; stroke:none; fill-opacity:0" cx="406.319" cy="1720.8" r="2"/>
<circle clip-path="url(#clip512)" style="fill:#009af9; stroke:none; fill-opacity:0" cx="447.918" cy="1658.68" r="2"/>
<circle clip-path="url(#clip512)" style="fill:#009af9; stroke:none; fill-opacity:0" cx="489.517" cy="1614.31" r="2"/>
<circle clip-path="url(#clip512)" style="fill:#009af9; stroke:none; fill-opacity:0" cx="531.117" cy="1343.63" r="2"/>
<circle clip-path="url(#clip512)" style="fill:#009af9; stroke:none; fill-opacity:0" cx="572.716" cy="1061.12" r="2"/>
<circle clip-path="url(#clip512)" style="fill:#009af9; stroke:none; fill-opacity:0" cx="614.315" cy="1133.59" r="2"/>
<circle clip-path="url(#clip512)" style="fill:#009af9; stroke:none; fill-opacity:0" cx="655.914" cy="925.038" r="2"/>
<circle clip-path="url(#clip512)" style="fill:#009af9; stroke:none; fill-opacity:0" cx="739.112" cy="435.449" r="2"/>
<circle clip-path="url(#clip512)" style="fill:#009af9; stroke:none; fill-opacity:0" cx="780.711" cy="1004.91" r="2"/>
<circle clip-path="url(#clip512)" style="fill:#009af9; stroke:none; fill-opacity:0" cx="822.31" cy="238.726" r="2"/>
<circle clip-path="url(#clip512)" style="fill:#009af9; stroke:none; fill-opacity:0" cx="863.909" cy="302.328" r="2"/>
<circle clip-path="url(#clip512)" style="fill:#009af9; stroke:none; fill-opacity:0" cx="905.508" cy="1069.99" r="2"/>
<circle clip-path="url(#clip512)" style="fill:#009af9; stroke:none; fill-opacity:0" cx="947.107" cy="487.218" r="2"/>
<circle clip-path="url(#clip512)" style="fill:#009af9; stroke:none; fill-opacity:0" cx="988.706" cy="1149.86" r="2"/>
<circle clip-path="url(#clip512)" style="fill:#009af9; stroke:none; fill-opacity:0" cx="1030.31" cy="1207.55" r="2"/>
<circle clip-path="url(#clip512)" style="fill:#009af9; stroke:none; fill-opacity:0" cx="1071.9" cy="1309.61" r="2"/>
<circle clip-path="url(#clip512)" style="fill:#009af9; stroke:none; fill-opacity:0" cx="1113.5" cy="1299.26" r="2"/>
<circle clip-path="url(#clip512)" style="fill:#009af9; stroke:none; fill-opacity:0" cx="1155.1" cy="1136.55" r="2"/>
<circle clip-path="url(#clip512)" style="fill:#009af9; stroke:none; fill-opacity:0" cx="1196.7" cy="1459" r="2"/>
<circle clip-path="url(#clip512)" style="fill:#009af9; stroke:none; fill-opacity:0" cx="1238.3" cy="1555.14" r="2"/>
<circle clip-path="url(#clip512)" style="fill:#009af9; stroke:none; fill-opacity:0" cx="1279.9" cy="1556.62" r="2"/>
<circle clip-path="url(#clip512)" style="fill:#009af9; stroke:none; fill-opacity:0" cx="1321.5" cy="1734.12" r="2"/>
<circle clip-path="url(#clip512)" style="fill:#009af9; stroke:none; fill-opacity:0" cx="1363.1" cy="1627.62" r="2"/>
<circle clip-path="url(#clip512)" style="fill:#009af9; stroke:none; fill-opacity:0" cx="1404.7" cy="1645.37" r="2"/>
<circle clip-path="url(#clip512)" style="fill:#009af9; stroke:none; fill-opacity:0" cx="1446.3" cy="1679.39" r="2"/>
<circle clip-path="url(#clip512)" style="fill:#009af9; stroke:none; fill-opacity:0" cx="1487.9" cy="1677.91" r="2"/>
<circle clip-path="url(#clip512)" style="fill:#009af9; stroke:none; fill-opacity:0" cx="1529.49" cy="1691.22" r="2"/>
<circle clip-path="url(#clip512)" style="fill:#009af9; stroke:none; fill-opacity:0" cx="1571.09" cy="1734.12" r="2"/>
<circle clip-path="url(#clip512)" style="fill:#009af9; stroke:none; fill-opacity:0" cx="1612.69" cy="1714.89" r="2"/>
<circle clip-path="url(#clip512)" style="fill:#009af9; stroke:none; fill-opacity:0" cx="1654.29" cy="1717.85" r="2"/>
<circle clip-path="url(#clip512)" style="fill:#009af9; stroke:none; fill-opacity:0" cx="1695.89" cy="1734.12" r="2"/>
<circle clip-path="url(#clip512)" style="fill:#009af9; stroke:none; fill-opacity:0" cx="1737.49" cy="1714.89" r="2"/>
<circle clip-path="url(#clip512)" style="fill:#009af9; stroke:none; fill-opacity:0" cx="1779.09" cy="1719.33" r="2"/>
<circle clip-path="url(#clip512)" style="fill:#009af9; stroke:none; fill-opacity:0" cx="1820.69" cy="1734.12" r="2"/>
<circle clip-path="url(#clip512)" style="fill:#009af9; stroke:none; fill-opacity:0" cx="1862.29" cy="1728.2" r="2"/>
<circle clip-path="url(#clip512)" style="fill:#009af9; stroke:none; fill-opacity:0" cx="1903.89" cy="1728.2" r="2"/>
<circle clip-path="url(#clip512)" style="fill:#009af9; stroke:none; fill-opacity:0" cx="1945.49" cy="1734.12" r="2"/>
<circle clip-path="url(#clip512)" style="fill:#009af9; stroke:none; fill-opacity:0" cx="1987.08" cy="1729.68" r="2"/>
<circle clip-path="url(#clip512)" style="fill:#009af9; stroke:none; fill-opacity:0" cx="2028.68" cy="1734.12" r="2"/>
<circle clip-path="url(#clip512)" style="fill:#009af9; stroke:none; fill-opacity:0" cx="2070.28" cy="1734.12" r="2"/>
<circle clip-path="url(#clip512)" style="fill:#009af9; stroke:none; fill-opacity:0" cx="2111.88" cy="1734.12" r="2"/>
<circle clip-path="url(#clip512)" style="fill:#009af9; stroke:none; fill-opacity:0" cx="2153.48" cy="1734.12" r="2"/>
<circle clip-path="url(#clip512)" style="fill:#009af9; stroke:none; fill-opacity:0" cx="2195.08" cy="1734.12" r="2"/>
<circle clip-path="url(#clip512)" style="fill:#009af9; stroke:none; fill-opacity:0" cx="2236.68" cy="1734.12" r="2"/>
<circle clip-path="url(#clip512)" style="fill:#009af9; stroke:none; fill-opacity:0" cx="2278.28" cy="1734.12" r="2"/>
<circle clip-path="url(#clip512)" style="fill:#009af9; stroke:none; fill-opacity:0" cx="2319.88" cy="1734.12" r="2"/>
<circle clip-path="url(#clip512)" style="fill:#009af9; stroke:none; fill-opacity:0" cx="2361.48" cy="1734.12" r="2"/>
<circle clip-path="url(#clip512)" style="fill:#009af9; stroke:none; fill-opacity:0" cx="2403.08" cy="1734.12" r="2"/>
<circle clip-path="url(#clip512)" style="fill:#009af9; stroke:none; fill-opacity:0" cx="2444.67" cy="1734.12" r="2"/>
<circle clip-path="url(#clip512)" style="fill:#009af9; stroke:none; fill-opacity:0" cx="2486.27" cy="1732.64" r="2"/>
<polyline clip-path="url(#clip512)" style="stroke:#e26f46; stroke-linecap:round; stroke-linejoin:round; stroke-width:4; stroke-opacity:1; fill:none" points="856.112,3340.44 856.112,-1478.53 "/>
<polyline clip-path="url(#clip512)" style="stroke:#3da44d; stroke-linecap:round; stroke-linejoin:round; stroke-width:4; stroke-opacity:1; fill:none" points="858.357,3340.44 858.357,-1478.53 "/>
<path clip-path="url(#clip510)" d="M2183.26 336.856 L2559.74 336.856 L2559.74 181.336 L2183.26 181.336  Z" fill="#ffffff" fill-rule="evenodd" fill-opacity="1"/>
<polyline clip-path="url(#clip510)" style="stroke:#000000; stroke-linecap:round; stroke-linejoin:round; stroke-width:4; stroke-opacity:1; fill:none" points="2183.26,336.856 2559.74,336.856 2559.74,181.336 2183.26,181.336 2183.26,336.856 "/>
<polyline clip-path="url(#clip510)" style="stroke:#e26f46; stroke-linecap:round; stroke-linejoin:round; stroke-width:4; stroke-opacity:1; fill:none" points="2210.27,233.176 2372.3,233.176 "/>
<path clip-path="url(#clip510)" d="M2417.55 246.253 Q2417.74 246.463 2417.74 246.674 Q2417.74 246.885 2417.27 247.494 Q2416.83 248.103 2415.87 248.923 Q2414.91 249.743 2413.67 250.516 Q2412.42 251.289 2410.6 251.804 Q2408.77 252.343 2406.85 252.343 Q2403.41 252.343 2401.35 249.883 Q2399.31 247.424 2399.31 243.653 Q2399.31 241.24 2400.1 239.109 Q2400.9 236.954 2402.19 235.432 Q2403.5 233.909 2405.14 232.808 Q2406.8 231.684 2408.54 231.145 Q2410.27 230.607 2411.89 230.607 Q2414.25 230.607 2415.63 231.801 Q2417.02 232.996 2417.02 234.682 Q2417.02 235.08 2416.9 235.572 Q2416.8 236.064 2416.48 236.837 Q2416.17 237.61 2415.38 238.383 Q2414.58 239.132 2413.41 239.624 Q2410.81 240.725 2406.08 240.725 L2403.52 240.725 Q2402.77 243.746 2402.77 245.714 Q2402.77 246.487 2402.91 247.283 Q2403.06 248.056 2403.43 249.04 Q2403.83 250.024 2404.72 250.656 Q2405.63 251.265 2406.94 251.265 Q2407.36 251.265 2407.81 251.242 Q2408.28 251.218 2409.45 250.961 Q2410.64 250.703 2411.7 250.258 Q2412.75 249.813 2414.09 248.853 Q2415.45 247.869 2416.52 246.534 Q2416.9 246.042 2417.16 246.042 Q2417.37 246.042 2417.55 246.253 M2415.42 234.682 Q2415.42 233.394 2414.46 232.527 Q2413.53 231.661 2411.89 231.661 Q2411.37 231.661 2410.74 231.778 Q2410.11 231.895 2409.05 232.387 Q2408.02 232.878 2407.11 233.698 Q2406.19 234.495 2405.28 236.064 Q2404.37 237.61 2403.83 239.671 L2405.8 239.671 Q2406.47 239.671 2406.97 239.671 Q2407.46 239.648 2408.54 239.554 Q2409.64 239.46 2410.43 239.296 Q2411.23 239.109 2412.24 238.734 Q2413.24 238.359 2413.88 237.867 Q2414.53 237.352 2414.98 236.532 Q2415.42 235.713 2415.42 234.682 Z" fill="#000000" fill-rule="nonzero" fill-opacity="1" /><path clip-path="url(#clip510)" d="M2444.85 228.6 Q2445.04 228.797 2445.04 229.076 Q2445.04 229.354 2444.85 229.551 Q2444.65 229.748 2444.37 229.748 L2423.35 229.748 Q2423.07 229.748 2422.88 229.551 Q2422.68 229.354 2422.68 229.076 Q2422.68 228.797 2422.88 228.6 Q2423.07 228.403 2423.35 228.403 L2444.37 228.403 Q2444.65 228.403 2444.85 228.6 Z" fill="#000000" fill-rule="nonzero" fill-opacity="1" /><path clip-path="url(#clip510)" d="M2448.55 237.47 Q2448.55 236.864 2448.6 236.683 Q2448.66 236.503 2448.93 236.224 L2455.37 229.043 Q2458.9 225.075 2458.9 221.616 Q2458.9 219.369 2457.72 217.763 Q2456.55 216.156 2454.4 216.156 Q2452.93 216.156 2451.68 217.058 Q2450.44 217.959 2449.86 219.566 Q2449.96 219.533 2450.3 219.533 Q2451.14 219.533 2451.6 220.058 Q2452.07 220.583 2452.07 221.288 Q2452.07 222.189 2451.48 222.632 Q2450.91 223.058 2450.34 223.058 Q2450.11 223.058 2449.8 223.009 Q2449.5 222.96 2449.03 222.501 Q2448.55 222.026 2448.55 221.189 Q2448.55 218.845 2450.32 216.976 Q2452.11 215.107 2454.83 215.107 Q2457.91 215.107 2459.93 216.943 Q2461.96 218.763 2461.96 221.616 Q2461.96 222.616 2461.65 223.534 Q2461.35 224.436 2460.95 225.141 Q2460.55 225.846 2459.47 226.977 Q2458.39 228.108 2457.52 228.912 Q2456.65 229.715 2454.7 231.42 L2451.14 234.88 L2457.19 234.88 Q2460.14 234.88 2460.37 234.617 Q2460.7 234.142 2461.11 231.633 L2461.96 231.633 L2461.01 237.47 L2448.55 237.47 Z" fill="#000000" fill-rule="nonzero" fill-opacity="1" /><path clip-path="url(#clip510)" d="M2479.18 220.681 Q2479.18 223.436 2478.3 226.534 Q2477.43 229.617 2476.05 232.109 Q2474.68 234.585 2472.87 236.224 Q2471.07 237.847 2469.35 237.847 Q2468.25 237.847 2467.43 237.241 Q2466.63 236.618 2466.18 235.585 Q2465.74 234.535 2465.53 233.388 Q2465.31 232.224 2465.31 230.961 Q2465.31 229.076 2465.72 227.026 Q2466.13 224.96 2466.82 223.091 Q2467.51 221.206 2468.48 219.501 Q2469.45 217.779 2470.51 216.533 Q2471.59 215.27 2472.81 214.533 Q2474.02 213.795 2475.15 213.795 Q2475.97 213.795 2476.63 214.156 Q2477.3 214.5 2477.73 215.107 Q2478.15 215.697 2478.45 216.402 Q2478.76 217.107 2478.91 217.927 Q2479.05 218.73 2479.12 219.402 Q2479.18 220.058 2479.18 220.681 M2476.97 218.599 Q2476.97 217.763 2476.91 217.14 Q2476.84 216.5 2476.66 215.861 Q2476.48 215.221 2476.09 214.877 Q2475.71 214.533 2475.12 214.533 Q2473.4 214.533 2471.46 218.058 Q2470.84 219.156 2470.28 220.648 Q2469.72 222.14 2469.53 222.845 Q2469.33 223.55 2468.87 225.288 L2475.89 225.288 Q2476.97 220.812 2476.97 218.599 M2475.59 226.354 L2468.61 226.354 Q2467.53 230.453 2467.53 233.011 Q2467.53 235.24 2467.99 236.175 Q2468.46 237.093 2469.35 237.093 Q2470.36 237.093 2471.31 236.077 Q2472.27 235.044 2473.23 233.175 Q2474.51 230.748 2475.59 226.354 Z" fill="#000000" fill-rule="nonzero" fill-opacity="1" /><polyline clip-path="url(#clip510)" style="stroke:#3da44d; stroke-linecap:round; stroke-linejoin:round; stroke-width:4; stroke-opacity:1; fill:none" points="2210.27,285.016 2372.3,285.016 "/>
<path clip-path="url(#clip510)" d="M2399.31 267.736 L2406.28 267.736 L2415.09 291.255 L2423.96 267.736 L2430.93 267.736 L2430.93 302.296 L2426.37 302.296 L2426.37 271.949 L2417.46 295.653 L2412.76 295.653 L2403.84 271.949 L2403.84 302.296 L2399.31 302.296 L2399.31 267.736 Z" fill="#000000" fill-rule="nonzero" fill-opacity="1" /><path clip-path="url(#clip510)" d="M2462.2 288.269 L2462.2 290.352 L2442.62 290.352 Q2442.9 294.75 2445.26 297.065 Q2447.64 299.356 2451.88 299.356 Q2454.33 299.356 2456.62 298.755 Q2458.94 298.153 2461.21 296.949 L2461.21 300.977 Q2458.91 301.949 2456.51 302.458 Q2454.1 302.968 2451.62 302.968 Q2445.42 302.968 2441.78 299.356 Q2438.17 295.745 2438.17 289.588 Q2438.17 283.222 2441.6 279.495 Q2445.05 275.746 2450.88 275.746 Q2456.11 275.746 2459.15 279.125 Q2462.2 282.482 2462.2 288.269 M2457.94 287.019 Q2457.9 283.523 2455.97 281.44 Q2454.08 279.357 2450.93 279.357 Q2447.36 279.357 2445.21 281.37 Q2443.08 283.384 2442.76 287.042 L2457.94 287.019 M2453.84 264.38 L2458.45 264.38 L2450.9 273.083 L2447.36 273.083 L2453.84 264.38 Z" fill="#000000" fill-rule="nonzero" fill-opacity="1" /><path clip-path="url(#clip510)" d="M2486.25 280.306 L2486.25 266.278 L2490.51 266.278 L2490.51 302.296 L2486.25 302.296 L2486.25 298.407 Q2484.91 300.722 2482.85 301.856 Q2480.81 302.968 2477.94 302.968 Q2473.24 302.968 2470.28 299.218 Q2467.34 295.468 2467.34 289.357 Q2467.34 283.245 2470.28 279.495 Q2473.24 275.746 2477.94 275.746 Q2480.81 275.746 2482.85 276.88 Q2484.91 277.991 2486.25 280.306 M2471.74 289.357 Q2471.74 294.056 2473.66 296.741 Q2475.6 299.403 2478.98 299.403 Q2482.36 299.403 2484.31 296.741 Q2486.25 294.056 2486.25 289.357 Q2486.25 284.657 2484.31 281.995 Q2482.36 279.31 2478.98 279.31 Q2475.6 279.31 2473.66 281.995 Q2471.74 284.657 2471.74 289.357 Z" fill="#000000" fill-rule="nonzero" fill-opacity="1" /><path clip-path="url(#clip510)" d="M2499.28 276.371 L2503.54 276.371 L2503.54 302.296 L2499.28 302.296 L2499.28 276.371 M2499.28 266.278 L2503.54 266.278 L2503.54 271.671 L2499.28 271.671 L2499.28 266.278 Z" fill="#000000" fill-rule="nonzero" fill-opacity="1" /><path clip-path="url(#clip510)" d="M2524.24 289.264 Q2519.08 289.264 2517.08 290.444 Q2515.09 291.625 2515.09 294.472 Q2515.09 296.741 2516.58 298.083 Q2518.08 299.403 2520.65 299.403 Q2524.19 299.403 2526.32 296.903 Q2528.47 294.38 2528.47 290.213 L2528.47 289.264 L2524.24 289.264 M2532.73 287.505 L2532.73 302.296 L2528.47 302.296 L2528.47 298.361 Q2527.02 300.722 2524.84 301.856 Q2522.66 302.968 2519.52 302.968 Q2515.53 302.968 2513.17 300.745 Q2510.83 298.5 2510.83 294.75 Q2510.83 290.375 2513.75 288.153 Q2516.69 285.931 2522.5 285.931 L2528.47 285.931 L2528.47 285.514 Q2528.47 282.574 2526.53 280.977 Q2524.61 279.357 2521.11 279.357 Q2518.89 279.357 2516.78 279.889 Q2514.68 280.421 2512.73 281.486 L2512.73 277.551 Q2515.07 276.648 2517.27 276.208 Q2519.47 275.746 2521.55 275.746 Q2527.18 275.746 2529.96 278.662 Q2532.73 281.579 2532.73 287.505 Z" fill="#000000" fill-rule="nonzero" fill-opacity="1" /></svg>
